<svg xmlns="http://www.w3.org/2000/svg" xmlns:xlink="http://www.w3.org/1999/xlink" width="357" height="263.709" viewBox="0 0 357 263.709">
  <defs>
    <clipPath id="clip-path">
      <rect id="Rectángulo_345265" data-name="Rectángulo 345265" width="337.689" height="252.18" fill="none"/>
    </clipPath>
    <clipPath id="clip-path-2">
      <path id="Rectángulo_345267" data-name="Rectángulo 345267" d="M3.463,0H109.7a3.463,3.463,0,0,1,3.463,3.463v41.53a3.464,3.464,0,0,1-3.464,3.464H3.464A3.464,3.464,0,0,1,0,44.993V3.463A3.463,3.463,0,0,1,3.463,0Z" fill="none"/>
    </clipPath>
    <clipPath id="clip-path-4">
      <path id="Rectángulo_345270" data-name="Rectángulo 345270" d="M3.463,0H163.779a3.463,3.463,0,0,1,3.463,3.463v104.6a3.462,3.462,0,0,1-3.462,3.462H3.463A3.463,3.463,0,0,1,0,108.06V3.463A3.463,3.463,0,0,1,3.463,0Z" fill="none"/>
    </clipPath>
  </defs>
  <g id="Grupo_1014634" data-name="Grupo 1014634" transform="translate(-223 -10733.291)">
    <rect id="Rectángulo_345275" data-name="Rectángulo 345275" width="357" height="56" rx="28" transform="translate(223 10941)" fill="#e3ecf7"/>
    <g id="Grupo_1014633" data-name="Grupo 1014633" transform="translate(233.256 10733.291)">
      <g id="Grupo_1014624" data-name="Grupo 1014624">
        <g id="Grupo_1014623" data-name="Grupo 1014623" clip-path="url(#clip-path)">
          <path id="Trazado_601360" data-name="Trazado 601360" d="M137.12,73.671a1.987,1.987,0,1,1-1.978,1.985,1.981,1.981,0,0,1,1.978-1.985" transform="translate(198.591 108.26)" fill-rule="evenodd"/>
          <path id="Trazado_601361" data-name="Trazado 601361" d="M134.376,73.671a1.987,1.987,0,1,1-1.978,1.985,1.981,1.981,0,0,1,1.978-1.985" transform="translate(194.559 108.26)" fill-rule="evenodd"/>
          <path id="Trazado_601362" data-name="Trazado 601362" d="M131.63,73.671a1.987,1.987,0,1,1-1.978,1.985,1.982,1.982,0,0,1,1.978-1.985" transform="translate(190.524 108.26)" fill-rule="evenodd"/>
          <path id="Trazado_601363" data-name="Trazado 601363" d="M131.63,73.671a1.987,1.987,0,1,1-1.978,1.985,1.982,1.982,0,0,1,1.978-1.985" transform="translate(190.524 108.26)" fill-rule="evenodd"/>
          <path id="Trazado_601364" data-name="Trazado 601364" d="M128.884,73.671a1.987,1.987,0,1,1-1.978,1.985,1.982,1.982,0,0,1,1.978-1.985" transform="translate(186.488 108.26)" fill-rule="evenodd"/>
          <path id="Trazado_601365" data-name="Trazado 601365" d="M126.14,73.671a1.987,1.987,0,1,1-1.978,1.985,1.982,1.982,0,0,1,1.978-1.985" transform="translate(182.456 108.26)" fill-rule="evenodd"/>
          <path id="Trazado_601366" data-name="Trazado 601366" d="M123.394,73.671a1.987,1.987,0,1,1-1.978,1.985,1.981,1.981,0,0,1,1.978-1.985" transform="translate(178.421 108.26)" fill-rule="evenodd"/>
          <path id="Trazado_601367" data-name="Trazado 601367" d="M137.12,73.671a1.987,1.987,0,1,1-1.978,1.985,1.981,1.981,0,0,1,1.978-1.985" transform="translate(198.591 108.26)" fill-rule="evenodd"/>
          <path id="Trazado_601368" data-name="Trazado 601368" d="M134.376,73.671a1.987,1.987,0,1,1-1.978,1.985,1.981,1.981,0,0,1,1.978-1.985" transform="translate(194.559 108.26)" fill-rule="evenodd"/>
          <path id="Trazado_601369" data-name="Trazado 601369" d="M131.63,73.671a1.987,1.987,0,1,1-1.978,1.985,1.982,1.982,0,0,1,1.978-1.985" transform="translate(190.524 108.26)" fill-rule="evenodd"/>
          <path id="Trazado_601370" data-name="Trazado 601370" d="M131.63,73.671a1.987,1.987,0,1,1-1.978,1.985,1.982,1.982,0,0,1,1.978-1.985" transform="translate(190.524 108.26)" fill-rule="evenodd"/>
          <path id="Trazado_601371" data-name="Trazado 601371" d="M128.884,73.671a1.987,1.987,0,1,1-1.978,1.985,1.982,1.982,0,0,1,1.978-1.985" transform="translate(186.488 108.26)" fill-rule="evenodd"/>
          <path id="Trazado_601372" data-name="Trazado 601372" d="M126.14,73.671a1.987,1.987,0,1,1-1.978,1.985,1.982,1.982,0,0,1,1.978-1.985" transform="translate(182.456 108.26)" fill-rule="evenodd"/>
          <path id="Trazado_601373" data-name="Trazado 601373" d="M123.394,73.671a1.987,1.987,0,1,1-1.978,1.985,1.981,1.981,0,0,1,1.978-1.985" transform="translate(178.421 108.26)" fill-rule="evenodd"/>
          <path id="Trazado_601374" data-name="Trazado 601374" d="M137.12,76.43a1.984,1.984,0,1,1-1.978,1.983,1.979,1.979,0,0,1,1.978-1.983" transform="translate(198.591 112.314)" fill-rule="evenodd"/>
          <path id="Trazado_601375" data-name="Trazado 601375" d="M134.376,76.43a1.984,1.984,0,1,1-1.978,1.983,1.979,1.979,0,0,1,1.978-1.983" transform="translate(194.559 112.314)" fill-rule="evenodd"/>
          <path id="Trazado_601376" data-name="Trazado 601376" d="M131.63,76.43a1.984,1.984,0,1,1-1.978,1.983,1.98,1.98,0,0,1,1.978-1.983" transform="translate(190.524 112.314)" fill-rule="evenodd"/>
          <path id="Trazado_601377" data-name="Trazado 601377" d="M131.63,76.43a1.984,1.984,0,1,1-1.978,1.983,1.98,1.98,0,0,1,1.978-1.983" transform="translate(190.524 112.314)" fill-rule="evenodd"/>
          <path id="Trazado_601378" data-name="Trazado 601378" d="M128.884,76.43a1.984,1.984,0,1,1-1.978,1.983,1.98,1.98,0,0,1,1.978-1.983" transform="translate(186.488 112.314)" fill-rule="evenodd"/>
          <path id="Trazado_601379" data-name="Trazado 601379" d="M126.14,76.43a1.984,1.984,0,1,1-1.978,1.983,1.98,1.98,0,0,1,1.978-1.983" transform="translate(182.456 112.314)" fill-rule="evenodd"/>
          <path id="Trazado_601380" data-name="Trazado 601380" d="M123.394,76.43a1.984,1.984,0,1,1-1.978,1.983,1.979,1.979,0,0,1,1.978-1.983" transform="translate(178.421 112.314)" fill-rule="evenodd"/>
          <path id="Trazado_601381" data-name="Trazado 601381" d="M118.4,5.7h.854a2.6,2.6,0,0,1,2.6,2.6V94.877a2.6,2.6,0,0,1-2.6,2.6H118.4a2.6,2.6,0,0,1-2.6-2.6V8.3a2.6,2.6,0,0,1,2.6-2.6" transform="translate(170.165 8.37)" fill="#fff" fill-rule="evenodd"/>
          <path id="Trazado_601382" data-name="Trazado 601382" d="M119.782,98.9h-.854a3.493,3.493,0,0,1-3.489-3.492V8.827a3.493,3.493,0,0,1,3.489-3.492h.854a3.493,3.493,0,0,1,3.492,3.492V95.405a3.493,3.493,0,0,1-3.492,3.492m-.854-91.781a1.712,1.712,0,0,0-1.709,1.711V95.405a1.71,1.71,0,0,0,1.709,1.711h.854a1.714,1.714,0,0,0,1.711-1.711V8.827a1.715,1.715,0,0,0-1.711-1.711Z" transform="translate(169.636 7.84)"/>
          <path id="Trazado_601383" data-name="Trazado 601383" d="M116.62,24.428l5.129-.929.5,43.041-1,4.349-2.635.141-1.924-1.21-.926-3.919Z" transform="translate(170.118 34.532)" fill-rule="evenodd"/>
          <path id="Trazado_601465" data-name="Trazado 601465" d="M1.055,0H9.209a1.054,1.054,0,0,1,1.054,1.054V9.2a1.055,1.055,0,0,1-1.055,1.055H1.055A1.055,1.055,0,0,1,0,9.2V1.055A1.055,1.055,0,0,1,1.055,0Z" transform="translate(283.86 52.115)" fill="#752121"/>
          <path id="Trazado_601384" data-name="Trazado 601384" d="M123.068,22.524a1.782,1.782,0,0,1,1.778,1.781v4.914A1.783,1.783,0,0,1,123.068,31h-4.919a1.785,1.785,0,0,1-1.781-1.783V24.3a1.784,1.784,0,0,1,1.781-1.781Zm0-1.781h-4.919a3.561,3.561,0,0,0-3.564,3.561v4.914a3.563,3.563,0,0,0,3.564,3.563h4.919a3.563,3.563,0,0,0,3.561-3.563V24.3a3.561,3.561,0,0,0-3.561-3.561" transform="translate(168.383 30.482)"/>
          <path id="Trazado_601385" data-name="Trazado 601385" d="M125.612,5.7h.854a2.6,2.6,0,0,1,2.6,2.6V94.877a2.6,2.6,0,0,1-2.6,2.6h-.854a2.6,2.6,0,0,1-2.6-2.6V8.3a2.6,2.6,0,0,1,2.6-2.6" transform="translate(180.766 8.37)" fill="#fff" fill-rule="evenodd"/>
          <path id="Trazado_601386" data-name="Trazado 601386" d="M127,98.9h-.857a3.5,3.5,0,0,1-3.492-3.492V8.827a3.5,3.5,0,0,1,3.492-3.492H127a3.494,3.494,0,0,1,3.489,3.492V95.405A3.494,3.494,0,0,1,127,98.9m-.857-91.781a1.715,1.715,0,0,0-1.711,1.711V95.405a1.714,1.714,0,0,0,1.711,1.711H127a1.712,1.712,0,0,0,1.709-1.711V8.827A1.713,1.713,0,0,0,127,7.116Z" transform="translate(180.236 7.84)"/>
          <path id="Trazado_601387" data-name="Trazado 601387" d="M123.835,17.607l5.132-.926.5,59.878-1,4.349-2.637.141-1.924-1.21-.926-3.919Z" transform="translate(180.72 24.513)" fill-rule="evenodd"/>
          <rect id="Rectángulo_345263" data-name="Rectángulo 345263" width="10.263" height="10.263" rx="1.083" transform="translate(301.674 33.799)" fill="#33ece0"/>
          <path id="Trazado_601388" data-name="Trazado 601388" d="M130.28,15.107a1.785,1.785,0,0,1,1.783,1.783V21.8a1.785,1.785,0,0,1-1.783,1.783h-4.917a1.783,1.783,0,0,1-1.781-1.783V16.889a1.783,1.783,0,0,1,1.781-1.783Zm0-1.781h-4.917a3.565,3.565,0,0,0-3.563,3.563V21.8a3.565,3.565,0,0,0,3.563,3.563h4.917a3.563,3.563,0,0,0,3.564-3.563V16.889a3.563,3.563,0,0,0-3.564-3.563" transform="translate(178.985 19.583)"/>
          <path id="Trazado_601389" data-name="Trazado 601389" d="M111.186,5.7h.854a2.6,2.6,0,0,1,2.6,2.6V94.877a2.6,2.6,0,0,1-2.6,2.6h-.854a2.6,2.6,0,0,1-2.6-2.6V8.3a2.6,2.6,0,0,1,2.6-2.6" transform="translate(159.563 8.37)" fill="#fff" fill-rule="evenodd"/>
          <path id="Trazado_601390" data-name="Trazado 601390" d="M112.569,98.9h-.854a3.5,3.5,0,0,1-3.492-3.492V8.827a3.5,3.5,0,0,1,3.492-3.492h.854a3.5,3.5,0,0,1,3.492,3.492V95.405a3.5,3.5,0,0,1-3.492,3.492m-.854-91.781A1.715,1.715,0,0,0,110,8.827V95.405a1.714,1.714,0,0,0,1.711,1.711h.854a1.715,1.715,0,0,0,1.711-1.711V8.827a1.717,1.717,0,0,0-1.711-1.711Z" transform="translate(159.034 7.84)"/>
          <path id="Trazado_601391" data-name="Trazado 601391" d="M109.406,34.354l5.132-.926.5,18.521-1,4.349-2.637.141-1.924-1.21-.926-3.919Z" transform="translate(159.516 49.123)" fill-rule="evenodd"/>
          <path id="Rectángulo_345264" data-name="Rectángulo 345264" d="M1.083,0h8.1a1.083,1.083,0,0,1,1.083,1.083V9.175A1.083,1.083,0,0,1,9.18,10.258h-8.1A1.082,1.082,0,0,1,0,9.176V1.083A1.083,1.083,0,0,1,1.083,0Z" transform="translate(266.043 76.668)" fill="#33ece0"/>
          <path id="Trazado_601392" data-name="Trazado 601392" d="M115.851,32.466a1.783,1.783,0,0,1,1.781,1.783v4.914a1.781,1.781,0,0,1-1.781,1.781h-4.917a1.781,1.781,0,0,1-1.781-1.781V34.248a1.783,1.783,0,0,1,1.781-1.783Zm0-1.781h-4.917a3.563,3.563,0,0,0-3.563,3.563v4.914a3.561,3.561,0,0,0,3.563,3.561h4.917a3.561,3.561,0,0,0,3.563-3.561V34.248a3.563,3.563,0,0,0-3.563-3.563" transform="translate(157.782 45.092)"/>
          <path id="Trazado_601393" data-name="Trazado 601393" d="M76.769,154.83s11.972-19.161,17.6-26.009,7.411-8.9,9.4-10.76a74.2,74.2,0,0,1,6.342-4.845s-3.781-3.23-4.988-4.42a22.731,22.731,0,0,1-2.492-3.205s-5.327,3.023-9.693,1.353-7.307-3.835-7.125-7.91a19.84,19.84,0,0,1,2.494-7.981s-4.778-1.983-5.2-5.912-.044-5.371,4.062-9.194S95.9,59.944,96.72,52s.19-25.248,2.778-28.5,12-9.594,18.81-6.986,16.662,5.9,17.531,7.27,2.613,2.7,1.5,4.487a20.03,20.03,0,0,1-4.134,3.991s-1.178,4.665.425,7.127a30.2,30.2,0,0,1,2.069,3.494s-2.536,8.322-7.27,9.048-5.487.783-5.487.783l-1.709,5.917s6.2,5.346,10.9,7.053,10.372,4.275,10.972,7.409a16.765,16.765,0,0,1-.282,6.487l5.127,4.7s8.075-4.872,14.042-20.094c4.2-10.715,5.895-21.43,9.335-27.29,3.712-6.334,6.169-5.137,6.127-3.279s-2.635,5.912-2.635,5.912l-1.215,5.487s8.386.338,8.552,3.991.143,8.572-1.494,9.624a9.477,9.477,0,0,1-4.065,1.138s.385,6.137-1.778,6.7a29.11,29.11,0,0,0-3.7,1.21s-5.191,18.63-8.554,26.72-6.152,12.33-11.76,12.115-12.9-5.7-12.9-5.7.536,7.8-1.422,9.406a19.117,19.117,0,0,0-3.423,3.845s18.45,24.636,29.644,56.366,17.032,48.1,17.032,48.1L75.485,221.477Z" transform="translate(110.925 23.367)" fill="#fff" fill-rule="evenodd"/>
          <path id="Trazado_601394" data-name="Trazado 601394" d="M122.057,73.269s.5,6.426-.926,8.268A20.735,20.735,0,0,1,117,85.17l-22.3-.43s-8.11-3.484-7.981-10.258S86.644,40.04,89.776,38s10.584-5.2,16.817-1.5S132.816,56.81,132.816,56.81l3.564-4.346s1.464,4.638,5.843,6.2a13.8,13.8,0,0,0,7.268.857s-3.171,13.523-7.125,16.314a12.528,12.528,0,0,1-12.4,1.64,52.562,52.562,0,0,1-7.91-4.2" transform="translate(127.42 51.124)" fill-rule="evenodd"/>
          <path id="Trazado_601395" data-name="Trazado 601395" d="M130.488,33.749c.062,2-.321,3.956.072,5.556a5.433,5.433,0,0,0,2.064,3.208c.751.437,1.862.2,2,1.425-.249,1.963-2.5.669-3.205.212a7.37,7.37,0,0,1-2.993-4.487c-.412-2.013.39-4.85-.212-6.984-.373-1.316-1.41-1.981-2-2.778-.672,1.04-1.306,2.114-1.924,3.205,1.082.165,2.311.069,2.423,1.069.188,1.706-2.227,1.094-3.707.926a73.628,73.628,0,0,1-7.268,7.91c-.652.652-1.8,2.223-2.707,2.279-.553.035-.8-.378-1.282-.5-1.178-.3-3.344.19-3.205-1.282.111-1.205,1.743-.622,2.85-.57.047-.63-.484-.687-.926-.929-.388-.2-.884-.6-1.284-.568-.906.059-1.511,1.605-1.5,2.566a3.654,3.654,0,0,0,1.64,2.637c1.5.9,3.82.3,3.134,2.563a43.436,43.436,0,0,0,4.062,7.836c.622-1.156,1.087-2.474,1.64-3.7-.864-.585-2.544-.6-2.494-1.924.074-2.032,2.8-.084,3.919.143,2.84.578,5.529-.966,6.766-1.852a15.4,15.4,0,0,1-2.279-1.213c-.642-.437-1.669-1.032-1.64-1.85a.919.919,0,0,1,.857-.929c.805-.138,1.5.667,2.208,1.141a6.8,6.8,0,0,0,2.423,1.069c.832-.257,1.864-4.413,3.42-2.85.852.85-.546,2.632-1.069,3.418a11.494,11.494,0,0,1-9.9,5.272c-.887,1.583-1.487,3.455-2.282,5.129,4.737,4.788,13.758,6.263,19.168,10.9,1.85,1.588,3.47,3.465,3.564,6.411a17.056,17.056,0,0,1-.5,4.206,49.679,49.679,0,0,0,4.346,3.561,93.556,93.556,0,0,0,8.764-11.468c3.877-6.1,5.838-14.377,7.979-22.374a50.506,50.506,0,0,1,2.351-7.767,40.388,40.388,0,0,1,5.7-9.475c.731-.852,1.763-2.124,2.993-2,1.647.173,2.008,2.963,1.781,4.776-.249,2.02-1.981,3.628-2.635,5.058-.457,1-.516,2.173-.926,3.208,2.865.867,6.021.827,7.554,3.492,1.146,2,1.03,5.512.5,8.335a8.4,8.4,0,0,1-1.141,3.349c-.884,1.109-2.59,1.393-4.062,1.783-.491,2.045-.274,4.159-1.353,5.485-.958,1.175-2.428,1.511-4.06,2.065-3,9.755-5.544,20.233-9.051,29.713-1.741,4.709-4.608,8.643-9.9,9.475-6.307.993-10.52-1.894-14.249-4.63-.2,2.734.052,5.3-.785,7.2-.812,1.842-2.334,2.773-3.847,3.847a217.575,217.575,0,0,1,14.535,23.51c4.388,8.251,8.251,17.017,12.113,25.937,7.152,16.523,13.254,34.366,19.166,52.227.39,1.175,1.867,4.109-.356,3.773-.84-.123-1.252-1.981-1.64-3.134C168.165,198.7,162.149,180.869,155,164.348c-7.7-17.8-15.733-34.714-26.648-49.232-6.156-.22-12.4-.533-18.667-.785a13.252,13.252,0,0,0-2.637-.072c-.9.19-2.277,1.477-3.275,2.21-5.435,3.973-8.861,8.9-12.97,14.249-.7.906-1.5,1.934-2.351,3.065-.654.872-1.674,2.751-2.635,2.778a1.009,1.009,0,0,1-1.069-.714c-.138-.63.43-1.3.854-1.852,2.746-3.571,5.463-7.189,8.194-10.545,3.3-4.052,6.571-7.665,11.044-10.33-2.314-1.889-4.685-3.724-6.127-6.485-2.341,1.069-4.86,2.306-7.695,2a11.134,11.134,0,0,1-9.974-9.688,8.856,8.856,0,0,1,2.136-7.413c-2.487-1.845-5.423-4.1-5.058-9.189.252-3.509,2.9-5.2,4.843-7.339a30.932,30.932,0,0,0,4.633-7.552,44.71,44.71,0,0,0,4.7-19.593c.081-4.164-.059-8.214.143-12.044.094-1.778.477-3.61.714-5.342a32.58,32.58,0,0,1,1-5.058c1.855-6.035,7.371-9.443,14.75-9.834a22.164,22.164,0,0,1,6.482.926A87.161,87.161,0,0,1,126.64,20a20.74,20.74,0,0,1,4.988,2.348c1.7,1.371,3.277,4.875,2.279,7.485-.64,1.667-2.129,2.67-3.42,3.917m1.566-5.2a5.9,5.9,0,0,0-1.637-4.415c-.971-.867-2.946-1.464-4.487-2.065a93.976,93.976,0,0,0-9.905-3.279,22.527,22.527,0,0,0-7.339-1.069c-6.754.432-11.728,3.618-12.967,9.977-.3,1.524-.44,3.188-.711,4.917-.8,5.035-.5,10.624-.642,16.388a43.922,43.922,0,0,1-4.346,18.309,36.409,36.409,0,0,1-3.991,7.337,30.945,30.945,0,0,1-2.707,2.924,13.89,13.89,0,0,0-2.637,3.062,7.46,7.46,0,0,0,.43,6.129,9.45,9.45,0,0,0,2.279,2.279c.79.585,2.39,1.161,2.423,2.139.027.753-.99,1.64-1.425,2.279a7.4,7.4,0,0,0-1.353,2.85,9.342,9.342,0,0,0,4.63,9.048c3.475,2.045,7.6,1.005,10.4-.854a168.745,168.745,0,0,1,.714-29.427c.356-3.1.5-6.485,1.709-8.621a7.8,7.8,0,0,1,4.275-3.065c3.6-1.294,9.419-1.459,12.827-.143a27.589,27.589,0,0,1,4.7,2.637,67.04,67.04,0,0,1,8.194,6.482c2.289,1.985,4.68,4.05,6.981,5.914.277.222.578.654,1,.57a6.884,6.884,0,0,0-1.353-6.339c-2.618-2.936-6.843-4.359-10.616-6.129a66.183,66.183,0,0,1-7.339-3.847c-4.909-3.112-6.433-7.764-8.977-13.323a5.513,5.513,0,0,1-4.559-5.912c.277-2.482,2.7-5.137,5.342-3.423a4.422,4.422,0,0,1,2.008,2.988c2.171-2.492,5.917-5.445,8.11-8.759,1.521-2.3,3.079-4.877,4.49-7.48.38-.7.9-2.19,1.852-2.139,2.018.114.054,3.183-.284,3.635a7.7,7.7,0,0,1,2.778,3.205c.891-.773,1.99-1.556,2.136-2.781M169.6,39.876a15.994,15.994,0,0,1,1.356-1.993,5.16,5.16,0,0,0,1-4.49c0-.044-.01-.084-.069-.072a31.594,31.594,0,0,0-3.776,5.272,35.666,35.666,0,0,0-2.924,5.843c-1.506,4.275-2.428,9.061-3.776,13.75-1.205,4.21-2.707,9.3-4.63,12.824a67.794,67.794,0,0,1-5.2,7.91c-.541.719-1.835,1.985-1.852,2.566-.025.785,1.035,1.684,1.568,2.21a10.037,10.037,0,0,0,2.136,1.635c1.758,1.067,3.489,2.032,5.7,1.926,1.682-.081,1.6-1.259,2.067-2.778,1.388-4.5,2.556-8.473,3.848-12.9.388-1.334.832-4.317,1.781-4.917,1.082-.682,2.921-.558,3.7-1.637.664-.916.714-3.057.857-4.63.116-1.269-.059-4.233,1.21-4.349,1.425-.128,1.222,1.383,1.069,2.637,2.418-.146,2.823-1.906,3.136-4.131a26.918,26.918,0,0,0-3.494-1c-1.38-.237-4.564-.037-4.487-1.568.064-1.3,1.548-.919,2.707-.783a22.661,22.661,0,0,1,3.919.64c.608.193,1.119.573,1.568.43.19-.575-.254-.761-.642-.929a24.677,24.677,0,0,0-6.27-1.781c-.891-.148-2.032-.277-1.993-1.284.049-1.343,1.664-.9,2.776-.711a28.141,28.141,0,0,1,5.774,1.64c-.7-2.329-4.527-2.951-7.623-3.279-1.274-.133-2.524.057-2.637-1-.128-1.183.968-1.346,2.136-1.138.519-1.462.526-2.635,1.069-3.919M146.66,85.048c-.452.526-.993,1.4-1.781,1.425-.645.022-1.442-.731-2.139-1.282-4.591-3.63-9.273-7.3-13.395-11.046-3.405-3.089-7.547-6.732-12.185-8.762a12.47,12.47,0,0,0-6.055-.926c-3.114.375-7.715.785-8.836,3.136-1.025,2.153-1.205,5.616-1.494,8.619a202.994,202.994,0,0,0-.854,24.3,19.99,19.99,0,0,0,.425,4.7c.472,1.521,1.882,2.8,2.993,3.85a33.4,33.4,0,0,0,3.778,3.062c5.509.207,12.654.533,18.381.785a13.376,13.376,0,0,0,2.709.069,5.878,5.878,0,0,0,1.138-.785,7.618,7.618,0,0,0,2.85-2.919c.835-2.052.385-4.9.57-7.7-6.09-4.541-12.2-8.9-18.311-13.607-.706-.543-2.269-1.415-2.136-2.423a1.021,1.021,0,0,1,.926-.854c.958-.069,2.558,1.664,3.561,2.423,7.006,5.3,13.711,10.419,20.949,15.247a29.735,29.735,0,0,0,3.7,2.351c3.2,1.477,8.132,1.353,10.9-.427,2.1-1.346,3.63-4.025,4.561-6.557,1-2.712,1.864-5.416,2.778-8.4a14.187,14.187,0,0,1-11.614-6.058c-.462.573-.872,1.138-1.425,1.781" transform="translate(114.751 22.869)" fill-rule="evenodd"/>
          <path id="Trazado_601396" data-name="Trazado 601396" d="M98.449,24.416a1.174,1.174,0,0,1,.353,1.625l-.889,1.376a1.176,1.176,0,0,1-1.978-1.274l.889-1.373a1.172,1.172,0,0,1,1.625-.353" transform="translate(140.702 35.603)" fill-rule="evenodd"/>
          <path id="Trazado_601397" data-name="Trazado 601397" d="M22.458,55.185h96.056a8.55,8.55,0,0,1,8.549,8.552V95.09a8.548,8.548,0,0,1-8.549,8.549H22.458a8.548,8.548,0,0,1-8.552-8.549V63.737a8.55,8.55,0,0,1,8.552-8.552" transform="translate(20.435 81.094)" fill="#fff" fill-rule="evenodd"/>
          <path id="Trazado_601398" data-name="Trazado 601398" d="M119.146,105.343H23.093a9.628,9.628,0,0,1-9.619-9.616V64.372a9.629,9.629,0,0,1,9.619-9.619h96.054a9.629,9.629,0,0,1,9.621,9.619V95.727a9.629,9.629,0,0,1-9.621,9.616M23.093,56.889a7.49,7.49,0,0,0-7.483,7.483V95.727a7.491,7.491,0,0,0,7.483,7.48h96.054a7.493,7.493,0,0,0,7.485-7.48V64.372a7.492,7.492,0,0,0-7.485-7.483Z" transform="translate(19.8 80.46)"/>
        </g>
      </g>
      <g id="Grupo_1014626" data-name="Grupo 1014626" transform="translate(34.341 136.279)">
        <g id="Grupo_1014625" data-name="Grupo 1014625" clip-path="url(#clip-path-2)">
          <rect id="Rectángulo_345266" data-name="Rectángulo 345266" width="133.41" height="15.392" transform="translate(-12.404 -6.031)"/>
        </g>
      </g>
      <g id="Grupo_1014628" data-name="Grupo 1014628">
        <g id="Grupo_1014627" data-name="Grupo 1014627" clip-path="url(#clip-path)">
          <path id="Trazado_601399" data-name="Trazado 601399" d="M41.232,61.043H82.347A3.561,3.561,0,0,1,85.911,64.6V86.479a3.565,3.565,0,0,1-3.563,3.566H41.232a3.565,3.565,0,0,1-3.563-3.566V64.6a3.561,3.561,0,0,1,3.563-3.561" transform="translate(55.355 89.703)" fill="#fff198" fill-rule="evenodd"/>
          <path id="Trazado_601400" data-name="Trazado 601400" d="M48.887,56.022a2.245,2.245,0,1,1-2.245,2.247,2.247,2.247,0,0,1,2.245-2.247" transform="translate(68.54 82.324)" fill="#fff" fill-rule="evenodd"/>
          <path id="Trazado_601401" data-name="Trazado 601401" d="M52.9,56.022a2.245,2.245,0,1,1-2.245,2.247A2.247,2.247,0,0,1,52.9,56.022" transform="translate(74.436 82.324)" fill="#fff" fill-rule="evenodd"/>
          <path id="Trazado_601402" data-name="Trazado 601402" d="M57.26,56.022a2.245,2.245,0,1,1-2.25,2.247,2.249,2.249,0,0,1,2.25-2.247" transform="translate(80.837 82.324)" fill="#fff" fill-rule="evenodd"/>
          <path id="Trazado_601403" data-name="Trazado 601403" d="M57.5,72.918H19.662a1.068,1.068,0,1,1,0-2.136H57.5a1.068,1.068,0,1,1,0,2.136" transform="translate(27.322 104.014)" fill="#a3bfe4"/>
          <path id="Trazado_601404" data-name="Trazado 601404" d="M31.865,70.527h-12.2a1.068,1.068,0,1,1,0-2.136h12.2a1.068,1.068,0,1,1,0,2.136" transform="translate(27.324 100.501)" fill="#a3bfe4"/>
          <path id="Trazado_601405" data-name="Trazado 601405" d="M42.246,70.527h-12.2a1.068,1.068,0,1,1,0-2.136h12.2a1.068,1.068,0,1,1,0,2.136" transform="translate(42.579 100.501)" fill="#a3bfe4"/>
          <path id="Trazado_601406" data-name="Trazado 601406" d="M31.244,70.539H26.112a1.068,1.068,0,1,1,0-2.136h5.132a1.068,1.068,0,1,1,0,2.136" transform="translate(36.801 100.518)" fill="#a3bfe4"/>
          <path id="Trazado_601407" data-name="Trazado 601407" d="M57.5,68.208H19.662a1.068,1.068,0,1,1,0-2.136H57.5a1.068,1.068,0,1,1,0,2.136" transform="translate(27.322 97.093)" fill="#a3bfe4"/>
          <path id="Trazado_601408" data-name="Trazado 601408" d="M27.747,65.82H19.682a1.068,1.068,0,0,1,0-2.136h8.065a1.068,1.068,0,1,1,0,2.136" transform="translate(27.355 93.584)" fill="#a3bfe4"/>
          <path id="Trazado_601409" data-name="Trazado 601409" d="M48.043,65.82H26.1a1.068,1.068,0,0,1,0-2.136H48.043a1.068,1.068,0,1,1,0,2.136" transform="translate(36.782 93.584)" fill="#a3bfe4"/>
          <path id="Trazado_601410" data-name="Trazado 601410" d="M130.7,99.606l2.21-1.069-2.21-3.561s-6.979,2.358-10.4-1.783-3.563-7.554-3.563-7.554l-.5-3.349-1.852-.924-.215-2.425-2.136,1.284-1.711-2.353-2.85,2-.642-3.349s-3.756,1.264-4.7,0-2.763-3.042-.568-3.778,1.926-1.748,3.277-3.134,3.554-7.023,6.984-8.194a39.259,39.259,0,0,1,8.268-1.5s-2.22-2.257-1.5-3.062a4.06,4.06,0,0,1,5.06-.711,24.052,24.052,0,0,0,6.485,1.709s-1-2.4.783-2.707,7.339,4.487,7.339,4.487,3.27.64,4.134,1.64,3.855,8.238,3.847,11.044a48.676,48.676,0,0,1-.5,6.058s1.509,2.64-.284,4.63a29.606,29.606,0,0,1-3.349,3.208l-1.213,2.85s2.512,9.634,8.836,9.905,19.094-1.655,30.071,6.984,30.612,19.84,35.63,25.367,9.305,11.659,8.409,16.106-2.423,10.984-8.7,10.76-9.263-.143-9.263-.143H83.1L66.284,110.366l-15.822-1.21L36.924,99.036s-.647-2.289.427-2.566,1.711-.5,1.711-.5-.41-2.388,1.709-2.637,3.171-.323,4.134,1a78.246,78.246,0,0,0,6.058,5.771s-3.391-9.024-2.282-10.118,3.07-.114,3.85,1.422,5.556,10.619,5.556,10.619,17.259-3.4,20.309,2.353,13.4,28.859,13.4,28.859,7.979-22.058,11.33-25.154A28.831,28.831,0,0,1,120.44,100.6a88.265,88.265,0,0,0,10.261-1" transform="translate(53.976 81.011)" fill="#fff" fill-rule="evenodd"/>
          <path id="Trazado_601411" data-name="Trazado 601411" d="M94.877,69.553l4.561,14.039L102,82.379l.783-4.418s2.294-1.422,3.205-.358,1.568,1.785,1.568,1.785a11.6,11.6,0,0,0,.5-6.771c-.775-4.166-2.613-11.4-4.131-12.044a7.9,7.9,0,0,0-3.28-.5,18.911,18.911,0,0,0-3.42-2.707c-2.383-1.558-3.255-2.734-4.062-2.351s-1.138,3.065-1.138,3.065a49.618,49.618,0,0,0-7.27-1.711c-2.586-.247-3.645-.047-3.917.356s.783,3.349.783,3.349-8.028.1-9.977,3.566-4.015,7.542-5.986,8.191-2.966,1.662-2.921,2.5,1.756,2.558,2.709,2.921a7.778,7.778,0,0,0,3.065-.072s.348,2.227,1.21,2.494,2.425-1.141,2.425-1.141,1,1.635,1.781,1.709,2.139-1,2.139-1L75.924,73.4s1.069-1.637,1.78-1.5a21.035,21.035,0,0,0,9.905-.5,64.039,64.039,0,0,1,7.268-1.852" transform="translate(92.193 80.741)" fill-rule="evenodd"/>
          <path id="Trazado_601412" data-name="Trazado 601412" d="M142.173,88.9c.6,1.541,1.22,2.716,1.852,4.06,1.19,2.526,2.008,5.127,5.487,5.487,3.867.4,7.779-.2,11.328,0a33.917,33.917,0,0,1,9.69,1.709,32.3,32.3,0,0,1,7.268,4.131c2.26,1.543,4.534,2.944,6.912,4.49,9.206,5.989,18.341,11.881,27.145,18.455a36.993,36.993,0,0,1,6.058,5.416,45.148,45.148,0,0,1,4.914,6.482,14.116,14.116,0,0,1,2.351,8.905c-.568,6.2-4.406,11.241-11.041,11.757a22.637,22.637,0,0,1-16.886-5.771,49.308,49.308,0,0,1-4.418-4.134c-.437-.479-.921-1.287-1.425-1.422a18.948,18.948,0,0,0-3.492-.072c-2.472-.109-4.262-.207-5.986-1.141a10.557,10.557,0,0,0-2.279-1.213c-2.366-.538-3.815,1.366-6.055,1.069a2.919,2.919,0,0,1-2.282-1.852c-.326-1.746,1.664-3.8,2.566-4.49a6.409,6.409,0,0,1,2.494-1.067c1.672-.425,3.549-.4,4.559-1.5-1.257-1.679-1.348-5.477-.5-7.693a9.357,9.357,0,0,0-.929-1,3.961,3.961,0,0,0-1-.929,9.137,9.137,0,0,0-2.067,2.566c-.588.864-1.188,2.072-2.208,2.351a2.959,2.959,0,0,1-3.349-1.637c-.519-1.22-.049-3.161.212-4.277a9.578,9.578,0,0,1,1.425-3.275c1.331-1.99,2.771-3.8,5.2-4.277,2.578-.5,4.645,1.588,5.843,2.637,1.222,1.072,2.023,2.062,3.349,3.349,2.5-.156,4.043.859,5.771,1.781a84.682,84.682,0,0,1,10.118,6.557,12.773,12.773,0,0,1,2.85,2.778,10.085,10.085,0,0,0,2.778,2.778,27.529,27.529,0,0,0,5.986,2.353c.677.2,1.521.536,1.566,1.21.143,2.05-3.393.521-4.487.141a21.455,21.455,0,0,1-4.561-2.067c-1.677-1.119-2.652-3.121-4.132-4.559-2.04-1.981-4.536-3.042-6.769-4.7-2.949,1.4-5.208,3.292-5.272,7.695,1.027.128,2.489.741,3.633.57.714-.109.985-.687,1.5-1-.207-.605-.563-.837-.356-1.425.746-2.114,5.221,1.951,2.139,2.494a5.294,5.294,0,0,1-2.85,2.064,11.85,11.85,0,0,1-3.492-.356,36.871,36.871,0,0,1-8.693-2.635c-.943.227-1.368,1.163-2.423,1.5a23.59,23.59,0,0,1-2.494.353c-2.124.417-3.566,1.329-4.275,3.208.746.541,1.669-.086,2.566-.358a7.242,7.242,0,0,1,4.845-.141c.775.314,2.067,1.292,2.921,1.568,2.489.808,6.707.528,9.688.5,1.289-.012,2.344-.217,2.494.783.143.936-.459,1.3-1.425,1.284a23.378,23.378,0,0,0,3.42,3.346c3.568,3.131,7.791,6.075,14.464,6.058,3.5-.01,6.026-1,7.838-3.134a12.124,12.124,0,0,0,2.919-7.981c0-4.01-2.6-7.315-4.487-9.762a37.669,37.669,0,0,0-7.053-7.2c-10.851-8.359-22.537-15.378-33.988-23.013-2.682-1.79-5.428-3.867-9.261-4.988a35.8,35.8,0,0,0-9.478-1.21,19.246,19.246,0,0,0-3.561,0,7.641,7.641,0,0,0-1.783,1.356c-1.657,1.42-3.413,2.857-5.058,4.131a23.954,23.954,0,0,1-7.979,4.346c-3.331.916-7.828,1.3-10.9.141a7.985,7.985,0,0,1-5.272-8.549c-9.443.852-16.393,3.062-20.8,8.907-4.2,5.564-7.883,11.9-11.829,17.81,1,2.087,2.4,4.986,3.635,7.483.41.832,1.778,3.25-.072,3.28-1.131.015-2.2-3.112-2.637-3.991-4.4-8.89-8.483-17.659-13.18-26.436-.968-1.805-1.674-4.2-3.349-5.058-2.282-1.166-5.84-.679-8.907-.5-2.336.136-4.529.262-6.981.425a7.083,7.083,0,0,1-2.279,0c-.687-.277-1.094-1.872-1.5-2.778-.467-1.05-.963-2.03-1.353-2.85-1.376-2.9-2.23-5.616-4.559-7.2-.83,1.758.079,3.517.714,5.272.79,2.19,1.531,3.954,2.42,6.27.3.775,1.988,3.889-.069,3.847-1.124-.022-1.3-1.783-1.783-2.709a13.133,13.133,0,0,0-2-2.348c-1.3-1.432-2.724-3.013-4.131-4.418-1.178-1.18-2.109-2.511-4.49-2.067,1.245,3.089,2.912,4.7,4.988,7.125,1.185,1.383,2.788,3.23,4.2,4.845.435.494,1.084,1.341,1.5,1.494a10.732,10.732,0,0,0,2.423.217c4.406.2,7.865.4,12.469.64,1.19.062,3.959-.121,4.062,1.141.094,1.171-.931,1.208-2.21,1.138,4.245,12.185,8.749,24.7,13.538,36.763a35.4,35.4,0,0,0,2.21,4.988c1.272,2.139,3.986,4.853,6.981,5.129a9.631,9.631,0,0,0,5.416-1.282,17.391,17.391,0,0,0,3.988-2.707,35.512,35.512,0,0,0,4.062-5.413c3.823-5.524,7.5-11.505,11.044-17.173-.079-.882-2.415-2.645-1.64-3.991.731-1.264,1.9.178,2.423,1.069,5.806,9.9,11.382,19.482,17.173,29.355.464.8,1.827,3.047-.072,3.065-1.1.007-1.852-2.163-2.423-3.136-4.882-8.325-9.431-15.983-14.252-24.295-3.522,5.621-7.043,11.337-10.829,16.815-2.324,3.363-4.42,6.1-8.122,8.122a11.585,11.585,0,0,1-6.7,1.709c-4.9-.351-8.4-4.712-10.046-8.549-5.6-13.054-10.211-27.488-15.106-40.611-2.652-.2-5.529-.3-8.549-.5-2.793-.18-5.934.04-8.122-.857a18.172,18.172,0,0,1-3.492-2.492c-2.282-1.793-4.188-3.378-6.485-5.346-.921-.788-2.551-1.82-2.991-2.919a2.78,2.78,0,0,1,2.423-3.847c-.566-2.64,3.124-3.287,5.272-2.351a11.6,11.6,0,0,1,2.778,2.351c.946.943,1.778,1.953,2.494,2.635C49.3,96.39,48.164,94.9,48.053,92.96c-.1-1.818.6-4.085,2.139-4.134,1.492-.047,2.926,1.306,3.7,2.353a31.861,31.861,0,0,1,2.635,5.27c.852,1.81,1.884,3.692,2.494,5.346,3.435-.212,7.162-.484,10.76-.645,3.833-.165,7.243.054,9.048,2.21A16.84,16.84,0,0,1,80.4,106.14c3.467,6.5,6.939,13.723,10.189,20.235,2.287-3.433,4.576-6.915,6.91-10.4,2.316-3.457,4.331-7.127,7.552-9.762a25.585,25.585,0,0,1,11.972-5.344c4.808-.85,9.89-1.4,15.175-2.136a14.823,14.823,0,0,0-1.425-2.563c-6.818,1.879-11.537-1.687-13.538-6.416-.378-.9-2.074-4.919-.072-4.917.929,0,1.069,1.25,1.353,2.279,1.2,4.371,4.371,8.246,10.4,7.268a10.585,10.585,0,0,0,2.707-.924c.7-.346,1.618-1.232,2.494-1.069a1.163,1.163,0,0,1,.785.924c.089,1.257-1.235,1.247-2.139,1.926.538,1.6,3.754,4.793,1.282,6.342-.751.472-2.442,1.072-2.494-.642-1.716.185-3.3.5-5.058.642a5.99,5.99,0,0,0,2.566,6.268c1.788,1.3,5.344,1.343,8.263.929,6.473-.919,10.91-5.156,14.464-8.194-7.772.741-8.863-5.2-11.187-9.9-.687.062-1.417-.193-1.5-.857-.079-.684.654-1.324,1.141-1.921a21.122,21.122,0,0,1,1.282-1.711c.943-.929,2.771-1.7,3.42-2.921,1.005-1.879.2-4.707-2.921-4.2a1.881,1.881,0,0,0-.427,1.351c.874-.131,2.7-.9,2.778.43s-2.136,1.1-3.134,1.637c-.867.872-1,2.637-2.351,2.852a2.532,2.532,0,0,1-2.494-1.425,17.875,17.875,0,0,1-.57-3.563c-.588-3.117-2.188-6.584-2.919-9.332-3.81,1.188-8.162,2.734-12.97,3.062a14.518,14.518,0,0,1-4.487-.711c-.741,2.116.346,4.492.356,6.769a9.885,9.885,0,0,1,3.7-.642c3.781.417,7.455,6.445,4.845,10.189.375.568.847.746.785,1.425-.18,1.976-3.27.116-3.349-.857-.086-1.025,1.264-1.936,1.353-3.205a5.432,5.432,0,0,0-3.492-5.342,5.076,5.076,0,0,0-2.921.427c-.62.23-1.45.835-2.208.57-.627-.222-.645-.825-.785-1.785a2.1,2.1,0,0,1-3.277-.568,2.323,2.323,0,0,1-3.991-1.711,6.715,6.715,0,0,1-3.205-.284c-1.536-.6-3.576-2.432-3.062-4.415.435-1.694,3.084-2.161,4.275-3.28,1.284-1.208,2.218-3.193,3.349-4.843a15.669,15.669,0,0,1,3.847-4.346c1.731-1.161,4.4-1.5,7.053-1.711-.183-.926-1.269-1.743-.926-3.065.538-2.082,4.954-1.02,7.125-.642a27.626,27.626,0,0,1,4.633,1.213c-.156-1.709.3-2.889,2.136-2.635a15.008,15.008,0,0,1,5.416,2.563,29.586,29.586,0,0,1,2.279,2.423c3.438-.2,4.618,1.867,5.628,4.346.5,1.227.941,2.442,1.356,3.776.978,3.163,2.106,7.359,1.21,10.33a8.511,8.511,0,0,0-.5,1.5,8.828,8.828,0,0,0,.356,1.5c.415,4.465-3.551,5.25-5.272,7.838M131.058,59.829c-.726.151-1.783-.454-2.563-.711a33.576,33.576,0,0,0-8.409-1.5c.121,1,1.919,2.1,1.852,3.208-.077,1.309-1.9,1.008-3.134,1.067-2.23.114-4.393.314-5.914,1.284-1.568,1-2.791,3.008-3.919,4.7a23.62,23.62,0,0,1-3.065,4.346c-1.106,1.012-2.544,1.358-3.633,2.423.61.85.852,1.432,1.783,1.781,1.089.41,2.314-.133,3.418,0,1.017.121.891,1.541,1.213,2.423.852-.158,1.321-1.2,2.279-1.067.706.094.889.827,1.284,1.422a4.226,4.226,0,0,0,1.21-1.282c-.435-1.818-.948-6.011,1.138-6.626,1.566-.462,3.047.617,4.49.714,2.546.165,5.4-.785,7.695-1.356,1.069-.264,2.272-.664,3.492-1.069,1.1-.361,2.761-1.185,3.563-1,.869.21,1.274,2.339,1.566,3.208.9,2.667,1.608,4.576,2.279,7.268.328,1.306.4,2.679.785,3.988.178-.657.77-1.136.926-1.709.353-1.3.039-2.289.642-3.279.78-1.279,2.793-1.4,4.275-.924.506.161.9.5,1.21.427.521-1.309.185-3.381-.141-5.06a39.92,39.92,0,0,0-2.067-7.194,10.059,10.059,0,0,0-1.568-3.067c-.805-.731-2.388-.3-3.349-.64-.783-.274-1.383-1.62-2.064-2.279a13.244,13.244,0,0,0-4.561-2.423c0-.044-.01-.086-.072-.069-.02,1.18.57,2.736-.642,2.991M41,99.018c-.272-.385-.743-1.551-1.213-1.64-.4-.079-1.171.368-1.21.711-.062.546,1.037,1.294,1.353,1.568,1.719,1.477,3.319,2.736,4.917,4.06-1.059-1.457-2.682-3.047-3.847-4.7m138.295,23.154c-1.24-.479-2.63.558-3.42,1.282a9.251,9.251,0,0,0-2.921,5.845c-.086.7-.351,2.252.57,2.134.4-.049,1.245-1.509,1.568-1.993a11.1,11.1,0,0,1,1.5-2.139,3.694,3.694,0,0,1,2.423-1.069c1.259.148,1.376,1.763,2.563,2.282a5.827,5.827,0,0,1,2.85-1.924c-1.474-1.417-3.149-3.655-5.129-4.418m3.635,7.91c-1.388,1.884-1.467,7.25,1,7.836-.151-5.045,1.872-7.912,5.129-9.547-2.405-.5-4.82-.064-6.124,1.711m8.335-.57c-1.417,1.131-3.554,1.813-4.418,3.489-.748,1.457-.627,3.363-.854,5.774.872.291,1.778.548,2.707.783.1-4.5,2.344-6.873,5.2-8.624a29.832,29.832,0,0,0-2.637-1.422" transform="translate(53.545 80.226)" fill-rule="evenodd"/>
          <path id="Trazado_601413" data-name="Trazado 601413" d="M76.555,64.1c1.175-.111,4.734.79,4.774,2.21a1.147,1.147,0,0,1-.783,1.069c-.835.163-1.175-.358-1.781-.642a4.23,4.23,0,0,0-1.855-.568,4.275,4.275,0,0,0-1.924.64c-.8.375-2.731,1.183-2.563-.57.079-.832,1.148-1.171,1.709-1.425a6.453,6.453,0,0,1,2.423-.714" transform="translate(106.411 94.188)" fill-rule="evenodd"/>
          <path id="Trazado_601414" data-name="Trazado 601414" d="M76.823,67.983c2.114-.605,1.089,2.5.427,3.349A4.342,4.342,0,0,1,74.686,72.9a.991.991,0,0,1-1-1.141c.072-.978,1.408-1.074,1.924-1.781.412-.566.316-1.741,1.21-2" transform="translate(108.279 99.787)" fill-rule="evenodd"/>
          <path id="Trazado_601415" data-name="Trazado 601415" d="M71.708,65.9a1.175,1.175,0,0,1,1.175,1.175v1.637a1.175,1.175,0,1,1-2.351,0V67.075A1.175,1.175,0,0,1,71.708,65.9" transform="translate(103.648 96.84)" fill-rule="evenodd"/>
          <path id="Trazado_601416" data-name="Trazado 601416" d="M74.8,65.467a1.175,1.175,0,0,1,1.175,1.175v1.64a1.175,1.175,0,0,1-2.351,0v-1.64A1.175,1.175,0,0,1,74.8,65.467" transform="translate(108.186 96.204)" fill-rule="evenodd"/>
          <path id="Trazado_601417" data-name="Trazado 601417" d="M10.212.557H160.353a8.552,8.552,0,0,1,8.552,8.552v94.416a8.552,8.552,0,0,1-8.552,8.552H10.212a8.552,8.552,0,0,1-8.549-8.552V9.109A8.552,8.552,0,0,1,10.212.557" transform="translate(2.444 0.819)" fill="#fff" fill-rule="evenodd"/>
          <path id="Trazado_601418" data-name="Trazado 601418" d="M160.991,113.781H10.85a9.633,9.633,0,0,1-9.621-9.621V9.741A9.63,9.63,0,0,1,10.85.125H160.991a9.628,9.628,0,0,1,9.619,9.616V104.16a9.631,9.631,0,0,1-9.619,9.621M10.85,2.261a7.49,7.49,0,0,0-7.483,7.48V104.16a7.492,7.492,0,0,0,7.483,7.485H160.991a7.492,7.492,0,0,0,7.483-7.485V9.741a7.49,7.49,0,0,0-7.483-7.48Z" transform="translate(1.806 0.184)"/>
        </g>
      </g>
      <g id="Grupo_1014630" data-name="Grupo 1014630" transform="translate(4.104 1.376)">
        <g id="Grupo_1014629" data-name="Grupo 1014629" clip-path="url(#clip-path-4)">
          <rect id="Rectángulo_345269" data-name="Rectángulo 345269" width="173.443" height="14.039" transform="translate(-4.104 -1.376)"/>
        </g>
      </g>
      <g id="Grupo_1014632" data-name="Grupo 1014632">
        <g id="Grupo_1014631" data-name="Grupo 1014631" clip-path="url(#clip-path)">
          <path id="Trazado_601419" data-name="Trazado 601419" d="M74.871,11.1H7.463a1.068,1.068,0,1,1,0-2.136H74.871a1.068,1.068,0,1,1,0,2.136" transform="translate(9.396 13.165)" fill="#2b95ff"/>
          <path id="Trazado_601420" data-name="Trazado 601420" d="M47.694,13.486H25.955a1.068,1.068,0,0,1,0-2.136H47.694a1.068,1.068,0,1,1,0,2.136" transform="translate(36.573 16.679)" fill="#2b95ff"/>
          <path id="Trazado_601421" data-name="Trazado 601421" d="M29.2,13.486H7.462a1.068,1.068,0,0,1,0-2.136H29.2a1.068,1.068,0,1,1,0,2.136" transform="translate(9.397 16.679)" fill="#2b95ff"/>
          <path id="Trazado_601422" data-name="Trazado 601422" d="M28.709,13.473h-9.14a1.068,1.068,0,1,1,0-2.136h9.14a1.068,1.068,0,1,1,0,2.136" transform="translate(27.186 16.66)" fill="#2b95ff"/>
          <path id="Trazado_601423" data-name="Trazado 601423" d="M74.871,15.8H7.463a1.068,1.068,0,1,1,0-2.136H74.871a1.068,1.068,0,1,1,0,2.136" transform="translate(9.396 20.085)" fill="#2b95ff"/>
          <path id="Trazado_601424" data-name="Trazado 601424" d="M43.269,18.193H28.9a1.068,1.068,0,1,1,0-2.136H43.269a1.068,1.068,0,1,1,0,2.136" transform="translate(40.904 23.596)" fill="#2b95ff"/>
          <path id="Trazado_601425" data-name="Trazado 601425" d="M46.555,18.193H7.463a1.068,1.068,0,1,1,0-2.136H46.555a1.068,1.068,0,1,1,0,2.136" transform="translate(9.396 23.596)" fill="#2b95ff"/>
          <path id="Trazado_601426" data-name="Trazado 601426" d="M74.084,21.28H7.405a1.068,1.068,0,1,1,0-2.136H74.084a1.068,1.068,0,0,1,0,2.136" transform="translate(9.311 28.132)" fill="#2b95ff"/>
          <path id="Trazado_601427" data-name="Trazado 601427" d="M47.2,23.555H25.7a1.068,1.068,0,1,1,0-2.136H47.2a1.068,1.068,0,0,1,0,2.136" transform="translate(36.192 31.475)" fill="#2b95ff"/>
          <path id="Trazado_601428" data-name="Trazado 601428" d="M28.909,23.555H7.4a1.068,1.068,0,1,1,0-2.136h21.5a1.068,1.068,0,1,1,0,2.136" transform="translate(9.309 31.475)" fill="#2b95ff"/>
          <path id="Trazado_601429" data-name="Trazado 601429" d="M30.827,23.555H17.778a1.068,1.068,0,1,1,0-2.136H30.827a1.068,1.068,0,1,1,0,2.136" transform="translate(24.554 31.475)" fill="#2b95ff"/>
          <path id="Trazado_601430" data-name="Trazado 601430" d="M74.084,25.76H7.405a1.068,1.068,0,1,1,0-2.136H74.084a1.068,1.068,0,0,1,0,2.136" transform="translate(9.311 34.715)" fill="#2b95ff"/>
          <path id="Trazado_601431" data-name="Trazado 601431" d="M42.826,28.032H28.612a1.068,1.068,0,0,1,0-2.136H42.826a1.068,1.068,0,1,1,0,2.136" transform="translate(40.477 38.054)" fill="#2b95ff"/>
          <path id="Trazado_601432" data-name="Trazado 601432" d="M46.075,28.03H7.405a1.067,1.067,0,1,1,0-2.134h38.67a1.067,1.067,0,1,1,0,2.134" transform="translate(9.311 38.054)" fill="#2b95ff"/>
          <path id="Trazado_601433" data-name="Trazado 601433" d="M27.588,28.03H25.7a1.067,1.067,0,1,1,0-2.134h1.892a1.067,1.067,0,1,1,0,2.134" transform="translate(36.194 38.054)" fill="#2b95ff"/>
          <path id="Trazado_601434" data-name="Trazado 601434" d="M6.524,2.192A2.245,2.245,0,1,1,4.277,4.434,2.244,2.244,0,0,1,6.524,2.192" transform="translate(6.285 3.221)" fill="#fff" fill-rule="evenodd"/>
          <path id="Trazado_601435" data-name="Trazado 601435" d="M10.533,2.192A2.245,2.245,0,1,1,8.288,4.434a2.244,2.244,0,0,1,2.245-2.242" transform="translate(12.179 3.221)" fill="#fff" fill-rule="evenodd"/>
          <path id="Trazado_601436" data-name="Trazado 601436" d="M14.891,2.192a2.245,2.245,0,1,1-2.247,2.242,2.246,2.246,0,0,1,2.247-2.242" transform="translate(18.58 3.221)" fill="#fff" fill-rule="evenodd"/>
          <path id="Trazado_601437" data-name="Trazado 601437" d="M49.528,8.619H91.142a5.7,5.7,0,0,1,5.7,5.7v64.7a5.7,5.7,0,0,1-5.7,5.7H49.528a5.7,5.7,0,0,1-5.7-5.7v-64.7a5.7,5.7,0,0,1,5.7-5.7" transform="translate(64.402 12.666)" fill="#33ece0" fill-rule="evenodd"/>
          <path id="Trazado_601438" data-name="Trazado 601438" d="M22.466,67.372,39.5,57.538V37.871L22.466,28.04,5.434,37.871V57.538Z" transform="translate(7.985 41.205)" fill="#fff198"/>
          <path id="Trazado_601439" data-name="Trazado 601439" d="M134.93,89.249c-1.489-4.065-3.734-6.88-8.7-9.759s-31.14-17.1-31.14-17.1,1.618-7.406-.711-10.4-3.8-4.771-2.993-10.619,1.5-10.332,1.5-10.332L96.164,34.6s1.408-5.885-2.921-12.4S81.774,9.44,75.072,8.872s-15.849.274-20.238,9.191S50.2,42.005,47.567,45,31.614,51.661,29.11,55.689A18.333,18.333,0,0,0,26.4,63.527S13.846,77.628,9.445,83.765.461,96.8,9.8,101.935s36.341,10.76,36.341,10.76a4.848,4.848,0,0,0,2.423,4.275,20.324,20.324,0,0,1,4.346,3.349s2.116,9.164,6.841,8.908,5.823-1.469,6.27-2.707,1-9.762,1-9.762l1.427,1.637s.635,6.342,2.42,6.416,3.317-1.059,2.852-3.635-.635-6.477-4.49-9.762S43.766,98.4,43.766,98.4l26.268.432,4.682-5.371s5.255.012,8.122-2.781a9,9,0,0,0,2.566-9.55l15.748,5.49s-4.583,1.161-6.342,2.7-4.1,5.64-4.275,7.485-.321,7.25,3.492,8.833,5.722.484,6.912-1.21a7.551,7.551,0,0,0,1.353-3.065L105,97.945s-.743,8.083.286,8.48,3.63-1.23,3.776-2.709.286-3.561.286-3.561l1.566-2.067s16.2,2.277,18.813,1.069,6.69-5.84,5.2-9.908M27.4,91.388l8.265-7.409,1.64,11.187Z" transform="translate(6.397 12.835)" fill="#fff" fill-rule="evenodd"/>
          <path id="Trazado_601440" data-name="Trazado 601440" d="M13.124,64.7s5.423-6.806,12.683-7.411,15.98.306,17.958-2.5,4.418-10.76,4.418-10.76L45.617,39.4s-5.154-2.85-3.991-6.416,3.065-3.062,3.065-3.062l2.279,1.568,1.353,5.7,8.624-12.044L61.793,29,64.5,28l3.919,3.349,3.633-1.926L74.476,32.2l.215,3.349-1.924.069s-.793,12.31-6.273,14.254-8.265.212-8.265.212-3.929,7.191-.57,7.411,8.377-.654,12.9,1,11.118,4.848,11.118,4.848,1.62-5.952-.143-9.693-3.687-4.146-3.42-8.979,1.213-12.54,1.213-12.54l3.205,3.776s1.548-7.981-2-12.612S63.166,5.395,52.386,9.257c-9.972,3.576-12.357,9.757-14.323,19.455s-1.42,17.526-8.907,20.307C20.9,52.083,18.537,53.7,15.689,57.785S13.124,64.7,13.124,64.7" transform="translate(19.274 12.581)" fill-rule="evenodd"/>
          <path id="Trazado_601441" data-name="Trazado 601441" d="M135.93,88.531a16.561,16.561,0,0,0-5.843-7.124c-5.053-3.512-10.787-6.413-16.388-9.475-5.655-3.094-11.412-6.035-16.886-9.048.5-2.635,1.153-5.169.57-7.695-.514-2.232-2.2-3.8-3.205-5.487-2.353-3.931-.333-10.515-.143-15.459,1.037.4,1.66,2.86,3.136,2.707,1.534-.161.9-4.885.783-6.2-.6-6.808-4.43-10.357-7.838-14.106A25.071,25.071,0,0,0,81.352,10.8,29.621,29.621,0,0,0,72.8,8.448c-6.275-.667-10.083,1.161-13.395,4.06a25,25,0,0,0-5.914,7.838c-1.571,3.178-2.148,7.09-2.85,10.9-.348,1.9-.687,3.875-1,5.845-.588,3.741-.872,7.287-3.134,9.261a12.311,12.311,0,0,1-3.7,1.855,62.81,62.81,0,0,0-7.554,3.561c-2.5,1.383-4.581,2.709-6.127,4.917a22.916,22.916,0,0,0-2.635,5.7,15.841,15.841,0,0,1-.642,2.139,11.627,11.627,0,0,1-1.64,1.921c-1.731,1.916-3.47,3.917-5.058,5.7a198.914,198.914,0,0,0-13.039,15.6C4.155,90.44,2.772,95.177,4.9,98.577a11.956,11.956,0,0,0,3.7,3.42,27.238,27.238,0,0,0,4.63,2.566c3.541,1.405,7.594,2.415,10.9,3.42,7.554,2.289,14.489,4.171,22.3,6.339.412,3.791,3.292,5.117,6.27,6.344,1.131,3.089,1.721,6.512,3.919,8.406,2.682,2.311,8.414,1.168,10.33-1.21,1.168-1.45,1.23-3.815,1.781-5.914.486,1.783,1.417,4.383,3.208,4.559,1.45.143,2.516-1.25,2.778-2.42.5-2.25-.269-5.408-.854-7.2a11.378,11.378,0,0,0-3.205-4.917,48.414,48.414,0,0,0-3.988-3.215h-.193v-.143c-1.719-1.25-3.482-2.4-5.225-3.48C53.933,100.6,45.83,98.387,38.6,95.372a24.938,24.938,0,0,0-.5-5.485,33.162,33.162,0,0,0-.854-5.416c.943-.766,1.677-1.553,2.85-2.635.706-.652,2.573-1.862,2.423-2.924-.3-2.1-2.334-.042-2.921.5-4.23,3.907-8.646,8.231-12.681,11.826-.909-.136-3.161-1.778-4.062-.783-1.361,1.506,1.968,2.232,2.921,2.568,9.043,3.156,18.292,6.465,26.72,10.043a65.469,65.469,0,0,1,13.323,7.695c1.771,1.319,4.136,3.025,5.344,5.129a12.884,12.884,0,0,1,1.282,3.991c.257,1.509.654,3.455-.284,4.418a5.031,5.031,0,0,1-1.284-2.85,20.476,20.476,0,0,0-.714-3.42c-.37-.766-1.4-.882-1.709-1.64-.489-1.2-.24-3.633-1.781-3.633-1.842,0-.662,2.242-.427,3.42a20.777,20.777,0,0,1-.427,9.332,2.1,2.1,0,0,1-1.284,1.5,38.632,38.632,0,0,0,.57-5.84,11.482,11.482,0,0,0-.854-3.778c-.259-.751-.615-2.833-1.852-2.778-1.736.074-.514,2.479-.215,3.349a11.361,11.361,0,0,1,.785,2.921,27.624,27.624,0,0,1-.5,5.914c-.077.541-.015,1.472-.857,1.353-.282-3.139-.575-7.5-1.709-10.189-.324-.768-.753-2.331-1.568-2.42-.635-.077-.862.294-1.21.64a5.533,5.533,0,0,0,.854,2.635c1.059,2.568,1.242,5.86,1.353,9.191-1.963-.472-2.465-2.144-3.134-3.7-.316-.738-.625-1.6-.929-2.494a11.285,11.285,0,0,0-.854-2.566c-.407-.536-1.689-.867-2.563-1.282a7.66,7.66,0,0,1-2.351-1.5c-.778-.924-.8-3.05-1.425-3.7-.42-.44-1.711-.6-2.637-.854-6.576-1.825-13.027-3.729-19.309-5.559-5.3-1.543-11.229-3.037-15.6-5.628a11.294,11.294,0,0,1-3.847-3.277c-1.175-1.877-.753-5.156.212-7.125a25.937,25.937,0,0,1,3.065-4.206c5.472-6.774,11.261-13.338,16.958-19.593a24.485,24.485,0,0,1,8.335-6.342,33.992,33.992,0,0,0,11.4,6.7,60.332,60.332,0,0,0,15.1,2.991c9.048.583,17.217-1.052,22.8-4.2a35.567,35.567,0,0,0,5.058-3.988c11.656,6.048,24.125,12.338,35.482,19.094a26.035,26.035,0,0,1,6.27,4.63c1.734,1.877,3.62,4.5,2.709,7.626-.7,2.408-2.837,5.013-5.275,5.7-2.363.662-5.344.41-8.051.282-2.687-.126-5.361-.427-7.836-.64.711-.649,1.01-2.484-.356-2.494-.859,0-1.546,1.437-2.067,2.282a14.66,14.66,0,0,0-1.568,2.778c-.622,1.894-.373,4.546-2.282,4.63a23.2,23.2,0,0,1,.5-8.478c.3-1.156,1.008-3.008-.568-3-1.079.01-1.047,1.353-1.425,2.21-.526,1.193-1.781,2.405-2.494,3.919-.943,2-1.292,4.653-3.205,5.2a14.769,14.769,0,0,1,2.136-8.767c.484-.859,1.971-3.139.072-3.205-.961-.032-1.5,1.437-1.924,2.208a17.249,17.249,0,0,0-2.423,10.118,3.893,3.893,0,0,1-1.5-.5c-.953-4.43.556-7.695,2-10.4.521-.978,1.284-2.746-.427-2.635-.889.057-1.376,1.5-1.711,2.136-1.373,2.6-2.61,5.327-2.136,9.261a4.819,4.819,0,0,1-.926-2.919,13.469,13.469,0,0,1-.212-3.633,14.9,14.9,0,0,1,2.064-3.919,8.123,8.123,0,0,1,2.778-3.208,19.474,19.474,0,0,1,4.845-1.425c3.82-.837,6.855-1.208,10.9-1.781,1.41-.2,4.754-.156,4.7-1.64-.049-1.445-2.064-.837-3.065-.711-3.037.383-4.833.615-7.623,1.069a19.675,19.675,0,0,1-3.7.64,9.818,9.818,0,0,1-2-.64c-4.764-1.6-9.678-3.149-14.18-4.7a34.884,34.884,0,0,0-1-4.062,9.849,9.849,0,0,1,1.64-1.566c.531-.459,1.519-.956,1.425-1.855a.942.942,0,0,0-.854-.854c-1.047-.148-1.82.99-2.494,1.568-.793.679-1.877,1.25-2,2.136a5.956,5.956,0,0,0,.5,2c.2.714.388,1.445.5,1.993.916,4.578.235,8.945-3.062,11.046a12.049,12.049,0,0,1-3.635,1.284,20.073,20.073,0,0,0-3.349.57c-.649.264-1.188,1.348-1.709,1.993-1.264,1.563-2.055,2.62-3.279,4.134a6.05,6.05,0,0,0-1.371,1.808h2.546c.059-.084.119-.168.18-.242,1.143-1.457,2-2.487,3.062-3.847a7.594,7.594,0,0,1,1.64-1.852,10.729,10.729,0,0,1,2.279-.43c.778-.163,1.553-.365,2.21-.568,4.406-1.363,7.208-5.06,6.981-10.9,3.961,1.287,7.949,2.549,11.826,3.919-3.321.642-5.07,2.568-6.626,5.058a15.488,15.488,0,0,0-2.208,4.63,17.5,17.5,0,0,0,.141,4.346,8.85,8.85,0,0,0,.926,3.351c1.835,3.117,7.628,4.983,10.688,1.85,1.109-1.134,1.388-2.662,2.279-4.346.133,2.326-.373,5.339,1.425,5.843,1.39.39,2.8-.588,3.563-1.353,1.531-1.531,1.015-4.813,2.423-6.058,3.9.514,8.016.674,12.041.857,4.732.217,7.631-.926,9.759-3.208,2.148-2.3,3.736-5.808,2.353-9.475M29.341,92.095c1.872-2.092,4.07-3.862,6.055-5.84.6,2.6.751,5.66,1.21,8.4-2.452-.825-4.769-1.783-7.265-2.563m-.072-30.78c-.062-.012-.067.03-.072.072-.1-.032.007-.064,0-.143,1.376-4.7,4.86-6.337,8.905-8.619a52.159,52.159,0,0,1,6.058-2.709c2.205-.882,3.986-1.748,5.2-3.563,1.19-1.776,1.625-4.1,2.067-6.695.874-5.144,1.447-10.09,2.707-14.822a19.812,19.812,0,0,1,2.707-5.986c2.363-3.588,5.112-6.739,9.547-7.979,5.053-1.41,10.666.39,14.535,2.139a28.354,28.354,0,0,1,5.559,3.205,27.207,27.207,0,0,1,4.346,4.418c2.647,3.158,5.374,6.539,5.129,12.325-.141.079-.541-.373-.785-.642-.573-.632-1.593-2.413-2.635-2.423-1.215-.01-1.632,1.413-2.566,1.924-.625-.4-1.269-.985-1.993-1.566-.593-.477-1.348-1.343-2.067-1.425-1.341-.158-2.144,1.25-3.349,1.637a20.716,20.716,0,0,1-2-1.993c-.558-.615-1.222-1.837-2.067-1.926-1.383-.138-2.052,1.556-3.205,2a29.266,29.266,0,0,1-2.139-2.21c-.551-.563-1.474-1.976-2.351-2-.968-.02-1.86,1.536-2.423,2.208A28.935,28.935,0,0,0,66.32,29.11c-1.287,1.978-2.489,4.1-3.563,5.485-.22-1.274-.531-2.894-.854-4.7-.259-1.447-.153-4.015-1.64-3.919s-.729,2-.64,3.208c-2.534-.872-5.07,1.726-5.272,3.919a6.258,6.258,0,0,0,.924,3.633c.84,1.482,2.432,2.432,3.423,3.776.854,1.163,1.225,2.536,1.921,3.633-.79,2.489-1.66,5.053-2.635,7.554-.5,1.277-.867,2.363-2,2.993-1.773.988-4.519,1.072-7.2,1.138a64.3,64.3,0,0,0-7.767.57A25.021,25.021,0,0,0,29.27,61.315m65.62.57c-4.741-2.2-9.554-5.129-16.388-5.129-2.232,0-5.267.585-6.981-.358a25.016,25.016,0,0,1,1.353-4.7c4.01.114,7.974-.7,10.473-3.349a13.057,13.057,0,0,0,3.065-6.127c.242-1.208.768-3.344-.714-3.349-1.378-.007-1.351,3.42-1.709,4.418a11.265,11.265,0,0,1-2.351,3.776c-1.615,1.605-5.011,2.783-8.051,2.563a8.178,8.178,0,0,1-5.416-2.707c-.5-.514-1-1.2-1.5-1.213a1.015,1.015,0,0,0-1.069.929c-.1,1.012,1.447,2.242,2.067,2.778a11.634,11.634,0,0,0,3.134,1.709c-.316.929-.561,1.8-.854,2.781a6,6,0,0,0-.57,2.991c.222,1.124,1.827,1.993,3.136,2.139,2.474.277,5.428-.289,8.194-.072a24.154,24.154,0,0,1,6.626,1.709C82.483,66.064,72.659,68.5,61.83,67.726c-9.8-.7-18.921-3.46-24.083-8.4,3.1-1.089,7.073-1.217,11.115-1.356,4.07-.141,8.241-.467,9.974-2.993a23.342,23.342,0,0,0,2.21-5.344c.282-.812.59-1.827.926-2.85a8.176,8.176,0,0,0,.783-2.921,7.066,7.066,0,0,0-1.141-2.351c-.4-.746-.785-1.585-1.21-2.208-.956-1.4-2.43-2.218-3.205-3.42-1.2-1.852-.682-4.114,1.21-4.845.857.331,1.909.464,1.852,1.709-.407.151-.963-.7-1.709-.57a.771.771,0,0,0-.642.714c-.123,1.363,2.119,1.58,2.781,2.494.459,1.126.032,3.208,1.425,3.28.805.04,1.358-1.077,1.85-1.855.558-.879,1.01-1.625,1.425-2.282,1.627-2.553,3.462-5.714,5.487-7.48.622.568,1.227,1.371,2,2.139.568.57,1.432,1.825,2.208,1.852,1.326.049,2.02-1.627,3.136-2.067.57.59,1.166,1.292,1.852,2.067.519.583,1.309,1.771,2.067,1.852,1.311.143,2.257-1.383,3.418-1.781a2.538,2.538,0,0,1,1.568,3.065c-3.154-1.988-5.86.3-7.552,2.492-1.5,1.953-2.5,4.843-1.64,7.411-.657.38-1.692.252-1.709,1.353-.035,2.089,3.823.415,4.06-.5.185-.711-.482-1.548-.57-2.351a6.8,6.8,0,0,1,1.427-4.487c.672-.924,1.8-2.467,3.277-2.566,1.655-.111,2.442,1.682,3.776,1.5,1.069-.151.889-1.583,1.069-2.85.22-.173.59.111.926.072.845-.1,1.343-1.319,1.924-1.427-.328,2.751-.7,5.337-.926,8.194-.222,2.8-.556,5.811.427,8.265,1,2.507,3.588,4.255,3.847,7.2a22.659,22.659,0,0,1-.57,5.416" transform="translate(5.629 12.212)" fill-rule="evenodd"/>
          <path id="Trazado_601442" data-name="Trazado 601442" d="M33.459,17.9c1.437-.158,2.4.462,3.633,1.213.751.454,1.939,1.025,1.926,1.855a1.088,1.088,0,0,1-.785,1c-.832.156-1.541-.637-2.136-1a5.233,5.233,0,0,0-2.139-1c-1.445-.081-2.2,1.464-3.489,1.213a1.054,1.054,0,0,1-.785-1c-.007-.943,1.131-1.272,1.568-1.5a5.214,5.214,0,0,1,2.208-.783" transform="translate(43.619 26.269)" fill-rule="evenodd"/>
          <path id="Trazado_601443" data-name="Trazado 601443" d="M31.038,22.02c1.213-.163,1.141,1.282,1.993,2.213.445.484,1.8.951,1.926,1.568.336,1.657-1.516,1.306-2.353.778a5.677,5.677,0,0,1-1.21-1c-.506-.573-2.269-3.3-.356-3.561" transform="translate(44.331 32.339)" fill-rule="evenodd"/>
          <path id="Trazado_601444" data-name="Trazado 601444" d="M12.208,57.12a1.075,1.075,0,0,1-.6-.185,4.184,4.184,0,0,1-1.724-2.892c-.358-2.22.563-5.1,2.408-7.52,2.852-3.741,6.934-5.351,9.488-3.773a1.07,1.07,0,1,1-1.129,1.818c-1.376-.854-4.376.254-6.66,3.252-1.477,1.936-2.26,4.245-2,5.882a2.08,2.08,0,0,0,.82,1.467,1.068,1.068,0,0,1-.6,1.951" transform="translate(14.409 61.935)"/>
          <path id="Trazado_601445" data-name="Trazado 601445" d="M61.159,53.724c2.235-1.62,2.136-6.663-1.776-10.787a11.56,11.56,0,0,0-10.56-3.247Z" transform="translate(71.747 58.056)" fill="#fff" fill-rule="evenodd"/>
          <path id="Trazado_601446" data-name="Trazado 601446" d="M61.792,55.422a1.068,1.068,0,0,1-.627-1.934,2.935,2.935,0,0,0,1.008-2.173A9.485,9.485,0,0,0,59.246,44.3c-2.423-2.553-5.566-3.517-9.634-2.924a1.07,1.07,0,0,1-.3-2.119c4.732-.679,8.594.521,11.488,3.571a11.615,11.615,0,0,1,3.507,8.68,5.021,5.021,0,0,1-1.884,3.707,1.061,1.061,0,0,1-.627.2" transform="translate(71.111 57.424)"/>
          <path id="Trazado_601447" data-name="Trazado 601447" d="M33.583,19.7a1.18,1.18,0,0,1,.353,1.627L33.05,22.7a1.176,1.176,0,0,1-1.978-1.274l.887-1.376a1.175,1.175,0,0,1,1.625-.356" transform="translate(45.384 28.671)" fill-rule="evenodd"/>
          <path id="Trazado_601448" data-name="Trazado 601448" d="M37.331,20.251a1.174,1.174,0,0,1,.286,1.637l-.941,1.341a1.176,1.176,0,1,1-1.926-1.351l.943-1.338a1.174,1.174,0,0,1,1.637-.289" transform="translate(50.752 29.445)" fill-rule="evenodd"/>
          <path id="Trazado_601449" data-name="Trazado 601449" d="M78.525,86.969H165.1a2.6,2.6,0,0,1,2.6,2.6v.857a2.6,2.6,0,0,1-2.6,2.6H78.525a2.6,2.6,0,0,1-2.6-2.6v-.857a2.6,2.6,0,0,1,2.6-2.6" transform="translate(111.572 127.801)" fill="#fff" fill-rule="evenodd"/>
          <path id="Trazado_601450" data-name="Trazado 601450" d="M165.634,94.446H79.058a3.5,3.5,0,0,1-3.494-3.492V90.1a3.5,3.5,0,0,1,3.494-3.489h86.576a3.494,3.494,0,0,1,3.492,3.489v.857a3.5,3.5,0,0,1-3.492,3.492M79.058,88.388A1.712,1.712,0,0,0,77.344,90.1v.857a1.714,1.714,0,0,0,1.714,1.711h86.576a1.715,1.715,0,0,0,1.711-1.711V90.1a1.713,1.713,0,0,0-1.711-1.709Z" transform="translate(111.041 127.271)"/>
          <path id="Trazado_601451" data-name="Trazado 601451" d="M139.505,87.326,93.96,86.968v6.176l45.585.407,1.161-3.319Z" transform="translate(138.074 127.8)" fill-rule="evenodd"/>
          <path id="Trazado_601452" data-name="Trazado 601452" d="M30.738,87.383l7.732,13.827H23.006Z" transform="translate(33.807 128.409)"/>
          <path id="Trazado_601453" data-name="Trazado 601453" d="M14.2,98H292.54a1.869,1.869,0,0,1,1.867,1.869v1.921a1.869,1.869,0,0,1-1.867,1.869H14.2a1.87,1.87,0,0,1-1.869-1.869V99.87A1.87,1.87,0,0,1,14.2,98" transform="translate(18.12 144.013)" fill-rule="evenodd"/>
          <path id="Rectángulo_345271" data-name="Rectángulo 345271" d="M1.01,0H8.894A1.011,1.011,0,0,1,9.905,1.011V8.894A1.011,1.011,0,0,1,8.894,9.905H1.01A1.01,1.01,0,0,1,0,8.9V1.01A1.01,1.01,0,0,1,1.01,0Z" transform="translate(226.046 212.111)" fill="#fff198"/>
          <path id="Trazado_601454" data-name="Trazado 601454" d="M99.58,87.6A1.427,1.427,0,0,1,101,89.023V93.94a1.427,1.427,0,0,1-1.425,1.425H94.665a1.427,1.427,0,0,1-1.425-1.425V89.023A1.427,1.427,0,0,1,94.665,87.6Zm0-2.139H94.665A3.563,3.563,0,0,0,91.1,89.023V93.94A3.561,3.561,0,0,0,94.665,97.5H99.58a3.561,3.561,0,0,0,3.563-3.561V89.023A3.563,3.563,0,0,0,99.58,85.46" transform="translate(133.874 125.584)"/>
          <path id="Trazado_601455" data-name="Trazado 601455" d="M53.963,95.077h78.355a.716.716,0,0,1,.714.714v2.087a3.565,3.565,0,0,1-3.563,3.563H56.813a3.563,3.563,0,0,1-3.561-3.563V95.791a.714.714,0,0,1,.711-.714" transform="translate(78.254 139.716)" fill="#fff" fill-rule="evenodd"/>
          <path id="Trazado_601456" data-name="Trazado 601456" d="M130.107,103.145H57.449a4.635,4.635,0,0,1-4.63-4.63V96.428A1.783,1.783,0,0,1,54.6,94.645h78.357a1.786,1.786,0,0,1,1.781,1.783v2.087a4.637,4.637,0,0,1-4.63,4.63M54.958,96.781v1.734a2.5,2.5,0,0,0,2.492,2.494h72.658a2.494,2.494,0,0,0,2.489-2.494V96.781Z" transform="translate(77.618 139.081)"/>
          <path id="Trazado_601457" data-name="Trazado 601457" d="M103.582,78.929H51.7c-2.2,0-5.072,3.2-4.457,5.255l9.441,31.686a5.594,5.594,0,0,0,5.09,3.729h51.879c2.2,0,5.072-3.21,4.46-5.27l-9.441-31.674a5.594,5.594,0,0,0-5.09-3.726" transform="translate(69.3 115.986)" fill="#fff" fill-rule="evenodd"/>
          <path id="Trazado_601458" data-name="Trazado 601458" d="M114.29,121.306H62.408a6.651,6.651,0,0,1-6.117-4.494L46.853,85.125a4.634,4.634,0,0,1,1.032-3.959c.919-1.232,2.637-2.67,4.453-2.67h51.882a6.645,6.645,0,0,1,6.112,4.487l9.443,31.674a4.661,4.661,0,0,1-1.045,3.983c-.916,1.23-2.632,2.665-4.44,2.665M52.338,80.633a4.151,4.151,0,0,0-2.736,1.81,2.694,2.694,0,0,0-.7,2.069L58.343,116.2a4.535,4.535,0,0,0,4.065,2.971H114.29a4.137,4.137,0,0,0,2.724-1.808,2.752,2.752,0,0,0,.709-2.094L108.282,83.6a4.534,4.534,0,0,0-4.062-2.963Z" transform="translate(68.666 115.351)"/>
          <path id="Trazado_601459" data-name="Trazado 601459" d="M61.741,85.708c2.894-.032,6.021,2.489,6.981,5.633s-.608,5.717-3.5,5.749S59.2,94.6,58.239,91.455s.608-5.714,3.5-5.747" transform="translate(85.167 125.948)" fill="#fff" fill-rule="evenodd"/>
          <path id="Trazado_601460" data-name="Trazado 601460" d="M65.8,98.792c-3.371,0-6.853-2.793-7.949-6.394a5.869,5.869,0,0,1,.63-5.233,4.729,4.729,0,0,1,3.885-1.889c3.43,0,6.91,2.791,8.014,6.386a5.892,5.892,0,0,1-.635,5.238,4.717,4.717,0,0,1-3.877,1.892ZM62.435,87.412A2.63,2.63,0,0,0,60.21,88.43a3.785,3.785,0,0,0-.311,3.346c.81,2.657,3.507,4.88,5.9,4.88a2.63,2.63,0,0,0,2.22-1.017,3.8,3.8,0,0,0,.314-3.351c-.812-2.655-3.507-4.875-5.9-4.875" transform="translate(84.532 125.313)"/>
          <rect id="Rectángulo_345272" data-name="Rectángulo 345272" width="10.026" height="10.026" transform="translate(86.468 221) rotate(-45.01)"/>
          <path id="Trazado_601461" data-name="Trazado 601461" d="M77.093,17.411l7.085,7.1L82.57,26.123l-7.085-7.1Z" transform="translate(110.925 25.585)" fill-rule="evenodd"/>
          <path id="Trazado_601462" data-name="Trazado 601462" d="M82.57,17.43l1.608,1.61-7.085,7.1-1.608-1.613Z" transform="translate(110.925 25.614)" fill-rule="evenodd"/>
          <path id="Trazado_601463" data-name="Trazado 601463" d="M9.094,97.654H318.182a4.992,4.992,0,1,1,0,9.984H9.094a4.992,4.992,0,0,1,0-9.984" transform="translate(6.029 143.503)" fill="#fff" fill-rule="evenodd"/>
          <path id="Trazado_601464" data-name="Trazado 601464" d="M318.8,109.3H9.713a6.032,6.032,0,0,1,0-12.063H318.8a6.032,6.032,0,1,1,0,12.063M9.713,99.312a3.952,3.952,0,1,0,0,7.9H318.8a3.952,3.952,0,1,0,0-7.9Z" transform="translate(5.411 142.884)"/>
        </g>
      </g>
    </g>
  </g>
</svg>
