<svg xmlns="http://www.w3.org/2000/svg" xmlns:xlink="http://www.w3.org/1999/xlink" width="302" height="195" viewBox="0 0 302 195">
  <defs>
    <clipPath id="clip-path">
      <rect id="Rectángulo_45745" data-name="Rectángulo 45745" width="261.284" height="185.806" fill="none"/>
    </clipPath>
  </defs>
  <g id="Grupo_1013436" data-name="Grupo 1013436" transform="translate(-285 -6960)">
    <rect id="Rectángulo_45724" data-name="Rectángulo 45724" width="302" height="47" rx="23.5" transform="translate(285 7108)" fill="#a3bfe4"/>
    <g id="Grupo_1013437" data-name="Grupo 1013437" transform="translate(310 6960)">
      <g id="Grupo_1013436-2" data-name="Grupo 1013436" clip-path="url(#clip-path)">
        <path id="Trazado_600982" data-name="Trazado 600982" d="M88.352,79.955H66.833a3.8,3.8,0,0,1-3.795-3.795V69A3.8,3.8,0,0,1,66.833,65.2H88.352A3.8,3.8,0,0,1,92.147,69V76.16a3.8,3.8,0,0,1-3.795,3.795" transform="translate(15.396 15.924)" fill="#fff"/>
        <path id="Trazado_600983" data-name="Trazado 600983" d="M119.109,94.658H97.591A3.8,3.8,0,0,1,93.8,90.863V83.7A3.8,3.8,0,0,1,97.591,79.9h21.518A3.8,3.8,0,0,1,122.9,83.7v7.164a3.8,3.8,0,0,1-3.795,3.795" transform="translate(22.908 19.515)" fill="#fff"/>
        <rect id="Rectángulo_45744" data-name="Rectángulo 45744" width="28.141" height="32.901" transform="translate(88.563 35.143)" fill="#fff"/>
        <path id="Trazado_600984" data-name="Trazado 600984" d="M67.917,82.818H63.768a3.586,3.586,0,0,1-3.576-3.576V71.678A3.587,3.587,0,0,1,63.768,68.1H85.724A3.587,3.587,0,0,1,89.3,71.678v7.564a3.586,3.586,0,0,1-3.576,3.576H67.917Z" transform="translate(14.701 16.632)" fill="#1a1a1a"/>
        <path id="Trazado_600985" data-name="Trazado 600985" d="M14.912,100.3s-7.526,11.2-10.4,19.531S-2.627,138.5,3.146,143.215s11.987.5,11.987.5.184,5.8,0,10.454-.519,9.291-.519,9.291l46.659.423s-1.951-9.658-2.491-15.466-.8-9.374-.8-9.374,7.708,1.435,10.052.63,24.094-31.3,24.094-31.3l2.729-14.442a12.011,12.011,0,0,0-9.5-5.409c-6.83-.549-9.888,1.688-9.888,1.688l-7.09,21.215L61.6,116.677s-3.031-.673-5.942-9.088-6.767-15.162-16-16.655S14.912,100.3,14.912,100.3" transform="translate(0.068 21.597)" fill="#fff198"/>
        <path id="Trazado_600986" data-name="Trazado 600986" d="M33.7,102.9s6.487-3.213,6.149-8.267a10.913,10.913,0,0,0-7.789-9.786l.464-6.39a12.505,12.505,0,0,0,9.129-8.708l.936,4.305s1.185-.975,2.154-4.043c1.245-3.942-2.4-7.154-5.064-7.759-3.989-.9-7.226-.331-8.259.982l-.717.943s-4.361-3.186-11.215-.065a7.4,7.4,0,0,0-4.662,5.9l1.228,12.925s-5.6,0-6.365,4.464S13.9,95.013,13.9,95.013s-5.894,1.965-5.727,6.8c.152,4.428,5.033,5.923,7.717,5.4a5.673,5.673,0,0,0,2.873-1.036,9.8,9.8,0,0,0,9.72,4.3c4.961-.643,5.641-4.143,5.654-4.769A24.154,24.154,0,0,0,33.7,102.9" transform="translate(1.995 15.096)" fill="#fff"/>
        <path id="Trazado_600987" data-name="Trazado 600987" d="M159.586,90.033a9.67,9.67,0,0,1,6.808,1.9c3.434,2.49,4.12,6.5,3.464,9.9,0,0,4.583.571,7.536,2.775s5.222,4.9,9.562,15.151,6.258,16.447,7.581,22.146,1.763,10.6.98,14.93a17.537,17.537,0,0,1-2.378,6.567H122.091l-.862-51.3s5-9.441,19.084-11.325a8,8,0,0,1,3.3-9c5.172-3.514,15.971-1.736,15.971-1.736" transform="translate(29.608 21.879)" fill="#c8e0ff"/>
        <path id="Trazado_600988" data-name="Trazado 600988" d="M154.305,89.117s3.469,1.994,5.539-.964a3.782,3.782,0,0,0-1.365-5.779c-1.114-.4-3.843-1-5.131,1.2l-.472.474s-1.285-3.447-.4-6.287l-.019-.886s-5.22.865-7.171,1.008c-1.734.128-3.549-.093-7.112-1.253,0,0-.3,12.293-.167,14.976s1.783,4.881,4.3,5.139v6.4l-2.52.316s3.084,3.447,5.261,3.468a46.248,46.248,0,0,0,10.249-2.172,18.118,18.118,0,0,1,2.181-.819l-1.678-.261-1.036-13.832Z" transform="translate(33.698 18.715)" fill="#fff"/>
        <path id="Trazado_600989" data-name="Trazado 600989" d="M158.882,130.777s-5.173-6.948-6.907-8.441-4.079-3.175-6.867-3.438l-4.163,4.544-2.24.488,3.614,11.318,3.407-.491s2,.463,3.741,4.739a15.339,15.339,0,0,0,5.847-4.395,34.448,34.448,0,0,0,3.567-4.324" transform="translate(33.876 29.038)" fill="#fff"/>
        <path id="Trazado_600990" data-name="Trazado 600990" d="M138.031,121.616l2.41-3.165s-2.964.585-3.2,1.287Z" transform="translate(33.519 28.929)" fill="#fff"/>
        <path id="Trazado_600991" data-name="Trazado 600991" d="M78.382,95.3s1.858-3.848,1.92-6.288-.947-3.718-2.313-3.687a2.989,2.989,0,0,0-3.408-2.157l2.553-7.752s.423-2.46-1.45-2.7-2.91,2.808-2.91,2.808l-3.5,10.586s-.464,2.053-1.939,2.053a2.153,2.153,0,0,1-2.2-2.008c-.021-.8-1.114-3.108-2.953-2.826s-1.466,1.9-.545,5.225,1.308,4.355,1.308,4.355a16.653,16.653,0,0,1,8.374-.412,22.143,22.143,0,0,1,7.062,2.8" transform="translate(14.867 17.757)" fill="#fff"/>
        <path id="Trazado_600992" data-name="Trazado 600992" d="M108.355,107.9H139.6l14.764,43.385H122.236a5.382,5.382,0,0,0-.32-2.795c-.582-2-13.561-40.59-13.561-40.59" transform="translate(26.463 26.353)" fill="#fff"/>
        <path id="Trazado_600993" data-name="Trazado 600993" d="M143.224,115.2l1.147-1.362,2.795,2.354-1.284,1.245Z" transform="translate(34.979 27.802)" fill="#fff"/>
        <path id="Trazado_600994" data-name="Trazado 600994" d="M144.488,114.931l2.795,2.5-6,6.98-2.461.488-.774-2.291Z" transform="translate(33.715 28.069)" fill="#ffce26"/>
        <path id="Trazado_600995" data-name="Trazado 600995" d="M147.773,86.634s-1.713,1.248-1.605,2.558a6,6,0,0,0,.295,1.715s-4.006.89-4.086-.936c-.051-1.218,1.092-1.4,1.778-1.4s1.747-.031,1.685-.78.842-2.807,1.934-1.153" transform="translate(34.772 21.006)" fill="#1a1a1a"/>
        <path id="Trazado_600996" data-name="Trazado 600996" d="M159.991,84.745s2.757-4.09,2.552-7.582-2.359-5.333-6.084-5.7c0,0-3.343-3.943-6.591-3.653a12.407,12.407,0,0,0-5.674,2.078s-6.039-1.407-8.667,3.267,1.753,8.626,3.2,9.124l.082-3.55a17.786,17.786,0,0,0,7.957,1.252,61.793,61.793,0,0,0,6.67-.946s-1.189,4.535.239,6.863a4.364,4.364,0,0,1,3.43-1.753c2.238,0,2.884.6,2.884.6" transform="translate(32.898 16.557)" fill="#1a1a1a"/>
        <path id="Trazado_600997" data-name="Trazado 600997" d="M122.009,39.157V21.432a7.925,7.925,0,0,1,7.9-7.9h57.674a7.924,7.924,0,0,1,7.9,7.9v32.1a7.923,7.923,0,0,1-7.9,7.9H129.91a7.924,7.924,0,0,1-7.9-7.9Z" transform="translate(29.798 3.304)" fill="#33ece0"/>
        <path id="Trazado_600998" data-name="Trazado 600998" d="M54.231,107.08l4.3-2.318,56.719-.141a8.979,8.979,0,0,1,6.735,5.337L135,149.3s2.245,8.31-6.446,10.434l-3.076-.08Z" transform="translate(13.245 25.551)" fill="#fff"/>
        <path id="Trazado_600999" data-name="Trazado 600999" d="M124.565,159.457H70.423a8.252,8.252,0,0,1-7.856-5.427l-12.84-37.083a7.981,7.981,0,0,1,7.856-10.41h54.141a8.254,8.254,0,0,1,7.856,5.429l12.84,37.082c1.776,5.126-2.213,10.41-7.856,10.41" transform="translate(12.041 26.019)" fill="#1a1a1a"/>
        <path id="Trazado_601000" data-name="Trazado 601000" d="M83.023,127.566c1.649,2.857,1.462,6.052-.418,7.137s-4.739-.351-6.389-3.206-1.463-6.052.417-7.137,4.742.35,6.39,3.206" transform="translate(18.339 30.284)" fill="#fff"/>
        <path id="Trazado_601001" data-name="Trazado 601001" d="M27.774,106.537s3.664,25.575,23.749,32.936l-.253-4.855s-17.056-2.885-23.5-28.081" transform="translate(6.783 26.019)" fill="#1a1a1a"/>
        <path id="Trazado_601002" data-name="Trazado 601002" d="M37.994,68.4s.968,4.463,1.426,8.431c.167.373,2.873.791,3.209,1.912s-1.782,3.262-1.782,3.262.99,4.344-1.346,6.091-3.777,1.647-3.777,1.647a9.433,9.433,0,0,0-8.035-6.766s-3.983,1.2-5.018-2.22a3.352,3.352,0,0,1,3.168-4.578,11.371,11.371,0,0,1,2.5.6,54.4,54.4,0,0,0,5.956-4.3c1.621-1.559,3.7-4.072,3.7-4.072" transform="translate(5.485 16.705)" fill="#fff"/>
        <path id="Trazado_601003" data-name="Trazado 601003" d="M147.989,136.012l-1.685-2.855s-2.547,2.558-1.865,3.68,3.55-.825,3.55-.825" transform="translate(35.248 32.521)" fill="#1a1a1a"/>
        <path id="Trazado_601004" data-name="Trazado 601004" d="M155.235,129.081l-2.036-2.673s1.9-1.132,2.969-.2-.933,2.869-.933,2.869" transform="translate(37.416 30.734)" fill="#1a1a1a"/>
        <path id="Trazado_601005" data-name="Trazado 601005" d="M141.839,92.768l.259,6.438-2.521.315s-2.623-3.928,2.038-6.752Z" transform="translate(33.909 22.657)" fill="#1a1a1a"/>
        <path id="Trazado_601006" data-name="Trazado 601006" d="M151.9,91.965s5.95.368,5.992,3.388-3.811,4.579-3.811,4.579H152.4Z" transform="translate(37.098 22.46)" fill="#1a1a1a"/>
        <path id="Trazado_601007" data-name="Trazado 601007" d="M138.5,35.1a5.572,5.572,0,1,1-5.572-5.572A5.571,5.571,0,0,1,138.5,35.1" transform="translate(31.103 7.212)" fill="#fefefe"/>
        <path id="Trazado_601008" data-name="Trazado 601008" d="M85.415,32.622a2.281,2.281,0,1,1-2.281-2.278,2.281,2.281,0,0,1,2.281,2.278" transform="translate(19.747 7.411)" fill="#752121"/>
        <path id="Trazado_601009" data-name="Trazado 601009" d="M153.26,78.364c-1.361.519-10.241-.457-13.858-1.829-3.031-1.15-2.47-4.83-2.207-6a6.4,6.4,0,0,0-1.667,1.945c-2.629,4.675,1.753,8.627,3.2,9.124l.083-3.55a17.758,17.758,0,0,0,7.956,1.252,65.235,65.235,0,0,0,6.5-.91c.08-.055.083-.07,0-.036" transform="translate(32.899 17.228)" fill="#fff"/>
        <path id="Trazado_601010" data-name="Trazado 601010" d="M150.173,76.728l-.442.651c-.26,1.258-.775,4.49.358,6.337a4.422,4.422,0,0,1,1.178-1.086c-1.135-.687-1.095-5.9-1.095-5.9" transform="translate(36.485 18.739)" fill="#fff"/>
        <path id="Trazado_601011" data-name="Trazado 601011" d="M145.744,97.479c-3.521,0-7.067-1.346-7.748-4.614a28.336,28.336,0,0,1-.221-3.679l-.03-1.08c-.042-1.389.177-10.882.185-11.285.656.114.432,9.894.474,11.265l.029,1.082a28.69,28.69,0,0,0,.208,3.563c.7,3.384,5,4.443,8.711,3.99a14.453,14.453,0,0,0,3.048-.647c-.64.923-1.652,1.14-2.969,1.3a14.056,14.056,0,0,1-1.687.1" transform="translate(33.64 18.762)" fill="#1a1a1a"/>
        <path id="Trazado_601012" data-name="Trazado 601012" d="M152.462,101.481c-.328-.312-1.053-14.509-1.053-14.509.657-.035,1.381,14.163,1.381,14.163a3,3,0,0,1-.328.346" transform="translate(36.978 21.241)" fill="#1a1a1a"/>
        <path id="Trazado_601013" data-name="Trazado 601013" d="M153.7,89.212a4.283,4.283,0,0,1-2.615-.893,5.336,5.336,0,0,0,4.932-.6,3.645,3.645,0,1,0-5.722-4.11,1.677,1.677,0,0,1,.676-2.032,4.3,4.3,0,1,1,2.73,7.636" transform="translate(36.675 19.684)" fill="#1a1a1a"/>
        <path id="Trazado_601014" data-name="Trazado 601014" d="M138.216,80.424c-.291-.482.511-2.134,2.841-1.518a2.942,2.942,0,0,0-2.543,1.333.332.332,0,0,1-.3.185" transform="translate(33.742 19.238)" fill="#1a1a1a"/>
        <path id="Trazado_601015" data-name="Trazado 601015" d="M148,80.636c-1.8-2.1-3.315-1.16-3.381-1.119-.333-.566,1.734-1.848,3.639.587-.116.508-.188.531-.259.531" transform="translate(35.31 19.214)" fill="#1a1a1a"/>
        <path id="Trazado_601016" data-name="Trazado 601016" d="M144.926,91.6a3.661,3.661,0,0,1-1.073-.159,2.417,2.417,0,0,1-1.625-1.263,1.285,1.285,0,0,1,.174-1.282,1.874,1.874,0,0,1,1.7-.582c.886.109.966.047,1.145-.083s.261-.192.417-1.07a1.867,1.867,0,0,1,1.059-1.447,1.284,1.284,0,0,1,1.278.214,2.308,2.308,0,0,1,.663,1.85,3.842,3.842,0,0,1-1.487,3.072,3.778,3.778,0,0,1-2.248.75m-1.116-2.645a1.135,1.135,0,0,0-.891.351.636.636,0,0,0-.072.646,1.832,1.832,0,0,0,1.2.86,3.088,3.088,0,0,0,2.74-.491A3.177,3.177,0,0,0,148,87.769a1.738,1.738,0,0,0-.4-1.321.638.638,0,0,0-.64-.123,1.223,1.223,0,0,0-.648.951c-.185,1.038-.333,1.231-.676,1.483s-.57.336-1.616.205a2,2,0,0,0-.209-.011" transform="translate(34.713 20.912)" fill="#1a1a1a"/>
        <path id="Trazado_601017" data-name="Trazado 601017" d="M145.831,91.013c-1.519-2.374.266-4.152,1.382-4.785.218.635-2.314,2.111-1.095,4.3-.177.477-.233.49-.287.49" transform="translate(35.473 21.059)" fill="#1a1a1a"/>
        <path id="Trazado_601018" data-name="Trazado 601018" d="M154.652,86.956c-.147-.035-3.234-1.563-3.234-1.563-.09-.525,2.717-3.394,2.717-3.394.47.46-2.018,3-2.018,3l2.681,1.328c.09.556-.026.625-.147.625" transform="translate(36.98 20.027)" fill="#1a1a1a"/>
        <path id="Trazado_601019" data-name="Trazado 601019" d="M145.992,81.31c-.264-.036-.437.081-.493,1.029-.063,1.056.214,1.238.452,1.223s.467-.345.439-1.1-.054-1.106-.4-1.153" transform="translate(35.533 19.857)" fill="#1a1a1a"/>
        <path id="Trazado_601020" data-name="Trazado 601020" d="M139.863,81.254c-.264-.046-.442.065-.529,1.01-.1,1.055.173,1.244.411,1.238s.478-.328.477-1.082-.015-1.107-.358-1.166" transform="translate(34.024 19.842)" fill="#1a1a1a"/>
        <path id="Trazado_601021" data-name="Trazado 601021" d="M155.748,84.585c1.387-3.088,3.79-7.915,1.2-11.25a5.58,5.58,0,0,0-2.365-1.759,7.328,7.328,0,0,0-1.421-.355c-1.014-.1-1.115-.114-1.209-.309a1.3,1.3,0,0,1,1.054-.37,8.2,8.2,0,0,1,1.819.422,6.214,6.214,0,0,1,2.642,1.965c2.844,3.659.319,8.778-1.44,11.507a.329.329,0,0,1-.276.149" transform="translate(37.11 17.226)" fill="#1a1a1a"/>
        <path id="Trazado_601022" data-name="Trazado 601022" d="M150.167,72.967c.128-.791,1.3-1.677,1.729-2,.335.572-1.17,1.722-1.56,1.957a.335.335,0,0,1-.169.047" transform="translate(36.675 17.331)" fill="#1a1a1a"/>
        <path id="Trazado_601023" data-name="Trazado 601023" d="M141.207,124.651c-.251-.542,5.43-7.287,5.43-7.287l-2.291-1.929L138.1,122.85c-.5-.424,5.956-8.091,5.956-8.091.463-.039,3.256,2.313,3.256,2.313.04.465-5.854,7.46-5.854,7.46a.325.325,0,0,1-.251.118" transform="translate(33.721 28.027)" fill="#1a1a1a"/>
        <path id="Trazado_601024" data-name="Trazado 601024" d="M145.852,117.923c-.251-.542.683-1.651.683-1.651l-2.291-1.93-.936,1.11c-.5-.424.646-1.785.646-1.785.463-.04,3.256,2.314,3.256,2.314.04.463-1.107,1.825-1.107,1.825a.328.328,0,0,1-.251.117" transform="translate(34.969 27.76)" fill="#1a1a1a"/>
        <path id="Trazado_601025" data-name="Trazado 601025" d="M139.807,127.246a6.832,6.832,0,0,1,2.89-1.574,4.882,4.882,0,0,1-2.808,1.564.315.315,0,0,1-.082.01" transform="translate(34.145 30.693)" fill="#1a1a1a"/>
        <path id="Trazado_601026" data-name="Trazado 601026" d="M138.527,123.638c1.71-.941,3.886-1.374,5.1-2.195-.944,1.437-3.214,1.894-5.042,2.191a.374.374,0,0,1-.054,0" transform="translate(33.832 29.66)" fill="#1a1a1a"/>
        <path id="Trazado_601027" data-name="Trazado 601027" d="M140.766,129.955a19.471,19.471,0,0,1,3.012-1.136c.113.651-1.054.944-2.98,1.133l-.032,0" transform="translate(34.379 31.461)" fill="#1a1a1a"/>
        <path id="Trazado_601028" data-name="Trazado 601028" d="M137.294,119.956a5.626,5.626,0,0,1,3.49-1.769c.027.658-1.79.794-3.32,1.722a.327.327,0,0,1-.17.047" transform="translate(33.531 28.865)" fill="#1a1a1a"/>
        <path id="Trazado_601029" data-name="Trazado 601029" d="M157.692,131.1c-.321-.207-6.385-8.009-7.9-9.3a12.965,12.965,0,0,0-6.209-2.62c.224-.638,3.875-.228,6.635,2.12,1.57,1.336,7.487,8.948,7.735,9.272-.117.51-.189.531-.259.531" transform="translate(35.066 29.041)" fill="#1a1a1a"/>
        <path id="Trazado_601030" data-name="Trazado 601030" d="M149.043,136.776c-1.761-2.62-3.387-4.718-3.831-4.739a4.9,4.9,0,0,0-.585.09,13.125,13.125,0,0,1-3.028.27,10.121,10.121,0,0,1,2.909-.917,4.678,4.678,0,0,1,.7-.1c1.055,0,3.228,3.427,4.112,4.9-.165.484-.224.5-.281.5" transform="translate(34.583 32.087)" fill="#1a1a1a"/>
        <path id="Trazado_601031" data-name="Trazado 601031" d="M175.08,142.123c-4.02-6.706-15.06-13.584-19.522-15.717,4.992,1.657,15.96,8.486,19.808,15.224-.173.479-.23.493-.286.493" transform="translate(37.992 30.872)" fill="#1a1a1a"/>
        <path id="Trazado_601032" data-name="Trazado 601032" d="M162.813,152.477A98.1,98.1,0,0,1,144.3,136.466,151.631,151.631,0,0,0,163,151.875c.025.551-.078.6-.184.6" transform="translate(35.243 33.329)" fill="#1a1a1a"/>
        <path id="Trazado_601033" data-name="Trazado 601033" d="M183.94,161.688a30.919,30.919,0,0,0,2.544-10.359c.526-11.441-3.764-22.11-8.593-32.941-.321-.718-.646-1.477-.98-2.26-2.068-4.823-4.641-10.826-8.886-13.594-2.919-1.9-6.52-2.523-10-3.121l-.771-.133c.114-.649.883-.516.883-.516,3.547.608,7.217,1.239,10.25,3.218,4.411,2.879,7.029,8.983,9.131,13.887.335.78.658,1.537.978,2.251,4.86,10.907,9.181,21.656,8.65,33.241a22.368,22.368,0,0,1-2.92,10.167.328.328,0,0,1-.284.162" transform="translate(38.405 24.118)" fill="#1a1a1a"/>
        <path id="Trazado_601034" data-name="Trazado 601034" d="M154.078,98.856c-.717-.061-1.244-.091-1.838-.109a1.947,1.947,0,0,1,1.866-.547c.285.529.142.657-.029.657" transform="translate(37.181 23.976)" fill="#1a1a1a"/>
        <path id="Trazado_601035" data-name="Trazado 601035" d="M154.407,151.682H122.152c0-.659,31.794-.659,31.794-.659L139.292,108.3H108.159c0-.659,31.368-.659,31.368-.659.311.223,15.19,43.605,15.19,43.605-.1.384-.2.437-.31.437" transform="translate(26.416 26.289)" fill="#1a1a1a"/>
        <path id="Trazado_601036" data-name="Trazado 601036" d="M145.247,139.43a1.14,1.14,0,0,1-.886-.331c-.678-.748-.114-2.262,1.678-4.5-1.221,2.577-1.488,3.729-1.192,4.056.551.61,3.876-.852,8.029-4.615a28.892,28.892,0,0,0,4.41-4.894c1.061-1.571,1.188-2.406.972-2.644-.312-.346-1.1-.168-2.4.535.87-1.216,2.171-1.759,2.884-.977.54.595.233,1.757-.913,3.454a29.562,29.562,0,0,1-4.513,5.013c-2.939,2.663-6.319,4.9-8.073,4.9" transform="translate(35.189 30.699)" fill="#1a1a1a"/>
        <path id="Trazado_601037" data-name="Trazado 601037" d="M9.151,143.4a9.495,9.495,0,0,1-7.326-3.449c-5.991-6.764,3.968-28.988,12.584-41.881-9.635,15.6-17.143,35.742-12.091,41.444,5.447,6.151,12.412,1.754,12.7,1.565.311.582-2.43,2.321-5.872,2.321" transform="translate(0 23.952)" fill="#1a1a1a"/>
        <path id="Trazado_601038" data-name="Trazado 601038" d="M32.456,73.085a2.313,2.313,0,0,1,3.257-1.157c-.371.55-1.853-.194-3.017,1.051a.325.325,0,0,1-.24.106" transform="translate(7.927 17.498)" fill="#1a1a1a"/>
        <path id="Trazado_601039" data-name="Trazado 601039" d="M33.895,73.742c.263-.042.439.07.519,1.015.088,1.056-.185,1.244-.422,1.236s-.475-.333-.468-1.089.026-1.107.371-1.162" transform="translate(8.187 18.008)" fill="#1a1a1a"/>
        <path id="Trazado_601040" data-name="Trazado 601040" d="M26.649,82.439a3.916,3.916,0,1,1,2.974-6.465,7.448,7.448,0,0,0-3.465-.671,3.258,3.258,0,1,0,2.736,5.582,1.7,1.7,0,0,1-1.651,1.508,4,4,0,0,1-.593.046" transform="translate(5.553 18.221)" fill="#1a1a1a"/>
        <path id="Trazado_601041" data-name="Trazado 601041" d="M25.5,80.125c-.221-.574,1.631-2.237,1.631-2.237l-2.312-1.233c.31-.582,3.036.872,3.036.872.065.535-2.135,2.513-2.135,2.513a.333.333,0,0,1-.22.085" transform="translate(6.061 18.688)" fill="#1a1a1a"/>
        <path id="Trazado_601042" data-name="Trazado 601042" d="M33.282,90.017c1.909-1.01,3.3-1.844,4.094-3.132a6.684,6.684,0,0,0,.514-4.84c.817-1.084,1.93-2.558,1.774-3.29-.131-.618-1.772-1.133-2.9-1.3-.285-.362-1.041-7.429-1.554-8.819,1.107,1.1,1.763,6.91,1.9,8.208.84.154,2.953.646,3.193,1.777.248,1.17-1.25,2.9-1.739,3.427a7.142,7.142,0,0,1-.632,5.185,6.412,6.412,0,0,1-4.6,2.785.463.463,0,0,1-.058,0" transform="translate(8.128 16.762)" fill="#1a1a1a"/>
        <path id="Trazado_601043" data-name="Trazado 601043" d="M63.026,93.305a10.14,10.14,0,0,1-1.263-3.266c-.2-.74-.379-1.44-.544-1.9a6.574,6.574,0,0,1-.555-3.775,2.09,2.09,0,0,1,1.045-1.309,2.16,2.16,0,0,1,2.084.2,3.975,3.975,0,0,1,1.3,1.508,4.688,4.688,0,0,1,.346,1.031c.223.851.5,1.909,1.268,2.093,1.232.289,2.211-.886,2.892-3.512.338-1.308.633-2.373.929-3.357A42.142,42.142,0,0,1,73,74.513a4.084,4.084,0,0,1,1.161-1.7,1.915,1.915,0,0,1,1.293-.357,2.088,2.088,0,0,1,1.605.852,3.308,3.308,0,0,1,.4,2.685c-.342,1.374-1.782,5.4-2.3,6.84a2.993,2.993,0,0,1,1.866.444,2.674,2.674,0,0,1,1.1,1.787,3.277,3.277,0,0,1,1.891,1.06,3.611,3.611,0,0,1,.692,2.813,15.614,15.614,0,0,0-1.192-2.384,2.7,2.7,0,0,0-1.7-.868,3.734,3.734,0,0,0-1.156-1.861,2.668,2.668,0,0,0-1.914-.271c-.37-.489,1.675-6.1,2.078-7.719a2.673,2.673,0,0,0-.3-2.135,1.425,1.425,0,0,0-1.115-.586,1.31,1.31,0,0,0-.861.231,3.088,3.088,0,0,0-.859,1.247,42.286,42.286,0,0,0-2.527,6.616c-.292.977-.585,2.036-.922,3.335-.786,3.042-2.019,4.391-3.682,3.988-1.152-.276-1.5-1.6-1.751-2.566a4.759,4.759,0,0,0-.285-.881,3.4,3.4,0,0,0-1.084-1.273A1.522,1.522,0,0,0,62,83.649a1.44,1.44,0,0,0-.7.9,5.937,5.937,0,0,0,.531,3.338c.183.519.371,1.229.57,1.983a20.644,20.644,0,0,0,.923,2.963c-.2.46-.248.472-.3.472" transform="translate(14.787 17.695)" fill="#1a1a1a"/>
        <path id="Trazado_601044" data-name="Trazado 601044" d="M73.079,87.5a12.587,12.587,0,0,0,1.344-4.753c.661.065.682,1.962-1.069,4.6a.328.328,0,0,1-.275.148" transform="translate(17.848 20.208)" fill="#1a1a1a"/>
        <path id="Trazado_601045" data-name="Trazado 601045" d="M70.7,85.332c1-3.363,1.153-4.244,1.155-4.254.647.136.5,1.034-.855,4.059a.329.329,0,0,1-.3.2" transform="translate(17.267 19.802)" fill="#1a1a1a"/>
        <path id="Trazado_601046" data-name="Trazado 601046" d="M74.851,92.756a19.449,19.449,0,0,0,1.737-7.5c.661.159.666,4.04-1.459,7.351a.33.33,0,0,1-.277.152" transform="translate(18.281 20.821)" fill="#1a1a1a"/>
        <path id="Trazado_601047" data-name="Trazado 601047" d="M50.011,154.271c-1.866-4.857-3.231-18.744-3.617-25.15,1.041,6.334,2.4,20.139,3.929,24.717-.243.429-.279.433-.312.433" transform="translate(11.331 31.535)" fill="#1a1a1a"/>
        <path id="Trazado_601048" data-name="Trazado 601048" d="M11.866,161.357a.334.334,0,0,1-.327-.361,166.462,166.462,0,0,0,.3-23.965c-.377-5.66-.289-12.329-.216-17.689.027-2.033.052-3.917.051-5.546a56.378,56.378,0,0,1,1.851-15.433A113.514,113.514,0,0,0,12.333,113.8c0,1.631-.024,3.517-.05,5.555-.073,5.346-.161,12,.214,17.634a166.711,166.711,0,0,1-.3,24.075.329.329,0,0,1-.327.3" transform="translate(2.818 24.023)" fill="#1a1a1a"/>
        <path id="Trazado_601049" data-name="Trazado 601049" d="M53.523,116.39a5.035,5.035,0,0,1-1.774-.964,12.064,12.064,0,0,1-3.055-4.826c-.36-.868-.712-1.746-1.065-2.623a78.481,78.481,0,0,0-3.736-8.35c-2.586-4.739-6.033-7.577-10.541-8.675,4.854.5,8.441,3.448,11.12,8.36a79.1,79.1,0,0,1,3.77,8.418c.351.876.7,1.749,1.063,2.617a11.324,11.324,0,0,0,2.867,4.575,4.611,4.611,0,0,0,1.459.827c.158.555.03.641-.107.641" transform="translate(8.146 22.213)" fill="#1a1a1a"/>
        <path id="Trazado_601050" data-name="Trazado 601050" d="M55.016,111.234c-.314-.432,6.308-20.654,6.308-20.654.164-.23,2.608-2.989,9.924-2.332,8.129.734,10.449,5.4,10.544,5.6-.881,5.562-1.629,9.986-2.7,14.658.431-4.8,1.177-9.216,2.042-14.329-.333-.761-2.806-4.632-9.939-5.274-6.441-.585-8.926,1.615-9.262,1.95l-6.6,20.152a.329.329,0,0,1-.312.228" transform="translate(13.434 21.528)" fill="#1a1a1a"/>
        <path id="Trazado_601051" data-name="Trazado 601051" d="M58.321,135.718a26.884,26.884,0,0,1-20.03-8.36,36.946,36.946,0,0,1-5.228-6.862,47.577,47.577,0,0,1-3.308-6.709,50.373,50.373,0,0,1-1.736-5.1c-.154-.557-.352-1.292-.5-2.036a3.028,3.028,0,0,1,1.138,1.859,49.568,49.568,0,0,0,1.713,5.034,46.858,46.858,0,0,0,3.262,6.616,36.291,36.291,0,0,0,5.132,6.74,26.316,26.316,0,0,0,20.408,8.15,20.294,20.294,0,0,0,2.174-.157,2.669,2.669,0,0,1-2.156.815q-.435.011-.866.011" transform="translate(6.72 26.047)" fill="#1a1a1a"/>
        <path id="Trazado_601052" data-name="Trazado 601052" d="M139.708,98.628c-.029-.657,2.355-.859,2.355-.859.055.657-2.328.857-2.328.857h-.027" transform="translate(34.121 23.878)" fill="#1a1a1a"/>
        <path id="Trazado_601053" data-name="Trazado 601053" d="M120.844,110.575c4.018-7,10.213-10.736,19.221-12.258-8.707,2.138-14.762,5.778-18.947,12.11a.329.329,0,0,1-.274.148" transform="translate(29.514 24.012)" fill="#1a1a1a"/>
        <path id="Trazado_601054" data-name="Trazado 601054" d="M82.572,133.863a4.544,4.544,0,0,1-2.024-.525,8.083,8.083,0,0,1-3.245-3.211c-1.737-3.009-1.5-6.413.539-7.586a3.714,3.714,0,0,1,3.593.116,8.654,8.654,0,0,1,4.4,7.627,3.722,3.722,0,0,1-1.7,3.17,3.1,3.1,0,0,1-1.57.409M79.41,122.792a2.452,2.452,0,0,0-1.24.317c-1.718.994-1.853,3.994-.3,6.688a7.426,7.426,0,0,0,2.971,2.953,2.758,2.758,0,0,0,4.336-2.5,8,8,0,0,0-4.041-7,3.876,3.876,0,0,0-1.728-.453" transform="translate(18.596 29.828)" fill="#1a1a1a"/>
        <path id="Trazado_601055" data-name="Trazado 601055" d="M125.629,121.125c-.312-.226-3.77-10.663-3.77-10.663a7.935,7.935,0,0,0-7.544-5.447H60.174a8.023,8.023,0,0,0-1.715.183l-4.682,2.646c-.324-.574,4.4-3.244,4.4-3.244a8.144,8.144,0,0,1,1.994-.245h54.141a8.592,8.592,0,0,1,8.168,5.9l3.458,10.439c-.244.427-.279.432-.312.432" transform="translate(13.13 25.486)" fill="#1a1a1a"/>
        <path id="Trazado_601056" data-name="Trazado 601056" d="M112.748,154.416a11.024,11.024,0,0,0,6.444-3.952,7.859,7.859,0,0,0,1.1-7.152l-4.9-14.783c.625-.208,5.522,14.574,5.522,14.574a8.605,8.605,0,0,1-8.168,11.313" transform="translate(27.536 31.39)" fill="#1a1a1a"/>
        <path id="Trazado_601057" data-name="Trazado 601057" d="M124.629,159.851H70.489a8.567,8.567,0,0,1-8.167-5.649l-12.84-37.084a7.891,7.891,0,0,1,1.058-7.245,8.708,8.708,0,0,1,7.108-3.6h54.141a8.573,8.573,0,0,1,8.168,5.649L132.8,149a7.906,7.906,0,0,1-1.056,7.248,8.719,8.719,0,0,1-7.111,3.6M57.647,106.93a8.049,8.049,0,0,0-6.572,3.323A7.242,7.242,0,0,0,50.1,116.9l12.839,37.083a7.911,7.911,0,0,0,7.546,5.207h54.14a8.054,8.054,0,0,0,6.573-3.325,7.249,7.249,0,0,0,.972-6.649l-12.84-37.082a7.91,7.91,0,0,0-7.545-5.207Z" transform="translate(11.976 25.955)" fill="#1a1a1a"/>
        <path id="Trazado_601058" data-name="Trazado 601058" d="M185.934,137.838c-.035-.657.521-.727,1.462-.924a2.744,2.744,0,0,1-1.421.922l-.041,0m5.2-1.25a10.572,10.572,0,0,1,3.427-1.956,6.559,6.559,0,0,1-3.327,1.939.285.285,0,0,1-.1.017m6.973-2.972a11.832,11.832,0,0,1,3.048-2.572,6.44,6.44,0,0,1-2.892,2.532.345.345,0,0,1-.157.04m6.249-4.268a14.042,14.042,0,0,1,2.5-3.164,6.31,6.31,0,0,1-2.288,3.084.33.33,0,0,1-.213.08m5.17-5.514a16.893,16.893,0,0,1,1.79-3.654,6.3,6.3,0,0,1-1.527,3.522.327.327,0,0,1-.264.132m3.781-6.535a20.157,20.157,0,0,1,1.017-3.968,6.44,6.44,0,0,1-.714,3.77.332.332,0,0,1-.3.2m2.3-7.192a.344.344,0,0,1-.322-.4c.259-1.206.469-2.45.63-3.7a6.658,6.658,0,0,1,.015,3.836.331.331,0,0,1-.322.263m.959-7.5a.333.333,0,0,1-.33-.346c.042-.85.063-1.734.063-2.627,0-.375,0-.754-.011-1.133a1.079,1.079,0,0,1,.669,1.135c0,.9-.021,1.8-.062,2.658a.332.332,0,0,1-.33.314m-.141-7.569a27.586,27.586,0,0,1-.733-4.051,7.037,7.037,0,0,1,1.061,3.7c-.31.355-.32.355-.328.355m-1.018-7.5c-.569-1.507-.862-2.736-1.193-3.917a6.618,6.618,0,0,1,1.517,3.525c-.281.391-.3.392-.323.392m-2.051-7.271c-.754-1.4-1.252-2.553-1.793-3.657a6.441,6.441,0,0,1,2.1,3.211c-.23.438-.269.445-.307.445m-3.331-6.779c-.947-1.217-1.675-2.246-2.44-3.213a6.312,6.312,0,0,1,2.717,2.709c-.158.488-.219.5-.277.5m-4.7-5.914c-1.115-.978-2.054-1.817-3.03-2.59a6.3,6.3,0,0,1,3.262,2.029c-.063.529-.148.561-.233.561m-5.919-4.7c-1.223-.705-2.328-1.316-3.459-1.865a6.424,6.424,0,0,1,3.633,1.257c.041.554-.066.608-.174.608m-6.807-3.31c-1.284-.447-2.492-.82-3.7-1.133a6.524,6.524,0,0,1,3.816.5c.148.555.021.638-.112.638m-7.338-1.892a28.075,28.075,0,0,0-3.79-.362c.061-.659,1.515-.654,3.84-.292.25.539.109.654-.05.654" transform="translate(44.322 13.866)" fill="#1a1a1a"/>
        <path id="Trazado_601059" data-name="Trazado 601059" d="M19.158,71.905a23.687,23.687,0,0,1-1.5-3.832,8.1,8.1,0,0,1,1.808,3.4c-.241.429-.276.435-.311.435M16.9,64.671a19.609,19.609,0,0,1-1.234-3.938,8.3,8.3,0,0,1,1.55,3.521c-.259.412-.287.417-.316.417m-1.606-7.4a5.07,5.07,0,0,1-.541-1.891c-.086-.729-.151-1.464-.193-2.185A3.029,3.029,0,0,1,15.41,55.3q.093.8.214,1.589c-.294.378-.31.378-.327.378m-.434-7.554a.331.331,0,0,1-.33-.343,35.208,35.208,0,0,1,.384-3.8,9.746,9.746,0,0,1,.275,3.835.33.33,0,0,1-.33.314m1.188-7.468c-.264-.06-.367-.243-.319-.417a32.043,32.043,0,0,1,1.257-3.616,10.023,10.023,0,0,1-.622,3.792.328.328,0,0,1-.316.24m2.914-6.971a8.968,8.968,0,0,1,1.822-3.684,10.216,10.216,0,0,1-1.535,3.519.328.328,0,0,1-.286.165m46.218-.756a7.312,7.312,0,0,0,2.19-3.051,2.711,2.711,0,0,1-2.113,3.042.334.334,0,0,1-.077.009m-3.328-1.309a6.546,6.546,0,0,1-1.721-3.765c.81,1.173,1.293,2.38,1.977,3.229-.112.511-.184.536-.256.536M23.514,29.244A8.075,8.075,0,0,1,26.1,26.11a10.125,10.125,0,0,1-2.354,3.035.326.326,0,0,1-.236.1m43.824-1.018a13.521,13.521,0,0,0-2.625-2.961,4.538,4.538,0,0,1,2.92,2.485c-.2.467-.245.477-.295.477M60.6,25.965a.338.338,0,0,1-.325-.381,17.488,17.488,0,0,1,.7-2.822A27.324,27.324,0,0,0,58.3,21.477a4.062,4.062,0,0,1,2.9.656,14.176,14.176,0,0,1-.269,3.555.328.328,0,0,1-.325.277M141.7,24.941a19.208,19.208,0,0,1-1.4-2.064,2.774,2.774,0,0,1,1.691,1.576c-.178.475-.233.488-.287.488m-112.31-.448A1.793,1.793,0,0,1,30.4,23.171c.708-.409,1.435-.8,2.159-1.146a3.738,3.738,0,0,1-1.83,1.716q-.59.34-1.157.7a.333.333,0,0,1-.177.051m6.8-3.3a6.92,6.92,0,0,1,3.561-1.711A9.868,9.868,0,0,1,36.3,21.171a.309.309,0,0,1-.109.02m18.642-.9a31.232,31.232,0,0,0-3.758-.738,6.2,6.2,0,0,1,3.842.09c.193.55.061.648-.085.648m83.612-.389c-1.01-1.138-1.8-2.124-2.625-3.065a6.7,6.7,0,0,1,2.89,2.538c-.128.5-.2.526-.265.526m-94.886-.407a6.134,6.134,0,0,1,3.554-.859,8.219,8.219,0,0,1-3.516.857h-.037m19.731-.55a8.365,8.365,0,0,1,1.966-3.607,11.044,11.044,0,0,1-1.685,3.45.33.33,0,0,1-.281.157m70.17-4.745c-1.13-.968-2.072-1.815-3.03-2.608a6.675,6.675,0,0,1,3.259,2.043c-.057.531-.143.565-.229.565M68.111,13.122a8.219,8.219,0,0,1,2.68-3.05,9.765,9.765,0,0,1-2.454,2.959.332.332,0,0,1-.226.091M127.63,9.368c-1.208-.774-2.273-1.458-3.356-2.1a6.7,6.7,0,0,1,3.544,1.5c.016.55-.086.6-.188.6M74.088,8.477A7.958,7.958,0,0,1,77.2,5.935a9.225,9.225,0,0,1-2.934,2.49.329.329,0,0,1-.178.052M121.1,5.532c-1.274-.579-2.435-1.085-3.591-1.535a6.678,6.678,0,0,1,3.734.911c.1.557-.021.625-.143.625M80.758,4.89a7.658,7.658,0,0,1,3.4-2.055,8.978,8.978,0,0,1-3.271,2.027.337.337,0,0,1-.133.029m33.291-2.105c-1.289-.375-2.513-.693-3.736-.961a6.744,6.744,0,0,1,3.831.315c.177.554.046.646-.095.646M87.885,2.32A7.25,7.25,0,0,1,91.51.793a9.035,9.035,0,0,1-3.536,1.515.36.36,0,0,1-.088.012m18.768-1.156c-1.27-.177-2.531-.307-3.789-.392A6.8,6.8,0,0,1,106.7.509c.258.536.117.656-.046.656M95.32.877A6.742,6.742,0,0,1,99.1,0a9.348,9.348,0,0,1-3.746.875l-.035,0" transform="translate(3.549)" fill="#1a1a1a"/>
        <path id="Trazado_601060" data-name="Trazado 601060" d="M251.878,149.463H.3c0-.658,251.582-.658,251.582-.658.33.511.182.658,0,.658" transform="translate(0.072 36.342)" fill="#1a1a1a"/>
        <path id="Trazado_601061" data-name="Trazado 601061" d="M170.109,116.494c-.328-.33-.328-52.3-.328-52.3.658,0,.658,51.97.658,51.97a.329.329,0,0,1-.33.33" transform="translate(41.465 15.678)" fill="#1a1a1a"/>
        <path id="Trazado_601062" data-name="Trazado 601062" d="M119.852,36.389H94.986c0-.658,24.866-.658,24.866-.658.33.51.182.658,0,.658" transform="translate(23.198 8.727)" fill="#1a1a1a"/>
        <path id="Trazado_601063" data-name="Trazado 601063" d="M41.533,51.309c-.33-.33-.33-7.347-.33-7.347a8.239,8.239,0,0,1,8.231-8.231h27c0,.658-27,.658-27,.658a7.58,7.58,0,0,0-7.571,7.572v7.017a.33.33,0,0,1-.33.33" transform="translate(10.063 8.727)" fill="#1a1a1a"/>
        <path id="Trazado_601064" data-name="Trazado 601064" d="M41.533,105.293c-.33-.33-.33-42.769-.33-42.769.659,0,.659,42.439.659,42.439a.329.329,0,0,1-.33.33" transform="translate(10.063 15.27)" fill="#1a1a1a"/>
        <path id="Trazado_601065" data-name="Trazado 601065" d="M183.694,69.5H126.022a8.24,8.24,0,0,1-8.231-8.231v-32.1a8.239,8.239,0,0,1,8.231-8.229h57.673a8.239,8.239,0,0,1,8.232,8.229v32.1a8.24,8.24,0,0,1-8.232,8.231m-57.673-47.9a7.581,7.581,0,0,0-7.572,7.571v32.1a7.582,7.582,0,0,0,7.572,7.572h57.673a7.581,7.581,0,0,0,7.572-7.572v-32.1a7.58,7.58,0,0,0-7.572-7.571Z" transform="translate(28.768 5.113)" fill="#1a1a1a"/>
        <path id="Trazado_601066" data-name="Trazado 601066" d="M144.978,103.465c-.309-.092-4.894-1.807-6.061-4.5a5.089,5.089,0,0,1,.126-3.81,4.538,4.538,0,0,1,2.6-2.546,10,10,0,0,0-1.991,2.8,4.462,4.462,0,0,0-.129,3.288c.988,2.281,4.952,3.887,5.507,4.1,7.956-.579,15.255-3.612,15.641-6.51a2.652,2.652,0,0,0-.508-2.052c-.8-1.028-2.472-1.7-4.972-2,2.76-.336,4.581.421,5.491,1.593a3.289,3.289,0,0,1,.641,2.542c-.493,3.7-8.854,6.557-16.319,7.085h-.024" transform="translate(33.851 22.509)" fill="#1a1a1a"/>
        <path id="Trazado_601067" data-name="Trazado 601067" d="M141.085,104.9c-2.666-1.249-4.278-2.875-4.937-4.866a7.638,7.638,0,0,1,.7-5.937,6.783,6.783,0,0,1,2.827-2.985,33.55,33.55,0,0,0-2.243,3.29,6.993,6.993,0,0,0-.662,5.425c.6,1.815,2.1,3.312,4.456,4.448.1.557-.021.626-.143.626" transform="translate(33.173 22.252)" fill="#1a1a1a"/>
        <path id="Trazado_601068" data-name="Trazado 601068" d="M162.1,102.077c-.254-.052-.362-.229-.32-.407.015-.062,1.445-6.261-3.4-9.6a10.667,10.667,0,0,0-6.558-1.794,7.733,7.733,0,0,1,6.932,1.252c5.217,3.6,3.678,10.231,3.662,10.3a.328.328,0,0,1-.32.251" transform="translate(37.08 21.965)" fill="#1a1a1a"/>
        <path id="Trazado_601069" data-name="Trazado 601069" d="M146.237,104.249c14.341-2.413,15.661-7.71,15.672-7.765.6.368-.7,5.937-15.631,7.761a.24.24,0,0,1-.041,0" transform="translate(35.715 23.564)" fill="#1a1a1a"/>
        <path id="Trazado_601070" data-name="Trazado 601070" d="M141.734,99.645c-.33-.317-.571-6.868-.571-6.868.659-.025.9,6.527.9,6.527a3.846,3.846,0,0,1-.33.341" transform="translate(34.476 22.659)" fill="#1a1a1a"/>
        <path id="Trazado_601071" data-name="Trazado 601071" d="M88.749,80.37H76.09c0-.658,12.659-.658,12.659-.658A3.252,3.252,0,0,0,92,76.464V68.9a3.251,3.251,0,0,0-3.249-3.246H66.795A3.25,3.25,0,0,0,63.548,68.9v7.565a3.251,3.251,0,0,0,3.246,3.247h4.148c0,.658-4.148.658-4.148.658a3.911,3.911,0,0,1-3.906-3.906V68.9A3.909,3.909,0,0,1,66.795,65H88.749a3.909,3.909,0,0,1,3.906,3.9v7.565a3.911,3.911,0,0,1-3.906,3.906" transform="translate(15.359 15.874)" fill="#1a1a1a"/>
        <path id="Trazado_601072" data-name="Trazado 601072" d="M119.508,95.086c1.789-.658,3.246-2.114,3.246-3.9V83.617a3.251,3.251,0,0,0-3.246-3.246H97.553a3.251,3.251,0,0,0-3.247,3.246v7.565a3.25,3.25,0,0,0,3.247,3.246h8.156c0,.658-8.156.658-8.156.658a3.909,3.909,0,0,1-3.906-3.9V83.617a3.91,3.91,0,0,1,3.906-3.906h21.956a3.91,3.91,0,0,1,3.906,3.906v7.565a3.909,3.909,0,0,1-3.906,3.9" transform="translate(22.871 19.468)" fill="#1a1a1a"/>
        <path id="Trazado_601073" data-name="Trazado 601073" d="M37.035,81.739A3.591,3.591,0,0,1,34.3,80.258c.587-.312,1.843,1.386,3.633.637-.147.775-.533.845-.9.845" transform="translate(8.377 19.592)" fill="#1a1a1a"/>
        <path id="Trazado_601074" data-name="Trazado 601074" d="M163.884,134.45c-.25-9.486-5.643-18.892-5.7-18.986.626-.236,6.109,9.327,6.026,18.66a.329.329,0,0,1-.328.326" transform="translate(38.634 28.199)" fill="#1a1a1a"/>
        <path id="Trazado_601075" data-name="Trazado 601075" d="M27.573,77.71c.027-.662,2.018-.862,5.613-3.943a13.9,13.9,0,0,0,3.321-5.122c.194-.427.384-.844.58-1.248a1.4,1.4,0,0,1,.02,1.519,14.616,14.616,0,0,1-3.493,5.35c-3.825,3.279-5.934,3.438-6.022,3.443h-.019" transform="translate(6.734 16.46)" fill="#1a1a1a"/>
        <path id="Trazado_601076" data-name="Trazado 601076" d="M14.91,83.393c-.694-1.779-2.474-12.162-1.3-15.1,1.667-4.178,7.261-5.328,8.936-5.582a12.094,12.094,0,0,1,4.239.148,5.786,5.786,0,0,1,2.632,1.017c1.175-1.6,3.434-2.269,5.289-2.358a11,11,0,0,1,6.4,1.7,5.9,5.9,0,0,1,2.989,5.434,11.085,11.085,0,0,1-2.491,5.97,22.6,22.6,0,0,0,1.834-6.021,5.194,5.194,0,0,0-2.686-4.829,10.259,10.259,0,0,0-6.01-1.6c-1.88.088-4.2.811-5.089,2.577a6.224,6.224,0,0,0-2.951-1.242,11.345,11.345,0,0,0-4.051-.151c-1.588.24-6.887,1.321-8.423,5.176-1.044,2.618.52,12.436,1.012,14.444-.266.4-.295.408-.32.408" transform="translate(3.228 15.022)" fill="#1a1a1a"/>
        <path id="Trazado_601077" data-name="Trazado 601077" d="M27.032,106.716A10.6,10.6,0,0,1,18.7,102.48a7.882,7.882,0,0,1-5.715.806A6.853,6.853,0,0,1,8.4,99.658c-1.3-2.842,0-6.078,3.089-7.7.223-.116,1.234-.7,1.843-1.049-.319-.205-.712-.465-.867-.572a6.74,6.74,0,0,1-1.334-1.211,7.145,7.145,0,0,1-1.588-4.089,6.492,6.492,0,0,1,1.133-4.355,5.784,5.784,0,0,1,5.567-2.105c-2.175.394-3.984,1.066-5.037,2.5A5.834,5.834,0,0,0,10.2,84.993a6.481,6.481,0,0,0,1.437,3.714,6.044,6.044,0,0,0,1.2,1.092c.275.19,1.3.855,1.3.856-.095.607-2.012,1.716-2.345,1.891C8.985,94.02,7.836,96.831,9,99.384a6.186,6.186,0,0,0,4.135,3.262,7.21,7.21,0,0,0,5.462-.876c3.071,3.5,6.684,4.913,10.615,4.044a6.538,6.538,0,0,0,4.03-2.435,3.668,3.668,0,0,0,.616-1.945,11.95,11.95,0,0,0-.443-2.314,13.831,13.831,0,0,0,5.011-4.642c1.212-2.159,1.258-4.614.141-7.506-.975-2.522-3.5-5.4-6.439-6,3.3.01,6.012,3.076,7.052,5.766,1.193,3.087,1.135,5.726-.18,8.066a9.725,9.725,0,0,1-4.937,4.193,12.955,12.955,0,0,1,.454,2.459,4.317,4.317,0,0,1-.724,2.289,6.986,6.986,0,0,1-4.438,2.715,10.69,10.69,0,0,1-2.324.26" transform="translate(1.93 19.177)" fill="#1a1a1a"/>
        <path id="Trazado_601078" data-name="Trazado 601078" d="M138.857,82.3c-.224-.077-6.394-3.648-3.629-9.34a6.581,6.581,0,0,1,4.631-3.721,10.679,10.679,0,0,1,8.426,2.2c-2.161-.931-5.363-2.191-8.287-1.557a5.884,5.884,0,0,0-4.179,3.367c-2.5,5.142,2.967,8.3,3.2,8.437.065.555-.047.616-.162.616" transform="translate(32.853 16.866)" fill="#1a1a1a"/>
        <path id="Trazado_601079" data-name="Trazado 601079" d="M154.539,71.832c-2.416-2.432-4.676-3.626-6.955-3.649a7.532,7.532,0,0,0-4.986,2c-.384-.549,1.7-2.658,4.915-2.658,2.538.024,4.959,1.285,7.268,3.753-.08.525-.161.555-.241.555" transform="translate(34.815 16.491)" fill="#1a1a1a"/>
        <path id="Trazado_601080" data-name="Trazado 601080" d="M141.543,88.866a2.176,2.176,0,0,1-1.716-.537,1.015,1.015,0,0,1,.016-1.132,53.575,53.575,0,0,0,2.169-7.27c.586.382-.7,5.858-1.585,7.574.162.754,1.364.766,2.347.6-.077.681-.633.768-1.231.768" transform="translate(34.111 19.52)" fill="#1a1a1a"/>
        <path id="Trazado_601081" data-name="Trazado 601081" d="M153.485,84.5c-1.566-2.615-1.1-5.834-.852-7.1-9.41,2.342-15.674-.809-16.052-1.237.648-.351,6.79,3.037,16.408.465.357.574-.678,4.578.788,7.387-.187.47-.24.483-.291.483" transform="translate(33.357 18.595)" fill="#1a1a1a"/>
        <path id="Trazado_601082" data-name="Trazado 601082" d="M131.384,39.84a5.9,5.9,0,1,1,5.9-5.9,5.909,5.909,0,0,1-5.9,5.9m0-11.145a5.243,5.243,0,1,0,5.243,5.243,5.249,5.249,0,0,0-5.243-5.243" transform="translate(30.647 6.847)" fill="#1a1a1a"/>
        <path id="Trazado_601083" data-name="Trazado 601083" d="M176.536,31.436H141.07c0-.658,35.465-.658,35.465-.658.33.51.182.658,0,.658" transform="translate(34.453 7.517)" fill="#1a1a1a"/>
        <path id="Trazado_601084" data-name="Trazado 601084" d="M175.357,43.242H145.9c0-.658,29.462-.658,29.462-.658.33.511.182.658,0,.658" transform="translate(35.632 10.4)" fill="#1a1a1a"/>
        <path id="Trazado_601085" data-name="Trazado 601085" d="M141.248,43.242h-15.5c0-.658,15.5-.658,15.5-.658.33.511.182.658,0,.658" transform="translate(30.711 10.4)" fill="#1a1a1a"/>
        <path id="Trazado_601086" data-name="Trazado 601086" d="M99.5,61.6H71.358c-.328-.33-.328-33.23-.328-33.23.328-.33,28.47-.33,28.47-.33.328.33.328,33.23.328,33.23a.329.329,0,0,1-.328.33m-27.812-.658H99.171V28.695H71.688Z" transform="translate(17.348 6.848)" fill="#1a1a1a"/>
        <path id="Trazado_601087" data-name="Trazado 601087" d="M91.328,38.88H76.881c0-.658,14.447-.658,14.447-.658.33.51.182.658,0,.658" transform="translate(18.777 9.335)" fill="#1a1a1a"/>
        <path id="Trazado_601088" data-name="Trazado 601088" d="M91.328,42.966H76.881c0-.658,14.447-.658,14.447-.658.33.51.182.658,0,.658" transform="translate(18.777 10.333)" fill="#1a1a1a"/>
        <path id="Trazado_601089" data-name="Trazado 601089" d="M91.328,47.052H76.881c0-.659,14.447-.659,14.447-.659.33.511.182.659,0,.659" transform="translate(18.777 11.331)" fill="#1a1a1a"/>
        <path id="Trazado_601090" data-name="Trazado 601090" d="M127.788,86.356c-.33-.33-.33-14.789-.33-14.789H92.411c0-.658,35.377-.658,35.377-.658.33.328.33,15.117.33,15.117a.33.33,0,0,1-.33.33" transform="translate(22.569 17.318)" fill="#1a1a1a"/>
        <path id="Trazado_601091" data-name="Trazado 601091" d="M83.2,35.3a2.609,2.609,0,1,1,2.609-2.609A2.613,2.613,0,0,1,83.2,35.3m0-4.559a1.95,1.95,0,1,0,1.95,1.95,1.952,1.952,0,0,0-1.95-1.95" transform="translate(19.683 7.346)" fill="#1a1a1a"/>
        <path id="Trazado_601092" data-name="Trazado 601092" d="M89.992,74.294A2.609,2.609,0,1,1,92.6,71.685a2.613,2.613,0,0,1-2.608,2.609m0-4.56a1.95,1.95,0,1,0,1.95,1.951,1.952,1.952,0,0,0-1.95-1.951" transform="translate(21.341 16.87)" fill="#1a1a1a"/>
        <path id="Trazado_601093" data-name="Trazado 601093" d="M121.356,89.129a2.609,2.609,0,1,1,2.608-2.609,2.614,2.614,0,0,1-2.608,2.609m0-4.56a1.951,1.951,0,1,0,1.95,1.951,1.953,1.953,0,0,0-1.95-1.951" transform="translate(29.001 20.493)" fill="#1a1a1a"/>
      </g>
    </g>
  </g>
</svg>
