<svg xmlns="http://www.w3.org/2000/svg" xmlns:xlink="http://www.w3.org/1999/xlink" width="85" height="85" viewBox="0 0 85 85">
  <defs>
    <clipPath id="clip-path">
      <rect id="Rectángulo_45733" data-name="Rectángulo 45733" width="57.001" height="57.008" fill="none"/>
    </clipPath>
  </defs>
  <g id="Grupo_1015237" data-name="Grupo 1015237" transform="translate(-414 -4009)">
    <circle id="Elipse_4845" data-name="Elipse 4845" cx="42.5" cy="42.5" r="42.5" transform="translate(414 4009)" fill="#a3bfe4"/>
    <g id="Grupo_1013413" data-name="Grupo 1013413" transform="translate(428 4023)">
      <g id="Grupo_1013412" data-name="Grupo 1013412" clip-path="url(#clip-path)">
        <path id="Trazado_600946" data-name="Trazado 600946" d="M27.15,18.267A8.849,8.849,0,1,0,18.3,27.116a8.849,8.849,0,0,0,8.849-8.849" transform="translate(-8.047 -8.018)" fill="#fff"/>
        <path id="Trazado_600947" data-name="Trazado 600947" d="M68.166,165.4a1.5,1.5,0,0,1-.791-1.513c.035-1.984.01-3.969.013-5.953a11.472,11.472,0,0,1,9.607-11.517,17.528,17.528,0,0,1,2.159-.161c.344-.019.69,0,1.041,0-.014-.089-.007-.134-.026-.154a8.363,8.363,0,0,1-2.326-6.446c.071-1.851-.068-3.721.139-5.554a7.964,7.964,0,0,1,15.749,0,55.787,55.787,0,0,1,.027,7.494,6.831,6.831,0,0,1-1.9,4.177l-.379.434c.98.052,1.9.06,2.813.157a11.317,11.317,0,0,1,9.914,9.968c.229,2.652.1,5.335.126,8,0,.531-.378.81-.771,1.068Zm15.989-2.253a2.34,2.34,0,0,0-.067-.237q-2.9-7.033-5.793-14.068c-.117-.285-.268-.321-.549-.29a9.238,9.238,0,0,0-7.9,7.187c-.487,2.419-.158,4.88-.216,7.321,0,.028.04.057.063.087Zm17.946.027c0-2.04.073-4.022-.015-6a9.254,9.254,0,0,0-8.04-8.617.511.511,0,0,0-.653.377q-2.841,6.936-5.711,13.86a3.027,3.027,0,0,0-.1.378H102.1M91.74,137.687a1.343,1.343,0,0,0-.239-.105,12.107,12.107,0,0,1-5.381-1.392.91.91,0,0,0-.607.047c-1.192.386-2.366.831-3.57,1.171a11.3,11.3,0,0,1-1.862.215c0,1.037-.022,2.037,0,3.037a5.8,5.8,0,0,0,5.219,5.572,5.659,5.659,0,0,0,6.1-4.259,29.61,29.61,0,0,0,.338-4.286m-11.184,10.82,5.308,12.861,5.3-12.854h-4.19c0,.845.005,1.657,0,2.47a1.139,1.139,0,0,1-1.093,1.278c-.674.011-1.124-.5-1.129-1.3s0-1.621,0-2.457ZM91.665,135.34a5.723,5.723,0,0,0-2.8-4.931,5.5,5.5,0,0,0-6.049.033,5.671,5.671,0,0,0-2.744,4.9,8.739,8.739,0,0,0,4.7-1.269,1.812,1.812,0,0,1,2.188,0,8.689,8.689,0,0,0,4.706,1.265" transform="translate(-57.357 -108.394)"/>
        <path id="Trazado_600948" data-name="Trazado 600948" d="M266.086,11.252c-.091.45-.172.9-.276,1.35a10.324,10.324,0,0,1-8.851,7.845v.63q0,5.316,0,10.632c0,1.107-.364,1.473-1.461,1.474q-2.616,0-5.231,0a.994.994,0,0,1-1.066-.639,1.389,1.389,0,0,1,.094-1.075,1.492,1.492,0,0,1,1.028-.491c1.443-.054,2.889-.022,4.372-.022V20.47c-.544-.125-1.1-.227-1.651-.383a10.237,10.237,0,1,1,12.94-11.254,1.687,1.687,0,0,0,.1.3Zm-10.268,7.013a8.015,8.015,0,1,0-7.986-8.071,8.033,8.033,0,0,0,7.986,8.071" transform="translate(-209.085 0)"/>
        <path id="Trazado_600949" data-name="Trazado 600949" d="M9.14,20.536C4.569,19.68,1.523,17.213.332,12.751a10.227,10.227,0,0,1,18.44-8.129c.473.717.424,1.38-.132,1.764-.586.406-1.2.207-1.723-.534A7.7,7.7,0,0,0,9.4,2.349,7.643,7.643,0,0,0,2.694,7.682a8.005,8.005,0,0,0,14.1,7.249c.086-.121.164-.248.251-.367a1.111,1.111,0,1,1,1.852,1.22,9.238,9.238,0,0,1-3.837,3.535c-1.143.537-2.375.884-3.654,1.347V31.006h.587c1.28,0,2.56-.009,3.839,0a1.134,1.134,0,0,1,1.208,1.114,1.119,1.119,0,0,1-1.211,1.1q-2.7.014-5.4,0a1.144,1.144,0,0,1-1.287-1.312q-.006-5.4,0-10.8v-.585" transform="translate(0 -0.048)"/>
        <path id="Trazado_600950" data-name="Trazado 600950" d="M44.541,46.049c-.7-.684-1.345-1.3-1.972-1.927a1.126,1.126,0,1,1,1.568-1.576c.632.625,1.248,1.265,1.932,1.961.523-.522,1.014-1.015,1.506-1.505.21-.209.412-.428.638-.618a1.07,1.07,0,0,1,1.507,0,1.057,1.057,0,0,1,.052,1.544c-.561.616-1.168,1.19-1.753,1.783-.1.1-.2.214-.366.4.659.641,1.343,1.236,1.936,1.912a1.67,1.67,0,0,1,.434,1.117,1.072,1.072,0,0,1-1.867.555c-.685-.648-1.321-1.349-2.035-2.085l-1.8,1.8c-.754.752-1.38.848-1.909.293-.513-.538-.409-1.128.333-1.869.584-.584,1.171-1.164,1.8-1.788" transform="translate(-35.833 -35.817)"/>
        <path id="Trazado_600951" data-name="Trazado 600951" d="M124.005,61.48a1.109,1.109,0,1,1-1.123,1.08,1.122,1.122,0,0,1,1.123-1.08" transform="translate(-104.61 -52.339)"/>
        <path id="Trazado_600952" data-name="Trazado 600952" d="M96.75,284.635H82.288c-.023-.03-.064-.059-.063-.087.057-2.441-.271-4.9.216-7.321a9.238,9.238,0,0,1,7.9-7.187c.281-.03.432.006.549.29q2.887,7.038,5.793,14.068a2.339,2.339,0,0,1,.067.237" transform="translate(-69.951 -229.881)" fill="#fff"/>
        <path id="Trazado_600953" data-name="Trazado 600953" d="M217.807,284.693H203.289a3.057,3.057,0,0,1,.1-.378q2.858-6.929,5.711-13.86a.511.511,0,0,1,.653-.377,9.254,9.254,0,0,1,8.04,8.617c.088,1.975.015,3.958.015,6" transform="translate(-173.062 -229.912)" fill="#fff"/>
        <path id="Trazado_600954" data-name="Trazado 600954" d="M164.439,188.22a29.612,29.612,0,0,1-.338,4.285,5.659,5.659,0,0,1-6.1,4.259,5.8,5.8,0,0,1-5.219-5.572c-.026-1,0-2,0-3.037a11.314,11.314,0,0,0,1.862-.215c1.2-.34,2.378-.785,3.57-1.171a.91.91,0,0,1,.608-.047,12.107,12.107,0,0,0,5.381,1.392,1.335,1.335,0,0,1,.239.105" transform="translate(-130.055 -158.927)" fill="#fff"/>
        <path id="Trazado_600955" data-name="Trazado 600955" d="M156.029,269.774h4.194c0,.836,0,1.646,0,2.457s.455,1.309,1.129,1.3a1.139,1.139,0,0,0,1.093-1.278c.007-.812,0-1.624,0-2.47h4.19l-5.3,12.854-5.308-12.861" transform="translate(-132.829 -229.662)" fill="#fff"/>
        <path id="Trazado_600956" data-name="Trazado 600956" d="M164.353,147.89a8.689,8.689,0,0,1-4.706-1.265,1.812,1.812,0,0,0-2.188,0,8.739,8.739,0,0,1-4.7,1.269,5.671,5.671,0,0,1,2.744-4.9,5.5,5.5,0,0,1,6.049-.033,5.723,5.723,0,0,1,2.8,4.931" transform="translate(-130.045 -120.944)" fill="#fff"/>
        <path id="Trazado_600957" data-name="Trazado 600957" d="M268.577,31.064a8.015,8.015,0,1,1,8.041-7.961,8.03,8.03,0,0,1-8.041,7.961m-.874-7.506c-.53-.565-1.014-1.129-1.55-1.636a1.1,1.1,0,0,0-1.556,1.546q1.185,1.249,2.436,2.436a1.012,1.012,0,0,0,1.461-.018q2.085-2.041,4.125-4.128a1.092,1.092,0,0,0-1.038-1.8,1.774,1.774,0,0,0-.732.463c-1.032,1.008-2.044,2.037-3.145,3.14" transform="translate(-221.844 -12.799)" fill="#fff"/>
        <path id="Trazado_600958" data-name="Trazado 600958" d="M288.853,51.507c1.1-1.1,2.113-2.132,3.145-3.14a1.774,1.774,0,0,1,.732-.463,1.092,1.092,0,0,1,1.038,1.8q-2.043,2.083-4.125,4.128a1.012,1.012,0,0,1-1.461.018q-1.251-1.183-2.436-2.436A1.1,1.1,0,0,1,287.3,49.87c.536.508,1.02,1.071,1.55,1.636" transform="translate(-242.994 -40.747)"/>
      </g>
    </g>
  </g>
</svg>
