<svg xmlns="http://www.w3.org/2000/svg" xmlns:xlink="http://www.w3.org/1999/xlink" width="85" height="85" viewBox="0 0 85 85">
  <defs>
    <clipPath id="clip-path">
      <rect id="Rectángulo_345325" data-name="Rectángulo 345325" width="60.031" height="58.232" fill="none"/>
    </clipPath>
  </defs>
  <g id="Grupo_1015213" data-name="Grupo 1015213" transform="translate(-1101 -13925)">
    <g id="Grupo_1013473" data-name="Grupo 1013473" transform="translate(0 6563)">
      <circle id="Elipse_4847" data-name="Elipse 4847" cx="42.5" cy="42.5" r="42.5" transform="translate(1101 7362)" fill="#a3bfe4"/>
    </g>
    <g id="Grupo_1014676" data-name="Grupo 1014676" transform="translate(1113 13938)">
      <g id="Grupo_1014675" data-name="Grupo 1014675" clip-path="url(#clip-path)">
        <path id="Trazado_601579" data-name="Trazado 601579" d="M8.722,37.779c-2.617-.247-5.164-.479-7.708-.73a.97.97,0,0,1-.764-1.637q3.773-5.69,7.566-11.368a1.147,1.147,0,0,1,1.061-.557c1.106.019,2.213.006,3.29.006-1.713-9.005.867-16.287,8.909-20.916C27.633-1.2,34.429-.8,40.6,3.6c6.82,4.861,8.911,11.708,7.245,19.9.95,0,1.928.05,2.9-.015a1.725,1.725,0,0,1,1.728.916c2.352,3.588,4.746,7.148,7.126,10.718.078.117.161.232.233.353a.965.965,0,0,1-.752,1.582c-2.1.22-4.21.4-6.315.6-.46.043-.919.088-1.445.139v.724q0,7.834,0,15.668c0,.892-.2,1.166-1.07,1.3-2.706.4-5.416.784-8.125,1.171-3.227.461-6.467.844-9.675,1.409a17.047,17.047,0,0,1-5.568-.127C23.353,57.4,19.824,56.909,16.3,56.4c-2.152-.308-4.3-.608-6.454-.932-.947-.143-1.122-.381-1.122-1.364q0-7.8,0-15.608ZM46.473,18.628A16.456,16.456,0,1,0,30.088,35.11,16.512,16.512,0,0,0,46.473,18.628M10.689,53.618l18.324,2.619V37.112L24.4,36.28c-.33.578-.727,1.207-1.056,1.869a1.354,1.354,0,0,1-1.5.831c-2.4-.242-4.81-.459-7.216-.679-1.3-.119-2.6-.227-3.933-.343ZM31.029,37.106V56.24l18.309-2.616V37.957l-5.216.472c-2.025.183-4.05.361-6.075.552a1.186,1.186,0,0,1-1.272-.7c-.375-.705-.789-1.389-1.136-1.993l-4.61.821m6.479-1.519a5.911,5.911,0,0,1,.455.811.806.806,0,0,0,.986.535c1.9-.189,3.809-.351,5.714-.525q4.42-.4,8.84-.81c1.237-.114,2.474-.232,3.735-.351a1.113,1.113,0,0,0-.072-.229q-3.111-4.677-6.238-9.344a.761.761,0,0,0-.547-.236c-.866-.025-1.735.019-2.6-.023a.824.824,0,0,0-.931.592,17.549,17.549,0,0,1-5.824,7.344c-1.1.8-2.3,1.466-3.519,2.235M2.744,35.245l6.506.595,7.338.67c1.564.142,3.127.289,4.693.412a.733.733,0,0,0,.567-.18,12.74,12.74,0,0,0,.727-1.257A18.709,18.709,0,0,1,12.9,25.428c-1.08,0-2.108.023-3.134-.011a.837.837,0,0,0-.819.453q-2.914,4.41-5.855,8.8c-.108.163-.205.333-.353.573" transform="translate(0 0.001)" fill="#161615"/>
        <path id="Trazado_601580" data-name="Trazado 601580" d="M116.816,30.013a16.456,16.456,0,1,1-16.431-16.434,16.513,16.513,0,0,1,16.431,16.434m-16.049,4.859a2.635,2.635,0,0,1,.292-.186c2.374-.991,4.748-1.985,7.129-2.958a.941.941,0,0,1,.613.029,3.045,3.045,0,0,0,3.635-1.108,2.976,2.976,0,0,0-.358-3.825q-5.223-5.258-10.482-10.481A2.978,2.978,0,0,0,97.817,16a3.058,3.058,0,0,0-1.132,3.632,1.185,1.185,0,0,1,0,.779q-1.375,3.38-2.806,6.737a2.435,2.435,0,0,1-.5.735c-1.316,1.336-2.648,2.657-3.974,3.984-.865.865-.885,1.1-.183,2.039-1.78,2.392-1.9,4.15-.383,5.686a3.614,3.614,0,0,0,2.238,1.084,3.909,3.909,0,0,0,3.447-1.464c.9.689,1.032.689,2.01.021.14.133.287.267.428.408q2.247,2.245,4.494,4.49a1.009,1.009,0,0,0,1.669.023q1.336-1.316,2.652-2.653a1,1,0,0,0,0-1.626c-.763-.777-1.537-1.543-2.308-2.312-.882-.88-1.765-1.759-2.7-2.691" transform="translate(-70.343 -11.384)" fill="#fff"/>
        <path id="Trazado_601581" data-name="Trazado 601581" d="M66.136,241.8V226.134c1.336.116,2.636.224,3.933.343,2.406.221,4.812.438,7.216.679a1.354,1.354,0,0,0,1.5-.831c.33-.662.726-1.291,1.056-1.869l4.613.832v19.125L66.136,241.8" transform="translate(-55.446 -188.176)" fill="#fff"/>
        <path id="Trazado_601582" data-name="Trazado 601582" d="M191.967,225.307l4.61-.821c.347.6.762,1.288,1.136,1.993a1.186,1.186,0,0,0,1.272.7c2.024-.191,4.05-.369,6.075-.552l5.216-.472v15.667l-18.309,2.616Zm1.895,13.463q0,1.3,0,2.6c0,1.086.438,1.436,1.513,1.256,1.209-.2,2.423-.376,3.634-.564,2.8-.435,5.6-.864,8.4-1.311.751-.12.97-.419.971-1.194q0-2.66,0-5.32c0-1-.453-1.376-1.454-1.205-.139.024-.275.06-.414.081q-5.87.908-11.739,1.816a.937.937,0,0,0-.909,1.061c-.008.927,0,1.854,0,2.781" transform="translate(-160.938 -188.201)" fill="#fff"/>
        <path id="Trazado_601583" data-name="Trazado 601583" d="M232.052,167.406c1.221-.769,2.421-1.432,3.519-2.235a17.548,17.548,0,0,0,5.824-7.344.824.824,0,0,1,.931-.592c.865.042,1.733,0,2.6.023a.761.761,0,0,1,.547.236q3.137,4.66,6.238,9.344a1.112,1.112,0,0,1,.072.229c-1.261.118-2.5.237-3.735.351q-4.42.407-8.84.81c-1.9.174-3.811.336-5.714.525a.806.806,0,0,1-.986-.535,5.884,5.884,0,0,0-.455-.811" transform="translate(-194.544 -131.818)" fill="#fff"/>
        <path id="Trazado_601584" data-name="Trazado 601584" d="M16.978,167.074c.148-.241.245-.411.353-.573q2.929-4.4,5.855-8.8a.837.837,0,0,1,.819-.453c1.026.034,2.055.011,3.134.011a18.709,18.709,0,0,0,9.669,10.057,12.739,12.739,0,0,1-.727,1.257.733.733,0,0,1-.567.18c-1.565-.123-3.129-.27-4.692-.412l-7.338-.67-6.506-.595" transform="translate(-14.234 -131.828)" fill="#fff"/>
        <path id="Trazado_601585" data-name="Trazado 601585" d="M120.871,44.729c.935.932,1.818,1.81,2.7,2.691.771.769,1.545,1.535,2.308,2.312a1,1,0,0,1,0,1.626q-1.315,1.337-2.652,2.653a1.009,1.009,0,0,1-1.669-.023q-2.252-2.241-4.494-4.491c-.141-.141-.288-.275-.428-.408-.979.669-1.115.669-2.01-.021a3.909,3.909,0,0,1-3.447,1.464,3.613,3.613,0,0,1-2.239-1.084c-1.519-1.536-1.4-3.293.383-5.686-.7-.937-.681-1.174.183-2.039,1.326-1.327,2.657-2.648,3.974-3.984a2.436,2.436,0,0,0,.5-.735q1.425-3.359,2.806-6.737a1.183,1.183,0,0,0,0-.779,3.058,3.058,0,0,1,1.132-3.632,2.978,2.978,0,0,1,3.78.343q5.26,5.221,10.482,10.481a2.977,2.977,0,0,1,.358,3.826,3.045,3.045,0,0,1-3.635,1.108.94.94,0,0,0-.613-.029c-2.382.973-4.755,1.967-7.129,2.958a2.626,2.626,0,0,0-.292.186m5.939-4.678-8.437-8.443c-.813,1.944-1.647,3.921-2.453,5.91-.049.122.079.375.2.5,1.414,1.435,2.851,2.848,4.258,4.289a.6.6,0,0,0,.792.122c1.236-.532,2.481-1.042,3.723-1.562.661-.277,1.321-.558,1.92-.812m4.3-1.4a3.894,3.894,0,0,0-.49-.751c-1.152-1.186-2.33-2.347-3.5-3.516q-3.272-3.272-6.544-6.545a1.2,1.2,0,0,0-1.22-.483c-.9.25-1.075,1.215-.347,1.945q5.043,5.053,10.1,10.095a1.866,1.866,0,0,0,.474.366,1.1,1.1,0,0,0,1.531-1.11m-16.4.871L111.433,42.8l4.22,4.223,3.275-3.275-4.216-4.224m3.369,8.043,4.373,4.378,1.323-1.318L119.4,46.256l-1.319,1.312m-7.336-2.342a1.842,1.842,0,0,0-.79,2.117,1.613,1.613,0,0,0,1.449,1.19,1.8,1.8,0,0,0,1.776-.857l-2.435-2.45" transform="translate(-90.446 -21.241)" fill="#161615"/>
        <path id="Trazado_601586" data-name="Trazado 601586" d="M203.679,282.877c0-.927-.006-1.854,0-2.781a.937.937,0,0,1,.909-1.061q5.869-.914,11.739-1.816c.139-.022.276-.058.414-.081,1-.171,1.453.2,1.454,1.2q0,2.66,0,5.32c0,.775-.221,1.074-.971,1.194-2.8.448-5.6.876-8.4,1.311-1.211.188-2.425.362-3.634.564-1.075.18-1.512-.17-1.513-1.256q0-1.3,0-2.6m1.96,1.786,10.589-1.624V279.22l-10.589,1.631Z" transform="translate(-170.755 -232.308)" fill="#161615"/>
        <path id="Trazado_601587" data-name="Trazado 601587" d="M168.426,72.58c-.6.253-1.259.535-1.92.812-1.241.52-2.487,1.03-3.723,1.562a.6.6,0,0,1-.792-.123c-1.407-1.441-2.844-2.854-4.258-4.289-.118-.12-.246-.374-.2-.5.806-1.989,1.64-3.966,2.453-5.91l8.437,8.443" transform="translate(-132.063 -53.77)" fill="#fff"/>
        <path id="Trazado_601588" data-name="Trazado 601588" d="M186.486,48.94a1.1,1.1,0,0,1-1.531,1.11,1.868,1.868,0,0,1-.474-.365q-5.052-5.044-10.1-10.095c-.729-.73-.551-1.7.346-1.945a1.2,1.2,0,0,1,1.22.483q3.27,3.275,6.544,6.545c1.169,1.169,2.347,2.33,3.5,3.516a3.9,3.9,0,0,1,.49.751" transform="translate(-145.82 -31.528)" fill="#fff"/>
        <path id="Trazado_601589" data-name="Trazado 601589" d="M133.118,113.116l4.216,4.224-3.275,3.275-4.22-4.223,3.278-3.276" transform="translate(-108.853 -94.832)" fill="#fff"/>
        <path id="Trazado_601590" data-name="Trazado 601590" d="M170.963,156.07l1.319-1.312,4.376,4.372-1.323,1.318-4.373-4.379" transform="translate(-143.329 -129.743)" fill="#fff"/>
        <path id="Trazado_601591" data-name="Trazado 601591" d="M121.01,148.384l2.435,2.45a1.8,1.8,0,0,1-1.776.857,1.613,1.613,0,0,1-1.449-1.19,1.842,1.842,0,0,1,.79-2.117" transform="translate(-100.711 -124.4)" fill="#fff"/>
        <path id="Trazado_601592" data-name="Trazado 601592" d="M215.816,295.671v-3.812l10.589-1.631v3.819l-10.589,1.624" transform="translate(-180.932 -243.316)" fill="#fff"/>
      </g>
    </g>
  </g>
</svg>
