<svg xmlns="http://www.w3.org/2000/svg" xmlns:xlink="http://www.w3.org/1999/xlink" width="85" height="85" viewBox="0 0 85 85">
  <defs>
    <clipPath id="clip-path">
      <rect id="Rect치ngulo_45753" data-name="Rect치ngulo 45753" width="46.746" height="51.948" fill="none"/>
    </clipPath>
  </defs>
  <g id="Grupo_1015232" data-name="Grupo 1015232" transform="translate(-414 -7362)">
    <g id="Grupo_1013450" data-name="Grupo 1013450">
      <circle id="Elipse_4848" data-name="Elipse 4848" cx="42.5" cy="42.5" r="42.5" transform="translate(414 7362)" fill="#a3bfe4"/>
      <g id="Grupo_1013444" data-name="Grupo 1013444" transform="translate(433 7379)">
        <g id="Grupo_1013443" data-name="Grupo 1013443" clip-path="url(#clip-path)">
          <path id="Trazado_601119" data-name="Trazado 601119" d="M41.551,0a27.8,27.8,0,0,1-.175,3.381,8.647,8.647,0,0,1-2.326,4.374.647.647,0,0,0-.157.719,16.945,16.945,0,0,1,.78,6,4.74,4.74,0,0,0,.79,2.786q3.006,5,5.988,10.009c.094.158.185.317.295.5-1.636.7-3.226,1.4-4.84,2.044a.756.756,0,0,0-.549.855c.02,2.961.014,5.922.009,8.882a5.182,5.182,0,0,1-6.548,5.05c-1.388-.36-2.776-.717-4.219-1.089v8.431H5.7c.289-1.164.574-2.32.863-3.475.545-2.179,1.105-4.355,1.633-6.539a7.1,7.1,0,0,0-1.184-6.068c-1.236-1.714-2.583-3.354-3.749-5.114A19.837,19.837,0,0,1,13.518,1.073,41.792,41.792,0,0,1,18.163.085c.113-.024.225-.057.337-.085ZM38.339,3.046h-.433c-6.024,0-12.048-.016-18.073.015a17.765,17.765,0,0,0-3.275.322A16.848,16.848,0,0,0,6.148,29.6c1.123,1.567,2.329,3.074,3.443,4.648a9.524,9.524,0,0,1,1.8,6.8,39.779,39.779,0,0,1-.865,4.109c-.288,1.247-.614,2.485-.929,3.747H27.531c0-2.005,0-3.981-.013-5.957,0-.105-.18-.264-.305-.3a11.9,11.9,0,0,0-1.518-.4c-2.51-.434-4.018-2.267-5.572-3.879l2.147-2.16c.615.623,1.231,1.329,1.936,1.931a4.525,4.525,0,0,0,1.631.964c3.273.9,6.563,1.744,9.853,2.582a2.077,2.077,0,0,0,2.572-1.622c.115-1.183.026-2.385.026-3.634H34.773V33.394h3.548v-.6c0-1.4.017-2.809-.011-4.213a.663.663,0,0,1,.481-.746c1.173-.47,2.33-.979,3.539-1.492-.111-.2-.2-.36-.289-.516-1.4-2.351-2.8-4.7-4.218-7.049a8.037,8.037,0,0,1-1.2-4.083c-.011-.625.024-1.252,0-1.876a15.07,15.07,0,0,0-1.266-5.193.522.522,0,0,1,.184-.726,9.581,9.581,0,0,0,1.1-1.046,6.923,6.923,0,0,0,1.7-2.809" transform="translate(0)"/>
          <path id="Trazado_601120" data-name="Trazado 601120" d="M57.758,22.432a6.925,6.925,0,0,1-1.7,2.809,9.581,9.581,0,0,1-1.1,1.046.522.522,0,0,0-.184.726,15.07,15.07,0,0,1,1.266,5.193c.025.624-.009,1.251,0,1.876a8.037,8.037,0,0,0,1.2,4.083c1.415,2.344,2.814,4.7,4.218,7.049.093.156.178.317.289.516-1.209.513-2.366,1.022-3.539,1.492a.663.663,0,0,0-.481.746c.028,1.4.011,2.808.011,4.213v.6H54.192v3.033h3.515c0,1.249.089,2.451-.026,3.634a2.078,2.078,0,0,1-2.572,1.622c-3.29-.838-6.58-1.679-9.853-2.582a4.526,4.526,0,0,1-1.631-.964c-.705-.6-1.321-1.308-1.936-1.931l-2.147,2.16c1.553,1.612,3.062,3.445,5.572,3.879a11.9,11.9,0,0,1,1.518.4c.126.039.3.2.305.3.018,1.976.013,3.952.013,5.957H29.018c.314-1.262.641-2.5.929-3.747a39.779,39.779,0,0,0,.865-4.109,9.524,9.524,0,0,0-1.8-6.8c-1.114-1.573-2.319-3.081-3.443-4.648A16.848,16.848,0,0,1,35.978,22.769a17.764,17.764,0,0,1,3.275-.322c6.024-.031,12.048-.015,18.073-.015ZM39.275,53.008A13.755,13.755,0,1,0,25.532,39.244,13.763,13.763,0,0,0,39.275,53.008" transform="translate(-19.419 -19.387)" fill="#fff"/>
          <path id="Trazado_601121" data-name="Trazado 601121" d="M58.823,72.57A13.756,13.756,0,1,1,72.6,58.837,13.767,13.767,0,0,1,58.823,72.57m.017-3.045A10.71,10.71,0,1,0,48.126,58.81,10.711,10.711,0,0,0,58.839,69.525" transform="translate(-38.966 -38.948)"/>
          <path id="Trazado_601122" data-name="Trazado 601122" d="M78.254,88.936A10.71,10.71,0,1,1,88.965,78.22,10.714,10.714,0,0,1,78.254,88.936M79.777,81a5.836,5.836,0,0,0-.005-.72.922.922,0,0,1,.618-1.08,4.511,4.511,0,0,0,2.342-4.991,4.582,4.582,0,0,0-8.859-.356,10.5,10.5,0,0,0-.215,1.242.855.855,0,0,0,.18.075c.811.005,1.623,0,2.434.017.305.008.442-.079.514-.394a1.405,1.405,0,0,1,1.133-1.1,1.523,1.523,0,0,1,1.86,1.332,1.542,1.542,0,0,1-1.5,1.69c-.5.026-1,0-1.513,0V81Zm-3.018,4.851h2.985V82.855H76.759Z" transform="translate(-58.381 -58.36)" fill="#fff"/>
          <path id="Trazado_601123" data-name="Trazado 601123" d="M118.77,100.68h-3.013V96.4c.51,0,1.013.022,1.513,0a1.542,1.542,0,0,0,1.5-1.69,1.524,1.524,0,0,0-1.86-1.333,1.406,1.406,0,0,0-1.133,1.1.425.425,0,0,1-.513.394c-.811-.021-1.623-.012-2.434-.017a.858.858,0,0,1-.18-.075,10.525,10.525,0,0,1,.215-1.242,4.581,4.581,0,0,1,8.858.356,4.511,4.511,0,0,1-2.342,4.991.922.922,0,0,0-.618,1.08,5.864,5.864,0,0,1,.005.72" transform="translate(-97.374 -78.041)"/>
          <rect id="Rect치ngulo_45752" data-name="Rect치ngulo 45752" width="2.985" height="2.994" transform="translate(18.378 24.495)"/>
        </g>
      </g>
    </g>
  </g>
</svg>
