<svg xmlns="http://www.w3.org/2000/svg" xmlns:xlink="http://www.w3.org/1999/xlink" width="252" height="229.597" viewBox="0 0 252 229.597">
  <defs>
    <clipPath id="clip-path">
      <rect id="Rect치ngulo_345703" data-name="Rect치ngulo 345703" width="252" height="190.867" fill="none"/>
    </clipPath>
  </defs>
  <g id="Grupo_1015073" data-name="Grupo 1015073" transform="translate(-328 -538.403)">
    <g id="Grupo_1015069" data-name="Grupo 1015069">
      <rect id="Rect치ngulo_345705" data-name="Rect치ngulo 345705" width="252" height="57" rx="28.5" transform="translate(328 711)" fill="#fff"/>
      <g id="Grupo_1015068" data-name="Grupo 1015068" transform="translate(328 538.403)">
        <g id="Grupo_1015067" data-name="Grupo 1015067" clip-path="url(#clip-path)">
          <path id="Trazado_605309" data-name="Trazado 605309" d="M142.144,75.811A52.485,52.485,0,1,1,89.659,23.326a52.485,52.485,0,0,1,52.485,52.485" transform="translate(10.698 6.713)" fill="#fff198"/>
          <path id="Trazado_605310" data-name="Trazado 605310" d="M69.545,94.031A40.972,40.972,0,0,0,56.22,99.75s-5.16,7.143-6.275,13.14L42.92,109.97s-9.438,4.425-9.724,13.1c0,0-7.32,6.969-6.722,12.235,0,0,15.628,10.176,22.232,12.046l-.43,16.18H84.358s-.765-25.864-1.113-28.936-.215-21.514-.992-26.412-1.06-9.032-4.627-11.294-7.434-2.527-8.082-2.858" transform="translate(7.609 27.06)" fill="#33ece0"/>
          <path id="Trazado_605311" data-name="Trazado 605311" d="M138.073,100.14s11.587.433,17.661-3.876,5.809-8.588,6.08-13.712-2.274-13.1-2.274-13.1L161.65,67.7l2.662,1.933a38.09,38.09,0,0,0,7.087-2.659l2.822-1.544V63.783s.957-.317,1.167.406a94.847,94.847,0,0,1,3.047,15.288c.628,7.038,1.637,17.255-6.062,28.777l-16.243,44.5.823,19.5H114.188l-1.61-26.676,1.8-39.748s1.641-2.876,7.995-4.657a35.977,35.977,0,0,1,4.442-.572,21.267,21.267,0,0,0,3.953-.632l6.8,3.644.223-3.474Z" transform="translate(32.397 18.335)" fill="#afafaf"/>
          <path id="Trazado_605312" data-name="Trazado 605312" d="M95.166,88.432S88,87.355,76.332,104.564,68.716,130.2,68.716,130.2s1.008,5.867,11.246,4.506c0,0-.111,7.545-.7,14.131s-2.019,16.464-2.019,16.464h49.764l-1.61-26.678s7.106-1.355,7.419-10.529-3.315-22.616-4.134-25.279-3.364-10.256-11.215-12.743-18.921-2.632-22.3-1.646" transform="translate(19.579 25.285)" fill="#1a1a1a"/>
          <path id="Trazado_605313" data-name="Trazado 605313" d="M63.821,56.565a6.333,6.333,0,0,0-8.963,0l-2.443,2.443a6.331,6.331,0,0,0,0,8.959L70.269,85.823a6.335,6.335,0,0,0,8.96,0l36.756-35.858a6.339,6.339,0,0,0,0-8.96l-2.444-2.445a6.339,6.339,0,0,0-8.964,0L74.749,67.5Z" transform="translate(14.549 10.562)" fill="#fff"/>
          <path id="Trazado_605314" data-name="Trazado 605314" d="M45.218,77.711,46.6,85.4s-2.246,1.634-2.3,2.2,2.3,2.163,2.3,2.163,1.168,6.5,7.834,4.1l.726,2.573,4.516-1.805a19.172,19.172,0,0,1-.218-7.754A3.656,3.656,0,0,0,60.6,82.838c-.788-2.663-4.33-1.968-5.165-.612-.453.173-7.683-1.419-10.22-4.515" transform="translate(12.749 22.363)" fill="#fff"/>
          <path id="Trazado_605315" data-name="Trazado 605315" d="M35.737,118.63s-4.51-3.715-6.116-6.347-3.067-3.329-4.266-2.476-.524,2.986.3,3.938,2.785,3.256,1.128,3.8c0,0-.416.523-1.559-.625l-5.915-5.938a5.194,5.194,0,0,0-.762,1.715s-1.153.489-.9,2.525,1.616,5.057,5.349,7.4,6.319,3.7,6.537,4.836c0,0,2.457-6.105,6.2-8.829" transform="translate(5.068 31.501)" fill="#fff"/>
          <path id="Trazado_605316" data-name="Trazado 605316" d="M102.629,90.383l-.587-7.776s3.362,1.183,4.528-2.019-1.836-4.552-3.395-4.329a3.819,3.819,0,0,0-2.351,1.234,19.39,19.39,0,0,1-4.1-7.6s-3.644,4.532-8.745,2.794c0,0-.185,7.541-.144,9.49s-.819,6.5,3.993,6.932l.012,1.438,2.527,8.843Z" transform="translate(25.268 20.115)" fill="#fff"/>
          <path id="Trazado_605317" data-name="Trazado 605317" d="M92.837,106.871a10.885,10.885,0,0,0-5.349-3.355c-3.315-.82-5.916-.16-6.413,1.08,0,0-5.119.931-4.233,4.509a8.241,8.241,0,0,1,5.07.122,13.333,13.333,0,0,1,5.219,3.075s2.918-4.118,5.706-5.432" transform="translate(22.084 29.685)" fill="#fff"/>
          <path id="Trazado_605318" data-name="Trazado 605318" d="M96.375,109.826s1-2.572,4.926-1.277c0,0,3.093-.985,5.389.659a4.251,4.251,0,0,1,3.29.193c1.96.825,3.143,4.266,3.558,5.656s-.524,3.8-3.025,2.822c-.216-.057-.485,1.883-2.605,1.7s-3.128-2.509-3.128-2.509-.577,2.1-2.408,1.812a2.737,2.737,0,0,1-2.445-2.156,19.475,19.475,0,0,0-.116-3.062c-.209-.522-1.633-2.85-1.633-2.85Z" transform="translate(27.734 31.133)" fill="#fff"/>
          <path id="Trazado_605319" data-name="Trazado 605319" d="M136.41,75.241l1.691,9.034s1.476,6.158-3.5,6.4l.8,7.316-.346,3.575-6.821-3.677A4.6,4.6,0,0,0,131,94.221c.514-2.923-.233-4.761-1.954-6.015s-2.747-1.928-2.747-1.928-3.635,1.254-4.354-1.833,2.1-3.758,3.643-3.438c0,0,2.952-2.221,3.9-4.621a30.031,30.031,0,0,0,1.431-5.2s4.438,2.631,5.487,4.056" transform="translate(35.06 20.485)" fill="#fff"/>
          <path id="Trazado_605320" data-name="Trazado 605320" d="M154.149,71.339s-3.321-2.283-4.854-3.348a4.6,4.6,0,0,1-2.187-4.317c.263-1.571,3.447-6.129,4.241-6.443s1.91.258,2.107,1.862.032.708.032.708a48.3,48.3,0,0,0,6-.57c2.069-.43,4.309-1.1,4.309-1.1a56.167,56.167,0,0,1,.5,9.182,16.726,16.726,0,0,1-5.546,2.858c-3.192.9-4.6,1.167-4.6,1.167" transform="translate(42.322 16.446)" fill="#fff"/>
          <path id="Trazado_605321" data-name="Trazado 605321" d="M41.533,108.712l-6.427-4.217L31.155,107l-4.595-.7,5.525-3.574s-2.746-.44-4.121.381a39.809,39.809,0,0,0-3.835,2.923s-1.848.237-2.084,1.472,1.332,2.579,3.832,3a46.048,46.048,0,0,0,5.732.462,9.4,9.4,0,0,0,4.364,3.925s2.321-3.2,3.028-3.908,2.532-2.266,2.532-2.266" transform="translate(6.337 29.528)" fill="#fff"/>
          <path id="Trazado_605322" data-name="Trazado 605322" d="M91.493,86.175l-2.367,3.052.269,12.22-.375,10.211,2.058,1.266,3.317-.088,3.632-10.923.962,1.7,6.481-14.5L101.53,85.1Z" transform="translate(25.618 24.491)" fill="#fff"/>
          <path id="Trazado_605323" data-name="Trazado 605323" d="M93.983,92.8l-3.012,4.657.475,3.665-2.087,3.95-.21,4.469,1.893,1.165,3.317-.088.708-2.131-.079-.891-.63-6.474L96.816,97.9Z" transform="translate(25.655 26.706)" fill="#ffce26"/>
          <path id="Trazado_605324" data-name="Trazado 605324" d="M106.252,78.3s1.973-1.683,1.417-5.281-1.2-5.795-8.282-5.183c0,0-2.8-3.473-7.061-2.282s-5.688,3.559-6.068,5.711,1.932,5.857,1.932,5.857L88.137,74s5.689,1.445,9.049-2.779c0,0,2.154,6.14,4.094,7.6,0,0,1.539-2.509,4.972-.509" transform="translate(24.811 18.794)" fill="#fff"/>
          <path id="Trazado_605325" data-name="Trazado 605325" d="M78.591,116.808a31.117,31.117,0,0,0,1.248-11.949c-.775-5.756-3.169-9.591-7.237-10.8a9.141,9.141,0,0,1-6.466-6.179c-.522-2.018-.04-6.971-1.01-10.853s-4.263-5.677-8.35-5.373c0,0-11.184-1.136-12.095,7.318,0,0,3,3.9,10.194,5.186.327-.05,1-1.186,2.832-1.253a2.908,2.908,0,0,1,3.058,2.8,3.79,3.79,0,0,1-1.332,2.65,14.782,14.782,0,0,0-.482,5.431,7.779,7.779,0,0,0,5.539,6.774c3.234.916,8.492,1.541,10.2,5.528A31.211,31.211,0,0,1,77.134,116.3c.053,2.006.138,3.387.138,3.387Z" transform="translate(12.858 20.605)" fill="#1a1a1a"/>
          <path id="Trazado_605326" data-name="Trazado 605326" d="M22.243,107.743,23.6,110.36l1.9-1.31a21.68,21.68,0,0,1-3.04-1.517c-.182-.291-.223.21-.223.21" transform="translate(6.401 30.919)" fill="#1a1a1a"/>
          <path id="Trazado_605327" data-name="Trazado 605327" d="M29.96,107.58l6.659-4.165-1.732-2.579-9.423,6.125a26.57,26.57,0,0,0,4.5.619" transform="translate(7.328 29.018)" fill="#1a1a1a"/>
          <path id="Trazado_605328" data-name="Trazado 605328" d="M49.624,139.146s-.394-7.079,6.7-9.112S66.4,132.551,66.4,132.551s-3.88,4.9-8.389,5.831a38.178,38.178,0,0,1-8.389.764" transform="translate(14.279 37.27)" fill="#1a1a1a"/>
          <path id="Trazado_605329" data-name="Trazado 605329" d="M27.739,116.171,11.431,99.917s-1.12-.721-1.8,0,0,1.8,0,1.8L28.3,120.455a2.187,2.187,0,0,0,1.263-.47c.452-.442.035-1.415-.1-1.657s-1.72-2.157-1.72-2.157" transform="translate(2.685 28.661)" fill="#1a1a1a"/>
          <path id="Trazado_605330" data-name="Trazado 605330" d="M58.161,90.853s-5.422,1.769-6.465,3.308-2.131,6.5-2.131,6.5,7.315-4.986,13.325-5.719a7.045,7.045,0,0,1-4.729-4.093" transform="translate(14.264 26.145)" fill="#fff"/>
          <path id="Trazado_605331" data-name="Trazado 605331" d="M52.313,90.2l1.25-.626-.71,2.451Z" transform="translate(15.055 25.778)" fill="#b5b5b5"/>
          <path id="Trazado_605332" data-name="Trazado 605332" d="M117.527,101.513s-3.283-1.928-2.013-6.55,6.136-4.084,6.136-4.084l-4.345-12.475s.005-8.337,9.412-8.938a13.524,13.524,0,0,1,6.32-1.046c2.931.444,5.053,3.071,5.687,6.581.04.357-10.575,2.842-10.575,2.842S127.125,75.56,125.734,75c0,0,1.825,4.089,1.755,6.823,0,0-3.527-.725-3.6,2.507s2.814,3.477,4.309,2.764c0,0,4.642,1.947,4.859,6.386a5.478,5.478,0,0,1-3.816,5.586,28.8,28.8,0,0,0-7.251.747,32.783,32.783,0,0,0-4.466,1.7" transform="translate(33.158 19.666)" fill="#1a1a1a"/>
          <path id="Trazado_605333" data-name="Trazado 605333" d="M131.751,86.513l.975,7.315,4.075-.169s1.024-2.743.334-4.7-3.125-3.312-3.125-3.312a3.766,3.766,0,0,1-2.257.868" transform="translate(37.915 24.647)" fill="#ffce26"/>
          <path id="Trazado_605334" data-name="Trazado 605334" d="M198.759,36.767A36.767,36.767,0,1,1,161.993,0a36.767,36.767,0,0,1,36.766,36.767" transform="translate(36.037)" fill="#1a1a1a"/>
          <path id="Trazado_605335" data-name="Trazado 605335" d="M178.717,119.967a23.651,23.651,0,1,1-23.651-23.651,23.65,23.65,0,0,1,23.651,23.651" transform="translate(37.818 27.718)" fill="#fff"/>
          <path id="Trazado_605336" data-name="Trazado 605336" d="M129.042,118.468l23.754.026.121-23.7a23.025,23.025,0,0,0-16.733,6.882,24.778,24.778,0,0,0-7.142,16.8" transform="translate(37.135 27.274)" fill="#1a1a1a"/>
          <path id="Trazado_605337" data-name="Trazado 605337" d="M128.03,119.41s1.11-2.188,1.845-4.158,1.02-3.959,2.9-4.132c0,0-.267,4.107-.207,5.178s-.238,2.44,1.114,2.241a9.079,9.079,0,0,0,5.085-2.76c1.96-1.923,3.447-4.2,5.106-3.459a1.431,1.431,0,0,1,.749,2.167,2.68,2.68,0,0,1,1.708.98,1.306,1.306,0,0,1-.22,1.763,1.8,1.8,0,0,1,1.155,1.525c.005,1.088-1.041,2.636-3.422,4.821s-6.132,5.548-8.79,6c0,0-1.86-3.338-3.423-5.633a37.383,37.383,0,0,0-3.8-4.533Z" transform="translate(36.787 31.977)" fill="#fff"/>
          <path id="Trazado_605338" data-name="Trazado 605338" d="M139.854,127.137s-6.564,14.475-26.165,20.452l-.328-3.554s12.691-1.831,26.493-16.9" transform="translate(32.623 36.587)" fill="#1a1a1a"/>
          <path id="Trazado_605339" data-name="Trazado 605339" d="M68.169,131.872s-5.315,12.287-24.693,10.409l.2-5.49s6.541,2.313,12.142,1.686,11.01-3.879,12.346-6.605" transform="translate(12.511 37.95)" fill="#1a1a1a"/>
          <path id="Trazado_605340" data-name="Trazado 605340" d="M153.683,68.738l-2.52-1.933s-2.465,1.168-2.109,2.058,4.63-.125,4.63-.125" transform="translate(42.884 19.225)" fill="#1a1a1a"/>
          <path id="Trazado_605341" data-name="Trazado 605341" d="M160.445,63.771l.057,1.789s.944-.823.944-1.383-1-.406-1-.406" transform="translate(46.172 18.346)" fill="#1a1a1a"/>
          <path id="Trazado_605342" data-name="Trazado 605342" d="M55.058,71.6c-3.172.07-9.691.993-10.377,7.365a12.951,12.951,0,0,0,3.689,2.91c.039,0-3.137-8.253,6.687-10.275" transform="translate(12.858 20.606)" fill="#fff"/>
          <path id="Trazado_605343" data-name="Trazado 605343" d="M64.466,97.709C54.4,95.423,56.949,84.078,56.949,84.078c-.451.482-.689.685-.689.685a14.786,14.786,0,0,0-.482,5.432,7.779,7.779,0,0,0,5.539,6.772c1.365.386,3.088.724,4.756,1.281a6.931,6.931,0,0,0-1.607-.54" transform="translate(16.032 24.196)" fill="#fff"/>
          <path id="Trazado_605344" data-name="Trazado 605344" d="M130.469,68.422a13.524,13.524,0,0,0-6.32,1.046c8.891-.6,9.027,6.551,9.027,6.551l3.02-.659c-.673-3.865-2.8-6.493-5.727-6.937" transform="translate(35.727 19.667)" fill="#fff"/>
          <path id="Trazado_605345" data-name="Trazado 605345" d="M130.668,89.291c-.216-4.439-4.859-6.386-4.859-6.386s3.377,1.975,2.659,6.793a6.506,6.506,0,0,1-4.932,5.28c1.805-.135,3.316-.1,3.316-.1a5.476,5.476,0,0,0,3.816-5.585" transform="translate(35.551 23.858)" fill="#fff"/>
          <path id="Trazado_605346" data-name="Trazado 605346" d="M134.2,93.659a17.775,17.775,0,0,0,2.238,0s1.024-2.743.334-4.7a7.588,7.588,0,0,0-3.125-3.312,4.542,4.542,0,0,1-.64.426c.861.612,3.4,2.9,1.194,7.588" transform="translate(38.276 24.647)" fill="#fff"/>
          <path id="Trazado_605347" data-name="Trazado 605347" d="M94.372,94.034l-1.923,3.51L93,101.229l-3.624,8.736-.269-4.851,2.2-4.094L90.851,97.2l3.082-4.243Z" transform="translate(25.642 26.75)" fill="#fff"/>
          <path id="Trazado_605348" data-name="Trazado 605348" d="M121.251,90.969c-2.747-8.26-4.6-12.493-4.614-12.535a9.5,9.5,0,0,1,2.633-6.663,8.736,8.736,0,0,1,7.06-2.764,11.076,11.076,0,0,0-6.658,3.137,9.047,9.047,0,0,0-2.514,6.108c.194.453,1.991,4.682,4.357,12.359-.209.354-.237.358-.264.358" transform="translate(33.558 19.854)" fill="#1a1a1a"/>
          <path id="Trazado_605349" data-name="Trazado 605349" d="M129.358,90.269c-.206,0-.4,0-.589-.009a8.345,8.345,0,0,1,3.2-.65,5.666,5.666,0,0,0,2.16-.527,3.173,3.173,0,0,0,1.65-2.569,19.431,19.431,0,0,0-.455-6.356c-.331-1.821-1.283-6.183-1.292-6.226.547-.073,1.5,4.3,1.778,5.827a20.727,20.727,0,0,1,.511,6.838,3.689,3.689,0,0,1-1.942,2.977,6.409,6.409,0,0,1-2.367.585c-.743.061-1.778.111-2.655.111" transform="translate(37.057 21.275)" fill="#1a1a1a"/>
          <path id="Trazado_605350" data-name="Trazado 605350" d="M128.182,77.638c.211-.071.372,0,.564.769.214.859.013,1.051-.183,1.074s-.438-.211-.531-.834-.127-.916.149-1.008" transform="translate(36.825 22.336)" fill="#1a1a1a"/>
          <path id="Trazado_605351" data-name="Trazado 605351" d="M133,76.656c.207-.079.371-.014.589.749.243.851.049,1.048-.147,1.079s-.442-.2-.559-.816-.158-.91.117-1.012" transform="translate(38.216 22.052)" fill="#1a1a1a"/>
          <path id="Trazado_605352" data-name="Trazado 605352" d="M131.876,75.509c.99-1.02,1.634-.765,2.024-.523-.612.272-1.059.12-1.914.5a.263.263,0,0,1-.111.026" transform="translate(37.951 21.517)" fill="#1a1a1a"/>
          <path id="Trazado_605353" data-name="Trazado 605353" d="M127.153,76.817a2.339,2.339,0,0,1,2.35-1.4c-.076.54-1.381.4-2.139,1.307a.276.276,0,0,1-.211.1" transform="translate(36.592 21.699)" fill="#1a1a1a"/>
          <path id="Trazado_605354" data-name="Trazado 605354" d="M124.776,84.778a3.143,3.143,0,0,1-.319-6.27,3.185,3.185,0,0,1,1.8.355,6.126,6.126,0,0,1-1.746.193,2.592,2.592,0,1,0,1.82,4.654,1.2,1.2,0,0,1-1.235,1.051,2.991,2.991,0,0,1-.321.017" transform="translate(35.003 22.589)" fill="#1a1a1a"/>
          <path id="Trazado_605355" data-name="Trazado 605355" d="M123.962,83.046c-.2-.464,1.214-1.988,1.214-1.988l-2.044-1.043c.251-.489,2.619.719,2.619.719.075.434-1.588,2.225-1.588,2.225a.282.282,0,0,1-.2.088" transform="translate(35.435 22.993)" fill="#1a1a1a"/>
          <path id="Trazado_605356" data-name="Trazado 605356" d="M133.661,97.477c-.13-.033-6.953-3.709-6.953-3.709.261-.485,6.738,3,6.738,3l.452-3.15-.968-7.276c.546-.071,1.52,7.242,1.52,7.242,0,.076-.515,3.651-.515,3.651-.187.227-.23.237-.273.237" transform="translate(36.464 24.849)" fill="#1a1a1a"/>
          <path id="Trazado_605357" data-name="Trazado 605357" d="M117.612,96.777c-3.257-2.475-3.088-5.584-1.9-7.688,1.281-2.274,4.152-4.037,6.743-3.049a6.559,6.559,0,0,0-6.262,3.319c-1.392,2.469-.8,5.057,1.592,6.926-.008.455-.089.493-.17.493" transform="translate(33.074 24.679)" fill="#1a1a1a"/>
          <path id="Trazado_605358" data-name="Trazado 605358" d="M136.335,93.915c.474-2.3.52-3.991-.124-5.391a5.534,5.534,0,0,0-2.842-2.672c.276-.484,2.355.29,3.344,2.443a6.919,6.919,0,0,1-.122,5.442.277.277,0,0,1-.256.178" transform="translate(38.381 24.666)" fill="#1a1a1a"/>
          <path id="Trazado_605359" data-name="Trazado 605359" d="M125.553,95.242c.16-.556,4.121-.753,4.39-5.48.272-4.787-4.908-6.592-4.961-6.608.232-.5,5.805,1.438,5.51,6.636-.3,5.241-4.883,5.449-4.931,5.451Z" transform="translate(35.967 23.908)" fill="#1a1a1a"/>
          <path id="Trazado_605360" data-name="Trazado 605360" d="M133.2,82.4c.116-.771.672-1.678.654-2.187-.233-.334-.722-.018-.984.148-.282.184-.47.3-.67.249a24.617,24.617,0,0,1-1.245-3.424A7.416,7.416,0,0,1,132.42,80c.586-.373,1.238-.793,1.718-.4a.774.774,0,0,1,.267.595,3.694,3.694,0,0,1-1.012,2.127.285.285,0,0,1-.192.077" transform="translate(37.686 22.213)" fill="#1a1a1a"/>
          <path id="Trazado_605361" data-name="Trazado 605361" d="M131.341,83.512a1.836,1.836,0,0,1-.8-.176,2.588,2.588,0,0,1-1.234-1.566c.533-.134.779.747,1.471,1.069a1.76,1.76,0,0,0,1.5-.113c-.184.69-.573.787-.936.787" transform="translate(37.212 23.528)" fill="#1a1a1a"/>
          <path id="Trazado_605362" data-name="Trazado 605362" d="M30.109,107.838c-.147-.509,6.077-4.457,6.077-4.457l-1.342-2.112-9.183,5.825c-.294-.465,9.121-6.438,9.121-6.438.379.084,2.015,2.662,2.015,2.662-.085.381-6.541,4.476-6.541,4.476a.275.275,0,0,1-.148.044" transform="translate(7.383 28.966)" fill="#1a1a1a"/>
          <path id="Trazado_605363" data-name="Trazado 605363" d="M34.468,103.921c-.147-.509.878-1.159.878-1.159l-1.341-2.112-1.025.649c-.295-.464.962-1.262.962-1.262.379.086,2.014,2.664,2.014,2.664-.084.38-1.341,1.176-1.341,1.176a.286.286,0,0,1-.148.044" transform="translate(9.478 28.788)" fill="#1a1a1a"/>
          <path id="Trazado_605364" data-name="Trazado 605364" d="M21.275,110.72c-.037-.547,2.424-.889,2.424-.889l2.009-1.276c.295.465-1.764,1.771-1.764,1.771-.111.04-2.631.39-2.631.39a.365.365,0,0,1-.037,0" transform="translate(6.122 31.24)" fill="#1a1a1a"/>
          <path id="Trazado_605365" data-name="Trazado 605365" d="M20.812,110.407c-.229-.426,1.456-3.01,1.456-3.01.46.3-1.226,2.885-1.226,2.885a.274.274,0,0,1-.231.125" transform="translate(5.983 30.906)" fill="#1a1a1a"/>
          <path id="Trazado_605366" data-name="Trazado 605366" d="M30.376,110.559c-5.056,0-7.085-1.244-7.861-2.03a2.132,2.132,0,0,1-.7-1.6c.1-1.821,2.691-1.871,2.8-1.874.133.028,6.5,1.621,8.923.886-2.34,1.276-8.363-.185-8.95-.334-.274.01-2.163.131-2.227,1.351a1.6,1.6,0,0,0,.542,1.187c.627.634,2.753,2.089,8.824,1.84a1.486,1.486,0,0,1-1.355.577" transform="translate(6.277 30.231)" fill="#1a1a1a"/>
          <path id="Trazado_605367" data-name="Trazado 605367" d="M23.626,106.383c-.1-.564,2.109-2.779,3.768-3.494a8.1,8.1,0,0,1,4.134-.232c-.136.536-2.391.077-3.915.738a16.954,16.954,0,0,0-3.791,2.907.276.276,0,0,1-.2.081" transform="translate(6.798 29.493)" fill="#1a1a1a"/>
          <path id="Trazado_605368" data-name="Trazado 605368" d="M38.607,108.342c-.149-.046-6.418-4.162-6.418-4.162.3-.46,6.569,3.656,6.569,3.656.027.462-.062.506-.151.506" transform="translate(9.263 29.97)" fill="#1a1a1a"/>
          <path id="Trazado_605369" data-name="Trazado 605369" d="M34.129,113.271c-2.8-1.234-4.351-2.565-4.864-4.1a13,13,0,0,0,4.977,3.57c.091.465-.009.527-.113.527" transform="translate(8.422 31.418)" fill="#1a1a1a"/>
          <path id="Trazado_605370" data-name="Trazado 605370" d="M47.486,86.529a.923.923,0,0,1-.894-.706l-.923-3.85a.921.921,0,0,1,1.371-1,.928.928,0,0,1,.416.569l.922,3.853A.921.921,0,0,1,47.7,86.5a.941.941,0,0,1-.214.026m-.923-5.14c-.283.057-.406.256-.358.456l.923,3.848a.367.367,0,1,0,.715-.169l-.922-3.853c-.227-.264-.294-.282-.358-.282" transform="translate(13.135 23.263)" fill="#1a1a1a"/>
          <path id="Trazado_605371" data-name="Trazado 605371" d="M47.2,83.686c-.068-.541,7.209-2.411,7.209-2.411.135.531-7.141,2.4-7.141,2.4a.251.251,0,0,1-.068.01" transform="translate(13.583 23.389)" fill="#1a1a1a"/>
          <path id="Trazado_605372" data-name="Trazado 605372" d="M43.455,151.378a145.945,145.945,0,0,1,.015-15.7c.321,4.55.2,10.879.26,15.416-.273.281-.274.281-.276.281" transform="translate(12.446 39.046)" fill="#1a1a1a"/>
          <path id="Trazado_605373" data-name="Trazado 605373" d="M43.768,127.394a11.7,11.7,0,0,1-.124-2.972c.586-10.522.851-15.322,7.411-24.767.384-.286,7.8-5.32,13.526-5.836-5.316,1.033-12.491,5.781-13.1,6.19-6.441,9.287-6.705,14.042-7.285,24.443q-.07,1.279-.151,2.681a.275.275,0,0,1-.274.26" transform="translate(12.548 26.999)" fill="#1a1a1a"/>
          <path id="Trazado_605374" data-name="Trazado 605374" d="M71.754,154.962c-.282-.452-.967-18.932-1.513-31.736,1.1,12.784,1.781,31.266,1.789,31.449a3.262,3.262,0,0,1-.276.287" transform="translate(20.214 35.462)" fill="#1a1a1a"/>
          <path id="Trazado_605375" data-name="Trazado 605375" d="M58.985,146.207c-5.941,0-11.652-2.408-16.5-4.8a173.823,173.823,0,0,1-15.981-9.36c-.292-.417-.831-3.79,3.237-9.219,3.674-4.9,6.744-4.885,6.893-4.882.106.023.731.3.731.3q8.665,3.83,17.326,7.67c2.263,1,3.84.77,4.818-.71a8.566,8.566,0,0,0,1.037-3.611l.3-2.274c.56-4.214,1.138-8.574,1.75-12.855A111.46,111.46,0,0,1,61.4,119.4l-.3,2.274a8.977,8.977,0,0,1-1.123,3.84c-1.137,1.723-2.985,2.026-5.5.909q-8.66-3.842-17.324-7.666l-.57-.255c-.39.023-3.145.33-6.393,4.662-3.5,4.669-3.465,7.782-3.414,8.405a173.55,173.55,0,0,0,15.961,9.351c5.03,2.479,11.01,4.979,17.142,4.722,9.566-.407,15.95-8.477,18.035-16.3.938-3.516,1.793-7.415,1.8-7.452.528.157-.33,4.067-1.271,7.594-2.135,8.013-8.7,16.287-18.543,16.7-.3.014-.609.021-.913.021" transform="translate(7.571 30.639)" fill="#1a1a1a"/>
          <path id="Trazado_605376" data-name="Trazado 605376" d="M31.729,119.844c-.292-.348-.813-3.335,3.257-8.765,3.675-4.9,6.736-4.879,6.895-4.885.1.024,6.709,2.943,6.709,2.943-.223.5-6.771-2.391-6.771-2.391-.391.022-3.145.328-6.391,4.663-3.9,5.2-3.432,8.081-3.425,8.11-.238.325-.255.325-.273.325" transform="translate(9.075 30.56)" fill="#1a1a1a"/>
          <path id="Trazado_605377" data-name="Trazado 605377" d="M46.7,80.855A1.687,1.687,0,0,1,49.333,80a2.8,2.8,0,0,0-2.434.765.283.283,0,0,1-.2.09" transform="translate(13.438 22.932)" fill="#1a1a1a"/>
          <path id="Trazado_605378" data-name="Trazado 605378" d="M78.371,117.77c3.174-11.227.959-20.456-5.773-23.324s-6.819-5.621-6.967-10.19a40.191,40.191,0,0,0-.46-5.505c-1.29-7.832-8.126-6.812-8.412-6.761a11.078,11.078,0,0,0-2.842.1c-5.952.819-8.731,2.878-9.009,6.684-.251-4.1,2.762-6.381,8.935-7.228a11.23,11.23,0,0,1,2.865-.111,8.758,8.758,0,0,1,3.956.438c1.906.684,4.33,2.415,5.051,6.787a40.8,40.8,0,0,1,.466,5.576c.147,4.5.227,6.973,6.633,9.7,7.006,2.984,9.345,12.482,5.818,23.637a.274.274,0,0,1-.261.192" transform="translate(12.919 20.54)" fill="#1a1a1a"/>
          <path id="Trazado_605379" data-name="Trazado 605379" d="M51.574,94.56a4.678,4.678,0,0,1-2.163-.5,6.271,6.271,0,0,1-2.892-4.342c-.8-.471-2.4-1.487-2.431-2.156-.031-.689,1.476-1.8,2.273-2.341L45.093,77.9c.542-.093,1.84,7.41,1.84,7.41-1.289,1.05-2.306,1.963-2.3,2.232a6.641,6.641,0,0,0,2.269,1.769c.139.228.582,3.154,2.76,4.268,1.508.771,3.509.518,5.943-.757a5.617,5.617,0,0,1-4.035,1.744" transform="translate(12.687 22.416)" fill="#1a1a1a"/>
          <path id="Trazado_605380" data-name="Trazado 605380" d="M48.06,81.943c-.22.032-.334.166-.158.94.2.864.461.945.646.878s.3-.385.1-.985-.3-.874-.587-.833" transform="translate(13.76 23.58)" fill="#1a1a1a"/>
          <path id="Trazado_605381" data-name="Trazado 605381" d="M46.873,89.044c.263-.489.756-.61,1.089-.919a2.037,2.037,0,0,0,.528-1.436c.552.022.6,1.147-.153,1.84a2.074,2.074,0,0,1-1.464.515" transform="translate(13.489 24.947)" fill="#1a1a1a"/>
          <path id="Trazado_605382" data-name="Trazado 605382" d="M55.446,86.675a3.3,3.3,0,0,1-.984-.149A8.953,8.953,0,0,1,56.256,86a2.721,2.721,0,1,0-3.444-3.284,2.108,2.108,0,0,1,1.663-2.439,3.273,3.273,0,0,1,1.946,6.251,3.326,3.326,0,0,1-.975.147" transform="translate(15.186 23.059)" fill="#1a1a1a"/>
          <path id="Trazado_605383" data-name="Trazado 605383" d="M56.269,84.434c-.075-.01-2.452-.689-2.452-.689-.148-.428,1.366-2.518,1.366-2.518.446.322-.838,2.1-.838,2.1l2,.57c.155.462.045.541-.075.541" transform="translate(15.484 23.375)" fill="#1a1a1a"/>
          <path id="Trazado_605384" data-name="Trazado 605384" d="M49.584,101c-.263-.446.015-3.965,1.634-6.423,1.189-1.807,5.107-3.346,6.736-3.924-3.1,1.684-5.516,3.067-6.277,4.225a14.483,14.483,0,0,0-1.82,5.866.275.275,0,0,1-.274.256" transform="translate(14.244 26.088)" fill="#1a1a1a"/>
          <path id="Trazado_605385" data-name="Trazado 605385" d="M74.147,116.468c-.276-5.769-1.158-10.741-1.987-12.631a10.558,10.558,0,0,0-2.254-3.351c-1.593-1.553-3.684-2.1-5.9-2.686a18.676,18.676,0,0,1-4.57-1.639c-3.832-2.191-4.493-7.351-3.446-11.493-.462,4.076.137,8.968,3.719,11.017a18.283,18.283,0,0,0,4.436,1.583c2.188.577,4.448,1.173,6.145,2.828a11.083,11.083,0,0,1,2.373,3.519c.851,1.941,1.757,7.009,1.757,12.578a.276.276,0,0,1-.274.276" transform="translate(15.984 24.365)" fill="#1a1a1a"/>
          <path id="Trazado_605386" data-name="Trazado 605386" d="M55.379,82.725c-7.922-1.231-10.754-5.109-10.873-5.273.478-.281,3.284,3.538,10.914,4.726.21.448.091.547-.041.547" transform="translate(12.808 22.284)" fill="#1a1a1a"/>
          <path id="Trazado_605387" data-name="Trazado 605387" d="M52.956,93.286a18.394,18.394,0,0,1-.993-3.084c.533-.134,1.259,2.742,1.259,2.742-.223.339-.245.343-.267.343" transform="translate(14.954 25.957)" fill="#1a1a1a"/>
          <path id="Trazado_605388" data-name="Trazado 605388" d="M34.222,118.978a21.647,21.647,0,0,1-2.961-2.554,21.49,21.49,0,0,1-2.393-2.547c-.316-.4-.609-.822-.9-1.241a18.264,18.264,0,0,0-1.332-1.75c-.149-.165-.3-.326-.469-.478a2.57,2.57,0,0,0-.887-.586,1.3,1.3,0,0,0-1.146.182,1.553,1.553,0,0,0-.7,1.136,3.638,3.638,0,0,0,.762,2.032c.212.336.443.658.675.981.261.363.532.742.774,1.135a1.622,1.622,0,0,1-.2,2.547,1.061,1.061,0,0,1-1.321.014,3.952,3.952,0,0,0,.976-.44,1.02,1.02,0,0,0,.193-1.661c-.349-.547-.614-.917-.871-1.276-.236-.33-.474-.659-.692-1a4.092,4.092,0,0,1-.847-2.366,2.088,2.088,0,0,1,.948-1.557,1.873,1.873,0,0,1,1.629-.246,3.054,3.054,0,0,1,1.083.707q.265.247.5.511a18.535,18.535,0,0,1,1.373,1.805c.286.41.574.82.883,1.216a20.718,20.718,0,0,0,2.333,2.48c2.282,2.091,2.738,2.451,2.756,2.466-.005.455-.088.493-.169.493" transform="translate(6.583 31.428)" fill="#1a1a1a"/>
          <path id="Trazado_605389" data-name="Trazado 605389" d="M22.856,119.152c-5.1-4.032-5.352-6.206-4.157-8.431-.421,1.947-.81,3.8,4.33,7.939-.012.457-.093.492-.173.492" transform="translate(5.21 31.863)" fill="#1a1a1a"/>
          <path id="Trazado_605390" data-name="Trazado 605390" d="M29.593,127.212a7.388,7.388,0,0,0-3.243-2.7c-.582-.326-1.24-.7-1.986-1.169-3-1.893-5.47-4.516-6.45-6.842-1.454-3.455.672-5.2.7-5.221.269.492-1.475,1.951-.188,5.007.939,2.228,3.328,4.754,6.237,6.592.734.461,1.386.829,1.961,1.154,1.554.873,2.579,1.451,3.221,2.787-.167.385-.207.4-.247.4" transform="translate(5.009 32.023)" fill="#1a1a1a"/>
          <path id="Trazado_605391" data-name="Trazado 605391" d="M49.686,139.327c-.747-4.274,2.193-8.2,6.717-9.58,3.9-1.186,8.006-.125,10.228,2.64a10.6,10.6,0,0,0-10.065-2.113c-4.2,1.28-7.042,5.042-6.606,8.747-.252.3-.263.306-.273.306" transform="translate(14.265 37.2)" fill="#1a1a1a"/>
          <path id="Trazado_605392" data-name="Trazado 605392" d="M152.082,120.229h-9.8c0-.552,9.521-.552,9.521-.552v-23.4c.55,0,.55,23.677.55,23.677a.275.275,0,0,1-.274.276" transform="translate(40.947 27.706)" fill="#1a1a1a"/>
          <path id="Trazado_605393" data-name="Trazado 605393" d="M137.706,115h-6.2c0-.552,6.2-.552,6.2-.552.274.429.152.552,0,.552" transform="translate(37.845 32.935)" fill="#1a1a1a"/>
          <path id="Trazado_605394" data-name="Trazado 605394" d="M170.985,137.774a25.962,25.962,0,0,0,7.434-17.76,23.4,23.4,0,0,0-46.335-4.684,23.01,23.01,0,0,1,22.934-19.269,23.954,23.954,0,0,1,16.153,41.64.287.287,0,0,1-.185.072" transform="translate(38.011 27.644)" fill="#1a1a1a"/>
          <path id="Trazado_605395" data-name="Trazado 605395" d="M131.666,118.359a6.268,6.268,0,0,1-.373-2.626,24.123,24.123,0,0,1,.479-4.792,33.571,33.571,0,0,1,.071,4.792c0,.948.1,2.317.1,2.331-.263.292-.269.295-.276.295" transform="translate(37.783 31.926)" fill="#1a1a1a"/>
          <path id="Trazado_605396" data-name="Trazado 605396" d="M154.291,135.564a23.38,23.38,0,0,1-19.682-10.3,24.834,24.834,0,0,0,19.682,9.748,23.515,23.515,0,0,0,4.035-.345,7.373,7.373,0,0,1-4.035.9" transform="translate(38.737 36.048)" fill="#1a1a1a"/>
          <path id="Trazado_605397" data-name="Trazado 605397" d="M118.357,122.645a95.027,95.027,0,0,0,2.072-16.238c.549.091.334,8.068-1.805,16.033a.276.276,0,0,1-.267.2" transform="translate(34.06 30.621)" fill="#1a1a1a"/>
          <path id="Trazado_605398" data-name="Trazado 605398" d="M147.281,152.185c-.276-.361-.3-8.862-1.1-19.31a167.8,167.8,0,0,1,1.371,19.035Z" transform="translate(42.069 38.238)" fill="#1a1a1a"/>
          <path id="Trazado_605399" data-name="Trazado 605399" d="M113.517,147.28c8.955-1.831,19.362-10.065,26.151-17.391a33.971,33.971,0,0,0-4-7.2,53.55,53.55,0,0,0-4.6-5.411c-1.155.743-7.509,4.868-12.969,9.267a102.507,102.507,0,0,1,12.858-9.848c.358.053,2.42,2.035,5.151,5.662a34.5,34.5,0,0,1,4.14,7.49c-6.906,7.711-17.5,16.114-26.689,17.425-.013,0-.027,0-.039,0" transform="translate(32.668 33.583)" fill="#1a1a1a"/>
          <path id="Trazado_605400" data-name="Trazado 605400" d="M113.972,97.938a5.92,5.92,0,0,1,2.767-2.917c2.966-1.805,6-2.926,11.983-2.926-5.85.551-8.811,1.638-11.7,3.395a10.606,10.606,0,0,0-2.847,2.353.276.276,0,0,1-.207.1" transform="translate(32.798 26.503)" fill="#1a1a1a"/>
          <path id="Trazado_605401" data-name="Trazado 605401" d="M132.588,99.044c8.609-.552,18.786-2.749,21.528-8.922a21.144,21.144,0,0,0,1.645-7.9,38.073,38.073,0,0,0-2.214-13.742,29.422,29.422,0,0,1,2.764,13.762,21.633,21.633,0,0,1-1.692,8.107c-2.418,5.446-10.654,8.7-22.03,8.7" transform="translate(38.156 19.706)" fill="#1a1a1a"/>
          <path id="Trazado_605402" data-name="Trazado 605402" d="M159.009,108.649a8.389,8.389,0,0,1,1.194-2.543c8.837-13.851,3.427-35.621,1.558-41.963,2.943,8.046,7.621,28.6-1.095,42.26-.4.631-.887,1.378-1.435,2.133a.273.273,0,0,1-.223.115" transform="translate(45.759 18.459)" fill="#1a1a1a"/>
          <path id="Trazado_605403" data-name="Trazado 605403" d="M154.457,71.867c-.188-.072-2.332-1.7-4.6-3.125-2.25-1.413-3.49-3.675-2.883-5.262.024-.063,2.551-6.3,4.854-6.582a1.481,1.481,0,0,1,1.418.756c1.929,2.789-1.465,7.617-1.611,7.819-.415-.366,2.869-5.035,1.16-7.506a.951.951,0,0,0-.9-.522c-1.594.192-3.817,4.7-4.4,6.23-.437,1.144.348,3.145,2.663,4.6,2.287,1.44,4.449,3.076,4.471,3.095,0,.457-.084.495-.166.495" transform="translate(42.252 16.371)" fill="#1a1a1a"/>
          <path id="Trazado_605404" data-name="Trazado 605404" d="M160.559,67.56a77.129,77.129,0,0,0-.569-9.62c.551-.018,1.216,5.2.843,9.369a.278.278,0,0,1-.274.251" transform="translate(46.041 16.674)" fill="#1a1a1a"/>
          <path id="Trazado_605405" data-name="Trazado 605405" d="M133.438,129.109c3.639-1.118,11.268-8.591,11.854-10.6a1.527,1.527,0,0,0-.818-1.881c.318-.913.295-1.491-.158-1.973a1.5,1.5,0,0,0-.514-.371,1.13,1.13,0,0,0-1,.165c.268-.784.764-.852,1.2-.675a2.033,2.033,0,0,1,.71.5,1.617,1.617,0,0,1,.273,2.01,2.047,2.047,0,0,1,.833,2.375c-.626,2.138-8.405,9.828-12.342,10.439-.014,0-.028,0-.041,0" transform="translate(38.4 32.719)" fill="#1a1a1a"/>
          <path id="Trazado_605406" data-name="Trazado 605406" d="M137.352,120.136c.89-1.164,3.78-3.642,4.575-4.431.9-.832,1.646-1.517,1.647-2.176a1.165,1.165,0,0,0-.448-.849c-.852-.792-1.6-.373-2.753.735-.158.151-.388.381-.661.654a39.979,39.979,0,0,1-3.049,2.854c-1.189.9-3.024,1.933-4.217,1.879a1.105,1.105,0,0,1-1.075-1.106c.555.079.6.531,1.1.559a7.74,7.74,0,0,0,3.854-1.772,40.049,40.049,0,0,0,2.994-2.8c.276-.278.509-.51.668-.663.84-.811,2.111-2.035,3.509-.744a1.7,1.7,0,0,1,.623,1.257c0,.9-.852,1.679-1.473,2.247a51.072,51.072,0,0,1-5.152,4.314.271.271,0,0,1-.147.044" transform="translate(37.805 32.148)" fill="#1a1a1a"/>
          <path id="Trazado_605407" data-name="Trazado 605407" d="M127.985,119.753c.47-1.355,1.05-3,1.516-4.323.218-.622.407-1.156.582-1.561a7.786,7.786,0,0,0,.265-.747c.334-1.037.788-2.474,2.422-2.207-1.182.376-1.509,1.158-1.9,2.375a8.231,8.231,0,0,1-.286.8c-.167.382-.353.912-.568,1.522a16.512,16.512,0,0,1-1.813,4.028.273.273,0,0,1-.22.111" transform="translate(36.831 31.91)" fill="#1a1a1a"/>
          <path id="Trazado_605408" data-name="Trazado 605408" d="M137.467,121.615c-.173-.489,1.256-1.646,2.852-2.954a26.657,26.657,0,0,0,2.9-3.015c-.117,1-1.417,2.514-2.549,3.442-1.6,1.308-3.03,2.464-3.03,2.464a.261.261,0,0,1-.171.063" transform="translate(39.556 33.28)" fill="#1a1a1a"/>
          <path id="Trazado_605409" data-name="Trazado 605409" d="M150.418,70.444c-.818,0-1.4-.167-1.545-.587-.229-.653.489-1.428,2.2-2.373-1.8,1.626-1.7,2.135-1.679,2.188.157.44,3.154.34,8.105-1.4a32.122,32.122,0,0,0,5.387-2.4c1.61-.947,1.853-1.462,1.812-1.58-.071-.2-.077-.246-.662-.22.784-.573,1.007-.469,1.167,0,.216.614-.455,1.348-2.039,2.279a32.75,32.75,0,0,1-5.482,2.442,27.515,27.515,0,0,1-7.26,1.656" transform="translate(42.83 18.325)" fill="#1a1a1a"/>
          <path id="Trazado_605410" data-name="Trazado 605410" d="M155.393,65.831c-2.113-2.747-.73-6.7-.671-6.863.5.224-.824,4.032.9,6.426-.112.42-.167.437-.224.437" transform="translate(44.382 16.97)" fill="#1a1a1a"/>
          <path id="Trazado_605411" data-name="Trazado 605411" d="M193.2,80.633a4.5,4.5,0,1,1,4.5-4.5,4.5,4.5,0,0,1-4.5,4.5m0-8.445a3.946,3.946,0,1,0,3.947,3.946,3.95,3.95,0,0,0-3.947-3.946" transform="translate(54.304 20.615)" fill="#1a1a1a"/>
          <path id="Trazado_605412" data-name="Trazado 605412" d="M7,61.433a4.5,4.5,0,1,1,4.5-4.5,4.5,4.5,0,0,1-4.5,4.5M7,52.99a3.945,3.945,0,1,0,3.947,3.944A3.949,3.949,0,0,0,7,52.99" transform="translate(0.721 15.09)" fill="#1a1a1a"/>
          <path id="Trazado_605413" data-name="Trazado 605413" d="M236.364,148.337H16.772c0-.552,219.592-.552,219.592-.552.276.429.152.552,0,.552" transform="translate(4.827 42.529)" fill="#1a1a1a"/>
          <path id="Trazado_605414" data-name="Trazado 605414" d="M72.789,93.726a6.548,6.548,0,0,1-4.642-1.919l-3.715-3.719c.389-.388,4.1,3.329,4.1,3.329a6.024,6.024,0,0,0,8.5,0l36.48-35.588a6.032,6.032,0,0,0,0-8.5L111.091,44.9a6.013,6.013,0,0,0-8.507,0L72.978,73.617c-.385,0-11.231-10.848-11.231-10.848a6.013,6.013,0,0,0-8.507,0l-2.422,2.425a6.008,6.008,0,0,0,0,8.5l5.948,5.948c-.389.389-6.337-5.559-6.337-5.559a6.56,6.56,0,0,1,0-9.282l2.422-2.425a6.56,6.56,0,0,1,9.285,0L72.79,73.035,102.2,44.51a6.56,6.56,0,0,1,9.281,0l2.426,2.425a6.58,6.58,0,0,1,0,9.284L77.425,91.808a6.537,6.537,0,0,1-4.636,1.918" transform="translate(13.959 12.256)" fill="#1a1a1a"/>
          <path id="Trazado_605415" data-name="Trazado 605415" d="M114.461,134.667c-10.37,0-23.656-6.815-32.389-13.71a22.309,22.309,0,0,1,2.37-8.049,17.7,17.7,0,0,1,6.9-7.022c.249,0,11.164,5.479,11.164,5.479-.246.492-11.035-4.926-11.035-4.926a17.572,17.572,0,0,0-6.539,6.725,27.279,27.279,0,0,0-2.389,7.46c8.656,6.8,21.731,13.489,31.916,13.489.233,0,.461,0,.692-.009,5.916-.182,9.6-1.75,11.6-4.935-1.635,3.647-5.461,5.3-11.577,5.486-.233.006-.469.01-.7.01" transform="translate(23.616 30.472)" fill="#1a1a1a"/>
          <path id="Trazado_605416" data-name="Trazado 605416" d="M121.3,134.568c1.383-3,1.908-6.732,1.374-11.817a111.894,111.894,0,0,0-4.639-21.617c-2.69-8.329-11.3-12.39-16.27-12.512,5.143-.424,14.023,3.76,16.791,12.338a112.311,112.311,0,0,1,4.664,21.731c.55,5.213,0,9.054-1.688,11.746a.277.277,0,0,1-.233.13" transform="translate(29.287 25.495)" fill="#1a1a1a"/>
          <path id="Trazado_605417" data-name="Trazado 605417" d="M105.136,110.9a35.684,35.684,0,0,1,.077-10.1c.533.143-.327,5.528.2,9.787-.251.308-.261.31-.273.31" transform="translate(30.158 29.008)" fill="#1a1a1a"/>
          <path id="Trazado_605418" data-name="Trazado 605418" d="M94.329,74.993c-.22-.035-.367.062-.425.854-.063.882.166,1.037.364,1.026s.394-.282.381-.913-.032-.925-.321-.967" transform="translate(27.02 21.58)" fill="#1a1a1a"/>
          <path id="Trazado_605419" data-name="Trazado 605419" d="M89.331,75.084c-.222-.027-.364.071-.4.865-.04.885.193,1.032.39,1.017s.386-.294.357-.923-.055-.923-.345-.959" transform="translate(25.59 21.606)" fill="#1a1a1a"/>
          <path id="Trazado_605420" data-name="Trazado 605420" d="M99.377,87.959c-.277-.259-.731-8.179-.731-8.179.55-.033,1.006,7.886,1.006,7.886a2.412,2.412,0,0,1-.274.292" transform="translate(28.388 22.959)" fill="#1a1a1a"/>
          <path id="Trazado_605421" data-name="Trazado 605421" d="M92.491,88.778c-1.435,0-2.91-.194-3.843-1.6-.981-1.476-1-3.409-1.019-5.114,0-.372-.008-.738-.022-1.091-.044-1.158.088-8.61.091-8.926.549.086.416,7.763.46,8.9.013.358.017.729.021,1.106.018,1.709.036,3.476.927,4.814.948,1.422,2.6,1.368,4.21,1.337.2-.006.406-.012.605-.015a16.075,16.075,0,0,0,3.482-.367,5.169,5.169,0,0,1-3.476.919c-.2,0-.4.006-.6.013-.276.008-.558.014-.84.014" transform="translate(25.209 20.735)" fill="#1a1a1a"/>
          <path id="Trazado_605422" data-name="Trazado 605422" d="M100.581,81.822a3.578,3.578,0,0,1-2.167-.733,4.438,4.438,0,0,0,4.118-.529,3.047,3.047,0,0,0-1.677-5.375,3,3,0,0,0-2.225.694,3.062,3.062,0,0,0-.905,1.28,1.4,1.4,0,0,1,.552-1.7,3.6,3.6,0,1,1,2.3,6.365" transform="translate(28.092 21.474)" fill="#1a1a1a"/>
          <path id="Trazado_605423" data-name="Trazado 605423" d="M87.954,74.618c-.243-.4.408-1.786,2.368-1.288a2.463,2.463,0,0,0-2.12,1.132.278.278,0,0,1-.249.156" transform="translate(25.297 21.072)" fill="#1a1a1a"/>
          <path id="Trazado_605424" data-name="Trazado 605424" d="M95.948,74.741c-1.516-1.74-2.775-.952-2.829-.918-.282-.471,1.437-1.553,3.044.47-.1.428-.155.448-.215.448" transform="translate(26.789 21.039)" fill="#1a1a1a"/>
          <path id="Trazado_605425" data-name="Trazado 605425" d="M91,86.531c-.276-.274-.286-1.71-.286-1.71.55,0,.561,1.433.561,1.433-.274.277-.274.277-.276.277" transform="translate(26.107 24.41)" fill="#1a1a1a"/>
          <path id="Trazado_605426" data-name="Trazado 605426" d="M103.211,78.157a9.1,9.1,0,0,0,1.1-6.854,4.925,4.925,0,0,0-3.18-3.522,6.766,6.766,0,0,0-2.789-.24c-.567.057-1.668.1-1.714.1-.013-.55,1.109-.6,1.659-.652a7.371,7.371,0,0,1,3.016.265,5.453,5.453,0,0,1,3.538,3.893,7.648,7.648,0,0,1-1.308,6.779c-.171.194-.246.225-.322.225" transform="translate(27.808 19.266)" fill="#1a1a1a"/>
          <path id="Trazado_605427" data-name="Trazado 605427" d="M101.351,79.892c-.12-.03-2.709-1.289-2.709-1.289-.077-.437,2.251-2.851,2.251-2.851.4.38-1.669,2.524-1.669,2.524l2.247,1.093c.08.464-.018.523-.12.523" transform="translate(28.386 21.8)" fill="#1a1a1a"/>
          <path id="Trazado_605428" data-name="Trazado 605428" d="M95.587,69.263c-.215-.448,1.123-2.133,1.123-2.133.431.344-.908,2.028-.908,2.028a.27.27,0,0,1-.215.1" transform="translate(27.501 19.318)" fill="#1a1a1a"/>
          <path id="Trazado_605429" data-name="Trazado 605429" d="M106.929,119.91a3.575,3.575,0,0,1-2.579-1.111c-.046-.051-1.164-1.3-.977-2.272.44.621,1.008,1.482,1.386,1.9a3.008,3.008,0,0,0,2.167.928,1.982,1.982,0,0,0,1.768-.976,2.832,2.832,0,0,0,.2-1.253c-.028-2.779-1.024-6.286-3.733-7.795a5.815,5.815,0,0,0-4.876-.487c-.121-.549,2.295-1.581,5.143.006,2.914,1.624,3.986,5.338,4.015,8.271a3.315,3.315,0,0,1-.258,1.5,2.45,2.45,0,0,1-2.118,1.28c-.045,0-.093,0-.14,0" transform="translate(28.859 31.083)" fill="#1a1a1a"/>
          <path id="Trazado_605430" data-name="Trazado 605430" d="M95.347,110.054c1.006-2.529,2.691-3.519,4.888-3.392a4.653,4.653,0,0,1,3.626,1.817,7.918,7.918,0,0,0-3.653-1.268,4.794,4.794,0,0,0-4.624,2.707.278.278,0,0,1-.237.136" transform="translate(27.439 30.692)" fill="#1a1a1a"/>
          <path id="Trazado_605431" data-name="Trazado 605431" d="M78.142,135.05c-3.325,0-6.216-.5-7.667-1.917-6.528-6.4.282-19.123,2.52-23.3,2.518-4.707,11.6-20.2,22.776-21.994-10.835,2.295-19.8,17.6-22.291,22.253-5.957,11.13-6.814,18.54-2.619,22.653,4.453,4.371,24.43-.767,24.631-.819-.437.683-9.96,3.129-17.349,3.129" transform="translate(19.487 25.277)" fill="#1a1a1a"/>
          <path id="Trazado_605432" data-name="Trazado 605432" d="M100.812,77.8a20.347,20.347,0,0,1-4.2-7.322,8.962,8.962,0,0,1-8.765,2.5,9.423,9.423,0,0,0,8.649-3.209c.5.13,2,4.961,4.518,7.568-.059.439-.129.465-.2.465" transform="translate(25.279 20.078)" fill="#1a1a1a"/>
          <path id="Trazado_605433" data-name="Trazado 605433" d="M75.185,155.114c2.062-12.144,2.44-30.69,2.444-30.876.547.2.166,18.793-2.174,30.652a.278.278,0,0,1-.27.224" transform="translate(21.636 35.753)" fill="#1a1a1a"/>
          <path id="Trazado_605434" data-name="Trazado 605434" d="M114.25,154.233c-.237-5.37-1.87-26.718-1.885-26.933.564.174,2.2,21.543,2.161,26.658a.277.277,0,0,1-.276.274" transform="translate(32.336 36.634)" fill="#1a1a1a"/>
          <path id="Trazado_605435" data-name="Trazado 605435" d="M99.041,103.7c-.236-.134-5.151-8.221-5.151-8.221L89.61,101.51c-.5-.157-.585-12.2-.585-12.2.046-.156,2.238-3.446,2.238-3.446.495.081,2.78,8.561,2.78,8.561l8.032-8.762c.4,0,3.568,3.343,3.568,3.343.052.3-6.353,14.533-6.353,14.533a1.712,1.712,0,0,1-.25.162M94.251,95.01,99,102.833l6.114-13.586-2.838-3Zm-4.675-5.624.077,11.108,3.956-5.572-2.225-8.251Z" transform="translate(25.619 24.651)" fill="#1a1a1a"/>
          <path id="Trazado_605436" data-name="Trazado 605436" d="M93.084,109.378a92.253,92.253,0,0,1,3.517-11.3c.492.254-1.554,5.414-3.253,11.1a.278.278,0,0,1-.264.2" transform="translate(26.787 28.224)" fill="#1a1a1a"/>
          <path id="Trazado_605437" data-name="Trazado 605437" d="M89.026,108.4a62.6,62.6,0,0,1,.479-11.008c.533.131-.1,3.816-.2,10.736a.276.276,0,0,1-.276.272" transform="translate(25.611 28.027)" fill="#1a1a1a"/>
          <path id="Trazado_605438" data-name="Trazado 605438" d="M101.587,107.22c-.068,0-5.9-.209-10.98-.279a100.442,100.442,0,0,1,10.99-.273c.259.437.138.552-.01.552" transform="translate(26.075 30.684)" fill="#1a1a1a"/>
          <path id="Trazado_605439" data-name="Trazado 605439" d="M72.453,116.03c1-4.659,2.864-7.168,5.764-8.492.068-.021.634-.116.634-.116,5.132-.89,9.522,3.311,9.707,3.491-.428.352-4.756-3.8-9.613-2.948-3.256,1.343-5.012,3.744-6.229,7.864a.272.272,0,0,1-.263.2" transform="translate(20.85 30.878)" fill="#1a1a1a"/>
          <path id="Trazado_605440" data-name="Trazado 605440" d="M76.785,108.849c-.268-.214-.992-2.612,2.417-4.123,3.319-1.477,7.2,1.008,7.36,1.116-.339.437-4.087-1.966-7.136-.614-2.939,1.3-2.4,3.186-2.379,3.265-.207.353-.237.357-.263.357" transform="translate(22.024 30.003)" fill="#1a1a1a"/>
          <path id="Trazado_605441" data-name="Trazado 605441" d="M91.888,107.246a16.294,16.294,0,0,0-5.861-3.522,5.231,5.231,0,0,0-5.943,1.429c-.417-.362,1.97-3.436,6.127-1.95a14.2,14.2,0,0,1,5.886,3.59c-.085.431-.147.452-.21.452" transform="translate(23.033 29.584)" fill="#1a1a1a"/>
          <path id="Trazado_605442" data-name="Trazado 605442" d="M94.087,100.717l-3.158-.276a29.668,29.668,0,0,1-.607-4.311c.547-.05.883,3.785.883,3.785l2.749.238L96.342,96.8c.449.317-2.03,3.8-2.03,3.8a.278.278,0,0,1-.225.117" transform="translate(25.993 27.664)" fill="#1a1a1a"/>
          <path id="Trazado_605443" data-name="Trazado 605443" d="M93.871,106.488c-.274-.252-.837-6.993-.837-6.993.547-.046,1.111,6.694,1.111,6.694-.26.3-.268.3-.274.3" transform="translate(26.773 28.632)" fill="#1a1a1a"/>
          <path id="Trazado_605444" data-name="Trazado 605444" d="M89.106,104.066c-.246-.4,1.956-4.895,1.956-4.895.495.243-1.709,4.74-1.709,4.74a.275.275,0,0,1-.247.155" transform="translate(25.637 28.539)" fill="#1a1a1a"/>
          <path id="Trazado_605445" data-name="Trazado 605445" d="M82.465,104.905c-.24-.492.5-4.391,1.938-7.192-.913,2.979-1.66,6.926-1.668,6.967a.277.277,0,0,1-.27.225" transform="translate(23.719 28.12)" fill="#1a1a1a"/>
          <path id="Trazado_605446" data-name="Trazado 605446" d="M102.571,119.243a3.073,3.073,0,0,1-2.608-1.38,3.733,3.733,0,0,1-.391-1.879,7.118,7.118,0,0,0-.228-2.608,7.979,7.979,0,0,0-1.325-2.181,3,3,0,0,1,1.842,1.993,6.352,6.352,0,0,1,.267,2.381,3.874,3.874,0,0,0,.316,2.022,2.383,2.383,0,0,0,1.921,1.093,1.872,1.872,0,0,0,1.089-.2,2.291,2.291,0,0,0,.922-1.547,7.647,7.647,0,0,0,.175-1.274,7.783,7.783,0,0,0-1.281-5.06,5.214,5.214,0,0,0-3.978-2.122A2.826,2.826,0,0,0,96.6,110c-.48-.281.264-2.06,2.654-2.077a5.777,5.777,0,0,1,4.444,2.336,9.072,9.072,0,0,1,1.208,6.8,2.812,2.812,0,0,1-1.178,1.9,2.275,2.275,0,0,1-1.16.285" transform="translate(27.761 31.059)" fill="#1a1a1a"/>
          <path id="Trazado_605447" data-name="Trazado 605447" d="M92.721,82.227a2.988,2.988,0,0,1-.971-.18c.786-.307,1.3-.323,1.683-.558a2.041,2.041,0,0,0,.81-1.3c.537.135.349,1.247-.527,1.771a1.91,1.91,0,0,1-1,.267" transform="translate(26.404 23.077)" fill="#1a1a1a"/>
          <path id="Trazado_605448" data-name="Trazado 605448" d="M109.378,118.224a5.69,5.69,0,0,1-1.456-.251c.774-.363,1.637-.127,2.266-.493a2.07,2.07,0,0,0,.8-1.654c.149-2.455-1.615-4.641-2.681-5.727a4.4,4.4,0,0,0-4.072-.894c-.048-.561,2.633-1.357,4.465.509,1.129,1.15,3,3.477,2.838,6.145a2.5,2.5,0,0,1-1.078,2.1,2.124,2.124,0,0,1-1.086.268" transform="translate(29.997 31.237)" fill="#1a1a1a"/>
          <path id="Trazado_605449" data-name="Trazado 605449" d="M91.791,81.405a3.243,3.243,0,0,1-2.194-.61.986.986,0,0,1-.237-.864c.242-1.374,1.5-5.527,1.552-5.7.513.2-.774,4.457-1.011,5.8.522.851,1.915.842,2.376.809-.014.554-.216.569-.485.569" transform="translate(25.711 21.361)" fill="#1a1a1a"/>
          <path id="Trazado_605450" data-name="Trazado 605450" d="M88.24,77.441c-.265-.171-4.479-6.019-.5-9.67,3.724-3.423,8.5-3.459,11.9-.089a8.553,8.553,0,0,0-11.526.494c-3.61,3.316.314,8.771.354,8.825-.107.42-.165.439-.221.439" transform="translate(24.76 18.757)" fill="#1a1a1a"/>
          <path id="Trazado_605451" data-name="Trazado 605451" d="M28.377,120.8c-.193-.081-18.861-18.821-18.861-18.821a1.55,1.55,0,0,1,0-2.188,1.592,1.592,0,0,1,2.187,0l17.135,17.192c-.39.388-17.523-16.8-17.523-16.8a1.024,1.024,0,0,0-1.411,0,1,1,0,0,0,0,1.409l18.668,18.741c-.054.444-.124.47-.194.47" transform="translate(2.608 28.593)" fill="#1a1a1a"/>
          <path id="Trazado_605452" data-name="Trazado 605452" d="M8.879,55.77a8.037,8.037,0,0,1,1.838-2.877A7.289,7.289,0,0,1,9.1,55.666a.276.276,0,0,1-.216.1m4.235-4.7a7.432,7.432,0,0,1,2.169-2.612,7.424,7.424,0,0,1-1.977,2.533.275.275,0,0,1-.192.079M17.957,47a6.838,6.838,0,0,1,2.5-2.257,7.618,7.618,0,0,1-2.333,2.206.279.279,0,0,1-.162.052m5.407-3.281a6.357,6.357,0,0,1,2.783-1.83,7.729,7.729,0,0,1-2.659,1.8.28.28,0,0,1-.124.028m5.871-2.354a6.055,6.055,0,0,1,3-1.348,7.683,7.683,0,0,1-2.922,1.337.253.253,0,0,1-.081.012m19.56-.746c-.2-.037-.447-.107-.836-.194.523-.446.782-.376.878-.35.1.531.023.545-.043.545m-13.38-.605a5.732,5.732,0,0,1,3.141-.84,7.721,7.721,0,0,1-3.1.837l-.037,0m9.479-.1q-1.576-.182-3.167-.228a5.582,5.582,0,0,1,3.2-.322c.225.446.107.55-.031.55" transform="translate(2.555 11.273)" fill="#1a1a1a"/>
          <path id="Trazado_605453" data-name="Trazado 605453" d="M7.573,104.932A11.729,11.729,0,0,1,5.8,101.993a20.131,20.131,0,0,1,2,2.516c-.133.408-.184.422-.233.422m-2.858-5.66a18,18,0,0,1-1.429-3.125,7.253,7.253,0,0,1,1.682,2.74c-.18.376-.216.385-.252.385M2.537,93.324a16.105,16.105,0,0,1-1.1-3.267A7.219,7.219,0,0,1,2.8,92.968c-.21.35-.237.355-.263.355M1.043,87.169A14.211,14.211,0,0,1,.306,83.79a7.315,7.315,0,0,1,1.007,3.055c-.238.323-.255.325-.27.325M.325,80.88A7,7,0,0,1,0,78.535c0-.366,0-.735.014-1.1a1.121,1.121,0,0,1,.537,1.1c0,.683.017,1.375.048,2.057a2.622,2.622,0,0,1-.274.288m.165-6.324a10.815,10.815,0,0,1,.173-3.463,7.578,7.578,0,0,1,.1,3.213.278.278,0,0,1-.274.25m1.136-6.225a9.61,9.61,0,0,1,.684-3.389,7.674,7.674,0,0,1-.419,3.185.275.275,0,0,1-.265.2m2.134-5.955a2.116,2.116,0,0,1,.229-1.409c.17-.345.34-.686.513-1.025a1.17,1.17,0,0,1-.015,1.267c-.165.336-.325.671-.476,1.006a.276.276,0,0,1-.25.161" transform="translate(0 17.25)" fill="#1a1a1a"/>
          <path id="Trazado_605454" data-name="Trazado 605454" d="M55.008,116.039A52.964,52.964,0,0,1,34.163,74.353a52.129,52.129,0,1,1,91.556,34.1,55.188,55.188,0,0,0,12.153-34.1,51.579,51.579,0,1,0-103.159,0,52.55,52.55,0,0,0,20.464,41.192c-.006.456-.088.493-.169.493" transform="translate(9.831 6.395)" fill="#1a1a1a"/>
          <path id="Trazado_605455" data-name="Trazado 605455" d="M88.438,25.562c-.265-.367-.084-1.565.555-3.436-.1,2-.282,3.189-.285,3.2a.274.274,0,0,1-.27.237m2.01-6.007a8.187,8.187,0,0,1,1.268-3.208,8.134,8.134,0,0,1-1.02,3.048.275.275,0,0,1-.249.16m3.3-5.392a7.35,7.35,0,0,1,1.87-2.863,8.117,8.117,0,0,1-1.652,2.756.272.272,0,0,1-.218.107m4.382-4.554a6.67,6.67,0,0,1,2.376-2.4,8.149,8.149,0,0,1-2.2,2.339.279.279,0,0,1-.176.064M142.1,8.756c-.923-.737-1.753-1.386-2.649-2a5.276,5.276,0,0,1,2.833,1.522c-.033.451-.109.48-.184.48M103.374,6.08a6.22,6.22,0,0,1,2.749-1.888A7.961,7.961,0,0,1,103.5,6.047a.279.279,0,0,1-.13.033M136.9,5.161c-1.041-.516-2-.961-2.975-1.351a5.342,5.342,0,0,1,3.1.834c.063.464-.031.516-.129.516M109.2,3.623a5.281,5.281,0,0,1,2.734-1.333,6.4,6.4,0,0,1-2.649,1.319.256.256,0,0,1-.085.014m21.836-.815c-1.075-.292-2.106-.528-3.132-.711a5.406,5.406,0,0,1,3.205.173c.157.46.046.538-.073.538m-15.686-.667a5.92,5.92,0,0,1,3.116-.954,7.47,7.47,0,0,1-3.071.95.266.266,0,0,1-.045,0m9.464-.444q-1.435-.118-2.882-.117a4.759,4.759,0,0,1,2.905-.431c.24.439.118.549-.023.549" transform="translate(25.417 0.317)" fill="#1a1a1a"/>
          <path id="Trazado_605456" data-name="Trazado 605456" d="M160.7,76.076c19.83-.944,35.969-17.411,35.969-37.258a36.714,36.714,0,1,0-40.79,36.49,36.286,36.286,0,0,1-33.187-36.49,37.263,37.263,0,1,1,38.014,37.258Z" transform="translate(35.308 0.447)" fill="#1a1a1a"/>
          <path id="Trazado_605457" data-name="Trazado 605457" d="M173.309,118.872a9.06,9.06,0,0,1,2.635-2.044,5.675,5.675,0,0,1-2.512,2.015.279.279,0,0,1-.122.028m5.424-3.276a9.824,9.824,0,0,1,2.336-2.42,5.644,5.644,0,0,1-2.176,2.367.264.264,0,0,1-.16.053m4.873-4.041a10.671,10.671,0,0,1,2-2.733,5.664,5.664,0,0,1-1.809,2.655.288.288,0,0,1-.191.077m4.237-4.7a11.916,11.916,0,0,1,1.619-3,5.627,5.627,0,0,1-1.4,2.891.275.275,0,0,1-.216.107m3.5-5.264a13.17,13.17,0,0,1,1.209-3.2,5.692,5.692,0,0,1-.97,3.062.276.276,0,0,1-.24.139m2.716-5.714a14.77,14.77,0,0,1,.793-3.342,5.724,5.724,0,0,1-.537,3.165.277.277,0,0,1-.256.176m1.915-6.028a16.171,16.171,0,0,1,.4-3.418,5.8,5.8,0,0,1-.129,3.209.276.276,0,0,1-.268.209m1.153-6.216a17.775,17.775,0,0,1,.037-3.442,5.873,5.873,0,0,1,.236,3.2.277.277,0,0,1-.273.241" transform="translate(49.874 23.076)" fill="#1a1a1a"/>
          <path id="Trazado_605458" data-name="Trazado 605458" d="M195,75.408a24.4,24.4,0,0,1-.762-3.352,5.875,5.875,0,0,1,1.035,3.04c-.247.309-.261.312-.273.312m-1.132-6.226a28.7,28.7,0,0,1-1.066-3.259,5.821,5.821,0,0,1,1.333,2.921c-.225.334-.247.339-.267.339M192.108,63.1c-.605-1.168-.983-2.161-1.383-3.128a5.837,5.837,0,0,1,1.643,2.762c-.2.359-.231.366-.26.366m-2.43-5.844c-.71-1.1-1.2-2.041-1.714-2.941a5.719,5.719,0,0,1,1.961,2.543c-.166.388-.2.4-.247.4m-3.133-5.5c-.81-1-1.426-1.865-2.057-2.685a5.651,5.651,0,0,1,2.287,2.256c-.125.413-.178.429-.231.429m-3.876-5a33.147,33.147,0,0,0-2.448-2.266c.377-.4,1.279.312,2.65,1.8-.07.437-.136.462-.2.462" transform="translate(51.863 12.771)" fill="#1a1a1a"/>
          <path id="Trazado_605459" data-name="Trazado 605459" d="M125.364,82.022c-.277-.3-.522-4.141-2.16-6.766.46-.327,2.08.778,2.681,2.188L136.168,75.2c-.111-.889-.672-4.069-3.163-5.64-2.045-1.289-4.9-1.216-8.481.22,3.552-2.021,6.574-2.076,8.779-.681,3.133,1.977,3.428,6.125,3.44,6.3-.216.287-10.972,2.635-10.972,2.635a11.155,11.155,0,0,0-1.444-1.816,17.96,17.96,0,0,1,1.312,5.513,2.237,2.237,0,0,1-.276.292" transform="translate(35.455 19.61)" fill="#1a1a1a"/>
          <path id="Trazado_605460" data-name="Trazado 605460" d="M189.438,34.982a28.783,28.783,0,1,0-28.783,28.783,28.783,28.783,0,0,0,28.783-28.783" transform="translate(37.95 1.784)" fill="#ffce26"/>
          <path id="Trazado_605461" data-name="Trazado 605461" d="M179.641,33.192a20.774,20.774,0,1,0-20.774,20.774,20.774,20.774,0,0,0,20.774-20.774" transform="translate(39.74 3.574)" fill="#1a1a1a"/>
          <path id="Trazado_605462" data-name="Trazado 605462" d="M169.605,31.36a12.573,12.573,0,1,0-12.573,12.573A12.572,12.572,0,0,0,169.605,31.36" transform="translate(41.572 5.406)" fill="#ffce26"/>
          <path id="Trazado_605463" data-name="Trazado 605463" d="M162.455,30.053a6.728,6.728,0,1,0-6.727,6.727,6.728,6.728,0,0,0,6.727-6.727" transform="translate(42.878 6.713)" fill="#1a1a1a"/>
        </g>
      </g>
      <path id="Trazado_605546" data-name="Trazado 605546" d="M526.338,575.009l47.309-26.321" fill="none" stroke="#33ece0" stroke-width="3"/>
    </g>
    <path id="Trazado_605547" data-name="Trazado 605547" d="M4201.262-11143.365l2.271-6.968,12.3-6.746,2.1,4.479Z" transform="translate(-3645 11700)" fill="#752121"/>
    <path id="Trazado_605548" data-name="Trazado 605548" d="M4218.842-11143.931l-3.181-6.4-12.3-6.746-2.339,4.8Z" transform="matrix(-0.588, 0.809, -0.809, -0.588, -5978.784, -9403.793)" fill="#752121"/>
  </g>
</svg>
