<svg xmlns="http://www.w3.org/2000/svg" xmlns:xlink="http://www.w3.org/1999/xlink" width="252" height="165" viewBox="0 0 252 165">
  <defs>
    <clipPath id="clip-path">
      <rect id="Rectángulo_345423" data-name="Rectángulo 345423" width="190" height="156.617" fill="none"/>
    </clipPath>
  </defs>
  <g id="Grupo_1014782" data-name="Grupo 1014782" transform="translate(-328 -2318)">
    <rect id="Rectángulo_345425" data-name="Rectángulo 345425" width="252" height="46" rx="23" transform="translate(328 2437)" fill="#e3ecf7"/>
    <g id="Grupo_1014781" data-name="Grupo 1014781" transform="translate(359 2318)">
      <g id="Grupo_1014780" data-name="Grupo 1014780" clip-path="url(#clip-path)">
        <path id="Trazado_601768" data-name="Trazado 601768" d="M179.984,129.452s-4.087-4.322.693-8.036c0,0,3.089-1.645,2.257-6.17s.669-8.089,4.918-8.424,12.351,2.484,12.162,5.391a3.059,3.059,0,0,1-.054,2.049c-.919,2.783-2.185,6.132-1.162,7.2a9.778,9.778,0,0,0,3,2.153c3.453,1.573,5.461,3.489,5.461,7.327,0,5.886-10.376,2.832-10.376,2.832Z" transform="translate(-32.679 -19.567)" fill="#fff"/>
        <path id="Trazado_601769" data-name="Trazado 601769" d="M90.461,66.363A22.955,22.955,0,1,1,67.506,43.409,22.955,22.955,0,0,1,90.461,66.363" transform="translate(-8.163 -7.953)" fill="#33ece0"/>
        <path id="Trazado_601770" data-name="Trazado 601770" d="M157.9,160.762H86.317a2.459,2.459,0,0,1-2.452-2.452V69.772a2.459,2.459,0,0,1,2.452-2.452H157.9a2.458,2.458,0,0,1,2.452,2.452V158.31a2.458,2.458,0,0,1-2.452,2.452" transform="translate(-15.366 -12.334)" fill="#fff"/>
        <path id="Trazado_601771" data-name="Trazado 601771" d="M20.625,147.5a12.566,12.566,0,0,0-4.961,3.771c-1.818,2.53-5.941,8.532-7.224,12.818s-2.61,6.37-2.709,10.109,0,6.949,1.21,8.778l38.047.111,1.983-24.855s-2.507-5.713-5.171-8.292-6.068-4.244-8.6-4.145Z" transform="translate(-1.045 -26.713)" fill="#fff198"/>
        <path id="Trazado_601772" data-name="Trazado 601772" d="M56.125,184.525H87.958a4.852,4.852,0,0,0,4.619-3.192l7.55-21.8a4.693,4.693,0,0,0-4.619-6.121H63.674a4.853,4.853,0,0,0-4.619,3.191l-7.549,21.8a4.692,4.692,0,0,0,4.619,6.121" transform="translate(-9.391 -28.108)" fill="#1a1a1a"/>
        <path id="Trazado_601773" data-name="Trazado 601773" d="M140.1,23.113s-2.329-2.574-1.973-4.334a4.36,4.36,0,0,1,3.216-3.346,6.341,6.341,0,0,1,2.864.618s1.113-1.212,3.9-.477,4.367,4.105,4.367,4.105,2.976.417,2.961,3.3a9.773,9.773,0,0,1-4.048,7.318c-2.227,1.705-1.95,1.772-2.569,1.682s-1.614-.35-1.149-2.84l-1.328-3.876s-2.094-.2-.751-2.84c0,0-1.931-2.3-4.5-2.229Z" transform="translate(-25.301 -2.81)" fill="#ffce26"/>
        <path id="Trazado_601774" data-name="Trazado 601774" d="M170.317,167.052v9.69h32.627l-.1-6.979a9.575,9.575,0,0,0,5.443-6.2,18.988,18.988,0,0,0-.57-10.8c-.6-2.071-2.91-8.432-4.243-11.328s-2.938-6.936-3.841-8.462a11.56,11.56,0,0,0-5.781-5.231,23.122,23.122,0,0,0-6.584-1.068l-6.144-.124a19.812,19.812,0,0,0-4.857,1.172c-2.868,1.037-4.6,1.56-7.573,1.047a9.656,9.656,0,0,1-6.369-4.927,30.317,30.317,0,0,1-2.592-7.9c-.269-1.712-.374-3.9-.374-3.9s-.726-1.092-5.591-.872-6.13.919-6.2,1.108a53.117,53.117,0,0,0,1.623,9.5c1.174,4.352,3.643,9.8,6.552,13.129s7.791,7.462,13.431,8.23Z" transform="translate(-27.038 -20.364)" fill="#a3bfe4"/>
        <path id="Trazado_601775" data-name="Trazado 601775" d="M195.474,149.464l-20.24.155a4.981,4.981,0,0,0-4.165,4.577c-.366,4.071.137,15.456.137,15.456s.463,4.1,4.032,4.553L194.8,174a57.728,57.728,0,0,1-6.308-4.579,48.063,48.063,0,0,1-4.6-4.4s2.441-6.125,6.292-9.059l9.681,6.968a126.09,126.09,0,0,1-4.384-13.461" transform="translate(-31.319 -27.385)" fill="#1a1a1a"/>
        <path id="Trazado_601776" data-name="Trazado 601776" d="M143.857,149.7v9.885h-9.885a9.885,9.885,0,1,0,9.885-9.885" transform="translate(-24.547 -27.427)" fill="#1a1a1a"/>
        <path id="Trazado_601777" data-name="Trazado 601777" d="M130.463,155.118h9.769V145.35a9.539,9.539,0,0,0-7.09,3.048,9.1,9.1,0,0,0-2.68,6.72" transform="translate(-23.901 -26.63)" fill="#752121"/>
        <path id="Trazado_601778" data-name="Trazado 601778" d="M41.5,128.165a4.7,4.7,0,0,1,1.072,2.059,4.993,4.993,0,0,1-1.089,4.09s.144,4.461-3.119,4.4l-.232,3.54s.36,4.014-.868,4.141-3.066-2.441-3.066-2.441a6.892,6.892,0,0,0,1.364-3.536,7.431,7.431,0,0,0-1.47-4.959c-1.449-2.1-1.591-3.569-1.245-4.4a19.669,19.669,0,0,0,1.179-3.346,18.061,18.061,0,0,0-.363-2.516,2.653,2.653,0,0,1,.8,1.387,8.96,8.96,0,0,1,.018,1.6l1.741-.074Z" transform="translate(-5.988 -22.941)" fill="#fff"/>
        <path id="Trazado_601779" data-name="Trazado 601779" d="M32.064,184.419s4.3-2.1,5.236-2.143,1.453-.056,1.453-.056a3.579,3.579,0,0,1,3.581-.363,3.07,3.07,0,0,1,2.04-.713,2.513,2.513,0,0,1,1.6,1.322,9.964,9.964,0,0,0-.414,2.512c.092.725.65,3.149,2.507,4.02,0,0-.745.954-2.512-.172a4.544,4.544,0,0,1-3.356.57,3.618,3.618,0,0,1-1.822.1,3.513,3.513,0,0,1-1.527-1.089,15.973,15.973,0,0,1-.859-1.656s-.118,2.853-3.554,2.731a4,4,0,0,1-1.981-2.115,4.636,4.636,0,0,1-.4-2.951" transform="translate(-5.859 -33.187)" fill="#fff"/>
        <path id="Trazado_601780" data-name="Trazado 601780" d="M190.659,156.9s-.8-1.558-1.473-3.027-1.056-2.733-2-2.568-.681,1.737-.51,2.28.9,2.524.137,2.744-1.825-.205-2.944-1.2-3.05-2.863-3.05-2.863-1.085-.717-1.765-.124a1.119,1.119,0,0,0-.105,1.442s-.911-.042-1.159.36a1.326,1.326,0,0,0-.049,1.344,1.71,1.71,0,0,0-.44,2.213c.742,1.321,3.63,3.8,4.456,4.421a13.95,13.95,0,0,0,3.826,2.126,30.111,30.111,0,0,1,2.253-3.907,27.23,27.23,0,0,1,2.828-3.243" transform="translate(-32.44 -27.72)" fill="#fff"/>
        <path id="Trazado_601781" data-name="Trazado 601781" d="M157.064,111.3a27.306,27.306,0,0,0-.194-5.706c-.435-1.625-.914-2.723-2.29-3.1s-2.68-.67-2.68-.67h-1.51l.934,1.68-1.4.731-.939-1.661s-1.9.495-2.168,1.926a10.557,10.557,0,0,0,.6,5.63c.785,1.577,1.5,2.56,3.212,2.462a8.912,8.912,0,0,0,3.624-.738c1.027-.477,1.155-.844,1.155-.844l.291.522Z" transform="translate(-26.874 -18.657)" fill="#fff"/>
        <path id="Trazado_601782" data-name="Trazado 601782" d="M186.63,111.651l-1.117,5.405a16.291,16.291,0,0,0-.313,4.087c.229,1.284.372,3.044,3.086,3.069l-.277,2.427s-1.9,5.116.434,5.189,3.383-1.616,4.189-2.693a23.88,23.88,0,0,0,1.522-2.372l.134-5.793s2.606.624,2.694-1.768-2.69-2.029-2.69-2.029a46.511,46.511,0,0,1-4.556-2.838c-1.43-1.119-3.1-2.686-3.1-2.686" transform="translate(-33.922 -20.457)" fill="#fff"/>
        <path id="Trazado_601783" data-name="Trazado 601783" d="M81.987,171.241c-.97,1.679-.86,3.558.246,4.2s2.786-.207,3.756-1.887.859-3.558-.245-4.2-2.788.207-3.757,1.886" transform="translate(-14.901 -30.99)" fill="#ffce26"/>
        <path id="Trazado_601784" data-name="Trazado 601784" d="M51.724,63.784l2.28-.63c.412-.114.826-.225,1.238-.342a35.728,35.728,0,0,0,5.209,5.055,2.089,2.089,0,0,0,1.912.4,6.542,6.542,0,0,0,1.953-.892A24.827,24.827,0,0,0,68.381,64a74.886,74.886,0,0,0,6.381-7.239.32.32,0,0,1,.4-.136c1.234.353,2.472.691,3.71,1.035a69.408,69.408,0,0,1-7.955,11.924,29.122,29.122,0,0,1-5.1,5.027,15.776,15.776,0,0,1-1.982,1.211,4.921,4.921,0,0,1-4.529.064,9.567,9.567,0,0,1-3.65-3.043,20.664,20.664,0,0,1-3.089-6.169c-.31-.942-.555-1.9-.84-2.892" transform="translate(-9.477 -10.371)" fill="#fff"/>
        <path id="Trazado_601785" data-name="Trazado 601785" d="M23.224,143.016s4.9,2.268,7.447.777a5.229,5.229,0,0,0,2.576-5.4c-.107-1.687-1.566-3.909-2.205-4.79a4.047,4.047,0,0,1-.545-3.247c.223-1.352,1.106-2.26,1.178-3.346a9.021,9.021,0,0,0-.613-2.871,3.1,3.1,0,0,1,1.065,1.93c.02,1.044,0,1.407,0,1.407l1,.095a1.209,1.209,0,0,1,.581-.376c.268-.025.927.5.927.5l3.18-.126s.617-.394.979-.256a5.345,5.345,0,0,1,.581.256l.445.008a12.852,12.852,0,0,0-.31-3.613c-.421-1.148-.841-2.023-3.066-2.373s-4.463-.61-6.533.662c0,0-5.419-.39-5.786,4.377,0,0,1.076,6.087,1.344,7.8s.664,3.335-1.027,3.912-3.738.792-4.265,2.718-.3,2.752.49,3.4Z" transform="translate(-3.643 -22.226)" fill="#1a1a1a"/>
        <path id="Trazado_601786" data-name="Trazado 601786" d="M39.583,141.675l-.216,3.309,2.013.382a1.957,1.957,0,0,0,.711-1.845,5.083,5.083,0,0,0-.809-2.173s-1.345.575-1.7.327" transform="translate(-7.213 -25.898)" fill="#1a1a1a"/>
        <path id="Trazado_601787" data-name="Trazado 601787" d="M115.934,41.372s3.189,10.357,3.4,11,1.015,5.128,3.558,4.925,3.316-2.9,3.653-3.729,2.266-5.753,3.732-7.788a8.444,8.444,0,0,1,6.1-3.578c2.377-.167,9.72-.354,11.648.949s5.41,5.6,8.045,11.018,3.295,5.93,3.5,8.13l-5.885.152-17.5-.092a25.092,25.092,0,0,1-4.547,5.183s-1.889,1.166-2.94,1.679a16.943,16.943,0,0,1-7.066,1.491c-3.007-.1-7.257-.966-9.956-4.572a24.473,24.473,0,0,1-4.3-8.116c-.639-2.1-1.792-6.517-2.283-9.33s-.97-5.512-.97-5.512.858-1.649,5.5-2.34,6.294.525,6.294.525" transform="translate(-19.08 -7.445)" fill="#1a1a1a"/>
        <path id="Trazado_601788" data-name="Trazado 601788" d="M155.841,113.958l.874,1.648s.752.275,1.063,0,.2-.863.2-.863l-.9-1.668s-.721.812-1.241.882" transform="translate(-28.553 -20.718)" fill="#fff"/>
        <path id="Trazado_601789" data-name="Trazado 601789" d="M141.957,36.583v-1.6s-2.747-.322-3.308-1.353a3.225,3.225,0,0,1-.364-2.493,15.99,15.99,0,0,0,.391-1.973s-1.6-1.13-1.424-1.754,2.437-2.121,2.437-2.121l.947-4.076s3.688.506,4.63,2.419c0,0-.934,2.538.786,2.69a2.146,2.146,0,0,1,2.18-.778,2.329,2.329,0,0,1,1.973,2.41c.11,1.355-1.2,2.363-2.824,2.244,0,0-.386,2.621.531,2.749a2.082,2.082,0,0,0,1.5-.329l.3,3.278Z" transform="translate(-25.145 -3.887)" fill="#fff"/>
        <path id="Trazado_601790" data-name="Trazado 601790" d="M112.779,40.453a22.637,22.637,0,0,1-.249-4.638c.126-2.586-.158-2.994.112-4.144s1.338-2.728.336-2.976a2.419,2.419,0,0,0-2.832.878c-.525,1.016-.974,3.4-1.3,3.721a1.664,1.664,0,0,1-1.455.457,1.828,1.828,0,0,1-1.04-1.171,12.233,12.233,0,0,0-1.965-3.618c-.961-.961-2.2-1.937-3.21-1.621a1.357,1.357,0,0,0-1.04,1.159,1.438,1.438,0,0,0-1.477,1.484,5.282,5.282,0,0,0,.888,1.62,13.848,13.848,0,0,1,1.692,2.762c.41.963,1.1,2.984,2.319,3.93s2.19,1.5,2.334,3.093a13.9,13.9,0,0,0,3.2-.091,12.635,12.635,0,0,0,3.689-.845" transform="translate(-18.076 -4.998)" fill="#fff"/>
        <path id="Trazado_601791" data-name="Trazado 601791" d="M115.662,40.769l.368,2.156s2.31-.843,2.205-1.429-2.574-.727-2.574-.727" transform="translate(-21.192 -7.47)" fill="#3a3a3a"/>
        <path id="Trazado_601792" data-name="Trazado 601792" d="M105.87,42.089a4.152,4.152,0,0,1,.986,2.013s-2.5.008-2.664-.543,1.678-1.47,1.678-1.47" transform="translate(-19.088 -7.712)" fill="#3a3a3a"/>
        <path id="Trazado_601793" data-name="Trazado 601793" d="M139.978,42.328l1.465-2.448s8.762-.982,10.318-.791l1.96,2.893s-6.768-.594-8.749-.429-5,.775-5,.775" transform="translate(-25.647 -7.157)" fill="#fff"/>
        <path id="Trazado_601794" data-name="Trazado 601794" d="M145.007,37.785l-2,1.687V38.017Z" transform="translate(-26.202 -6.923)" fill="#ccc"/>
        <path id="Trazado_601795" data-name="Trazado 601795" d="M31.913,183.989l4.287-1.953s2.017-.542,2.54-.246a4.493,4.493,0,0,1,3.3-.536,5.037,5.037,0,0,0-1.566-1.46,6.515,6.515,0,0,0-4.18-.916,5.768,5.768,0,0,0-4.379,5.111" transform="translate(-5.847 -32.757)" fill="#1a1a1a"/>
        <path id="Trazado_601796" data-name="Trazado 601796" d="M36.646,190.871h4.326a5.59,5.59,0,0,1-2.053-2.611s-1.3,2.306-2.273,2.611" transform="translate(-6.714 -34.493)" fill="#1a1a1a"/>
        <path id="Trazado_601797" data-name="Trazado 601797" d="M96.006,153.022l-2.274-1.335H61.789a5.094,5.094,0,0,0-5.37,3.336l-7.453,22.492s-2.115,6.2,5.073,6.694c.049-.212-3.006-1.589-3.214-4.053s2.309-8.187,2.309-8.187l5.746-16.479s2.029-2.41,3.912-2.4Z" transform="translate(-8.918 -27.786)" fill="#fff"/>
        <path id="Trazado_601798" data-name="Trazado 601798" d="M113.393,15.363a8.57,8.57,0,1,1-8.57-8.57,8.571,8.571,0,0,1,8.57,8.57" transform="translate(-17.635 -1.245)" fill="#ffce26"/>
        <path id="Trazado_601799" data-name="Trazado 601799" d="M106.745,29.243v1.063a13.088,13.088,0,0,1,.765,1.906c.249.88.488,1.853,1.863,1.816s1.3-3.151,2.108-3.981l0-.938a4.51,4.51,0,0,1-2.177.366,17.121,17.121,0,0,1-2.555-.232" transform="translate(-19.558 -5.333)" fill="#1a1a1a"/>
        <rect id="Rectángulo_345421" data-name="Rectángulo 345421" width="4.589" height="5.819" transform="translate(91.333 74.377)" fill="#ffce26"/>
        <rect id="Rectángulo_345422" data-name="Rectángulo 345422" width="4.558" height="8.858" transform="translate(83.656 71.264)" fill="#1a1a1a"/>
        <path id="Trazado_601800" data-name="Trazado 601800" d="M40.765,127.569s.617-.394.979-.256a5.44,5.44,0,0,1,.581.256l.445.007a12.826,12.826,0,0,0-.311-3.613c-.421-1.148-.84-2.023-3.065-2.373a16.434,16.434,0,0,0-3.386-.273c1.7.227,3.591.828,4.116,2.35a9.58,9.58,0,0,1,.545,3.9Z" transform="translate(-6.597 -22.226)" fill="#fff"/>
        <path id="Trazado_601801" data-name="Trazado 601801" d="M35.058,140.265c-.107-1.687-1.566-3.909-2.205-4.79a4.05,4.05,0,0,1-.546-3.247,4.24,4.24,0,0,1,.183-.691,6.077,6.077,0,0,0-.341,4.348c.6,2.443,3.207,8.149-2.382,10.273a4.78,4.78,0,0,0,2.714-.49,5.229,5.229,0,0,0,2.576-5.4" transform="translate(-5.454 -24.1)" fill="#fff"/>
        <path id="Trazado_601802" data-name="Trazado 601802" d="M41.528,141.349a7.238,7.238,0,0,1-.818.284,5.448,5.448,0,0,1,.1,3.577l.819.155a1.955,1.955,0,0,0,.711-1.845,5.076,5.076,0,0,0-.809-2.172" transform="translate(-7.459 -25.898)" fill="#fff"/>
        <path id="Trazado_601803" data-name="Trazado 601803" d="M141.081,17.622a2.669,2.669,0,0,1,1.839-2.013,3.659,3.659,0,0,0-4.793,3.187c-.356,1.76,1.973,4.334,1.973,4.334l.994-2.916a6.2,6.2,0,0,1,4.286,2c-.5-1.933-4.56-2.669-4.3-4.59" transform="translate(-25.301 -2.827)" fill="#fff"/>
        <path id="Trazado_601804" data-name="Trazado 601804" d="M149.482,15.574c-2.788-.735-3.9.477-3.9.477l.956.649s1.353-1.675,4.782-.19a5.191,5.191,0,0,0-1.837-.936" transform="translate(-26.673 -2.81)" fill="#fff"/>
        <path id="Trazado_601805" data-name="Trazado 601805" d="M117.55,74.291a6.645,6.645,0,0,1,6.692-4.427,7.149,7.149,0,0,1,6.609,4.567,13.441,13.441,0,0,1-6.876,1.534,13.237,13.237,0,0,1-6.425-1.674" transform="translate(-21.538 -12.798)" fill="#ffce26"/>
        <path id="Trazado_601806" data-name="Trazado 601806" d="M97.567,95.061H92.979c-.194-.194-.194-14.444-.194-14.444a41.309,41.309,0,0,1,4.782-.193,40.767,40.767,0,0,1,.194,4.771c-.388,0-.388-4.384-.388-4.384h-4.2V94.674h4.2v-4.2c.388,0,.388,4.39.388,4.39a.194.194,0,0,1-.194.194" transform="translate(-17 -14.735)" fill="#1a1a1a"/>
        <path id="Trazado_601807" data-name="Trazado 601807" d="M106.967,96.268h-4.589c-.194-.194-.194-9.061-.194-9.061a41.311,41.311,0,0,1,4.782-.193c.194.193.194,9.061.194,9.061a.194.194,0,0,1-.194.194m-4.4-.386h4.2V87.4h-4.2Z" transform="translate(-18.722 -15.943)" fill="#1a1a1a"/>
        <path id="Trazado_601808" data-name="Trazado 601808" d="M116.365,96.991h-4.589a25.034,25.034,0,0,1-.194-3.7c.388,0,.388,3.319.388,3.319h4.2v-5.26h-2.908c0-.386,3.1-.386,3.1-.386.194.193.194,5.839.194,5.839a.193.193,0,0,1-.194.194" transform="translate(-20.444 -16.665)" fill="#1a1a1a"/>
        <path id="Trazado_601809" data-name="Trazado 601809" d="M154.711,85h-23.59c0-.386,23.59-.386,23.59-.386.193.3.108.386,0,.386" transform="translate(-24.024 -15.503)" fill="#1a1a1a"/>
        <path id="Trazado_601810" data-name="Trazado 601810" d="M157.821,96.346H148.1c0-.386,9.726-.386,9.726-.386.193.3.108.386,0,.386" transform="translate(-27.134 -17.582)" fill="#1a1a1a"/>
        <path id="Trazado_601811" data-name="Trazado 601811" d="M143.1,96.346H131.12c0-.386,11.984-.386,11.984-.386.194.3.107.386,0,.386" transform="translate(-24.024 -17.582)" fill="#1a1a1a"/>
        <path id="Trazado_601812" data-name="Trazado 601812" d="M158.288,100.657h-7.645c0-.386,7.645-.386,7.645-.386.193.3.108.386,0,.386" transform="translate(-27.601 -18.372)" fill="#1a1a1a"/>
        <path id="Trazado_601813" data-name="Trazado 601813" d="M144.985,100.657H131.121c0-.386,13.864-.386,13.864-.386.193.3.106.386,0,.386" transform="translate(-24.024 -18.372)" fill="#1a1a1a"/>
        <path id="Trazado_601814" data-name="Trazado 601814" d="M157.128,89.311H144.311c0-.386,12.817-.386,12.817-.386.193.3.108.386,0,.386" transform="translate(-26.441 -16.293)" fill="#1a1a1a"/>
        <path id="Trazado_601815" data-name="Trazado 601815" d="M139.841,89.311H131.12c0-.386,8.721-.386,8.721-.386.193.3.108.386,0,.386" transform="translate(-24.024 -16.293)" fill="#1a1a1a"/>
        <path id="Trazado_601816" data-name="Trazado 601816" d="M114.338,119.029H90.749c0-.386,23.589-.386,23.589-.386.194.3.108.386,0,.386" transform="translate(-16.627 -21.738)" fill="#1a1a1a"/>
        <path id="Trazado_601817" data-name="Trazado 601817" d="M114.338,130.374H90.749c0-.386,23.589-.386,23.589-.386.194.3.108.386,0,.386" transform="translate(-16.627 -23.817)" fill="#1a1a1a"/>
        <path id="Trazado_601818" data-name="Trazado 601818" d="M114.338,134.683H90.749c0-.386,23.589-.386,23.589-.386.194.3.108.386,0,.386" transform="translate(-16.627 -24.606)" fill="#1a1a1a"/>
        <path id="Trazado_601819" data-name="Trazado 601819" d="M114.338,123.34H90.749c0-.386,23.589-.386,23.589-.386.194.3.108.386,0,.386" transform="translate(-16.627 -22.528)" fill="#1a1a1a"/>
        <path id="Trazado_601820" data-name="Trazado 601820" d="M144.985,119.029H131.121c0-.386,13.864-.386,13.864-.386.193.3.106.386,0,.386" transform="translate(-24.024 -21.738)" fill="#1a1a1a"/>
        <path id="Trazado_601821" data-name="Trazado 601821" d="M147.773,130.374H131.121c0-.386,16.652-.386,16.652-.386.193.3.107.386,0,.386" transform="translate(-24.024 -23.817)" fill="#1a1a1a"/>
        <path id="Trazado_601822" data-name="Trazado 601822" d="M149.456,134.683H131.121c0-.386,18.335-.386,18.335-.386.194.3.107.386,0,.386" transform="translate(-24.024 -24.606)" fill="#1a1a1a"/>
        <path id="Trazado_601823" data-name="Trazado 601823" d="M146.008,123.34H131.12c0-.386,14.888-.386,14.888-.386.194.3.107.386,0,.386" transform="translate(-24.024 -22.528)" fill="#1a1a1a"/>
        <path id="Trazado_601824" data-name="Trazado 601824" d="M215.2,189.643c-.069-2.8-.069-2.8-.182-6.337l-.011-.385a.38.38,0,0,1,.4.374,50.482,50.482,0,0,1,0,5.909c-.018.359-.1.439-.206.439" transform="translate(-39.394 -33.515)" fill="#1a1a1a"/>
        <path id="Trazado_601825" data-name="Trazado 601825" d="M205.39,162.652c-3.382-6.483-5.453-16.706-5.473-16.808.4.026,2.46,10.2,5.646,16.527-.114.274-.144.281-.173.281" transform="translate(-36.629 -26.722)" fill="#1a1a1a"/>
        <path id="Trazado_601826" data-name="Trazado 601826" d="M175.281,189.476c-.194-.241-.113-4.683-.1-9.883.377,5.2.3,9.649.3,9.694a.192.192,0,0,1-.193.189" transform="translate(-32.092 -32.905)" fill="#1a1a1a"/>
        <path id="Trazado_601827" data-name="Trazado 601827" d="M176.2,147.982a33.178,33.178,0,0,1,1.692-8.5c-.283,2.007-1.112,5.148-1.5,8.334a.191.191,0,0,1-.192.168" transform="translate(-32.284 -25.556)" fill="#1a1a1a"/>
        <path id="Trazado_601828" data-name="Trazado 601828" d="M189.282,124.388c-.388,0-.768-.007-1.077-.022a4.346,4.346,0,0,1-1.68-.348,2.6,2.6,0,0,1-1.443-2.042,13.876,13.876,0,0,1,.151-4.605c.163-1.137,1.131-5.7,1.184-5.815.323.29-.621,4.6-.771,5.655a14.248,14.248,0,0,0-.184,4.692,2.233,2.233,0,0,0,1.226,1.764,3.947,3.947,0,0,0,1.532.313c.634.027,1.572.033,2.24-.013a1.325,1.325,0,0,1-1.178.421" transform="translate(-33.885 -20.439)" fill="#1a1a1a"/>
        <path id="Trazado_601829" data-name="Trazado 601829" d="M194.514,117.292c-6.591-3.491-8.081-5.941-8.142-6.046.348-.171,1.852,2.277,8.233,5.682.044.328-.023.364-.091.364" transform="translate(-34.147 -20.381)" fill="#1a1a1a"/>
        <path id="Trazado_601830" data-name="Trazado 601830" d="M192.045,117.151c-.15-.044-.261.008-.377.555-.128.609.017.738.156.751s.3-.16.352-.6.065-.648-.132-.7" transform="translate(-35.109 -21.462)" fill="#1a1a1a"/>
        <path id="Trazado_601831" data-name="Trazado 601831" d="M187.049,116.353c-.149-.049-.262,0-.394.542-.15.6-.009.738.129.756s.307-.149.372-.588.087-.645-.107-.71" transform="translate(-34.187 -21.316)" fill="#1a1a1a"/>
        <path id="Trazado_601832" data-name="Trazado 601832" d="M186.335,114.786c.16-.53.6-.733,1.4-.412a3.009,3.009,0,0,0-1.288.381.2.2,0,0,1-.107.031" transform="translate(-34.141 -20.928)" fill="#1a1a1a"/>
        <path id="Trazado_601833" data-name="Trazado 601833" d="M196.894,122.453a2.341,2.341,0,0,1-1.261-.393,2.871,2.871,0,0,1,1.139,0,1.762,1.762,0,0,0,1.322-.448,1.824,1.824,0,0,0-1.083-3.191,1.759,1.759,0,0,0-1.038.246.913.913,0,0,1,1.063-.632,2.211,2.211,0,0,1-.141,4.417" transform="translate(-35.844 -21.626)" fill="#1a1a1a"/>
        <path id="Trazado_601834" data-name="Trazado 601834" d="M197.249,121.727c-.137-.056-1.354-1.271-1.354-1.271.043-.307,1.677-1.22,1.677-1.22.189.339-1.221,1.127-1.221,1.127l1.036,1.033c-.038.311-.087.331-.137.331" transform="translate(-35.892 -21.847)" fill="#1a1a1a"/>
        <path id="Trazado_601835" data-name="Trazado 601835" d="M189.192,134.94a3.3,3.3,0,0,1-.624-.06,1.077,1.077,0,0,1-.76-.553c-.74-1.291.333-4.451.451-4.789l.19-2.53c.386.029.2,2.584.2,2.584-.023.083-1.177,3.36-.5,4.543a.7.7,0,0,0,.5.364c3.353.644,5.685-4.949,5.708-5.006.264.376-1.853,5.447-5.157,5.447" transform="translate(-34.363 -23.27)" fill="#1a1a1a"/>
        <path id="Trazado_601836" data-name="Trazado 601836" d="M189.472,123.136a2.018,2.018,0,0,1-.774-.172c.565-.185.92-.169,1.208-.316a1.436,1.436,0,0,0,.626-.875c.371.118.19.889-.448,1.218a1.3,1.3,0,0,1-.611.145" transform="translate(-34.573 -22.311)" fill="#1a1a1a"/>
        <path id="Trazado_601837" data-name="Trazado 601837" d="M205.974,133.712c1.338-1.3,1.273-3.933.675-5.389a7.685,7.685,0,0,0-2.621-3.183,19.1,19.1,0,0,0-2.954-1.693l-.334-.168a4.5,4.5,0,0,1-2.283-2.071,4.866,4.866,0,0,1,.232-3.759c.079-.2.164-.4.249-.609a9.459,9.459,0,0,0,.989-3.8,4.172,4.172,0,0,0-1.545-3.125,17.547,17.547,0,0,0-3.36-1.745c-.808-.288-7.98-2.743-10.643.372a7.345,7.345,0,0,0-1.491,4.426,8.886,8.886,0,0,0,.2,2.084,9.536,9.536,0,0,1,.206,2.083,5.531,5.531,0,0,1-1.445,3.493,7.108,7.108,0,0,1-.995.846,7.9,7.9,0,0,0-.822.675,4.7,4.7,0,0,0-1.149,1.829,3.6,3.6,0,0,0,.6,3.731c-1.434-.858-1.394-2.6-.97-3.855a5.1,5.1,0,0,1,1.245-1.98,8.082,8.082,0,0,1,.863-.71,6.788,6.788,0,0,0,.941-.8,5.147,5.147,0,0,0,1.343-3.25,9.128,9.128,0,0,0-.2-2,9.329,9.329,0,0,1-.2-2.175,7.71,7.71,0,0,1,1.584-4.653c2.829-3.315,10.231-.784,11.067-.484a17.893,17.893,0,0,1,3.438,1.783,4.521,4.521,0,0,1,1.723,3.432,9.7,9.7,0,0,1-1.017,3.962c-.086.206-.169.408-.247.607a4.521,4.521,0,0,0-.235,3.469,4.181,4.181,0,0,0,2.1,1.872l.334.166a19.464,19.464,0,0,1,3.011,1.731,8.037,8.037,0,0,1,2.749,3.346c.646,1.577.689,4.443-.925,5.5a.2.2,0,0,1-.108.031" transform="translate(-32.66 -19.532)" fill="#1a1a1a"/>
        <path id="Trazado_601838" data-name="Trazado 601838" d="M196.07,129.073c-.194-.2-.06-5.807-.06-5.807.386.011.254,5.619.254,5.619a.192.192,0,0,1-.194.188" transform="translate(-35.905 -22.585)" fill="#1a1a1a"/>
        <path id="Trazado_601839" data-name="Trazado 601839" d="M207.281,173.909c-6.78,0-15.754-6.861-20.666-12.186a18.258,18.258,0,0,1,2.872-5.469,35.944,35.944,0,0,1,3.387-3.96,77.761,77.761,0,0,1,12.77,9.442,144.336,144.336,0,0,0-12.61-9.056,37.876,37.876,0,0,0-3.237,3.808,23.89,23.89,0,0,0-2.815,5.063c7.387,7.966,18.315,14.506,24.125,10.978,9.491-5.757,1.951-21.951-2.1-30.651l-.273-.587c-.155-.334-.32-.751-.511-1.231-.915-2.307-2.3-5.793-5.407-7.688-2.029-1.237-4.114-2-8.227-2,4.2-.386,6.342.4,8.428,1.673,3.222,1.964,4.689,5.665,5.565,7.875.19.477.354.888.5,1.211l.274.587c4.1,8.81,11.735,25.207,1.949,31.146a7.631,7.631,0,0,1-4.028,1.048" transform="translate(-34.192 -23.868)" fill="#1a1a1a"/>
        <path id="Trazado_601840" data-name="Trazado 601840" d="M173.345,129.459a8.751,8.751,0,0,1-6.389-2.5,15.294,15.294,0,0,1-3.148-4.9,27.179,27.179,0,0,1-2.028-9.729,38.963,38.963,0,0,0,2.386,9.578,14.848,14.848,0,0,0,3.065,4.777c3.315,3.332,8.37,2.7,11.99,1a10.946,10.946,0,0,1,4.5-.986,25.163,25.163,0,0,0-4.339,1.337,14.545,14.545,0,0,1-6.042,1.427" transform="translate(-29.642 -20.581)" fill="#1a1a1a"/>
        <path id="Trazado_601841" data-name="Trazado 601841" d="M169.138,143.629c-3.969-.292-6.734-2.34-9.659-4.509-6.689-4.955-11.226-14.82-12.141-26.388,1.292,11.427,5.771,21.187,12.37,26.078,2.882,2.134,5.6,4.148,9.444,4.433.17.31.086.386-.015.386" transform="translate(-26.995 -20.655)" fill="#1a1a1a"/>
        <path id="Trazado_601842" data-name="Trazado 601842" d="M187.134,120.4c-.294-.6-.5-1.689-.118-1.985.235-.181.724-.016,1.1.158l.439-2.412c.38.069-.105,2.735-.105,2.735-.661-.065-1.091-.212-1.209-.17a2.8,2.8,0,0,0,.079,1.436c-.16.235-.175.238-.189.238" transform="translate(-34.227 -21.283)" fill="#1a1a1a"/>
        <path id="Trazado_601843" data-name="Trazado 601843" d="M157.809,111.562c-.084-2.06-.056-7.084-1.208-8.029-1.378-1.133-2.021-1.4-3.836-.015-.118.091-.249.184-.386.279-.575.406-1.227.863-1.252,1.432-.016.379.251.8.795,1.265.841.716,2.025.239,3.832-1.542-.96,1.487-2.746,2.965-4.081,1.837a2.063,2.063,0,0,1-.932-1.576c.033-.76.8-1.3,1.416-1.732.131-.094.258-.183.372-.27,1.9-1.456,2.743-1.272,4.318.021,1.541,1.262,1.172,7.867,1.157,8.147a.192.192,0,0,1-.194.182" transform="translate(-27.619 -18.723)" fill="#1a1a1a"/>
        <path id="Trazado_601844" data-name="Trazado 601844" d="M175.832,174.4a4.845,4.845,0,0,1-4.84-4.785l-.169-15.359a4.846,4.846,0,0,1,4.786-4.891l19.88-.135c0,.386-19.878.521-19.878.521a4.465,4.465,0,0,0-4.4,4.5l.169,15.36a4.459,4.459,0,0,0,4.454,4.4l19.012-.212c0,.387-18.962.6-18.962.6Z" transform="translate(-31.298 -27.342)" fill="#1a1a1a"/>
        <path id="Trazado_601845" data-name="Trazado 601845" d="M185.522,164.715c-2.8-.43-8.272-5.843-8.711-7.344a1.44,1.44,0,0,1,.586-1.671,1.139,1.139,0,0,1,.192-1.415,1.378,1.378,0,0,1,.5-.354,1.18,1.18,0,0,1,1.037.137c.068.064,6.562,10.351,6.562,10.351-.038.265-.1.3-.164.3m-7.078-10.465a1.045,1.045,0,0,0-.575.3.759.759,0,0,0-.042,1.085c-.1.319-.916.7-.645,1.627.391,1.332,5.211,6.105,7.923,6.961l-6.213-9.843a.972.972,0,0,0-.447-.131" transform="translate(-32.382 -28.191)" fill="#1a1a1a"/>
        <path id="Trazado_601846" data-name="Trazado 601846" d="M184.207,158.6a17.191,17.191,0,0,1-1.908-1.435c.244-.3,2.027,1.089,2.027,1.089,0,.318-.059.346-.119.346" transform="translate(-33.401 -28.788)" fill="#1a1a1a"/>
        <path id="Trazado_601847" data-name="Trazado 601847" d="M181.783,156.21a19.521,19.521,0,0,1-1.708-1.451c-.675-.626-1.273-1.175-1.274-1.805a1.2,1.2,0,0,1,.439-.884c.975-.907,1.874-.047,2.467.524.112.105.273.268.466.461a28.35,28.35,0,0,0,2.111,1.977c-.053.334-2.438,1.166-2.438,1.166a.163.163,0,0,1-.064.012m-1.656-4.143a.92.92,0,0,0-.626.288.819.819,0,0,0-.313.6c0,.462.524.944.907,1.3.516.5,1.1,1.019,1.727,1.549l1.952-.681c-.576-.491-1.343-1.255-1.874-1.786-.192-.192-.352-.353-.461-.458-.525-.5-.93-.8-1.313-.8" transform="translate(-32.76 -27.79)" fill="#1a1a1a"/>
        <path id="Trazado_601848" data-name="Trazado 601848" d="M192.016,157.033c-.049-.007-3.312-.879-3.312-.879a1.042,1.042,0,0,1-.438.359c-.573.275-1.482-.115-3.039-1.305.167-.34,3.244.482,3.244.482a3.75,3.75,0,0,0-.337-1.632,3.417,3.417,0,0,1-.094-2.643.849.849,0,0,1,.609-.428c1.163-.181,1.471.714,1.719,1.435.056.164.11.325.174.471.124.284.257.661.41,1.1a11.474,11.474,0,0,0,1.219,2.731c-.029.279-.091.31-.154.31m-3.168-1.241,2.733.731a15.762,15.762,0,0,1-.995-2.4c-.15-.429-.281-.8-.4-1.069-.068-.154-.126-.327-.186-.5-.278-.814-.51-1.3-1.291-1.177a.466.466,0,0,0-.337.244,3.167,3.167,0,0,0,.126,2.313,3.949,3.949,0,0,1,.35,1.865m-2.529-.276c.871.577,1.472.8,1.781.648.189-.121-1.781-.648-1.781-.648" transform="translate(-33.938 -27.66)" fill="#1a1a1a"/>
        <path id="Trazado_601849" data-name="Trazado 601849" d="M182.068,160.3c-.121-.043-1.129-.856-2.253-1.777a17.928,17.928,0,0,1-2.017-2.087c.235-.321,1.352,1.041,2.263,1.786,1.124.921,2.128,1.734,2.128,1.734-.01.319-.066.343-.122.343" transform="translate(-32.577 -28.654)" fill="#1a1a1a"/>
        <path id="Trazado_601850" data-name="Trazado 601850" d="M148.273,113.264c-.627-.093-.934-.316-.935-.666a.873.873,0,0,1,.3-.519c.092.688.453.768.669.8.148.316.065.385-.029.385" transform="translate(-26.995 -20.535)" fill="#1a1a1a"/>
        <path id="Trazado_601851" data-name="Trazado 601851" d="M157.717,113.465c-.021-.386.972-.493.972-.493,1.924-.3,2.35-.713,2.347-.833s-.2-.271-.535-.386c-.394-.08-1.148-.207-1.322-.209.308-.408,1.308-.188,1.424-.164.216.072.8.273.819.749.014.533-.888.944-2.681,1.229l-1,.107Z" transform="translate(-28.897 -20.392)" fill="#1a1a1a"/>
        <path id="Trazado_601852" data-name="Trazado 601852" d="M142.331,156.748h-9.3c0-.386,9.109-.386,9.109-.386v-9.11c.386,0,.386,9.3.386,9.3a.192.192,0,0,1-.194.193" transform="translate(-24.374 -26.98)" fill="#1a1a1a"/>
        <path id="Trazado_601853" data-name="Trazado 601853" d="M20.653,144.613c-.8-.435-1.1-1.36-.943-2.634a3.571,3.571,0,0,1,1.509-2.73,3.535,3.535,0,0,1,.616-.314,9.244,9.244,0,0,1,1.137-.35,4.392,4.392,0,0,0,1.965-.867,2.09,2.09,0,0,0,.536-1.848,90.4,90.4,0,0,0-1.594-9.064,4.711,4.711,0,0,1,2.187-3.872,5.837,5.837,0,0,1,3.646-.872,4.924,4.924,0,0,1,1.11-.617c2.092-.885,4.746-.361,6.142.03a4.118,4.118,0,0,1,1.98,1.077,4.974,4.974,0,0,1,1.008,2.921c.2,1.928.075,2.071,0,2.155a2.184,2.184,0,0,1-.623.07l.006-.386c.352-.144.364-.568.242-1.743a4.75,4.75,0,0,0-.916-2.758,3.783,3.783,0,0,0-1.8-.961c-1.345-.376-3.9-.886-5.888-.047a4.379,4.379,0,0,0-1.081.612,6.351,6.351,0,0,0-3.609.843,4.339,4.339,0,0,0-2.02,3.484c.082.333.84,3.474,1.594,9.078A2.462,2.462,0,0,1,25.2,138a4.744,4.744,0,0,1-2.132.956,9.178,9.178,0,0,0-1.089.335,3.533,3.533,0,0,0-.553.281,3.209,3.209,0,0,0-1.331,2.452c-.082.644-.1,1.786.655,2.226.033.328-.031.361-.1.361" transform="translate(-3.604 -22.163)" fill="#1a1a1a"/>
        <path id="Trazado_601854" data-name="Trazado 601854" d="M41.081,129.117c-1.313-.007-3.35-.03-3.35-.03l0-.386s2.035.023,3.346.03c.192.3.105.386,0,.386" transform="translate(-6.913 -23.581)" fill="#1a1a1a"/>
        <path id="Trazado_601855" data-name="Trazado 601855" d="M29.16,145.149a13.946,13.946,0,0,1-5.289-1.3c.216-.326,5.03,1.955,7.858.3,1.231-.722,1.919-2.1,2.044-4.108a7.861,7.861,0,0,0-1.857-5.093c-.1-.132-.182-.256-.257-.366-1.43-2.092-.517-4.24.151-5.807.1-.238.2-.465.28-.679a3.883,3.883,0,0,0-.625-3.191A2.684,2.684,0,0,1,33.037,128l.858.008c0,.386-1.1.377-1.1.377-.165-.308.132-1.317-.344-2.326a3.289,3.289,0,0,1,0,2.186c-.083.217-.182.447-.285.69-.666,1.569-1.5,3.52-.188,5.438l.253.358a8.208,8.208,0,0,1,1.929,5.345c-.133,2.139-.885,3.625-2.236,4.415a5.426,5.426,0,0,1-2.763.662" transform="translate(-4.374 -22.886)" fill="#1a1a1a"/>
        <path id="Trazado_601856" data-name="Trazado 601856" d="M12.717,185.38c6.159-5.832,20.2-6.734,20.335-6.741-.116.395-14.022,1.287-20.208,6.694a.191.191,0,0,1-.127.047" transform="translate(-2.33 -32.73)" fill="#1a1a1a"/>
        <path id="Trazado_601857" data-name="Trazado 601857" d="M6.887,183.516c-4.277-8.039,1.622-21.329,5.753-27.929a40.123,40.123,0,0,1,3.343-4.728,14.554,14.554,0,0,1,4.5-3.183,31.76,31.76,0,0,0-4.2,3.435,39.75,39.75,0,0,0-3.31,4.679c-3.807,6.084-9.942,19.647-5.909,27.443-.111.276-.141.283-.172.283" transform="translate(-0.989 -27.058)" fill="#1a1a1a"/>
        <path id="Trazado_601858" data-name="Trazado 601858" d="M53.126,158.385a2.014,2.014,0,0,1-.391-.617c-2.956-6.829-6.716-10.494-11.832-11.534-.4-.082-1.61-.293-1.61-.293l.066-.381s1.218.211,1.621.294c5.178,1.054,9.139,4.9,12.11,11.76.072.167.144.336.215.5-.129.263-.154.268-.179.268" transform="translate(-7.199 -26.67)" fill="#1a1a1a"/>
        <path id="Trazado_601859" data-name="Trazado 601859" d="M39.053,140.861c-.208,0-.4-.012-.561-.025a22.817,22.817,0,0,1-2.264-.3,5.973,5.973,0,0,1,2.3-.082,3.975,3.975,0,0,0,1.561-.116,2.231,2.231,0,0,0,1.44-1.592,9.234,9.234,0,0,0,.426-2.895,4.356,4.356,0,0,1-.06,3.016A2.59,2.59,0,0,1,40.2,140.7a3.862,3.862,0,0,1-1.148.158" transform="translate(-6.638 -24.89)" fill="#1a1a1a"/>
        <path id="Trazado_601860" data-name="Trazado 601860" d="M37.465,149.638c-1.076,0-2.83-2.136-3.194-2.6,1.209.9,2.739,2.421,3.3,2.191.653-.253.742-2.686.643-4.16l.172-3.279c.386.019.214,3.275.214,3.275.046.662.217,4.095-.889,4.524a.662.662,0,0,1-.245.043" transform="translate(-6.279 -25.98)" fill="#1a1a1a"/>
        <path id="Trazado_601861" data-name="Trazado 601861" d="M41.937,145.434a3.512,3.512,0,0,0-.586-3.925c.3-.248,2.213,1.772.743,3.844a.192.192,0,0,1-.158.082" transform="translate(-7.576 -25.924)" fill="#1a1a1a"/>
        <path id="Trazado_601862" data-name="Trazado 601862" d="M22.312,177.853c-.862-6.963,2.908-18.2,2.945-18.308.329.236-3.413,11.389-2.753,18.1-.18.212-.186.212-.193.212" transform="translate(-4.065 -29.232)" fill="#1a1a1a"/>
        <path id="Trazado_601863" data-name="Trazado 601863" d="M39.169,137.842a1.362,1.362,0,0,1-.792-.233,1.83,1.83,0,0,1-.675-1.231c.386-.03.454.61.9.913a1.242,1.242,0,0,0,1.053.092c-.105.431-.3.458-.483.458" transform="translate(-6.908 -24.987)" fill="#1a1a1a"/>
        <path id="Trazado_601864" data-name="Trazado 601864" d="M82.3,174.276a1.837,1.837,0,0,1-.922-.24c-1.2-.692-1.339-2.692-.316-4.463a4.74,4.74,0,0,1,1.908-1.887,2.2,2.2,0,0,1,2.113-.069c1.2.692,1.338,2.691.317,4.462a4.747,4.747,0,0,1-1.909,1.887,2.669,2.669,0,0,1-1.191.31m1.86-6.511a2.289,2.289,0,0,0-1.016.266,4.37,4.37,0,0,0-1.747,1.737c-.915,1.583-.837,3.347.175,3.932a1.809,1.809,0,0,0,1.745-.078,4.369,4.369,0,0,0,1.748-1.736c.914-1.584.836-3.348-.175-3.932a1.43,1.43,0,0,0-.729-.189" transform="translate(-14.726 -30.667)" fill="#1a1a1a"/>
        <path id="Trazado_601865" data-name="Trazado 601865" d="M53.431,184.361a5.061,5.061,0,0,1-4.8-6.651l7.55-22.784a5.05,5.05,0,0,1,4.8-3.469H92.814a5.222,5.222,0,0,1,1.121.123,1.637,1.637,0,0,1-1.121.264H60.981a4.667,4.667,0,0,0-4.436,3.2L49,177.832a4.675,4.675,0,0,0,4.435,6.143c.194.3.108.386,0,.386" transform="translate(-8.862 -27.75)" fill="#1a1a1a"/>
        <path id="Trazado_601866" data-name="Trazado 601866" d="M87.914,184.675H56.081a5.125,5.125,0,0,1-4.18-2.117,4.647,4.647,0,0,1-.622-4.26l7.549-21.8a5.04,5.04,0,0,1,4.8-3.32H95.464a5.125,5.125,0,0,1,4.181,2.117,4.643,4.643,0,0,1,.621,4.26l-7.549,21.8a5.036,5.036,0,0,1-4.8,3.322M63.631,153.559a4.654,4.654,0,0,0-4.437,3.061l-7.549,21.8a4.259,4.259,0,0,0,.571,3.907,4.735,4.735,0,0,0,3.865,1.956H87.914a4.652,4.652,0,0,0,4.437-3.064l7.549-21.8a4.257,4.257,0,0,0-.57-3.908,4.734,4.734,0,0,0-3.866-1.955Z" transform="translate(-9.348 -28.065)" fill="#1a1a1a"/>
        <path id="Trazado_601867" data-name="Trazado 601867" d="M41.137,190c-2.735,0-3.413-3.206-3.413-3.662.388.032.824,3.276,3.413,3.276.6,0,.984-.136,1.146-.4.348-.572-.257-1.741-.7-2.594-.108-.209-.208-.4-.288-.573s-.172-.4-.264-.64c-.519-1.333-1.231-3.156-3.75-2.722a20.739,20.739,0,0,0-5.064,2.208A13.672,13.672,0,0,1,37.2,182.3c2.849-.5,3.661,1.582,4.195,2.958.089.226.171.437.254.617.078.165.176.354.281.559.511.987,1.147,2.214.686,2.972a1.6,1.6,0,0,1-1.477.588" transform="translate(-5.903 -33.388)" fill="#1a1a1a"/>
        <path id="Trazado_601868" data-name="Trazado 601868" d="M44.932,189.841c1.049-.456,1.714-.747,1.913-1.234a1.279,1.279,0,0,0-.343-1.253,7.96,7.96,0,0,1-.983-2.035,10.761,10.761,0,0,0-1.586-3.105c-1.072-1.166-3.519.205-3.545.217-.081-.4,2.549-1.87,3.83-.479a11,11,0,0,1,1.662,3.225,8.027,8.027,0,0,0,.91,1.919,1.641,1.641,0,0,1,.413,1.659c-.181.442-.72.987-2.259,1.087Z" transform="translate(-7.4 -33.23)" fill="#1a1a1a"/>
        <path id="Trazado_601869" data-name="Trazado 601869" d="M34.668,191.062a3.288,3.288,0,0,1-.409-.026.6.6,0,0,1,.595-.367c3.139-.157,3.357-2.57,3.364-2.672.384.058.131,2.887-3.344,3.059-.069,0-.138.007-.206.007" transform="translate(-6.277 -34.445)" fill="#1a1a1a"/>
        <path id="Trazado_601870" data-name="Trazado 601870" d="M34.314,189.329a5.776,5.776,0,0,1-2.561-5.821,5.668,5.668,0,0,1,6.34-4.871,6.953,6.953,0,0,1,4.149,2.377,9.1,9.1,0,0,0-4.21-1.994,5.269,5.269,0,0,0-5.9,4.549,5.426,5.426,0,0,0,2.285,5.4c.018.325-.043.355-.107.355" transform="translate(-5.804 -32.718)" fill="#1a1a1a"/>
        <path id="Trazado_601871" data-name="Trazado 601871" d="M48.253,182.925c-.19-.155-.484-1.231-1.25-1.55-.969-.4-2.187.58-2.2.589-.188-.348,1.165-1.439,2.349-.947a2.677,2.677,0,0,1,1.29,1.665c-.155.241-.172.243-.188.243" transform="translate(-8.205 -33.143)" fill="#1a1a1a"/>
        <path id="Trazado_601872" data-name="Trazado 601872" d="M49.912,191.31a2.258,2.258,0,0,1-1.625-.757c.337-.2,1.23.864,2.6.086a.955.955,0,0,1-.979.671" transform="translate(-8.847 -34.909)" fill="#1a1a1a"/>
        <path id="Trazado_601873" data-name="Trazado 601873" d="M48.106,177.5c3.051-11.966.5-19.242.472-19.316.39-.059,2.988,7.324-.285,19.174a.193.193,0,0,1-.187.142" transform="translate(-8.814 -28.982)" fill="#1a1a1a"/>
        <path id="Trazado_601874" data-name="Trazado 601874" d="M106.875,153.635c-.095-.025-2.886-1.6-2.886-1.6.189-.339,2.981,1.237,2.981,1.237.038.327-.028.363-.095.363" transform="translate(-19.053 -27.847)" fill="#1a1a1a"/>
        <path id="Trazado_601875" data-name="Trazado 601875" d="M80.317,144.055h-17C63.129,143.8,66.1,135.4,66.1,135.4c.367.127-2.512,8.266-2.512,8.266H80.317c.194.3.107.386,0,.386" transform="translate(-11.599 -24.809)" fill="#1a1a1a"/>
        <path id="Trazado_601876" data-name="Trazado 601876" d="M86.33,131.2H72.656c0-.386,13.674-.386,13.674-.386.194.3.107.386,0,.386" transform="translate(-13.312 -23.967)" fill="#1a1a1a"/>
        <path id="Trazado_601877" data-name="Trazado 601877" d="M84.09,143.243c-.165-.046-.218-.156-.183-.256l4.251-12.017c.365.127-3.885,12.145-3.885,12.145a.2.2,0,0,1-.183.129" transform="translate(-15.372 -23.996)" fill="#1a1a1a"/>
        <path id="Trazado_601878" data-name="Trazado 601878" d="M36.657,134.771c-1.016,0-1.848-1.362-1.9-3.127-.056-1.785.708-3.207,1.737-3.239,1.05,0,1.882,1.362,1.937,3.124.057,1.784-.707,3.208-1.738,3.241h-.033m-.132-5.98c-.807.026-1.431,1.326-1.384,2.84s.738,2.752,1.516,2.752c.808-.025,1.433-1.326,1.385-2.842s-.738-2.75-1.517-2.75" transform="translate(-6.367 -23.527)" fill="#1a1a1a"/>
        <path id="Trazado_601879" data-name="Trazado 601879" d="M42.551,134.771a1.145,1.145,0,0,1-.848-.354,2.728,2.728,0,0,1,.88-.033c.787-.025,1.411-1.326,1.363-2.842s-.738-2.75-1.516-2.75c-.808.025-1.432,1.325-1.385,2.839a4.081,4.081,0,0,0,.26,1.443c-.543-.326-.626-.78-.646-1.43-.056-1.785.708-3.207,1.738-3.239,1.05,0,1.881,1.362,1.936,3.124.056,1.784-.707,3.208-1.737,3.24l-.045,0" transform="translate(-7.449 -23.527)" fill="#1a1a1a"/>
        <path id="Trazado_601880" data-name="Trazado 601880" d="M40.449,132.715a.92.92,0,0,0-1.288-.088c.56-.912,1.207-.516,1.439-.225-.067.3-.109.314-.151.314" transform="translate(-7.175 -24.196)" fill="#1a1a1a"/>
        <path id="Trazado_601881" data-name="Trazado 601881" d="M106.7,30.7c-.194-.193-.194-1.495-.194-1.495a12.419,12.419,0,0,0,4.867-.318,1.914,1.914,0,0,1,.258.981c-.388,0-.388-.537-.388-.537a8,8,0,0,1-4.349-.006V30.5a.193.193,0,0,1-.194.193" transform="translate(-19.514 -5.292)" fill="#1a1a1a"/>
        <path id="Trazado_601882" data-name="Trazado 601882" d="M107.877,26.239a7.921,7.921,0,1,1,2.414-.376,7.9,7.9,0,0,1-2.414.376m0-15.462a7.538,7.538,0,1,0,7.537,7.537,7.546,7.546,0,0,0-7.537-7.537" transform="translate(-18.313 -1.904)" fill="#1a1a1a"/>
        <path id="Trazado_601883" data-name="Trazado 601883" d="M103.962,23.228c.216-.37.863-.39,1.282-.756a.843.843,0,0,0-.258-.7,2.346,2.346,0,0,1-.458-1.736c.028-.212.224-1.055.664-1.3a.528.528,0,0,1,.489-.014c.306.145.42.553.495.822a3.64,3.64,0,0,1,.15,1.062,3.553,3.553,0,0,1-.331,1.505,5.15,5.15,0,0,0,2.486.425,4.832,4.832,0,0,0,1.593-.274,2.615,2.615,0,0,0,1.232-.917,1.622,1.622,0,0,1-.9-1.167,1.47,1.47,0,0,1,.145-.809,1,1,0,0,1,.579-.565.583.583,0,0,1,.54.078c.4.293.416,1.081.415,1.237a2.493,2.493,0,0,1-.234,1.049,7.427,7.427,0,0,0,2.482.3,3.536,3.536,0,0,1-2.675.04,2.98,2.98,0,0,1-1.453,1.115,5.224,5.224,0,0,1-1.719.3,5.508,5.508,0,0,1-2.7-.48,1.976,1.976,0,0,1-.294.321,2.309,2.309,0,0,1-1.536.464m1.484-4.172c-.3.149-.5.745-.535,1.028a1.951,1.951,0,0,0,.381,1.449,2.005,2.005,0,0,0,.371.368,3.069,3.069,0,0,0,.275-1.3,3.2,3.2,0,0,0-.118-.894c-.071-.251-.158-.568-.3-.636a.172.172,0,0,0-.069-.018m5.895.1a.66.66,0,0,0-.435.377,1.082,1.082,0,0,0-.111.594,1.2,1.2,0,0,0,.651.851,1.4,1.4,0,0,0,.258-.863,1.361,1.361,0,0,0-.258-.924.16.16,0,0,0-.1-.034" transform="translate(-19.048 -3.421)" fill="#1a1a1a"/>
        <path id="Trazado_601884" data-name="Trazado 601884" d="M97.111,13.467c-.117-.04-8.676-6.487-8.676-6.487.233-.31,8.793,6.138,8.793,6.138,0,.322-.058.349-.117.349" transform="translate(-16.203 -1.277)" fill="#1a1a1a"/>
        <path id="Trazado_601885" data-name="Trazado 601885" d="M89.917,30.392c-.105-.356,7.988-5.61,7.988-5.61.211.324-7.882,5.58-7.882,5.58a.2.2,0,0,1-.106.03" transform="translate(-16.474 -4.541)" fill="#1a1a1a"/>
        <path id="Trazado_601886" data-name="Trazado 601886" d="M109.6,6.725c-.194-.194-.194-6.725-.194-6.725.387,0,.387,6.531.387,6.531a.194.194,0,0,1-.194.194" transform="translate(-20.046)" fill="#1a1a1a"/>
        <path id="Trazado_601887" data-name="Trazado 601887" d="M119.31,14.308c-.093-.364,4.317-2.752,4.317-2.752.185.341-4.224,2.727-4.224,2.727a.2.2,0,0,1-.093.025" transform="translate(-21.86 -2.117)" fill="#1a1a1a"/>
        <path id="Trazado_601888" data-name="Trazado 601888" d="M127.293,34.974c-.129-.048-8.834-7.79-8.834-7.79.259-.289,8.964,7.451,8.964,7.451-.022.317-.077.338-.13.338" transform="translate(-21.704 -4.979)" fill="#1a1a1a"/>
        <path id="Trazado_601889" data-name="Trazado 601889" d="M143.655,24.864a1.451,1.451,0,0,0-1.582-.691c.3-.5,1.224-.5,1.75.4-.1.282-.134.29-.167.29" transform="translate(-26.031 -4.367)" fill="#1a1a1a"/>
        <path id="Trazado_601890" data-name="Trazado 601890" d="M142.4,26.01c-.155-.025-.258.041-.3.6-.052.621.108.731.247.726s.279-.2.275-.64-.016-.651-.218-.684" transform="translate(-26.034 -4.765)" fill="#1a1a1a"/>
        <path id="Trazado_601891" data-name="Trazado 601891" d="M142.908,39.869a5.96,5.96,0,0,1-.139-1.778c.386.013.332,1.592.332,1.592a.193.193,0,0,1-.194.186" transform="translate(-26.157 -6.979)" fill="#1a1a1a"/>
        <path id="Trazado_601892" data-name="Trazado 601892" d="M156.308,62.829c-.171-5.523-.409-10.181-.41-10.227a14.91,14.91,0,0,0-1.657-5.044,9.588,9.588,0,0,0-2.275-3.211,6.293,6.293,0,0,0-3.524-1.669c-2.813-.323-8.539-.3-8.584-.3a9.33,9.33,0,0,0-3.428.731,9.6,9.6,0,0,0-4.351,4.429,46.744,46.744,0,0,0-2.2,4.909c-.207.515-.412,1.031-.626,1.54a7.083,7.083,0,0,1-1.794,2.839,2.865,2.865,0,0,1-3.283.344,4.233,4.233,0,0,1-1.72-2.695l-1.428-4.367c-.444-1.353-.881-2.776-1.306-4.152-.429-1.393-.872-2.835-1.323-4.206a15.9,15.9,0,0,1,1.694,4.093c.423,1.373.86,2.793,1.3,4.144l1.427,4.369a3.9,3.9,0,0,0,1.545,2.477,2.477,2.477,0,0,0,2.842-.3,6.766,6.766,0,0,0,1.685-2.69c.211-.51.417-1.023.624-1.537a46.144,46.144,0,0,1,2.218-4.95,9.969,9.969,0,0,1,4.532-4.6,9.678,9.678,0,0,1,3.573-.762c.074,0,5.806-.025,8.641.3a6.653,6.653,0,0,1,3.735,1.763,9.961,9.961,0,0,1,2.371,3.335,15.242,15.242,0,0,1,1.692,5.191c0,.046.239,4.714.216,10.055a.192.192,0,0,1-.193.191" transform="translate(-21.694 -7.65)" fill="#1a1a1a"/>
        <path id="Trazado_601893" data-name="Trazado 601893" d="M121.7,71.391a12.934,12.934,0,0,1-9.458-3.791c-3.092-3.154-4.616-7.508-5.7-11.351a100.134,100.134,0,0,1-2.285-11.028l-.217-1.295c.381-.065.6,1.23.6,1.23a100.619,100.619,0,0,0,2.274,10.987c1.071,3.8,2.571,8.093,5.6,11.184,4.718,4.81,11.94,4.35,17.008,1.759l.537-.266c7.411-4.488,9.458-14.479,9.477-14.579.359.176-1.716,10.332-9.29,14.918l-.55.273a17.888,17.888,0,0,1-8,1.957" transform="translate(-19.062 -8.048)" fill="#1a1a1a"/>
        <path id="Trazado_601894" data-name="Trazado 601894" d="M169.886,63.549a60.737,60.737,0,0,0-9.762-18A49.542,49.542,0,0,1,170.071,63.3c-.147.247-.166.249-.185.249" transform="translate(-29.338 -8.345)" fill="#1a1a1a"/>
        <path id="Trazado_601895" data-name="Trazado 601895" d="M141.745,35.138c-2.708,0-3.417-1.393-3.6-2.091a11.231,11.231,0,0,1,.421-3.7,4.024,4.024,0,0,1-1.468-1.4.979.979,0,0,1,.25-1.167,23.834,23.834,0,0,1,2.128-1.376,28.406,28.406,0,0,1,1.03-4.032,29.14,29.14,0,0,1-.667,4.193c-.109.139-1.742,1.1-2.24,1.513a.591.591,0,0,0-.149.7,4.03,4.03,0,0,0,1.433,1.3c.089.244-.6,2.948-.363,3.863.248.934,1.262,2.383,5.314,1.572a3.326,3.326,0,0,1-2.085.618" transform="translate(-25.102 -3.916)" fill="#1a1a1a"/>
        <path id="Trazado_601896" data-name="Trazado 601896" d="M149.963,31.285a2.519,2.519,0,0,1-2-.983,3.139,3.139,0,0,0,2.9.4,2.146,2.146,0,0,0,1.055-2.84,2.143,2.143,0,0,0-3.692-.356.985.985,0,0,1,.688-1.052,2.53,2.53,0,1,1,1.049,4.833" transform="translate(-27.111 -4.805)" fill="#1a1a1a"/>
        <path id="Trazado_601897" data-name="Trazado 601897" d="M150.544,30.576c-.127-.048-1.654-1.38-1.654-1.38.029-.312,2.057-1.522,2.057-1.522.2.332-1.6,1.406-1.6,1.406l1.325,1.157c-.02.316-.074.339-.128.339" transform="translate(-27.28 -5.07)" fill="#1a1a1a"/>
        <path id="Trazado_601898" data-name="Trazado 601898" d="M107.291,44.182c-.465,0-.9-.021-1.294-.059-1.284-.13-1.971-.446-2.039-.939-.092-.651.811-1.1,1.5-1.374-.707.7-1.155,1.044-1.117,1.319.029.205.489.487,1.7.607a18.505,18.505,0,0,0,4.181-.159c3.533-.492,5.6-1.518,5.53-2.035-.035-.256-.594-.555-2.057-.635,1.549-.3,2.363.021,2.44.58.149,1.068-2.836,2.052-5.86,2.473a21.874,21.874,0,0,1-2.979.222" transform="translate(-19.046 -7.474)" fill="#1a1a1a"/>
        <path id="Trazado_601899" data-name="Trazado 601899" d="M113.041,40.543a9.241,9.241,0,0,1-.456-3.772c.033-.97,0-1.963-.03-2.923-.011-.313-.021-.624-.029-.937a6.821,6.821,0,0,1,.773-3.253.886.886,0,0,0,.149-.559c-.09-.332-.666-.545-1.031-.564a2.036,2.036,0,0,0-1.357.514c-.921.7-1.313,2.4-1.547,3.421a3.171,3.171,0,0,1-.245.828,1.627,1.627,0,0,1-1.952.452c-.507-.2-.557-.306-.743-.822a17.315,17.315,0,0,0-1.006-2.263c-1.238-2.4-2.705-3.52-4.14-3.171a1.254,1.254,0,0,0-.8.786,1.513,1.513,0,0,0,.347,1.44c.487.629,1.323,2.1,2.133,3.517a24.638,24.638,0,0,0,2.11,3.4c-.561.074-1.288-1.177-2.447-3.21a40.531,40.531,0,0,0-2.1-3.473,1.853,1.853,0,0,1-.405-1.8,1.643,1.643,0,0,1,1.071-1.035c.941-.231,2.784-.1,4.576,3.368a17.148,17.148,0,0,1,1.027,2.311c.163.449.163.449.524.592a1.232,1.232,0,0,0,1.485-.3,4.318,4.318,0,0,0,.191-.7c.246-1.07.658-2.86,1.689-3.643a2.548,2.548,0,0,1,1.614-.592c.453.025,1.228.277,1.383.85a1.189,1.189,0,0,1-.176.831,6.461,6.461,0,0,0-.735,3.072c.009.311.019.622.029.936.031.965.064,1.964.03,2.946a12.069,12.069,0,0,0,.256,3.517c-.153.241-.17.243-.186.243" transform="translate(-18.354 -4.955)" fill="#1a1a1a"/>
        <path id="Trazado_601900" data-name="Trazado 601900" d="M105.83,41.82c-.294-.943-.566-1.947-1.287-2.316-1.257-.645-2.616-2.537-3.546-4.937a10.813,10.813,0,0,0-1.5-2.488c-.665-.9-1.238-1.675-1.064-2.436a1.7,1.7,0,0,1,1.6-1.319c-.031.388-1,.428-1.228,1.406-.133.587.365,1.264,1,2.12a11.093,11.093,0,0,1,1.546,2.578c.884,2.28,2.2,4.138,3.363,4.732a3.111,3.111,0,0,1,1.3,2.443c-.175.218-.184.218-.191.218" transform="translate(-18.03 -5.19)" fill="#1a1a1a"/>
        <path id="Trazado_601901" data-name="Trazado 601901" d="M152.517,38.722a21.546,21.546,0,0,1-.4-3.285c.386-.025.6,3.079.6,3.079-.185.206-.189.206-.194.206" transform="translate(-27.871 -6.493)" fill="#1a1a1a"/>
        <path id="Trazado_601902" data-name="Trazado 601902" d="M150.762,33.2a1.229,1.229,0,0,1-.37-.056c-.988-.307-1.023-1.812-.992-2.445.038-.751.139-.772.246-.794a11.213,11.213,0,0,0,.377,2.41.817.817,0,0,0,.484.459c.764.232,1.771-.712,3.584-2.439l.438-.419c2.19-2.078,3.227-4.979,2.524-7.055a2.915,2.915,0,0,0-2.583-2.037,2.561,2.561,0,0,1,2.95,1.914c.761,2.248-.292,5.245-2.623,7.46l-.439.416c-1.736,1.654-2.714,2.587-3.6,2.587" transform="translate(-27.372 -3.808)" fill="#1a1a1a"/>
        <path id="Trazado_601903" data-name="Trazado 601903" d="M139.711,33.263a1.931,1.931,0,0,1-1.057-.3c.266-.288,1.1.264,2.251-.482a1.217,1.217,0,0,1-1.194.778" transform="translate(-25.404 -5.952)" fill="#1a1a1a"/>
        <path id="Trazado_601904" data-name="Trazado 601904" d="M139.845,42.828a6.86,6.86,0,0,1,1.47-3.012,102.246,102.246,0,0,1,10.34-.831c.638,0,1.839,2.27,2.325,3.246a19.728,19.728,0,0,0-2.327-2.86c-1.73,0-9.675.582-10.154.786a12.836,12.836,0,0,0-1.48,2.562.2.2,0,0,1-.174.109" transform="translate(-25.623 -7.143)" fill="#1a1a1a"/>
        <path id="Trazado_601905" data-name="Trazado 601905" d="M62.7,74.857a5.575,5.575,0,0,1-2.329-.539,9.684,9.684,0,0,1-3.725-3.1,20.628,20.628,0,0,1-3.118-6.225c-.212-.648-.39-1.288-.58-1.967-.087-.308-.173-.619-.263-.93a15.219,15.219,0,0,1,2.734-.96c.305-.082.613-.167.917-.253a.417.417,0,0,1,.492.167,26.12,26.12,0,0,0,4.892,4.921,1.9,1.9,0,0,0,1.746.361,6.323,6.323,0,0,0,1.894-.867,24.79,24.79,0,0,0,4.032-3.344A74.473,74.473,0,0,0,75.753,54.9a.516.516,0,0,1,.608-.2c.918.263,1.84.517,2.762.773l.947.261a58.594,58.594,0,0,1-7.859,12.236,29.41,29.41,0,0,1-5.138,5.059,15.85,15.85,0,0,1-2.005,1.225,5.047,5.047,0,0,1-2.371.606M53.108,62.175q.107.377.209.746c.189.675.366,1.312.575,1.951a20.264,20.264,0,0,0,3.059,6.114,9.357,9.357,0,0,0,3.577,2.982,4.774,4.774,0,0,0,4.359-.057,15.571,15.571,0,0,0,1.958-1.2,29.034,29.034,0,0,0,5.07-4.995A87.944,87.944,0,0,0,79.941,56.1l-.922-.254q-1.383-.382-2.765-.773c-2.428,2.915-4.521,5.289-6.594,7.326a25.065,25.065,0,0,1-4.1,3.4,6.634,6.634,0,0,1-2.012.918,2.289,2.289,0,0,1-2.078-.435,26.417,26.417,0,0,1-4.962-4.995,9.428,9.428,0,0,0-.995.23Z" transform="translate(-9.652 -10.016)" fill="#1a1a1a"/>
        <path id="Trazado_601906" data-name="Trazado 601906" d="M64.457,84.982A23.148,23.148,0,1,1,87.447,59.1a23.426,23.426,0,0,0-22.99-20.031,22.762,22.762,0,1,0,9.415,43.49,17.919,17.919,0,0,1-9.415,2.418" transform="translate(-7.569 -7.088)" fill="#1a1a1a"/>
        <path id="Trazado_601907" data-name="Trazado 601907" d="M189.886,191.606H0c0-.386,189.886-.386,189.886-.386.194.3.107.386,0,.386" transform="translate(0 -35.036)" fill="#1a1a1a"/>
        <path id="Trazado_601908" data-name="Trazado 601908" d="M151.063,112.916c-.218,0-.444-.007-.678-.023a2.862,2.862,0,0,1-2.373-1.353,9.1,9.1,0,0,1-1.609-4.7c-.092-1.813.024-3.64,2.472-4.323-1.876.926-2.192,2.181-2.085,4.3a8.705,8.705,0,0,0,1.543,4.5,2.475,2.475,0,0,0,2.078,1.188,6.5,6.5,0,0,0,3.052-.426c1.477-.64,2.213-1.38,2.132-2.143a1.329,1.329,0,0,0-.689-.99c.368-.332.983.2,1.072.927.081.665-.261,1.652-2.362,2.561a6.3,6.3,0,0,1-2.553.48" transform="translate(-26.82 -18.783)" fill="#1a1a1a"/>
        <path id="Trazado_601909" data-name="Trazado 601909" d="M151.509,111.364a13.264,13.264,0,0,1,2.23-.881,5.953,5.953,0,0,0,1.928-.992,1.394,1.394,0,0,0,.5-1.175,1.963,1.963,0,0,0-.967-1.425,1.465,1.465,0,0,1,1.353,1.392,1.772,1.772,0,0,1-.632,1.5,6.083,6.083,0,0,1-1.973,1.039,7.7,7.7,0,0,1-2.435.547Z" transform="translate(-27.76 -19.585)" fill="#1a1a1a"/>
        <path id="Trazado_601910" data-name="Trazado 601910" d="M150.1,108.808a12.948,12.948,0,0,1,2.361-.953,3.667,3.667,0,0,1-2.354.953Z" transform="translate(-27.501 -19.761)" fill="#1a1a1a"/>
        <path id="Trazado_601911" data-name="Trazado 601911" d="M177.464,126.857c-.194-.193-.194-27.24-.194-27.24.386,0,.386,27.047.386,27.047a.192.192,0,0,1-.192.193" transform="translate(-32.48 -18.252)" fill="#1a1a1a"/>
        <path id="Trazado_601912" data-name="Trazado 601912" d="M175.181,82.346c-.194-.194-.194-12.415-.194-12.415a2.7,2.7,0,0,0-2.883-2.46H164.81c0-.386,7.294-.386,7.294-.386a3.083,3.083,0,0,1,3.269,2.846V82.152a.192.192,0,0,1-.192.194" transform="translate(-30.197 -12.291)" fill="#1a1a1a"/>
        <path id="Trazado_601913" data-name="Trazado 601913" d="M160.861,67.471H143.254c0-.386,17.607-.386,17.607-.386.193.3.107.386,0,.386" transform="translate(-26.247 -12.291)" fill="#1a1a1a"/>
        <path id="Trazado_601914" data-name="Trazado 601914" d="M83.457,118.456c-.193-.194-.193-48.526-.193-48.526a3.082,3.082,0,0,1,3.27-2.846h18.924c0,.386-18.924.386-18.924.386a2.7,2.7,0,0,0-2.882,2.46v48.332a.194.194,0,0,1-.194.194" transform="translate(-15.256 -12.291)" fill="#1a1a1a"/>
        <path id="Trazado_601915" data-name="Trazado 601915" d="M157.229,116c-.524-.112-.733-.278-.857-.5l-.739-1.335c.338-.189,1.077,1.146,1.077,1.146a.586.586,0,0,0,.354.281.568.568,0,0,0,.446-.049.59.59,0,0,0,.232-.8l-.886-1.6c.338-.188,1.224,1.413,1.224,1.413a.977.977,0,0,1-.383,1.326.949.949,0,0,1-.468.123" transform="translate(-28.515 -20.727)" fill="#1a1a1a"/>
        <path id="Trazado_601916" data-name="Trazado 601916" d="M148.822,101.494c-.169-.1-8.013-14.252-8.013-14.252a.976.976,0,0,1,1.708-.945l7.878,14.178c-.338.189-8.216-13.991-8.216-13.991a.589.589,0,0,0-1.032.568l7.844,14.153c-.105.28-.137.288-.169.288" transform="translate(-25.777 -15.719)" fill="#1a1a1a"/>
        <path id="Trazado_601917" data-name="Trazado 601917" d="M154.572,102.462a3.523,3.523,0,0,0-2.958-.361c-.126-.371,1.107-.993,3.047,0,.051.328-.019.366-.088.366" transform="translate(-27.777 -18.609)" fill="#1a1a1a"/>
        <path id="Trazado_601918" data-name="Trazado 601918" d="M131.146,182.129H105.23c0-.386,25.916-.386,25.916-.386.193.3.107.386,0,.386" transform="translate(-19.28 -33.299)" fill="#1a1a1a"/>
        <path id="Trazado_601919" data-name="Trazado 601919" d="M171.963,182.129H161.206c0-.386,10.757-.386,10.757-.386.193.3.107.386,0,.386" transform="translate(-29.536 -33.299)" fill="#1a1a1a"/>
        <path id="Trazado_601920" data-name="Trazado 601920" d="M41.33,135.558c.452-1.069.452-1.34.423-1.421-.039-.114-.269-.168-.47-.218a.928.928,0,0,1-.658-.35,6.883,6.883,0,0,1-.022-2.631c.28.806.184,2.123.361,2.443.042.073.244.123.408.161.284.069.638.154.747.47s-.085.78-.637,1.474a.192.192,0,0,1-.152.072" transform="translate(-7.416 -23.991)" fill="#1a1a1a"/>
        <path id="Trazado_601921" data-name="Trazado 601921" d="M149.348,104.975c0-.388,1.674-.549,2.322-1.251-.465,1.074-2.229,1.244-2.306,1.251Z" transform="translate(-27.364 -19.004)" fill="#1a1a1a"/>
        <path id="Trazado_601922" data-name="Trazado 601922" d="M140.084,23.253a5.516,5.516,0,0,1-2.184-3.886,4.414,4.414,0,0,1,1.753-3.4,3.384,3.384,0,0,1,2.574-.906,6.3,6.3,0,0,1,3.717,2.227c-.316.224-1.876-1.679-3.753-1.841a3,3,0,0,0-2.282.812,4.052,4.052,0,0,0-1.622,3.1,5.473,5.473,0,0,0,1.92,3.552c-.011.319-.067.343-.123.343" transform="translate(-25.266 -2.757)" fill="#1a1a1a"/>
        <path id="Trazado_601923" data-name="Trazado 601923" d="M153.8,19.769c-.192-.149-1.847-3.667-4.814-4.2-2.85-.519-3.267.44-3.272.449-.32-.26.154-1.408,3.341-.831,3.167.575,4.85,4.159,4.92,4.312-.121.268-.149.274-.176.274" transform="translate(-26.682 -2.752)" fill="#1a1a1a"/>
        <path id="Trazado_601924" data-name="Trazado 601924" d="M146.89,26.482a1.488,1.488,0,0,1-1.181-.714,2.829,2.829,0,0,1,.066-2.161c-.985-1.819-4.978-2.325-5.019-2.329.225-.363,4.4.166,5.4,2.236,0,.173-.51,1.359-.114,2.068a1.1,1.1,0,0,0,.87.515c.15.315.067.386-.027.386" transform="translate(-25.789 -3.879)" fill="#1a1a1a"/>
        <path id="Trazado_601925" data-name="Trazado 601925" d="M216.183,110.159a8.337,8.337,0,0,1,.849-2.262,4.323,4.323,0,0,1-.678,2.161.2.2,0,0,1-.172.1m1.972-4a8.538,8.538,0,0,1,.7-2.314,4.355,4.355,0,0,1-.527,2.2.191.191,0,0,1-.176.113m1.693-4.126c-.167-.05-.218-.161-.182-.261.261-.7.51-1.4.741-2.1a4.234,4.234,0,0,1-.377,2.23.2.2,0,0,1-.182.126m1.411-4.227c-.156-.038-.216-.145-.185-.247.211-.717.409-1.438.589-2.142a4.214,4.214,0,0,1-.218,2.251.193.193,0,0,1-.185.139m1.1-4.319a10.947,10.947,0,0,1,.232-2.416,4.16,4.16,0,0,1-.042,2.262.194.194,0,0,1-.189.154m.751-4.392a12.193,12.193,0,0,1,.037-2.425,4.173,4.173,0,0,1,.155,2.257.194.194,0,0,1-.192.168m.351-4.442a4.607,4.607,0,0,1-.173-1.46c0-.318,0-.637-.011-.956a1.036,1.036,0,0,1,.4.956c0,.426-.007.851-.02,1.273a.194.194,0,0,1-.194.187M223.36,80.2a17.535,17.535,0,0,1-.434-2.381,4.046,4.046,0,0,1,.627,2.172c-.184.209-.189.209-.194.209m-.619-4.412a22.2,22.2,0,0,1-.7-2.308,4.023,4.023,0,0,1,.894,2.077c-.165.23-.177.231-.19.231m-1.177-4.3c-.429-.833-.7-1.527-.982-2.193a3.964,3.964,0,0,1,1.164,1.937c-.139.253-.161.256-.182.256" transform="translate(-39.609 -12.697)" fill="#1a1a1a"/>
        <path id="Trazado_601926" data-name="Trazado 601926" d="M209.438,57.893a2.139,2.139,0,0,1-.421-.425c.4-.121.485,0,.577.115-.074.3-.114.31-.155.31m-1.694-2.06c-.636-.617-1.151-1.153-1.674-1.661a3.97,3.97,0,0,1,1.817,1.338c-.051.307-.1.323-.144.323m-3.2-3.1c-.684-.513-1.274-.966-1.876-1.394a3.967,3.967,0,0,1,2,1.052c-.014.319-.068.342-.124.342m-3.626-2.575c-.737-.408-1.389-.766-2.04-1.089a3.889,3.889,0,0,1,2.139.73c.029.325-.033.359-.1.359m-3.985-1.982c-.744-.287-1.443-.538-2.153-.765a3.959,3.959,0,0,1,2.227.393c.075.327,0,.372-.074.372M192.7,46.822c-.748-.176-1.478-.324-2.213-.448a4,4,0,0,1,2.259.066c.12.322.042.381-.046.381m-15.462-.067c-.018-.39.775-.605,2.155-.822a14.915,14.915,0,0,1-2.1.815.181.181,0,0,1-.051.007m11.072-.674q-1.108-.111-2.229-.152a4.072,4.072,0,0,1,2.248-.234c.163.312.079.386-.019.386m-6.675-.033a4.123,4.123,0,0,1,2.219-.514,5.2,5.2,0,0,1-2.2.514Z" transform="translate(-32.473 -8.343)" fill="#1a1a1a"/>
        <path id="Trazado_601927" data-name="Trazado 601927" d="M142.061,166.129a9.69,9.69,0,1,1,9.388-7.269,11.128,11.128,0,0,1-.079-2.425,9.305,9.305,0,1,0-4.8,8.146,6.529,6.529,0,0,1-4.507,1.549" transform="translate(-24.252 -26.886)" fill="#1a1a1a"/>
        <path id="Trazado_601928" data-name="Trazado 601928" d="M17.937,129.692a7.482,7.482,0,0,1-1.075-.654,1.551,1.551,0,0,1,1.17.294c.038.325-.029.36-.1.36M15.3,127.609a10.053,10.053,0,0,1-1.558-1.814,6.831,6.831,0,0,1,1.7,1.487c-.043.31-.092.328-.14.328m-2.541-3.641a10.6,10.6,0,0,1-1.1-2.151,5.851,5.851,0,0,1,1.272,1.867c-.112.278-.142.283-.172.283m-1.656-4.134a10.871,10.871,0,0,1-.767-2.3,5.257,5.257,0,0,1,.953,2.05c-.148.247-.167.249-.186.249M10.078,115.5a5.952,5.952,0,0,1-.429-1.635c-.036-.244-.069-.489-.1-.736a.738.738,0,0,1,.485.68c.069.479.147.968.237,1.464-.169.226-.181.226-.191.226M9.5,111.086a9.808,9.808,0,0,1-.338-2.407,4.945,4.945,0,0,1,.532,2.2c-.182.211-.188.211-.194.211m-.185-4.449a8.909,8.909,0,0,1-.122-2.431,5.034,5.034,0,0,1,.314,2.24.192.192,0,0,1-.193.191m.263-4.447a8.11,8.11,0,0,1,.127-2.43,5.032,5.032,0,0,1,.065,2.259.192.192,0,0,1-.192.171m.769-4.387a7.241,7.241,0,0,1,.408-2.4,5.146,5.146,0,0,1-.219,2.248.194.194,0,0,1-.189.149" transform="translate(-1.678 -17.48)" fill="#1a1a1a"/>
        <path id="Trazado_601929" data-name="Trazado 601929" d="M15.733,83.408a4.917,4.917,0,0,1,1.02-1.914,4.087,4.087,0,0,1-.86,1.831.2.2,0,0,1-.16.082m2.6-3.31a5.41,5.41,0,0,1,1.4-1.941,5.275,5.275,0,0,1-1.26,1.878.189.189,0,0,1-.144.064m3.182-3.113a5.107,5.107,0,0,1,1.622-1.74,5.213,5.213,0,0,1-1.5,1.693.191.191,0,0,1-.127.047m3.565-2.668a4.876,4.876,0,0,1,1.81-1.515,5.157,5.157,0,0,1-1.7,1.484.193.193,0,0,1-.105.031m3.881-2.179a4.576,4.576,0,0,1,1.969-1.266,5.251,5.251,0,0,1-1.886,1.246.189.189,0,0,1-.083.02M33.1,70.491a4.427,4.427,0,0,1,2.1-.987,5.16,5.16,0,0,1-2.037.979.253.253,0,0,1-.06.007" transform="translate(-2.883 -12.735)" fill="#1a1a1a"/>
        <path id="Trazado_601930" data-name="Trazado 601930" d="M111.057,31.515h-4.069c0-.386,4.069-.386,4.069-.386.194.3.108.386,0,.386" transform="translate(-19.602 -5.703)" fill="#1a1a1a"/>
        <path id="Trazado_601931" data-name="Trazado 601931" d="M110.662,33.807h-2.619c0-.386,2.619-.386,2.619-.386.194.3.107.386,0,.386" transform="translate(-19.796 -6.123)" fill="#1a1a1a"/>
        <path id="Trazado_601932" data-name="Trazado 601932" d="M130.975,74.685a7.006,7.006,0,0,0-6.753-4.756,6.711,6.711,0,0,0-6.45,4.246c.586-2.822,3.325-4.631,6.45-4.631a7.043,7.043,0,0,1,6.939,4.9c-.151.243-.169.244-.186.244" transform="translate(-21.578 -12.742)" fill="#1a1a1a"/>
        <path id="Trazado_601933" data-name="Trazado 601933" d="M218.666,66.92a3.164,3.164,0,1,1,3.164-3.163,3.167,3.167,0,0,1-3.164,3.163m0-5.941a2.777,2.777,0,1,0,2.778,2.778,2.78,2.78,0,0,0-2.778-2.778" transform="translate(-39.485 -11.102)" fill="#1a1a1a"/>
        <path id="Trazado_601934" data-name="Trazado 601934" d="M12.008,92.928a3.163,3.163,0,1,1,3.163-3.164,3.167,3.167,0,0,1-3.163,3.164m0-5.94a2.777,2.777,0,1,0,2.777,2.776,2.779,2.779,0,0,0-2.777-2.776" transform="translate(-1.621 -15.867)" fill="#1a1a1a"/>
      </g>
    </g>
  </g>
</svg>
