<svg xmlns="http://www.w3.org/2000/svg" xmlns:xlink="http://www.w3.org/1999/xlink" width="85" height="85" viewBox="0 0 85 85">
  <defs>
    <clipPath id="clip-path">
      <rect id="Rectángulo_345394" data-name="Rectángulo 345394" width="57" height="50.765" fill="none"/>
    </clipPath>
  </defs>
  <g id="Grupo_1014957" data-name="Grupo 1014957" transform="translate(-758 -1264)">
    <g id="Grupo_1014726" data-name="Grupo 1014726" transform="translate(0 -36)">
      <circle id="Elipse_5595" data-name="Elipse 5595" cx="42.5" cy="42.5" r="42.5" transform="translate(758 1300)" fill="#a3bfe4"/>
      <g id="Grupo_1014724" data-name="Grupo 1014724" transform="translate(0.5 1.748)">
        <g id="Grupo_1014723" data-name="Grupo 1014723" transform="translate(771.5 1315.252)">
          <path id="Trazado_601619" data-name="Trazado 601619" d="M6.221,52.439l-.674,1.686V90.966l2.951.59v2.7H60.682V56.484l-.506-.616H57.816l-.759-3.429Z" transform="translate(-4.721 -44.641)" fill="#fff"/>
          <path id="Trazado_601620" data-name="Trazado 601620" d="M123.15,5.384V9.6h22.22l-.435-4.215Z" transform="translate(-104.837 -4.583)" fill="#fff"/>
          <g id="Grupo_1014722" data-name="Grupo 1014722">
            <g id="Grupo_1014721" data-name="Grupo 1014721" clip-path="url(#clip-path)">
              <path id="Trazado_601621" data-name="Trazado 601621" d="M57,90.922a1.853,1.853,0,0,1-1.865,1Q37.1,91.9,19.065,91.911a2.778,2.778,0,0,1-.61-.024.814.814,0,0,1-.7-.869.77.77,0,0,1,.723-.785A6.143,6.143,0,0,1,19.2,90.2q17.645,0,35.29,0h.808V53.167H53.951v.614q0,3.452,0,6.9a4.17,4.17,0,0,1-.031.61.792.792,0,0,1-.834.738.824.824,0,0,1-.837-.746,2.947,2.947,0,0,1-.019-.555q0-5.01,0-10.021v-.63H1.7V87.094H52.228V65.762c0-.148,0-.3,0-.445.011-.661.349-1.081.866-1.078s.85.41.852,1.09q.01,4.2,0,8.406,0,6.569,0,13.138a4.55,4.55,0,0,1-.069.884A1.315,1.315,0,0,1,52.665,88.8c-.24.017-.482.01-.723.01H4.815V90.2h9.409c.887,0,1.312.272,1.322.84.01.583-.436.872-1.349.872q-4.7,0-9.407,0c-1.2,0-1.727-.527-1.741-1.728,0-.426,0-.851,0-1.372-.542,0-1.052.006-1.562,0A1.371,1.371,0,0,1,0,87.322Q0,68.588,0,49.855a1.377,1.377,0,0,1,1.426-1.5c.185-.011.371-.006.556-.006H51.969c.185,0,.371,0,.556.009a1.376,1.376,0,0,1,1.412,1.412c.035.516.006,1.036.006,1.606,1.107.138,2.411-.347,3.056,1.019Z" transform="translate(0 -41.159)" fill="#161615"/>
              <path id="Trazado_601622" data-name="Trazado 601622" d="M69.572,103.542c-.912,0-1.838-.026-2.762.006a2.124,2.124,0,0,1-2.342-2.332c.044-.568.007-1.142.007-1.745H60.731c-.009.182-.022.36-.027.538a1.162,1.162,0,0,1-1.223,1.286q-3.784.038-7.57,0a1.171,1.171,0,0,1-1.249-1.316c-.012-.946-.013-1.893,0-2.839a1.148,1.148,0,0,1,1.289-1.258c.926-.006,1.852,0,2.821,0V92.74H46.953c-.026.051-.055.083-.057.115-.082,1.453-.336,1.695-1.775,1.7-.76,0-1.521.007-2.281.013-.033,0-.065.026-.131.055v5.364c.174.011.351.031.527.032.779,0,1.559-.012,2.338.007a1.206,1.206,0,0,1,1.3,1.224q.033,1.5,0,3.006a1.174,1.174,0,0,1-1.259,1.2q-3.757.012-7.514,0a1.18,1.18,0,0,1-1.3-1.214c-.035-.982-.032-1.967,0-2.95a1.218,1.218,0,0,1,1.327-1.265c.927-.017,1.854,0,2.826,0V94.552H38.425c-1.284,0-1.635-.358-1.636-1.664,0-.779-.008-1.559,0-2.338A1.255,1.255,0,0,1,38.2,89.136c.907-.017,1.815,0,2.76,0v-4.9a4.5,4.5,0,0,1-2.965-2.19,4.146,4.146,0,0,1-.509-2.842,4.417,4.417,0,0,1,8.715-.025,4.474,4.474,0,0,1-3.5,5.089v4.866h1.485c.445,0,.891-.012,1.336,0a1.247,1.247,0,0,1,1.365,1.393c0,.129,0,.257,0,.426h7.889v-3.1H52.308c-1.3,0-1.648-.353-1.649-1.65,0-.835-.01-1.67,0-2.505a1.173,1.173,0,0,1,1.281-1.279q3.729-.012,7.458,0a1.18,1.18,0,0,1,1.3,1.318q.011,1.392,0,2.783a1.207,1.207,0,0,1-1.349,1.332c-.907.009-1.813,0-2.763,0v8.03h2.539c1.224,0,1.544.313,1.576,1.532,0,.073.012.147.022.271h3.747v-.663c0-4.138.049-8.277-.014-12.414-.064-4.243.138-4.547,4.409-4.421.239.007.478,0,.729,0,.034-.16.062-.285.087-.41a1.151,1.151,0,0,1,1.234-1.036q3.785-.011,7.57,0a1.172,1.172,0,0,1,1.239,1.269q.014,1.447,0,2.895a1.164,1.164,0,0,1-1.2,1.256q-3.812.034-7.625,0a1.185,1.185,0,0,1-1.236-1.232c-.022-.328,0-.659,0-1.047-1.087,0-2.1-.013-3.119.007-.379.007-.395.31-.394.609,0,1.67,0,3.34,0,5.01v3.438h3.436c.017-.031.046-.061.049-.092.124-1.509.361-1.725,1.892-1.725q3.284,0,6.568,0c1.25,0,1.635.384,1.636,1.616,0,.817,0,1.633,0,2.449-.005.924-.434,1.352-1.37,1.353q-3.59.007-7.18,0c-1.127,0-1.469-.338-1.525-1.49,0-.09-.016-.18-.028-.311H66.15v1.907c0,2.171.011,4.342-.008,6.513,0,.484.158.663.642.65.924-.025,1.85-.007,2.871-.007,0-.324-.008-.612,0-.9a1.217,1.217,0,0,1,1.384-1.356q3.674,0,7.347,0a1.188,1.188,0,0,1,1.341,1.333c.006.928.008,1.856,0,2.783a1.19,1.19,0,0,1-1.27,1.305q-3.757.028-7.514,0c-.783-.005-1.042-.306-1.373-1.44M41.851,77.173a2.751,2.751,0,0,0-2.741,2.706,2.782,2.782,0,0,0,2.718,2.743,2.725,2.725,0,0,0,.023-5.45m10.524,8.934h6.619V84.132H52.376ZM71.4,82.41h6.6V80.448H71.4ZM38.54,92.837h6.6V90.9h-6.6Zm39.479-1.944H71.411V92.83h6.608Zm-19.01,6.694h-6.63v1.952h6.63Zm19.026,3.682H71.41v1.939h6.624Zm-32.881.509h-6.6v1.957h6.6Z" transform="translate(-31.307 -64.268)" fill="#161615"/>
              <path id="Trazado_601623" data-name="Trazado 601623" d="M90.985,1.715v2.25h20.669V1.715h-1.727c-.519,0-1.039.007-1.558,0-.715-.012-1.136-.352-1.111-.884.023-.514.436-.825,1.116-.825q3.061,0,6.121,0c1.317,0,2.634-.008,3.951,0a2.851,2.851,0,0,1,2.91,2.868,2.791,2.791,0,0,1-2.9,2.8q-14.134.009-28.268,0a2.36,2.36,0,0,1-.86-.17C88.093,5,86.871,4.47,85.639,3.964a1.186,1.186,0,0,1-.884-1.092,1.184,1.184,0,0,1,.9-1.134c1.2-.485,2.381-1.017,3.584-1.5A3.161,3.161,0,0,1,90.366.013Q97.155-.01,103.944.008c.216,0,.506-.005.633.121.215.214.48.554.443.8-.042.273-.362.551-.628.725a1.427,1.427,0,0,1-.708.061q-6.01,0-12.019,0h-.679M113.452,4c1.675,0,3.3.005,4.926,0a1.189,1.189,0,0,0,1.293-1.157,1.152,1.152,0,0,0-1.261-1.12c-1.11-.017-2.22-.005-3.33-.006h-1.627ZM87.395,2.853l1.85.768V2.081l-1.85.771" transform="translate(-72.152 0)" fill="#161615"/>
              <path id="Trazado_601624" data-name="Trazado 601624" d="M137.908,89.966q-2.417,0-4.835,0c-.679,0-1.078-.325-1.064-.854.014-.51.4-.813,1.048-.813q4.807,0,9.614,0c.679,0,1.08.325,1.064.853-.015.511-.4.814-1.048.814q-2.39,0-4.779,0" transform="translate(-112.379 -75.167)" fill="#161615"/>
              <path id="Trazado_601625" data-name="Trazado 601625" d="M137.846,267.425q-2.39,0-4.779,0c-.673,0-1.075-.333-1.055-.862.02-.51.4-.805,1.055-.806q4.807,0,9.614,0c.654,0,1.035.3,1.055.806.02.529-.382.861-1.056.862q-2.417,0-4.835,0" transform="translate(-112.381 -226.236)" fill="#161615"/>
              <path id="Trazado_601626" data-name="Trazado 601626" d="M119.212,89.121a.833.833,0,1,1-.865-.815.819.819,0,0,1,.865.815" transform="translate(-100.066 -75.174)" fill="#161615"/>
              <path id="Trazado_601627" data-name="Trazado 601627" d="M118.38,265.765a.834.834,0,1,1-.833.847.818.818,0,0,1,.833-.847" transform="translate(-100.067 -226.244)" fill="#161615"/>
              <path id="Trazado_601628" data-name="Trazado 601628" d="M55.221,86.782a2.725,2.725,0,0,1-.023,5.45,2.782,2.782,0,0,1-2.718-2.743,2.751,2.751,0,0,1,2.741-2.706" transform="translate(-44.676 -73.877)" fill="#fff"/>
              <rect id="Rectángulo_345387" data-name="Rectángulo 345387" width="6.619" height="1.975" transform="translate(21.069 19.864)" fill="#fff"/>
              <rect id="Rectángulo_345388" data-name="Rectángulo 345388" width="6.605" height="1.962" transform="translate(40.098 16.18)" fill="#fff"/>
              <rect id="Rectángulo_345389" data-name="Rectángulo 345389" width="6.597" height="1.941" transform="translate(7.233 26.627)" fill="#fff"/>
              <rect id="Rectángulo_345390" data-name="Rectángulo 345390" width="6.608" height="1.936" transform="translate(40.104 26.625)" fill="#fff"/>
              <rect id="Rectángulo_345391" data-name="Rectángulo 345391" width="6.63" height="1.952" transform="translate(21.073 33.319)" fill="#fff"/>
              <rect id="Rectángulo_345392" data-name="Rectángulo 345392" width="6.624" height="1.939" transform="translate(40.104 37.002)" fill="#fff"/>
              <rect id="Rectángulo_345393" data-name="Rectángulo 345393" width="6.596" height="1.957" transform="translate(7.251 37.511)" fill="#fff"/>
              <path id="Trazado_601629" data-name="Trazado 601629" d="M277.735,13.8V11.517h1.627c1.11,0,2.22-.011,3.33.006a1.152,1.152,0,0,1,1.261,1.12A1.19,1.19,0,0,1,282.66,13.8c-1.625.008-3.25,0-4.925,0" transform="translate(-236.434 -9.801)" fill="#fff"/>
              <path id="Trazado_601630" data-name="Trazado 601630" d="M102.5,14.768l1.85-.771v1.539l-1.85-.768" transform="translate(-87.261 -11.916)" fill="#fff"/>
            </g>
          </g>
        </g>
      </g>
    </g>
  </g>
</svg>
