<svg xmlns="http://www.w3.org/2000/svg" xmlns:xlink="http://www.w3.org/1999/xlink" width="62" height="62" viewBox="0 0 62 62">
  <defs>
    <clipPath id="clip-path">
      <rect id="Rect치ngulo_345571" data-name="Rect치ngulo 345571" width="33" height="33" transform="translate(0.277 0.276)" fill="none" stroke="#7a7171" stroke-width="1"/>
    </clipPath>
  </defs>
  <g id="Grupo_1014932" data-name="Grupo 1014932" transform="translate(-273 -12906)">
    <g id="Grupo_1014856" data-name="Grupo 1014856" transform="translate(-111.999 10848)">
      <path id="Uni칩n_12" data-name="Uni칩n 12" d="M44.385,58.97a31.027,31.027,0,1,1,10.348-8.025L58.991,62Z" transform="translate(384.999 2058)" fill="#a3bfe4"/>
      <circle id="Elipse_4842" data-name="Elipse 4842" cx="26" cy="26" r="26" transform="translate(389.999 2063)" fill="#fff"/>
    </g>
    <g id="Grupo_1014895" data-name="Grupo 1014895" transform="translate(2.723 2.724)">
      <g id="Grupo_1014894" data-name="Grupo 1014894" transform="translate(285 12917)">
        <g id="Grupo_1014893" data-name="Grupo 1014893" transform="translate(0 0)" clip-path="url(#clip-path)">
          <path id="Trazado_604592" data-name="Trazado 604592" d="M18.8,33.324A7.63,7.63,0,0,1,17.791,33a3.544,3.544,0,0,1-2.172-3.408c-.012-3.98,0-7.96,0-11.94v-.411a8.677,8.677,0,0,0-2.454.551A6.734,6.734,0,0,0,11.1,19a1.01,1.01,0,0,1-1.365.016,7.064,7.064,0,0,0-6.822-1.409,13.421,13.421,0,0,0-1.4.507A1.04,1.04,0,0,1,0,17.089,14.729,14.729,0,0,1,4.7,6.309,17,17,0,0,1,14.949,1.643c.213-.023.427-.033.667-.051,0-.211-.006-.394,0-.576a1.039,1.039,0,0,1,2.078,0c.008.182,0,.364,0,.546.683.089,1.344.136,1.988.266,5.876,1.181,10.221,4.321,12.6,9.932a13.253,13.253,0,0,1,.969,4.127,3.075,3.075,0,0,0,.058.316v1.237c-.426.775-.86.938-1.611.633a10.971,10.971,0,0,0-1.312-.473,7.081,7.081,0,0,0-6.821,1.419.992.992,0,0,1-1.339-.008,7.028,7.028,0,0,0-2.895-1.481c-.526-.141-1.068-.218-1.628-.329-.007.127-.013.179-.013.232q0,6.116,0,12.232a1.56,1.56,0,0,0,3.12.049,1.042,1.042,0,1,1,2.081.039,3.657,3.657,0,0,1-2.69,3.437l-.5.13ZM21.8,16.242c0-.162.01-.27,0-.376-.151-1.367-.251-2.742-.471-4.1a15.2,15.2,0,0,0-1.871-5.434,6.678,6.678,0,0,0-2.391-2.472.66.66,0,0,0-.809.006,13.468,13.468,0,0,0-1.492,1.238,9.43,9.43,0,0,0-1.878,3.277,23.887,23.887,0,0,0-1.3,6.475c-.035.445-.056.891-.086,1.4a11.715,11.715,0,0,1,5.16-1.153A11.706,11.706,0,0,1,21.8,16.242m-12.4.016c.014-.131.022-.213.032-.3.176-1.581.29-3.172.542-4.74a16.568,16.568,0,0,1,1.991-5.769c.254-.436.545-.851.855-1.332A14.607,14.607,0,0,0,4.866,9.238a12.679,12.679,0,0,0-2.686,6.4,9.611,9.611,0,0,1,7.215.619M20.539,4.167A14.519,14.519,0,0,1,22.2,7.18a25.263,25.263,0,0,1,1.615,7.592c.038.481.063.962.1,1.489a9.565,9.565,0,0,1,7.166-.639c.178-1.519-1.411-5.058-3.158-7.019a14.369,14.369,0,0,0-7.381-4.437" transform="translate(0.001 0.23)" fill="#566377"/>
          <path id="Trazado_604593" data-name="Trazado 604593" d="M142.543,55.376a12.141,12.141,0,0,0-10.3.013c.031-.506.051-.952.086-1.4a23.886,23.886,0,0,1,1.3-6.475,9.43,9.43,0,0,1,1.878-3.277A13.479,13.479,0,0,1,137,43a.66.66,0,0,1,.809-.006,6.677,6.677,0,0,1,2.391,2.472A15.2,15.2,0,0,1,142.07,50.9c.22,1.356.32,2.731.471,4.1.012.106,0,.214,0,.376" transform="translate(-120.745 -38.905)" fill="#fff"/>
          <path id="Trazado_604594" data-name="Trazado 604594" d="M32.291,59.528a9.611,9.611,0,0,0-7.215-.619,12.68,12.68,0,0,1,2.686-6.4,14.607,14.607,0,0,1,7.948-5.117c-.31.48-.6.9-.855,1.332a16.57,16.57,0,0,0-1.991,5.769c-.252,1.569-.366,3.159-.542,4.74-.009.083-.018.165-.032.3" transform="translate(-22.896 -43.041)" fill="#fff"/>
          <path id="Trazado_604595" data-name="Trazado 604595" d="M236.283,47.933a14.369,14.369,0,0,1,7.381,4.437c1.747,1.961,3.336,5.5,3.158,7.019a9.565,9.565,0,0,0-7.166.639c-.034-.527-.06-1.009-.1-1.489a25.264,25.264,0,0,0-1.615-7.592,14.52,14.52,0,0,0-1.661-3.013" transform="translate(-215.743 -43.536)" fill="#fff"/>
        </g>
      </g>
    </g>
  </g>
</svg>
