<svg xmlns="http://www.w3.org/2000/svg" xmlns:xlink="http://www.w3.org/1999/xlink" width="62" height="62" viewBox="0 0 62 62">
  <defs>
    <clipPath id="clip-path">
      <rect id="Rectángulo_345576" data-name="Rectángulo 345576" width="33.597" height="33.605" fill="none"/>
    </clipPath>
  </defs>
  <g id="Grupo_1014933" data-name="Grupo 1014933" transform="translate(-521 -12906)">
    <g id="Grupo_1014855" data-name="Grupo 1014855" transform="translate(136.001 10848)">
      <path id="Unión_12" data-name="Unión 12" d="M44.385,58.97a31.027,31.027,0,1,1,10.348-8.025L58.991,62Z" transform="translate(384.999 2058)" fill="#a3bfe4"/>
      <circle id="Elipse_4842" data-name="Elipse 4842" cx="26" cy="26" r="26" transform="translate(389.999 2063)" fill="#fff"/>
    </g>
    <g id="Grupo_1014901" data-name="Grupo 1014901" transform="translate(535 12920)">
      <g id="Grupo_1014900" data-name="Grupo 1014900" clip-path="url(#clip-path)">
        <path id="Trazado_604596" data-name="Trazado 604596" d="M28.326,31.627H26.339c-2.228,0-4.457,0-6.685-.005a.351.351,0,0,0-.4.269A2.6,2.6,0,0,1,16.795,33.6a2.631,2.631,0,0,1-2.458-1.719c-.057-.148-.092-.264-.3-.263-2.876.009-5.752.006-8.628.008a1,1,0,0,0-.134.024c0,.388,0,.779,0,1.17,0,.537-.248.779-.791.78q-1.844,0-3.688,0C.247,33.6,0,33.36,0,32.82Q0,30.959,0,29.1a.678.678,0,0,1,.773-.765c.362,0,.725,0,1.087,0a1.042,1.042,0,0,0,.115-.02v-.3q0-4.167,0-8.334a.37.37,0,0,0-.284-.425A2.59,2.59,0,0,1,0,16.814a2.624,2.624,0,0,1,1.7-2.468c.158-.061.28-.1.279-.326-.011-2.877-.008-5.753-.009-8.63,0-.022-.006-.043-.017-.118-.369,0-.748,0-1.127,0-.6,0-.829-.23-.83-.841Q0,2.619,0,.808C0,.244.241,0,.8,0Q2.645,0,4.489,0c.538,0,.778.246.781.79,0,.382,0,.764,0,1.169.129.006.235.016.341.016,2.766,0,5.533,0,8.3.007a.392.392,0,0,0,.446-.3,2.618,2.618,0,0,1,4.89.006c.065.167.106.3.348.3,2.843-.011,5.686-.007,8.529-.008.053,0,.107-.006.2-.012,0-.4,0-.791,0-1.182,0-.539.246-.781.789-.782Q30.96,0,32.8,0c.544,0,.789.242.791.78q0,1.861,0,3.722a.678.678,0,0,1-.772.767c-.384,0-.768,0-1.2,0V5.6q0,4.167,0,8.334a.37.37,0,0,0,.282.426,2.613,2.613,0,0,1,.023,4.886.4.4,0,0,0-.309.442c.011,2.767.007,5.534.007,8.3v.349c.388,0,.766,0,1.145,0,.6,0,.83.23.831.84q0,1.812,0,3.623c0,.565-.239.805-.8.807q-1.844,0-3.688,0c-.538,0-.778-.246-.782-.789,0-.382,0-.765,0-1.186m0-28.313c-.081-.01-.114-.017-.146-.017-2.865,0-5.73,0-8.595-.008-.222,0-.267.111-.33.274a2.616,2.616,0,0,1-4.9.016.373.373,0,0,0-.423-.288Q9.766,3.3,5.6,3.3c-.105,0-.21.009-.306.014a.642.642,0,0,0-.02.1c0,.351,0,.7,0,1.054,0,.58-.237.81-.826.812-.379,0-.758,0-1.132,0-.009.082-.016.114-.016.147,0,2.866,0,5.731-.008,8.6,0,.224.113.267.275.329A2.622,2.622,0,0,1,5.27,16.776a2.6,2.6,0,0,1-1.693,2.47.373.373,0,0,0-.287.424q.011,4.167,0,8.333v.329h1.1c.669,0,.877.213.877.893,0,.357,0,.715,0,1.066.082.009.115.016.147.016,2.865,0,5.73,0,8.595.008.224,0,.266-.114.328-.276a2.622,2.622,0,0,1,2.432-1.706,2.594,2.594,0,0,1,2.47,1.693.373.373,0,0,0,.423.288Q23.831,30.3,28,30.309c.105,0,.21-.009.33-.015,0-.4,0-.776,0-1.149,0-.58.237-.81.826-.812.379,0,.758,0,1.132,0,.01-.082.016-.114.016-.146,0-2.866,0-5.731.008-8.6,0-.223-.112-.267-.275-.329a2.618,2.618,0,0,1-.016-4.9.373.373,0,0,0,.289-.422Q30.3,9.769,30.3,5.6c0-.105-.009-.21-.015-.331-.414,0-.8,0-1.181,0-.536,0-.776-.248-.779-.792,0-.382,0-.764,0-1.165M1.333,3.937h2.6V1.342h-2.6Zm28.325-.006h2.594V1.336H29.658ZM1.342,32.26H3.936V29.665H1.342Zm28.316,0h2.594V29.668H29.658ZM16.8,3.954a1.317,1.317,0,1,0-1.319-1.314A1.324,1.324,0,0,0,16.8,3.954M2.647,15.486a1.317,1.317,0,1,0,1.305,1.328,1.323,1.323,0,0,0-1.305-1.328m28.322,2.634a1.317,1.317,0,1,0-1.324-1.309,1.323,1.323,0,0,0,1.324,1.309M16.787,32.285a1.317,1.317,0,1,0-1.305-1.328,1.324,1.324,0,0,0,1.305,1.328" transform="translate(0 0)" fill="#627289"/>
        <rect id="Rectángulo_345572" data-name="Rectángulo 345572" width="2.6" height="2.595" transform="translate(1.333 1.342)" fill="#fff"/>
        <rect id="Rectángulo_345573" data-name="Rectángulo 345573" width="2.594" height="2.595" transform="translate(29.658 1.336)" fill="#fff"/>
        <rect id="Rectángulo_345574" data-name="Rectángulo 345574" width="2.594" height="2.595" transform="translate(1.342 29.665)" fill="#fff"/>
        <rect id="Rectángulo_345575" data-name="Rectángulo 345575" width="2.594" height="2.595" transform="translate(29.658 29.668)" fill="#fff"/>
        <path id="Trazado_604597" data-name="Trazado 604597" d="M177.288,17.631a1.317,1.317,0,1,1,1.314-1.32,1.324,1.324,0,0,1-1.314,1.32" transform="translate(-160.487 -13.678)" fill="#fff"/>
        <path id="Trazado_604598" data-name="Trazado 604598" d="M16.324,176.007A1.317,1.317,0,1,1,15,177.312a1.323,1.323,0,0,1,1.328-1.306" transform="translate(-13.677 -160.521)" fill="#fff"/>
        <path id="Trazado_604599" data-name="Trazado 604599" d="M338.266,178.641a1.317,1.317,0,1,1,1.309-1.324,1.323,1.323,0,0,1-1.309,1.324" transform="translate(-307.297 -160.521)" fill="#fff"/>
        <path id="Trazado_604600" data-name="Trazado 604600" d="M177.275,339.65a1.317,1.317,0,1,1,1.328-1.306,1.324,1.324,0,0,1-1.328,1.306" transform="translate(-160.488 -307.365)" fill="#fff"/>
        <path id="Trazado_604601" data-name="Trazado 604601" d="M85.092,104.576H75.709c-.613,0-.824-.214-.824-.835q0-8.365,0-16.729c0-.67.212-.878.891-.878H94.411c.681,0,.894.208.894.876q0,8.315,0,16.63c0,.055,0,.11,0,.165-.016.541-.253.772-.8.772H85.092m-.884-7.364c.083-.125.152-.223.215-.325q1.143-1.827,2.285-3.655c.43-.686.909-.7,1.364-.034l5.669,8.244c.062.091.13.178.222.3V87.477H76.233v14.461c.125-.16.214-.271.3-.384Q79,98.342,81.464,95.13c.459-.6.9-.584,1.328.037l1.416,2.045m3.222-2.618c-.077.111-.135.188-.186.269-.686,1.1-1.367,2.2-2.061,3.29a.372.372,0,0,0,.014.49q1.53,2.183,3.036,4.383a.477.477,0,0,0,.45.244c1.46-.011,2.919-.005,4.379-.006.092,0,.183-.011.32-.02l-5.951-8.65M76.9,103.238h9.891L82.1,96.477l-5.2,6.761" transform="translate(-68.296 -78.554)" fill="#566377"/>
        <path id="Trazado_604602" data-name="Trazado 604602" d="M98.181,111.143,96.765,109.1c-.43-.621-.869-.634-1.328-.037q-2.466,3.211-4.931,6.424c-.087.113-.175.224-.3.384V101.408h17.731v14.269c-.092-.125-.16-.212-.222-.3l-5.669-8.244c-.455-.662-.935-.652-1.364.034q-1.144,1.826-2.285,3.655c-.063.1-.132.2-.215.325m-4.708-4.492a1.976,1.976,0,1,0-1.979-1.964,1.985,1.985,0,0,0,1.979,1.964" transform="translate(-82.27 -92.486)" fill="#fff"/>
        <path id="Trazado_604603" data-name="Trazado 604603" d="M193.3,182.3l5.951,8.65c-.136.009-.228.02-.32.02-1.46,0-2.919,0-4.379.006a.477.477,0,0,1-.45-.244q-1.507-2.2-3.036-4.383a.372.372,0,0,1-.014-.49c.695-1.092,1.375-2.193,2.061-3.29.051-.082.109-.159.186-.27" transform="translate(-174.163 -166.257)" fill="#fff"/>
        <path id="Trazado_604604" data-name="Trazado 604604" d="M97.8,210.467l5.2-6.761,4.687,6.761Z" transform="translate(-89.194 -185.784)" fill="#fff"/>
        <path id="Trazado_604605" data-name="Trazado 604605" d="M106.822,120.051a1.975,1.975,0,1,1,1.971-1.971,1.985,1.985,0,0,1-1.971,1.971m.006-1.319a.657.657,0,1,0-.666-.663.666.666,0,0,0,.666.663" transform="translate(-95.619 -105.885)" fill="#627289"/>
        <path id="Trazado_604606" data-name="Trazado 604606" d="M120.5,132.4a.657.657,0,1,1,.646-.683.665.665,0,0,1-.646.683" transform="translate(-109.29 -119.557)" fill="#fff"/>
      </g>
    </g>
  </g>
</svg>
