<svg xmlns="http://www.w3.org/2000/svg" xmlns:xlink="http://www.w3.org/1999/xlink" width="62" height="62" viewBox="0 0 62 62">
  <defs>
    <clipPath id="clip-path">
      <rect id="Rect치ngulo_345577" data-name="Rect치ngulo 345577" width="41.403" height="35.531" fill="none"/>
    </clipPath>
  </defs>
  <g id="Grupo_1014934" data-name="Grupo 1014934" transform="translate(-769 -12906)">
    <g id="Grupo_1014857" data-name="Grupo 1014857" transform="translate(384.001 10848)">
      <path id="Uni칩n_12" data-name="Uni칩n 12" d="M44.385,58.97a31.027,31.027,0,1,1,10.348-8.025L58.991,62Z" transform="translate(384.999 2058)" fill="#a3bfe4"/>
      <circle id="Elipse_4842" data-name="Elipse 4842" cx="26" cy="26" r="26" transform="translate(389.999 2063)" fill="#fff"/>
    </g>
    <g id="Grupo_1014902" data-name="Grupo 1014902" transform="translate(779.561 12919.461)">
      <g id="Grupo_1014902-2" data-name="Grupo 1014902" clip-path="url(#clip-path)">
        <path id="Trazado_604607" data-name="Trazado 604607" d="M0,49.081c.184-.194.363-.392.551-.581q4.714-4.716,9.425-9.436a1.283,1.283,0,0,1,.991-.421q9.74.018,19.48,0a1.2,1.2,0,0,1,.929.375q4.8,4.826,9.626,9.635c.539.539.537.751-.014,1.3L21.326,69.619c-.513.513-.747.509-1.272-.016Q10.209,59.758.365,49.912C.233,49.78.121,49.628,0,49.485v-.4M18.328,66.027c-.035-.074-.1-.215-.167-.353q-3.951-7.9-7.912-15.8a1.055,1.055,0,0,1,.067-1.188c1.369-2.112,2.712-4.241,4.063-6.365.079-.123.15-.251.24-.4-1.236-.618-2.448-1.232-3.672-1.819-.1-.046-.321.052-.42.15q-4.1,4.076-8.178,8.168c-.068.068-.121.15-.218.271H4.987c1.037,0,2.075,0,3.112,0,.484,0,.756.268.72.671-.031.349-.275.537-.72.537q-2.748,0-5.5,0H2.2L18.328,66.027M29.61,48.668c-.1-.172-.172-.287-.243-.4-1.2-1.884-2.4-3.765-3.591-5.656a.625.625,0,0,0-.613-.331q-4.463.016-8.926,0a.624.624,0,0,0-.615.327c-1.2,1.9-2.407,3.794-3.612,5.69-.069.109-.129.223-.212.369ZM11.64,49.92,19.981,66.6l.077-.022V49.92Zm9.7,0v16.66l.074.019,8.339-16.679ZM39.188,49.9h-.317c-2.452,0-4.9.006-7.357-.007a.55.55,0,0,0-.578.363q-3.86,7.751-7.738,15.494c-.057.114-.1.234-.114.256l16.1-16.1M26.794,41.91a1.128,1.128,0,0,0,.07.17c1.358,2.134,2.713,4.27,4.087,6.394a.624.624,0,0,0,.461.2c2.5.013,5.009.009,7.514.008.1,0,.2-.018.294-.027l.067-.108a2.742,2.742,0,0,1-.357-.259q-2.989-2.981-5.972-5.968c-.7-.7-1.4-1.414-2.12-2.107a.459.459,0,0,0-.391-.116c-1.222.589-2.433,1.2-3.652,1.81M13.416,39.887l-.02.059c.654.328,1.3.664,1.966.977a1.492,1.492,0,0,0,.611.148q4.724.014,9.449.006a.878.878,0,0,0,.358-.025c.745-.358,1.482-.732,2.222-1.1l-.021-.062Z" transform="translate(0 -34.469)" fill="#566377"/>
        <path id="Trazado_604608" data-name="Trazado 604608" d="M187.194,1.2c0,.215.016.431,0,.643a.563.563,0,0,1-.6.566.544.544,0,0,1-.579-.548,11.67,11.67,0,0,1,0-1.286.592.592,0,0,1,.6-.578.608.608,0,0,1,.586.6c.017.2,0,.4,0,.6h0" transform="translate(-165.9 0)" fill="#627289"/>
        <path id="Trazado_604609" data-name="Trazado 604609" d="M212.985,6.716c-.277.6-.482,1.128-.76,1.611a.487.487,0,0,1-.69.114.537.537,0,0,1-.3-.675,6.436,6.436,0,0,1,.536-1.256.747.747,0,0,1,.626-.281c.209.038.376.3.587.486" transform="translate(-188.39 -5.552)" fill="#627289"/>
        <path id="Trazado_604610" data-name="Trazado 604610" d="M157.268,5.871a1.41,1.41,0,0,1,.405.364,8.443,8.443,0,0,1,.484,1.15.6.6,0,0,1-1.1.46,11.692,11.692,0,0,1-.491-1.192c-.133-.389.174-.784.7-.781" transform="translate(-139.629 -5.237)" fill="#627289"/>
        <path id="Trazado_604611" data-name="Trazado 604611" d="M35.941,77.94,19.813,61.812h.4q2.748,0,5.5,0c.445,0,.689-.189.72-.537.036-.4-.236-.668-.72-.671-1.037-.007-2.075,0-3.112,0H19.745c.1-.121.15-.2.218-.271q4.085-4.088,8.178-8.168c.1-.1.323-.2.42-.15,1.224.587,2.436,1.2,3.672,1.819-.089.15-.161.278-.24.4C30.642,56.354,29.3,58.483,27.93,60.6a1.055,1.055,0,0,0-.067,1.188q3.971,7.894,7.911,15.8c.069.138.132.28.167.353" transform="translate(-17.612 -46.382)" fill="#fff"/>
        <path id="Trazado_604612" data-name="Trazado 604612" d="M127.042,78.725H109.23c.083-.146.143-.26.212-.369,1.205-1.9,2.417-3.787,3.612-5.69a.624.624,0,0,1,.615-.327q4.463.016,8.926,0a.624.624,0,0,1,.613.331c1.188,1.891,2.392,3.771,3.591,5.655.071.112.139.227.243.4" transform="translate(-97.432 -64.527)" fill="#fff"/>
        <path id="Trazado_604613" data-name="Trazado 604613" d="M107.767,143.055h8.418v16.66l-.077.022-8.341-16.683" transform="translate(-96.127 -127.604)" fill="#fff"/>
        <path id="Trazado_604614" data-name="Trazado 604614" d="M197.578,143.077h8.413l-8.339,16.679-.074-.019Z" transform="translate(-176.238 -127.624)" fill="#fff"/>
        <path id="Trazado_604615" data-name="Trazado 604615" d="M229.83,142.8l-16.1,16.1c.01-.022.057-.141.115-.256q3.871-7.746,7.738-15.494a.55.55,0,0,1,.578-.363c2.452.013,4.9.007,7.357.007Z" transform="translate(-190.642 -127.366)" fill="#fff"/>
        <path id="Trazado_604616" data-name="Trazado 604616" d="M248.071,53.835c1.218-.609,2.43-1.22,3.652-1.81a.459.459,0,0,1,.391.116c.716.693,1.415,1.4,2.12,2.107q2.985,2.985,5.972,5.968a2.75,2.75,0,0,0,.357.259l-.067.108c-.1.01-.2.027-.294.027-2.5,0-5.009,0-7.514-.008a.624.624,0,0,1-.461-.2c-1.373-2.124-2.729-4.26-4.087-6.394a1.13,1.13,0,0,1-.07-.169" transform="translate(-221.277 -46.393)" fill="#fff"/>
        <path id="Trazado_604617" data-name="Trazado 604617" d="M124.051,50.157h14.565l.021.062c-.74.369-1.477.743-2.222,1.1a.878.878,0,0,1-.358.025q-4.724,0-9.449-.006a1.492,1.492,0,0,1-.611-.148c-.662-.312-1.312-.649-1.966-.977l.02-.059" transform="translate(-110.635 -44.74)" fill="#fff"/>
      </g>
    </g>
  </g>
</svg>
