<svg id="Grupo_159154" data-name="Grupo 159154" xmlns="http://www.w3.org/2000/svg" xmlns:xlink="http://www.w3.org/1999/xlink" width="220.629" height="140.523" viewBox="0 0 220.629 140.523">
  <defs>
    <clipPath id="clip-path">
      <rect id="Rectángulo_44501" data-name="Rectángulo 44501" width="220.629" height="140.523" fill="none"/>
    </clipPath>
  </defs>
  <g id="Grupo_156607" data-name="Grupo 156607" clip-path="url(#clip-path)">
    <path id="Trazado_598926" data-name="Trazado 598926" d="M78.688,42.991A11.089,11.089,0,1,1,67.6,31.9,11.089,11.089,0,0,1,78.688,42.991" transform="translate(-6.925 -3.909)" fill="#fff198"/>
    <path id="Trazado_598927" data-name="Trazado 598927" d="M212.3,64.384l-.162,4.139a14.157,14.157,0,0,0-2.4,1.479,28.157,28.157,0,0,0,1.711,2.28s.076,4.489,3.274,4.89a12.449,12.449,0,0,0,2.589,0l.152,4.5s3.3-1.994,4.5-2.079a15.451,15.451,0,0,1,.094-4.866,12.265,12.265,0,0,1,.966-2.741s2.032-.859,1.789-2.651a2.8,2.8,0,0,0-2.366-2.511,9.1,9.1,0,0,0-2.194.7,11.471,11.471,0,0,1-1.559-2.867,10.265,10.265,0,0,1-.191-3.429,15.769,15.769,0,0,0-3.88,1.15c-2.061.912-2.3,1.568-2.3,1.568Z" transform="translate(-25.701 -7.504)" fill="#fff"/>
    <path id="Trazado_598928" data-name="Trazado 598928" d="M91.153,145.216c-4.227.041-4.851.854-4.851.854-.062.342-3.356.445-4.2,2.853a5.443,5.443,0,0,0,1.15,5.452,9.539,9.539,0,0,0,2.935,1.2l.11,1.714a11.864,11.864,0,0,0,5.267.785c3.627-.071,4.669-.585,4.669-.585V146.153s-.858-.978-5.085-.937M83.346,150.5c.116-2.517,1.327-2.125,2.893-2.367l.063,5.878s-3.073-.957-2.956-3.511" transform="translate(-10.026 -17.794)" fill="#1a1a1a"/>
    <path id="Trazado_598929" data-name="Trazado 598929" d="M19.215,85.486a52.76,52.76,0,0,0-5,3.5A95.871,95.871,0,0,0,7.176,99.466,62.37,62.37,0,0,0,.93,116.255c-.511,3.47-1.39,9.692,1.147,14.244S7.2,135.672,7.2,135.672v11.4l39.45.052s-.872-7.9-.483-9.893l5.748,8.907a20.531,20.531,0,0,0,6.652-2.217,45.832,45.832,0,0,0,4.565-2.957l-9.282-35.223S50.2,93.82,48.009,90.877s-4.615-5.84-12.98-7.533Z" transform="translate(-0.044 -10.213)" fill="#1a1a1a"/>
    <path id="Trazado_598930" data-name="Trazado 598930" d="M151.168,151.288H106.977a3.218,3.218,0,0,1-3.219-3.219V120.555a3.218,3.218,0,0,1,3.219-3.218h44.192a3.218,3.218,0,0,1,3.219,3.218v27.514a3.218,3.218,0,0,1-3.219,3.219" transform="translate(-12.714 -14.378)" fill="#1a1a1a"/>
    <path id="Trazado_598931" data-name="Trazado 598931" d="M117.478,99.38l2.939,14.275-18.3.088s-2.848.393-3.2,2.808v3.069a32.683,32.683,0,0,1-13.5-1.743c-6.813-2.515-10.864-5.811-13.851-10.1a40.481,40.481,0,0,1-4.917-10.1c-.414-1.233-2.405-7.87-2.405-7.87s2.073,1.667,8.077.466,6.9-2.99,6.9-2.99.673,7.147,4.322,11.074,7.807,6.162,15.844,5.089c0,0,7.173-1.861,10.337-2.52s7.748-1.553,7.748-1.553" transform="translate(-7.873 -10.696)" fill="#33ece0"/>
    <path id="Trazado_598932" data-name="Trazado 598932" d="M42.641,63.21s.015,6.875.042,8.127-.491,5.077-3.791,5.065l-.411,3.947-.931,5.433-5.328-4.135a4.361,4.361,0,0,0,3.169-4.178c.174-3.494-3.306-6.131-3.306-6.131s-3.143.62-3.557-2.437a2.466,2.466,0,0,1,1.8-2.33c1.758-.388,1.894.068,1.894.068a10.847,10.847,0,0,0,3.623-2.888A15.02,15.02,0,0,0,38.4,58.9,29.411,29.411,0,0,1,41.052,61.2c.717.8,1.589,2.007,1.589,2.007" transform="translate(-3.496 -7.217)" fill="#fff"/>
    <path id="Trazado_598933" data-name="Trazado 598933" d="M125.769,75.849s-.168,6.776-.125,8.3-.5,5.23,3.495,6.041l-.009,3.919,4.749,7.028,4.817-7.028-.472-9.371s4.058,1.354,4.136-3.105c0,0,.233-2.055-2.939-2.549a2.936,2.936,0,0,0-2.155,1.01s-1.406-.544-2.628-3.01-1.044-3.639-1.044-3.639a6.885,6.885,0,0,1-3.758,2.331,18.689,18.689,0,0,1-4.066.075" transform="translate(-15.395 -9)" fill="#fff"/>
    <path id="Trazado_598934" data-name="Trazado 598934" d="M125.388,78.013l.1-3.189a8.927,8.927,0,0,0,3.859,0,21.023,21.023,0,0,0,3.979-2.223s.641,4.952,3.658,6.467a1.981,1.981,0,0,1,2-.972,9.243,9.243,0,0,1,2.279.7,8.443,8.443,0,0,0,1.279-4.182c.138-2.594-.668-4.245-1.877-4.636a32.732,32.732,0,0,0-5.038-.566s-2.3-3.853-4.722-4.225a6.5,6.5,0,0,0-5.517,1.4,4.949,4.949,0,0,0-.852,6.005,1.914,1.914,0,0,0-1.209,1.917,4.532,4.532,0,0,0,2.061,3.505" transform="translate(-15.112 -7.975)" fill="#ffce26"/>
    <path id="Trazado_598935" data-name="Trazado 598935" d="M66.595,87.5l.549,3.222s-2.925-.077-2.964-1.1,2.415-2.12,2.415-2.12" transform="translate(-7.864 -10.722)" fill="#ffce26"/>
    <path id="Trazado_598936" data-name="Trazado 598936" d="M78.907,85.8v2.895S81.275,87.278,81,86.632s-2.094-.833-2.094-.833" transform="translate(-9.669 -10.514)" fill="#ffce26"/>
    <path id="Trazado_598937" data-name="Trazado 598937" d="M134.465,85.718A2.978,2.978,0,0,0,133.236,87a2.777,2.777,0,0,0,.085,1.8,1.2,1.2,0,0,1-1.385.318c-1-.276-1.586-.467-1.507-1.085s.1-.738.795-.777,1.341.13,1.5-.5.183-1.492.845-1.538a.906.906,0,0,1,.9.495" transform="translate(-15.982 -10.443)" fill="#1a1a1a"/>
    <path id="Trazado_598938" data-name="Trazado 598938" d="M182.359,70.3c.012.039.371,1.531.371,1.531s-2.047.175-2.137-.194,1.765-1.337,1.765-1.337" transform="translate(-22.129 -8.614)" fill="#1a1a1a"/>
    <path id="Trazado_598939" data-name="Trazado 598939" d="M191.852,67.3l.437,1.333s1.822-.836,1.436-1.23-1.873-.1-1.873-.1" transform="translate(-23.509 -8.234)" fill="#1a1a1a"/>
    <path id="Trazado_598940" data-name="Trazado 598940" d="M92,146.052c-2.343,0-4.241.358-4.241.8l4.241.342,4.241-.342c0-.441-1.9-.8-4.241-.8" transform="translate(-10.754 -17.897)" fill="#fff"/>
    <path id="Trazado_598941" data-name="Trazado 598941" d="M75.719,71.143s-.414-4.45-1.184-5.92-1.086-2.3-1.854-1.963a2.415,2.415,0,0,0-1.76,2.271c.072,1.3.833,5.219.833,5.219s-1.171-1.38-2.428-1-1.53,2.383-1.53,2.383-1.3-1.769-2.716-1.517S63.663,73.476,63.987,75s.287,2.494.961,2.86l1.3,5.157.85,4.728a28.606,28.606,0,0,0,4.887-.378c1.945-.406,5.072-1.443,5.072-1.443l-.228-5.093a41.852,41.852,0,0,0,1.286-6.176c-.058-1.248.669-1.972-2.4-3.511" transform="translate(-7.819 -7.743)" fill="#fff"/>
    <path id="Trazado_598942" data-name="Trazado 598942" d="M70.057,149.753a9.648,9.648,0,0,0,3.251,2.056,53.413,53.413,0,0,0,6.1,1.3l1.3,1.827-18.927.277-.786-1.161A27.173,27.173,0,0,0,66.7,151.68a38.434,38.434,0,0,1,3.356-1.927" transform="translate(-7.474 -18.35)" fill="#fff"/>
    <path id="Trazado_598943" data-name="Trazado 598943" d="M189.863,67.476a22.71,22.71,0,0,1-.9-3.634c.02-.762.935-1.769,1.647-2.394s2.367-2.061,1.351-3.126-3.054.34-4.436,1.452-2.112,2.263-2.427,2.056-5.262-3.26-5.943-3.554-2.883-1.106-3.525.243c0,0-1.5.147-1.579.9,0,0-1.43-.037-1.911.843s1.034,3.083,3.595,4.308,3.466,1.369,3.907,1.667a6.163,6.163,0,0,1,2.039,3.93,17.482,17.482,0,0,0,4.091-.912,41.718,41.718,0,0,0,4.088-1.779" transform="translate(-21.083 -7.078)" fill="#fff"/>
    <path id="Trazado_598944" data-name="Trazado 598944" d="M184.914,108.256c-.184-.251-.456-.713-.8-1.221l7.447-8.013-7.817-7.367L172.165,103.94l1.789,1.822a2.26,2.26,0,0,0-.191,2.719,2.37,2.37,0,0,0-.4,2.982c.924,1.94,3.605,5.323,5.113,6.018A4.311,4.311,0,0,0,181,118.828a3.769,3.769,0,0,1,2.883,1.523,23.906,23.906,0,0,1,2.374-4.139,37.336,37.336,0,0,1,3.21-3.532s-3.877-3.5-4.552-4.425m-3.82,3.632a3.274,3.274,0,0,1-.954-.577l1.527-1.643a1.309,1.309,0,0,1,.2.422c.183.985-.317,1.887-.77,1.8" transform="translate(-21.097 -11.231)" fill="#fff"/>
    <path id="Trazado_598945" data-name="Trazado 598945" d="M133.909,104.2l-4.868-7.206-4.129,3.575,2.939,14.275h3.875l.493-2.042-1.3-2.615Z" transform="translate(-15.306 -11.885)" fill="#fff"/>
    <path id="Trazado_598946" data-name="Trazado 598946" d="M139.864,96.994l-4.7,7.206,3.034,6.109-1.059,2.486.615,2.05h3.283l3.008-14.687Z" transform="translate(-16.563 -11.885)" fill="#fff"/>
    <path id="Trazado_598947" data-name="Trazado 598947" d="M131.752,111.194l1.306,2.615-.493,2.042h4.773l-.615-2.05,1.059-2.487-3.034-6.108Z" transform="translate(-16.145 -12.892)" fill="#ffce26"/>
    <path id="Trazado_598948" data-name="Trazado 598948" d="M137.575,137.747A3.573,3.573,0,1,1,134,134.175a3.573,3.573,0,0,1,3.573,3.572" transform="translate(-15.983 -16.442)" fill="#fff"/>
    <path id="Trazado_598949" data-name="Trazado 598949" d="M192.355,67.43s6.482,16.2,19.148,18.641l-.595,2.978s5.595-4.174,10.814-4.729c0,0,3.223,1.222,6.254,2.428s5,5.467,6.08,9.064c0,0,.3,11.937.456,15.712s1.329,33.648,1.329,33.648l-31.972-.247.272-13.659a81.4,81.4,0,0,1-10.3-5.011c-4.687-2.8-9.289-5.7-9.289-5.7a14.552,14.552,0,0,1,2.881-7.626c2.818-3.834,5.912-4.25,5.912-4.25l10.906,4.565s-.543-7.509.4-11.35c0,0-8.389-4.268-13.071-9.2-4.9-5.168-9.033-14.146-9.729-17.255a14.248,14.248,0,0,0-1.173-3.832,23.9,23.9,0,0,0,5.484-.95c2.522-.823,5.3-1.789,6.2-3.223" transform="translate(-22.139 -8.263)" fill="#fff198"/>
    <path id="Trazado_598950" data-name="Trazado 598950" d="M97.9,115.362a2.284,2.284,0,0,0-1.51,2.307c-.039,1.914,1.1,2.4,1.51,2.306a2.14,2.14,0,0,0,1.51-2.306c-.1-1.6-.839-2.186-1.51-2.307" transform="translate(-11.812 -14.136)" fill="#fff"/>
    <path id="Trazado_598951" data-name="Trazado 598951" d="M93.523,121.684s-2.843.233-3.639,2.344.613,3.543.382,4.976a3.051,3.051,0,0,1-1.132,2.355c-.923,1.063-1.622,5.495.756,6.143s3.643.97,5.393,0a5.218,5.218,0,0,0,2.474-4.8c.015-1.988-.646-2.463-.536-3.836s1.086-2.183.218-4.279-1.977-2.923-3.917-2.9" transform="translate(-10.817 -14.911)" fill="#fff"/>
    <path id="Trazado_598952" data-name="Trazado 598952" d="M41.3,102.206l2.595-8.487h17.7s-3.018,9.445-3.3,15.029-.966,13.78-.966,13.78H41.45l.486-.8-1.02-2-.8-13.75Z" transform="translate(-4.916 -11.484)" fill="#fff"/>
    <path id="Trazado_598953" data-name="Trazado 598953" d="M144.867,100.6l-3.008,14.687h13.709a3.3,3.3,0,0,1,3.487,3.618c0,3.819-.068,27.536-.068,27.536s-.763,2.447-2.457,2.746l7.85-.09a6.134,6.134,0,0,0,4.017-1.73,12.985,12.985,0,0,0,3.133-8.6c-.133-3.871-.841-11.605-3.466-18.053s-4.6-11.151-6.714-13.287a21.443,21.443,0,0,0-7.679-4.85c-2.356-.76-8.8-1.979-8.8-1.979" transform="translate(-17.383 -12.327)" fill="#33ece0"/>
    <path id="Trazado_598954" data-name="Trazado 598954" d="M202.372,27.169a.611.611,0,0,0-.5-.686c-1.075-.371-2.146-.755-3.2-1.187a1.265,1.265,0,0,1-.6-.628c-.441-1.021-.841-2.061-1.226-3.106a1,1,0,0,1,0-.692c.519-1.155,1.089-2.287,1.606-3.443a.724.724,0,0,0-.086-.641c-.867-.925-1.779-1.808-2.656-2.724a.521.521,0,0,0-.72-.116c-1.1.543-2.2,1.072-3.316,1.571a1.1,1.1,0,0,1-.755.035q-1.6-.576-3.17-1.241a1.168,1.168,0,0,1-.6-.552c-.433-1.074-.823-2.166-1.2-3.262-.12-.352-.262-.522-.672-.512-1.225.03-2.451.028-3.677,0a.611.611,0,0,0-.684.5c-.369,1.074-.785,2.132-1.15,3.208a.949.949,0,0,1-.687.657c-1.011.351-2.011.748-2.983,1.194a.96.96,0,0,1-.948-.009c-1.074-.541-2.167-1.039-3.242-1.576a.563.563,0,0,0-.777.134c-.847.885-1.71,1.756-2.6,2.6a.6.6,0,0,0-.113.834c.533,1.078,1.056,2.16,1.537,3.261a1.117,1.117,0,0,1-.02.8q-.671,1.565-1.434,3.089a1.314,1.314,0,0,1-.62.614c-1.142.434-2.3.821-3.465,1.2a.6.6,0,0,0-.51.677c.027,1.224.023,2.451,0,3.677a.556.556,0,0,0,.456.64c1.185.382,2.367.777,3.529,1.218a1.3,1.3,0,0,1,.6.633c.47.985.856,2.011,1.348,2.986a1.058,1.058,0,0,1,.023,1.071c-.508,1.017-.97,2.058-1.476,3.076a.6.6,0,0,0,.131.831q1.331,1.269,2.6,2.6a.592.592,0,0,0,.828.119c1.057-.524,2.134-1.01,3.191-1.535a.939.939,0,0,1,.947.025c1.017.5,2.077.916,3.1,1.4a1.105,1.105,0,0,1,.523.546c.435,1.165.839,2.344,1.228,3.526a.571.571,0,0,0,.646.463c1.225-.021,2.451-.025,3.677,0a.589.589,0,0,0,.672-.5c.374-1.164.773-2.322,1.207-3.463a1.2,1.2,0,0,1,.58-.582q1.571-.734,3.183-1.381a1.061,1.061,0,0,1,.749-.015c1.251.556,2.483,1.155,3.77,1.761,1.007-1.02,2.014-2.019,2.984-3.052a.733.733,0,0,0,.059-.651c-.5-1.116-1.05-2.209-1.555-3.324a1.05,1.05,0,0,1-.049-.706c.379-1.092.782-2.177,1.221-3.245a1.16,1.16,0,0,1,.572-.584c1.074-.434,2.165-.827,3.26-1.207a.573.573,0,0,0,.45-.652c-.021-1.225-.025-2.452,0-3.677m-18.938,9a7.164,7.164,0,1,1,7.172-7.156,7.139,7.139,0,0,1-7.172,7.156" transform="translate(-20.085 -1.223)" fill="#1a1a1a"/>
    <path id="Trazado_598955" data-name="Trazado 598955" d="M62.17,44.932l1.2-.333c.218-.06.437-.118.655-.18a18.986,18.986,0,0,0,2.753,2.672,1.108,1.108,0,0,0,1.01.21,3.452,3.452,0,0,0,1.032-.472,13.138,13.138,0,0,0,2.148-1.78,39.786,39.786,0,0,0,3.373-3.827,14.906,14.906,0,0,1,2.173.475,36.619,36.619,0,0,1-4.2,6.3,15.369,15.369,0,0,1-2.7,2.657,8.387,8.387,0,0,1-1.047.64,2.6,2.6,0,0,1-2.394.034,5.067,5.067,0,0,1-1.93-1.607,10.936,10.936,0,0,1-1.632-3.261c-.164-.5-.294-1.006-.445-1.529" transform="translate(-7.618 -5.051)" fill="#fff"/>
    <path id="Trazado_598956" data-name="Trazado 598956" d="M17.952,83.973s-1.53-1.388-.575-4.067,2.471-2.577,2.471-2.577-1.27-2.348.161-3.612,3.629-1.1,4.248-.545c0,0-.52-4.158-1.1-7.674a25.18,25.18,0,0,0-.776-3.915s.719-4.916,5.386-5.619,6.11-.827,8.653-.515,3.355.982,4.027,1.91,1.243,4.286.788,5.41A11.34,11.34,0,0,0,37,58.455s-.576,4.09-6.05,7.673a2.8,2.8,0,0,0-3.479,1.042c-1.317,2.017.451,4.135,2.909,3.723,0,0,4.019,2.216,3.607,5.63s-2.136,4.185-3.306,4.815A3.6,3.6,0,0,1,27.3,84.729c-3.268.311-5.725-1.257-6.258-2.391Z" transform="translate(-2.091 -6.775)" fill="#fff198"/>
    <path id="Trazado_598957" data-name="Trazado 598957" d="M40.084,78.787l-.244,4.1,2.686.3a2.5,2.5,0,0,0,.713-2.434,4.988,4.988,0,0,0-1.049-2.388Z" transform="translate(-4.882 -9.602)" fill="#fff198"/>
    <path id="Trazado_598958" data-name="Trazado 598958" d="M220.669,66.853a7.267,7.267,0,0,1-1.856-6.295s-4.532.741-6.184,2.717a4.375,4.375,0,0,1,.236-4.148c1.255-2.514,3.056-2.925,5.32-3.32a19.665,19.665,0,0,1,6.052.505s4.319.614,5.647,3.806.018,8.081-.195,9.821-.556,5.005,2.1,7.1,5.7,4.231,6.863,6.68,3.55,6.749-.4,14.556l-.332-3.9s-1.742-6.518-4.589-8.059a12.143,12.143,0,0,0-4.124-1.894c-3.174-1.016-5.825-2.472-6.6-4.978a9.841,9.841,0,0,1-.176-5.554,21.8,21.8,0,0,0,.806-2.543s2.111-.709,1.884-2.686a2.806,2.806,0,0,0-2.514-2.608,6.174,6.174,0,0,0-1.942.8" transform="translate(-26.007 -6.826)" fill="#fff"/>
    <path id="Trazado_598959" data-name="Trazado 598959" d="M35.675,113.609a3.46,3.46,0,0,0,1.05-2.515c.178-1.892.416-6.311,4.028-7.7l-.763,3.835s-.257,2.446.915,2.72,5.454-2.7,6.5-3.479,2.567-2.459,3.918-1.511.176,2.492.176,2.492,1.193-.437,1.842.3-.708,2.522-.708,2.522a2.3,2.3,0,0,1-.259,2.836c-1.267,1.339-11.871,7.8-11.871,7.8Z" transform="translate(-4.372 -12.669)" fill="#fff"/>
    <path id="Trazado_598960" data-name="Trazado 598960" d="M215.214,90.469s.076-4.729,2.924-6.252,4.607-2.243,4.607-2.243.979,2.96,3.211,4.129a18.214,18.214,0,0,0-5.867,1.631c-2.649,1.356-4.874,2.734-4.874,2.734" transform="translate(-26.372 -10.045)" fill="#fff"/>
    <path id="Trazado_598961" data-name="Trazado 598961" d="M231.593,131.2a15.5,15.5,0,0,1-12.217,12.288c-9.1,1.848-12.217-.08-12.217-.08l.228-4.324s7.3,2.861,11.967,1.646,9.467-3.309,12.239-9.53" transform="translate(-25.385 -16.077)" fill="#1a1a1a"/>
    <path id="Trazado_598962" data-name="Trazado 598962" d="M119.835,44.538h-4.751a1.164,1.164,0,0,1-1.159-1.16V38.629a1.164,1.164,0,0,1,1.159-1.16h4.751a1.163,1.163,0,0,1,1.159,1.16v4.749a1.163,1.163,0,0,1-1.159,1.16" transform="translate(-13.96 -4.591)" fill="#33ece0"/>
    <path id="Trazado_598963" data-name="Trazado 598963" d="M116.743,60.807h-4.75a1.164,1.164,0,0,1-1.16-1.16V54.9a1.163,1.163,0,0,1,1.16-1.159h4.75A1.163,1.163,0,0,1,117.9,54.9v4.75a1.163,1.163,0,0,1-1.159,1.16" transform="translate(-13.581 -6.585)" fill="#33ece0"/>
    <path id="Trazado_598964" data-name="Trazado 598964" d="M37.117,127.037s-11.64,22.173-29,18.154l.037-4.164s4.114,2.363,10.859-.87,10.9-6.225,14-9.163,4.111-3.956,4.111-3.956" transform="translate(-0.994 -15.567)" fill="#1a1a1a"/>
    <path id="Trazado_598965" data-name="Trazado 598965" d="M28.729,88.367s2.724-.576,3.062-1.66a5.843,5.843,0,0,0,.319-1.729l5.471,4.373s.061,4.8-2.864,4.771-4.936-2.009-5.988-5.754" transform="translate(-3.52 -10.413)" fill="#fff"/>
    <path id="Trazado_598966" data-name="Trazado 598966" d="M39.854,82.01V83.5l-1.108,5.317s1.27,2,2.818,2.374a2.533,2.533,0,0,0,3.025-1.178,3.108,3.108,0,0,0-.254-2.967,44.61,44.61,0,0,0-4.481-5.038" transform="translate(-4.748 -10.049)" fill="#fff"/>
    <path id="Trazado_598967" data-name="Trazado 598967" d="M38.616,91.7a4.168,4.168,0,0,0,3.962.842s-2.887-.4-3.785-2.585Z" transform="translate(-4.732 -11.024)" fill="#3a3a3a"/>
    <path id="Trazado_598968" data-name="Trazado 598968" d="M221.272,132.807c-4.029,1.228-6.559,4.83-5.983,8.295a28.965,28.965,0,0,0,8.329-1.137c2.987-1.078,6.476-4.873,6.476-4.873a8.193,8.193,0,0,0-8.821-2.285" transform="translate(-26.371 -16.223)" fill="#fff"/>
    <path id="Trazado_598969" data-name="Trazado 598969" d="M66.374,153.572a6.149,6.149,0,0,1-4.982.824c-.1-.034-.335.254-.335.254l.729,1.027,6.486-.041s-2.1-1.244-1.9-2.063" transform="translate(-7.482 -18.818)" fill="#b5b5b5"/>
    <path id="Trazado_598970" data-name="Trazado 598970" d="M126.893,72.78c-2.645-1.614-.82-6.365-.709-6.646a6,6,0,0,0-.8.58,4.949,4.949,0,0,0-.852,6.005,1.913,1.913,0,0,0-1.209,1.916,4.535,4.535,0,0,0,2.061,3.506l.1-3.189a8.928,8.928,0,0,0,3.859,0,16.164,16.164,0,0,0,3.078-1.622c.193-.227-2.805,1.112-5.531-.551" transform="translate(-15.112 -8.104)" fill="#fff"/>
    <path id="Trazado_598971" data-name="Trazado 598971" d="M139.719,79.107c-3.014-.863-4.971-5.767-4.971-5.767-.024.273.616,5.225,3.634,6.74a2.109,2.109,0,0,1,1.338-.972h0" transform="translate(-16.512 -8.987)" fill="#fff"/>
    <path id="Trazado_598972" data-name="Trazado 598972" d="M38.121,55.448a17.768,17.768,0,0,0-3.978-.09c1.865.51,3.437,1.431,3.2,3.1-.556,3.865-6.407,7.462-6.407,7.462a3.5,3.5,0,0,1,1.718.211c5.474-3.584,6.049-7.673,6.049-7.673a11.351,11.351,0,0,1,4.237,4.313c.455-1.124-.116-4.48-.788-5.409s-1.484-1.6-4.027-1.91" transform="translate(-3.79 -6.775)" fill="#fff"/>
    <path id="Trazado_598973" data-name="Trazado 598973" d="M31.075,73.157l-1.271.032s2.546,1.027,2.738,4.723a4.525,4.525,0,0,1-4.417,5.029s-.687,3.771-6.392,1.693c.537,1.1,2.949,2.589,6.139,2.285a3.6,3.6,0,0,0,3.382-3.391c1.17-.63,2.894-1.4,3.305-4.815.37-3.066-2.828-5.161-3.484-5.557" transform="translate(-2.663 -8.965)" fill="#fff"/>
    <path id="Trazado_598974" data-name="Trazado 598974" d="M42.566,83.186a2.5,2.5,0,0,0,.713-2.434,4.987,4.987,0,0,0-1.049-2.388l-.774.155c.154.04,1.452,3.174-.419,3.728a1.279,1.279,0,0,0-.868.675Z" transform="translate(-4.922 -9.602)" fill="#fff"/>
    <path id="Trazado_598975" data-name="Trazado 598975" d="M135.6,106.925l-2.095,3.409,1.31,3.466-.05,2.05h-2.2l.493-2.042-1.306-2.849,2.995-5.754Z" transform="translate(-16.145 -12.892)" fill="#fff"/>
    <path id="Trazado_598976" data-name="Trazado 598976" d="M111.1,93.162c-.276-.279-.216-.42-.09-.47l6.595-2.632a.25.25,0,0,1,.318.138.246.246,0,0,1-.137.318l-6.6,2.631a.23.23,0,0,1-.09.017" transform="translate(-13.589 -11.034)" fill="#1a1a1a"/>
    <path id="Trazado_598977" data-name="Trazado 598977" d="M116.314,87.24l-11.135-.289a.242.242,0,0,1-.237-.25.271.271,0,0,1,.249-.237l11.13.289a.244.244,0,0,1-.007.487" transform="translate(-12.859 -10.595)" fill="#1a1a1a"/>
    <path id="Trazado_598978" data-name="Trazado 598978" d="M117.561,83.778c-.1-.023-5.873-2.685-5.873-2.685a.243.243,0,0,1-.119-.322.241.241,0,0,1,.324-.119l5.77,2.662a.243.243,0,0,1-.1.464" transform="translate(-13.669 -9.88)" fill="#1a1a1a"/>
    <path id="Trazado_598979" data-name="Trazado 598979" d="M18.055,87.35c-1.543-.857-1.363-3.221-.9-4.608a3.561,3.561,0,0,1,2.6-2.606.238.238,0,0,1,.293.18.243.243,0,0,1-.181.294A3.114,3.114,0,0,0,17.62,82.9c-.4,1.189-.6,3.326.557,4a.243.243,0,0,1-.123.455" transform="translate(-2.062 -9.819)" fill="#1a1a1a"/>
    <path id="Trazado_598980" data-name="Trazado 598980" d="M25.106,73.467c-1.239-7.621-2.238-11.59-2.25-11.63a5.937,5.937,0,0,1,2.758-4.873C29.6,54.279,37.1,54.817,39.3,55.63c.1.009,3.636.587,2.889,7.127a.246.246,0,0,1-.269.215.243.243,0,0,1-.214-.27c.691-6.04-2.394-6.581-2.527-6.6-1.753-.645-9.209-1.481-13.294,1.268a5.467,5.467,0,0,0-2.546,4.386,115.674,115.674,0,0,1,2.01,11.437.243.243,0,0,1-.21.274.2.2,0,0,1-.032,0" transform="translate(-2.801 -6.736)" fill="#1a1a1a"/>
    <path id="Trazado_598981" data-name="Trazado 598981" d="M26.657,88.644A6.242,6.242,0,0,1,21.381,86.1a.243.243,0,1,1,.368-.319A5.914,5.914,0,0,0,27.1,88.149c2.491-.1,3.756-1.149,3.863-3.218a.27.27,0,0,1,.256-.23.243.243,0,0,1,.23.256c-.122,2.335-1.579,3.572-4.33,3.677-.158.007-.311.01-.459.01" transform="translate(-2.613 -10.379)" fill="#1a1a1a"/>
    <path id="Trazado_598982" data-name="Trazado 598982" d="M97.364,103.935a16.46,16.46,0,0,1-2.887-.247c-7.5-1.337-12.535-7.589-13.468-16.722a.239.239,0,0,1,.217-.265.236.236,0,0,1,.268.217c.912,8.9,5.8,14.992,13.071,16.29,4.106.734,8.268-.362,12.3-1.416,1.3-.342,2.641-.693,3.945-.972,2.363-.506,5.487-1.163,8.682-1.752a.255.255,0,0,1,.283.2.243.243,0,0,1-.2.283c-3.187.588-6.305,1.242-8.665,1.748-1.294.277-2.63.627-3.924.966a38.5,38.5,0,0,1-9.621,1.672" transform="translate(-9.926 -10.624)" fill="#1a1a1a"/>
    <path id="Trazado_598983" data-name="Trazado 598983" d="M182.9,51.16c-1.133-.025-2.331-.025-3.7,0a.8.8,0,0,1-.883-.632c-.451-1.374-.842-2.493-1.225-3.514a.849.849,0,0,0-.4-.412c-.453-.214-.912-.414-1.37-.614-.573-.249-1.165-.507-1.737-.79a.7.7,0,0,0-.731-.024c-.539.268-1.082.524-1.627.782-.521.247-1.045.494-1.565.752a.831.831,0,0,1-1.113-.17c-.8-.843-1.647-1.69-2.59-2.592a.835.835,0,0,1-.18-1.113c.24-.488.474-.983.705-1.476.254-.535.506-1.071.77-1.6a.821.821,0,0,0-.024-.853c-.276-.548-.523-1.119-.759-1.67-.192-.443-.382-.886-.591-1.321a1.033,1.033,0,0,0-.47-.507c-1.22-.466-2.464-.877-3.518-1.217a.8.8,0,0,1-.626-.877c.023-1.37.023-2.568,0-3.665a.842.842,0,0,1,.677-.913c1.1-.359,2.281-.752,3.455-1.2a1.091,1.091,0,0,0,.487-.5c.507-1.014.987-2.049,1.428-3.077a.869.869,0,0,0,.02-.6c-.528-1.206-1.1-2.371-1.533-3.252a.838.838,0,0,1,.164-1.119c.814-.772,1.663-1.618,2.593-2.59a.8.8,0,0,1,1.062-.183c.517.258,1.036.505,1.557.756.564.269,1.128.538,1.686.82a.723.723,0,0,0,.736.005c.951-.437,1.963-.841,3.005-1.2a.71.71,0,0,0,.535-.5c.187-.55.387-1.1.588-1.642.192-.522.383-1.042.563-1.568a.849.849,0,0,1,.884-.67c1.353.029,2.551.027,3.7,0a.851.851,0,0,1,.909.676c.45,1.32.819,2.322,1.192,3.248a.951.951,0,0,0,.468.421c1.007.427,2.069.843,3.157,1.235a.921.921,0,0,0,.576-.028c1.007-.454,2.088-.966,3.305-1.569a.752.752,0,0,1,1,.168c.378.39.762.777,1.143,1.165.509.515,1.021,1.029,1.514,1.559a.954.954,0,0,1,.131.907c-.268.6-.551,1.2-.834,1.79-.261.55-.522,1.1-.771,1.652a.773.773,0,0,0,.006.509c.462,1.256.84,2.21,1.221,3.094a1.026,1.026,0,0,0,.471.5c1.137.468,2.3.877,3.183,1.182a.853.853,0,0,1,.666.921c-.025,1.15-.025,2.351,0,3.666a.814.814,0,0,1-.616.888c-1.282.443-2.313.825-3.247,1.2a.913.913,0,0,0-.439.452c-.409,1-.806,2.054-1.214,3.233a.8.8,0,0,0,.04.525c.237.524.484,1.042.731,1.562.281.584.559,1.171.824,1.764a.963.963,0,0,1-.1.918c-.736.782-1.5,1.558-2.25,2.309l-.738.746a4,4,0,0,1-1.217-.395c-.954-.453-1.886-.9-2.826-1.315a.812.812,0,0,0-.559.018c-1.141.462-2.179.912-3.171,1.376a.973.973,0,0,0-.455.448c-.411,1.079-.8,2.208-1.2,3.45a.817.817,0,0,1-.874.671m-1.807-.505c.627,0,1.219.007,1.781.019.239,0,.343-.052.435-.333.4-1.25.8-2.388,1.213-3.476a1.436,1.436,0,0,1,.7-.715c1-.469,2.045-.921,3.195-1.386a1.3,1.3,0,0,1,.941-.011c.944.42,1.881.863,2.837,1.318l.783.37.618-.623c.741-.748,1.51-1.523,2.241-2.3a.558.558,0,0,0,.013-.383c-.262-.59-.54-1.171-.819-1.754-.248-.521-.5-1.043-.736-1.571a1.28,1.28,0,0,1-.057-.886c.412-1.186.813-2.252,1.225-3.255a1.4,1.4,0,0,1,.706-.72c.942-.379,1.982-.764,3.273-1.211.237-.082.29-.16.287-.419-.025-1.321-.025-2.527,0-3.684,0-.27-.058-.354-.339-.451-.89-.306-2.058-.721-3.209-1.192a1.505,1.505,0,0,1-.733-.757c-.385-.893-.766-1.855-1.231-3.12a1.256,1.256,0,0,1,.006-.877c.251-.557.514-1.109.777-1.661.28-.592.561-1.184.828-1.781a.51.51,0,0,0-.04-.373c-.493-.528-1-1.039-1.507-1.55-.385-.39-.769-.777-1.148-1.172-.154-.162-.222-.172-.436-.068-1.221.605-2.309,1.122-3.324,1.576a1.359,1.359,0,0,1-.937.044c-1.1-.4-2.17-.817-3.183-1.247a1.419,1.419,0,0,1-.73-.688c-.376-.934-.748-1.944-1.2-3.272-.1-.294-.195-.354-.435-.347-1.157.029-2.364.031-3.687,0-.285,0-.351.057-.449.34-.181.529-.374,1.054-.566,1.578-.2.541-.4,1.084-.585,1.631a1.177,1.177,0,0,1-.836.808c-1.028.357-2.024.755-2.962,1.185a1.2,1.2,0,0,1-1.158-.013c-.556-.28-1.117-.548-1.678-.815-.522-.25-1.045-.5-1.564-.761-.229-.116-.312-.1-.492.087-.934.975-1.788,1.828-2.609,2.605-.189.18-.2.272-.061.549.437.884,1.01,2.058,1.542,3.27a1.351,1.351,0,0,1-.019.99c-.445,1.038-.93,2.08-1.441,3.1a1.549,1.549,0,0,1-.749.731c-1.185.45-2.373.845-3.478,1.206-.283.092-.347.174-.341.439.026,1.1.026,2.309,0,3.687-.005.256.044.326.287.4,1.062.341,2.312.756,3.541,1.224a1.53,1.53,0,0,1,.74.755c.21.44.4.888.6,1.338.235.545.477,1.109.747,1.643a1.288,1.288,0,0,1,.024,1.288c-.263.528-.514,1.06-.763,1.593-.234.5-.469.993-.712,1.484-.129.259-.113.362.08.547.949.906,1.8,1.758,2.609,2.608.18.193.271.2.543.068.52-.258,1.048-.506,1.572-.755.54-.255,1.082-.512,1.618-.777a1.188,1.188,0,0,1,1.164.023c.561.278,1.147.534,1.714.781.465.2.927.4,1.385.619a1.333,1.333,0,0,1,.646.682c.385,1.028.777,2.152,1.231,3.534.081.246.169.292.409.3.674-.011,1.307-.018,1.9-.018m-.061-11.776a7.423,7.423,0,0,1-5.241-12.649,7.413,7.413,0,1,1,5.244,12.649Zm.061-14.327a6.959,6.959,0,0,0-4.957,2.023,6.923,6.923,0,0,0,4.9,11.817,6.92,6.92,0,0,0,.077-13.839Z" transform="translate(-19.761 -1.496)" fill="#1a1a1a"/>
    <path id="Trazado_598984" data-name="Trazado 598984" d="M163.338,149.4c-.344,0-.695-.014-1.057-.042a.243.243,0,0,1-.226-.261c4.386.084,7.174-1.466,8.578-4.851,4.147-10-5.127-33.361-9.626-37.23-5.321-4.576-10.283-5.347-14.661-6.029-.382-.06-.759-.118-1.131-.179a.243.243,0,0,1-.2-.279.234.234,0,0,1,.279-.2l1.128.176c4.443.692,9.477,1.475,14.905,6.14,4.691,4.035,14.072,27.385,9.756,37.788-1.367,3.3-3.971,4.966-7.744,4.966" transform="translate(-17.769 -12.293)" fill="#1a1a1a"/>
    <path id="Trazado_598985" data-name="Trazado 598985" d="M139.749,115.061a.254.254,0,0,1-.24-.291l2.979-14.538-3.853-2.912-4.555,6.987c-.406,0-5.122-6.976-5.122-6.976l-3.814,3.3,2.911,14.135a.244.244,0,0,1-.477.1l-2.939-14.275c.079-.233,4.209-3.81,4.209-3.81.361.047,5.025,6.95,5.025,6.95l4.5-6.9c.351-.061,4.535,3.1,4.535,3.1.091.244-2.918,14.931-2.918,14.931a.241.241,0,0,1-.238.195" transform="translate(-15.273 -11.86)" fill="#1a1a1a"/>
    <path id="Trazado_598986" data-name="Trazado 598986" d="M139.676,116.078c-.218-.135-5.288-10.341-5.288-10.341l-5.107,10.207a.244.244,0,1,1-.435-.219l5.324-10.644c.435,0,5.723,10.645,5.723,10.645a.242.242,0,0,1-.11.326.232.232,0,0,1-.108.025" transform="translate(-15.785 -12.876)" fill="#1a1a1a"/>
    <path id="Trazado_598987" data-name="Trazado 598987" d="M133.04,114.822a26.132,26.132,0,0,1-1.414-3,.244.244,0,0,1,.451-.186l1.125,2.7,3.34-.006.98-2.372a.244.244,0,1,1,.451.186l-1.043,2.523a35.843,35.843,0,0,1-3.89.158" transform="translate(-16.127 -13.661)" fill="#1a1a1a"/>
    <path id="Trazado_598988" data-name="Trazado 598988" d="M131.277,91c-2.608,0-5.234-1-5.737-3.416a21.254,21.254,0,0,1-.165-2.73l-.021-.8c-.032-1.027.129-7.63.137-7.91a.244.244,0,0,1,.487.012c0,.068-.168,6.869-.137,7.882l.021.8a21.441,21.441,0,0,0,.154,2.641c.522,2.509,3.712,3.292,6.451,2.955a10.634,10.634,0,0,0,2.258-.48.244.244,0,1,1,.161.461,11.171,11.171,0,0,1-2.36.5,10.373,10.373,0,0,1-1.25.076" transform="translate(-15.36 -9.302)" fill="#1a1a1a"/>
    <path id="Trazado_598989" data-name="Trazado 598989" d="M140.42,95.893c-.243-.23-.716-9.6-.716-9.6a.244.244,0,0,1,.231-.256.248.248,0,0,1,.257.23l.472,9.371a.244.244,0,0,1-.232.256Z" transform="translate(-17.119 -10.543)" fill="#1a1a1a"/>
    <path id="Trazado_598990" data-name="Trazado 598990" d="M140.961,86.015a3.17,3.17,0,0,1-1.937-.662.244.244,0,0,1,.3-.387,2.7,2.7,0,0,0,3.727-3.856,2.7,2.7,0,0,0-4.609.755.244.244,0,1,1-.455-.175,3.184,3.184,0,1,1,2.978,4.324" transform="translate(-16.906 -9.759)" fill="#1a1a1a"/>
    <path id="Trazado_598991" data-name="Trazado 598991" d="M11.164,136.931a9.054,9.054,0,0,1-4.785-1.244,12.727,12.727,0,0,1-5.868-8.281c-2.425-10.216,4.316-24.742,8.682-31.716a50.2,50.2,0,0,1,4.213-5.953,18.277,18.277,0,0,1,5.664-4.01.244.244,0,0,1,.226.432,17.9,17.9,0,0,0-5.52,3.894,49.812,49.812,0,0,0-4.17,5.895C5.281,102.857-1.4,117.233.985,127.292a12.263,12.263,0,0,0,5.647,7.979c7.35,4.461,20.733-4.368,30.108-14.494A22.725,22.725,0,0,0,33.78,115.3a35.128,35.128,0,0,0-4.372-5.039c-1.293.832-10.444,6.77-15.549,11.761a.244.244,0,1,1-.341-.348c5.512-5.389,15.681-11.859,15.783-11.924.358.077,2.08,1.512,4.87,5.261a22.942,22.942,0,0,1,3.082,5.746c-7.8,8.642-18.338,16.17-26.088,16.172" transform="translate(0 -10.501)" fill="#1a1a1a"/>
    <path id="Trazado_598992" data-name="Trazado 598992" d="M58.248,149.389a67.954,67.954,0,0,1-6.187-9.427.244.244,0,1,1,.426-.239,95.07,95.07,0,0,0,5.879,9.171c4.494-.292,9.926-4.327,10.82-5.014-.754-2.695-8.863-31.733-9.339-35.7a.244.244,0,0,1,.212-.271.239.239,0,0,1,.271.213c.483,4.039,9.281,35.47,9.37,35.787-.337.46-6.369,5.235-11.44,5.483Z" transform="translate(-6.376 -13.222)" fill="#1a1a1a"/>
    <path id="Trazado_598993" data-name="Trazado 598993" d="M54.184,92.73A18.86,18.86,0,0,0,42.1,84.147a.246.246,0,0,1-.185-.292.25.25,0,0,1,.291-.185A18.657,18.657,0,0,1,54.39,92.356a.243.243,0,0,1-.075.336.236.236,0,0,1-.131.038" transform="translate(-5.136 -10.252)" fill="#1a1a1a"/>
    <path id="Trazado_598994" data-name="Trazado 598994" d="M39.77,77.173c-.226,0-.462-.011-.717-.032-.819-.069-2.02-.216-2.851-.383a.244.244,0,0,1,.1-.477c.813.163,1.991.306,2.8.374a4.992,4.992,0,0,0,1.966-.145A2.806,2.806,0,0,0,42.872,74.5,17.134,17.134,0,0,0,43.4,68.87c-.02-1.264-.052-2.271-.086-3.276l-.049-1.6a.249.249,0,0,1,.175-.3.246.246,0,0,1,.293.173c.018.12.069,1.715.069,1.715.032,1.01.066,2.018.08,3.026a18.274,18.274,0,0,1-.548,6.05,3.264,3.264,0,0,1-2.13,2.319,4.682,4.682,0,0,1-1.436.2" transform="translate(-4.412 -7.804)" fill="#1a1a1a"/>
    <path id="Trazado_598995" data-name="Trazado 598995" d="M32.709,66.867c-.279-.249-.232-.4-.112-.459a11.571,11.571,0,0,0,5.964-7.632c.535-.047,4.078,2.566,4.738,4.464a.244.244,0,0,1-.15.311.239.239,0,0,1-.311-.15c-.5-1.453-3.014-3.489-3.885-4.163a12.2,12.2,0,0,1-6.132,7.6.228.228,0,0,1-.113.028" transform="translate(-3.983 -7.202)" fill="#1a1a1a"/>
    <path id="Trazado_598996" data-name="Trazado 598996" d="M207.088,154.347a.243.243,0,0,1-.244-.24c-.051-4.024.055-9.645.258-13.669.39-.224.494-.11.487.026-.2,4.014-.308,9.62-.257,13.637a.249.249,0,0,1-.244.247" transform="translate(-25.345 -17.193)" fill="#1a1a1a"/>
    <path id="Trazado_598997" data-name="Trazado 598997" d="M207.493,115.8c-1.146-10.468.3-15.7,6.46-24.577.29-.236,5.916-4.439,10.99-4.9a.234.234,0,0,1,.266.221.246.246,0,0,1-.221.266c-4.748.428-10.2,4.381-10.658,4.722-6.066,8.741-7.484,13.906-6.592,24a.245.245,0,0,1-.223.264Z" transform="translate(-25.382 -10.578)" fill="#1a1a1a"/>
    <path id="Trazado_598998" data-name="Trazado 598998" d="M243.257,149.346c-.255-.538-1.388-30.684-1.77-38.139-.11-2.108-.105-4.049-.1-5.76a45.838,45.838,0,0,0-.2-5.675.244.244,0,0,1,.484-.061,46.074,46.074,0,0,1,.208,5.738c-.005,1.7-.009,3.639.1,5.732.383,7.459,1.515,37.608,1.527,37.911a.244.244,0,0,1-.234.254Z" transform="translate(-29.554 -12.192)" fill="#1a1a1a"/>
    <path id="Trazado_598999" data-name="Trazado 598999" d="M213.843,137.65c-5.267,0-10.328-2.134-14.618-4.25a153.772,153.772,0,0,1-14.175-8.3c-.244-.36-.722-3.351,2.882-8.161,3.273-4.364,6.021-4.325,6.11-4.325.092.021,2.11.912,2.11.912q6.947,3.072,13.89,6.15c2.006.89,3.4.686,4.27-.629a7.6,7.6,0,0,0,.919-3.2l.275-2.066c.494-3.718,1-7.561,1.543-11.338a.251.251,0,0,1,.276-.207.243.243,0,0,1,.207.276c-.54,3.774-1.05,7.618-1.544,11.334l-.275,2.066a7.933,7.933,0,0,1-1,3.4c-1,1.528-2.646,1.8-4.873.806q-6.943-3.081-13.889-6.147l-1.968-.87c-.347.019-2.786.29-5.664,4.13-3.1,4.137-3.071,6.9-3.026,7.447a153.011,153.011,0,0,0,14.144,8.287c4.24,2.092,9.238,4.2,14.4,4.2.261,0,.521,0,.786-.016,8.475-.36,14.134-7.509,15.98-14.439a112.717,112.717,0,0,0,2.872-15.446.234.234,0,0,1,.27-.213.244.244,0,0,1,.212.271,113.319,113.319,0,0,1-2.884,15.514c-1.891,7.1-7.708,14.43-16.431,14.8-.269.011-.539.018-.807.018" transform="translate(-22.655 -12.527)" fill="#1a1a1a"/>
    <path id="Trazado_599000" data-name="Trazado 599000" d="M73.788,156.239H1.664a.244.244,0,0,1,0-.487H73.788a.244.244,0,0,1,0,.487" transform="translate(-0.174 -19.086)" fill="#1a1a1a"/>
    <path id="Trazado_599001" data-name="Trazado 599001" d="M239.731,156.239H158.114a.244.244,0,1,1,0-.487h81.617a.244.244,0,0,1,0,.487" transform="translate(-19.345 -19.086)" fill="#1a1a1a"/>
    <path id="Trazado_599002" data-name="Trazado 599002" d="M106.535,156.239H98.218a.244.244,0,0,1,0-.487h8.317a.244.244,0,0,1,0,.487" transform="translate(-12.006 -19.086)" fill="#1a1a1a"/>
    <path id="Trazado_599003" data-name="Trazado 599003" d="M151.135,151.5H106.943a3.464,3.464,0,0,1-3.462-3.462V120.521a3.464,3.464,0,0,1,3.462-3.461h44.192a3.463,3.463,0,0,1,3.461,3.461v27.515a3.463,3.463,0,0,1-3.461,3.462m-44.192-33.951a2.978,2.978,0,0,0-2.975,2.975v27.515a2.978,2.978,0,0,0,2.975,2.975h44.192a2.978,2.978,0,0,0,2.975-2.975V120.521a2.978,2.978,0,0,0-2.975-2.975Z" transform="translate(-12.68 -14.344)" fill="#1a1a1a"/>
    <path id="Trazado_599004" data-name="Trazado 599004" d="M132.145,140.219a3.815,3.815,0,1,1,3.816-3.815,3.819,3.819,0,0,1-3.816,3.815m0-7.143a3.329,3.329,0,1,0,3.329,3.328,3.333,3.333,0,0,0-3.329-3.328" transform="translate(-15.725 -16.247)" fill="#1a1a1a"/>
    <path id="Trazado_599005" data-name="Trazado 599005" d="M216.349,65.837a1.71,1.71,0,0,0-2.091-.216.244.244,0,0,1-.283-.4,2.031,2.031,0,0,1,2.536.187.244.244,0,0,1-.161.426" transform="translate(-26.208 -7.949)" fill="#1a1a1a"/>
    <path id="Trazado_599006" data-name="Trazado 599006" d="M237.916,98.5c-.237-.1-.279-.247-.212-.364,6.107-10.736-1.717-17.414-4.26-19.2-5.3-3.733-4.866-6.139-4.148-10.122a35.424,35.424,0,0,0,.623-4.856c.141-2.959-.831-5.1-2.888-6.378a7.375,7.375,0,0,0-3.147-1.042,9.83,9.83,0,0,0-2.48-.436c-5.634-.413-8.465,1.06-9.212,4.793a3.149,3.149,0,0,0,.3,2.227c.04.145-.14,4.714-.14,4.714a7.79,7.79,0,0,0-2.405,1.509,5.938,5.938,0,0,0,1.637,1.955c.079.225-.078,2.839,1.6,4.21,1.167.949,2.945,1.1,5.289.446a.242.242,0,0,1,.3.169.247.247,0,0,1-.169.3c-2.51.7-4.436.517-5.732-.541a5.562,5.562,0,0,1-1.7-4.3c-.609-.556-1.8-1.734-1.707-2.319.1-.6,1.612-1.287,2.4-1.607l.171-4.337a3.683,3.683,0,0,1-.327-2.523c.792-3.97,3.889-5.62,9.724-5.184a10.054,10.054,0,0,1,2.5.439,7.817,7.817,0,0,1,3.345,1.111c1.525.945,3.3,2.9,3.118,6.816a35.769,35.769,0,0,1-.63,4.919c-.707,3.924-1.1,6.085,3.949,9.637,2.629,1.851,10.713,8.752,4.4,19.846a.241.241,0,0,1-.211.122" transform="translate(-25.667 -6.806)" fill="#1a1a1a"/>
    <path id="Trazado_599007" data-name="Trazado 599007" d="M125.8,78.941c-.226-.079-.277-.224-.221-.347a1.882,1.882,0,0,1,2.324-.778.241.241,0,0,1,.175.3.236.236,0,0,1-.3.174c-1.347-.351-1.757.5-1.759.514a.242.242,0,0,1-.221.14" transform="translate(-15.386 -9.523)" fill="#1a1a1a"/>
    <path id="Trazado_599008" data-name="Trazado 599008" d="M135.014,79.061c-1.334-1.55-2.456-.859-2.5-.829a.244.244,0,1,1-.264-.41,2.21,2.21,0,0,1,2.959.847.241.241,0,0,1-.042.34.233.233,0,0,1-.15.052" transform="translate(-16.192 -9.504)" fill="#1a1a1a"/>
    <path id="Trazado_599009" data-name="Trazado 599009" d="M37.292,66.93c.195-.031.326.053.382.754.062.782-.14.92-.316.913s-.351-.247-.343-.806.023-.82.277-.86" transform="translate(-4.536 -8.201)" fill="#1a1a1a"/>
    <path id="Trazado_599010" data-name="Trazado 599010" d="M43.695,66.7c.193-.037.326.042.406.741.089.779-.109.924-.284.923s-.36-.237-.37-.795-.005-.82.248-.87" transform="translate(-5.324 -8.172)" fill="#1a1a1a"/>
    <path id="Trazado_599011" data-name="Trazado 599011" d="M44.28,64.977a1.664,1.664,0,0,0-1.586-.269.237.237,0,0,1-.3-.174.242.242,0,0,1,.175-.3,1.86,1.86,0,0,1,1.867.312.241.241,0,0,1,.024.343.237.237,0,0,1-.183.084" transform="translate(-5.194 -7.859)" fill="#1a1a1a"/>
    <path id="Trazado_599012" data-name="Trazado 599012" d="M36.329,65.136c-.272-.188-.261-.342-.157-.429a2.7,2.7,0,0,1,2.376-.459.243.243,0,1,1-.138.467,2.246,2.246,0,0,0-1.923.362.239.239,0,0,1-.158.059" transform="translate(-4.424 -7.861)" fill="#1a1a1a"/>
    <path id="Trazado_599013" data-name="Trazado 599013" d="M129.584,96.655a.243.243,0,0,1-.244-.243l.009-3.918a.243.243,0,0,1,.486,0l-.007,3.918a.244.244,0,0,1-.244.243" transform="translate(-15.849 -11.304)" fill="#1a1a1a"/>
    <path id="Trazado_599014" data-name="Trazado 599014" d="M132.644,117.261c-.189-.039-.269-.168-.237-.3l.493-2.042a.244.244,0,0,1,.474.116l-.493,2.042a.245.245,0,0,1-.237.185" transform="translate(-16.224 -14.059)" fill="#1a1a1a"/>
    <path id="Trazado_599015" data-name="Trazado 599015" d="M138,117.26a12,12,0,0,1-.849-2.222.245.245,0,0,1,.163-.305.241.241,0,0,1,.3.163l.616,2.05a.245.245,0,0,1-.162.305.291.291,0,0,1-.071.009" transform="translate(-16.805 -14.058)" fill="#1a1a1a"/>
    <path id="Trazado_599016" data-name="Trazado 599016" d="M137.25,80.317A8.929,8.929,0,0,1,133.39,74a7.936,7.936,0,0,1-7.69,2.062.243.243,0,1,1,.11-.473,7.377,7.377,0,0,0,7.574-2.315c.441.177.619,4.322,4,6.593a.244.244,0,0,1-.136.447" transform="translate(-15.38 -8.979)" fill="#1a1a1a"/>
    <path id="Trazado_599017" data-name="Trazado 599017" d="M141.228,78.989c-.276-.28-.214-.42-.089-.47-.006,0,.74-.518,1.181-4.432a3.706,3.706,0,0,0-2.239-4.13,13.39,13.39,0,0,0-4.6-.338c-1.626-2.864-3.415-3.878-4.67-4.245a5.245,5.245,0,0,0-4.17.522,4.857,4.857,0,0,0-2.456,2.971,5.354,5.354,0,0,0,.6,3.684,1.661,1.661,0,0,0-1,.829,3.444,3.444,0,0,0,1.685,4.37.244.244,0,0,1-.239.426,3.939,3.939,0,0,1-1.882-5.014,1.329,1.329,0,0,1,.808-.755,5.635,5.635,0,0,1-.449-3.657,5.33,5.33,0,0,1,2.682-3.273,5.7,5.7,0,0,1,4.554-.57,7.8,7.8,0,0,1,4.648,4.211,13.373,13.373,0,0,1,4.629.376,4.194,4.194,0,0,1,2.579,4.649c-.476,4.233-1.322,4.768-1.487,4.832a.243.243,0,0,1-.089.016" transform="translate(-15.078 -7.924)" fill="#1a1a1a"/>
    <path id="Trazado_599018" data-name="Trazado 599018" d="M78.052,87a49.176,49.176,0,0,1-.545-5.039c.006-.073.93-3.956.93-3.956.054-.193.1-.38.147-.565.285-1.173.543-2.51-.019-3.486a3.057,3.057,0,0,0-1.358-1.091,12.537,12.537,0,0,0-2.364-.936,4.322,4.322,0,0,0-1.14-.2,1.541,1.541,0,0,0-1.622,1.321,2.005,2.005,0,0,0,.57,1.444A7.04,7.04,0,0,0,74.413,75.8a6.616,6.616,0,0,0,3.131.862.243.243,0,0,1,0,.487,7.09,7.09,0,0,1-3.368-.924,7.435,7.435,0,0,1-1.887-1.4,2.471,2.471,0,0,1-.693-1.808,2.021,2.021,0,0,1,2.1-1.768,4.835,4.835,0,0,1,1.279.214,13.119,13.119,0,0,1,2.458.976,3.435,3.435,0,0,1,1.555,1.279c.651,1.133.379,2.579.071,3.847-.048.19-.1.381-.148.569L78,81.965c.025.39.241,3.8.3,4.777a.246.246,0,0,1-.23.258Z" transform="translate(-8.772 -8.73)" fill="#1a1a1a"/>
    <path id="Trazado_599019" data-name="Trazado 599019" d="M67.223,89.982a38.631,38.631,0,0,1-1-4.606,55.3,55.3,0,0,1-1.393-5.453.244.244,0,0,1,.477-.1c.61,3.009,1.38,5.41,1.387,5.434l.764,4.436a.245.245,0,0,1-.2.283.232.232,0,0,1-.042,0" transform="translate(-7.944 -9.758)" fill="#1a1a1a"/>
    <path id="Trazado_599020" data-name="Trazado 599020" d="M66.106,79.537a2.013,2.013,0,0,1-1.358-.493,1.8,1.8,0,0,1-.343-.431,2.841,2.841,0,0,1-.317-.82,13.692,13.692,0,0,1-.538-4.4,2.461,2.461,0,0,1,.627-1.458,1.93,1.93,0,0,1,2.069-.431,3.069,3.069,0,0,1,1.475,1.729,8.247,8.247,0,0,1,.329,1,9.416,9.416,0,0,1,.361,2.883,2.851,2.851,0,0,1-.763,1.808,2.2,2.2,0,0,1-1.543.609m-.553-7.676a1.455,1.455,0,0,0-1.028.412,2.032,2.032,0,0,0-.491,1.174,13.218,13.218,0,0,0,.519,4.192,2.544,2.544,0,0,0,.27.724,1.356,1.356,0,0,0,.254.32,1.69,1.69,0,0,0,2.23-.1,2.369,2.369,0,0,0,.619-1.5,8.1,8.1,0,0,0-.26-2.373,9.331,9.331,0,0,0-.4-1.287,2.691,2.691,0,0,0-1.2-1.465,1.394,1.394,0,0,0-.512-.095" transform="translate(-7.783 -8.746)" fill="#1a1a1a"/>
    <path id="Trazado_599021" data-name="Trazado 599021" d="M76.694,71.488a44.9,44.9,0,0,0-1.722-6.782,2.544,2.544,0,0,0-.616-1.013,1.117,1.117,0,0,0-1.58.291c-.929,1.015-.691,2.259-.443,3.573.216,1.161.376,2.045.526,2.928a.243.243,0,0,1-.2.282.231.231,0,0,1-.283-.2c-.152-.884-.312-1.765-.474-2.646-.312-1.65-.583-3.071.509-4.267a1.583,1.583,0,0,1,2.261-.331,2.962,2.962,0,0,1,.751,1.2,27.775,27.775,0,0,1,1.51,6.686.242.242,0,0,1-.211.272.128.128,0,0,1-.031,0" transform="translate(-8.777 -7.717)" fill="#1a1a1a"/>
    <path id="Trazado_599022" data-name="Trazado 599022" d="M71.306,78.366a2.852,2.852,0,0,1-1.332-.336,2.761,2.761,0,0,1-1.208-1.663c-.135-.44-.232-.9-.324-1.342-.052-.254-.1-.5-.164-.755a4.3,4.3,0,0,1-.069-2.354,2.368,2.368,0,0,1,2.646-1.586,1.721,1.721,0,0,1,1.443,1.4.243.243,0,0,1-.211.272.237.237,0,0,1-.273-.211,1.29,1.29,0,0,0-1.078-.986,1.88,1.88,0,0,0-2.063,1.264,3.876,3.876,0,0,0,.08,2.091c.061.253.114.509.168.766.089.433.183.881.314,1.3a2.282,2.282,0,0,0,.973,1.378,2.07,2.07,0,0,0,2.037.018,2.127,2.127,0,0,0,.734-2.093.245.245,0,0,1,.225-.263.255.255,0,0,1,.262.225,2.521,2.521,0,0,1-.954,2.541,2.193,2.193,0,0,1-1.2.337" transform="translate(-8.341 -8.612)" fill="#1a1a1a"/>
    <path id="Trazado_599023" data-name="Trazado 599023" d="M102.263,124.5c-1.341,0-2.653-.052-3.906-.153a.244.244,0,0,1-.224-.263.256.256,0,0,1,.262-.224c1.491.121,3.058.166,4.671.147a.243.243,0,1,1,.006.486c-.27.005-.54.007-.809.007" transform="translate(-12.025 -15.177)" fill="#1a1a1a"/>
    <path id="Trazado_599024" data-name="Trazado 599024" d="M87.658,119.089A28.949,28.949,0,0,1,74.1,111.5c-5.583-5.586-7.787-13.226-9.92-20.615l-.258-.9a.244.244,0,0,1,.468-.136l.26.9c2.114,7.329,4.3,14.908,9.794,20.405a28.5,28.5,0,0,0,13.28,7.451.244.244,0,0,1-.061.48" transform="translate(-7.831 -10.989)" fill="#1a1a1a"/>
    <path id="Trazado_599025" data-name="Trazado 599025" d="M67.895,90.719c-2.155,0-3.832-.383-3.99-1.3-.138-.8.708-1.542,2.584-2.279a.244.244,0,0,1,.177.455c-1.536.6-2.367,1.237-2.281,1.74.127.743,3.066,1.3,7.567.527,4.282-.738,7.1-2.186,6.96-3.024-.075-.44-.765-.731-2-.844a.248.248,0,0,1-.221-.266.23.23,0,0,1,.267-.221c1.516.14,2.312.548,2.431,1.249.252,1.462-3.6,2.939-7.357,3.586a25.134,25.134,0,0,1-4.142.377" transform="translate(-7.829 -10.478)" fill="#1a1a1a"/>
    <path id="Trazado_599026" data-name="Trazado 599026" d="M137.75,69.715c-.234-.092-.28-.24-.215-.36s1.722-3.175,3.247-3.566a.241.241,0,0,1,.3.176.246.246,0,0,1-.176.3c-1.1.28-2.495,2.495-2.941,3.325a.243.243,0,0,1-.213.127" transform="translate(-16.85 -8.061)" fill="#1a1a1a"/>
    <path id="Trazado_599027" data-name="Trazado 599027" d="M136.7,69.154c-.227-.082-.279-.229-.218-.35a9.873,9.873,0,0,0,.671-1.822.248.248,0,0,1,.285-.195.245.245,0,0,1,.195.285,10,10,0,0,1-.713,1.945.243.243,0,0,1-.219.137" transform="translate(-16.721 -8.184)" fill="#1a1a1a"/>
    <path id="Trazado_599028" data-name="Trazado 599028" d="M130.118,85.218c-.16,0-1.574-.015-2.052-.524a.63.63,0,0,1-.176-.476,29.492,29.492,0,0,1,1.169-3.876.245.245,0,0,1,.311-.147.242.242,0,0,1,.147.312,28.424,28.424,0,0,0-1.139,3.743c.3.38,1.221.481,1.742.481a.244.244,0,1,1,0,.487" transform="translate(-15.671 -9.825)" fill="#1a1a1a"/>
    <path id="Trazado_599029" data-name="Trazado 599029" d="M132.033,89.338a2.8,2.8,0,0,1-.8-.118,1.785,1.785,0,0,1-1.2-.936.947.947,0,0,1,.129-.949,1.347,1.347,0,0,1,1.256-.432c.662.081.719.037.849-.061s.194-.141.31-.791a1.383,1.383,0,0,1,.784-1.071.962.962,0,0,1,.946.158A1.7,1.7,0,0,1,134.8,86.5a2.852,2.852,0,0,1-1.1,2.279,2.8,2.8,0,0,1-1.665.555m-.827-1.961a.834.834,0,0,0-.66.263.464.464,0,0,0-.054.476,1.36,1.36,0,0,0,.885.637,2.282,2.282,0,0,0,2.03-.364,2.354,2.354,0,0,0,.9-1.889,1.273,1.273,0,0,0-.3-.977.465.465,0,0,0-.472-.089.905.905,0,0,0-.481.7c-.136.766-.247.909-.5,1.1-.273.2-.462.243-1.2.151a1.311,1.311,0,0,0-.154-.01" transform="translate(-15.925 -10.406)" fill="#1a1a1a"/>
    <path id="Trazado_599030" data-name="Trazado 599030" d="M133.666,89.085a2.422,2.422,0,0,1,1.023-3.544.244.244,0,0,1,.241.424c-.081.047-1.957,1.142-1.052,2.758a.243.243,0,0,1-.212.362" transform="translate(-16.326 -10.478)" fill="#1a1a1a"/>
    <path id="Trazado_599031" data-name="Trazado 599031" d="M142.108,84.766c-.108-.024-2.395-1.156-2.395-1.156-.066-.39,2.012-2.516,2.012-2.516a.244.244,0,0,1,.348.342l-1.844,1.885,1.986.982a.244.244,0,0,1-.108.462" transform="translate(-17.12 -9.928)" fill="#1a1a1a"/>
    <path id="Trazado_599032" data-name="Trazado 599032" d="M152.859,117.2a.242.242,0,0,1-.243-.244v-1.9a.243.243,0,1,1,.486,0v1.9a.242.242,0,0,1-.243.244" transform="translate(-18.701 -14.069)" fill="#1a1a1a"/>
    <path id="Trazado_599033" data-name="Trazado 599033" d="M67.332,51.8a3.1,3.1,0,0,1-1.29-.3,5.247,5.247,0,0,1-2.02-1.683A10.935,10.935,0,0,1,62.35,46.49c-.115-.353-.216-.71-.317-1.074l-.129-.462c.168-.3,2.026-.816,2.026-.816a.349.349,0,0,1,.412.142,13.736,13.736,0,0,0,2.56,2.572.861.861,0,0,0,.8.166,3.219,3.219,0,0,0,.958-.441,13.066,13.066,0,0,0,2.107-1.749,39.606,39.606,0,0,0,3.352-3.8.408.408,0,0,1,.472-.156c.524.15,1.051.295,1.577.44l.38.1a25.581,25.581,0,0,1-4.08,6.694,15.7,15.7,0,0,1-2.741,2.7,8.513,8.513,0,0,1-1.078.661,2.82,2.82,0,0,1-1.318.335m-4.893-6.746c.162.587.261.937.376,1.285a10.531,10.531,0,0,0,1.593,3.188,4.8,4.8,0,0,0,1.836,1.532,2.35,2.35,0,0,0,2.18-.025,8.337,8.337,0,0,0,1.017-.622A15.21,15.21,0,0,0,72.1,47.8a45.869,45.869,0,0,0,4.133-5.964c-.705-.195-1.222-.337-1.738-.485a40.3,40.3,0,0,1-3.38,3.828,13.445,13.445,0,0,1-2.186,1.814,3.838,3.838,0,0,1-1.106.5,1.355,1.355,0,0,1-1.22-.256,14.257,14.257,0,0,1-2.606-2.609Z" transform="translate(-7.586 -5.006)" fill="#1a1a1a"/>
    <path id="Trazado_599034" data-name="Trazado 599034" d="M68.823,56.725A11.322,11.322,0,1,1,79.5,49.214a.244.244,0,0,1-.312.147.241.241,0,0,1-.147-.311,10.848,10.848,0,1,0-10.214,7.189.243.243,0,0,1,0,.486" transform="translate(-7.045 -4.174)" fill="#1a1a1a"/>
    <path id="Trazado_599035" data-name="Trazado 599035" d="M54.96,42.667c-.111-.027-5.81-2.969-5.81-2.969a.243.243,0,0,1,.223-.433l5.7,2.943a.243.243,0,0,1-.111.459" transform="translate(-6.007 -4.808)" fill="#1a1a1a"/>
    <path id="Trazado_599036" data-name="Trazado 599036" d="M81.894,37.857c-.274-.19-.26-.346-.156-.431L85.961,33.9a.244.244,0,1,1,.313.374L82.05,37.8a.236.236,0,0,1-.156.057" transform="translate(-10.008 -4.147)" fill="#1a1a1a"/>
    <path id="Trazado_599037" data-name="Trazado 599037" d="M87.439,62.4c-.156-.056-6.631-5.45-6.631-5.45a.244.244,0,0,1,.312-.374l6.475,5.394a.243.243,0,0,1-.156.43" transform="translate(-9.891 -6.926)" fill="#1a1a1a"/>
    <path id="Trazado_599038" data-name="Trazado 599038" d="M70.372,32.016a.243.243,0,0,1-.244-.244V25.813a.243.243,0,1,1,.487,0v5.959a.243.243,0,0,1-.243.244" transform="translate(-8.593 -3.133)" fill="#1a1a1a"/>
    <path id="Trazado_599039" data-name="Trazado 599039" d="M58.638,60.88c-.264-.156-.271-.311-.179-.41L60.383,58.4a.244.244,0,1,1,.357.332L58.816,60.8a.24.24,0,0,1-.178.078" transform="translate(-7.157 -7.147)" fill="#1a1a1a"/>
    <path id="Trazado_599040" data-name="Trazado 599040" d="M31.037,72.694a2.871,2.871,0,0,1-2.092-.942,2.765,2.765,0,0,1-.691-2.016A2.816,2.816,0,0,1,31.2,67.129a2.774,2.774,0,0,1,1.525.572.243.243,0,1,1-.3.386,2.3,2.3,0,0,0-3.694,1.679,2.3,2.3,0,0,0,3.349,2.181.244.244,0,1,1,.226.432,2.749,2.749,0,0,1-1.278.315" transform="translate(-3.461 -8.225)" fill="#1a1a1a"/>
    <path id="Trazado_599041" data-name="Trazado 599041" d="M30.726,71.6c-.276-.2-.257-.354-.149-.437l1.459-1.126L30.4,68.822a.245.245,0,1,1,.291-.393l1.893,1.4c0,.39-1.712,1.715-1.712,1.715a.243.243,0,0,1-.147.05" transform="translate(-3.713 -8.379)" fill="#1a1a1a"/>
    <path id="Trazado_599042" data-name="Trazado 599042" d="M37.978,88.64c-.15-.05-5.58-4.255-5.58-4.255A.245.245,0,0,1,32.7,84l5.108,3.958.9-5.084.214-4.074a.25.25,0,0,1,.256-.231.244.244,0,0,1,.23.256l-.217,4.1-.97,5.511c-.181.2-.211.2-.24.2" transform="translate(-3.959 -9.628)" fill="#1a1a1a"/>
    <path id="Trazado_599043" data-name="Trazado 599043" d="M20.707,80.3a2.982,2.982,0,0,1-1.343-2.786,2.576,2.576,0,0,1,.753-1.569,3.98,3.98,0,0,1,2.988-1.058A2.969,2.969,0,0,1,25.35,75.98a.243.243,0,1,1-.386.3,2.5,2.5,0,0,0-1.888-.9,3.389,3.389,0,0,0-2.61.913,2.076,2.076,0,0,0-.614,1.264,2.579,2.579,0,0,0,1.006,2.313.243.243,0,0,1-.15.435" transform="translate(-2.372 -9.176)" fill="#1a1a1a"/>
    <path id="Trazado_599044" data-name="Trazado 599044" d="M42.964,83.389c-.252-.122-.277-.274-.2-.385,1.618-2.281-.518-4.535-.54-4.558a.244.244,0,1,1,.351-.338c.025.025,2.437,2.57.585,5.18a.244.244,0,0,1-.2.1" transform="translate(-5.166 -9.562)" fill="#1a1a1a"/>
    <path id="Trazado_599045" data-name="Trazado 599045" d="M31.342,83.723a3.571,3.571,0,0,1-.638-.047.24.24,0,0,1-.191-.285A.254.254,0,0,1,30.8,83.2c.147.036,3.578.636,4.5-3.445.934-4.143-3.332-6.473-3.375-6.5a.243.243,0,0,1,.228-.429c.047.025,4.639,2.532,3.624,7.033-.776,3.438-3.246,3.865-4.428,3.865" transform="translate(-3.738 -8.92)" fill="#1a1a1a"/>
    <path id="Trazado_599046" data-name="Trazado 599046" d="M48.1,115.085c-.276-.2-.256-.354-.148-.437.169-.13.564-.356,1.111-.669,1.722-.985,4.93-2.818,5.494-4.248.3-.748.253-1.3-.123-1.608a1.163,1.163,0,0,0-1.237-.087.244.244,0,0,1-.271-.406,1.636,1.636,0,0,1,1.815.113c.319.258.778.883.271,2.167C54.38,111.5,51.2,113.317,49.3,114.4c-.509.291-.913.52-1.056.632a.246.246,0,0,1-.148.05" transform="translate(-5.867 -13.162)" fill="#1a1a1a"/>
    <path id="Trazado_599047" data-name="Trazado 599047" d="M41.154,122.081c-.279-.231-.242-.381-.127-.451.038-.025,4.009-2.458,9.087-5.426,1.834-1.071,2.939-2.242,3.2-3.386a1.968,1.968,0,0,0-.19-1.479.244.244,0,0,1,.4-.279,2.444,2.444,0,0,1,.27,1.847c-.284,1.3-1.439,2.554-3.431,3.72-5.073,2.963-9.038,5.4-9.077,5.42a.251.251,0,0,1-.127.035" transform="translate(-5.017 -13.596)" fill="#1a1a1a"/>
    <path id="Trazado_599048" data-name="Trazado 599048" d="M40.56,106.25a.25.25,0,0,1-.24-.283,58.917,58.917,0,0,1,3.372-12.38c.225-.145,10.3-.145,10.3-.145a.243.243,0,0,1,0,.487H44.079A59.812,59.812,0,0,0,40.8,106.048a.243.243,0,0,1-.24.2" transform="translate(-4.94 -11.45)" fill="#1a1a1a"/>
    <path id="Trazado_599049" data-name="Trazado 599049" d="M57.483,122.738H41.6a.243.243,0,0,1,0-.487H57.244c.257-16.22,3.493-26.4,4.157-28.323H54.116a.244.244,0,0,1,0-.487h7.63c.189.435-3.767,11.017-4.019,29.056a.244.244,0,0,1-.244.24" transform="translate(-5.068 -11.45)" fill="#1a1a1a"/>
    <path id="Trazado_599050" data-name="Trazado 599050" d="M52.95,152.629c-.825-.915-1.153-16.488-1.214-26.111a.244.244,0,0,1,.488,0c.082,13.211.5,24.994.92,25.725a.239.239,0,0,1-.047.338.233.233,0,0,1-.147.05" transform="translate(-6.34 -15.473)" fill="#1a1a1a"/>
    <path id="Trazado_599051" data-name="Trazado 599051" d="M8.117,154.588c-.406-3.6-.245-11.567-.244-11.647a.248.248,0,0,1,.248-.238.24.24,0,0,1,.239.247c0,.081-.161,8.031,0,11.382a.243.243,0,0,1-.232.254Z" transform="translate(-0.961 -17.487)" fill="#1a1a1a"/>
    <path id="Trazado_599052" data-name="Trazado 599052" d="M19.224,120.918c-.23-.085-.279-.233-.218-.353,4-7.953,4.517-20.748,4.522-20.877a.226.226,0,0,1,.254-.233.243.243,0,0,1,.233.253c-.005.129-.522,13.027-4.573,21.076a.242.242,0,0,1-.218.134" transform="translate(-2.326 -12.187)" fill="#1a1a1a"/>
    <path id="Trazado_599053" data-name="Trazado 599053" d="M80.674,153.447a9.241,9.241,0,0,0-2.773-.587,10.808,10.808,0,0,1-6.968-3.16.244.244,0,1,1,.367-.322,10.518,10.518,0,0,0,6.644,3,9.034,9.034,0,0,1,2.823.6.244.244,0,0,1-.093.469" transform="translate(-8.685 -18.294)"/>
    <path id="Trazado_599054" data-name="Trazado 599054" d="M80.175,155.647c-.254-.131-.276-.283-.195-.39a1.323,1.323,0,0,0,.248-1.056c-.121-.335-.5-.582-1.141-.734-2.258-.539-4.6-1.314-4.629-1.321a.245.245,0,0,1,.154-.464c.023.009,2.35.779,4.587,1.312a1.875,1.875,0,0,1,1.487,1.046,1.782,1.782,0,0,1-.319,1.511.238.238,0,0,1-.193.1" transform="translate(-9.104 -18.585)" fill="#1a1a1a"/>
    <path id="Trazado_599055" data-name="Trazado 599055" d="M69.73,155.938c-3.074-.634-2.9-2.356-2.888-2.429a.237.237,0,0,1,.27-.212.242.242,0,0,1,.212.268c-.005.065-.093,1.359,2.454,1.891a.243.243,0,0,1-.049.482" transform="translate(-8.19 -18.784)" fill="#1a1a1a"/>
    <path id="Trazado_599056" data-name="Trazado 599056" d="M61.743,156.018a3.419,3.419,0,0,1-1.017-1.327.244.244,0,0,1,.461-.159,3.178,3.178,0,0,0,.727,1.068.244.244,0,0,1-.171.418" transform="translate(-7.44 -18.916)" fill="#1a1a1a"/>
    <path id="Trazado_599057" data-name="Trazado 599057" d="M42.29,71.811c-.277-.216-.25-.368-.139-.445a2.845,2.845,0,0,0,.988-1.372c-.154-.326-.629-.121-.88-.014-.279.12-.461.2-.62.118a21.707,21.707,0,0,1-.593-3.176.244.244,0,1,1,.483-.064c.119.878.307,2.229.39,2.737.566-.244,1.2-.518,1.559-.1a.686.686,0,0,1,.144.558,3.24,3.24,0,0,1-1.193,1.711.24.24,0,0,1-.139.042" transform="translate(-5.029 -8.167)" fill="#1a1a1a"/>
    <path id="Trazado_599058" data-name="Trazado 599058" d="M39.807,74.291a1.718,1.718,0,0,1-1-.295,2.314,2.314,0,0,1-.852-1.55.245.245,0,0,1,.487-.047,1.828,1.828,0,0,0,.644,1.2,1.569,1.569,0,0,0,1.327.117.244.244,0,0,1,.129.47,2.831,2.831,0,0,1-.737.108" transform="translate(-4.651 -8.845)" fill="#1a1a1a"/>
    <path id="Trazado_599059" data-name="Trazado 599059" d="M215.348,67.846c-.2-.012-.319.082-.311.786.009.784.223.9.4.879s.327-.278.269-.834-.1-.813-.354-.831" transform="translate(-26.35 -8.314)" fill="#1a1a1a"/>
    <path id="Trazado_599060" data-name="Trazado 599060" d="M212.577,75.684a2.668,2.668,0,0,1-.87-.162.244.244,0,0,1,.161-.462,1.543,1.543,0,0,0,1.334-.027,1.818,1.818,0,0,0,.724-1.146.225.225,0,0,1,.281-.2.242.242,0,0,1,.2.28,2.307,2.307,0,0,1-.956,1.485,1.682,1.682,0,0,1-.874.232" transform="translate(-25.922 -9.029)" fill="#1a1a1a"/>
    <path id="Trazado_599061" data-name="Trazado 599061" d="M92.444,138.521c-2.643-.078-3.626-1.24-4.032-2.2a5.706,5.706,0,0,1,1.166-5.589c.021-.024.8-.979.034-3.283a4.762,4.762,0,0,1,.324-4.092,4.414,4.414,0,0,1,6.688-.462,4.382,4.382,0,0,1,1.091,3.689c-.433,2.073-.548,2.623,0,4.409a6.871,6.871,0,0,1-.985,5.63,5.075,5.075,0,0,1-4.282,1.9m1.16-16.472c-.148,0-.3.008-.462.024a3.608,3.608,0,0,0-2.8,1.544,4.279,4.279,0,0,0-.271,3.672c.873,2.624-.094,3.721-.133,3.766a5.261,5.261,0,0,0-1.08,5.073,3.4,3.4,0,0,0,3.339,1.9,4.764,4.764,0,0,0,4.139-1.708,6.426,6.426,0,0,0,.9-5.192,6.92,6.92,0,0,1-.058-4.4,4.041,4.041,0,0,0-.921-3.516,3.489,3.489,0,0,0-2.66-1.168" transform="translate(-10.795 -14.896)" fill="#1a1a1a"/>
    <path id="Trazado_599062" data-name="Trazado 599062" d="M97.873,120.19c-.983,0-1.753-1.12-1.753-2.549s.77-2.55,1.753-2.55,1.753,1.121,1.753,2.55-.77,2.549-1.753,2.549m0-4.612c-.686,0-1.266.944-1.266,2.063s.58,2.062,1.266,2.062,1.266-.944,1.266-2.062-.58-2.063-1.266-2.063" transform="translate(-11.778 -14.103)" fill="#1a1a1a"/>
    <path id="Trazado_599063" data-name="Trazado 599063" d="M86.468,154.622c-.083-.013-3.1-.719-3.281-3.656a2.375,2.375,0,0,1,.664-1.959,3.618,3.618,0,0,1,2.626-.74.243.243,0,1,1-.051.484,3.244,3.244,0,0,0-2.24.611,1.917,1.917,0,0,0-.513,1.576,3.665,3.665,0,0,0,2.848,3.2.244.244,0,0,1-.054.482" transform="translate(-10.193 -18.166)" fill="#1a1a1a"/>
    <path id="Trazado_599064" data-name="Trazado 599064" d="M86.144,155.977c-.075-.006-5.034-.548-4.7-5.227a4.469,4.469,0,0,1,1.49-3.283,4.693,4.693,0,0,1,3.286-.941.243.243,0,1,1-.058.483,4.306,4.306,0,0,0-2.921.836,4.01,4.01,0,0,0-1.311,2.94c-.3,4.2,4.053,4.687,4.239,4.706a.244.244,0,0,1,.218.268.242.242,0,0,1-.242.218" transform="translate(-9.978 -17.952)" fill="#1a1a1a"/>
    <path id="Trazado_599065" data-name="Trazado 599065" d="M91.892,159.969c-.875,0-5.237-.048-5.237-1.028a.243.243,0,0,1,.487,0c.174.19,1.978.541,4.75.541,2.743,0,4.524-.352,4.709-.593.371-.217.473-.083.473.052,0,.98-4.317,1.028-5.182,1.028" transform="translate(-10.619 -19.447)" fill="#1a1a1a"/>
    <path id="Trazado_599066" data-name="Trazado 599066" d="M98.218,157.63a.243.243,0,0,1-.243-.244V146.25a.243.243,0,0,1,.487,0v11.136a.243.243,0,0,1-.244.244" transform="translate(-12.006 -17.891)" fill="#1a1a1a"/>
    <path id="Trazado_599067" data-name="Trazado 599067" d="M86.893,157.618a.243.243,0,0,1-.243-.244V146.156a.244.244,0,0,1,.487,0v11.218a.243.243,0,0,1-.244.244" transform="translate(-10.618 -17.88)" fill="#1a1a1a"/>
    <path id="Trazado_599068" data-name="Trazado 599068" d="M91.862,147.3c-.212,0-5.212-.013-5.212-1.181s5-1.181,5.212-1.181,5.212.012,5.212,1.181-5,1.181-5.212,1.181m0-1.876c-2.912,0-4.6.458-4.729.714.128.218,1.816.675,4.729.675,2.838,0,4.515-.435,4.715-.694-.2-.26-1.878-.695-4.715-.695" transform="translate(-10.618 -17.76)" fill="#1a1a1a"/>
    <path id="Trazado_599069" data-name="Trazado 599069" d="M223.526,73.13a2.877,2.877,0,0,1-1.429-.378.244.244,0,0,1,.242-.423,2.351,2.351,0,0,0,1.41.3,2.412,2.412,0,1,0-2.375-3.486.244.244,0,0,1-.435-.218,2.9,2.9,0,1,1,2.856,4.191c-.091.009-.181.011-.269.011" transform="translate(-27.07 -8.25)" fill="#1a1a1a"/>
    <path id="Trazado_599070" data-name="Trazado 599070" d="M224.49,71.781c-.114-.027-2.048-1.056-2.048-1.056-.048-.4,1.651-1.93,1.651-1.93a.244.244,0,0,1,.343.018.242.242,0,0,1-.017.343l-1.442,1.3,1.627.864a.244.244,0,0,1,.1.33.247.247,0,0,1-.217.129" transform="translate(-27.258 -8.423)" fill="#1a1a1a"/>
    <path id="Trazado_599071" data-name="Trazado 599071" d="M215.1,91.063a.248.248,0,0,1-.245-.261,13.078,13.078,0,0,1,1.693-5.429c1.052-1.6,4.524-2.964,5.967-3.476a.245.245,0,1,1,.164.461c-2.911,1.031-5.049,2.259-5.724,3.283a12.81,12.81,0,0,0-1.612,5.2.244.244,0,0,1-.243.226" transform="translate(-26.328 -10.034)" fill="#1a1a1a"/>
    <path id="Trazado_599072" data-name="Trazado 599072" d="M239.22,96.775a51.079,51.079,0,0,0-2.417-5.608,8.156,8.156,0,0,0-4.719-3.856c-.417-.141-.842-.269-1.268-.4a20.756,20.756,0,0,1-2.5-.875,11.6,11.6,0,0,1-2.964-2c-2.913-2.61-2.528-7.2-.854-10.6a.244.244,0,0,1,.439.216c-1.594,3.23-1.982,7.58.741,10.019a11.124,11.124,0,0,0,2.839,1.92,20.489,20.489,0,0,0,2.443.852c.43.129.86.261,1.286.4a8.623,8.623,0,0,1,4.986,4.078,30.89,30.89,0,0,1,2.224,5.528.245.245,0,0,1-.157.307.229.229,0,0,1-.075.011" transform="translate(-27.35 -8.983)" fill="#1a1a1a"/>
    <path id="Trazado_599073" data-name="Trazado 599073" d="M220.688,67.741a7.35,7.35,0,0,1-2.149-6.254,9.594,9.594,0,0,0-5.7,2.59.245.245,0,0,1-.343.027.242.242,0,0,1-.027-.343c.079-.093,1.982-2.279,6.34-2.8.259.329-.455,3.831,2.056,6.364a.243.243,0,0,1,0,.345.237.237,0,0,1-.172.071" transform="translate(-26.028 -7.47)" fill="#1a1a1a"/>
    <path id="Trazado_599074" data-name="Trazado 599074" d="M218.583,84.113a.243.243,0,0,1-.243-.235l-.163-4.486a.244.244,0,0,1,.487-.016l.162,4.486a.242.242,0,0,1-.235.251Z" transform="translate(-26.735 -9.698)" fill="#1a1a1a"/>
    <path id="Trazado_599075" data-name="Trazado 599075" d="M212.766,86.4c-12.987-3.755-18.944-18.7-19-18.849a.244.244,0,0,1,.139-.316.24.24,0,0,1,.316.139c.058.148,5.929,14.871,18.615,18.549a.244.244,0,0,1-.068.477" transform="translate(-23.742 -8.237)" fill="#1a1a1a"/>
    <path id="Trazado_599076" data-name="Trazado 599076" d="M204.639,102.486c-8.246-3.281-19.066-11.231-24.315-30.558a.244.244,0,0,1,.171-.3.238.238,0,0,1,.3.171c5.195,19.136,15.883,26.993,23.934,30.218a.243.243,0,0,1-.089.469" transform="translate(-22.095 -8.776)" fill="#1a1a1a"/>
    <path id="Trazado_599077" data-name="Trazado 599077" d="M191.1,67.7c-.374-.5-1.672-3.62-1-4.7a8.166,8.166,0,0,1,1.79-1.973c.211-.183.416-.358.606-.545.667-.653.9-1.311.638-1.8a1.3,1.3,0,0,0-1.436-.529c-1.329.273-3.117,2.023-4.423,3.3-1.273,1.25-5.145,1.015-5.315,1a.244.244,0,0,1-.227-.259c1.32-.163,4.25-.16,5.07-.963,1.555-1.522,3.328-3.257,4.8-3.56a1.777,1.777,0,0,1,1.966.778c.175.331.455,1.223-.727,2.38-.2.194-.409.376-.628.566a7.63,7.63,0,0,0-1.694,1.861c-.405.652.283,2.863.812,4.1a.243.243,0,0,1-.224.338" transform="translate(-22.269 -7.062)" fill="#1a1a1a"/>
    <path id="Trazado_599078" data-name="Trazado 599078" d="M181.653,70.748c-.395-1.2-1.076-3.86-2.377-4.166-1.588-.372-6.846-2.72-7.434-5.45a1.29,1.29,0,0,1,.377-1.254,1.886,1.886,0,0,1,1.824-.306,48.169,48.169,0,0,1,5.15,2.669c.62-.065,4.346-.364,6.174,1.612a.244.244,0,1,1-.357.333c-1.789-1.937-5.8-1.457-5.837-1.452-.193-.054-4.191-2.366-5.272-2.694a1.389,1.389,0,0,0-1.351.2.792.792,0,0,0-.231.791c.5,2.342,5.242,4.651,7.07,5.08,1.886.443,2.48,4.2,2.506,4.359a.245.245,0,0,1-.2.278.2.2,0,0,1-.038,0" transform="translate(-21.053 -7.287)" fill="#1a1a1a"/>
    <path id="Trazado_599079" data-name="Trazado 599079" d="M182.937,62.544c-2.495-1.493-6.5-3.761-7.347-3.761a1.2,1.2,0,0,0-1.109.919.228.228,0,0,1-.28.2.242.242,0,0,1-.2-.281,1.656,1.656,0,0,1,1.493-1.32c1.179-.14,6.92,3.391,7.571,3.792a.243.243,0,0,1,.081.335.24.24,0,0,1-.208.116" transform="translate(-21.321 -7.144)" fill="#1a1a1a"/>
    <path id="Trazado_599080" data-name="Trazado 599080" d="M185.589,62.034c-.158-.057-2.6-1.66-3.154-1.955-.277-.147-.605-.34-.961-.553a10.328,10.328,0,0,0-3.608-1.6c-1.122-.076-1.339.552-1.348.578a.251.251,0,0,1-.3.162.244.244,0,0,1-.166-.3c.011-.041.323-1.008,1.842-.929a10.357,10.357,0,0,1,3.83,1.669c.35.209.672.4.942.544.569.3,2.958,1.869,3.059,1.937a.244.244,0,0,1-.133.447" transform="translate(-21.572 -7.038)" fill="#1a1a1a"/>
    <path id="Trazado_599081" data-name="Trazado 599081" d="M190.362,114.685a31.035,31.035,0,0,1-4.743-4.519c-.28-.355-.541-.728-.8-1.1a15.63,15.63,0,0,0-1.177-1.549q-.2-.222-.415-.426a2.369,2.369,0,0,0-.788-.519,1.177,1.177,0,0,0-1.014.161,1.379,1.379,0,0,0-.623,1.009,3.238,3.238,0,0,0,.675,1.8c.189.3.393.582.6.865.232.324.472.659.686,1.009a1.436,1.436,0,0,1-.176,2.256c-.914.738-2.073-.495-2.761-1.235-.1-.1-.184-.2-.26-.274a.244.244,0,1,1,.348-.342c.079.079.168.176.268.283.573.616,1.531,1.651,2.1,1.186a.9.9,0,0,0,.169-1.468c-.308-.486-.543-.815-.77-1.131-.212-.292-.421-.585-.614-.89a3.608,3.608,0,0,1-.749-2.1,1.85,1.85,0,0,1,.841-1.38,1.64,1.64,0,0,1,1.441-.216,2.792,2.792,0,0,1,.962.624c.156.147.3.3.447.456a16.6,16.6,0,0,1,1.213,1.593c.255.366.51.732.785,1.08a18.289,18.289,0,0,0,2.066,2.2c2.023,1.853,2.427,2.172,2.443,2.186a.241.241,0,0,1,.042.34.245.245,0,0,1-.192.094" transform="translate(-21.995 -12.993)" fill="#1a1a1a"/>
    <path id="Trazado_599082" data-name="Trazado 599082" d="M174.144,111.017a2.694,2.694,0,0,1-.891-2.091,1.543,1.543,0,0,1,.784-1.515.244.244,0,0,1,.245.423,1.062,1.062,0,0,0-.543,1.092,2.816,2.816,0,0,0,.588,1.687.243.243,0,0,1-.183.4" transform="translate(-21.23 -13.158)" fill="#1a1a1a"/>
    <path id="Trazado_599083" data-name="Trazado 599083" d="M179.959,111.518c-.168-.066-7.985-7.435-7.985-7.435-.01-.344,11.57-12.631,11.57-12.631a.243.243,0,0,1,.345-.01l7.816,7.366a.245.245,0,0,1,.01.346l-7.478,7.935a.244.244,0,0,1-.355-.335L191.193,99l-7.461-7.031L172.486,103.9l7.463,7.033,1.233-1.31a.244.244,0,0,1,.354.335l-1.4,1.487c-.173.075-.176.075-.177.075" transform="translate(-21.073 -11.197)" fill="#1a1a1a"/>
    <path id="Trazado_599084" data-name="Trazado 599084" d="M177.806,104.49c-.266-.158-.27-.312-.177-.412l7.091-7.508a.244.244,0,1,1,.355.335l-7.092,7.508a.247.247,0,0,1-.176.075" transform="translate(-21.76 -11.824)" fill="#1a1a1a"/>
    <path id="Trazado_599085" data-name="Trazado 599085" d="M183,105.573c-.266-.158-.269-.312-.177-.411l5.334-5.648a.244.244,0,1,1,.354.334l-5.334,5.649a.247.247,0,0,1-.177.075" transform="translate(-22.396 -12.185)" fill="#1a1a1a"/>
    <path id="Trazado_599086" data-name="Trazado 599086" d="M178.4,115.828a30.457,30.457,0,0,1-4.359-4.465.243.243,0,0,1,.383-.3,32.378,32.378,0,0,0,4.131,4.334.245.245,0,0,1,.033.343.242.242,0,0,1-.189.089" transform="translate(-21.32 -13.598)" fill="#1a1a1a"/>
    <path id="Trazado_599087" data-name="Trazado 599087" d="M118.4,46.361h-4.749a1.4,1.4,0,0,1-1.4-1.4V40.21a1.406,1.406,0,0,1,1.4-1.4H118.4a1.405,1.405,0,0,1,1.4,1.4v4.749a1.4,1.4,0,0,1-1.4,1.4m-4.749-7.068a.917.917,0,0,0-.917.917v4.749a.917.917,0,0,0,.917.916H118.4a.917.917,0,0,0,.917-.916V40.21a.918.918,0,0,0-.917-.917Z" transform="translate(-13.754 -4.755)" fill="#1a1a1a"/>
    <path id="Trazado_599088" data-name="Trazado 599088" d="M118.4,59.662h-4.749a1.4,1.4,0,0,1-1.4-1.4V53.51a1.406,1.406,0,0,1,1.4-1.4H118.4a1.4,1.4,0,0,1,1.4,1.4v4.75a1.4,1.4,0,0,1-1.4,1.4m-4.749-7.069a.918.918,0,0,0-.917.917v4.75a.917.917,0,0,0,.917.916H118.4a.918.918,0,0,0,.917-.916V53.51a.918.918,0,0,0-.917-.917Z" transform="translate(-13.754 -6.385)" fill="#1a1a1a"/>
    <path id="Trazado_599089" data-name="Trazado 599089" d="M153.355,41.017H123.643a.243.243,0,1,1,0-.486h29.712a.243.243,0,1,1,0,.486" transform="translate(-15.121 -4.967)" fill="#1a1a1a"/>
    <path id="Trazado_599090" data-name="Trazado 599090" d="M153.355,46.072H123.643a.243.243,0,1,1,0-.487h29.712a.243.243,0,0,1,0,.487" transform="translate(-15.121 -5.586)" fill="#1a1a1a"/>
    <path id="Trazado_599091" data-name="Trazado 599091" d="M153.355,54.318H123.643a.243.243,0,1,1,0-.487h29.712a.243.243,0,0,1,0,.487" transform="translate(-15.121 -6.596)" fill="#1a1a1a"/>
    <path id="Trazado_599092" data-name="Trazado 599092" d="M153.355,59.372H123.643a.243.243,0,1,1,0-.486h29.712a.243.243,0,1,1,0,.486" transform="translate(-15.121 -7.216)" fill="#1a1a1a"/>
    <path id="Trazado_599093" data-name="Trazado 599093" d="M184.05,123.063a3.312,3.312,0,0,0-2.209-1.414,10.709,10.709,0,0,1-2.751-1.191,18.112,18.112,0,0,1-5.868-6.572c-1.135-2.336.483-3.291.5-3.3a.239.239,0,0,1,.332.09.242.242,0,0,1-.09.333c-.061.036-1.226.76-.3,2.664a17.553,17.553,0,0,0,5.69,6.371,10.041,10.041,0,0,0,2.633,1.138c1.017.314,1.82.562,2.283,1.533a.239.239,0,0,1-.114.324.223.223,0,0,1-.1.024" transform="translate(-21.177 -13.547)" fill="#1a1a1a"/>
    <path id="Trazado_599094" data-name="Trazado 599094" d="M35.388,113.96c-.276-.283-.213-.423-.087-.47,0,0,1.039-.493,1.226-3.562.345-5.663,3.939-6.9,4.092-6.951a.244.244,0,0,1,.152.464c-.14.046-3.433,1.2-3.756,6.516-.207,3.383-1.4,3.935-1.539,3.986a.235.235,0,0,1-.087.017" transform="translate(-4.313 -12.617)" fill="#1a1a1a"/>
    <path id="Trazado_599095" data-name="Trazado 599095" d="M45.54,112.8c-.277-.265-.223-.409-.1-.465,3.509-1.587,6.341-3.949,6.732-5.615a1.369,1.369,0,0,0-.261-1.254,1.018,1.018,0,0,0-.772-.408,2.728,2.728,0,0,0-1.352.549c-.44.284-.866.606-1.281.918-.174.13-.346.261-.52.39-.95.7-1.93,1.312-2.844,1.871-.23.14-.458.292-.689.444a9.9,9.9,0,0,1-1.856,1.046,1.721,1.721,0,0,1-.953.124c-1.42-.287-1.358-2.142-1.328-3.033a.232.232,0,0,1,.251-.235.243.243,0,0,1,.235.251c-.038,1.154.044,2.357.938,2.54a1.275,1.275,0,0,0,.684-.1,9.518,9.518,0,0,0,1.759-1c.235-.157.469-.31.7-.453.907-.555,1.874-1.162,2.809-1.849.174-.127.345-.256.517-.385.421-.318.856-.647,1.311-.938a3.1,3.1,0,0,1,1.614-.626,1.471,1.471,0,0,1,1.151.584,1.851,1.851,0,0,1,.36,1.675c-.5,2.137-3.984,4.58-7.007,5.947a.232.232,0,0,1-.1.021" transform="translate(-4.939 -12.814)" fill="#1a1a1a"/>
    <path id="Trazado_599096" data-name="Trazado 599096" d="M181.433,71.778c-.587,0-1.009-.115-1.109-.416-.162-.5.345-.973,1.81-1.68a.243.243,0,0,1,.212.438c-1.607.777-1.568,1.062-1.558,1.092.216.233,2.388.088,5.918-1.068s5.366-2.325,5.4-2.655c-.006,0-.161-.218-1.635.016a.235.235,0,0,1-.277-.2.241.241,0,0,1,.2-.28c1.4-.226,2.031-.126,2.178.329a.5.5,0,0,1-.043.387c-.419.832-3.235,2.07-5.673,2.868a24.284,24.284,0,0,1-5.426,1.171" transform="translate(-22.093 -8.199)" fill="#1a1a1a"/>
    <path id="Trazado_599097" data-name="Trazado 599097" d="M156.51,90.98h-5.781a.242.242,0,0,1-.243-.243V72.788a.242.242,0,0,1,.243-.243h5.781a.242.242,0,0,1,.243.243v5.766a.243.243,0,1,1-.487,0V73.031h-5.294V90.494h5.294V85.208a.243.243,0,1,1,.487,0v5.529a.242.242,0,0,1-.243.243" transform="translate(-18.44 -8.89)" fill="#1a1a1a"/>
    <path id="Trazado_599098" data-name="Trazado 599098" d="M167.529,91.927H161.75a.242.242,0,0,1-.243-.243V80.514a.242.242,0,0,1,.243-.243h5.779a.242.242,0,0,1,.243.243v11.17a.242.242,0,0,1-.243.243m-5.536-.487h5.293V80.757h-5.293Z" transform="translate(-19.791 -9.836)" fill="#1a1a1a"/>
    <path id="Trazado_599099" data-name="Trazado 599099" d="M178.549,92.494H172.77a.241.241,0,0,1-.243-.243V87.829a.243.243,0,1,1,.487,0v4.178h5.292V85.381h-3.663a.243.243,0,0,1,0-.487h3.906a.242.242,0,0,1,.244.243v7.114a.242.242,0,0,1-.244.243" transform="translate(-21.141 -10.403)" fill="#1a1a1a"/>
    <path id="Trazado_599100" data-name="Trazado 599100" d="M31.621,50.7a4.114,4.114,0,0,1-.276-1.649.244.244,0,0,1,.487,0c0,.461.009.924.032,1.391a.244.244,0,0,1-.232.254Z" transform="translate(-3.841 -5.981)" fill="#1a1a1a"/>
    <path id="Trazado_599101" data-name="Trazado 599101" d="M31.761,40.487a.248.248,0,0,1-.242-.269,28.167,28.167,0,0,1,.444-2.819.243.243,0,0,1,.476.1c-.192.924-.339,1.855-.437,2.771a.242.242,0,0,1-.241.217m1.156-5.531c-.2-.052-.273-.189-.233-.316.28-.894.608-1.8.975-2.679a.248.248,0,0,1,.319-.132.244.244,0,0,1,.132.319c-.362.87-.684,1.757-.962,2.636a.242.242,0,0,1-.232.171m2.171-5.218c-.233-.09-.279-.237-.216-.356.432-.825.91-1.655,1.423-2.469a.244.244,0,1,1,.412.261c-.5.8-.977,1.62-1.4,2.433a.243.243,0,0,1-.216.131M38.1,24.955c-.253-.129-.276-.281-.2-.389.56-.752,1.16-1.5,1.781-2.222a.25.25,0,0,1,.345-.026.247.247,0,0,1,.025.345c-.615.714-1.208,1.452-1.761,2.194a.243.243,0,0,1-.195.1m55.613-2.388c-.275,0-.566-.014-.886-.045a8.319,8.319,0,0,1-1.206-.2.244.244,0,0,1,.115-.474,7.733,7.733,0,0,0,1.139.187,7.006,7.006,0,0,0,1.585,0,.249.249,0,0,1,.273.211.243.243,0,0,1-.211.272,6.443,6.443,0,0,1-.808.048m3.134-1.426c-.241-.106-.278-.256-.207-.371a3.226,3.226,0,0,0,.441-1.692,4.109,4.109,0,0,0-.092-.867.244.244,0,0,1,.477-.1,4.535,4.535,0,0,1,.1.969,3.724,3.724,0,0,1-.512,1.945.244.244,0,0,1-.209.116m-7.593-.173a2.053,2.053,0,0,1-.65-.912,3.1,3.1,0,0,1-.169-1.036,4.545,4.545,0,0,1,.131-1.041.235.235,0,0,1,.294-.181.244.244,0,0,1,.181.293,4.067,4.067,0,0,0-.118.928,2.567,2.567,0,0,0,.144.871,2.388,2.388,0,0,0,.378.682.243.243,0,0,1-.039.342.235.235,0,0,1-.151.053m-47.459-.3c-.268-.166-.268-.319-.172-.416.657-.662,1.353-1.318,2.071-1.951a.238.238,0,0,1,.343.021.241.241,0,0,1-.021.343c-.709.627-1.4,1.276-2.048,1.931a.243.243,0,0,1-.173.071m4.242-3.745c-.276-.2-.256-.354-.15-.437.758-.585,1.534-1.145,2.307-1.665a.243.243,0,1,1,.273.4c-.765.515-1.532,1.07-2.28,1.65a.249.249,0,0,1-.15.05m49.87-.992a20.542,20.542,0,0,0-2.217-1.97.244.244,0,0,1-.049-.341.248.248,0,0,1,.342-.048,12.91,12.91,0,0,1,2.111,1.96.244.244,0,0,1-.031.343.239.239,0,0,1-.156.056m-6.047-.271c-.234-.09-.279-.238-.216-.357a17.886,17.886,0,0,1,1.542-2.416.244.244,0,1,1,.39.293,17.306,17.306,0,0,0-1.5,2.352.245.245,0,0,1-.216.128M50.728,13.755c-.278-.237-.24-.385-.122-.455.817-.477,1.658-.935,2.5-1.357a.243.243,0,0,1,.218.434c-.832.419-1.665.872-2.474,1.346a.239.239,0,0,1-.123.032m40.7-1.225c-.936-.462-1.789-.873-2.646-1.246a.244.244,0,0,1,.194-.448c.87.379,1.732.795,2.567,1.235a.243.243,0,0,1-.115.459M55.788,11.218c-.277-.273-.219-.416-.1-.468.857-.362,1.738-.7,2.615-1a.266.266,0,0,1,.328.133A19.35,19.35,0,0,1,55.882,11.2a.257.257,0,0,1-.095.019m37.457-.069c-.268-.166-.268-.319-.173-.416a24.783,24.783,0,0,1,2.13-1.9.243.243,0,1,1,.3.38,24.923,24.923,0,0,0-2.088,1.868.245.245,0,0,1-.172.071m54.325-.872c-.846-.708-1.557-1.333-2.284-1.917a.247.247,0,0,1-.037-.344.251.251,0,0,1,.343-.037c.737.595,1.458,1.227,2.145,1.878a.244.244,0,0,1,.01.345.247.247,0,0,1-.177.075m-61.329-.005c-.963-.32-1.868-.6-2.768-.841a.245.245,0,0,1-.172-.3.24.24,0,0,1,.3-.173c.912.247,1.828.528,2.722.84a.243.243,0,0,1-.081.473m-25.1-.879c-.271-.311-.192-.445-.063-.479.924-.244,1.858-.457,2.775-.634a.244.244,0,1,1,.093.48c-.906.174-1.83.385-2.743.626a.217.217,0,0,1-.062.008m19.638-.6c-.961-.185-1.9-.34-2.825-.461a.245.245,0,0,1-.209-.275.238.238,0,0,1,.274-.209c.937.122,1.884.278,2.807.462a.243.243,0,0,1-.047.482M66.7,8.317c-.259-.347-.164-.468-.03-.486.927-.118,1.879-.209,2.832-.269a.244.244,0,0,1,.032.487c-.942.059-1.885.149-2.8.265a.121.121,0,0,1-.031,0m8.475-.261c-.939-.059-1.886-.091-2.828-.093a.243.243,0,0,1,0-.487c.954,0,1.912.032,2.845.094a.243.243,0,0,1-.017.486M97.644,7.6c-.277-.222-.247-.372-.133-.447.774-.512,1.6-1.006,2.443-1.469a.243.243,0,1,1,.235.426c-.835.458-1.645.946-2.411,1.449a.231.231,0,0,1-.133.04m45.521-.878c-.909-.57-1.71-1.073-2.517-1.535a.244.244,0,1,1,.242-.425c.818.47,1.63.979,2.413,1.514a.243.243,0,0,1-.139.445m-40.57-1.864c-.277-.264-.226-.409-.1-.466.849-.4,1.729-.775,2.615-1.124a.244.244,0,1,1,.18.453c-.877.347-1.747.721-2.588,1.113a.261.261,0,0,1-.1.024m35.664-.948c-.957-.423-1.829-.79-2.693-1.111a.244.244,0,0,1,.171-.457c.877.326,1.76.7,2.624,1.1a.244.244,0,0,1-.1.464m-30.4-1.144c-.275-.295-.2-.433-.078-.475.9-.3,1.814-.574,2.727-.815a.247.247,0,0,1,.3.175.243.243,0,0,1-.172.3c-.906.239-1.813.509-2.7.806a.237.237,0,0,1-.077.012m25.1-.825c-.368-.094-.671-.173-.977-.247-.593-.147-1.207-.283-1.825-.405a.244.244,0,0,1,.093-.478c.628.124,1.249.261,1.848.41q.467.116.926.241a.244.244,0,0,1-.065.48m-19.633-.619c-.266-.328-.179-.456-.047-.483C114.2.66,115.149.5,116.087.381a.234.234,0,0,1,.274.21.242.242,0,0,1-.209.273c-.928.124-1.863.277-2.779.457a.209.209,0,0,1-.047,0M127.411.841Q125.975.659,124.58.571a.244.244,0,0,1-.229-.258.259.259,0,0,1,.258-.229c.944.06,1.9.15,2.833.271a.243.243,0,0,1,.211.272.246.246,0,0,1-.242.213M118.936.589c-.254-.362-.152-.479-.017-.488.939-.064,1.9-.1,2.845-.1a.244.244,0,0,1,0,.489c-.941,0-1.887.036-2.815.1l-.017,0" transform="translate(-3.862)" fill="#1a1a1a"/>
    <path id="Trazado_599102" data-name="Trazado 599102" d="M166.968,15.088a14.645,14.645,0,0,1-1.092-1.142.245.245,0,0,1,.364-.326c.312.351.618.706.916,1.07a.243.243,0,0,1-.188.4" transform="translate(-20.318 -1.659)" fill="#1a1a1a"/>
    <path id="Trazado_599103" data-name="Trazado 599103" d="M34.4,94.1a4.542,4.542,0,0,1-1.076-.14c-3.277-.8-5.083-5.634-5.159-5.839a.242.242,0,0,1,.146-.312.246.246,0,0,1,.312.145c.018.048,1.794,4.793,4.816,5.533a2.687,2.687,0,0,0,2.474-.39c1.441-1.2,1.293-4.1,1.292-4.132.457-.135,2.025,2.022,3.7,2.16a1.994,1.994,0,0,0,1.624-.648,2.088,2.088,0,0,0,.654-1.584c-.026-1.607-1.607-3.873-4.694-6.738a.244.244,0,1,1,.332-.358c3.234,3,4.82,5.32,4.85,7.088a2.588,2.588,0,0,1-.8,1.937,2.551,2.551,0,0,1-2.009.789,5.425,5.425,0,0,1-3.171-1.975c-.044,1.012-.292,2.861-1.464,3.836A2.762,2.762,0,0,1,34.4,94.1" transform="translate(-3.449 -10.015)" fill="#1a1a1a"/>
    <path id="Trazado_599104" data-name="Trazado 599104" d="M221.3,59.1c-.269-.174-.263-.328-.167-.42a10.7,10.7,0,0,1,2.465-1.757.244.244,0,1,1,.184.451,10.459,10.459,0,0,0-2.315,1.66.244.244,0,0,1-.168.066" transform="translate(-27.09 -6.972)" fill="#1a1a1a"/>
    <path id="Trazado_599105" data-name="Trazado 599105" d="M135.789,71.73c-.259-.139-.275-.292-.19-.4l1.2-1.485a.244.244,0,1,1,.38.305l-1.2,1.486a.244.244,0,0,1-.189.09" transform="translate(-16.61 -8.548)" fill="#1a1a1a"/>
    <path id="Trazado_599106" data-name="Trazado 599106" d="M38.4,57.393a16.969,16.969,0,0,0-2.757-1.206.243.243,0,0,1-.187-.29.246.246,0,0,1,.29-.186,13.481,13.481,0,0,1,2.775,1.228.243.243,0,0,1-.121.455" transform="translate(-4.344 -6.826)" fill="#1a1a1a"/>
    <path id="Trazado_599107" data-name="Trazado 599107" d="M71.121,83.047a5.09,5.09,0,0,1,.424-4,.244.244,0,0,1,.408.268,5.1,5.1,0,0,0-.592,3.442.246.246,0,0,1-.195.286l-.045,0" transform="translate(-8.689 -9.673)" fill="#1a1a1a"/>
    <path id="Trazado_599108" data-name="Trazado 599108" d="M183.247,113.6h-1.476a.243.243,0,1,1,0-.486h1.476a.243.243,0,1,1,0,.486" transform="translate(-22.244 -13.86)" fill="#1a1a1a"/>
    <path id="Trazado_599109" data-name="Trazado 599109" d="M205.042,113.6h-15.7a.243.243,0,0,1,0-.486h15.7a.243.243,0,0,1,0,.486" transform="translate(-23.172 -13.86)" fill="#1a1a1a"/>
    <path id="Trazado_599110" data-name="Trazado 599110" d="M222.352,51.2a.242.242,0,0,1-.243-.244V35.885a5.614,5.614,0,0,0-5.607-5.608H204.155a.243.243,0,0,1,0-.487H216.5a6.1,6.1,0,0,1,6.094,6.095V50.957a.243.243,0,0,1-.244.244" transform="translate(-24.987 -3.65)" fill="#1a1a1a"/>
    <path id="Trazado_599111" data-name="Trazado 599111" d="M103.725,67.792a.242.242,0,0,1-.243-.244V35.885a6.1,6.1,0,0,1,6.094-6.095h44.4a.243.243,0,1,1,0,.487h-44.4a5.614,5.614,0,0,0-5.608,5.608V67.548a.242.242,0,0,1-.243.244" transform="translate(-12.681 -3.65)" fill="#1a1a1a"/>
    <path id="Trazado_599112" data-name="Trazado 599112" d="M172.475,113.6h-5.188a.243.243,0,0,1,0-.486h5.188a.243.243,0,1,1,0,.486" transform="translate(-20.469 -13.86)" fill="#1a1a1a"/>
    <path id="Trazado_599113" data-name="Trazado 599113" d="M126.869,82.449c-1.133-.182-.828-2.179-.79-2.406a.23.23,0,0,1,.281-.2.243.243,0,0,1,.2.28c-.116.7-.108,1.769.283,1.836.485-.3.719-1.349.786-1.951a.221.221,0,0,1,.269-.214.242.242,0,0,1,.214.269c-.019.181-.214,1.774-.831,2.242a.678.678,0,0,1-.411.143" transform="translate(-15.441 -9.777)" fill="#1a1a1a"/>
    <path id="Trazado_599114" data-name="Trazado 599114" d="M133.445,82.63c-1.142-.21-.791-2.2-.748-2.425a.26.26,0,0,1,.285-.194.245.245,0,0,1,.195.286c-.133.7-.151,1.767.237,1.842.491-.289.752-1.331.832-1.929A.251.251,0,0,1,134.52,80a.246.246,0,0,1,.21.275c-.025.181-.256,1.769-.886,2.222a.676.676,0,0,1-.4.134" transform="translate(-16.25 -9.803)" fill="#1a1a1a"/>
    <path id="Trazado_599115" data-name="Trazado 599115" d="M215.24,141.026c-.662-3.785,1.943-7.264,5.953-8.486a8.452,8.452,0,0,1,9.062,2.339.244.244,0,1,1-.381.306,7.957,7.957,0,0,0-8.539-2.179c-3.723,1.134-6.239,4.465-5.854,7.747a.241.241,0,0,1-.212.27.171.171,0,0,1-.029,0" transform="translate(-26.363 -16.189)" fill="#1a1a1a"/>
  </g>
</svg>
