<svg xmlns="http://www.w3.org/2000/svg" xmlns:xlink="http://www.w3.org/1999/xlink" width="85" height="85" viewBox="0 0 85 85">
  <defs>
    <clipPath id="clip-path">
      <rect id="Rectángulo_45749" data-name="Rectángulo 45749" width="58.859" height="66.072" fill="none"/>
    </clipPath>
  </defs>
  <g id="Grupo_1015230" data-name="Grupo 1015230" transform="translate(-1101 -7362)">
    <g id="Grupo_1013448" data-name="Grupo 1013448">
      <circle id="Elipse_4847" data-name="Elipse 4847" cx="42.5" cy="42.5" r="42.5" transform="translate(1101 7362)" fill="#a3bfe4"/>
      <g id="Grupo_1013440" data-name="Grupo 1013440" transform="translate(1114 7371)">
        <rect id="Rectángulo_45747" data-name="Rectángulo 45747" width="12.379" height="11.532" transform="translate(38.687 17.045)" fill="#fff"/>
        <g id="Grupo_1013439" data-name="Grupo 1013439">
          <g id="Grupo_1013438" data-name="Grupo 1013438" clip-path="url(#clip-path)">
            <path id="Trazado_601094" data-name="Trazado 601094" d="M35.471,49.1A15.212,15.212,0,1,0,20.26,64.315,15.212,15.212,0,0,0,35.471,49.1" transform="translate(-4.178 -28.05)" fill="#fff"/>
            <path id="Trazado_601095" data-name="Trazado 601095" d="M169.334,232.038c-.137-.049-.27-.11-.411-.146a5.528,5.528,0,0,1-3.989-7c.048-.162.1-.324.165-.55-.213-.018-.392-.046-.57-.046-1.419,0-2.838,0-4.258,0-1.382,0-1.943-.567-1.947-1.966s-.006-2.795,0-4.192c.007-1.381.586-1.938,1.983-1.924a3.58,3.58,0,0,0,3.567-2.618,3.465,3.465,0,0,0-1.619-3.991,4.957,4.957,0,0,0-2.02-.514c-1.3-.072-1.9-.588-1.91-1.885q-.014-2.419,0-4.838a1.626,1.626,0,0,1,1.823-1.83q2.322-.011,4.645,0a1.631,1.631,0,0,1,1.828,1.769,3.574,3.574,0,0,0,7.145.125c.107-1.421.614-1.895,2.039-1.9,1.484,0,2.968-.006,4.451,0a1.644,1.644,0,0,1,1.838,1.829c.011,1.63,0,3.261,0,4.936,2.831-.882,5.2-.309,6.839,2.165a5.058,5.058,0,0,1-.034,5.946c-1.646,2.435-4,3-6.8,2.118,0,1.588,0,3.132,0,4.677s-.56,2.087-2.1,2.088h-4.484a16.005,16.005,0,0,1,.055,3.312,5.256,5.256,0,0,1-4.2,4.3c-.121.031-.236.085-.355.128Zm-9.044-24.959c3.447.434,5.409,2.267,5.631,5.268a5.189,5.189,0,0,1-.957,3.41,5.612,5.612,0,0,1-4.675,2.431v4.175h.721c1.656,0,3.313-.011,4.969,0a1.378,1.378,0,0,1,1.249,2.188,4.906,4.906,0,0,0-.579,1.746,3.486,3.486,0,0,0,2.192,3.531,3.581,3.581,0,0,0,4.455-5.109c-.786-1.4-.229-2.358,1.379-2.36q2.388,0,4.775,0h.712c0-1.929,0-3.755,0-5.581,0-1.48.99-2.05,2.27-1.313a3.461,3.461,0,0,0,2.974.344,3.423,3.423,0,0,0,2.448-3.026,3.357,3.357,0,0,0-1.555-3.327,3.44,3.44,0,0,0-3.838-.111c-1.328.747-2.3.2-2.3-1.323s0-3.054,0-4.581v-.936h-4.391c-.812,3.527-2.642,5.264-5.526,5.289a5.357,5.357,0,0,1-3.466-1.188,5.635,5.635,0,0,1-2.117-4.1H160.29Z" transform="translate(-131.027 -165.966)"/>
            <path id="Trazado_601096" data-name="Trazado 601096" d="M12.762,35.015V27.058c-.62,0-1.236.024-1.85,0A3.744,3.744,0,0,1,7.4,24.737a3.636,3.636,0,0,1,.54-3.936,3.812,3.812,0,0,1,6.761,2.1c.045.7.008,1.412.008,2.174H17.4c0-.646-.012-1.284,0-1.922a3.83,3.83,0,0,1,7.6-.614,3.765,3.765,0,0,1-2.77,4.351,19.513,19.513,0,0,1-2.856.25v7.908c.564-.172,1.117-.309,1.647-.508a14.03,14.03,0,0,0,5.8-4.068c.084-.1.161-.2.249-.3a.991.991,0,0,1,1.379-.191.966.966,0,0,1,.094,1.43,14.768,14.768,0,0,1-3.886,3.454,1.958,1.958,0,0,0-.891,1.107c-.427,1.235-.891,2.457-1.355,3.728a2.54,2.54,0,0,1,1.647,2.839c-.043.966-.014,1.935-.008,2.9a2.347,2.347,0,0,1-1.59,2.4.692.692,0,0,0-.331.5c-.047.469-.015.945-.017,1.418,0,1.391-.286,1.782-1.6,2.2a11.361,11.361,0,0,1-.064,1.276,2.9,2.9,0,0,1-2.933,2.478c-.882.018-1.764.006-2.646,0a2.936,2.936,0,0,1-3.216-3.139c0-.193,0-.386,0-.59a6.326,6.326,0,0,1-.886-.382,1.515,1.515,0,0,1-.73-1.356c0-.752,0-1.5,0-2.307a2.336,2.336,0,0,1-1.742-1.371,2.946,2.946,0,0,1-.188-1c-.023-1.053.027-2.109-.018-3.161A2.492,2.492,0,0,1,9.732,39.7c-.539-1.458-1.059-2.9-1.619-4.335-.073-.186-.339-.311-.535-.433A16.048,16.048,0,0,1,12.822,5.58,15.771,15.771,0,0,1,23.691,7.187c.15.081.306.151.461.227a11.536,11.536,0,0,1,19.9-2.974,11.222,11.222,0,0,1,2.323,5.517,11.836,11.836,0,0,1-.815,6.1c1.052,0,2.012,0,2.973,0,.6,0,1.207-.016,1.8.04a1.62,1.62,0,0,1,1.558,1.6c.051.9.043,1.806.012,2.708a.948.948,0,0,1-1.9,0c-.036-.643-.03-1.29-.014-1.935.009-.364-.128-.489-.489-.486-1.549.013-3.1-.008-4.646.02a.923.923,0,0,0-.625.33,12.415,12.415,0,0,1-3.656,3.218.829.829,0,0,0-.383.571c-.028,1.785-.015,3.57-.01,5.355a1.525,1.525,0,0,0,.06.28h9.744c0-.734,0-1.436,0-2.138a6.665,6.665,0,0,1,.028-.837.866.866,0,0,1,.91-.825.838.838,0,0,1,.959.832c.036,1.159.048,2.323-.021,3.48A1.575,1.575,0,0,1,50.3,29.71c-.643.042-1.29.022-1.935.023q-4,0-8,0c-1.5,0-2.114-.616-2.12-2.121-.007-1.652,0-3.3,0-5.059a12.5,12.5,0,0,1-6.081.118c-.234,1.083-.441,2.109-.682,3.126a8.978,8.978,0,0,1-.424,1.283.967.967,0,0,1-1.295.627,1.008,1.008,0,0,1-.518-1.29c.317-1.267.606-2.542.9-3.814a.713.713,0,0,0-.448-.911,11.386,11.386,0,0,1-6.118-11.609.916.916,0,0,0-.534-1.062A14.123,14.123,0,1,0,12.1,34.856c.2.058.4.1.661.159m31.771-23.5a9.565,9.565,0,1,0-9.562,9.536,9.561,9.561,0,0,0,9.562-9.536M20.134,47.93c-.392,0-.751.007-1.111,0-.739-.016-1.139-.34-1.158-.925-.02-.612.393-.987,1.154-1,.817-.017,1.635-.023,2.452,0,.478.014.649-.177.641-.645-.02-1.054-.018-2.108,0-3.161.007-.469-.176-.643-.65-.642q-5.389.019-10.777,0c-.518,0-.671.2-.659.691.026,1.032.031,2.065,0,3.1-.016.524.2.671.684.662,1.118-.021,2.237-.016,3.356,0,.774.01,1.186.366,1.184.974s-.413.944-1.194.954c-.682.008-1.363,0-2.033,0v1.975h8.115ZM17.357,35.367v-8.25H14.781v8.239c.425.028.809.074,1.192.075.449,0,.9-.039,1.384-.063m1.983-10.2a19.757,19.757,0,0,0,2.334-.138,1.8,1.8,0,0,0,1.418-2.068A1.883,1.883,0,0,0,19.351,23c-.054.678-.011,1.364-.011,2.163m-6.553-.1c0-.668.034-1.328-.008-1.983a1.88,1.88,0,0,0-1.863-1.771A1.949,1.949,0,0,0,9.02,23a1.837,1.837,0,0,0,1.534,2.05,16.759,16.759,0,0,0,2.234.019m.871,26.85c-.231,1.446.108,1.862,1.482,1.863h1.927c1.312,0,1.744-.587,1.383-1.863Zm3.717-14.569H14.783v2.226h2.592Zm4.152-.892-2.164.6v2.684c.419-.144.96-.167,1.069-.4.427-.9.718-1.858,1.095-2.891m-10.914.007c.323.892.649,1.64.861,2.419.2.725.6.889,1.325.657,0-.721.013-1.464-.013-2.206a.484.484,0,0,0-.269-.354c-.584-.183-1.18-.325-1.9-.516" transform="translate(0 0)"/>
            <path id="Trazado_601097" data-name="Trazado 601097" d="M169.756,216.566V212h4.372a5.635,5.635,0,0,0,2.117,4.1,5.357,5.357,0,0,0,3.466,1.188c2.884-.024,4.714-1.762,5.526-5.289h4.391v.936c0,1.527,0,3.054,0,4.581s.972,2.069,2.3,1.323a3.44,3.44,0,0,1,3.838.11,3.357,3.357,0,0,1,1.555,3.327,3.423,3.423,0,0,1-2.448,3.026,3.461,3.461,0,0,1-2.974-.344c-1.279-.737-2.266-.167-2.27,1.313,0,1.826,0,3.652,0,5.581h-.712q-2.388,0-4.775,0c-1.608,0-2.165.957-1.379,2.36a3.581,3.581,0,0,1-4.455,5.109,3.486,3.486,0,0,1-2.192-3.531,4.905,4.905,0,0,1,.579-1.746,1.378,1.378,0,0,0-1.249-2.188c-1.656-.015-3.313,0-4.969,0h-.721v-4.175a5.612,5.612,0,0,0,4.675-2.431,5.189,5.189,0,0,0,.957-3.41c-.222-3-2.184-4.835-5.631-5.268" transform="translate(-140.492 -175.453)" fill="#fff"/>
            <path id="Trazado_601098" data-name="Trazado 601098" d="M166.492,20.783a9.565,9.565,0,1,1-9.523-9.588,9.536,9.536,0,0,1,9.523,9.588M155.95,23.5l-3.248-3.85c-.083-.1-.163-.2-.248-.3a1,1,0,0,0-1.466-.251.966.966,0,0,0-.022,1.478q1.981,2.378,3.984,4.737c.722.852,1.2.862,1.945.03q2.981-3.347,5.948-6.707a1.942,1.942,0,0,0,.206-.247.906.906,0,0,0-.151-1.276.886.886,0,0,0-1.28.019,7.857,7.857,0,0,0-.611.663c-1.669,1.88-3.336,3.761-5.057,5.7" transform="translate(-121.959 -9.265)" fill="#fff"/>
            <path id="Trazado_601099" data-name="Trazado 601099" d="M68.254,247.43v1.975H60.139V247.43c.67,0,1.352.006,2.033,0,.781-.009,1.191-.344,1.194-.954s-.41-.964-1.184-.974c-1.118-.014-2.238-.02-3.356,0-.487.009-.7-.138-.684-.662.032-1.031.028-2.065,0-3.1-.012-.491.141-.693.659-.691q5.389.022,10.777,0c.474,0,.658.172.65.642-.017,1.054-.018,2.108,0,3.161.009.468-.163.659-.641.645-.817-.024-1.635-.018-2.452,0-.761.016-1.174.391-1.154,1,.019.585.42.909,1.158.925.359.008.719,0,1.111,0" transform="translate(-48.119 -199.5)" fill="#fff"/>
            <path id="Trazado_601100" data-name="Trazado 601100" d="M88.324,165.557c-.487.024-.935.064-1.384.063-.384,0-.767-.046-1.192-.075v-8.239h2.576Z" transform="translate(-70.967 -130.19)" fill="#fff"/>
            <path id="Trazado_601101" data-name="Trazado 601101" d="M112.12,127.5c0-.8-.044-1.485.011-2.163a1.883,1.883,0,0,1,3.742-.043,1.8,1.8,0,0,1-1.418,2.068,19.755,19.755,0,0,1-2.334.138" transform="translate(-92.779 -102.329)" fill="#fff"/>
            <path id="Trazado_601102" data-name="Trazado 601102" d="M56.023,127.4a16.733,16.733,0,0,1-2.235-.019,1.837,1.837,0,0,1-1.533-2.05,1.949,1.949,0,0,1,1.9-1.685,1.88,1.88,0,0,1,1.863,1.771c.042.655.008,1.315.008,1.983" transform="translate(-43.235 -102.328)" fill="#fff"/>
            <path id="Trazado_601103" data-name="Trazado 601103" d="M78.913,301.174H83.7c.361,1.276-.071,1.862-1.383,1.863H80.4c-1.374,0-1.713-.417-1.482-1.863" transform="translate(-65.255 -249.257)" fill="#fff"/>
            <rect id="Rectángulo_45748" data-name="Rectángulo 45748" width="2.592" height="2.226" transform="translate(14.783 37.347)" fill="#fff"/>
            <path id="Trazado_601104" data-name="Trazado 601104" d="M114.491,211.481c-.377,1.033-.668,1.994-1.095,2.891-.109.229-.65.252-1.069.4v-2.684l2.164-.6" transform="translate(-92.964 -175.026)" fill="#fff"/>
            <path id="Trazado_601105" data-name="Trazado 601105" d="M61.567,211.519c.724.191,1.321.333,1.9.516a.484.484,0,0,1,.269.354c.025.742.013,1.485.013,2.206-.726.231-1.128.068-1.325-.657-.212-.779-.537-1.527-.861-2.419" transform="translate(-50.954 -175.057)" fill="#fff"/>
            <path id="Trazado_601106" data-name="Trazado 601106" d="M171.668,50.645c1.721-1.94,3.389-3.821,5.057-5.7a7.855,7.855,0,0,1,.611-.663.886.886,0,0,1,1.28-.019.906.906,0,0,1,.151,1.276,1.942,1.942,0,0,1-.206.247q-2.973,3.354-5.948,6.707c-.741.833-1.224.823-1.945-.03q-2-2.362-3.984-4.737a.966.966,0,0,1,.022-1.478,1,1,0,0,1,1.466.251c.085.1.165.2.248.3l3.248,3.85" transform="translate(-137.677 -36.414)"/>
          </g>
        </g>
      </g>
    </g>
  </g>
</svg>
