<svg xmlns="http://www.w3.org/2000/svg" xmlns:xlink="http://www.w3.org/1999/xlink" width="85" height="85" viewBox="0 0 85 85">
  <defs>
    <clipPath id="clip-path">
      <rect id="Rect치ngulo_345225" data-name="Rect치ngulo 345225" width="56.365" height="56.957" fill="none"/>
    </clipPath>
  </defs>
  <g id="Grupo_1015227" data-name="Grupo 1015227" transform="translate(-1101 -8378)">
    <g id="Grupo_1013451" data-name="Grupo 1013451" transform="translate(0 1016)">
      <circle id="Elipse_4847" data-name="Elipse 4847" cx="42.5" cy="42.5" r="42.5" transform="translate(1101 7362)" fill="#a3bfe4"/>
    </g>
    <g id="Grupo_1014557" data-name="Grupo 1014557" transform="translate(1118 8390.125)">
      <g id="Grupo_1014556" data-name="Grupo 1014556" clip-path="url(#clip-path)">
        <path id="Trazado_601191" data-name="Trazado 601191" d="M26.185,0a25.138,25.138,0,0,1,2.669.666,12.64,12.64,0,0,1,8.688,10.5c.038.235.081.469.131.752h4.335c1.419,0,1.418,0,1.86-1.337q.618-1.867,1.236-3.734c.077-.234.14-.425.47-.424,3.522.013,7.044.01,10.566.013a1.185,1.185,0,0,1,.215.051c-.061.214-.112.423-.18.626-.574,1.717-1.139,3.437-1.733,5.146a1.778,1.778,0,0,0,.009,1.231c.605,1.765,1.188,3.538,1.778,5.309.045.136.079.276.136.478-.22.015-.395.037-.57.038-3.337,0-6.673-.005-10.01.011a.612.612,0,0,1-.7-.5c-.487-1.532-1.024-3.048-1.514-4.578-.107-.334-.24-.465-.607-.461-1.758.021-3.515.009-5.306.009a13.363,13.363,0,0,1-1.395,4.9,12.762,12.762,0,0,1-6.35,5.961c-.379.167-.554.343-.513.766.04.4.011.815.015,1.223a1,1,0,0,0,.041.166c1.2.257,2.42.515,3.642.783,1.425.312,2.87.559,4.268.965a10.288,10.288,0,0,1,6.82,6.058Q47.1,41.33,49.953,48.071a6.258,6.258,0,0,1-4.849,8.84,4.837,4.837,0,0,1-.831.044q-18.88,0-37.76,0A4.569,4.569,0,0,1,1.823,52.3a.867.867,0,0,1,0-.111,1.742,1.742,0,0,0-.744-1.843A2.615,2.615,0,0,1,.046,48.323a23.218,23.218,0,0,1,0-2.935,3.149,3.149,0,0,1,1.392-2.367.876.876,0,0,0,.39-.831q-.012-6.7,0-13.4a2.884,2.884,0,0,1,.176-.967c.745-2.029,1.5-4.056,2.273-6.073a2.222,2.222,0,0,1,3.574-1.006,2.853,2.853,0,0,1,.73,1.087c.8,2.048,1.563,4.11,2.326,6.172a5.376,5.376,0,0,1,.176.806L20.13,26.8a.648.648,0,0,0,.04-.094,2.022,2.022,0,0,0-1.321-2.49,12.662,12.662,0,0,1-6.885-12.558A12.926,12.926,0,0,1,23.1.106,1.452,1.452,0,0,0,23.4,0ZM38.6,35.85c0,.476.03.92-.007,1.358a3.578,3.578,0,0,0,.539,2.154c2.216,3.842,4.066,7.893,6.657,11.575l-1.547,1.032c-.445-.664-.876-1.266-1.259-1.9a.853.853,0,0,0-.843-.469c-1.761.024-3.522.009-5.283.011-.173,0-.346.019-.492.027a8.909,8.909,0,0,1,0,5.446c2.641,0,5.272.02,7.9-.005a4.333,4.333,0,0,0,4.054-6.03q-2.93-7.068-6.032-14.065a8.105,8.105,0,0,0-5.657-4.7c-2.508-.629-5.053-1.108-7.584-1.643a.511.511,0,0,0-.4.072c-.549.512-1.077,1.046-1.686,1.645.287.061.446.1.606.129,3.813.742,7.081,4.265,7.265,7.986.119,2.4.057,4.818.074,7.227a1.158,1.158,0,0,1-.063.248H31.269v1.79h5.467V35.85ZM35.737,11.894A11,11,0,1,0,25.969,23.8,10.85,10.85,0,0,0,35.7,13.817H32.11A7.376,7.376,0,1,1,23.573,5.6a7.105,7.105,0,0,1,5.016.967,7.418,7.418,0,0,1,3.52,5.329ZM22.51,30.2c-.532-.505-.971-.955-1.45-1.357a.834.834,0,0,0-.616-.163c-1.685.333-3.371.67-5.043,1.061-1.291.3-2.564.683-3.844,1.033a.669.669,0,0,0-.527.77q.029,5.366,0,10.732a.808.808,0,0,0,.358.732,3.612,3.612,0,0,1,.132,5.725,1.279,1.279,0,0,0-.494,1.119c-.031,1.756.314,3.576-.878,5.205h8.2c0-.288,0-.562,0-.836a2.26,2.26,0,0,1,.976-2.073,1.716,1.716,0,0,0,.859-1.954c-.03-.387-.006-.778,0-1.167a4.271,4.271,0,0,1,1.564-3.413.675.675,0,0,0,.265-.388c.027-.663.012-1.327.012-2.145a3.892,3.892,0,0,0-.734.342c-.276.215-.5.5-.762.73a3.345,3.345,0,0,1-5.417-1.364,7.489,7.489,0,0,1-.386-1.213,1.094,1.094,0,0,1,.115-.743c.616-.924,1.259-1.832,1.932-2.715a1.047,1.047,0,0,0,.177-1.061A5.247,5.247,0,0,1,20.5,30.523,18,18,0,0,1,22.51,30.2m-.444,21.182h7.281a2.81,2.81,0,0,0,.034-.3c0-3.668.011-7.337,0-11a4.6,4.6,0,0,0-1.459-3.6,4.827,4.827,0,0,1-1.659-2.667,2.18,2.18,0,0,0-1.68-1.528l-.9,3.544c-.387,0-.719.01-1.051,0a3.31,3.31,0,0,0-3.06,1.554c-.861,1.272-1.789,2.5-2.658,3.765a.984.984,0,0,0-.126.742,1.488,1.488,0,0,0,2.709.649,2.987,2.987,0,0,1,2.859-1.241,1.327,1.327,0,0,0,1.38-.839c.076-.142.162-.279.259-.447l1.616.813a3.872,3.872,0,0,1-1.41,1.845.822.822,0,0,0-.3.566q-.048,1.36-.005,2.723a.73.73,0,0,1-.48.807,2.176,2.176,0,0,0-1.331,1.908c-.054.884-.012,1.774-.012,2.713m8.111-37.591a10.675,10.675,0,0,1-1.147-.008c-.471-.053-.684.108-.885.565a3.661,3.661,0,0,1-6.559.307,3.473,3.473,0,0,1,.18-3.879,3.47,3.47,0,0,1,3.291-1.58,3.6,3.6,0,0,1,3.156,2.284c.077.17.249.4.4.415.511.051,1.03.02,1.551.02a5.468,5.468,0,0,0-5.505-4.557,5.506,5.506,0,0,0-.29,10.994,5.493,5.493,0,0,0,5.811-4.56m15.208,0c.376,1.14.733,2.184,1.059,3.237a.542.542,0,0,0,.63.439c2.091-.018,4.181-.008,6.272-.011.137,0,.273-.024.461-.041-.391-1.17-.758-2.288-1.146-3.4a.415.415,0,0,0-.312-.216c-2.292-.012-4.585-.01-6.964-.01m0-1.877c1.866,0,3.624,0,5.381,0,.608,0,1.372.185,1.78-.109s.458-1.08.652-1.654c.2-.6.39-1.207.6-1.862-2.367,0-4.644,0-6.92.011a.466.466,0,0,0-.351.243c-.386,1.092-.747,2.193-1.143,3.374M3.744,29.433v12.8l1.712.092V29.433Zm5.384,12.8V29.453H7.394V42.313l1.734-.083M3.7,51.454c0,.4-.008.709,0,1.019a2.718,2.718,0,0,0,2.242,2.592A2.611,2.611,0,0,0,8.98,53.24a24.715,24.715,0,0,0,.249-3.582c-.629-.044-1.112-.045-1.582-.124-.29-.049-.415-.008-.543.273A2.7,2.7,0,0,1,4.78,51.449c-.329.033-.663.005-1.082.005M31.24,52.3h0v1c0,1.73.126,1.851,1.875,1.788a1.768,1.768,0,0,0,1.758-1.773q.019-.944,0-1.889a1.807,1.807,0,0,0-1.744-1.806c-.277-.016-.556-.009-.833,0a.93.93,0,0,0-1.049,1.016c-.021.555,0,1.111,0,1.667M5.5,46.849v-1c0-1.635-.147-1.778-1.781-1.725a1.818,1.818,0,0,0-1.883,1.844c-.022.592-.023,1.187,0,1.779A1.86,1.86,0,0,0,3.668,49.6a7.224,7.224,0,0,0,.834,0,.954.954,0,0,0,.991-1.031c.011-.574,0-1.149,0-1.724m23.855,6.439c-2.778,0-5.5-.008-8.225.008a.856.856,0,0,0-.894.822,7.88,7.88,0,0,0-.007.93h9.221l-.095-1.76M22.06,25.6c0,.248-.014.6,0,.945.013.25-.021.58.12.731.839.9,1.723,1.759,2.623,2.663.882-.893,1.717-1.734,2.544-2.582a.56.56,0,0,0,.167-.328c.018-.512.008-1.025.008-1.429ZM8.741,27.531c-.636-1.7-1.235-3.327-1.859-4.943-.076-.2-.286-.343-.434-.513-.167.17-.409.311-.488.516-.585,1.5-1.138,3.005-1.7,4.511-.048.128-.071.265-.113.429ZM7.367,45.913c-.089,1.909.28,1.857,1.874,1.825a1.716,1.716,0,0,0,1.474-.841,1.861,1.861,0,0,0-.133-2.125,2.7,2.7,0,0,0-2.626-.6c-.745.272-.569.94-.587,1.515,0,.074,0,.148,0,.222M24.806,14.686a1.829,1.829,0,1,0-1.846-1.825,1.867,1.867,0,0,0,1.846,1.825M38.735,42.516l-.1.03v5.148h2.924l-2.827-5.178m-20.1-6.984a5.15,5.15,0,0,1,3.314-1.553.434.434,0,0,0,.324-.222c.15-.51.259-1.031.384-1.552a3.416,3.416,0,0,0-4.023,3.327m11.946,1.479,1.881-.552-1.317-1.938L29.855,35.8l.727,1.212m2.394,1.263c-.55.155-1.047.279-1.531.443a.451.451,0,0,0-.258.324c0,.437.046.874.077,1.322h1.811l-.1-2.09M33.02,42.3H31.278v1.744H33.02Zm-5.268-9.9.682,1.983,1.229-1.111L27.752,32.4" transform="translate(0)" fill="#161615"/>
        <path id="Trazado_601192" data-name="Trazado 601192" d="M28.492,37.2v1.791H30.27v1.881H28.534V42.65h-1.9V40.9H24.825V39.032H26.6V37.2Z" transform="translate(-21.136 -31.674)" fill="#161615"/>
        <path id="Trazado_601193" data-name="Trazado 601193" d="M24.732,88.511h1.8V86.721h1.872v1.774h1.781v1.9H28.423v1.78h-1.86V90.4h-1.83Z" transform="translate(-21.057 -73.833)" fill="#161615"/>
        <path id="Trazado_601194" data-name="Trazado 601194" d="M193.079,199.881h-1.86v11.892h-5.466v-1.79h3.578a1.156,1.156,0,0,0,.063-.249c-.016-2.409.045-4.823-.074-7.227-.184-3.721-3.452-7.244-7.265-7.986-.16-.031-.318-.068-.606-.129.609-.6,1.137-1.133,1.686-1.645a.51.51,0,0,1,.4-.072c2.531.535,5.077,1.014,7.584,1.643a8.1,8.1,0,0,1,5.657,4.7q3.106,6.992,6.032,14.065a4.333,4.333,0,0,1-4.054,6.03c-2.631.025-5.262.005-7.9.005a8.909,8.909,0,0,0,0-5.446c.146-.008.319-.027.492-.027,1.761,0,3.522.012,5.283-.011a.853.853,0,0,1,.843.469c.383.631.814,1.233,1.259,1.9l1.547-1.032c-2.591-3.682-4.441-7.733-6.657-11.575a3.578,3.578,0,0,1-.539-2.154c.036-.438.007-.882.007-1.358" transform="translate(-154.483 -164.031)" fill="#fff"/>
        <path id="Trazado_601195" data-name="Trazado 601195" d="M114.751,22.548h-3.628a7.419,7.419,0,0,0-3.52-5.329,7.106,7.106,0,0,0-5.016-.966,7.366,7.366,0,1,0,8.537,8.219h3.591a10.85,10.85,0,0,1-9.733,9.983,11,11,0,1,1,9.768-11.906" transform="translate(-79.014 -10.654)" fill="#fff"/>
        <path id="Trazado_601196" data-name="Trazado 601196" d="M80.669,194.446a17.964,17.964,0,0,0-2.006.324,5.247,5.247,0,0,0-3.554,6.534,1.047,1.047,0,0,1-.177,1.061c-.673.883-1.316,1.792-1.932,2.715a1.094,1.094,0,0,0-.115.743,7.487,7.487,0,0,0,.386,1.213,3.345,3.345,0,0,0,5.417,1.364c.265-.231.486-.514.762-.73a3.892,3.892,0,0,1,.734-.342c0,.817.015,1.482-.012,2.145a.675.675,0,0,1-.265.388,4.271,4.271,0,0,0-1.564,3.413c0,.389-.025.781,0,1.167a1.716,1.716,0,0,1-.859,1.954,2.26,2.26,0,0,0-.976,2.073c0,.274,0,.548,0,.836h-8.2c1.193-1.629.847-3.449.878-5.205a1.28,1.28,0,0,1,.494-1.119,3.611,3.611,0,0,0-.132-5.725.809.809,0,0,1-.358-.732q.017-5.366,0-10.732a.67.67,0,0,1,.527-.77c1.28-.35,2.553-.731,3.844-1.033,1.673-.391,3.358-.728,5.043-1.061a.834.834,0,0,1,.616.163c.479.4.918.852,1.45,1.357" transform="translate(-58.159 -164.246)" fill="#fff"/>
        <path id="Trazado_601197" data-name="Trazado 601197" d="M118.078,236.325c0-.939-.042-1.829.012-2.713a2.175,2.175,0,0,1,1.331-1.908.731.731,0,0,0,.48-.808q-.043-1.36.005-2.723a.822.822,0,0,1,.3-.566,3.872,3.872,0,0,0,1.41-1.845l-1.616-.813c-.1.168-.184.3-.259.447a1.328,1.328,0,0,1-1.38.839,2.987,2.987,0,0,0-2.859,1.241,1.487,1.487,0,0,1-2.709-.649.984.984,0,0,1,.126-.741c.869-1.267,1.8-2.493,2.658-3.765a3.31,3.31,0,0,1,3.06-1.554c.332.012.665,0,1.051,0l.9-3.544a2.18,2.18,0,0,1,1.68,1.528,4.828,4.828,0,0,0,1.659,2.667,4.6,4.6,0,0,1,1.459,3.6c.016,3.668.006,7.337,0,11a2.814,2.814,0,0,1-.034.3Z" transform="translate(-96.011 -184.943)" fill="#fff"/>
        <path id="Trazado_601198" data-name="Trazado 601198" d="M140.668,55.912a5.493,5.493,0,0,1-5.811,4.56,5.506,5.506,0,0,1,.29-10.993,5.468,5.468,0,0,1,5.505,4.557c-.521,0-1.04.031-1.551-.02-.147-.015-.32-.245-.4-.415a3.6,3.6,0,0,0-3.156-2.284,3.68,3.68,0,1,0,3.087,5.152c.2-.457.413-.617.885-.565a10.636,10.636,0,0,0,1.147.008" transform="translate(-110.491 -42.121)" fill="#fff"/>
        <path id="Trazado_601199" data-name="Trazado 601199" d="M305.385,92.8c2.379,0,4.672,0,6.964.01a.414.414,0,0,1,.312.216c.388,1.111.756,2.229,1.146,3.4-.187.017-.324.04-.461.041-2.091,0-4.181-.008-6.272.011a.542.542,0,0,1-.63-.439c-.326-1.054-.684-2.1-1.059-3.237" transform="translate(-260 -79.01)" fill="#fff"/>
        <path id="Trazado_601200" data-name="Trazado 601200" d="M305.386,59.392c.4-1.18.756-2.282,1.143-3.374a.467.467,0,0,1,.351-.243c2.277-.014,4.554-.011,6.921-.011-.21.655-.4,1.261-.6,1.862-.194.575-.247,1.362-.652,1.654s-1.172.107-1.78.109c-1.758.007-3.515,0-5.381,0" transform="translate(-260.001 -47.476)" fill="#fff"/>
        <path id="Trazado_601201" data-name="Trazado 601201" d="M25.194,198.051h1.712v12.887l-1.712-.092Z" transform="translate(-21.45 -168.618)" fill="#fff"/>
        <path id="Trazado_601202" data-name="Trazado 601202" d="M51.487,210.961l-1.734.083V198.184h1.734Z" transform="translate(-42.359 -168.731)" fill="#fff"/>
        <path id="Trazado_601203" data-name="Trazado 601203" d="M24.868,335.12c.418,0,.753.028,1.082-.005a2.7,2.7,0,0,0,2.324-1.642c.128-.281.253-.322.543-.273.47.079.953.08,1.582.124a24.713,24.713,0,0,1-.249,3.582,2.61,2.61,0,0,1-3.038,1.825,2.718,2.718,0,0,1-2.242-2.592c-.009-.31,0-.62,0-1.019" transform="translate(-21.17 -283.666)" fill="#fff"/>
        <path id="Trazado_601204" data-name="Trazado 601204" d="M210.173,336.49c0-.556-.016-1.112,0-1.667a.93.93,0,0,1,1.049-1.016c.278-.006.556-.013.833,0a1.807,1.807,0,0,1,1.744,1.806q.018.945,0,1.889a1.768,1.768,0,0,1-1.757,1.773c-1.748.063-1.875-.058-1.875-1.788v-1Z" transform="translate(-178.932 -284.192)" fill="#fff"/>
        <path id="Trazado_601205" data-name="Trazado 601205" d="M15.9,299.575c0,.575.009,1.149,0,1.724a.954.954,0,0,1-.991,1.031,7.169,7.169,0,0,1-.834,0,1.859,1.859,0,0,1-1.835-1.857c-.023-.592-.022-1.187,0-1.779a1.818,1.818,0,0,1,1.883-1.844c1.634-.053,1.781.09,1.781,1.725q0,.5,0,1" transform="translate(-10.401 -252.725)" fill="#fff"/>
        <path id="Trazado_601206" data-name="Trazado 601206" d="M145.149,358.553l.095,1.76h-9.221a7.88,7.88,0,0,1,.007-.93.856.856,0,0,1,.894-.822c2.724-.016,5.447-.008,8.225-.008" transform="translate(-115.798 -305.264)" fill="#fff"/>
        <path id="Trazado_601207" data-name="Trazado 601207" d="M148.41,172.255h5.466c0,.4.01.917-.008,1.429a.559.559,0,0,1-.167.328c-.827.849-1.662,1.69-2.544,2.583-.9-.9-1.784-1.763-2.623-2.663-.141-.151-.107-.482-.12-.732-.018-.347,0-.7,0-.945" transform="translate(-126.35 -146.655)" fill="#fff"/>
        <path id="Trazado_601208" data-name="Trazado 601208" d="M32.511,154H27.919c.042-.164.065-.3.113-.429.56-1.506,1.113-3.015,1.7-4.511.08-.2.322-.345.488-.516.148.17.358.316.434.513.624,1.616,1.223,3.241,1.859,4.943" transform="translate(-23.77 -126.465)" fill="#fff"/>
        <path id="Trazado_601209" data-name="Trazado 601209" d="M49.506,298.3c0-.074,0-.148,0-.222.017-.575-.158-1.243.587-1.515a2.7,2.7,0,0,1,2.626.6,1.861,1.861,0,0,1,.133,2.125,1.716,1.716,0,0,1-1.473.841c-1.593.032-1.962.084-1.874-1.825" transform="translate(-42.138 -252.383)" fill="#fff"/>
        <path id="Trazado_601210" data-name="Trazado 601210" d="M156.339,77.87a1.829,1.829,0,1,1,1.822-1.851,1.863,1.863,0,0,1-1.822,1.851" transform="translate(-131.532 -63.184)" fill="#fff"/>
        <path id="Trazado_601211" data-name="Trazado 601211" d="M260.089,286.079l2.827,5.178h-2.923v-5.148l.1-.03" transform="translate(-221.353 -243.563)" fill="#fff"/>
        <path id="Trazado_601212" data-name="Trazado 601212" d="M125.393,219.808a3.416,3.416,0,0,1,4.023-3.327c-.125.521-.234,1.042-.384,1.552a.435.435,0,0,1-.325.222,5.149,5.149,0,0,0-3.314,1.553" transform="translate(-106.757 -184.276)" fill="#fff"/>
        <path id="Trazado_601213" data-name="Trazado 601213" d="M201.616,234.771l-.727-1.212,1.292-1.278,1.317,1.938-1.881.552" transform="translate(-171.034 -197.76)" fill="#fff"/>
        <path id="Trazado_601214" data-name="Trazado 601214" d="M211.637,257.537l.1,2.09h-1.811c-.03-.448-.079-.886-.077-1.322a.451.451,0,0,1,.258-.324c.484-.164.982-.288,1.531-.443" transform="translate(-178.661 -219.263)" fill="#fff"/>
        <rect id="Rect치ngulo_345224" data-name="Rect치ngulo 345224" width="1.742" height="1.744" transform="translate(31.278 42.305)" fill="#fff"/>
        <path id="Trazado_601215" data-name="Trazado 601215" d="M186.74,218.024l1.911.872-1.229,1.111-.682-1.983" transform="translate(-158.988 -185.622)" fill="#fff"/>
      </g>
    </g>
  </g>
</svg>
