<svg xmlns="http://www.w3.org/2000/svg" xmlns:xlink="http://www.w3.org/1999/xlink" width="270" height="164.295" viewBox="0 0 270 164.295">
  <defs>
    <clipPath id="clip-path">
      <rect id="Rectángulo_345596" data-name="Rectángulo 345596" width="270" height="164.294" transform="translate(0 -10.691)" fill="none"/>
    </clipPath>
  </defs>
  <g id="Grupo_1014917" data-name="Grupo 1014917" transform="translate(0 10.691)">
    <g id="Grupo_1014916" data-name="Grupo 1014916" clip-path="url(#clip-path)">
      <path id="Trazado_604733" data-name="Trazado 604733" d="M209.9,51.9s-.838,3.069.115,3.568c0,0,1.2,1.4,1.089,2.337s-.125,2.22-1.2,2.654-2.283,1.139-3.605.38l.3,2.572.556,8.155,5.2,3.954-2.432,12.974L207,99.429s-3.791,4.961-3.954,5.136-4.305,2.37-4.305,2.37-7.49-8.428-7.8-8.911-2.459-6.761-2.459-6.979,3.193-15.593,3.193-15.593l3.612-3.108s.93-.621,1.059-1.33a34.935,34.935,0,0,0,0-3.711A3.879,3.879,0,0,1,193.4,66.06c-1.1-1.342-1.079-5.161-1.079-5.161l.235-9.8,3.481-.032,2.456-.822,1.924-1.211.567-.487,1.523-.922,4.237.922Z" transform="translate(26.362 6.661)" fill="#fff"/>
      <path id="Trazado_604734" data-name="Trazado 604734" d="M196.3,67.8s6.363.294,7.74-1.282.989-5.409.757-6.4a20.249,20.249,0,0,1-.269-3.026s1.666-3.149,4.638-1.746a14.989,14.989,0,0,0,.231-6.136c-.645-2.8-2.654-4.941-6.43-3.727a11.135,11.135,0,0,0-5.95-1.361c-3.279.225-6.675,4.049-6.657,7.487,0,0,1.646,4.108,1.621,4.005s.123-4.054.123-4.054a9.3,9.3,0,0,0,4.2-.117,17.824,17.824,0,0,0,4.746-2.682s.271,4.45,2.657,6.208c0,0-.262.823-.282.993s-.156,3.57-.965,3.848-3.446-.351-4.558.31-1.277,1.223-2.043,1.012a12.349,12.349,0,0,0-2.3-.433,2.259,2.259,0,0,0-1.476.464s-.636,6.966,4.22,6.64" transform="translate(26.624 6.168)" fill="#ffce26"/>
      <path id="Trazado_604735" data-name="Trazado 604735" d="M173.975,80.418s8.485-8.769,19.733-8.511L197,88.067l.946-1.663,2.83,13.561,2.011,2.01,7.5-17.473.732.312,2.7-13.18s6.583.3,11.265,2.206,7.832,5.3,11.375,15.339,7.253,20,8.549,23.444,1.522,15.2-5.567,19.142-9.7,1.274-9.7,1.274v10.043H184.2Z" transform="translate(24.332 10.019)" fill="#1a1a1a"/>
      <path id="Trazado_604736" data-name="Trazado 604736" d="M20.467,52.857V92.774A78.3,78.3,0,0,1,42.894,81.982c13.388-4,19.085-4.255,19.085-4.255V37.939a108.719,108.719,0,0,0-21.842,5.127,87.308,87.308,0,0,0-19.669,9.791" transform="translate(2.863 5.306)" fill="#fff"/>
      <path id="Trazado_604737" data-name="Trazado 604737" d="M89.74,88.911s-9.09-1-14.36-6.318l-6.22,13.432s-1.86-8.762-2.342-10.89S66.272,78.8,54.7,78.87l-9.13,0s-10.889-.407-14.6,5.718-3.862,9.224-3.862,9.224L18,129.751l-2.532,12.32H72.188l-.612-17.132a9.615,9.615,0,0,0,8.1-4.24,49.726,49.726,0,0,0,6.8-13.469c1-3.161,3.154-11.2,3.154-11.2Z" transform="translate(2.163 11.03)" fill="#1a1a1a"/>
      <path id="Trazado_604738" data-name="Trazado 604738" d="M173.507,61.456l-1.165-3.937-1.876-2.08-1.845-.616h-60L107,55.312,105.013,57.3l-.62,1.834.476,2.325,10.278,37.158.773,1.744,1.32,1.246,1.418.712,37.452-.133,23.947-14.058Z" transform="translate(14.6 7.668)" fill="#fff"/>
      <path id="Trazado_604739" data-name="Trazado 604739" d="M168,60.047l-1.09-1.337-1.5-.453-54.655.011-1.409.726-.525,1.621,9.725,35.038,1,1.318,1.962.922h36.542s18.916-14.02,18.916-14.175S168,60.047,168,60.047" transform="translate(15.219 8.148)" fill="#fff"/>
      <path id="Trazado_604740" data-name="Trazado 604740" d="M166.247,83.047s-5.86,1.14-8.418,6.242-5.333,11.531-6.34,13.364-4.785,2.454-5.875.652-7.092-20.513-7.092-20.513-1.935-2.281-8.838-1.872-7.829,4.411-7.829,4.411,2.217,14.241,4.439,19.942,6.449,18.09,18.808,18.057c0,0,5.3.252,7.253-.614,0,0-.976,16.116-2.121,19.074h41.253s-.524-14.306-.5-18.648.669-11.835.267-16.332a45.656,45.656,0,0,1,0-8.136L173.533,81.23Z" transform="translate(17.043 11.311)" fill="#a3bfe4"/>
      <path id="Trazado_604741" data-name="Trazado 604741" d="M147.61,34.13a1.188,1.188,0,1,0-1.189-1.189,1.188,1.188,0,0,0,1.189,1.189" transform="translate(20.479 4.441)" fill="#1a1a1a"/>
      <path id="Trazado_604742" data-name="Trazado 604742" d="M155.718,34.2a1.249,1.249,0,1,0-1.25-1.25,1.251,1.251,0,0,0,1.25,1.25" transform="translate(21.604 4.434)" fill="#1a1a1a"/>
      <path id="Trazado_604743" data-name="Trazado 604743" d="M163.809,34.1a1.158,1.158,0,1,0-1.159-1.157,1.157,1.157,0,0,0,1.159,1.157" transform="translate(22.748 4.445)" fill="#1a1a1a"/>
      <path id="Trazado_604744" data-name="Trazado 604744" d="M147.617,42.3a1.25,1.25,0,1,0-1.25-1.25,1.249,1.249,0,0,0,1.25,1.25" transform="translate(20.471 5.567)" fill="#1a1a1a"/>
      <path id="Trazado_604745" data-name="Trazado 604745" d="M155.726,42.369a1.311,1.311,0,1,0-1.311-1.311,1.311,1.311,0,0,0,1.311,1.311" transform="translate(21.597 5.559)" fill="#1a1a1a"/>
      <path id="Trazado_604746" data-name="Trazado 604746" d="M163.817,42.265a1.219,1.219,0,1,0-1.221-1.219,1.218,1.218,0,0,0,1.221,1.219" transform="translate(22.741 5.57)" fill="#1a1a1a"/>
      <path id="Trazado_604747" data-name="Trazado 604747" d="M147.606,50.3a1.158,1.158,0,1,0-1.157-1.157,1.157,1.157,0,0,0,1.157,1.157" transform="translate(20.482 6.711)" fill="#1a1a1a"/>
      <path id="Trazado_604748" data-name="Trazado 604748" d="M155.715,50.366a1.219,1.219,0,1,0-1.219-1.219,1.218,1.218,0,0,0,1.219,1.219" transform="translate(21.608 6.703)" fill="#1a1a1a"/>
      <path id="Trazado_604749" data-name="Trazado 604749" d="M163.807,50.275a1.137,1.137,0,1,0-1.138-1.136,1.136,1.136,0,0,0,1.138,1.136" transform="translate(22.751 6.713)" fill="#1a1a1a"/>
      <path id="Trazado_604750" data-name="Trazado 604750" d="M136.129,83.166l1.337-4.418s1.079-2.921-.433-3.408-2.432,1.2-2.715,2.114-.635,2.426-2.481,1.656c0,0-1.011-.717-1.752-3.856a48.621,48.621,0,0,0-2.528-7.12s-.74-2.012-2.19-1.472-1.109,2.293-.668,3.621,1.57,4.957,1.57,4.957-2.337-.2-2.474,1.76c0,0-1.991.614-2.111,2.088a13.528,13.528,0,0,0,.944,4.952c.4.818.742,1.408.742,1.408a10.867,10.867,0,0,1,5.561-2.455,32.789,32.789,0,0,1,7.2.172" transform="translate(17.017 9.311)" fill="#fff"/>
      <path id="Trazado_604751" data-name="Trazado 604751" d="M42.609,81.437l-.093-7.676s-2.37.753-3.425-2.209,3.925-3.5,4.425-3.247c0,0,3.151-1.478,4.442-2.274,2.415-1.489,4.293-5.659,4.293-5.659l1.466,2.091,1.3,7.672s.441,5.1-.716,6.317a4.4,4.4,0,0,1-3.4,1.408l.269,3.594s.915,2.941,1.046,3.445.821,2.9-1.35,3.554-3.982-.683-5.059-1.973a53.079,53.079,0,0,1-3.2-5.042" transform="translate(5.447 8.444)" fill="#fff"/>
      <path id="Trazado_604752" data-name="Trazado 604752" d="M70.149,85.678l1.833-3.108s1.057-5.588,1.5-6a3.509,3.509,0,0,1,3.341-1.56,3.551,3.551,0,0,0,.519-.352c.062-.087,4.35-4.928,4.35-4.928a1.817,1.817,0,0,1,1.695.223,2.015,2.015,0,0,1,.16,2.463c-.383.67-2.569,3.568-2.569,3.568S83.194,76,83.422,77l-.913.96-.282,8.768S80.068,89.353,79,89.548c0,0-6.95-2.007-8.85-3.87" transform="translate(9.811 9.735)" fill="#fff"/>
      <path id="Trazado_604753" data-name="Trazado 604753" d="M54.49,63.833a6.188,6.188,0,0,0-1.441-5.405c-2.236-2.632-9.244-.092-9.244-.092a7.435,7.435,0,0,0-.476-5.515A5.71,5.71,0,0,0,35.756,50.9c-2.894,1.451-3.963,5.186-3.4,7.746s2.331,4.11,3.966,4.18a15.194,15.194,0,0,0,.14,6.818c.944,3.657,3.249,6.544,7.007,6.806l-.016-1.266s-2.825.425-3.273-1.986A2.987,2.987,0,0,1,42.2,69.643a8.757,8.757,0,0,1,1.857.09,15.422,15.422,0,0,0,3.325-1.31,15.431,15.431,0,0,0,3.8-3.232c.456-.609,2.041-3.263,2.041-3.263a5.932,5.932,0,0,1,1.265,1.9" transform="translate(4.505 7.023)" fill="#ffce26"/>
      <path id="Trazado_604754" data-name="Trazado 604754" d="M157.723,66.5s-.443-4.231,1.356-5.935a9.489,9.489,0,0,1,6.253.311,33.116,33.116,0,0,1,5.616-.54c1.485.17,4.932,2.382,5.4,5.256a17.936,17.936,0,0,1-.207,7.191c-.468,1.831-1.327,4.705-1.018,6.482a6.981,6.981,0,0,0,4.256,5.178,15.368,15.368,0,0,1,6.248,4.75c1.017,1.558,3.065,5.32,3.259,8.18s-.867,7.465-3.438,8.988a11.2,11.2,0,0,1-10.277.862c-4.147-1.684-4.988-3.823-5.082-5.216s1.245-8.321,1-9.836a4.764,4.764,0,0,0-4.188-3.7c-2.462-.3-6.224-1.167-6.908-4.422s-.929-4.97-.929-4.97Z" transform="translate(22.052 8.415)" fill="#fff"/>
      <path id="Trazado_604755" data-name="Trazado 604755" d="M162.379,70.16a3.845,3.845,0,0,1,2.691-.036,3.126,3.126,0,0,1,1.542,3.75,3.066,3.066,0,0,1-3.609,1.8s-3.1,2.072-3.268,4.319a3.352,3.352,0,0,1-3.479-1.72,6.446,6.446,0,0,1-.488-3.754c.179-.861.286-1.946.286-1.946l-1-.209-.4-.715,1.586-5.282.533-.514.952.467L158,65.9s2,3.863,4.377,4.264" transform="translate(21.63 9.211)" fill="#fff"/>
      <path id="Trazado_604756" data-name="Trazado 604756" d="M81.128,82.034l-1.1,40.585s15.647-9.543,17.937-23.288V60.053a15.931,15.931,0,0,0-2.256-10.959C92.26,43.583,84.28,40.468,84.28,40.468l-.172,39.193Z" transform="translate(11.193 5.66)" fill="#fff"/>
      <path id="Trazado_604757" data-name="Trazado 604757" d="M64.716,89.967l-.511,39.971s-15.361,4.431-28.171,3.558S14.5,129.424,9.766,124.787A16.952,16.952,0,0,1,4.65,114.85L4.56,73.424S3.514,84.535,17.711,89.974s30.117,3.349,31.572,3.2c2.781-.286,15.434-3.206,15.434-3.206" transform="translate(0.635 10.269)" fill="#fff"/>
      <path id="Trazado_604758" data-name="Trazado 604758" d="M45.248,107.217s18.739-1.664,24.393-5.458V115.59a69.717,69.717,0,0,1-24.393,5.434Z" transform="translate(6.328 14.232)" fill="#fff198"/>
      <path id="Trazado_604759" data-name="Trazado 604759" d="M70.435,83.984l1.094-1.856s-3.108-.782-3.4-.177,2.306,2.032,2.306,2.032" transform="translate(9.525 11.43)" fill="#1a1a1a"/>
      <path id="Trazado_604760" data-name="Trazado 604760" d="M80.976,84.769s-2.023,2.48-2.855,2.658a14.419,14.419,0,0,0,2.855.541Z" transform="translate(10.926 11.856)" fill="#1a1a1a"/>
      <path id="Trazado_604761" data-name="Trazado 604761" d="M224.776,109.868l6.984-16.611-24.1-10.335-14.945,34.8L216.6,128.145l.66-.758s-8.826-5.324-10.894-7.943a31.318,31.318,0,0,0-4.555-4.583,29.043,29.043,0,0,1,4.314-7.58,54.022,54.022,0,0,1,4.652-5.34Z" transform="translate(26.953 11.598)" fill="#fff"/>
      <path id="Trazado_604762" data-name="Trazado 604762" d="M203.942,81.885c-.129.095-1.166,3.162-1.166,3.162l.8,6.822-4.167,9.426-1.841-1.885-.654-3.129,1.7-10.959-1.572-3.714,3.387-6Z" transform="translate(27.54 10.574)" fill="#ffce26"/>
      <path id="Trazado_604763" data-name="Trazado 604763" d="M198.433,63.086a2.914,2.914,0,0,1,.726-2.19,3.8,3.8,0,0,1,1.485-.838s-.313-.776-.986-.727-.6,1.22-1.482,1.444-1.464-.414-2.119-.018-.895.483-.586,1.018a2.54,2.54,0,0,0,1.844,1.382c.913.065,1.117-.071,1.117-.071" transform="translate(27.32 8.298)" fill="#1a1a1a"/>
      <path id="Trazado_604764" data-name="Trazado 604764" d="M148.191,28.094A28.094,28.094,0,1,1,120.1,0a28.094,28.094,0,0,1,28.094,28.094" transform="translate(12.868 -10.692)" fill="#33ece0"/>
      <path id="Trazado_604765" data-name="Trazado 604765" d="M109.521,26.275a2.971,2.971,0,0,0-4.2,0l-1.146,1.146a2.969,2.969,0,0,0,0,4.2L112.546,40a2.973,2.973,0,0,0,4.2,0l17.244-16.823a2.973,2.973,0,0,0,0-4.2l-1.147-1.148a2.975,2.975,0,0,0-4.2,0l-14,13.577Z" transform="translate(14.447 -7.628)" fill="#fff"/>
      <path id="Trazado_604766" data-name="Trazado 604766" d="M21.425,66.582V78.515l-6.636,3.221V69.8Z" transform="translate(2.068 9.312)" fill="#752121"/>
      <path id="Trazado_604767" data-name="Trazado 604767" d="M85.292,44.24v10.1a28.529,28.529,0,0,0-7.391-2.4c-3.573-.5-6.185-.7-6.185-.7v-10.1a28.96,28.96,0,0,1,7.935,1.065,46.562,46.562,0,0,1,5.641,2.035" transform="translate(10.03 5.754)" fill="#1a1a1a"/>
      <path id="Trazado_604768" data-name="Trazado 604768" d="M83.78,40.468l-.172,39.193s6.086-4.24,9.118-9.065,4.567-9.1,4.738-10.543.587-6.927-1.775-10.137-3.352-5.258-11.909-9.448" transform="translate(11.693 5.66)" fill="#fff198"/>
      <path id="Trazado_604769" data-name="Trazado 604769" d="M166.383,102.208s-4.1,15.71-17.887,22.325l.131-4.8s6.06-2.008,9.9-5.425a30.481,30.481,0,0,0,7.86-12.1" transform="translate(20.769 14.295)" fill="#1a1a1a"/>
      <path id="Trazado_604770" data-name="Trazado 604770" d="M200.242,102.974s-1.465.251-2.95.539L195,108.847s8.336,10.1,16.46,14.392l4.818,2.1.659-.757s-8.826-5.325-10.894-7.944a31.28,31.28,0,0,0-4.555-4.582,27.382,27.382,0,0,1,2.358-4.769Z" transform="translate(27.273 14.402)" fill="#b5b5b5"/>
      <path id="Trazado_604771" data-name="Trazado 604771" d="M210.087,101.007s-1-2.317-1.271-3.214-.862-3.584-2.136-3.445-1.758,1.377-1.412,2.652,1.447,4.2.172,4.48-3.3-1.05-4.736-2.317-5.011-4.073-5.011-4.073-1.141.429-1.418,1.049a1.905,1.905,0,0,0,.23,1.464,1.437,1.437,0,0,0-1.442.327c-.511.621-.719,1.7-.391,2.075,0,0-1.711,1.206-.605,2.737a28.444,28.444,0,0,0,4.689,5.286c2,1.654,3.382,3.092,5.843,3.683,0,0,2.083-4.1,3.149-5.578s4.338-5.124,4.338-5.124" transform="translate(26.811 13.195)" fill="#fff"/>
      <path id="Trazado_604772" data-name="Trazado 604772" d="M111.527,79.46l4.345,15.708.773,1.744,1.849,1.513.889.446,8.041-.028,3.075,9.525H107.2L99.212,79.6Z" transform="translate(13.876 11.113)" fill="#1a1a1a"/>
      <path id="Trazado_604773" data-name="Trazado 604773" d="M41,54.608c.776,3.877.207,4.031.207,4.031h1.6l.661-.339a7.385,7.385,0,0,0-.488-5.479A5.712,5.712,0,0,0,35.412,50.9a5.564,5.564,0,0,0-.742.458c1.029-.071,5.655-.14,6.333,3.251" transform="translate(4.849 7.022)" fill="#fff"/>
      <path id="Trazado_604774" data-name="Trazado 604774" d="M44.433,56.812c1.2.092,5.793.622,5.637,3.343-.181,3.122-5.74,8.047-5.759,8.062a12.845,12.845,0,0,0,1.382-.655,15.409,15.409,0,0,0,3.8-3.232c.457-.609,2.041-3.262,2.041-3.262a5.9,5.9,0,0,1,1.265,1.9,6.186,6.186,0,0,0-1.441-5.4c-1.4-1.648-4.673-1.268-6.925-.755" transform="translate(6.197 7.884)" fill="#fff"/>
      <path id="Trazado_604775" data-name="Trazado 604775" d="M200.279,59.969s-3.22,1.182-2.086,2.9a2.779,2.779,0,0,0,1.531-.913,3.326,3.326,0,0,0,.555-1.991" transform="translate(27.685 8.387)" fill="#fff"/>
      <path id="Trazado_604776" data-name="Trazado 604776" d="M192.1,51.562a8.246,8.246,0,0,0,5.826-.792c-1.975.633-5.329-1.115-5.329-1.115.226-2.8,4.424-5.247,4.968-5.551-.181,0-.364.008-.552.021-3.279.225-6.676,4.049-6.657,7.487,0,0,1.646,4.108,1.621,4.005s.123-4.054.123-4.054" transform="translate(26.624 6.168)" fill="#fff"/>
      <path id="Trazado_604777" data-name="Trazado 604777" d="M199.046,65.492c-6.888.439-5.825-6.823-5.825-6.823s-.31.047-.728.12a2.381,2.381,0,0,0-.62.339s-.636,6.966,4.22,6.64a29.872,29.872,0,0,0,4.839-.206,5.3,5.3,0,0,0-1.885-.068" transform="translate(26.832 8.205)" fill="#fff"/>
      <path id="Trazado_604778" data-name="Trazado 604778" d="M201.427,77.421l-2.391,4.167,1.376,3.424-2.048,15.21-.52-.475-.818-3.467,1.637-11.061-1.358-3.63,3.247-5.987Z" transform="translate(27.556 10.574)" fill="#fff"/>
      <path id="Trazado_604779" data-name="Trazado 604779" d="M153.78,117.434s-1.9-6.841-9.138-6.505-9.355,5.711-9.355,5.711,3.384,2.541,9.482,2.537,9.011-1.743,9.011-1.743" transform="translate(18.921 15.513)" fill="#1a1a1a"/>
      <path id="Trazado_604780" data-name="Trazado 604780" d="M70.148,85.564A22.774,22.774,0,0,1,71.8,81.705l.907-3.535c.038-.17.079-.349.124-.524a4.973,4.973,0,0,1,1.751-3.159,3.407,3.407,0,0,1,1.864-.382,12.189,12.189,0,0,1,2.452.269,4.56,4.56,0,0,1,1.148.38,1.923,1.923,0,0,1,.986,2.432A2.325,2.325,0,0,1,79.648,78.4a7.06,7.06,0,0,1-2.177.339,6.623,6.623,0,0,1-3.192-.712c1.075-.056,2.034.168,3.027.168a6.823,6.823,0,0,0,2.152-.305,1.828,1.828,0,0,0,1.073-.913,1.388,1.388,0,0,0-.739-1.733,3.93,3.93,0,0,0-1.011-.329,11.669,11.669,0,0,0-2.341-.256,2.646,2.646,0,0,0-1.568.3,4.547,4.547,0,0,0-1.513,2.829c-.044.172-.083.345-.122.519L72.3,81.9c-.08.166-1.426,2.711-1.923,3.531a.273.273,0,0,1-.234.131" transform="translate(9.811 10.365)" fill="#1a1a1a"/>
      <path id="Trazado_604781" data-name="Trazado 604781" d="M81.021,84.025a1.714,1.714,0,0,1-1.51-1.38,2.678,2.678,0,0,1,.163-1.85,6.878,6.878,0,0,1,1.238-1.861,5.764,5.764,0,0,1-.739,2.077,2.142,2.142,0,0,0-.141,1.472c.2.637.513.945,1.019,1,.226.44.107.544-.03.544" transform="translate(11.107 11.04)" fill="#1a1a1a"/>
      <path id="Trazado_604782" data-name="Trazado 604782" d="M79.908,76.464a6.147,6.147,0,0,1,1.327-2.413c.935-1.168,1.663-2.079,1.347-3.294-.13-.5-.5-1.04-1.117-.9a2.272,2.272,0,0,0-.928.557,25.287,25.287,0,0,0-4.067,4.744A12.491,12.491,0,0,1,80.181,70a2.782,2.782,0,0,1,1.162-.673,1.512,1.512,0,0,1,1.769,1.29c.381,1.48-.506,2.589-1.287,3.568-.679.855-1.193,1.509-1.7,2.168a.271.271,0,0,1-.217.108" transform="translate(10.695 9.691)" fill="#1a1a1a"/>
      <path id="Trazado_604783" data-name="Trazado 604783" d="M82.144,76.655c-.418-.686-.718-.963-1.232-1.091a1.16,1.16,0,0,0-1.266.323c-.072-.853.6-1.052,1.4-.851A1.773,1.773,0,0,1,82.4,76.3c-.2.353-.231.357-.259.357" transform="translate(11.139 10.484)" fill="#1a1a1a"/>
      <path id="Trazado_604784" data-name="Trazado 604784" d="M78.822,81.446a2.435,2.435,0,0,1-2.1-1.131,2.392,2.392,0,0,1,.325-2.551,4.722,4.722,0,0,0,.154,2.287,1.871,1.871,0,0,0,1.622.849,2.1,2.1,0,0,0,1.386-.7,10.243,10.243,0,0,0,.709-.8c.136-.164.276-.335.44-.522.251.544.113.709-.017.87-.23.277-.446.538-.747.839a2.618,2.618,0,0,1-1.749.856Z" transform="translate(10.698 10.876)" fill="#1a1a1a"/>
      <path id="Trazado_604785" data-name="Trazado 604785" d="M76.56,83.993a7.29,7.29,0,0,0,.789-3.5c.552.024.7,1.788-.576,3.4a.274.274,0,0,1-.213.1" transform="translate(10.708 11.258)" fill="#1a1a1a"/>
      <path id="Trazado_604786" data-name="Trazado 604786" d="M229.642,133.741c-9.553,0-22.2-9.669-29.125-17.172a25.723,25.723,0,0,1,4.048-7.708,50.887,50.887,0,0,1,4.773-5.58c.442.017,14,6.551,22.608,13.793-8.383-6.339-20.763-12.483-22.365-13.267a52.946,52.946,0,0,0-4.579,5.38,33.59,33.59,0,0,0-3.968,7.136c10.409,11.225,25.811,20.45,34,15.475,11.646-7.068,4.79-23.885-.717-37.4-.959-2.354-1.866-4.577-2.634-6.649-.082-.22-.171-.464-.264-.728-1.111-3.09-3.176-8.841-8.069-11.823A26.4,26.4,0,0,0,210,71.89a22.262,22.262,0,0,1,13.634,2.846c5.056,3.082,7.163,8.95,8.3,12.1.1.262.182.5.262.724.766,2.063,1.672,4.282,2.629,6.632,5.586,13.7,12.537,30.76.494,38.069a10.725,10.725,0,0,1-5.674,1.476" transform="translate(28.044 10.037)" fill="#1a1a1a"/>
      <path id="Trazado_604787" data-name="Trazado 604787" d="M202.626,111.616c-3.828-.59-10.348-7.4-11.024-9.712a2.03,2.03,0,0,1,.825-2.354,1.6,1.6,0,0,1,.274-1.994,1.932,1.932,0,0,1,.7-.5,1.663,1.663,0,0,1,1.46.191,9.943,9.943,0,0,1-1.261.316,1.409,1.409,0,0,0-.5.365,1.066,1.066,0,0,0-.063,1.53c-.146.45-1.294.983-.911,2.292.633,2.155,7,8.772,10.544,9.322.205.446.091.543-.042.543" transform="translate(26.783 13.561)" fill="#1a1a1a"/>
      <path id="Trazado_604788" data-name="Trazado 604788" d="M200.3,103.2a41.506,41.506,0,0,1-4.921-4c-.947-.878-1.791-1.652-1.793-2.543a1.689,1.689,0,0,1,.618-1.244c1.383-1.279,2.7-.017,3.479.737.16.152.393.386.673.665a38.96,38.96,0,0,0,2.959,2.771c.71.54,2.869,2.181,3.718,1.779.612-.292.8-.851.048-2.969a4.81,4.81,0,0,1-.133-3.723,1.194,1.194,0,0,1,.858-.605c1.655-.254,2.073,1.009,2.421,2.023.08.233.156.461.246.665a10.2,10.2,0,0,1,.483,1.523,7,7,0,0,0,1.086,2.607,3.3,3.3,0,0,1-1.614-2.47,9.788,9.788,0,0,0-.455-1.441c-.1-.218-.18-.459-.263-.707-.392-1.151-.739-1.831-1.818-1.661a.661.661,0,0,0-.476.345,4.445,4.445,0,0,0,.18,3.26c.671,1.891.834,3.094-.331,3.644-1.025.484-2.737-.658-4.28-1.837a39.218,39.218,0,0,1-3.015-2.819c-.276-.275-.506-.506-.665-.657-1.143-1.1-1.879-1.514-2.731-.731a1.155,1.155,0,0,0-.442.842c0,.652.742,1.332,1.282,1.829a50.836,50.836,0,0,0,5.032,4.215c.033.459-.056.5-.147.5" transform="translate(27.075 13.152)" fill="#1a1a1a"/>
      <path id="Trazado_604789" data-name="Trazado 604789" d="M198.589,105.024c-.172-.06-1.59-1.206-3.175-2.505a25.123,25.123,0,0,1-2.82-2.911c.31-.482,1.881,1.439,3.165,2.489,1.584,1.3,3,2.442,3,2.443-.014.449-.092.484-.172.484" transform="translate(26.936 13.92)" fill="#1a1a1a"/>
      <path id="Trazado_604790" data-name="Trazado 604790" d="M82.411,88.837a23.175,23.175,0,0,1-7.246-1.965c-2.755-1.109-7.817-3.576-7.256-4.97.243-.6.962-.574,1.383-.56a6.454,6.454,0,0,1,2.275.468,6.282,6.282,0,0,1-2.26.079c-.433-.017-.8-.01-.89.217-.172.426,2.126,2.316,6.953,4.26a23.1,23.1,0,0,0,7.042,1.926c.271.423.15.545,0,.545" transform="translate(9.492 11.376)" fill="#1a1a1a"/>
      <path id="Trazado_604791" data-name="Trazado 604791" d="M136.078,83.619a12.381,12.381,0,0,1,.518-2.844c.165-.626.32-1.215.465-1.62a4.985,4.985,0,0,0,.449-2.793,1.2,1.2,0,0,0-.582-.745,1.253,1.253,0,0,0-1.19.135,2.775,2.775,0,0,0-.9,1.056,3.771,3.771,0,0,0-.238.728c-.209.8-.495,1.9-1.45,2.126-1.376.326-2.395-.785-3.051-3.3-.269-1.042-.52-1.945-.763-2.763a34.5,34.5,0,0,0-2.012-5.308,3.013,3.013,0,0,0-.794-1.206,1.1,1.1,0,0,0-.714-.191,1.173,1.173,0,0,0-.922.484,2.206,2.206,0,0,0-.246,1.771c.335,1.338,2.027,5.99,2.044,6.037-.331.356-1.24.132-1.913.585a1.785,1.785,0,0,0-.7,1.305c-.261.236-1.114.3-1.66.954a2.466,2.466,0,0,0-.445,1.917,1.712,1.712,0,0,1,.032-2.273,2.715,2.715,0,0,1,1.566-.879,2.211,2.211,0,0,1,.907-1.48,2.519,2.519,0,0,1,1.546-.368c-.43-1.195-1.621-4.529-1.906-5.666a2.74,2.74,0,0,1,.334-2.226,1.724,1.724,0,0,1,1.329-.706,1.619,1.619,0,0,1,1.07.3,3.074,3.074,0,0,1,.885,1.241,35.875,35.875,0,0,1,2.121,5.557c.245.824.5,1.735.769,2.782.564,2.177,1.36,3.164,2.4,2.91.635-.15.863-1.028,1.049-1.734a4.008,4.008,0,0,1,.286-.855,3.306,3.306,0,0,1,1.082-1.249,1.785,1.785,0,0,1,1.725-.165,1.725,1.725,0,0,1,.866,1.083,5.415,5.415,0,0,1-.45,3.1c-.146.407-.3.986-.46,1.6a17.041,17.041,0,0,1-.8,2.55.275.275,0,0,1-.246.155" transform="translate(17.002 9.278)" fill="#1a1a1a"/>
      <path id="Trazado_604792" data-name="Trazado 604792" d="M124.965,79.589a7.19,7.19,0,0,1-1.658-3.951c.544.025.539,1.491,1.886,3.527-.124.408-.177.424-.228.424" transform="translate(17.246 10.579)" fill="#1a1a1a"/>
      <path id="Trazado_604793" data-name="Trazado 604793" d="M127.1,77.656a14.921,14.921,0,0,1-1.5-3.444c.544-.055.68.688,1.745,3.059-.172.377-.211.384-.248.384" transform="translate(17.567 10.379)" fill="#1a1a1a"/>
      <path id="Trazado_604794" data-name="Trazado 604794" d="M123.4,84.136a11.793,11.793,0,0,1-1.984-6.221c.545.035.545,3.2,2.215,5.8-.128.407-.18.421-.23.421" transform="translate(16.982 10.897)" fill="#1a1a1a"/>
      <path id="Trazado_604795" data-name="Trazado 604795" d="M197.83,63.468a3.059,3.059,0,0,1-1.616-.461,2,2,0,0,1-1.028-1.359,1.067,1.067,0,0,1,.413-.988,1.542,1.542,0,0,1,1.483-.1c.685.277.759.246.935.178s.252-.1.564-.766a1.54,1.54,0,0,1,1.156-.934,1.088,1.088,0,0,1,.976.445,1.9,1.9,0,0,1,.136,1.621,3.088,3.088,0,0,1-3.017,2.366m-1.437-2.5a.78.78,0,0,0-.469.136.521.521,0,0,0-.195.5,1.508,1.508,0,0,0,.771.942,2.554,2.554,0,0,0,2.3.194,2.63,2.63,0,0,0,1.522-1.78,1.434,1.434,0,0,0-.041-1.141.514.514,0,0,0-.484-.236,1.016,1.016,0,0,0-.724.622c-.368.79-.528.913-.856,1.042s-.53.149-1.339-.18a1.31,1.31,0,0,0-.484-.1" transform="translate(27.298 8.256)" fill="#1a1a1a"/>
      <path id="Trazado_604796" data-name="Trazado 604796" d="M198.148,63.282a2.644,2.644,0,0,1,2.06-3.544c.038.554-2.3,1.195-1.8,3.2-.22.336-.242.34-.264.34" transform="translate(27.687 8.355)" fill="#1a1a1a"/>
      <path id="Trazado_604797" data-name="Trazado 604797" d="M193.228,56.583c-.474-.063-.918-.362-.981-1.491a6.8,6.8,0,0,1,.051-1.183c.425.867.458,2.062.895,2.125.543-.336.757-1.378.809-1.969.527.228.369,1.825-.285,2.341a.784.784,0,0,1-.489.177" transform="translate(26.887 7.54)" fill="#1a1a1a"/>
      <path id="Trazado_604798" data-name="Trazado 604798" d="M198.885,56.626c-1.273-.211-.923-2.444-.879-2.7.4.877.408,2.072.841,2.147.551-.328.8-1.416.871-2.035.52.247.312,1.912-.365,2.42a.784.784,0,0,1-.468.164" transform="translate(27.682 7.543)" fill="#1a1a1a"/>
      <path id="Trazado_604799" data-name="Trazado 604799" d="M48.192,77.81c-.514,0-1.066-.011-1.627-.051a5.345,5.345,0,0,1,2.526-.5c1.517-.026,2.684-.047,3.577-.888a3.077,3.077,0,0,0,.682-.957,5.851,5.851,0,0,0,.38-1.6,12.4,12.4,0,0,0,.1-2.034,32.716,32.716,0,0,0-.4-3.771c-.263-1.816-1.078-5.3-1.086-5.337.565.019,1.36,3.42,1.582,4.953a35.4,35.4,0,0,1,.446,4.14,12.874,12.874,0,0,1-.1,2.124,6.3,6.3,0,0,1-.424,1.754,3.632,3.632,0,0,1-.8,1.128,5.038,5.038,0,0,1-3.656,1.032c-.569.013-.874.016-1.195.016" transform="translate(6.513 8.764)" fill="#1a1a1a"/>
      <path id="Trazado_604800" data-name="Trazado 604800" d="M46.353,65.967c.211-.062.368.013.53.783.181.858-.024,1.041-.22,1.058s-.425-.226-.495-.847-.092-.913.185-.994" transform="translate(6.451 9.224)" fill="#1a1a1a"/>
      <path id="Trazado_604801" data-name="Trazado 604801" d="M51.217,64.935c.21-.07.369,0,.557.764.209.853.01,1.041-.186,1.066s-.432-.212-.523-.83-.123-.91.152-1" transform="translate(7.133 9.079)" fill="#1a1a1a"/>
      <path id="Trazado_604802" data-name="Trazado 604802" d="M52.276,63.8a1.646,1.646,0,0,0-1.692-.074c.847-.928,1.4-.716,1.842-.426.025.457-.062.5-.15.5" transform="translate(7.075 8.819)" fill="#1a1a1a"/>
      <path id="Trazado_604803" data-name="Trazado 604803" d="M41.949,73.18a3.115,3.115,0,1,1,1.111-6.026,1.655,1.655,0,0,1,1.048.7c-.822-.14-1.107-.163-1.11-.163a2.78,2.78,0,0,0-1.592-.141,2.57,2.57,0,1,0,2.3,4.383,1.188,1.188,0,0,1-1.1,1.172,3.149,3.149,0,0,1-.662.072" transform="translate(5.431 9.363)" fill="#1a1a1a"/>
      <path id="Trazado_604804" data-name="Trazado 604804" d="M41.207,71.588c-.187-.47,1.31-1.889,1.31-1.889l-1.951-1.165c.278-.468,2.541.882,2.541.882.048.431-1.712,2.1-1.712,2.1a.263.263,0,0,1-.187.075" transform="translate(5.673 9.571)" fill="#1a1a1a"/>
      <path id="Trazado_604805" data-name="Trazado 604805" d="M49.556,86.936a3.62,3.62,0,0,1-1.122-.187A8.505,8.505,0,0,1,45,84.326a17.711,17.711,0,0,1-2.951-4.64c1.283,1.533,2.247,3.047,3.356,4.276a7.988,7.988,0,0,0,3.2,2.269,2.471,2.471,0,0,0,2.022-.108c1.762-1.033,1.133-2.741.466-4.551a8.86,8.86,0,0,1-.625-2.244s-.011-.141-.27-3.6c.544-.04.807,3.475.814,3.558a8.55,8.55,0,0,0,.593,2.1c.647,1.758,1.452,3.947-.7,5.21a2.673,2.673,0,0,1-1.35.343" transform="translate(5.881 10.591)" fill="#1a1a1a"/>
      <path id="Trazado_604806" data-name="Trazado 604806" d="M42.2,80.066c-.272-.27-.343-7.945-.343-7.945.545-.006.614,7.669.614,7.669-.27.276-.271.276-.271.276" transform="translate(5.854 10.087)" fill="#1a1a1a"/>
      <path id="Trazado_604807" data-name="Trazado 604807" d="M65.38,137.543c-.424-3.584-.53-6.886-.634-10.08-.148-4.635-.3-9.427-.6-14.281a101.126,101.126,0,0,1,1.143,14.263c.1,3.193.207,6.493.359,9.813a3.179,3.179,0,0,1-.271.285" transform="translate(8.972 15.83)" fill="#1a1a1a"/>
      <path id="Trazado_604808" data-name="Trazado 604808" d="M65.45,104.829A155.684,155.684,0,0,0,62.1,86.455a14.869,14.869,0,0,0-1.393-3.831c-1.988-3.413-6.135-3.429-9.795-3.442-.422,0-.838,0-1.241-.01a1.3,1.3,0,0,1,1.246-.536c3.8.014,8.116.032,10.26,3.715A15.334,15.334,0,0,1,62.63,86.32a118.345,118.345,0,0,1,3.091,18.21c-.254.3-.261.3-.271.3" transform="translate(6.947 10.998)" fill="#1a1a1a"/>
      <path id="Trazado_604809" data-name="Trazado 604809" d="M51.446,70.7a8.67,8.67,0,0,0-.166-2.366,3.062,3.062,0,0,0-1.3.439c-.394-.193-1.079-3.947-1.079-3.947.537-.1,1.157,3.3,1.157,3.3.529-.246,1.217-.478,1.552-.225.537.416.248,1.948.1,2.587a.274.274,0,0,1-.267.211" transform="translate(6.84 9.066)" fill="#1a1a1a"/>
      <path id="Trazado_604810" data-name="Trazado 604810" d="M26.027,92.4c-.23-.062-.307-.217-.259-.359,1.807-5.455,3.986-8.991,6.479-10.512,2.939-1.792,5.951-2.9,11.88-2.9-5.8.546-8.737,1.624-11.595,3.366-2.38,1.451-4.482,4.888-6.246,10.217a.274.274,0,0,1-.259.188" transform="translate(3.602 10.997)" fill="#1a1a1a"/>
      <path id="Trazado_604811" data-name="Trazado 604811" d="M15.465,136.078c.6-4.556,1.449-8.624,2.265-12.421a97.6,97.6,0,0,1-2,12.2.272.272,0,0,1-.267.218" transform="translate(2.163 17.295)" fill="#1a1a1a"/>
      <path id="Trazado_604812" data-name="Trazado 604812" d="M34.865,135.73c.353-3.315.889-6.257,1.412-9.587a43.56,43.56,0,0,1-1.146,9.371.272.272,0,0,1-.267.217" transform="translate(4.876 17.642)" fill="#1a1a1a"/>
      <path id="Trazado_604813" data-name="Trazado 604813" d="M42.8,75.9c-4.6-.439-7.752-5.348-7.516-11.674a6.871,6.871,0,0,1,2.187-5.214,7.552,7.552,0,0,1,5.286-1.545c.826-.35,8.053-3.258,10.507.5A7.277,7.277,0,0,1,54.455,63.6a21.8,21.8,0,0,0-1.594-2.152,14.015,14.015,0,0,1-8.922,7.748A15.031,15.031,0,0,0,52.5,60.883c.462-.1,1.079.4,1.543,1.35A7.335,7.335,0,0,0,52.8,58.271c-2.3-3.521-9.824-.307-9.9-.274a7.549,7.549,0,0,0-5.086,1.434,6.358,6.358,0,0,0-1.995,4.817c-.226,6.028,2.716,10.7,7,11.11.231.439.113.544-.025.544" transform="translate(4.933 7.842)" fill="#1a1a1a"/>
      <path id="Trazado_604814" data-name="Trazado 604814" d="M174.353,80.691a3.434,3.434,0,0,1,1.322-1.983c6.069-5.221,11.7-6.1,16.669-6.871q.641-.1,1.268-.2a1.36,1.36,0,0,1-1.185.74c-4.9.763-10.447,1.627-16.4,6.743a10.664,10.664,0,0,0-1.464,1.468.276.276,0,0,1-.213.1" transform="translate(24.385 10.019)" fill="#1a1a1a"/>
      <path id="Trazado_604815" data-name="Trazado 604815" d="M194.609,88.8c-.268-.219-3.556-16.191-3.556-16.191.09-.261,4.709-4.261,4.709-4.261.4.054,5.621,7.775,5.621,7.775l5.034-7.718c.393-.067,5.074,3.471,5.074,3.471.1.271-2.6,13.454-2.6,13.454-.533-.109,2.132-13.123,2.132-13.123l-4.311-3.258L201.7,76.628l5.574,10.1c-.479.262-5.9-9.559-5.9-9.559l-6.537,11.488a.272.272,0,0,1-.236.138m-2.989-16.144,3.11,15.107,6.335-11.134-5.181-7.667Z" transform="translate(26.721 9.559)" fill="#1a1a1a"/>
      <path id="Trazado_604816" data-name="Trazado 604816" d="M198.677,84.759a37.5,37.5,0,0,1-1.769-3.8c.5-.211,1.95,3.258,1.95,3.258l3.722-.007,1.1-3.312c.517.172-.649,3.67-.649,3.67a36.161,36.161,0,0,1-4.358.195" transform="translate(27.54 11.314)" fill="#1a1a1a"/>
      <path id="Trazado_604817" data-name="Trazado 604817" d="M204.829,70.087c-.272-.26-.8-10.744-.8-10.744.545-.027,1.074,10.457,1.074,10.457a2.646,2.646,0,0,1-.271.287" transform="translate(28.535 8.3)" fill="#1a1a1a"/>
      <path id="Trazado_604818" data-name="Trazado 604818" d="M195.367,69.312c-.271-.277-.22-4.428-.22-4.428.544.007.492,4.158.492,4.158a.273.273,0,0,1-.272.27" transform="translate(27.293 9.075)" fill="#1a1a1a"/>
      <path id="Trazado_604819" data-name="Trazado 604819" d="M197.029,95.378c-.269-.312,1.367-11.367,1.367-11.367.54.08-1.1,11.134-1.1,11.134a.273.273,0,0,1-.27.233" transform="translate(27.552 11.75)" fill="#1a1a1a"/>
      <path id="Trazado_604820" data-name="Trazado 604820" d="M202.919,91.117c-.27-.239-1.1-7.05-1.1-7.05.54-.067,1.369,6.745,1.369,6.745-.247.3-.26.305-.27.305" transform="translate(28.227 11.758)" fill="#1a1a1a"/>
      <path id="Trazado_604821" data-name="Trazado 604821" d="M197.865,98.419c-.267-.218-3.1-13.779-3.1-13.779.533-.111,3.363,13.45,3.363,13.45-.228.326-.248.328-.266.328" transform="translate(27.24 11.838)" fill="#1a1a1a"/>
      <path id="Trazado_604822" data-name="Trazado 604822" d="M200.293,137.286c-.271-.27-.384-20.616-.384-20.616.544,0,.657,20.341.657,20.341-.27.275-.272.275-.272.275" transform="translate(27.959 16.318)" fill="#1a1a1a"/>
      <path id="Trazado_604823" data-name="Trazado 604823" d="M146.784,136.874c-.229-.062-.308-.217-.259-.359,1.245-3.722,1.826-13.366,2.136-18.547.233,5.24-.351,14.93-1.619,18.72a.272.272,0,0,1-.259.186" transform="translate(20.491 16.499)" fill="#1a1a1a"/>
      <path id="Trazado_604824" data-name="Trazado 604824" d="M49.837,72.58a1.833,1.833,0,0,1-.856-.2,2.573,2.573,0,0,1-1.17-1.6c.535-.113.748.767,1.421,1.113a1.751,1.751,0,0,0,1.488-.063c-.178.667-.545.748-.883.748" transform="translate(6.687 9.898)" fill="#1a1a1a"/>
      <path id="Trazado_604825" data-name="Trazado 604825" d="M196.544,67.119c-1.46,0-2.98-.173-3.92-1.608-.964-1.468-.97-3.382-.976-5.071,0-.372,0-.735-.014-1.085-.035-1.151.138-8.181.145-8.481.543.087.367,7.327.4,8.463.011.356.014.725.015,1.1.006,1.692.011,3.441.885,4.774.929,1.417,2.564,1.387,4.164,1.354.2,0,.4-.009.6-.009a15.863,15.863,0,0,0,3.455-.342,3.665,3.665,0,0,0,2.436-1.232,5.946,5.946,0,0,0,.768-3.019,11.651,11.651,0,0,0-.047-1.844c-.179-1.488-.437-3.793-.437-3.793a3.412,3.412,0,0,1,1.084-1.617,3.567,3.567,0,1,1,.095,5.588,4.415,4.415,0,0,0,4.086-.5,3.019,3.019,0,1,0-4.716-3.466c.043.39.267,2.388.43,3.726a12.1,12.1,0,0,1,.048,1.932,6.426,6.426,0,0,1-.861,3.3,4.123,4.123,0,0,1-2.769,1.459,16.246,16.246,0,0,1-3.57.356c-.2,0-.394,0-.6.008-.234,0-.471.009-.709.009" transform="translate(26.801 7.115)" fill="#1a1a1a"/>
      <path id="Trazado_604826" data-name="Trazado 604826" d="M192.058,53.245c-.241-.4.407-1.763,2.352-1.26a2.435,2.435,0,0,0-2.1,1.1.274.274,0,0,1-.249.157" transform="translate(26.855 7.255)" fill="#1a1a1a"/>
      <path id="Trazado_604827" data-name="Trazado 604827" d="M200.647,53.412c-1.481-1.721-2.748-.96-2.8-.928-.279-.471,1.436-1.532,3.017.487-.1.422-.156.441-.215.441" transform="translate(27.667 7.242)" fill="#1a1a1a"/>
      <path id="Trazado_604828" data-name="Trazado 604828" d="M206.682,58.9c-.121-.028-2.678-1.294-2.678-1.294-.074-.435,2.25-2.812,2.25-2.812.389.382-1.673,2.489-1.673,2.489l2.22,1.1c.076.462-.019.516-.12.516" transform="translate(28.532 7.664)" fill="#1a1a1a"/>
      <path id="Trazado_604829" data-name="Trazado 604829" d="M200.209,47.174c-.213-.443,1.127-2.106,1.127-2.106.425.343-.914,2.005-.914,2.005a.277.277,0,0,1-.213.1" transform="translate(27.998 6.303)" fill="#1a1a1a"/>
      <path id="Trazado_604830" data-name="Trazado 604830" d="M197.686,60.023c.608-1.23,2.064-1.1,3.237-.989a4.733,4.733,0,0,0,1.19.033c.315-.082.744-1.864.9-3.736l.2-.815a10.609,10.609,0,0,1-2.583-5.711,10.3,10.3,0,0,1-9.235,2.369,11.08,11.08,0,0,0,9.251-3.141c.479.206.622,3.648,3.065,6.218a4.483,4.483,0,0,1-.163,1.169c-.09,1.147-.415,3.944-1.3,4.175a4.541,4.541,0,0,1-1.377-.017c-1.01-.092-2.383-.218-3,.369a.266.266,0,0,1-.189.076" transform="translate(26.768 6.718)" fill="#1a1a1a"/>
      <path id="Trazado_604831" data-name="Trazado 604831" d="M191.891,59.3a1.771,1.771,0,0,1,2-.755c-.193.508-1.068.209-1.849.712a.274.274,0,0,1-.148.042" transform="translate(26.838 8.178)" fill="#1a1a1a"/>
      <path id="Trazado_604832" data-name="Trazado 604832" d="M267.606,134.621H0c0-.545,267.606-.545,267.606-.545.272.423.15.545,0,.545" transform="translate(0 18.752)" fill="#1a1a1a"/>
      <path id="Trazado_604833" data-name="Trazado 604833" d="M163.03,75.609a3.244,3.244,0,0,1-2.671-1.4,8.224,8.224,0,0,1,1.72.686,2.7,2.7,0,1,0-.686-4.67,2.084,2.084,0,0,1,2.786-.89,3.246,3.246,0,0,1,1.892,4.18,3.259,3.259,0,0,1-3.041,2.1" transform="translate(22.428 9.669)" fill="#1a1a1a"/>
      <path id="Trazado_604834" data-name="Trazado 604834" d="M163.1,73.938a23.142,23.142,0,0,1-1.664-2.093c.145-.424,2.6-1.134,2.6-1.134.152.523-1.934,1.126-1.934,1.126l1.214,1.666c-.107.417-.164.434-.22.434" transform="translate(22.579 9.89)" fill="#1a1a1a"/>
      <path id="Trazado_604835" data-name="Trazado 604835" d="M183.035,139.389c-.28-.342-1.206-9.953-.524-20.195.321-4.823.368-11.106.138-19.207a118.433,118.433,0,0,1,.407,19.243,138.051,138.051,0,0,0,.252,19.859c-.253.3-.263.3-.272.3" transform="translate(25.492 13.984)" fill="#1a1a1a"/>
      <path id="Trazado_604836" data-name="Trazado 604836" d="M159.615,80.57a4.464,4.464,0,0,1-3.515-1.794c-1.28-1.9-.51-4.531-.476-4.643l2.144-8.761c.53.13-1.619,8.9-1.619,8.9-.011.038-.732,2.517.4,4.2a3.933,3.933,0,0,0,3.087,1.552c.234.439.113.545-.025.545" transform="translate(21.729 9.143)" fill="#1a1a1a"/>
      <path id="Trazado_604837" data-name="Trazado 604837" d="M155.739,72.911c-1.058-.258-1.392-.849-1.232-1.419l1.41-5.03a1.077,1.077,0,0,1,1.323-.742,1.247,1.247,0,0,1,.846.563,1.071,1.071,0,0,1,.1.816l-1.412,5.029a1.076,1.076,0,0,1-1.035.783m-.14-.565a.536.536,0,0,0,.65-.365l1.412-5.03c-.842-.788-1.138-.619-1.219-.34l-1.41,5.028a.528.528,0,0,0,.365.65Z" transform="translate(21.604 9.186)" fill="#1a1a1a"/>
      <path id="Trazado_604838" data-name="Trazado 604838" d="M180.2,108.414a16.882,16.882,0,0,1-4.934-.837,8.4,8.4,0,0,1-4.015-2.233c-1.3-1.482-1.749-3.711-1.343-6.625.1-.718.236-1.441.369-2.14a25.069,25.069,0,0,0,.507-3.667,4.049,4.049,0,0,0-.4-2.215c-.7-1.184-2.332-1.657-3.495-1.912-.276-.06-.553-.115-.83-.169a13.442,13.442,0,0,1-2.523-.667,7.684,7.684,0,0,1-4.463-6.768c-.044-2.1,1.734-3.84,3.413-4.775-1.274,1.334-2.906,2.91-2.868,4.763a7.121,7.121,0,0,0,4.124,6.275,13.093,13.093,0,0,0,2.421.636c.282.056.561.111.84.171,1.264.276,3.035.8,3.849,2.167a4.552,4.552,0,0,1,.479,2.513,25.151,25.151,0,0,1-.515,3.748c-.131.692-.267,1.408-.365,2.113-.381,2.749.026,4.833,1.214,6.191a7.911,7.911,0,0,0,3.763,2.07,16.347,16.347,0,0,0,4.775.814,8.406,8.406,0,0,0,8.452-8.736C188.63,93.869,186,88.7,182.1,86.268c-.6-.377-1.258-.719-1.893-1.049a11.014,11.014,0,0,1-4.318-3.238c-1.712-2.516-.986-5.29-.285-7.973a25.839,25.839,0,0,0,.622-2.789c1.141-7.979-2.717-10.03-5.12-10.541a36.851,36.851,0,0,0-5.69.52c-3.868-1.564-5.811-.552-6.1-.382-.248.38-1.995,3.177-1.228,5.906.481,1.718,1.858,3.088,4.094,4.073a5.6,5.6,0,0,1-4.622-3.928c-.886-3.172,1.246-6.275,1.336-6.406.15-.127,2.231-1.565,6.512.187a36.993,36.993,0,0,1,5.81-.5c2.587.552,6.75,2.733,5.545,11.152a26.664,26.664,0,0,1-.635,2.851c-.67,2.565-1.364,5.216.209,7.528a10.444,10.444,0,0,0,4.118,3.061c.644.335,1.31.683,1.93,1.069,4.048,2.526,6.786,7.882,6.811,13.327a8.914,8.914,0,0,1-8.883,9.283Z" transform="translate(22.007 8.361)" fill="#1a1a1a"/>
      <path id="Trazado_604839" data-name="Trazado 604839" d="M126.907,102.626h-7.173a4.936,4.936,0,0,1-4.745-3.611L104.415,60.8a4.926,4.926,0,0,1,4.746-6.24h58.972a4.94,4.94,0,0,1,4.745,3.613l.914,3.249c-.525.148-1.441-3.1-1.441-3.1a4.388,4.388,0,0,0-4.219-3.214H109.162a4.381,4.381,0,0,0-4.221,5.548l10.573,38.218a4.387,4.387,0,0,0,4.22,3.211h7.173c.271.424.15.546,0,.546" transform="translate(14.578 7.63)" fill="#1a1a1a"/>
      <path id="Trazado_604840" data-name="Trazado 604840" d="M150.84,96.795h-9.8c0-.546,9.8-.546,9.8-.546.272.424.15.546,0,.546" transform="translate(19.726 13.461)" fill="#1a1a1a"/>
      <path id="Trazado_604841" data-name="Trazado 604841" d="M161.458,60.512a2.887,2.887,0,0,0-2.773-1.949H155.6c0-.546,3.08-.546,3.08-.546a2.943,2.943,0,0,1,3.038,2.149c-.215.343-.241.347-.264.347" transform="translate(21.763 8.114)" fill="#1a1a1a"/>
      <path id="Trazado_604842" data-name="Trazado 604842" d="M125.413,98.2h-3.344a4.128,4.128,0,0,1-3.966-3.017l-9.436-34.111a2.41,2.41,0,0,1,2.323-3.054h41.779c0,.546-41.779.546-41.779.546a1.863,1.863,0,0,0-1.8,2.361l9.435,34.113a3.581,3.581,0,0,0,3.44,2.617h3.344c.271.423.15.546,0,.546" transform="translate(15.186 8.114)" fill="#1a1a1a"/>
      <path id="Trazado_604843" data-name="Trazado 604843" d="M152.621,93.337H139.779c0-.546,12.842-.546,12.842-.546.272.423.15.546,0,.546" transform="translate(19.55 12.978)" fill="#1a1a1a"/>
      <path id="Trazado_604844" data-name="Trazado 604844" d="M133.21,64.667H117.386c0-.546,15.824-.546,15.824-.546.271.424.15.546,0,.546" transform="translate(16.418 8.968)" fill="#1a1a1a"/>
      <path id="Trazado_604845" data-name="Trazado 604845" d="M132.929,67.69h-6.27c0-.546,6.27-.546,6.27-.546.271.424.15.546,0,.546" transform="translate(17.715 9.391)" fill="#1a1a1a"/>
      <path id="Trazado_604846" data-name="Trazado 604846" d="M124.757,67.69h-6.48c0-.546,6.48-.546,6.48-.546.271.424.15.546,0,.546" transform="translate(16.542 9.391)" fill="#1a1a1a"/>
      <path id="Trazado_604847" data-name="Trazado 604847" d="M157.574,64.667H141.749c0-.546,15.825-.546,15.825-.546.272.424.15.546,0,.546" transform="translate(19.825 8.968)" fill="#1a1a1a"/>
      <path id="Trazado_604848" data-name="Trazado 604848" d="M157.531,67.69H142.642c0-.546,14.889-.546,14.889-.546.271.424.15.546,0,.546" transform="translate(19.95 9.391)" fill="#1a1a1a"/>
      <path id="Trazado_604849" data-name="Trazado 604849" d="M135.291,73.765h-6.44c0-.546,6.44-.546,6.44-.546.272.423.15.546,0,.546" transform="translate(18.021 10.24)" fill="#1a1a1a"/>
      <path id="Trazado_604850" data-name="Trazado 604850" d="M126.273,73.765h-5.654c0-.546,5.654-.546,5.654-.546.272.423.15.546,0,.546" transform="translate(16.87 10.24)" fill="#1a1a1a"/>
      <path id="Trazado_604851" data-name="Trazado 604851" d="M133.046,76.788h-3.1c0-.546,3.1-.546,3.1-.546.271.423.15.546,0,.546" transform="translate(18.174 10.663)" fill="#1a1a1a"/>
      <path id="Trazado_604852" data-name="Trazado 604852" d="M122.057,76.788h-.546a.535.535,0,0,1,.546-.546c.271.423.15.546,0,.546" transform="translate(16.995 10.663)" fill="#1a1a1a"/>
      <path id="Trazado_604853" data-name="Trazado 604853" d="M157.121,73.765H144.983c0-.546,12.138-.546,12.138-.546.272.423.15.546,0,.546" transform="translate(20.277 10.24)" fill="#1a1a1a"/>
      <path id="Trazado_604854" data-name="Trazado 604854" d="M157.282,76.788H145.874c0-.546,11.408-.546,11.408-.546.272.423.15.546,0,.546" transform="translate(20.402 10.663)" fill="#1a1a1a"/>
      <path id="Trazado_604855" data-name="Trazado 604855" d="M137.848,82.863h-1.371c0-.546,1.371-.546,1.371-.546.271.423.15.546,0,.546" transform="translate(19.088 11.513)" fill="#1a1a1a"/>
      <path id="Trazado_604856" data-name="Trazado 604856" d="M138.726,85.885h-1.252c0-.546,1.252-.546,1.252-.546.271.424.15.546,0,.546" transform="translate(19.227 11.936)" fill="#1a1a1a"/>
      <path id="Trazado_604857" data-name="Trazado 604857" d="M162.291,82.863H148.16c0-.546,14.131-.546,14.131-.546.271.423.15.546,0,.546" transform="translate(20.722 11.513)" fill="#1a1a1a"/>
      <path id="Trazado_604858" data-name="Trazado 604858" d="M156.46,85.885h-7.408c0-.546,7.408-.546,7.408-.546.272.424.15.546,0,.546" transform="translate(20.846 11.936)" fill="#1a1a1a"/>
      <path id="Trazado_604859" data-name="Trazado 604859" d="M36,63.119c-3.2-.816-4.3-4.159-3.986-6.925s2.143-6.013,6.294-6.128a5.626,5.626,0,0,1,4.713,1.78c2.027,2.419,1.238,6.368,1.2,6.536-.525-.148.235-3.974-1.622-6.188a5.039,5.039,0,0,0-4.279-1.583c-3.8.107-5.482,3.107-5.767,5.643s.692,5.6,3.513,6.327c.164.454.054.537-.07.537" transform="translate(4.471 7.002)" fill="#1a1a1a"/>
      <path id="Trazado_604860" data-name="Trazado 604860" d="M20.347,87.757c6.988-5.353,15.337-9.223,24.66-12A109.724,109.724,0,0,0,20.5,87.71a.278.278,0,0,1-.154.048" transform="translate(2.846 10.595)" fill="#1a1a1a"/>
      <path id="Trazado_604861" data-name="Trazado 604861" d="M53.047,73.785a11.3,11.3,0,0,1,4.342-1.177,14.168,14.168,0,0,1-4.3,1.174c-.016,0-.031,0-.046,0" transform="translate(7.419 10.155)" fill="#1a1a1a"/>
      <path id="Trazado_604862" data-name="Trazado 604862" d="M20.468,52.828c7.31-5.594,16.2-9.609,26.256-12.431q.521-.147,1.042-.287a1.083,1.083,0,0,1-.894.813A89.082,89.082,0,0,0,20.621,52.779a.259.259,0,0,1-.153.049" transform="translate(2.863 5.61)" fill="#1a1a1a"/>
      <path id="Trazado_604863" data-name="Trazado 604863" d="M51.75,39.111a18.249,18.249,0,0,1,5.822-1.41A28.208,28.208,0,0,1,51.8,39.106a.357.357,0,0,1-.048,0" transform="translate(7.238 5.273)" fill="#1a1a1a"/>
      <path id="Trazado_604864" data-name="Trazado 604864" d="M80.76,92.724c-.274-.28.01-10.692.01-10.692,1.11-.918,2.065-1.63,2.98-2.353l.172-39.207c.381-.248,2.212.549,2.813.831,5.773,2.7,9.574,6.8,10.989,11.849,2.35,8.372-2.662,18.23-13.485,26.833-1.01.8-1.948,1.5-2.929,2.2L81.031,92.46a.271.271,0,0,1-.271.264m3.7-51.834L84.3,79.243C94.668,70.858,99.458,61.352,97.2,53.3c-1.371-4.89-5.07-8.868-10.7-11.5-.425-.2-1.469-.66-2.037-.908" transform="translate(11.278 5.654)" fill="#1a1a1a"/>
      <path id="Trazado_604865" data-name="Trazado 604865" d="M80.035,116.515c-.272-.282.544-30.454.544-30.454.545.015-.272,30.188-.272,30.188a.27.27,0,0,1-.271.266" transform="translate(11.186 12.037)" fill="#1a1a1a"/>
      <path id="Trazado_604866" data-name="Trazado 604866" d="M80.028,117.186c10.751-7.887,17.287-16.718,17.78-24.73.015-.344.011-11.2.011-11.2.544,0,.548,10.863.548,10.863-.519,8.548-7.141,17.532-18.185,25.015a.278.278,0,0,1-.154.048" transform="translate(11.193 11.365)" fill="#1a1a1a"/>
      <path id="Trazado_604867" data-name="Trazado 604867" d="M95.908,78.95c-.272-.272-.282-24.5-.282-24.5.545,0,.553,24.227.553,24.227a.272.272,0,0,1-.271.272" transform="translate(13.374 7.616)" fill="#1a1a1a"/>
      <path id="Trazado_604868" data-name="Trazado 604868" d="M56.907,124.342c-.271-.277-.161-8.96-.161-8.96.545.008.433,8.691.433,8.691a.272.272,0,0,1-.272.269" transform="translate(7.934 16.137)" fill="#1a1a1a"/>
      <path id="Trazado_604869" data-name="Trazado 604869" d="M57.159,105.3c-.272-.276-.055-17.369-.055-17.369.545.008.326,17.1.326,17.1a.27.27,0,0,1-.271.27" transform="translate(7.975 12.299)" fill="#1a1a1a"/>
      <path id="Trazado_604870" data-name="Trazado 604870" d="M37.675,92c-8.867,0-16.88-1.483-22.992-4.431,11.723,5.047,30.038,5.354,48.03.3l.508-.145a.521.521,0,0,1-.359.669A94.361,94.361,0,0,1,37.675,92" transform="translate(2.054 12.247)" fill="#1a1a1a"/>
      <path id="Trazado_604871" data-name="Trazado 604871" d="M8.673,84.082a15.286,15.286,0,0,1-3.782-6.505,15.625,15.625,0,0,1-.571-4.151,35.536,35.536,0,0,1,1.1,4,15.612,15.612,0,0,0,3.458,6.2c-.073.432-.139.455-.2.455" transform="translate(0.604 10.269)" fill="#1a1a1a"/>
      <path id="Trazado_604872" data-name="Trazado 604872" d="M36.006,101.7a69.7,69.7,0,0,1-9.371-.61,118.712,118.712,0,0,0,19.349-.541,36.468,36.468,0,0,1-9.978,1.151" transform="translate(3.725 14.062)" fill="#1a1a1a"/>
      <path id="Trazado_604873" data-name="Trazado 604873" d="M36.067,105.783a69.262,69.262,0,0,1-9.87-.682,114.632,114.632,0,0,0,19.848-.472,36.389,36.389,0,0,1-9.978,1.154" transform="translate(3.664 14.633)" fill="#1a1a1a"/>
      <path id="Trazado_604874" data-name="Trazado 604874" d="M39.145,132.253a65.428,65.428,0,0,1-13.6-1.345c-11.262-2.405-18.6-7.766-20.655-15.094a15.509,15.509,0,0,1-.565-3.749l-.006-.559V84.768c.545,0,.551,27.286.551,27.286a14.977,14.977,0,0,0,.547,3.612c2,7.125,9.187,12.348,20.243,14.708,11.12,2.374,24.792,1.56,38.5-2.285a76.528,76.528,0,0,1-25.018,4.165" transform="translate(0.604 11.856)" fill="#1a1a1a"/>
      <path id="Trazado_604875" data-name="Trazado 604875" d="M4.592,86.567c-.271-.272-.271-12.712-.271-12.712.544,0,.544,12.439.544,12.439a.272.272,0,0,1-.272.272" transform="translate(0.604 10.329)" fill="#1a1a1a"/>
      <path id="Trazado_604876" data-name="Trazado 604876" d="M20.5,91.216c-.272-.274-.272-40.189-.272-40.189.544,0,.544,39.916.544,39.916a.273.273,0,0,1-.271.274" transform="translate(2.829 7.137)" fill="#1a1a1a"/>
      <path id="Trazado_604877" data-name="Trazado 604877" d="M56.918,78c-.271-.274-.271-40.062-.271-40.062.544,0,.544,39.788.544,39.788a.273.273,0,0,1-.272.274" transform="translate(7.923 5.306)" fill="#1a1a1a"/>
      <path id="Trazado_604878" data-name="Trazado 604878" d="M84.417,91.864c2.089-2.241,5.387-5.022,8.282-8.316a37.822,37.822,0,0,1-8.116,8.259.263.263,0,0,1-.166.057" transform="translate(11.807 11.685)" fill="#1a1a1a"/>
      <path id="Trazado_604879" data-name="Trazado 604879" d="M65.052,123.187c9.717-.546,15.063-18.872,17.4-29.864-1.834,11.271-7.3,29.864-17.4,29.864" transform="translate(9.098 13.052)" fill="#1a1a1a"/>
      <path id="Trazado_604880" data-name="Trazado 604880" d="M62.572,95.877c-.247-.389,6.06-14.01,6.06-14.01.5.23-5.811,13.852-5.811,13.852a.275.275,0,0,1-.248.158" transform="translate(8.75 11.45)" fill="#1a1a1a"/>
      <path id="Trazado_604881" data-name="Trazado 604881" d="M78.122,87.773A19.725,19.725,0,0,0,80.9,84.249a4.959,4.959,0,0,1-2.634,3.487.281.281,0,0,1-.14.038" transform="translate(10.926 11.783)" fill="#1a1a1a"/>
      <path id="Trazado_604882" data-name="Trazado 604882" d="M45.248,105.777c.147-.559,17.059-1.994,24.264-5.969-7.045,4.51-24.072,5.955-24.244,5.968h-.021" transform="translate(6.328 13.959)" fill="#1a1a1a"/>
      <path id="Trazado_604883" data-name="Trazado 604883" d="M45.248,117.891c.147-.559,17.059-1.994,24.264-5.971-7.045,4.512-24.072,5.956-24.244,5.969h-.021" transform="translate(6.328 15.653)" fill="#1a1a1a"/>
      <path id="Trazado_604884" data-name="Trazado 604884" d="M45.282,118.931c-.274-.274-.274-14.125-.274-14.125.545,0,.545,13.852.545,13.852a.272.272,0,0,1-.271.274" transform="translate(6.295 14.658)" fill="#1a1a1a"/>
      <path id="Trazado_604885" data-name="Trazado 604885" d="M66.683,114.124c-.271-.272-.271-14.124-.271-14.124.544,0,.544,13.852.544,13.852a.272.272,0,0,1-.272.272" transform="translate(9.288 13.986)" fill="#1a1a1a"/>
      <path id="Trazado_604886" data-name="Trazado 604886" d="M192.115,56.214c-.43-.527-2.047-3.837-1.991-4.734.014-.223.385-5.475,5.037-7.142a8.982,8.982,0,0,1,7.676.82c.779-.231,4.736-1.223,6.259,2.169,1.624,3.615.478,7.865.427,8.043-.515-.188.618-4.387-.923-7.819-1.48-3.291-5.54-1.9-5.715-1.835a9.3,9.3,0,0,0-7.538-.861c-4.318,1.543-4.665,6.45-4.679,6.66a19.035,19.035,0,0,0,1.692,4.308c-.162.384-.2.392-.244.392" transform="translate(26.591 6.129)" fill="#1a1a1a"/>
      <path id="Trazado_604887" data-name="Trazado 604887" d="M14.558,79.82c-.271-.272-.271-12.206-.271-12.206a45.234,45.234,0,0,1,6.8-3.474c.164.522-4.182,2.33-6.26,3.624v11.3a63.733,63.733,0,0,1,6.26-2.986c.164.523-4.362,2.405-6.384,3.7a.28.28,0,0,1-.148.043" transform="translate(1.998 8.971)" fill="#1a1a1a"/>
      <path id="Trazado_604888" data-name="Trazado 604888" d="M71.75,53.878c-.272-.271-.272-10.374-.272-10.374,9.723.209,13.823,2.763,13.993,2.87-.333.434-4.377-2.075-13.449-2.582v9.814a.27.27,0,0,1-.271.271" transform="translate(9.997 6.084)" fill="#1a1a1a"/>
      <path id="Trazado_604889" data-name="Trazado 604889" d="M85.293,55.707c-.187-.07-4.317-2.63-13.588-3.1,9.464-.063,13.564,2.491,13.734,2.6.032.457-.057.5-.146.5" transform="translate(10.029 7.357)" fill="#1a1a1a"/>
      <path id="Trazado_604890" data-name="Trazado 604890" d="M195.843,60.224a2.761,2.761,0,0,1-1.527-.386,1.535,1.535,0,0,1-.662-1.051,2.558,2.558,0,0,1,.624-1.858,7.114,7.114,0,0,0,1.109-1.777,2.492,2.492,0,0,0-.235-2.339c.472-.282,1.375.92.741,2.536a7.439,7.439,0,0,1-1.189,1.92,2.013,2.013,0,0,0-.51,1.441.97.97,0,0,0,.438.682,2.269,2.269,0,0,0,1.22.287c.261.429.14.546-.008.546" transform="translate(27.082 7.381)" fill="#1a1a1a"/>
      <path id="Trazado_604891" data-name="Trazado 604891" d="M119.905,53.379a25.467,25.467,0,0,1-24.68-19.72c3.05,11.059,13.205,19.174,24.68,19.174A24.75,24.75,0,1,0,98.7,15.312,23.538,23.538,0,0,1,119.905,2.787a25.3,25.3,0,0,1,0,50.592" transform="translate(13.318 -9.282)" fill="#1a1a1a"/>
      <path id="Trazado_604892" data-name="Trazado 604892" d="M114.187,38.38a3.217,3.217,0,0,1-2.295-.953l-8.377-8.377a3.244,3.244,0,0,1,0-4.589l1.146-1.146a3.24,3.24,0,0,1,4.59,0l4.939,4.938,13.8-13.389a3.246,3.246,0,0,1,4.588,0l1.148,1.148a3.253,3.253,0,0,1,0,4.589L116.48,37.43a3.228,3.228,0,0,1-2.293.95m-7.231-15.471a2.685,2.685,0,0,0-1.909.791L103.9,24.846a2.7,2.7,0,0,0,0,3.819l8.377,8.378a2.7,2.7,0,0,0,3.82,0l17.246-16.825a2.707,2.707,0,0,0,0-3.816l-1.147-1.148a2.7,2.7,0,0,0-3.82,0l-14,13.58c-.384,0-5.511-5.133-5.511-5.133a2.688,2.688,0,0,0-1.91-.791" transform="translate(14.345 -6.82)" fill="#1a1a1a"/>
      <path id="Trazado_604893" data-name="Trazado 604893" d="M36.422,44c-.277-.255-.562-1.418-.661-3.372.642,1.868.923,3.022.927,3.034-.22.335-.243.337-.266.337m-.358-6.251a9.816,9.816,0,0,1,.124-3.437,8.2,8.2,0,0,1,.148,3.182.273.273,0,0,1-.272.254m1.131-6.167c-.222-.054-.305-.207-.261-.351a29.141,29.141,0,0,1,1.077-2.978,8.144,8.144,0,0,1-.555,3.136.272.272,0,0,1-.261.194m2.445-5.768a7.875,7.875,0,0,1,1.437-3.089,8.017,8.017,0,0,1-1.2,2.95.27.27,0,0,1-.238.139m3.576-5.145A7.38,7.38,0,0,1,45.157,17.9a7.764,7.764,0,0,1-1.734,2.672.272.272,0,0,1-.207.1m4.452-4.415a7.06,7.06,0,0,1,2.314-2.427,7.5,7.5,0,0,1-2.137,2.362.275.275,0,0,1-.177.065m5.066-3.692A6.823,6.823,0,0,1,55.3,10.452a7.241,7.241,0,0,1-2.421,2.065.268.268,0,0,1-.146.043m50.328-.356c-.971-.609-1.863-1.165-2.8-1.7a5.652,5.652,0,0,1,2.955,1.2c.018.457-.067.5-.154.5M58.219,9.518a6.61,6.61,0,0,1,2.761-1.812A7.213,7.213,0,0,1,58.338,9.49a.274.274,0,0,1-.12.027m39.395-.435c-1.045-.474-2.008-.9-2.976-1.28a5.647,5.647,0,0,1,3.094.76c.08.462-.016.52-.117.52M64.019,7.119a6.28,6.28,0,0,1,2.934-1.453A7.265,7.265,0,0,1,64.107,7.1a.233.233,0,0,1-.088.015m27.762-.357c-1.07-.328-2.08-.613-3.087-.859a5.647,5.647,0,0,1,3.17.327c.138.458.032.532-.083.532M70.076,5.491A5.914,5.914,0,0,1,73.143,4.45a7.432,7.432,0,0,1-3.015,1.035.262.262,0,0,1-.051.006m15.609-.214c-1.063-.179-2.1-.316-3.138-.416a5.619,5.619,0,0,1,3.184-.127c.2.448.085.543-.046.543M76.3,4.721a5.693,5.693,0,0,1,3.144-.59,7.372,7.372,0,0,1-3.13.589H76.3" transform="translate(5.002 0.577)" fill="#1a1a1a"/>
      <path id="Trazado_604894" data-name="Trazado 604894" d="M234.27,79.357c-.213-.443.385-1.253,1.214-2.691a6.969,6.969,0,0,1-1,2.582.272.272,0,0,1-.219.109m2.913-5.064a14.053,14.053,0,0,1,1-3.253,5.616,5.616,0,0,1-.751,3.1.273.273,0,0,1-.246.155m2.287-5.845c-.223-.057-.3-.209-.26-.353.309-1,.581-2.011.808-3.012a5.538,5.538,0,0,1-.287,3.173.272.272,0,0,1-.261.191m1.393-6.118a20.644,20.644,0,0,1,.049-3.412,5.477,5.477,0,0,1,.22,3.177.272.272,0,0,1-.269.235m.382-6.261a26.638,26.638,0,0,1-.482-3.374,5.5,5.5,0,0,1,.753,3.095c-.269.279-.271.279-.271.279m-.694-6.23c-.474-1.232-.727-2.25-1.017-3.243a5.485,5.485,0,0,1,1.282,2.915c-.231.326-.247.328-.266.328m-52.888-4.982a3.4,3.4,0,0,1-1.945-.638,5.922,5.922,0,0,0,3.031-.129.993.993,0,0,1-1.086.767m51.116-1.036c-.62-1.119-1.04-2.08-1.5-3.029a5.554,5.554,0,0,1,1.755,2.657c-.187.366-.221.372-.254.372m-47.531-1.181a30.308,30.308,0,0,1,1.368-3.065,4.347,4.347,0,0,1-1.156,2.964.274.274,0,0,1-.212.1m-7.3-.806a8.073,8.073,0,0,1-1.168-3.229,15.9,15.9,0,0,1,1.415,2.839c-.168.382-.207.39-.246.39m52.1-3.657c-.743-1.009-1.3-1.894-1.9-2.772a5.7,5.7,0,0,1,2.137,2.363c-.141.4-.189.409-.236.409m-42.218-1.2c-.057-1.315.068-2.347.107-3.4a4.834,4.834,0,0,1,.16,3.178.275.275,0,0,1-.267.218M182.952,35.7a7.04,7.04,0,0,1,.408-3.423,12.419,12.419,0,0,1-.137,3.176.272.272,0,0,1-.271.247M232.5,33c-.869-.921-1.558-1.711-2.261-2.448a5.46,5.46,0,0,1,2.475,2c-.092.425-.154.445-.213.445M194.07,30.728c-.39-1.246-.589-2.271-.855-3.283a5.068,5.068,0,0,1,1.125,2.976c-.247.305-.26.307-.27.307m-9.013-.862a5.4,5.4,0,0,1,1.98-2.758,14.228,14.228,0,0,1-1.759,2.643.268.268,0,0,1-.221.115m43.115-1.4c-.965-.75-1.788-1.4-2.629-1.983a5.321,5.321,0,0,1,2.809,1.5c-.029.447-.1.48-.18.48m-38.3-2.524a4.9,4.9,0,0,1,2.269-1.645,26.12,26.12,0,0,0-1.265-2.591,4.659,4.659,0,0,1,1.767,2.378A7.761,7.761,0,0,1,190,25.919a.265.265,0,0,1-.124.028m33.169-1.071c-1.032-.532-1.972-.987-2.932-1.385a5.277,5.277,0,0,1,3.063.873c.058.461-.035.512-.131.512m-27.389-1.369a6.191,6.191,0,0,1,2.935-1.449,7.337,7.337,0,0,1-2.846,1.433.271.271,0,0,1-.089.016m21.6-1.036c-1.054-.3-2.072-.537-3.1-.722a5.335,5.335,0,0,1,3.177.186c.153.458.043.536-.075.536M201.715,21.9a5.823,5.823,0,0,1,3.076-1,7.5,7.5,0,0,1-3.026.991.373.373,0,0,1-.05,0m9.375-.548c-1.043-.081-2.1-.109-3.132-.093a5.451,5.451,0,0,1,3.153-.451c.241.435.121.545-.021.545M189.432,19.2c-.814-.943-1.466-1.76-2.159-2.544a5.375,5.375,0,0,1,2.381,2.113c-.111.415-.166.431-.222.431m-4.151-4.7c-.929-.767-1.727-1.445-2.556-2.089a5.479,5.479,0,0,1,2.74,1.616c-.039.443-.113.473-.185.473m-4.942-3.857c-1-.6-1.9-1.142-2.819-1.654a5.659,5.659,0,0,1,2.968,1.152c.026.458-.062.5-.149.5M141.75,7.744c-.122-.522.836-1.219,2.624-2.056-1.506,1.306-2.453,2-2.462,2a.285.285,0,0,1-.162.052m33.1-.138c-1.063-.473-2.029-.889-2.982-1.266a5.661,5.661,0,0,1,3.1.745c.083.462-.015.521-.116.521m-5.838-2.3c-1.082-.328-2.093-.608-3.088-.845a5.559,5.559,0,0,1,3.17.312c.141.459.033.532-.082.532m-21.609-.259a5.762,5.762,0,0,1,2.965-1.376,8.088,8.088,0,0,1-2.877,1.362.305.305,0,0,1-.088.014m15.506-1.18c-1.074-.162-2.116-.276-3.137-.344a5.451,5.451,0,0,1,3.177-.2c.21.445.092.541-.04.541m-9.387-.185a5.531,5.531,0,0,1,3.124-.771,7.874,7.874,0,0,1-3.091.768l-.033,0" transform="translate(19.824 0.407)" fill="#1a1a1a"/>
      <path id="Trazado_604895" data-name="Trazado 604895" d="M201.391,45.463c-.214-.049-.3-.2-.264-.342a2.216,2.216,0,0,0-.983-2.093c1.855.867,1.524,2.178,1.51,2.232a.272.272,0,0,1-.263.2" transform="translate(27.992 6.018)" fill="#1a1a1a"/>
      <path id="Trazado_604896" data-name="Trazado 604896" d="M201.843,45.591a2.086,2.086,0,0,1,.334-2.07c0,.919-.062,1.807-.062,1.815a.272.272,0,0,1-.272.255" transform="translate(28.208 6.087)" fill="#1a1a1a"/>
      <path id="Trazado_604897" data-name="Trazado 604897" d="M216.946,125.173c-.107-.022-24.325-10.414-24.325-10.414-.144-.358,3.412-8.644,3.412-8.644.5.214-2.947,8.249-2.947,8.249L216.8,124.543l.22-.507c.5.217.173.973.173.973a.272.272,0,0,1-.25.164" transform="translate(26.94 14.841)" fill="#1a1a1a"/>
      <path id="Trazado_604898" data-name="Trazado 604898" d="M223.834,110.155c-.248-.381,6.745-16.684,6.745-16.684L206.862,83.293l-7.392,17.224c-.5-.215,7-17.689,7-17.689.357-.144,24.575,10.248,24.575,10.248.142.359-6.961,16.913-6.961,16.913a.272.272,0,0,1-.25.165" transform="translate(27.895 11.584)" fill="#1a1a1a"/>
      <path id="Trazado_604899" data-name="Trazado 604899" d="M222.838,135.818c.009-4.153-.271-10.242-.272-10.3.548.038.828,6.158.544,10.05a.272.272,0,0,1-.271.253" transform="translate(31.128 17.555)" fill="#1a1a1a"/>
      <path id="Trazado_604900" data-name="Trazado 604900" d="M128.42,124.512h-8.984c-.262-.2-3.538-12-3.538-12,.263-.345,12.879-.345,12.879-.345.263.2,2.537,8.388,2.537,8.388-.525.146-2.744-7.842-2.744-7.842H116.519l3.123,11.254h8.777c.271.423.15.546,0,.546" transform="translate(16.209 15.688)" fill="#1a1a1a"/>
      <path id="Trazado_604901" data-name="Trazado 604901" d="M24.342,98.743v9.029s-5.738.067-9.553-3.1V95.32s2.731,2.666,9.553,3.423" transform="translate(2.068 13.332)" fill="#1a1a1a"/>
      <path id="Trazado_604902" data-name="Trazado 604902" d="M84.59,96.245a65.522,65.522,0,0,1,5-4.654,19.158,19.158,0,0,1-4.839,4.6.277.277,0,0,1-.162.052" transform="translate(11.831 12.81)" fill="#1a1a1a"/>
      <path id="Trazado_604903" data-name="Trazado 604903" d="M153.761,117.483c-1.131-3.829-4.785-6.259-9.364-6.259-4.1,0-7.792,2.332-8.979,5.671.768-3.791,4.583-6.217,8.979-6.217,4.835,0,8.705,2.6,9.628,6.468-.221.334-.244.337-.264.337" transform="translate(18.94 15.479)" fill="#1a1a1a"/>
    </g>
  </g>
</svg>
