<svg xmlns="http://www.w3.org/2000/svg" xmlns:xlink="http://www.w3.org/1999/xlink" width="85" height="85" viewBox="0 0 85 85">
  <defs>
    <clipPath id="clip-path">
      <rect id="Rectángulo_345324" data-name="Rectángulo 345324" width="60.522" height="60.57" fill="none"/>
    </clipPath>
  </defs>
  <g id="Grupo_1015214" data-name="Grupo 1015214" transform="translate(-758 -13925)">
    <g id="Grupo_1013474" data-name="Grupo 1013474" transform="translate(0 6563)">
      <circle id="Elipse_4846" data-name="Elipse 4846" cx="42.5" cy="42.5" r="42.5" transform="translate(758 7362)" fill="#a3bfe4"/>
    </g>
    <g id="Grupo_1014674" data-name="Grupo 1014674" transform="translate(770.07 13937.07)">
      <g id="Grupo_1014673" data-name="Grupo 1014673" clip-path="url(#clip-path)">
        <path id="Trazado_601577" data-name="Trazado 601577" d="M62.553,33.193A29.654,29.654,0,1,0,32.9,62.847,29.654,29.654,0,0,0,62.553,33.193" transform="translate(-2.699 -2.944)" fill="#fff"/>
        <path id="Trazado_601578" data-name="Trazado 601578" d="M32.083,30.672c1.018,1.017,1.986,1.94,2.893,2.921a1.488,1.488,0,0,1,.393,1.044.993.993,0,0,1-1.745.457c-1.16-1.126-2.28-2.292-3.447-3.41a1.373,1.373,0,0,0-.861-.354Q16.027,31.3,2.738,31.315H2.144A24.658,24.658,0,0,0,3,37.438a27.745,27.745,0,0,0,3.769,8.45c.035.052.072.1.1.157A1.062,1.062,0,0,1,6.675,47.6a.982.982,0,0,1-1.489-.421c-.942-1.654-1.951-3.284-2.724-5.016A28.712,28.712,0,0,1,.067,28.424,30.007,30.007,0,0,1,21.045,1.512c9.706-3.024,18.811-1.493,27.1,4.424A46.438,46.438,0,0,1,52.51,9.819a1,1,0,0,1,.116,1.553,1.044,1.044,0,0,1-1.595-.159A28.276,28.276,0,0,0,39.81,3.79a26.925,26.925,0,0,0-8.5-1.628v26.6c.6-.246,1.191-.454,1.744-.733.139-.07.223-.365.229-.56a26.024,26.024,0,0,1,.066-2.954,4.955,4.955,0,0,1,3.181-3.965c-.1-.154-.2-.3-.3-.448a4.917,4.917,0,0,1-.925-2.883c.011-1.385,0-2.771,0-4.156a5.037,5.037,0,0,1,10.072.016c.007.945-.03,1.891.009,2.834.069,1.67-.044,3.281-1.159,4.492l2.518,2.031,9.208-3.776c-.413-.8-.792-1.579-1.214-2.335-.347-.621-.747-1.213-1.119-1.821a1.053,1.053,0,0,1,.215-1.545,1.033,1.033,0,0,1,1.5.434,29.256,29.256,0,0,1,4.648,11.3A29.639,29.639,0,0,1,54.3,48.669a28.92,28.92,0,0,1-17.668,11.2,29.676,29.676,0,0,1-25.553-6.194,40.221,40.221,0,0,1-3.021-2.848c-.572-.563-.593-1.152-.13-1.6a1.057,1.057,0,0,1,1.594.189,28.465,28.465,0,0,0,5.281,4.452c.083.054.171.1.35.2v-.746q0-4.5,0-9.005a9.065,9.065,0,0,1,18.015-1.375,9.69,9.69,0,0,1,.116,1.438q.013,6.581.005,13.162v.79a28.25,28.25,0,0,0,16.253-7.468,5.6,5.6,0,0,1-.607-.454q-6-5.982-11.985-11.974c-.119-.119-.242-.234-.355-.357a1.023,1.023,0,1,1,1.454-1.429c1.4,1.386,2.794,2.787,4.19,4.182.089.089.182.173.218.208L44.9,39.461a1.955,1.955,0,0,0-1.515-1.094,3.012,3.012,0,0,1-2.789-4.246.99.99,0,0,0-.023-.633A3.064,3.064,0,0,1,42.1,29.555a1.218,1.218,0,0,0,.509-.487,3.081,3.081,0,0,1,3.8-1.632,1.456,1.456,0,0,0,.776.026,4.205,4.205,0,0,1,3.755.687,1.139,1.139,0,0,0,.774.175,4.1,4.1,0,0,1,4.136,1.814,4.059,4.059,0,0,1-.063,4.45,4.932,4.932,0,0,0-.538,1.044,3.5,3.5,0,0,1-1.869,2.188,2.2,2.2,0,0,0-1.487,1.759,5.219,5.219,0,0,1,3.43,3.5c3.452-4.815,4.163-16.5,1.367-22.5l-24.6,10.094M29.233,2.191C14.275,2.543,2.358,15.206,2.168,29.264h9.978a5.235,5.235,0,0,1,3.236-5.709,5.055,5.055,0,0,1-1.231-3.305.974.974,0,0,1,1.026-1.024c.6.011.921.374.992,1.13a3.073,3.073,0,0,0,2.945,2.895,2.954,2.954,0,0,0,3.033-2.629,30.33,30.33,0,0,0,.025-3.413h-.722c-2.057,0-4.115,0-6.172,0a.985.985,0,0,1-1.126-1.112q-.012-1.889,0-3.779c0-.8.353-1.146,1.152-1.149q1.984-.009,3.968,0a5.008,5.008,0,0,1,4.952,4.925c.011,1.385,0,2.771,0,4.156A4.926,4.926,0,0,1,23.3,23.13c-.1.145-.195.293-.3.452a5.276,5.276,0,0,1,2.635,2.3,6.406,6.406,0,0,1,.618,3.385h2.979Zm2.023,56.357c0-1.223.086-2.337-.017-3.432a4.776,4.776,0,0,0-4.292-4.539,27,27,0,0,0-5.149-.06,4.894,4.894,0,0,0-4.534,4.254.626.626,0,0,0,.42.76,28.277,28.277,0,0,0,9.9,2.844c1.2.122,2.415.118,3.673.173m.016-8.214c0-2.008.018-4.043-.012-6.077a7.262,7.262,0,0,0-.249-1.672,7.074,7.074,0,0,0-7.081-5.208,6.908,6.908,0,0,0-6.62,6.033c-.2,2.164-.1,4.356-.137,6.535,0,.154.024.308.038.475.52-.367.976-.739,1.479-1.028s1.076-.509,1.62-.76c-1.029-1.6-1.13-1.981-1.122-4.167a4.006,4.006,0,0,1,3.287-4.025,1.524,1.524,0,0,1,1.486.248A6.085,6.085,0,0,0,28.284,42.4a.881.881,0,0,1,.961.881c.034,1.856.276,3.768-1.089,5.254l3.115,1.794m19.734-.863c.769-.982,1.559-1.981,2.331-2.993a.851.851,0,0,0,.108-.47c.012-.524.018-1.049,0-1.573A3.039,3.039,0,0,0,50.394,41.4q-1.982-.039-3.965,0a2.887,2.887,0,0,0-2.347,1.132l6.924,6.939m1.436-13.562.252.112c.226-.438.454-.875.677-1.314a5.15,5.15,0,0,1,.5-.979,1.988,1.988,0,0,0,.172-2.593,1.966,1.966,0,0,0-2.467-.594,1.079,1.079,0,0,1-1.536-.371,1.97,1.97,0,0,0-2.632-.558,1.241,1.241,0,0,1-1.4-.059.962.962,0,0,0-1.595.669A1.125,1.125,0,0,1,43.3,31.339a.962.962,0,0,0-.722,1.542c.632.962.635.964,0,1.9a.8.8,0,0,0,0,1.093,2.232,2.232,0,0,0,1.025.413,2.363,2.363,0,0,0,.76-.1c.007-.144.017-.287.019-.43.015-1.075.118-1.168,1.138-1.449a1.538,1.538,0,0,0,.767-.579,1.178,1.178,0,0,1,1.3-.526,1.179,1.179,0,0,0,.776-.153,1.064,1.064,0,0,1,1.335-.036,1.26,1.26,0,0,0,1.295.154c.853-.312,1.44.132,1.451,1.051.007.565,0,1.13,0,1.694M24.169,29.27c.313-2.512-.984-4-3.447-4q-1.573,0-3.146,0c-2.395,0-3.717,1.563-3.363,4ZM37.336,14.213c0,1.094-.055,2.142.013,3.182a3.016,3.016,0,0,0,2.859,2.83A2.9,2.9,0,0,0,43.27,17.73a27.626,27.626,0,0,0,.029-3.518ZM27.223,44.439a2.3,2.3,0,0,0-.355-.112,8.134,8.134,0,0,1-3.756-1.635.814.814,0,0,0-.77-.032,3.228,3.228,0,0,0-.993,1.207,4.217,4.217,0,0,0-.123,1.734,2.892,2.892,0,0,0,2.054,2.666,2.852,2.852,0,0,0,3.152-.818,3.6,3.6,0,0,0,.791-3.01m8.052-17.291,9.331-3.828a2.8,2.8,0,0,0-2.2-1.06q-2.045-.054-4.092,0a2.916,2.916,0,0,0-2.907,2.47,20.438,20.438,0,0,0-.13,2.423M50.422,35.39a5.525,5.525,0,0,0-1.462-.243,3.969,3.969,0,0,0-2.3.948.8.8,0,0,0-.248.436,4.409,4.409,0,0,0,0,.879,2.007,2.007,0,0,0,4.012.023c.041-.666.008-1.337.008-2.042M16.191,15.158h5.8a2.652,2.652,0,0,0-2.1-1.84c-1.211-.162-2.447-.135-3.7-.192Zm21.415-3.023h5.487a2.9,2.9,0,0,0-5.487,0" transform="translate(0 0)" fill="#161615"/>
      </g>
    </g>
  </g>
</svg>
