<svg xmlns="http://www.w3.org/2000/svg" xmlns:xlink="http://www.w3.org/1999/xlink" width="85" height="85" viewBox="0 0 85 85">
  <defs>
    <clipPath id="clip-path">
      <rect id="Rectángulo_345223" data-name="Rectángulo 345223" width="55.781" height="55.818" fill="none"/>
    </clipPath>
  </defs>
  <g id="Grupo_1015228" data-name="Grupo 1015228" transform="translate(-758 -8378)">
    <g id="Grupo_1013452" data-name="Grupo 1013452" transform="translate(0 1016)">
      <circle id="Elipse_4846" data-name="Elipse 4846" cx="42.5" cy="42.5" r="42.5" transform="translate(758 7362)" fill="#a3bfe4"/>
    </g>
    <g id="Grupo_1014555" data-name="Grupo 1014555" transform="translate(773 8391.263)">
      <g id="Grupo_1014554" data-name="Grupo 1014554" clip-path="url(#clip-path)">
        <path id="Trazado_601173" data-name="Trazado 601173" d="M98.7,0a15.3,15.3,0,0,1,15.055,12.95,14.838,14.838,0,0,1-2.43,10.9.668.668,0,0,0-.04.836c.853,1.451,1.67,2.923,2.515,4.379.265.457.417.9,0,1.329-.44.444-.9.29-1.377.014-1.456-.844-2.929-1.661-4.381-2.512a.631.631,0,0,0-.794.035,14.343,14.343,0,0,1-5.706,2.355.649.649,0,0,0-.579.563c-.412,1.571-.848,3.136-1.276,4.7-.034.126-.072.251-.107.377a.915.915,0,0,1-1.8,0c-.408-1.494-.87-2.976-1.211-4.486a1.411,1.411,0,0,0-1.3-1.283,13.116,13.116,0,0,1-5.159-2.23.626.626,0,0,0-.793-.027c-1.47.858-2.958,1.684-4.432,2.535-.464.268-.912.379-1.329-.042a.956.956,0,0,1-.033-1.281c.861-1.49,1.7-2.992,2.569-4.477a.592.592,0,0,0-.034-.739A15.263,15.263,0,0,1,94.707.555,12.979,12.979,0,0,1,96.46.186C97.2.088,97.95.059,98.7,0m11.821,27.217.07-.076c-.411-.726-.792-1.472-1.243-2.172a1.251,1.251,0,0,1,.091-1.625,13.091,13.091,0,0,0,2.527-10A13.44,13.44,0,1,0,87.921,23.364a1.224,1.224,0,0,1,.094,1.577c-.454.716-.845,1.473-1.264,2.212a11.348,11.348,0,0,0,2.05-1.069,1.5,1.5,0,0,1,2.015.1,12.568,12.568,0,0,0,5.849,2.41c.911.14,1.067.249,1.306,1.122q.32,1.168.636,2.337a15.341,15.341,0,0,0,.819-2.512,1.1,1.1,0,0,1,1.043-.928,12.934,12.934,0,0,0,6.3-2.595,1.172,1.172,0,0,1,1.487-.093c.738.453,1.5.864,2.255,1.293" transform="translate(-70.781)" fill="#161615"/>
        <path id="Trazado_601174" data-name="Trazado 601174" d="M130.1,262.39a5.159,5.159,0,1,1,6.843-.089,31.953,31.953,0,0,1,2.735,1.892,8.887,8.887,0,0,1,2.979,5.45c.179,1.033-.242,1.452-1.2,1.447q-7.954-.041-15.909,0c-1.169.007-1.446-.524-1.265-1.49a9.229,9.229,0,0,1,5.432-7.027l.389-.184m-3.812,6.865h14.352a7.387,7.387,0,0,0-14.352,0m7.176-7.49a3.285,3.285,0,0,0,3.316-3.308,3.317,3.317,0,1,0-6.634,0,3.287,3.287,0,0,0,3.318,3.307" transform="translate(-105.575 -215.273)" fill="#161615"/>
        <path id="Trazado_601175" data-name="Trazado 601175" d="M12.6,262.419a9.356,9.356,0,0,1,4.868,4.362,8.323,8.323,0,0,1,.984,3.25.872.872,0,0,1-.976,1.065q-8.236.006-16.471,0c-.761,0-1.111-.446-.98-1.277a9.175,9.175,0,0,1,4.344-6.631c.457-.287.953-.509,1.487-.79a5.2,5.2,0,0,1-1.674-4.9,4.991,4.991,0,0,1,1.95-3.117,5.161,5.161,0,0,1,6.468,8.037m3.815,6.864a7.3,7.3,0,0,0-7.253-5.641,7.286,7.286,0,0,0-7.1,5.641Zm-7.19-7.5a3.317,3.317,0,0,0,3.344-3.295,3.379,3.379,0,0,0-3.319-3.347,3.329,3.329,0,0,0-3.319,3.323,3.264,3.264,0,0,0,3.294,3.319" transform="translate(0 -215.295)" fill="#161615"/>
        <path id="Trazado_601176" data-name="Trazado 601176" d="M261.1,262.394a9.5,9.5,0,0,1,4.158,3.213,9.332,9.332,0,0,1,1.688,4.169c.137.9-.217,1.3-1.131,1.3H249.68c-.946,0-1.281-.325-1.139-1.274a9.1,9.1,0,0,1,5.256-7.145c.183-.091.37-.172.565-.262a5.194,5.194,0,0,1-.14-7.7,5.136,5.136,0,0,1,7.151.125,5.191,5.191,0,0,1-.274,7.575m3.835,6.863c-.645-3.482-4.223-5.946-8.066-5.6-2.971.264-6.291,3.218-6.28,5.6Zm-3.894-10.818a3.33,3.33,0,0,0-3.321-3.321,3.375,3.375,0,0,0-3.317,3.349,3.319,3.319,0,0,0,3.345,3.293,3.266,3.266,0,0,0,3.293-3.321" transform="translate(-211.193 -215.268)" fill="#161615"/>
        <path id="Trazado_601177" data-name="Trazado 601177" d="M121.463,37.578c-.753-.429-1.517-.839-2.256-1.293a1.173,1.173,0,0,0-1.487.093,12.932,12.932,0,0,1-6.3,2.595,1.1,1.1,0,0,0-1.043.928,15.356,15.356,0,0,1-.819,2.512q-.318-1.169-.636-2.337c-.24-.874-.4-.983-1.306-1.122a12.567,12.567,0,0,1-5.849-2.41,1.5,1.5,0,0,0-2.015-.1,11.363,11.363,0,0,1-2.05,1.069c.418-.739.809-1.5,1.264-2.212a1.224,1.224,0,0,0-.094-1.577A13.44,13.44,0,1,1,122.908,23.7a13.092,13.092,0,0,1-2.527,10,1.251,1.251,0,0,0-.091,1.625c.451.7.832,1.446,1.243,2.172l-.07.076M117.127,28.8a2.783,2.783,0,0,0,1.559-3.079,4.3,4.3,0,0,1,.534-3,2.606,2.606,0,0,0-.606-3.5,4.572,4.572,0,0,1-1.579-2.731,2.653,2.653,0,0,0-2.73-2.266,4.222,4.222,0,0,1-2.735-.927,2.7,2.7,0,0,0-3.908,0,4.14,4.14,0,0,1-2.566.923,2.744,2.744,0,0,0-2.961,2.488,4.068,4.068,0,0,1-1.394,2.4,2.694,2.694,0,0,0-.647,3.764,4.024,4.024,0,0,1,.458,2.791,2.787,2.787,0,0,0,1.72,3.186,2.924,2.924,0,0,1,.276.172c-.738,1.588-1.455,3.149-2.189,4.7a.974.974,0,0,0,1.154,1.489c.733-.127,1.465-.261,2.218-.4.4.682.744,1.37,1.185,1.991a1.591,1.591,0,0,0,.9.631c.435.076.715-.295.9-.7.676-1.478,1.387-2.94,2.045-4.426.184-.416.441-.69.867-.609.5.094,1.1,0,1.37.654.462,1.122.961,2.229,1.437,3.345.17.4.391.734.866.775a1.022,1.022,0,0,0,.98-.623c.4-.651.806-1.3,1.211-1.948.763.153,1.5.28,2.222.451a1.024,1.024,0,0,0,1.166-.3,1.05,1.05,0,0,0,.012-1.162c-.59-1.35-1.168-2.706-1.767-4.1" transform="translate(-81.728 -10.361)" fill="#fff"/>
        <path id="Trazado_601178" data-name="Trazado 601178" d="M137.945,327.592a7.387,7.387,0,0,1,14.352,0Z" transform="translate(-117.23 -273.611)" fill="#fff"/>
        <path id="Trazado_601179" data-name="Trazado 601179" d="M166.957,272.015a3.287,3.287,0,0,1-3.318-3.307,3.317,3.317,0,1,1,6.634,0,3.285,3.285,0,0,1-3.316,3.308" transform="translate(-139.066 -225.523)" fill="#fff"/>
        <path id="Trazado_601180" data-name="Trazado 601180" d="M28.1,327.6H13.745a7.385,7.385,0,0,1,14.353,0" transform="translate(-11.681 -273.609)" fill="#fff"/>
        <path id="Trazado_601181" data-name="Trazado 601181" d="M42.8,272.015a3.264,3.264,0,0,1-3.294-3.319,3.329,3.329,0,0,1,3.319-3.323,3.379,3.379,0,0,1,3.319,3.347,3.317,3.317,0,0,1-3.344,3.295" transform="translate(-33.575 -225.523)" fill="#fff"/>
        <path id="Trazado_601182" data-name="Trazado 601182" d="M276.7,327.635H262.351c-.011-2.386,3.309-5.339,6.28-5.6,3.843-.342,7.421,2.121,8.066,5.6" transform="translate(-222.955 -273.646)" fill="#fff"/>
        <path id="Trazado_601183" data-name="Trazado 601183" d="M294.391,268.694a3.266,3.266,0,0,1-3.293,3.321,3.319,3.319,0,0,1-3.345-3.293,3.375,3.375,0,0,1,3.317-3.349,3.33,3.33,0,0,1,3.321,3.321" transform="translate(-244.542 -225.522)" fill="#fff"/>
        <path id="Trazado_601184" data-name="Trazado 601184" d="M136.558,30.328c.6,1.393,1.177,2.748,1.767,4.1a1.05,1.05,0,0,1-.012,1.162,1.024,1.024,0,0,1-1.166.3c-.724-.171-1.459-.3-2.222-.451-.405.651-.813,1.3-1.211,1.948a1.022,1.022,0,0,1-.98.623c-.475-.041-.7-.376-.866-.775-.476-1.116-.975-2.223-1.437-3.345-.267-.65-.873-.56-1.37-.654-.425-.08-.682.194-.867.609-.658,1.485-1.369,2.948-2.045,4.425-.186.408-.466.778-.9.7a1.591,1.591,0,0,1-.9-.63c-.441-.621-.787-1.309-1.185-1.991-.753.134-1.485.268-2.218.4a.974.974,0,0,1-1.154-1.489c.734-1.553,1.451-3.113,2.189-4.7a2.927,2.927,0,0,0-.276-.172,2.787,2.787,0,0,1-1.72-3.186,4.024,4.024,0,0,0-.458-2.791,2.694,2.694,0,0,1,.647-3.764,4.068,4.068,0,0,0,1.394-2.4,2.744,2.744,0,0,1,2.961-2.487,4.14,4.14,0,0,0,2.566-.923,2.7,2.7,0,0,1,3.908,0,4.222,4.222,0,0,0,2.735.927,2.653,2.653,0,0,1,2.73,2.266,4.572,4.572,0,0,0,1.579,2.731,2.606,2.606,0,0,1,.606,3.5,4.3,4.3,0,0,0-.534,3,2.784,2.784,0,0,1-1.559,3.079m-14.791-2.667a1.05,1.05,0,0,0,.824,1.118,4.952,4.952,0,0,1,2.926,2.375c.493.883.789.981,1.755.622a4.893,4.893,0,0,1,3.5-.026c1.075.386,1.292.307,1.873-.685a4.568,4.568,0,0,1,2.6-2.175,3.329,3.329,0,0,0,.513-.224.955.955,0,0,0,.563-1.112,5.131,5.131,0,0,1,.657-4.032,1,1,0,0,0-.272-1.529,5.211,5.211,0,0,1-1.966-3.4c-.117-.795-.475-1.047-1.281-1.032a4.915,4.915,0,0,1-3.413-1.173c-.886-.748-1.118-.742-1.994,0a4.857,4.857,0,0,1-3.355,1.175c-.9-.015-1.22.229-1.367,1.138a4.968,4.968,0,0,1-1.772,3.144c-.815.685-.851.967-.345,1.884a4.378,4.378,0,0,1,.64,3.216,6.31,6.31,0,0,0-.086.723m4.464,6.1c-1.375-.159-2.009-1.165-2.676-2.257l-1.4,3.014a4.6,4.6,0,0,1,1.838.053c.5.244.791.92,1.194,1.433l1.049-2.242m8.65-2.7c-.8,1.021-1.221,2.258-2.555,2.6l.592,1.36c.428-.512.739-1.189,1.248-1.408s1.2.033,1.853.081l-1.138-2.639" transform="translate(-101.159 -11.892)" fill="#161615"/>
        <path id="Trazado_601185" data-name="Trazado 601185" d="M132.219,38.028a6.241,6.241,0,0,1,.087-.723,4.379,4.379,0,0,0-.64-3.216c-.506-.916-.47-1.2.345-1.884a4.968,4.968,0,0,0,1.772-3.144c.147-.908.465-1.153,1.367-1.137a4.857,4.857,0,0,0,3.355-1.175c.876-.74,1.108-.745,1.994,0a4.916,4.916,0,0,0,3.413,1.173c.807-.015,1.165.237,1.281,1.032a5.21,5.21,0,0,0,1.966,3.4,1,1,0,0,1,.271,1.529,5.132,5.132,0,0,0-.657,4.032.955.955,0,0,1-.564,1.112,3.322,3.322,0,0,1-.513.224,4.569,4.569,0,0,0-2.6,2.175c-.58.992-.8,1.071-1.873.685a4.892,4.892,0,0,0-3.5.025c-.967.359-1.262.262-1.755-.622a4.953,4.953,0,0,0-2.926-2.375,1.049,1.049,0,0,1-.824-1.118m7.263,2.5a6.248,6.248,0,1,0-6.259-6.253,6.276,6.276,0,0,0,6.259,6.253" transform="translate(-111.61 -22.259)" fill="#fff"/>
        <path id="Trazado_601186" data-name="Trazado 601186" d="M143.867,132.872l-1.049,2.243c-.4-.513-.693-1.189-1.194-1.433a4.6,4.6,0,0,0-1.838-.053l1.4-3.014c.668,1.092,1.3,2.1,2.676,2.257" transform="translate(-118.795 -111.001)" fill="#fff"/>
        <path id="Trazado_601187" data-name="Trazado 601187" d="M210.105,127.668l1.138,2.639c-.65-.048-1.351-.3-1.853-.081s-.82.9-1.248,1.408l-.592-1.36c1.334-.347,1.755-1.583,2.555-2.6" transform="translate(-176.383 -108.497)" fill="#fff"/>
        <path id="Trazado_601188" data-name="Trazado 601188" d="M150.18,50.93a6.248,6.248,0,1,1,6.3-6.216,6.273,6.273,0,0,1-6.3,6.216m-4.4-6.255a4.423,4.423,0,1,0,4.415-4.439,4.422,4.422,0,0,0-4.415,4.439" transform="translate(-122.309 -32.663)" fill="#161615"/>
        <path id="Trazado_601189" data-name="Trazado 601189" d="M156.276,54.87a4.422,4.422,0,1,1,4.4,4.446,4.432,4.432,0,0,1-4.4-4.446m3.366.4c-.3-.324-.518-.6-.777-.845a.917.917,0,0,0-1.349,0,.9.9,0,0,0,.083,1.306c.414.433.841.853,1.27,1.272a.947.947,0,0,0,1.556.031c.67-.6,1.33-1.209,1.994-1.814.484-.441.984-.868,1.445-1.332a.876.876,0,0,0,.029-1.22.867.867,0,0,0-1.21-.123,5.6,5.6,0,0,0-.512.437c-.817.739-1.632,1.479-2.529,2.293" transform="translate(-132.809 -42.858)" fill="#fff"/>
        <path id="Trazado_601190" data-name="Trazado 601190" d="M165.293,66.11c.9-.814,1.712-1.554,2.529-2.293a5.605,5.605,0,0,1,.512-.437.867.867,0,0,1,1.21.123.876.876,0,0,1-.029,1.22c-.461.464-.961.891-1.445,1.332-.664.606-1.324,1.216-1.994,1.814a.947.947,0,0,1-1.556-.031c-.428-.419-.856-.839-1.27-1.272a.9.9,0,0,1-.083-1.306.917.917,0,0,1,1.349,0c.259.241.482.521.777.845" transform="translate(-138.46 -53.702)" fill="#161615"/>
      </g>
    </g>
  </g>
</svg>
