<svg xmlns="http://www.w3.org/2000/svg" xmlns:xlink="http://www.w3.org/1999/xlink" width="85" height="85" viewBox="0 0 85 85">
  <defs>
    <clipPath id="clip-path">
      <rect id="Rectángulo_45738" data-name="Rectángulo 45738" width="63.487" height="53.483" fill="none"/>
    </clipPath>
  </defs>
  <g id="Grupo_1015235" data-name="Grupo 1015235" transform="translate(-1101 -4009)">
    <circle id="Elipse_4844" data-name="Elipse 4844" cx="42.5" cy="42.5" r="42.5" transform="translate(1101 4009)" fill="#a3bfe4"/>
    <g id="Grupo_1013418" data-name="Grupo 1013418" transform="translate(1112 4030)">
      <g id="Grupo_1013417" data-name="Grupo 1013417" clip-path="url(#clip-path)">
        <path id="Trazado_600973" data-name="Trazado 600973" d="M63.487,30.839a5.834,5.834,0,0,1-.944.932c-1.544.956-3.116,1.865-4.681,2.786-.864.508-1.325.43-2.051-.376l-3.66,1.806c.884,3.283-1.15,5.454-3.747,5.691-.8,3.047-1.771,3.874-4.73,4.039a4.24,4.24,0,0,1-5.661,3.138,4.155,4.155,0,0,1-7.052,1.482c-.639.659-1.246,1.325-1.895,1.947a4.063,4.063,0,0,1-6.291-.639,13.046,13.046,0,0,1-.891-2.188,4.153,4.153,0,0,1-3.9-3.986,11.677,11.677,0,0,1-1.572-.456A3.881,3.881,0,0,1,14.02,41.79a.482.482,0,0,0-.474-.5,4.05,4.05,0,0,1-3.564-4.777.674.674,0,0,0-.2-.51c-.688-.591-1.4-1.152-2.1-1.718-.955.752-1.216.771-2.223.175-1.527-.9-3.046-1.823-4.585-2.707A1.567,1.567,0,0,1,0,30.25Q.018,15.872,0,1.495A1.333,1.333,0,0,1,.7.151a1.314,1.314,0,0,1,1.532.3Q10.5,7.266,18.778,14.074c.79.651.823.9.358,2.179a7.154,7.154,0,0,0,5.451-.423,8.169,8.169,0,0,1,7.79-.016,1.126,1.126,0,0,0,.833.028,8.326,8.326,0,0,1,7.408.236,5.459,5.459,0,0,0,3.527.628c.155-.027.306-.08.468-.124-.861-1.706-.855-1.718.634-2.943Q53.166,7.123,61.082.6c1.053-.867,1.606-.812,2.4.231ZM29.022,43.675c.258.114.488.2.705.313a4.021,4.021,0,0,1,2.253,3.27A2.631,2.631,0,0,0,33.7,49.2,1.6,1.6,0,0,0,35.641,48a1.668,1.668,0,0,0-.575-1.666c-1.215-1.21-2.434-2.416-3.634-3.642a1.206,1.206,0,0,1-.048-1.773,1.119,1.119,0,0,1,1.736.065c1.025.99,2.041,1.991,3.059,2.989.753.737,1.482,1.5,2.261,2.209a1.611,1.611,0,0,0,2.694-.795,1.763,1.763,0,0,0-.623-1.717q-3.339-3.323-6.664-6.66a4.036,4.036,0,0,1-.459-.5,1.207,1.207,0,0,1,.114-1.538,1.176,1.176,0,0,1,1.524-.208,3.378,3.378,0,0,1,.559.485q3.6,3.591,7.19,7.186a4.338,4.338,0,0,0,.5.46,1.6,1.6,0,0,0,2.513-.9,1.734,1.734,0,0,0-.627-1.765q-4.3-4.289-8.592-8.589a5.117,5.117,0,0,1-.428-.447,1.212,1.212,0,0,1,.107-1.681,1.236,1.236,0,0,1,1.639-.036,5.89,5.89,0,0,1,.448.427c2.849,2.849,5.69,5.706,8.558,8.536a2.726,2.726,0,0,0,1.2.687,1.489,1.489,0,0,0,1.632-.858,1.652,1.652,0,0,0-.407-1.975Q43.91,30.868,38.5,25.449a.68.68,0,0,0-.864-.135c-2.611.967-5.217,1.947-7.844,2.87a4.6,4.6,0,0,1-3.787-8.362c.858-.5,1.733-.96,2.6-1.44.439-.243.876-.491,1.335-.749-.091-.081-.116-.118-.151-.133a.932.932,0,0,0-.178-.048,6.166,6.166,0,0,0-3.854.531,15.734,15.734,0,0,1-2.6.947,11.016,11.016,0,0,1-4.964-.305.758.758,0,0,0-.939.419q-3.969,6.284-7.965,12.551c-.107.168-.2.344-.312.533l2.41,1.956c1.145-1.266,2.319-2.394,4.167-2.272a4.158,4.158,0,0,1,3.722,2.761A4.16,4.16,0,0,1,25.2,38.2a4.18,4.18,0,0,1,3.821,5.476M6.112,31.96,16.589,15.48,2.487,3.874V23.335c0,2-.008,4.006.011,6.008a.82.82,0,0,0,.256.608c1.081.68,2.188,1.317,3.357,2.009m54.9-28.082-14.1,11.6L57.382,31.958c1.053-.623,2.05-1.242,3.078-1.805a.939.939,0,0,0,.559-.963q-.026-12.274-.012-24.547V3.878m-14.941,14.9a8.494,8.494,0,0,1-6.925-.654,5.121,5.121,0,0,0-4.842-.018c-2.441,1.251-4.827,2.609-7.212,3.964A2.093,2.093,0,0,0,27.78,25.9a3.835,3.835,0,0,0,1.672-.238q4.17-1.472,8.308-3.031a1.486,1.486,0,0,1,1.834.416c.122.14.261.264.393.4Q45.07,28.525,50.159,33.6c.152.152.462.348.591.289,1.251-.576,2.478-1.2,3.754-1.835l-8.437-13.27M22.712,38.517a1.734,1.734,0,0,0-.964-1.7,1.535,1.535,0,0,0-1.825.33q-1.484,1.452-2.937,2.936a1.621,1.621,0,1,0,2.308,2.269c.961-.937,1.922-1.877,2.841-2.856a4.406,4.406,0,0,0,.578-.978M22.3,46.969a2.676,2.676,0,0,0,.836-.406c1.1-1.049,2.191-2.119,3.233-3.23a1.6,1.6,0,0,0-2.223-2.27c-1.144,1.065-2.246,2.18-3.315,3.32a1.4,1.4,0,0,0-.15,1.678,1.717,1.717,0,0,0,1.62.908m7.25.858a1.742,1.742,0,0,0-.961-1.628,1.5,1.5,0,0,0-1.733.233c-.624.572-1.224,1.172-1.806,1.786a1.616,1.616,0,1,0,2.28,2.289,22.33,22.33,0,0,0,1.7-1.717,4.307,4.307,0,0,0,.521-.962M12.4,37.357a1.526,1.526,0,0,0,.844,1.289,1.406,1.406,0,0,0,1.636-.07,14.26,14.26,0,0,0,1.8-1.785,1.409,1.409,0,0,0,.078-1.686,1.525,1.525,0,0,0-1.43-.814c-.993.012-2.924,1.952-2.926,3.066" transform="translate(0 0)"/>
        <path id="Trazado_600974" data-name="Trazado 600974" d="M74.227,131.028a4.18,4.18,0,0,0-3.821-5.476,4.178,4.178,0,0,0-1.995-3.416,4.136,4.136,0,0,0-3.934-.211,4.159,4.159,0,0,0-3.722-2.761c-1.848-.122-3.021,1.006-4.167,2.272l-2.41-1.956c.111-.19.205-.365.312-.533q3.985-6.274,7.965-12.551a.758.758,0,0,1,.939-.419,11.011,11.011,0,0,0,4.964.305,15.734,15.734,0,0,0,2.6-.947,6.165,6.165,0,0,1,3.854-.531.919.919,0,0,1,.178.048c.035.015.061.051.151.133-.46.258-.9.506-1.335.749-.866.48-1.742.945-2.6,1.44A4.6,4.6,0,0,0,75,115.537c2.626-.923,5.233-1.9,7.844-2.87a.68.68,0,0,1,.864.135q5.393,5.433,10.815,10.838a1.652,1.652,0,0,1,.407,1.975,1.489,1.489,0,0,1-1.632.859,2.728,2.728,0,0,1-1.2-.687c-2.868-2.83-5.708-5.688-8.557-8.536a5.893,5.893,0,0,0-.448-.427,1.235,1.235,0,0,0-1.639.036,1.212,1.212,0,0,0-.106,1.681,5.092,5.092,0,0,0,.428.447q4.295,4.3,8.592,8.589a1.734,1.734,0,0,1,.627,1.765,1.6,1.6,0,0,1-2.513.9,4.353,4.353,0,0,1-.5-.46q-3.6-3.593-7.19-7.186a3.366,3.366,0,0,0-.559-.486,1.176,1.176,0,0,0-1.524.208,1.207,1.207,0,0,0-.114,1.538,4.049,4.049,0,0,0,.459.5q3.329,3.333,6.664,6.66a1.763,1.763,0,0,1,.624,1.717,1.611,1.611,0,0,1-2.694.795c-.779-.708-1.508-1.472-2.261-2.209-1.018-1-2.034-2-3.06-2.989a1.118,1.118,0,0,0-1.736-.065,1.206,1.206,0,0,0,.048,1.773c1.2,1.226,2.419,2.432,3.634,3.642a1.669,1.669,0,0,1,.575,1.667,1.6,1.6,0,0,1-1.939,1.2,2.631,2.631,0,0,1-1.721-1.941,4.022,4.022,0,0,0-2.253-3.27c-.217-.112-.447-.2-.705-.313" transform="translate(-45.204 -87.353)" fill="#fff"/>
        <path id="Trazado_600975" data-name="Trazado 600975" d="M18.633,51.475c-1.169-.693-2.277-1.33-3.357-2.009a.821.821,0,0,1-.256-.608c-.019-2-.011-4.005-.011-6.008V23.389L29.11,35,18.633,51.475" transform="translate(-12.521 -19.515)" fill="#fff"/>
        <path id="Trazado_600976" data-name="Trazado 600976" d="M297.3,23.415v.764q0,12.273.012,24.547a.939.939,0,0,1-.559.963c-1.028.563-2.025,1.183-3.078,1.806L283.2,35.02l14.1-11.605" transform="translate(-236.289 -19.537)" fill="#fff"/>
        <path id="Trazado_600977" data-name="Trazado 600977" d="M177.563,107,186,120.267c-1.275.633-2.5,1.259-3.754,1.835-.129.059-.438-.137-.591-.289q-5.1-5.07-10.172-10.158c-.132-.131-.271-.256-.393-.4a1.486,1.486,0,0,0-1.834-.416q-4.14,1.553-8.308,3.031a3.837,3.837,0,0,1-1.672.237,1.922,1.922,0,0,1-1.643-1.7,1.941,1.941,0,0,1,.952-2.123c2.385-1.356,4.771-2.714,7.212-3.964a5.122,5.122,0,0,1,4.843.018,8.492,8.492,0,0,0,6.924.654" transform="translate(-131.496 -88.213)" fill="#fff"/>
        <path id="Trazado_600978" data-name="Trazado 600978" d="M105.616,223.138a4.406,4.406,0,0,1-.578.978c-.918.979-1.879,1.919-2.841,2.856a1.621,1.621,0,1,1-2.308-2.27q1.45-1.486,2.937-2.936a1.535,1.535,0,0,1,1.825-.33,1.733,1.733,0,0,1,.964,1.7" transform="translate(-82.904 -184.621)" fill="#fff"/>
        <path id="Trazado_600979" data-name="Trazado 600979" d="M125.455,252a1.717,1.717,0,0,1-1.62-.908,1.4,1.4,0,0,1,.15-1.678c1.069-1.141,2.171-2.255,3.315-3.32a1.6,1.6,0,0,1,2.223,2.27c-1.042,1.111-2.129,2.181-3.233,3.23a2.68,2.68,0,0,1-.836.406" transform="translate(-103.152 -205.027)" fill="#fff"/>
        <path id="Trazado_600980" data-name="Trazado 600980" d="M153.212,279.687a4.318,4.318,0,0,1-.521.962,22.364,22.364,0,0,1-1.7,1.717,1.616,1.616,0,1,1-2.28-2.289c.582-.614,1.182-1.214,1.806-1.786a1.5,1.5,0,0,1,1.733-.233,1.742,1.742,0,0,1,.961,1.628" transform="translate(-123.66 -231.859)" fill="#fff"/>
        <path id="Trazado_600981" data-name="Trazado 600981" d="M74.886,210.095c0-1.114,1.932-3.055,2.926-3.066a1.525,1.525,0,0,1,1.43.814,1.409,1.409,0,0,1-.078,1.686,14.259,14.259,0,0,1-1.8,1.785,1.406,1.406,0,0,1-1.636.07,1.526,1.526,0,0,1-.844-1.289" transform="translate(-62.482 -172.737)" fill="#fff"/>
      </g>
    </g>
  </g>
</svg>
