<svg xmlns="http://www.w3.org/2000/svg" xmlns:xlink="http://www.w3.org/1999/xlink" width="85" height="85" viewBox="0 0 85 85">
  <defs>
    <clipPath id="clip-path">
      <rect id="Rectángulo_45737" data-name="Rectángulo 45737" width="57.914" height="53.27" fill="none"/>
    </clipPath>
  </defs>
  <g id="Grupo_1015236" data-name="Grupo 1015236" transform="translate(-758 -4009)">
    <circle id="Elipse_4843" data-name="Elipse 4843" cx="42.5" cy="42.5" r="42.5" transform="translate(758 4009)" fill="#a3bfe4"/>
    <g id="Grupo_1013416" data-name="Grupo 1013416" transform="translate(-0.271 -0.479)">
      <g id="Grupo_1013415" data-name="Grupo 1013415" transform="translate(772.271 4023.479)">
        <g id="Grupo_1013414" data-name="Grupo 1013414" clip-path="url(#clip-path)">
          <path id="Trazado_600959" data-name="Trazado 600959" d="M54.775,49.451V92.968l-.708.8h-43A6.987,6.987,0,0,1,5.6,88.729C4.549,84.388,7.809,70.042,7.809,70.042L9.136,49.451l5.218-.8Z" transform="translate(-4.549 -41.064)" fill="#fff"/>
          <path id="Trazado_600960" data-name="Trazado 600960" d="M8.408,6.555H49.975c1.156,0,1.408.25,1.408,1.4,0,2.313,0,4.625,0,6.975H49.531V8.466H8.408v.673q0,16.669,0,33.337c0,1.221-.233,1.413-1.472,1.462a10.441,10.441,0,0,0-2.416.3,3.4,3.4,0,0,0-2.642,3.753A3.478,3.478,0,0,0,4.92,51.268a7.587,7.587,0,0,0,1.391.127q21.31.01,42.62.005h.577V29.941h1.875v.616q0,10.684,0,21.368c0,1.069-.274,1.343-1.345,1.343q-21.806,0-43.613-.024a9.061,9.061,0,0,1-3.123-.56,4.994,4.994,0,0,1-3.292-4.67C0,47.839,0,47.663,0,47.488Q0,27.55,0,7.612a8.121,8.121,0,0,1,1.688-5.28A6.412,6.412,0,0,1,7.565.029C8.105.07,8.4.471,8.4,1.1c.007,1.576,0,3.153,0,4.729v.724M6.522,1.882A4.369,4.369,0,0,0,2.589,4.34a7.012,7.012,0,0,0-.724,3.385q.007,17.564,0,35.129v.678a7.844,7.844,0,0,1,4.654-1.5Z" transform="translate(0 0)"/>
          <path id="Trazado_600961" data-name="Trazado 600961" d="M89.045,126.865V128.7c-.18.012-.348.032-.516.032-2.1,0-4.2.007-6.3,0a4.206,4.206,0,1,1,.013-8.4q7.53-.008,15.059.009a.79.79,0,0,0,.849-.511,29.533,29.533,0,0,1,6.813-9.124c4.665-4.465,9.159-9.11,13.729-13.675a2.822,2.822,0,0,1,4.308.057,2.775,2.775,0,0,1-.062,3.594c-.139.162-.293.312-.444.463q-8.6,8.606-17.215,17.206a4.324,4.324,0,0,1-.924.7c-1.694.953-3.39,1.9-5.107,2.81a2.832,2.832,0,0,1-1.263.327c-5.273.022-10.545.009-15.818.017a2.335,2.335,0,1,0-.009,4.667c2.062.007,4.125,0,6.187,0h.7m11.8-8.308.215.183a18.132,18.132,0,0,0,3.568-2.344c4.1-4.173,8.26-8.292,12.405-12.422a2.736,2.736,0,0,1,.619-.353l-1.445-1.456c-.165.158-.32.3-.468.449-4.221,4.22-8.472,8.41-12.637,12.684a23.025,23.025,0,0,0-2.256,3.26m18.017-16.481c.883-.869,1.782-1.723,2.643-2.614a.915.915,0,0,0-1.269-1.316c-.9.872-1.767,1.786-2.648,2.684l1.274,1.245" transform="translate(-65.713 -81.071)"/>
          <path id="Trazado_600962" data-name="Trazado 600962" d="M84,77.179c0,.926.005,1.761,0,2.6-.006.8-.339,1.138-1.137,1.139q-4.931.006-9.863,0c-.8,0-1.141-.336-1.142-1.133q-.006-6.332,0-12.664c0-.805.334-1.147,1.126-1.147q7.266-.006,14.531,0c.829,0,1.155.335,1.156,1.178q0,4.435,0,8.87c0,.83-.335,1.156-1.176,1.159-1.143,0-2.287,0-3.494,0M73.763,67.86V79h8.369c0-.841,0-1.637,0-2.433,0-.956.3-1.257,1.25-1.259,1.122,0,2.244,0,3.387,0V67.86Z" transform="translate(-60.644 -55.676)"/>
          <path id="Trazado_600963" data-name="Trazado 600963" d="M168.218,155.408c0,1.516,0,2.953,0,4.389,0,.9-.318,1.214-1.236,1.216q-2.071,0-4.142,0c-.831,0-1.157-.334-1.158-1.175q0-4.434,0-8.868c0-.836.33-1.163,1.168-1.164q4.434-.005,8.868,0c.839,0,1.168.329,1.172,1.162.005,1.109.007,2.217,0,3.326-.005.764-.345,1.108-1.1,1.114-1.164.008-2.328,0-3.567,0m-1.935,3.709c.027-.061.055-.095.056-.128q.008-2.1.012-4.2c0-.951.3-1.25,1.256-1.251,1.121,0,2.242,0,3.378,0v-1.829h-7.394v7.406Z" transform="translate(-136.453 -126.43)"/>
          <path id="Trazado_600964" data-name="Trazado 600964" d="M232.216,256.27c0-1.22,0-2.364,0-3.509,0-.834.331-1.159,1.171-1.161q2.1-.007,4.2,0c.835,0,1.164.331,1.165,1.169q.006,3.968,0,7.935c0,.837-.331,1.169-1.164,1.17q-4.434.006-8.869,0c-.842,0-1.171-.327-1.175-1.158-.006-1.07,0-2.139,0-3.209,0-.921.308-1.233,1.215-1.236,1.125,0,2.251,0,3.456,0m4.651-2.758h-2.783c0,1.21.007,2.374,0,3.539a.956.956,0,0,1-1.071,1.084c-.583.01-1.166,0-1.748,0h-1.816v1.833h7.42Z" transform="translate(-192.043 -212.344)"/>
          <path id="Trazado_600965" data-name="Trazado 600965" d="M203.152,75.308c-1.459,0-2.919,0-4.378,0-.837,0-1.165-.331-1.167-1.167q-.006-3.5,0-7.005c0-.837.329-1.166,1.167-1.167q4.437-.005,8.873,0c.837,0,1.167.33,1.168,1.166q.006,3.5,0,7.005c0,.836-.332,1.165-1.167,1.168-1.5,0-3,0-4.5,0M199.5,73.4h7.4V67.865h-7.4Z" transform="translate(-166.775 -55.674)"/>
          <path id="Trazado_600966" data-name="Trazado 600966" d="M77.921,186.284c-1.635,0-3.269,0-4.9,0-.837,0-1.165-.33-1.168-1.166q-.007-2.1,0-4.2c0-.838.329-1.167,1.166-1.167q4.9-.005,9.807,0c.837,0,1.166.33,1.169,1.165q.007,2.1,0,4.2c0,.837-.332,1.166-1.167,1.169-1.634,0-3.269,0-4.9,0m-4.179-1.909h8.335v-2.731H73.741Z" transform="translate(-60.636 -151.701)"/>
          <rect id="Rectángulo_45734" data-name="Rectángulo 45734" width="1.795" height="1.806" transform="translate(25.256 45.82)"/>
          <path id="Trazado_600967" data-name="Trazado 600967" d="M16.612,12.067V52.218a7.844,7.844,0,0,0-4.654,1.5v-.678q0-17.564,0-35.129a7.012,7.012,0,0,1,.724-3.385,4.369,4.369,0,0,1,3.933-2.457" transform="translate(-10.09 -10.184)" fill="#fff"/>
          <path id="Trazado_600968" data-name="Trazado 600968" d="M225.186,151.6a23.034,23.034,0,0,1,2.256-3.26c4.165-4.274,8.416-8.465,12.637-12.684.148-.148.3-.291.468-.449l1.445,1.456a2.748,2.748,0,0,0-.619.353c-4.145,4.131-8.3,8.249-12.405,12.422a18.149,18.149,0,0,1-3.568,2.344l-.215-.183" transform="translate(-190.054 -114.112)" fill="#fff"/>
          <path id="Trazado_600969" data-name="Trazado 600969" d="M333.779,112.062l-1.274-1.245c.88-.9,1.744-1.812,2.648-2.684a.915.915,0,0,1,1.269,1.316c-.862.89-1.76,1.745-2.643,2.614" transform="translate(-280.63 -91.057)" fill="#fff"/>
          <path id="Trazado_600970" data-name="Trazado 600970" d="M84.091,78.094H97.1v7.451c-1.143,0-2.265,0-3.387,0-.949,0-1.247.3-1.25,1.259,0,.8,0,1.592,0,2.433H84.091Z" transform="translate(-70.972 -65.91)" fill="#fff"/>
          <path id="Trazado_600971" data-name="Trazado 600971" d="M176.628,169.445h-2.693v-7.406h7.394v1.829c-1.136,0-2.257,0-3.378,0-.954,0-1.253.3-1.256,1.251q-.007,2.1-.012,4.2c0,.034-.028.067-.056.128" transform="translate(-146.799 -136.759)" fill="#fff"/>
          <path id="Trazado_600972" data-name="Trazado 600972" d="M247.165,263.874v6.459h-7.42V268.5h1.816c.583,0,1.166.008,1.748,0a.956.956,0,0,0,1.071-1.084c.01-1.165,0-2.329,0-3.539Z" transform="translate(-202.342 -222.706)" fill="#fff"/>
          <rect id="Rectángulo_45735" data-name="Rectángulo 45735" width="7.402" height="5.534" transform="translate(32.725 12.191)" fill="#fff"/>
          <rect id="Rectángulo_45736" data-name="Rectángulo 45736" width="8.335" height="2.731" transform="translate(13.105 29.943)" fill="#fff"/>
        </g>
      </g>
    </g>
  </g>
</svg>
