<svg xmlns="http://www.w3.org/2000/svg" xmlns:xlink="http://www.w3.org/1999/xlink" width="85" height="85" viewBox="0 0 85 85">
  <defs>
    <clipPath id="clip-path">
      <rect id="Rectángulo_345222" data-name="Rectángulo 345222" width="54.055" height="54.081" fill="none"/>
    </clipPath>
  </defs>
  <g id="Grupo_1015229" data-name="Grupo 1015229" transform="translate(-414 -8378)">
    <g id="Grupo_1013453" data-name="Grupo 1013453" transform="translate(0 1016)">
      <circle id="Elipse_4848" data-name="Elipse 4848" cx="42.5" cy="42.5" r="42.5" transform="translate(414 7362)" fill="#a3bfe4"/>
    </g>
    <g id="Grupo_1014553" data-name="Grupo 1014553" transform="translate(429 8393)">
      <g id="Grupo_1014552" data-name="Grupo 1014552" clip-path="url(#clip-path)">
        <path id="Trazado_601150" data-name="Trazado 601150" d="M5.389,15.839V13.882q0-5.521,0-11.041A2.673,2.673,0,0,1,8.247,0H45.759a2.676,2.676,0,0,1,2.886,2.868q0,13.182-.007,26.364a1.178,1.178,0,0,0,.385.926,10.5,10.5,0,0,1,3.225,7.663q.016,4.76,0,9.52a.747.747,0,0,0,.433.793,2.531,2.531,0,0,1,1.373,2.352q.006,1.239,0,2.479c0,.82-.3,1.115-1.116,1.115q-8.364,0-16.728,0H8.328a2.689,2.689,0,0,1-2.939-2.929c0-4.788.029-9.577-.026-14.365a10.826,10.826,0,0,0-.554-2.729Q2.5,25.846.148,17.645a2.725,2.725,0,0,1,2.3-3.717,2.925,2.925,0,0,1,2.942,1.911m7.939,32.835h.679q10.136,0,20.272,0a2.722,2.722,0,0,0,2.282-.6,1.239,1.239,0,0,0,.378-.584,16.833,16.833,0,0,1,2.58-7.585c.037-.057.061-.122.122-.249-.663,0-1.257.005-1.851,0a2.672,2.672,0,0,1-2.661-2.641c-.006-.526.033-1.054-.01-1.576a1.174,1.174,0,0,1,.8-1.266c1.419-.68,2.816-1.4,4.231-2.092a.6.6,0,0,0,.4-.643c-.021-1.107-.011-2.215-.007-3.323,0-.775.31-1.083,1.1-1.071.518.008,1.035.054,1.573.084V5.441H10.8v.475q0,14.475.005,28.95a3.09,3.09,0,0,0,.125.826c.841,2.97,1.65,5.949,2.558,8.9a4.644,4.644,0,0,1-.059,3.68,2.079,2.079,0,0,0-.1.4M8.9,28.548l.092-.008v-.617q0-11.546,0-23.092c0-.973.254-1.226,1.231-1.226H43.787c1.011,0,1.254.244,1.254,1.259q0,11.039,0,22.078a2.34,2.34,0,0,0,.008.449c.022.112.08.268.168.309.516.246,1.045.464,1.6.707.01-.158.022-.266.022-.374q0-12.532,0-25.063c0-.86-.343-1.169-1.271-1.169H8.462c-.974,0-1.272.3-1.272,1.281q0,9.518,0,19.037a1.9,1.9,0,0,0,.023.5C7.77,24.6,8.337,26.574,8.9,28.548M45.924,47.742c0-3.432.078-6.826-.029-10.214a4.3,4.3,0,0,0-3.308-4.012,1.924,1.924,0,0,0-1.554.145,29.75,29.75,0,0,1-3.164,1.575,1.309,1.309,0,0,0-.949,1.6c.092.64.385,1,1.037,1.014.637.016,1.275,0,1.913.006.706.012,1.439.126,1.892-.8.264.316.438.565.653.772a7.769,7.769,0,0,0,.69.537A14.645,14.645,0,0,0,38.8,47.742ZM7.283,42.776l-.093-.01q0,4.108,0,8.215c0,1.01.291,1.3,1.311,1.3H35.084v-1.8h-.719c-6.9,0-13.808-.031-20.712.027a4,4,0,0,1-3.408-1.248c-.314-.365-.758-.616-1.1-.963a2.022,2.022,0,0,1-.492-.783c-.477-1.571-.918-3.154-1.371-4.732m43.126,4.969a1.3,1.3,0,0,0,.037-.2c0-3.323.057-6.648-.019-9.97a8.909,8.909,0,0,0-6.05-8.213c-.638-.219-1.312-.332-2.038-.511,0,.917-.017,1.685.017,2.451.006.127.215.32.359.353a6.316,6.316,0,0,1,5.03,6.276q.006,4.591,0,9.182v.631ZM2.859,20.341c.04.191.063.353.107.51,2.407,8.473,4.829,16.942,7.2,25.424.231.825.839,1.152,1.419,1.7a3.6,3.6,0,0,0,.338-2.138C10.017,39.2,8.142,32.563,6.254,25.925c-.567-1.993-1.138-3.985-1.726-6.041l-1.67.457M52.252,52.253c0-.483,0-.93,0-1.377,0-1.012-.292-1.3-1.308-1.3H41.43c-1.145,0-2.289-.007-3.434,0-.627.005-1.013.307-1.05.865-.039.593-.009,1.19-.009,1.81ZM2.327,18.591l1.7-.494c-.185-.623-.334-1.22-.543-1.8a.826.826,0,0,0-1.1-.5.819.819,0,0,0-.572.973c.127.6.326,1.178.509,1.819" transform="translate(0 0)" fill="#161615"/>
        <path id="Trazado_601151" data-name="Trazado 601151" d="M74.279,79.4a2.076,2.076,0,0,1,.1-.4,4.645,4.645,0,0,0,.059-3.68c-.908-2.949-1.717-5.929-2.558-8.9a3.083,3.083,0,0,1-.125-.826q-.009-14.475-.005-28.95v-.475H104.16V57.854c-.538-.03-1.055-.076-1.573-.084-.789-.012-1.1.3-1.1,1.071,0,1.108-.014,2.215.007,3.323a.6.6,0,0,1-.4.643c-1.415.687-2.812,1.413-4.231,2.092a1.174,1.174,0,0,0-.8,1.266c.043.522,0,1.051.01,1.576a2.672,2.672,0,0,0,2.661,2.641c.594.006,1.189,0,1.851,0-.062.127-.086.192-.122.249a16.835,16.835,0,0,0-2.581,7.585,1.239,1.239,0,0,1-.378.584,2.722,2.722,0,0,1-2.282.6q-10.136-.013-20.272,0h-.679m5.595-19.776c1.167-.154,1.167-.154,1.655.821.042.084.087.166.123.252a1.042,1.042,0,0,0,1.1.681c1.219-.022,2.438,0,3.658-.009a2.691,2.691,0,0,0,2.678-2.328c.132-.889.249-1.78.382-2.668a2.684,2.684,0,0,0-1.9-3,8.79,8.79,0,0,0-1.1-.179c.054-.278.109-.532.152-.789a2.288,2.288,0,0,0-1.727-2.69,9.108,9.108,0,0,0-1.173-.069,1.11,1.11,0,0,0-1.224.765c-.293.648-.7,1.252-.933,1.917a1.208,1.208,0,0,1-1.55.923c-.036-.007-.072-.017-.108-.027-.265-.737-.448-.869-1.226-.869-1.088,0-2.176-.007-3.264,0a.869.869,0,0,0-.967.976q-.009,3.518,0,7.035a.882.882,0,0,0,1,1c.863.007,1.726,0,2.589,0,1.382.011,1.865.188,1.828-1.749M74.45,44.552c0,1.333.008,2.666,0,4a.969.969,0,0,0,.478,1,.993.993,0,0,0,1.141-.188c.955-.727,1.913-1.452,2.89-2.149a1.413,1.413,0,0,1,.76-.253c2.159-.02,4.318-.005,6.477-.014a2.662,2.662,0,0,0,2.676-2.682c.008-1.746,0-3.493,0-5.239,0-.786-.3-1.088-1.085-1.089q-5.322,0-10.645,0a2.66,2.66,0,0,0-2.686,2.671c-.008,1.314,0,2.629,0,3.943M85.9,74.237c-.914-.916-1.8-1.83-2.719-2.71A.7.7,0,0,1,83,70.543a4.506,4.506,0,1,0-2.051,2.067.666.666,0,0,1,.937.181c.893.928,1.812,1.83,2.733,2.755L85.9,74.237m15.586-20.1c0-1.748-.116-3.462.032-5.154a4.105,4.105,0,0,0-1.731-4.122c-.284-.2-.3-.424-.226-.765a3.163,3.163,0,0,0,.054-1.325A2.689,2.689,0,0,0,96.5,40.661a2.754,2.754,0,0,0-2.21,3.113,2.573,2.573,0,0,0,3,2.214c.9-.209,1.254.206,1.725.687a1.631,1.631,0,0,1,.311.322,2.057,2.057,0,0,1,.34.821c.029,1.9.016,3.791.016,5.686v.63ZM98.768,60.47c-1.764,0-3.487-.022-5.207.019a1.646,1.646,0,0,0-.979.41c-.777.706-1.507,1.466-2.237,2.221a.644.644,0,0,1-.676.186,3.823,3.823,0,0,0-1.487-.028,2.642,2.642,0,0,0-1.927,3.3,2.7,2.7,0,1,0,5.2-1.47.611.611,0,0,1,.193-.723c.623-.6,1.212-1.231,1.844-1.818a1.126,1.126,0,0,1,.674-.282c.994-.03,1.989-.013,2.984-.013h1.62Zm-2.7,9.915a4.884,4.884,0,0,1-.766-.006A3.7,3.7,0,0,0,91.37,72a.739.739,0,0,1-.951.288,2.56,2.56,0,0,0-1.269-.022,2.7,2.7,0,0,0-2.056,3.149,2.756,2.756,0,0,0,3.145,2.164,2.608,2.608,0,0,0,2.182-3.039,1.475,1.475,0,0,1,.627-1.632,2.873,2.873,0,0,1,.4-.388,2,2,0,0,1,.775-.316c.607-.046,1.22-.015,1.839-.015Zm3.588-12.624v-1.8a4.5,4.5,0,0,0-.687,0,2.625,2.625,0,0,1-2.72-1.1.94.94,0,0,1-.259-.964,2.49,2.49,0,0,0-.715-2.574,2.566,2.566,0,0,0-2.642-.669,2.7,2.7,0,1,0,1.5,5.188.642.642,0,0,1,.769.216c.432.469.886.92,1.355,1.351a1.124,1.124,0,0,0,.619.333c.914.036,1.83.016,2.784.016" transform="translate(-60.95 -30.725)" fill="#fff"/>
        <path id="Trazado_601152" data-name="Trazado 601152" d="M49.474,38.72c-.564-1.974-1.131-3.948-1.688-5.925a1.91,1.91,0,0,1-.023-.5q0-9.518,0-19.037c0-.981.3-1.281,1.272-1.281H86.144c.928,0,1.271.309,1.271,1.169q0,12.532,0,25.063c0,.108-.012.217-.022.374-.56-.243-1.089-.461-1.605-.707-.087-.042-.145-.2-.168-.309a2.352,2.352,0,0,1-.008-.449q0-11.039,0-22.078c0-1.014-.244-1.259-1.255-1.259H50.8c-.977,0-1.231.253-1.231,1.226q0,11.546,0,23.092v.617l-.092.008" transform="translate(-40.572 -10.171)" fill="#fff"/>
        <path id="Trazado_601153" data-name="Trazado 601153" d="M254.218,236.419H247.09a14.646,14.646,0,0,1,4.307-9.377,7.712,7.712,0,0,1-.69-.537c-.214-.207-.389-.455-.653-.772-.452.929-1.186.816-1.892.8-.638-.011-1.276.01-1.913-.006-.652-.017-.945-.374-1.037-1.014a1.309,1.309,0,0,1,.949-1.6,29.806,29.806,0,0,0,3.164-1.575,1.924,1.924,0,0,1,1.554-.145,4.3,4.3,0,0,1,3.308,4.012c.107,3.388.029,6.782.029,10.214" transform="translate(-208.294 -188.677)" fill="#fff"/>
        <path id="Trazado_601154" data-name="Trazado 601154" d="M47.88,284.228c.453,1.579.895,3.161,1.371,4.732a2.022,2.022,0,0,0,.492.783c.339.347.784.6,1.1.963a4,4,0,0,0,3.408,1.248c6.9-.058,13.808-.027,20.712-.027h.719v1.8H49.1c-1.02,0-1.311-.288-1.311-1.3q0-4.108,0-8.215l.093.01" transform="translate(-40.597 -241.452)" fill="#fff"/>
        <path id="Trazado_601155" data-name="Trazado 601155" d="M289.425,210.641h-2.664v-.631q0-4.591,0-9.182a6.316,6.316,0,0,0-5.03-6.276c-.145-.033-.354-.227-.359-.353-.034-.766-.017-1.534-.017-2.451.726.179,1.4.292,2.038.511a8.909,8.909,0,0,1,6.05,8.213c.076,3.322.019,6.647.019,9.97a1.311,1.311,0,0,1-.037.2" transform="translate(-239.016 -162.896)" fill="#fff"/>
        <path id="Trazado_601156" data-name="Trazado 601156" d="M19,132.61l1.67-.457c.588,2.056,1.159,4.048,1.726,6.041,1.887,6.637,3.763,13.278,5.673,19.909a3.605,3.605,0,0,1-.338,2.138c-.58-.545-1.188-.871-1.419-1.7-2.375-8.482-4.8-16.951-7.2-25.425-.045-.156-.068-.319-.107-.51" transform="translate(-16.141 -112.268)" fill="#fff"/>
        <path id="Trazado_601157" data-name="Trazado 601157" d="M260.74,332.132H245.426c0-.62-.03-1.218.009-1.81.036-.558.423-.859,1.05-.865,1.144-.01,2.289,0,3.434,0h9.514c1.016,0,1.306.29,1.308,1.3,0,.447,0,.893,0,1.377" transform="translate(-208.487 -279.879)" fill="#fff"/>
        <path id="Trazado_601158" data-name="Trazado 601158" d="M12.466,107.446c-.183-.641-.382-1.223-.509-1.819a.872.872,0,0,1,1.671-.471c.209.575.358,1.173.543,1.8l-1.7.494" transform="translate(-10.139 -88.854)" fill="#fff"/>
        <path id="Trazado_601159" data-name="Trazado 601159" d="M95.135,135.7c.038,1.937-.445,1.76-1.828,1.749-.863-.007-1.726,0-2.589,0a.882.882,0,0,1-1-1q-.008-3.518,0-7.035a.869.869,0,0,1,.967-.976c1.088-.009,2.176,0,3.264,0,.778,0,.961.132,1.226.87.036.009.072.019.108.026a1.208,1.208,0,0,0,1.551-.923c.236-.665.64-1.269.932-1.917a1.11,1.11,0,0,1,1.224-.765,9.083,9.083,0,0,1,1.173.069,2.288,2.288,0,0,1,1.727,2.69c-.043.257-.1.511-.152.789a8.789,8.789,0,0,1,1.1.179,2.684,2.684,0,0,1,1.9,3c-.134.889-.251,1.779-.383,2.668a2.691,2.691,0,0,1-2.678,2.329c-1.219.007-2.439-.014-3.658.008a1.042,1.042,0,0,1-1.1-.681c-.036-.086-.081-.169-.123-.252-.488-.975-.488-.975-1.655-.821m.008-1.857c.252,0,.439,0,.625,0,1.878.015,1.61-.214,2.476,1.468a.638.638,0,0,0,.435.319c.974.028,1.95.024,2.925.009a.874.874,0,0,0,.929-.743c.153-.885.279-1.776.366-2.669.071-.721-.283-1.07-1.02-1.088-.394-.009-.788,0-1.181,0-.866-.007-1.215-.465-1.009-1.319a13.13,13.13,0,0,0,.37-1.637c.021-.194-.214-.466-.4-.607-.065-.048-.428.149-.515.31-.472.872-.9,1.766-1.344,2.655a.98.98,0,0,1-.984.6c-.554-.017-1.109,0-1.669,0Zm-3.587,1.773h1.727v-5.358H91.556Z" transform="translate(-76.211 -106.8)" fill="#161615"/>
        <path id="Trazado_601160" data-name="Trazado 601160" d="M89.7,54.531c0-1.314-.006-2.629,0-3.943a2.66,2.66,0,0,1,2.686-2.671q5.322-.009,10.645,0c.784,0,1.084.3,1.085,1.089,0,1.746.007,3.493,0,5.239a2.662,2.662,0,0,1-2.676,2.682c-2.159.008-4.318-.006-6.477.014a1.413,1.413,0,0,0-.76.253c-.977.7-1.935,1.422-2.89,2.149a.993.993,0,0,1-1.141.188.969.969,0,0,1-.478-1c.012-1.333,0-2.666,0-4m12.616-4.767a1.48,1.48,0,0,0-.22-.044c-3.188,0-6.377-.008-9.565,0-.692,0-1.023.382-1.027,1.124-.007,1.294,0,2.589,0,3.883V56.9c.708-.527,1.3-1.01,1.935-1.422a2.045,2.045,0,0,1,1.021-.34c2.232-.03,4.464-.013,6.7-.017.757,0,1.149-.32,1.157-.994.019-1.443.006-2.886.006-4.366" transform="translate(-76.195 -40.704)" fill="#161615"/>
        <path id="Trazado_601161" data-name="Trazado 601161" d="M100.98,231.663,99.7,232.972c-.921-.925-1.84-1.827-2.733-2.755a.666.666,0,0,0-.937-.181,4.516,4.516,0,1,1,2.05-2.067.7.7,0,0,0,.182.985c.918.88,1.8,1.794,2.719,2.71m-4.244-5.633a2.7,2.7,0,1,0-2.706,2.677,2.745,2.745,0,0,0,2.706-2.677" transform="translate(-76.03 -188.15)" fill="#161615"/>
        <path id="Trazado_601162" data-name="Trazado 601162" d="M228.612,79.271h-1.8v-.63c0-1.9.014-3.791-.016-5.686a2.056,2.056,0,0,0-.34-.821,1.642,1.642,0,0,0-.312-.322c-.471-.481-.827-.895-1.725-.686a2.573,2.573,0,0,1-3-2.214,2.754,2.754,0,0,1,2.209-3.113,2.689,2.689,0,0,1,3.115,2.106,3.161,3.161,0,0,1-.054,1.325c-.078.342-.058.568.226.765a4.1,4.1,0,0,1,1.731,4.121c-.148,1.692-.032,3.406-.032,5.154m-5.4-10.832a.894.894,0,1,0,.951-.85.942.942,0,0,0-.951.85" transform="translate(-188.076 -55.863)" fill="#161615"/>
        <path id="Trazado_601163" data-name="Trazado 601163" d="M180.107,197.652v1.8h-1.62c-.995,0-1.99-.017-2.984.013a1.127,1.127,0,0,0-.674.282c-.632.587-1.221,1.221-1.844,1.818a.611.611,0,0,0-.193.723,2.7,2.7,0,1,1-3.272-1.83,3.82,3.82,0,0,1,1.487.028.644.644,0,0,0,.676-.186c.731-.756,1.46-1.516,2.237-2.221a1.646,1.646,0,0,1,.979-.41c1.721-.04,3.443-.019,5.207-.019m-9,5.4a.895.895,0,1,0-.9.905.946.946,0,0,0,.9-.905" transform="translate(-142.289 -167.906)" fill="#161615"/>
        <path id="Trazado_601164" data-name="Trazado 601164" d="M182.437,263.134v1.8c-.619,0-1.232-.032-1.839.015a2,2,0,0,0-.775.316,2.876,2.876,0,0,0-.4.388,1.475,1.475,0,0,0-.627,1.633,2.607,2.607,0,0,1-2.182,3.038,2.756,2.756,0,0,1-3.145-2.164,2.7,2.7,0,0,1,2.056-3.149,2.556,2.556,0,0,1,1.269.022.739.739,0,0,0,.951-.288,3.694,3.694,0,0,1,3.931-1.617,4.906,4.906,0,0,0,.766.005m-6.253,3.609a.9.9,0,0,0-.116,1.788.9.9,0,1,0,.116-1.788" transform="translate(-147.32 -223.474)" fill="#161615"/>
        <path id="Trazado_601165" data-name="Trazado 601165" d="M206.446,138.9c-.954,0-1.87.021-2.784-.016a1.123,1.123,0,0,1-.619-.333c-.469-.431-.923-.882-1.355-1.35a.642.642,0,0,0-.769-.216,2.7,2.7,0,1,1-1.5-5.188,2.565,2.565,0,0,1,2.642.669,2.49,2.49,0,0,1,.715,2.574.94.94,0,0,0,.259.964,2.625,2.625,0,0,0,2.72,1.1,4.523,4.523,0,0,1,.688,0Zm-5.385-4.459a.895.895,0,1,0-.951.85.946.946,0,0,0,.951-.85" transform="translate(-167.741 -111.867)" fill="#161615"/>
        <path id="Trazado_601166" data-name="Trazado 601166" d="M125.817,144.275V141.57c.56,0,1.115-.013,1.669,0a.979.979,0,0,0,.984-.6c.441-.889.872-1.783,1.344-2.655.087-.161.45-.359.515-.31.189.141.425.413.4.607a13.131,13.131,0,0,1-.37,1.637c-.206.854.144,1.312,1.009,1.319.394,0,.788-.007,1.181,0,.737.018,1.091.366,1.02,1.087-.088.893-.214,1.785-.366,2.669a.874.874,0,0,1-.929.743c-.975.015-1.951.019-2.925-.009a.637.637,0,0,1-.435-.319c-.866-1.682-.6-1.453-2.476-1.468-.187,0-.374,0-.626,0" transform="translate(-106.885 -117.234)" fill="#fff"/>
        <rect id="Rectángulo_345220" data-name="Rectángulo 345220" width="1.727" height="5.358" transform="translate(15.345 23.456)" fill="#fff"/>
        <path id="Trazado_601167" data-name="Trazado 601167" d="M112.5,59.944c0,1.48.013,2.923-.006,4.366-.009.675-.4.993-1.157.994-2.232,0-4.464-.013-6.7.017a2.046,2.046,0,0,0-1.021.34c-.636.412-1.227.895-1.935,1.422V64.908c0-1.294,0-2.589,0-3.883,0-.742.335-1.122,1.027-1.124,3.189-.009,6.377,0,9.565,0a1.45,1.45,0,0,1,.22.044m-1.827,1.8h-7.137v1.732h7.137Z" transform="translate(-86.382 -50.883)" fill="#fff"/>
        <path id="Trazado_601168" data-name="Trazado 601168" d="M107.133,236.385a2.7,2.7,0,1,1-2.663-2.72,2.748,2.748,0,0,1,2.663,2.72" transform="translate(-86.428 -198.505)" fill="#fff"/>
        <path id="Trazado_601169" data-name="Trazado 601169" d="M233.5,78.765a.894.894,0,1,1,.865.938.942.942,0,0,1-.865-.938" transform="translate(-198.367 -66.189)" fill="#fff"/>
        <path id="Trazado_601170" data-name="Trazado 601170" d="M181.39,228.544a.895.895,0,1,1-.919-.886.943.943,0,0,1,.919.886" transform="translate(-152.576 -193.402)" fill="#fff"/>
        <path id="Trazado_601171" data-name="Trazado 601171" d="M186.518,287.558a.9.9,0,1,1-.939.866.946.946,0,0,1,.939-.866" transform="translate(-157.655 -244.288)" fill="#fff"/>
        <path id="Trazado_601172" data-name="Trazado 601172" d="M211.338,144.744a.895.895,0,1,1-.865-.938.944.944,0,0,1,.865.938" transform="translate(-178.019 -122.167)" fill="#fff"/>
        <rect id="Rectángulo_345221" data-name="Rectángulo 345221" width="7.137" height="1.732" transform="translate(17.152 10.856)" fill="#161615"/>
      </g>
    </g>
  </g>
</svg>
