<svg id="Grupo_1014913" data-name="Grupo 1014913" xmlns="http://www.w3.org/2000/svg" xmlns:xlink="http://www.w3.org/1999/xlink" width="263.157" height="193.503" viewBox="0 0 263.157 193.503">
  <defs>
    <clipPath id="clip-path">
      <rect id="Rectángulo_345595" data-name="Rectángulo 345595" width="263.157" height="193.503" fill="none"/>
    </clipPath>
  </defs>
  <rect id="Rectángulo_345592" data-name="Rectángulo 345592" width="10.275" height="10.274" transform="translate(221.184 73.344)" fill="#fff"/>
  <g id="Grupo_1014912" data-name="Grupo 1014912">
    <g id="Grupo_1014911" data-name="Grupo 1014911" clip-path="url(#clip-path)">
      <path id="Trazado_604637" data-name="Trazado 604637" d="M189.7,53.776h-5.1a1.852,1.852,0,0,1-1.852-1.852V47.463a1.852,1.852,0,0,1,1.852-1.852h5.1a1.851,1.851,0,0,1,1.852,1.852v4.461a1.851,1.851,0,0,1-1.852,1.852" transform="translate(39.162 9.774)" fill="#fff"/>
      <path id="Trazado_604638" data-name="Trazado 604638" d="M135.922,59.663s7.248,4.592,7.509,12.524l-7.173,1.1,1.139-5.113s.27-6.509-1.475-8.509" transform="translate(29.128 12.786)" fill="#fff"/>
      <path id="Trazado_604639" data-name="Trazado 604639" d="M141.828,107.253H55.209a17.4,17.4,0,0,1-17.4-17.4v-48.5a17.4,17.4,0,0,1,17.4-17.4h86.619a17.4,17.4,0,0,1,17.406,17.4v48.5a17.405,17.405,0,0,1-17.406,17.4" transform="translate(8.101 5.13)" fill="#fff"/>
      <path id="Trazado_604640" data-name="Trazado 604640" d="M199.636,157.584H156a7.842,7.842,0,0,1-7.819-7.818V122.411A7.842,7.842,0,0,1,156,114.592h43.637a7.841,7.841,0,0,1,7.818,7.819v27.356a7.84,7.84,0,0,1-7.818,7.818" transform="translate(31.754 24.557)" fill="#33ece0"/>
      <path id="Trazado_604641" data-name="Trazado 604641" d="M183.855,104.133a64.158,64.158,0,0,0-6.086-11.879c-2.662-3.953-8.034-11.41-8.835-12l-2.025,3.621-2.12,4.858,1.866,15.981-20.775-2.475s-9.892.635-15.1,7.322-4.563,9.193-7.264,14.272-3.279,6.942-6.942,6.108-3.922-3.407-4.759-6.044-6.409-19.527-6.8-20.789c0,0-4-3.19-10.874-2.033s-9.593,5.442-9.593,5.442,3.1,18.7,5.659,25.227,7.275,21.8,24.5,22.084c0,0,9.468.236,14.581-3.483.375.23-1.59,20.975-2.685,25.613h47.354s-2.772-13.256-1.31-24.27a210.263,210.263,0,0,0,1.463-28.05c-.084-1-.164-2.614-.316-4.378,1.472.6,5.1,1.3,8.217-2.38,3.734-4.407,3.016-9.69,1.843-12.754" transform="translate(18.117 17.199)" fill="#1a1a1a"/>
      <path id="Trazado_604642" data-name="Trazado 604642" d="M100.807,101s.732-6.975.828-7.518a12.394,12.394,0,0,0-.414-6.09c-.993-2.329-1.2-4.507-3.018-4.764s-2.514-.158-2.992.5-.2,2.418.3,3.455,2.341,4.533.508,5.833-2.429.233-2.64-1.429-.443-4.784.287-6.022,1.885-2.433,1.846-3.494a2.049,2.049,0,0,0-2.342-1.93A4.746,4.746,0,0,0,91,80.425s-4.208-.01-5.158,3.716A8.907,8.907,0,0,0,82.8,89.592a26.682,26.682,0,0,0,.638,8.636c.368,1.454,1.943,5.459,2.844,6.5,0,0,3.214-2.623,5.785-3.072s8.744-.659,8.744-.659" transform="translate(17.716 17.04)" fill="#fff"/>
      <path id="Trazado_604643" data-name="Trazado 604643" d="M133.657,77.349s-2.517,10.416-2.765,11.794-1.223,5.961,4.339,6.914a8.793,8.793,0,0,1,2.019-3.5c1.4-1.32,2.517-2.182,2.517-2.182s3.752.71,4.623-2.469a3.781,3.781,0,0,0-2.923-4.76,10.315,10.315,0,0,1-1.993-.635s-4.949-2.841-5.818-5.166" transform="translate(28.002 16.576)" fill="#fff"/>
      <path id="Trazado_604644" data-name="Trazado 604644" d="M133.389,79.274s-1.643-4.317,0-7.178a7.759,7.759,0,0,1,7.048-3.728,16.287,16.287,0,0,1,9.731,3.719s5.916,1.37,7.588,4.129.723,5.9.389,6.851-2.369,4.83-2.471,5.7c0,0-.376.78,1.444,2.284s4.013,3.45,4.4,6.676.3,8.783-5.01,10.827a11.949,11.949,0,0,1-11.117-1.751c-.472-.051-5.965,2.253-8.934-1.412a8.473,8.473,0,0,1-.79-9.147c.682-1.009,2.327-3.173,3.464-3.779,0,0,3.4.85,4.47-1.806a4.182,4.182,0,0,0-1.37-5.326,3.641,3.641,0,0,0-2.219-.449s-5.47-1.973-6.624-5.615" transform="translate(28.428 14.651)" fill="#ffce26"/>
      <path id="Trazado_604645" data-name="Trazado 604645" d="M192.593,80.97h-9.872a2.126,2.126,0,0,1-2.12-2.119,2.17,2.17,0,0,1,2.12-2.3h9.872a2.126,2.126,0,0,1,2.12,2.119,2.17,2.17,0,0,1-2.12,2.3" transform="translate(38.702 16.406)" fill="#1a1a1a"/>
      <path id="Trazado_604646" data-name="Trazado 604646" d="M188.17,48.973,177.981,69.717s1.407,7.695,4.347,10.907h12.057s3.746-6.343,4.064-10.79Zm0,22.263a3.25,3.25,0,1,1,3.251-3.249,3.249,3.249,0,0,1-3.251,3.249" transform="translate(38.141 10.495)" fill="#a3bfe4"/>
      <path id="Trazado_604647" data-name="Trazado 604647" d="M41.367,135.146a78.436,78.436,0,0,1,10.462-14.188,45.185,45.185,0,0,1,12.076-8.976s-.081,7.837-9.068,15.351-13.47,7.813-13.47,7.813" transform="translate(8.865 23.997)" fill="#33ece0"/>
      <path id="Trazado_604648" data-name="Trazado 604648" d="M43.236,105.514s-.04-7.138-1.524-11.271S36.78,85.791,34,84.65a28.687,28.687,0,0,0,2.253,9.593c2.215,5.424,6.987,11.459,6.987,11.459Z" transform="translate(7.287 18.14)" fill="#33ece0"/>
      <path id="Trazado_604649" data-name="Trazado 604649" d="M43.86,106.063s10.279-4.628,14.868-9.553,6-7.775,6.418-8.969a43.606,43.606,0,0,0,.964-4.574,40,40,0,0,0-13.244,9.886c-6.262,7.048-8.877,11.915-9.005,13.21" transform="translate(9.399 17.78)" fill="#1a1a1a"/>
      <path id="Trazado_604650" data-name="Trazado 604650" d="M44.461,114.906s10.983-2.4,16.506-6.069,8.394-8.461,8.479-9.49a37.941,37.941,0,0,0-14.493,6.546,101.508,101.508,0,0,0-10.493,9.013" transform="translate(9.528 21.29)" fill="#1a1a1a"/>
      <path id="Trazado_604651" data-name="Trazado 604651" d="M39.867,143.209s-.716-9.883-4.618-17.679-7.362-11.19-7.362-11.19-2.923,5.674,1.063,14.434a44.51,44.51,0,0,0,10.918,14.434" transform="translate(5.754 24.503)" fill="#1a1a1a"/>
      <path id="Trazado_604652" data-name="Trazado 604652" d="M41.214,149.922s10.881-5.039,15.963-10.5,7.038-10.938,6.681-13.193a42.558,42.558,0,0,0-13.606,10.686c-5.589,6.977-9.167,11.742-9.038,13.009" transform="translate(8.831 27.05)" fill="#33ece0"/>
      <path id="Trazado_604653" data-name="Trazado 604653" d="M36.783,142.686a46.288,46.288,0,0,0-9.1-13.049c-5.81-5.559-11.713-10.362-13.779-10.781,0,0-.493,7.807,8.15,14.816s14.731,9.014,14.731,9.014" transform="translate(2.978 25.471)" fill="#33ece0"/>
      <path id="Trazado_604654" data-name="Trazado 604654" d="M35.087,157.288S27.046,150.92,22.62,145.35s-7.387-13.487-7.387-13.487,8.47,2.2,13.215,9.8a58.4,58.4,0,0,1,6.639,15.853Z" transform="translate(3.264 28.258)" fill="#1a1a1a"/>
      <path id="Trazado_604655" data-name="Trazado 604655" d="M159.125,42.3c0-10.1-7.971-18.364-17.711-18.364H55.4c-9.741,0-17.712,8.263-17.712,18.364v3.05H159.125Z" transform="translate(8.076 5.13)" fill="#1a1a1a"/>
      <path id="Trazado_604656" data-name="Trazado 604656" d="M113.09,34.044a3.876,3.876,0,1,1-3.875-3.875,3.876,3.876,0,0,1,3.875,3.875" transform="translate(22.574 6.465)" fill="#fff"/>
      <path id="Trazado_604657" data-name="Trazado 604657" d="M122.786,34.044a3.876,3.876,0,1,1-3.876-3.875,3.876,3.876,0,0,1,3.876,3.875" transform="translate(24.651 6.465)" fill="#fff"/>
      <path id="Trazado_604658" data-name="Trazado 604658" d="M132.482,34.044a3.876,3.876,0,1,1-3.876-3.875,3.876,3.876,0,0,1,3.876,3.875" transform="translate(26.729 6.465)" fill="#ffce26"/>
      <path id="Trazado_604659" data-name="Trazado 604659" d="M14.185,64.06l-6.229,4.7a1.86,1.86,0,0,1-2.6-.367l-4.7-6.229a1.861,1.861,0,0,1,.366-2.6l6.229-4.7a1.861,1.861,0,0,1,2.606.367l4.7,6.229a1.861,1.861,0,0,1-.366,2.6" transform="translate(0.06 11.676)" fill="#1a1a1a"/>
      <path id="Trazado_604660" data-name="Trazado 604660" d="M8.717,53.556,9.853,45.68a2.417,2.417,0,0,0-1.475.288c-.481.359-5.053,3.809-6.063,4.572a1.78,1.78,0,0,0-.455.5,3.4,3.4,0,0,0-.46,1.3C1.25,53.39.408,59.34.408,59.34l7.168-5.633a1.4,1.4,0,0,1,1.141-.152" transform="translate(0.087 9.786)" fill="#fff198"/>
      <rect id="Rectángulo_345593" data-name="Rectángulo 345593" width="13.494" height="13.494" transform="translate(61.124 57.474)" fill="#752121"/>
      <rect id="Rectángulo_345594" data-name="Rectángulo 345594" width="13.494" height="13.496" transform="translate(53.259 86.956)" fill="#1a1a1a"/>
      <path id="Trazado_604661" data-name="Trazado 604661" d="M92.123,145.965a7.305,7.305,0,1,1-7.305-7.305,7.306,7.306,0,0,1,7.305,7.305" transform="translate(16.611 29.714)" fill="#ffce26"/>
      <path id="Trazado_604662" data-name="Trazado 604662" d="M100.132,139.65a27.009,27.009,0,0,0,11.94,2.943c7.361.238,11.408-2.261,11.408-2.261a11.8,11.8,0,0,0-11.312-7.561c-8.807,0-11.825,6.172-12.036,6.879" transform="translate(21.458 28.452)" fill="#fff"/>
      <path id="Trazado_604663" data-name="Trazado 604663" d="M115.586,150.612c-.922,0-1.863-.039-2.835-.119l-1-.111a22.292,22.292,0,0,1-13.118-6.447c-5.418-5.526-8.088-13.158-9.986-19.9A184.336,184.336,0,0,1,84.3,103.247c.086-.646,2.478-5.461,10.856-6.216,7.532-.68,10.06,2.168,10.164,2.289.064.114,7.259,22.1,7.259,22.1.568,1.764,1.106,3.432,2.712,4.347a4.353,4.353,0,0,0,4.979-.533,11.685,11.685,0,0,0,2.956-4.715c.37-.894.731-1.795,1.094-2.7a82.019,82.019,0,0,1,3.886-8.677,21.665,21.665,0,0,1,7.944-8.008c2.88-1.734,8.121-2.583,10.24-2.867a.334.334,0,0,1,.382.291.338.338,0,0,1-.291.38c-1.62.219-7.132,1.061-9.98,2.777a21,21,0,0,0-7.7,7.752,80.844,80.844,0,0,0-3.849,8.606c-.364.9-.727,1.808-1.1,2.7a12.416,12.416,0,0,1-3.15,4.975,5.017,5.017,0,0,1-5.75.6c-1.834-1.046-2.436-2.918-3.02-4.73l-2.5-7.648-4.671-14.256c-.342-.341-2.9-2.607-9.546-2.011-7.379.665-9.905,4.651-10.269,5.3a185.1,185.1,0,0,0,4.35,20.849c1.875,6.653,4.507,14.187,9.819,19.6a21.614,21.614,0,0,0,12.715,6.249l.984.108c27.158,2.271,33.608-28.978,33.67-29.295a.345.345,0,0,1,.4-.268.341.341,0,0,1,.268.4c-.062.311-6.206,29.959-31.567,29.959" transform="translate(18.065 20.771)" fill="#1a1a1a"/>
      <path id="Trazado_604666" data-name="Trazado 604666" d="M57.322,159.474h-32.8a.339.339,0,0,1,0-.679h32.8a.339.339,0,0,1,0,.679" transform="translate(5.183 34.029)" fill="#1a1a1a"/>
      <path id="Trazado_604667" data-name="Trazado 604667" d="M36.847,143.033c-24.6-11.265-23.284-23.688-23.216-24.212,15.434,7.23,23.443,23.561,23.522,23.725-.08.427-.189.487-.306.487M14.289,119.409c.035,2.418,1.413,13.134,21.947,22.841-1.564-2.951-9.11-16.179-21.947-22.841" transform="translate(2.914 25.463)" fill="#1a1a1a"/>
      <path id="Trazado_604668" data-name="Trazado 604668" d="M41.219,150.331c-.574-.714,8.543-17.443,22.483-24.429.554.782,1.809,13.147-22.341,24.4a.337.337,0,0,1-.142.032m22.311-23.58c-11.963,6.237-20.251,19.674-22.024,22.732,20.568-9.72,21.984-20.325,22.024-22.732" transform="translate(8.827 26.98)" fill="#1a1a1a"/>
      <path id="Trazado_604669" data-name="Trazado 604669" d="M35.452,157.84a6.545,6.545,0,0,1-.862-.544c-3.656-2.713-15.868-12.545-19.624-25.348.519-.409,14.837,1.977,20.817,25.47-.2.4-.264.423-.33.423M15.786,132.312c3.939,12.488,16.332,22.291,19.1,24.356-5.3-19.627-16.5-23.671-19.1-24.356" transform="translate(3.207 28.268)" fill="#1a1a1a"/>
      <path id="Trazado_604670" data-name="Trazado 604670" d="M39.716,143.6c-18.275-17.847-12.431-29.041-12.172-29.51,10.738,10.532,12.5,26,12.746,28.993-.449.5-.512.517-.574.517m-11.77-28.741c-.855,2.21-3.615,12.568,11.623,27.777-.379-3.842-2.363-17.855-11.623-27.777" transform="translate(5.669 24.45)" fill="#1a1a1a"/>
      <path id="Trazado_604671" data-name="Trazado 604671" d="M44.427,118.646c-.138-.029-.867-.356-.867-.356C20.087,107.119,21.17,94.984,21.227,94.473c15.357,7.185,23.18,23.016,23.506,23.686-.128.452-.215.487-.306.487M21.895,95.061c.081,2.412,1.65,12.9,21.786,22.536-1.831-3.428-9.193-16-21.786-22.536" transform="translate(4.544 20.245)" fill="#1a1a1a"/>
      <path id="Trazado_604672" data-name="Trazado 604672" d="M43.137,106.04c-.352-.233-9.248-11.165-9.412-21.384.855-.178,10.245,3.463,9.911,20.864-.306.476-.4.52-.5.52M34.421,85.19c.4,8.528,6.8,17.459,8.544,19.741.093-14.23-6.674-18.762-8.544-19.741" transform="translate(7.227 18.14)" fill="#1a1a1a"/>
      <path id="Trazado_604673" data-name="Trazado 604673" d="M43.668,106.774a1.612,1.612,0,0,1-.232-1.106c2.062-3.887,9.673-16.716,22.6-23.194.546.782,1.647,13.05-22.228,24.269a.367.367,0,0,1-.143.032m.431-.948c20.116-9.6,21.68-20.089,21.76-22.5-12.4,6.432-19.743,18.749-21.76,22.5" transform="translate(9.305 17.674)" fill="#1a1a1a"/>
      <path id="Trazado_604674" data-name="Trazado 604674" d="M41.373,136.035c.334-2.267,8.245-17.22,22.378-24.3.548.783,1.648,13.054-22.235,24.274a.345.345,0,0,1-.143.03m22.2-23.451C51.03,119.1,43.559,131.841,41.79,135.123c20.139-9.637,21.7-20.127,21.782-22.539" transform="translate(8.866 23.944)" fill="#1a1a1a"/>
      <path id="Trazado_604675" data-name="Trazado 604675" d="M44.4,115.389c-.35-.852,11.514-13.247,25.03-16.485.34.838-1.666,11.507-24.775,16.406a.615.615,0,0,1-.255.079M69.027,99.7c-11.4,2.956-21.528,12.38-24.019,14.835C64.274,110.326,68.3,101.889,69.027,99.7" transform="translate(9.513 21.195)" fill="#1a1a1a"/>
      <path id="Trazado_604676" data-name="Trazado 604676" d="M36.911,171.66a.346.346,0,0,1-.336-.379L44.8,102.226a.347.347,0,0,1,.378-.3.342.342,0,0,1,.3.378l-8.224,69.056a.34.34,0,0,1-.338.3" transform="translate(7.837 21.843)" fill="#1a1a1a"/>
      <path id="Trazado_604677" data-name="Trazado 604677" d="M33.958,163.887a.34.34,0,0,1-.339-.323l-1.155-25.007a.341.341,0,0,1,.324-.356.345.345,0,0,1,.355.324L34.3,163.532a.338.338,0,0,1-.323.355Z" transform="translate(6.957 29.616)" fill="#1a1a1a"/>
      <path id="Trazado_604678" data-name="Trazado 604678" d="M32.137,160.745a.34.34,0,0,1-.339-.329l-.242-7.36a.34.34,0,0,1,.329-.35.345.345,0,0,1,.35.328l.24,7.36a.339.339,0,0,1-.328.351Z" transform="translate(6.763 32.724)" fill="#1a1a1a"/>
      <path id="Trazado_604679" data-name="Trazado 604679" d="M40.323,162.3a.344.344,0,0,1-.341-.356l.791-16.2c.007-.187.162-.3.355-.322a.338.338,0,0,1,.323.356l-.789,16.2a.339.339,0,0,1-.338.323" transform="translate(8.568 31.164)" fill="#1a1a1a"/>
      <path id="Trazado_604680" data-name="Trazado 604680" d="M38.921,143.6c-.329-.257-1.7-5.816-1.7-5.816a.34.34,0,0,1,.659-.163l1.372,5.558a.338.338,0,0,1-.248.412.311.311,0,0,1-.081.01" transform="translate(7.974 29.436)" fill="#1a1a1a"/>
      <path id="Trazado_604681" data-name="Trazado 604681" d="M39.87,135.227c-.317-.117-.387-.319-.3-.488l1.679-3.438a.335.335,0,0,1,.453-.155.34.34,0,0,1,.157.454l-1.679,3.436a.341.341,0,0,1-.3.191" transform="translate(8.472 28.097)" fill="#1a1a1a"/>
      <path id="Trazado_604682" data-name="Trazado 604682" d="M41.286,124.874c-.338-.31-1.234-10.682-1.234-10.682a.339.339,0,1,1,.675-.059l.9,10.374a.338.338,0,0,1-.307.367h-.03" transform="translate(8.583 24.391)" fill="#1a1a1a"/>
      <path id="Trazado_604683" data-name="Trazado 604683" d="M43.043,110.55c-.333-.278-1.84-8.443-1.84-8.443a.34.34,0,0,1,.273-.395.331.331,0,0,1,.393.272l1.506,8.165a.337.337,0,0,1-.272.395.356.356,0,0,1-.061.006" transform="translate(8.828 21.795)" fill="#1a1a1a"/>
      <path id="Trazado_604684" data-name="Trazado 604684" d="M41.788,119.749c-.307-.1-.385-.3-.311-.472l3.11-7.23a.339.339,0,1,1,.623.268l-3.11,7.23a.341.341,0,0,1-.312.2" transform="translate(8.883 23.967)" fill="#1a1a1a"/>
      <path id="Trazado_604685" data-name="Trazado 604685" d="M182.387,81.023c-3.427-4.442-4.631-10.914-4.68-11.186.029-.211,10.217-20.954,10.217-20.954a.339.339,0,1,1,.608.3L178.394,69.823c.174.872,1.424,6.782,4.266,10.662a.338.338,0,0,1-.273.539" transform="translate(38.082 10.435)" fill="#1a1a1a"/>
      <path id="Trazado_604686" data-name="Trazado 604686" d="M192.736,80.9c-.349-.171-.384-.383-.276-.535,2.763-3.886,3.781-9.689,3.917-10.53l-10.25-20.645a.339.339,0,0,1,.607-.3l10.3,20.743c-.006.469-.956,6.821-4.019,11.129a.336.336,0,0,1-.277.142" transform="translate(39.879 10.435)" fill="#1a1a1a"/>
      <path id="Trazado_604687" data-name="Trazado 604687" d="M193.678,75.437H181.621a.339.339,0,0,1,0-.679h12.057a.339.339,0,0,1,0,.679" transform="translate(38.848 16.02)" fill="#1a1a1a"/>
      <path id="Trazado_604688" data-name="Trazado 604688" d="M192.653,81.369h-9.872a2.461,2.461,0,0,1-2.459-2.458,2.5,2.5,0,0,1,2.459-2.635h9.872a2.461,2.461,0,0,1,2.458,2.459,2.5,2.5,0,0,1-2.458,2.634m-9.872-4.414a1.782,1.782,0,0,0-1.78,1.78,1.827,1.827,0,0,0,1.78,1.955h9.872a1.781,1.781,0,0,0,1.779-1.779,1.828,1.828,0,0,0-1.779-1.956Z" transform="translate(38.642 16.346)" fill="#1a1a1a"/>
      <path id="Trazado_604689" data-name="Trazado 604689" d="M187.013,68.853a3.589,3.589,0,1,1,3.591-3.591,3.593,3.593,0,0,1-3.591,3.591m0-6.5a2.911,2.911,0,1,0,2.912,2.911,2.913,2.913,0,0,0-2.912-2.911" transform="translate(39.307 13.217)" fill="#1a1a1a"/>
      <path id="Trazado_604690" data-name="Trazado 604690" d="M186.44,64.811a.339.339,0,0,1-.339-.339V49.387a.339.339,0,1,1,.678,0V64.472a.34.34,0,0,1-.339.339" transform="translate(39.881 10.511)" fill="#1a1a1a"/>
      <path id="Trazado_604691" data-name="Trazado 604691" d="M189.877,54.175h-.54a.339.339,0,0,1,0-.679h.54a1.4,1.4,0,0,0,1.4-1.4V47.406a1.4,1.4,0,0,0-1.4-1.4h-5.336a1.4,1.4,0,0,0-1.4,1.4V52.1a1.4,1.4,0,0,0,1.4,1.4h.663a.339.339,0,0,1,0,.679h-.663a2.077,2.077,0,0,1-2.075-2.075V47.406a2.076,2.076,0,0,1,2.075-2.074h5.336a2.077,2.077,0,0,1,2.076,2.074V52.1a2.078,2.078,0,0,1-2.076,2.075" transform="translate(39.102 9.714)" fill="#1a1a1a"/>
      <path id="Trazado_604692" data-name="Trazado 604692" d="M139.647,89.919a4.037,4.037,0,0,1-3.321-1.75.34.34,0,0,1,.561-.385,3.322,3.322,0,0,0,1.581,1.24,3.357,3.357,0,1,0-.857-5.807.339.339,0,0,1-.41-.54,4.036,4.036,0,1,1,2.447,7.242" transform="translate(29.201 17.539)" fill="#1a1a1a"/>
      <path id="Trazado_604693" data-name="Trazado 604693" d="M139.647,87.718a28.8,28.8,0,0,1-2.07-2.6c.18-.526,3.239-1.41,3.239-1.41a.34.34,0,0,1,.191.652l-2.595.749,1.509,2.073a.337.337,0,0,1-.074.474.332.332,0,0,1-.2.066" transform="translate(29.482 17.935)" fill="#1a1a1a"/>
      <path id="Trazado_604694" data-name="Trazado 604694" d="M135.3,96.457a5.215,5.215,0,0,1-4.229-2.2c-1.49-2.368-.284-5.693-.229-5.832l2.715-11.1a.331.331,0,0,1,.409-.249.34.34,0,0,1,.249.409l-2.727,11.14c-.023.068-1.154,3.191.159,5.275a4.561,4.561,0,0,0,3.687,1.876.34.34,0,0,1-.033.678" transform="translate(27.929 16.515)" fill="#1a1a1a"/>
      <path id="Trazado_604695" data-name="Trazado 604695" d="M130.925,86.786c-1.173-.273-1.628-1.083-1.41-1.86l1.683-6a1.464,1.464,0,0,1,1.8-1.014,1.143,1.143,0,0,1,.876,1.556.34.34,0,0,1-.655-.183c-.825-.837-1.253-.588-1.37-.175l-1.684,6a.784.784,0,0,0,1.143.895.776.776,0,0,0,.368-.47.343.343,0,0,1,.418-.236.339.339,0,0,1,.237.418,1.458,1.458,0,0,1-.69.88,1.481,1.481,0,0,1-.72.189" transform="translate(27.743 16.683)" fill="#1a1a1a"/>
      <path id="Trazado_604696" data-name="Trazado 604696" d="M119.241,164.032c-.287-.077-.38-.268-.322-.446.617-1.845,3.041-18.807,3.041-25.721a.339.339,0,0,1,.679,0c0,6.582-2.358,23.8-3.076,25.936a.339.339,0,0,1-.322.231" transform="translate(25.48 29.471)" fill="#1a1a1a"/>
      <path id="Trazado_604697" data-name="Trazado 604697" d="M160.977,120.4a5.878,5.878,0,0,1-1.751-.26.34.34,0,0,1-.222-.426.344.344,0,0,1,.423-.223,6.877,6.877,0,0,0,5.784-1.22c8.5-5.878,3.285-16.581-2.211-25.248a122.583,122.583,0,0,0-9.407-12.791.338.338,0,1,1,.52-.434,122.877,122.877,0,0,1,9.461,12.862c3.637,5.735,12.153,19.165,2.024,26.168a8.234,8.234,0,0,1-4.619,1.573" transform="translate(32.897 17.075)" fill="#1a1a1a"/>
      <path id="Trazado_604698" data-name="Trazado 604698" d="M159.124,172.008c-.357-.381-2.93-12.1-1.628-24.827,2.725-26.64,1.6-40.919-3.638-46.3a.339.339,0,0,1,.485-.474c5.468,5.612,6.612,19.621,3.827,46.841a86.378,86.378,0,0,0,1.285,24.345.339.339,0,0,1-.255.406.414.414,0,0,1-.075.007" transform="translate(32.951 21.495)" fill="#1a1a1a"/>
      <path id="Trazado_604699" data-name="Trazado 604699" d="M221.407,159.474H70.692a.339.339,0,0,1,0-.679H221.407a.339.339,0,0,1,0,.679" transform="translate(15.076 34.029)" fill="#1a1a1a"/>
      <path id="Trazado_604700" data-name="Trazado 604700" d="M141.552,103.692a8.739,8.739,0,0,1-1.49-.131c-2.949-.493-6.051-2.837-5.909-7.928a8.927,8.927,0,0,1,4.708-7.663.336.336,0,0,1,.45.163.342.342,0,0,1-.163.452,8.1,8.1,0,0,0-4.318,7.067c-.163,5.86,4.046,7.025,5.339,7.242,3.928.651,5.4-1.609,5.458-1.7a.34.34,0,0,1,.579.356,5.363,5.363,0,0,1-4.656,2.148" transform="translate(28.747 18.844)" fill="#1a1a1a"/>
      <path id="Trazado_604701" data-name="Trazado 604701" d="M152.745,109.54c-3.1,0-6.092-.991-7.666-2.552a.339.339,0,0,1,.477-.482c1.491,1.477,4.421,2.427,7.4,2.355a8.851,8.851,0,0,0,6.283-2.245c1.5-1.583,2.279-4.256,2.134-7.331a11.03,11.03,0,0,0-1.145-4.639,8.353,8.353,0,0,0-2.4-2.543,15.56,15.56,0,0,1-1.645-1.455,2.492,2.492,0,0,1-.808-1.526,4.808,4.808,0,0,1,.777-2.307c.2-.386.471-.91.471-.91a20.91,20.91,0,0,0,.962-2.052,10.7,10.7,0,0,0,.673-5.739c-.718-3.98-8.035-5.616-8.109-5.632-3.643-3.177-9.77-5-13.973-2.68-4.034,2.219-3.008,6.911-2.963,7.11.006.285.021,5.077,7.479,7.906a.338.338,0,0,1,.2.437.342.342,0,0,1-.438.2c-7.929-3.007-7.912-8.25-7.908-8.472-.01,0-1.169-5.309,3.307-7.773,4.444-2.443,10.856-.588,14.531,2.631.9.209,7.785,1.936,8.544,6.155a11.374,11.374,0,0,1-.7,6.1,21.481,21.481,0,0,1-.993,2.121l-.263.519a5.435,5.435,0,0,0-.91,2.348,1.924,1.924,0,0,0,.621,1.1,15.489,15.489,0,0,0,1.577,1.392,8.994,8.994,0,0,1,2.576,2.756,11.686,11.686,0,0,1,1.224,4.922c.091,1.915-.091,5.478-2.318,7.831a9.513,9.513,0,0,1-6.767,2.455l-.225,0" transform="translate(28.374 14.591)" fill="#1a1a1a"/>
      <path id="Trazado_604702" data-name="Trazado 604702" d="M200.17,142.18c-.386-.319-.338-.527-.18-.627.633-.395,1.267-.817,1.881-1.256a.339.339,0,0,1,.4.551c-.628.448-1.273.878-1.916,1.28a.343.343,0,0,1-.181.051m4.957-3.7c-.379-.256-.367-.471-.227-.6.96-.845,1.9-1.751,2.784-2.693a.338.338,0,0,1,.478-.016.342.342,0,0,1,.016.48c-.9.958-1.853,1.881-2.829,2.739a.333.333,0,0,1-.222.085m5.35-5.679c-.357-.187-.38-.4-.265-.548.787-1,1.549-2.063,2.263-3.146a.336.336,0,0,1,.471-.1.34.34,0,0,1,.1.47c-.727,1.1-1.5,2.175-2.3,3.192a.342.342,0,0,1-.268.129m4.3-6.511c-.325-.134-.387-.339-.3-.5.618-1.122,1.207-2.287,1.751-3.463a.338.338,0,0,1,.614.284c-.549,1.191-1.144,2.37-1.772,3.506a.338.338,0,0,1-.3.176m3.271-7.088c-.294-.089-.385-.284-.317-.459.458-1.213.877-2.45,1.248-3.679a.332.332,0,0,1,.424-.226.342.342,0,0,1,.227.424c-.379,1.241-.8,2.493-1.264,3.721a.34.34,0,0,1-.318.22m2.263-7.475c-.26-.051-.372-.233-.33-.415.29-1.248.544-2.532.752-3.812a.34.34,0,1,1,.67.112c-.213,1.293-.466,2.59-.76,3.853a.339.339,0,0,1-.332.262m1.267-7.7a.343.343,0,0,1-.338-.372c.128-1.3.213-2.6.254-3.875a.329.329,0,0,1,.351-.328.337.337,0,0,1,.327.35c-.044,1.288-.129,2.606-.256,3.919a.339.339,0,0,1-.338.306m.261-7.8a.339.339,0,0,1-.338-.329c-.041-1.308-.128-2.611-.251-3.875a.337.337,0,0,1,.3-.37.32.32,0,0,1,.372.3c.126,1.279.213,2.6.253,3.92a.34.34,0,0,1-.328.351Zm-.766-7.769a36.908,36.908,0,0,1-1.1-4.087.337.337,0,0,1,.249-.41.344.344,0,0,1,.408.253c.3,1.258.566,2.554.783,3.851a.34.34,0,0,1-.28.39.278.278,0,0,1-.055,0m-1.821-7.589c-.714-1.473-1.155-2.7-1.628-3.889a.34.34,0,1,1,.631-.253c.478,1.2.926,2.448,1.321,3.7a.337.337,0,0,1-.22.426.375.375,0,0,1-.1.016m-2.9-7.243c-.868-1.345-1.489-2.493-2.143-3.6a.339.339,0,1,1,.584-.345c.664,1.126,1.292,2.289,1.865,3.461a.338.338,0,0,1-.157.453.322.322,0,0,1-.149.035M212.39,66.9c-1.005-1.185-1.8-2.223-2.625-3.23a.338.338,0,0,1,.047-.477.345.345,0,0,1,.478.045c.84,1.021,1.639,2.073,2.376,3.129a.338.338,0,0,1-.277.533m-4.964-6.017c-1.134-1.021-2.076-1.922-3.044-2.78a.339.339,0,1,1,.448-.509c.984.868,1.939,1.781,2.841,2.714a.339.339,0,0,1-.245.574m-5.847-5.163c-1.223-.838-2.29-1.585-3.382-2.29a.339.339,0,1,1,.367-.571c1.107.715,2.188,1.472,3.219,2.251a.339.339,0,0,1-.2.61m-6.548-4.235c-1.27-.65-2.435-1.239-3.627-1.794a.34.34,0,0,1,.29-.616c1.2.561,2.381,1.157,3.5,1.773a.342.342,0,0,1,.134.461.338.338,0,0,1-.3.175" transform="translate(40.976 10.51)" fill="#1a1a1a"/>
      <path id="Trazado_604703" data-name="Trazado 604703" d="M205.841,51.731c-.608-1.492-1.024-2.709-1.566-3.881a.339.339,0,1,1,.614-.287,19,19,0,0,1,1.285,3.755.34.34,0,0,1-.257.406.405.405,0,0,1-.075.007m-35.454-4.67c-.359-.486-.227-.653-.041-.676a5.848,5.848,0,0,0,3.262-1.582.34.34,0,0,1,.469.492,6.558,6.558,0,0,1-3.648,1.764l-.041,0m-3.124-1.649c-.367-.442-.385-.622-.387-.814a5.739,5.739,0,0,1,1.083-2.99c.341-.494.549-.527.706-.423a.34.34,0,0,1,.078.474,5.661,5.661,0,0,0-1.188,2.935c.076.6-.041.776-.227.812a.383.383,0,0,1-.064,0m35.341-.729c-1-1.157-1.847-2.137-2.78-3.058a.339.339,0,1,1,.477-.482,23.418,23.418,0,0,1,2.579,3,.339.339,0,0,1-.08.475.333.333,0,0,1-.2.063m-26.745-2.6c-.3-.087-.385-.284-.318-.459a14.761,14.761,0,0,0,.85-3.71.345.345,0,0,1,.372-.3.338.338,0,0,1,.3.372,15.408,15.408,0,0,1-.889,3.881.34.34,0,0,1-.317.219m21.225-2.871a33.914,33.914,0,0,0-3.489-2.062.34.34,0,0,1-.152-.455.336.336,0,0,1,.455-.153,24.911,24.911,0,0,1,3.384,2.055.34.34,0,0,1-.2.616m-25.815-.094c-.387-.3-.347-.514-.192-.619a17.754,17.754,0,0,1,3.525-1.83.339.339,0,1,1,.249.63,17.054,17.054,0,0,0-3.392,1.76.339.339,0,0,1-.191.06m7.2-2.924c-.373-.448-.256-.629-.075-.67a32.969,32.969,0,0,1,3.9-.627.339.339,0,1,1,.067.674,32.443,32.443,0,0,0-3.815.616.313.313,0,0,1-.074.007M190.1,35.8a12.971,12.971,0,0,0-1.32-.239,25.13,25.13,0,0,0-2.562-.16.339.339,0,0,1,.006-.678,25.447,25.447,0,0,1,2.635.164,11.294,11.294,0,0,1,1.321.244.339.339,0,0,1-.08.669m-13.361-1.413c-.442-1.522-.645-2.8-.945-4.116a.34.34,0,1,1,.663-.151,28.43,28.43,0,0,1,.618,3.9.336.336,0,0,1-.307.366h-.029m-1.69-7.605c-.668-1.239-1.062-2.249-1.5-3.231l-.262-.589a.34.34,0,0,1,.164-.452.344.344,0,0,1,.451.168l.27.6c.442,1,.844,2.029,1.2,3.056a.34.34,0,0,1-.211.431.321.321,0,0,1-.111.019m-93.716-.31c-.335-.143-.387-.351-.291-.514.667-1.115,1.4-2.22,2.166-3.281a.339.339,0,1,1,.55.4C83,24.117,82.28,25.2,81.622,26.3a.337.337,0,0,1-.29.164m4.573-6.316c-.364-.205-.379-.419-.259-.561.85-.981,1.753-1.947,2.687-2.869a.34.34,0,1,1,.477.483c-.922.91-1.813,1.862-2.648,2.829a.342.342,0,0,1-.257.118m85.858-.444c-.956-1.264-1.689-2.339-2.47-3.355a.338.338,0,1,1,.535-.414,35.37,35.37,0,0,1,2.225,3.254.341.341,0,0,1-.114.466.347.347,0,0,1-.176.049M91.456,14.673c-.38-.264-.361-.477-.219-.6.985-.832,2.025-1.647,3.092-2.423a.339.339,0,0,1,.4.549c-1.054.766-2.08,1.57-3.053,2.392a.334.334,0,0,1-.22.08m75.561-1.146c-1.143-1.033-2.1-1.915-3.082-2.727a.339.339,0,1,1,.43-.525,34.781,34.781,0,0,1,2.9,2.678.341.341,0,0,1-.01.481.335.335,0,0,1-.234.094M97.763,10.083c-.387-.318-.339-.528-.18-.627,1.1-.69,2.248-1.352,3.4-1.968a.34.34,0,0,1,.319.6c-1.138.607-2.267,1.262-3.359,1.944a.345.345,0,0,1-.18.051m63.231-1.5c-.8-.453-1.342-.778-1.847-1.049q-.851-.459-1.715-.884a.339.339,0,0,1,.3-.608q.876.43,1.736.895c.523.281,1.081.616,1.71,1.024a.339.339,0,0,1-.185.623M104.642,6.4c-.386-.37-.312-.572-.141-.648,1.188-.54,2.406-1.048,3.623-1.512a.34.34,0,0,1,.24.635c-1.2.457-2.408.959-3.582,1.494a.344.344,0,0,1-.141.032m49.384-1.322c-1.318-.512-2.543-.967-3.768-1.373a.339.339,0,1,1,.213-.645c1.242.413,2.482.871,3.683,1.366a.339.339,0,0,1-.128.652m-42.091-1.46c-.379-.417-.279-.607-.1-.663,1.234-.385,2.506-.74,3.779-1.055a.34.34,0,1,1,.164.659c-1.26.313-2.52.663-3.742,1.044a.355.355,0,0,1-.1.015m34.685-1c-1.328-.334-2.6-.619-3.872-.861a.336.336,0,0,1-.27-.4.332.332,0,0,1,.4-.271c1.286.245,2.573.533,3.831.86a.339.339,0,0,1-.085.668m-27.107-.867c-.368-.463-.245-.639-.061-.674,1.281-.234,2.586-.435,3.88-.594a.353.353,0,0,1,.379.3.343.343,0,0,1-.3.379c-1.28.157-2.571.353-3.841.587a.343.343,0,0,1-.061.006m19.441-.593Q136.989.915,135.046.8a.342.342,0,0,1-.319-.361.364.364,0,0,1,.359-.318c1.31.081,2.628.2,3.91.362a.34.34,0,0,1-.043.678M127.259.8c-.351-.505-.206-.665-.022-.679,1.315-.08,2.636-.12,3.926-.12a.339.339,0,1,1,0,.678c-1.276,0-2.583.04-3.882.121Z" transform="translate(17.358 0)" fill="#1a1a1a"/>
      <path id="Trazado_604704" data-name="Trazado 604704" d="M100.046,101.392a.342.342,0,0,1-.34-.347,60.243,60.243,0,0,1,.843-8.522c.7-3.362-1.872-8.955-3.515-9.578a2.251,2.251,0,0,0-2.206.119,1.268,1.268,0,0,0-.407,1.243,13.42,13.42,0,0,0,1.186,3.713,3.89,3.89,0,0,1,.387,3.415c-.67,1.894-1.717,2.16-2.136,2.185a1.3,1.3,0,0,1-1.252-.682c-.363-.73-1.7-6.267.417-9.134,1.056-1.348,1.779-2.449.76-3.426a2.493,2.493,0,0,0-3.015.153c-1.29.978-1.906,2.875-2.357,4.261a16.774,16.774,0,0,0,0,9.68.34.34,0,0,1-.641.226,17.151,17.151,0,0,1,0-10.115c.478-1.473,1.134-3.487,2.591-4.591a3.149,3.149,0,0,1,3.9-.1,2.054,2.054,0,0,1,.527,2.4,3.159,3.159,0,0,1,2.494.019c2.093.794,4.675,6.806,3.94,10.352a59.013,59.013,0,0,0-.828,8.4.34.34,0,0,1-.34.329M93.72,84.013c-2.052,2.775-.831,7.972-.506,8.619a.61.61,0,0,0,.6.311c.593-.036,1.167-.685,1.539-1.735a3.277,3.277,0,0,0-.364-2.9,14,14,0,0,1-1.237-3.883,2.346,2.346,0,0,1-.033-.407" transform="translate(18.644 16.985)" fill="#1a1a1a"/>
      <path id="Trazado_604705" data-name="Trazado 604705" d="M85.182,95.41c-1-3.462-1.545-10.363,1.18-13.623a4.94,4.94,0,0,1,4.165-1.8.34.34,0,0,1,.329.347.347.347,0,0,1-.347.331,4.372,4.372,0,0,0-3.626,1.556c-2.557,3.062-2.015,9.7-1.37,12.78a.338.338,0,0,1-.263.4.316.316,0,0,1-.068.007" transform="translate(18.079 17.14)" fill="#1a1a1a"/>
      <path id="Trazado_604706" data-name="Trazado 604706" d="M93.295,85.831c-.386-.325-.334-.533-.174-.629l3.348-2.01a.339.339,0,1,1,.35.582l-3.348,2.008a.344.344,0,0,1-.176.049m6.7-4.019c-.387-.324-.335-.533-.175-.629l3.349-2.01a.339.339,0,0,1,.347.582l-3.347,2.01a.347.347,0,0,1-.175.047m6.7-4.018c-.387-.325-.335-.534-.175-.631l3.349-2.008a.339.339,0,0,1,.349.582l-3.348,2.01a.34.34,0,0,1-.175.049m6.7-4.019c-.389-.325-.336-.533-.176-.629l3.35-2.011a.339.339,0,0,1,.349.582l-3.349,2.011a.331.331,0,0,1-.174.047m6.7-4.018c-.387-.325-.335-.534-.175-.63l3.349-2.01a.34.34,0,0,1,.351.582l-3.35,2.01a.34.34,0,0,1-.175.049m6.7-4.019c-.386-.325-.335-.533-.175-.629l3.347-2.01a.34.34,0,1,1,.352.582l-3.348,2.008a.347.347,0,0,1-.176.049" transform="translate(19.93 13.511)" fill="#1a1a1a"/>
      <path id="Trazado_604707" data-name="Trazado 604707" d="M86.136,104.417c-3.693-5.376-3.678-11.505-3.672-14.8.01-3.99,3.311-6.861,3.451-6.982a.339.339,0,1,1,.442.515c-.033.027-3.206,2.8-3.214,6.469-.007,3.223-.021,9.221,3.277,14.273a.339.339,0,0,1-.1.47.335.335,0,0,1-.186.055" transform="translate(17.672 17.691)" fill="#1a1a1a"/>
      <path id="Trazado_604708" data-name="Trazado 604708" d="M134.6,77.55a48.3,48.3,0,0,0-5.2-3.158c-3.226-1.637-6.314-7.406-5.628-9.538a3.152,3.152,0,0,1,1.54-1.959,2.06,2.06,0,0,1-1.547-1.914c-.131-1.413,1.2-2.647,2.511-2.98,1.77-.449,3.756.3,5.2.84a17.186,17.186,0,0,1,7.9,6.313.34.34,0,0,1-.576.361,16.785,16.785,0,0,0-7.567-6.039c-1.364-.512-3.231-1.219-4.8-.817-1.043.265-2.1,1.236-2,2.261.129,1.406,1.439,1.528,3.141,1.543,3.575.14,7.067,4.635,7.406,5.374a1.29,1.29,0,0,1-.244,1.4c-.282.311-1.138.967-3.041.307a3.891,3.891,0,0,1-2.426-2.435,13.411,13.411,0,0,0-2.164-3.243,1.26,1.26,0,0,0-1.226-.459,2.241,2.241,0,0,0-1.466,1.649c-.54,1.675,2.227,7.173,5.289,8.725a32.29,32.29,0,0,1,5.1,3.16.34.34,0,0,1,.056.477.346.346,0,0,1-.267.128m-7.278-14.41a14.107,14.107,0,0,1,2.559,3.668c.531,1.052.85,1.684,2.042,2.1,1.056.366,1.916.319,2.317-.121a.616.616,0,0,0,.131-.664c-.374-.81-3.756-4.862-6.807-4.98l-.242,0" transform="translate(26.504 12.4)" fill="#1a1a1a"/>
      <path id="Trazado_604709" data-name="Trazado 604709" d="M145.405,71.55a19.45,19.45,0,0,0-7.941-11.226c-2.763-2-6.441-4-10.427-1.628a.34.34,0,0,1-.347-.584c4.328-2.567,8.243-.458,11.173,1.664a18.39,18.39,0,0,1,7.874,11.352.343.343,0,0,1-.245.413.424.424,0,0,1-.085.01" transform="translate(27.113 12.2)" fill="#1a1a1a"/>
      <path id="Trazado_604710" data-name="Trazado 604710" d="M6.9,67.306A2.344,2.344,0,0,1,5.14,66.43L.443,60.2a2.2,2.2,0,0,1,.434-3.081l6.228-4.7a2.2,2.2,0,0,1,3.081.432l4.7,6.229a2.2,2.2,0,0,1-.434,3.082l-6.229,4.7a2.186,2.186,0,0,1-1.319.443M8.427,52.661a1.508,1.508,0,0,0-.913.306l-6.229,4.7a1.52,1.52,0,0,0-.3,2.131l4.7,6.228a1.522,1.522,0,0,0,2.13.3l6.231-4.7a1.523,1.523,0,0,0,.3-2.13l-4.7-6.229a1.525,1.525,0,0,0-1.217-.6" transform="translate(0 11.14)" fill="#1a1a1a"/>
      <path id="Trazado_604711" data-name="Trazado 604711" d="M15.878,54.112a.342.342,0,0,1-.339-.345,1.591,1.591,0,0,0-.322-.985l-4.6-6.105a1.594,1.594,0,0,0-2.238-.313l-6.105,4.6a1.6,1.6,0,0,0-.621,1.044.338.338,0,1,1-.669-.1,2.265,2.265,0,0,1,.882-1.489l6.107-4.6a2.277,2.277,0,0,1,3.188.448l4.6,6.105a2.251,2.251,0,0,1,.458,1.4.339.339,0,0,1-.339.335" transform="translate(0.209 9.721)" fill="#1a1a1a"/>
      <path id="Trazado_604712" data-name="Trazado 604712" d="M7.41,52.981a.35.35,0,0,1-.336-.387L7.916,46.6a.339.339,0,1,1,.672.093l-.842,6a.341.341,0,0,1-.336.291" transform="translate(1.515 9.923)" fill="#1a1a1a"/>
      <path id="Trazado_604713" data-name="Trazado 604713" d="M128.521,93.268H100.18a.339.339,0,0,1,0-.679h28.342a16.009,16.009,0,0,0,7.484-1.775.34.34,0,1,1,.307.606,16.9,16.9,0,0,1-7.791,1.848" transform="translate(21.396 19.453)" fill="#1a1a1a"/>
      <path id="Trazado_604714" data-name="Trazado 604714" d="M85.894,92.949H60.05a.339.339,0,1,1,0-.679H85.894a.339.339,0,0,1,0,.679" transform="translate(12.796 19.773)" fill="#1a1a1a"/>
      <path id="Trazado_604715" data-name="Trazado 604715" d="M49.617,106.493a22.789,22.789,0,0,1-5.786-3.226c-2.108-1.573-4.467-5.935-4.567-6.121a17.663,17.663,0,0,1-1.574-7.322V41.645A17.807,17.807,0,0,1,55.477,23.859H79.3a.339.339,0,0,1,0,.678H55.477A17.128,17.128,0,0,0,38.369,41.645V89.823a16.962,16.962,0,0,0,1.5,7.022c.012.023,2.378,4.395,4.365,5.877a22.855,22.855,0,0,0,5.5,3.115.339.339,0,0,1-.121.656" transform="translate(8.077 5.113)" fill="#1a1a1a"/>
      <path id="Trazado_604716" data-name="Trazado 604716" d="M147.854,67.39a.339.339,0,0,1-.339-.339V41.646a17.13,17.13,0,0,0-17.108-17.109H90.623a.338.338,0,1,1,0-.676h39.784a17.806,17.806,0,0,1,17.787,17.786V67.051a.339.339,0,0,1-.34.339" transform="translate(19.347 5.113)" fill="#1a1a1a"/>
      <path id="Trazado_604717" data-name="Trazado 604717" d="M191.638,154.436H157.416a.339.339,0,1,1,0-.678h34.223a8.307,8.307,0,0,0,8.3-8.3v-25.72a8.306,8.306,0,0,0-8.3-8.3H165.663a.339.339,0,0,1,0-.679h25.975a8.984,8.984,0,0,1,8.976,8.975v25.72a8.984,8.984,0,0,1-8.976,8.975" transform="translate(33.661 23.737)" fill="#1a1a1a"/>
      <path id="Trazado_604718" data-name="Trazado 604718" d="M.418,59.12a.35.35,0,0,1-.336-.387l1.154-8.15a.355.355,0,0,1,.384-.288.34.34,0,0,1,.288.384L.754,58.827a.342.342,0,0,1-.336.293" transform="translate(0.017 10.778)" fill="#1a1a1a"/>
      <path id="Trazado_604719" data-name="Trazado 604719" d="M12.373,60.662a.351.351,0,0,1-.336-.387l1.154-8.149a.356.356,0,0,1,.384-.289.34.34,0,0,1,.289.384l-1.154,8.149a.341.341,0,0,1-.336.293" transform="translate(2.579 11.108)" fill="#1a1a1a"/>
      <path id="Trazado_604720" data-name="Trazado 604720" d="M153.428,41.5H42.016a.339.339,0,1,1,0-.679H153.428a.339.339,0,0,1,0,.679" transform="translate(8.931 8.747)" fill="#1a1a1a"/>
      <path id="Trazado_604721" data-name="Trazado 604721" d="M128.519,38.145a4.067,4.067,0,1,1,4.067-4.067,4.071,4.071,0,0,1-4.067,4.067m0-7.456a3.389,3.389,0,1,0,3.388,3.389,3.393,3.393,0,0,0-3.388-3.389" transform="translate(26.67 6.431)" fill="#1a1a1a"/>
      <path id="Trazado_604722" data-name="Trazado 604722" d="M118.928,38.145a4.067,4.067,0,1,1,4.065-4.067,4.07,4.07,0,0,1-4.065,4.067m0-7.456a3.389,3.389,0,1,0,3.387,3.389,3.393,3.393,0,0,0-3.387-3.389" transform="translate(24.614 6.431)" fill="#1a1a1a"/>
      <path id="Trazado_604723" data-name="Trazado 604723" d="M109.338,38.145a4.067,4.067,0,1,1,4.067-4.067,4.072,4.072,0,0,1-4.067,4.067m0-7.456a3.389,3.389,0,1,0,3.388,3.389,3.392,3.392,0,0,0-3.388-3.389" transform="translate(22.559 6.431)" fill="#1a1a1a"/>
      <path id="Trazado_604724" data-name="Trazado 604724" d="M132.156,84.212H96.9a.339.339,0,0,1,0-.679h34.92V70.941a.339.339,0,1,1,.678,0V83.873a.339.339,0,0,1-.339.339" transform="translate(20.692 15.13)" fill="#1a1a1a"/>
      <path id="Trazado_604725" data-name="Trazado 604725" d="M88.638,83.457a.339.339,0,0,1-.339-.339v-26.1a.34.34,0,0,1,.339-.34h41.789a.339.339,0,0,1,0,.679H88.977V83.118a.339.339,0,0,1-.339.339" transform="translate(18.922 12.146)" fill="#1a1a1a"/>
      <path id="Trazado_604726" data-name="Trazado 604726" d="M74.261,94.3a.339.339,0,0,1-.339-.339v-47.9a.339.339,0,0,1,.678,0v47.9a.339.339,0,0,1-.339.339" transform="translate(15.841 9.797)" fill="#1a1a1a"/>
      <path id="Trazado_604727" data-name="Trazado 604727" d="M61.068,63.005h-13.5a.339.339,0,0,1-.339-.34V49.171a.339.339,0,0,1,.339-.339h13.5a.339.339,0,0,1,.339.339V62.665a.339.339,0,0,1-.339.34m-13.157-.678H60.728V49.51H47.912Z" transform="translate(10.122 10.465)" fill="#1a1a1a"/>
      <path id="Trazado_604728" data-name="Trazado 604728" d="M61.068,82.131h-13.5a.34.34,0,0,1-.339-.34V68.3a.339.339,0,0,1,.339-.339h13.5a.339.339,0,0,1,.339.339v13.5a.34.34,0,0,1-.339.34m-13.157-.679H60.728V68.636H47.912Z" transform="translate(10.122 14.563)" fill="#1a1a1a"/>
      <path id="Trazado_604729" data-name="Trazado 604729" d="M82.41,151.417a7.645,7.645,0,1,1,7.644-7.644,7.653,7.653,0,0,1-7.644,7.644m0-14.61a6.966,6.966,0,1,0,6.965,6.966,6.973,6.973,0,0,0-6.965-6.966" transform="translate(16.022 29.172)" fill="#1a1a1a"/>
      <path id="Trazado_604730" data-name="Trazado 604730" d="M20.452,23.81c-.373-.231-.373-.447-.24-.579l6.364-6.364a.338.338,0,1,1,.478.478l-6.363,6.365a.33.33,0,0,1-.239.1" transform="translate(4.314 3.593)" fill="#1a1a1a"/>
      <path id="Trazado_604731" data-name="Trazado 604731" d="M26.819,23.81c-.24-.1-6.6-6.465-6.6-6.465a.338.338,0,0,1,0-.478.334.334,0,0,1,.478,0l6.364,6.364a.335.335,0,0,1,0,.48.325.325,0,0,1-.238.1" transform="translate(4.311 3.593)" fill="#1a1a1a"/>
      <path id="Trazado_604732" data-name="Trazado 604732" d="M123.512,140.607c-1.621-4.537-6.3-7.538-11.712-7.538-5.1,0-9.592,2.674-11.162,6.652a.339.339,0,0,1-.631-.249c1.672-4.235,6.411-7.081,11.793-7.081,5.707,0,10.655,3.2,12.037,7.78a.336.336,0,0,1-.325.436" transform="translate(21.426 28.371)" fill="#1a1a1a"/>
    </g>
  </g>
</svg>
