<svg xmlns="http://www.w3.org/2000/svg" xmlns:xlink="http://www.w3.org/1999/xlink" width="62" height="62" viewBox="0 0 62 62">
  <defs>
    <clipPath id="clip-path">
      <rect id="Rectángulo_345581" data-name="Rectángulo 345581" width="36.838" height="36.821" fill="none"/>
    </clipPath>
  </defs>
  <g id="Grupo_1014936" data-name="Grupo 1014936" transform="translate(-1265 -12906)">
    <g id="Grupo_1014859" data-name="Grupo 1014859" transform="translate(880.001 10848)">
      <path id="Unión_12" data-name="Unión 12" d="M44.385,58.97a31.027,31.027,0,1,1,10.348-8.025L58.991,62Z" transform="translate(384.999 2058)" fill="#a3bfe4"/>
      <circle id="Elipse_4842" data-name="Elipse 4842" cx="26" cy="26" r="26" transform="translate(389.999 2063)" fill="#fff"/>
    </g>
    <g id="Grupo_1014904" data-name="Grupo 1014904" transform="translate(1278.162 12919.18)">
      <g id="Grupo_1014903" data-name="Grupo 1014903" clip-path="url(#clip-path)">
        <path id="Trazado_604618" data-name="Trazado 604618" d="M36.837,23.953c-3.956,0-7.913.007-11.869-.022a1.5,1.5,0,0,0-1.278.574c-1.514,1.733-3.074,3.426-4.6,5.145a1.18,1.18,0,0,1-.968.43c-2.805-.014-5.611-.007-8.416-.007H9.21v.388q0,1.852,0,3.7c0,.552-.141.734-.667.855-2.309.532-4.626,1.036-6.924,1.615A5.4,5.4,0,0,1,0,36.816c0-.194-.006-.371,0-.546.017-.393.175-.576.609-.677q2.762-.645,5.527-1.282c.513-.119,1.023-.254,1.54-.35.258-.048.314-.163.311-.408-.013-1.246-.006-2.493-.006-3.74,0-.807.148-.955.967-.966.071,0,.141-.006.235-.011V26.372a.6.6,0,0,0-.071-.036c-.549-.184-.86.058-1.135.534a22.573,22.573,0,0,1-4.5,5.513c-.187.168-.352.361-.537.531a.614.614,0,0,1-.954.01q-.893-.861-1.754-1.755c-.327-.339-.307-.647.044-1,.606-.615,1.232-1.21,1.825-1.836a7.039,7.039,0,0,0,.814-1.039c.463-.725.891-1.473,1.3-2.157a11.035,11.035,0,0,1-.6-1.19A2.962,2.962,0,0,1,3.706,21.8C4.3,20.273,4.88,18.74,5.478,17.214a.419.419,0,0,0-.11-.525,3.492,3.492,0,0,1-.81-3.882,3.489,3.489,0,0,1,3.2-2.353A3.5,3.5,0,0,1,11.2,12.367a3.6,3.6,0,0,1-.5,4.234c-.069.076-.137.154-.243.272.579.094,1.1.188,1.633.259a.645.645,0,0,0,.337-.091q1.513-.748,3.02-1.508a1.538,1.538,0,0,0,.325-.22q2.488-2.208,4.972-4.42c.045-.04.095-.074.17-.132a3.728,3.728,0,0,1-1.241-3.144,3.51,3.51,0,0,1,1.112-2.275,3.642,3.642,0,0,1,4.737-.309c1.722,1.371,1.921,3.073.614,5.374H30.7V10c0-3.033,0-6.065-.006-9.1a.989.989,0,0,1,.385-.9h.432c.079.049.155.1.238.146,1.5.749,3,1.491,4.487,2.251a3.714,3.714,0,0,1,.6.48v.36a3.029,3.029,0,0,1-.554.481Q34.3,4.735,32.3,5.707a.563.563,0,0,0-.376.592c.012,3.68.008,7.36.008,11.04v.427H30.691V14.133H25.673l-.381,1.936c.666.114,1.279.217,1.891.323a1.845,1.845,0,0,1,1.67,1.99c0,1.307,0,2.613,0,3.92v.417h.467l7.517.012Zm-12.3-3.7a.824.824,0,0,0-1.174.424c-.573.954-1.222,1.862-1.843,2.788a2.462,2.462,0,0,1-.285.368q-1.445,1.455-2.9,2.9a.651.651,0,0,1-1.06,0q-.82-.807-1.628-1.627c-.392-.4-.388-.7.014-1.11.684-.69,1.373-1.374,2.058-2.062a1.7,1.7,0,0,0,.259-.3q.765-1.259,1.513-2.528a.347.347,0,0,0,.017-.283c-.237-.477-.492-.944-.744-1.419-.439.314-.912.7-1.433,1.013-1.307.777-2.633,1.524-3.961,2.265a1.522,1.522,0,0,1-.677.175c-.79.021-1.58.008-2.389.008l-.333,1.347c.613.1,1.177.207,1.743.3a1.889,1.889,0,0,1,1.8,2.072c0,1.283,0,2.566,0,3.848v.382a.768.768,0,0,0,.138.034c1.439,0,2.878.008,4.316-.007a.61.61,0,0,0,.375-.214c1.578-1.741,3.159-3.48,4.712-5.243a1.489,1.489,0,0,1,1.4-.673c.018,0,.04-.022.078-.045ZM12.28,28.834c0-1.513.01-2.984-.006-4.456,0-.4-.214-.569-.644-.641-.779-.131-1.56-.252-2.338-.39-.589-.1-.775-.393-.634-.968q.26-1.063.538-2.122c.123-.473.3-.615.783-.617.815,0,1.63.008,2.444-.008a1.279,1.279,0,0,0,.571-.15c.849-.468,1.687-.955,2.529-1.437.256-.147.51-.3.786-.458l-.56-.836c-.916.458-1.816.878-2.686,1.354a2.114,2.114,0,0,1-1.475.212,19.714,19.714,0,0,0-4.735-.525.368.368,0,0,0-.394.264c-.528,1.4-1.083,2.787-1.6,4.191a2.2,2.2,0,0,0-.139,1.013,1.867,1.867,0,0,0,1.934,1.623c1.038.085,2.076.184,3.113.283a.63.63,0,0,1,.663.724c.006.839,0,1.677,0,2.516,0,.139,0,.278,0,.428Zm18.4-17.146a.821.821,0,0,0-.133-.027c-2.806,0-5.611,0-8.417.006a.408.408,0,0,0-.3.216c-.561,1.425-1.126,2.849-1.651,4.288a1.823,1.823,0,0,0,1.612,2.54c1.061.108,2.124.194,3.186.292.622.057.8.244.8.862,0,.7,0,1.39,0,2.086v.75H27.59a.463.463,0,0,0,.035-.114c0-1.439.007-2.877,0-4.315a.607.607,0,0,0-.585-.654c-.8-.145-1.605-.275-2.407-.416-.578-.1-.755-.362-.64-.93q.267-1.32.533-2.64c.122-.606.287-.747.892-.747q2.428,0,4.856,0h.408ZM25.776,7.965a2.443,2.443,0,0,0-2.45-2.431,2.448,2.448,0,1,0,2.45,2.431m-17.781,8.6a2.453,2.453,0,0,0,2.439-2.447,2.449,2.449,0,1,0-4.9.024,2.444,2.444,0,0,0,2.459,2.423M5.182,25.855a13.733,13.733,0,0,1-3.705,4.78l.97.985a19.185,19.185,0,0,0,4.479-5.449l-1.744-.316m12.617-.35a22.371,22.371,0,0,0,4.47-5.455c-.507-.11-1.016-.231-1.531-.324a.348.348,0,0,0-.266.154c-.295.465-.554.953-.859,1.411a16.45,16.45,0,0,1-1.19,1.652c-.489.567-1.055,1.067-1.582,1.592l.958.969M34.851,3.067l-2.9-1.443V4.517l2.9-1.45M19.941,13.356l-.065-.053-3.1,2.761.572.853c.56-.423,1.095-.825,1.626-1.23a.414.414,0,0,0,.137-.162c.282-.722.557-1.446.835-2.169" transform="translate(0)" fill="#566377"/>
        <path id="Trazado_604619" data-name="Trazado 604619" d="M5.529,0A16.28,16.28,0,0,1,7.4.671a3.648,3.648,0,0,0,2.007.56,3.716,3.716,0,0,1,3.533,3.538c.005.513-.216.759-.732.76q-5.7.007-11.393,0c-.534,0-.761-.251-.751-.782A4.941,4.941,0,0,1,4.112.077,2.385,2.385,0,0,0,4.378,0ZM1.385,4.279H11.609A2.375,2.375,0,0,0,8.686,2.553a.965.965,0,0,1-1.08-.192,3.567,3.567,0,0,0-3.829-.923A3.589,3.589,0,0,0,1.385,4.279" transform="translate(-0.06)" fill="#627289"/>
        <rect id="Rectángulo_345578" data-name="Rectángulo 345578" width="1.193" height="1.167" transform="translate(9.235 6.788)" fill="#627289"/>
        <rect id="Rectángulo_345579" data-name="Rectángulo 345579" width="1.192" height="1.173" transform="translate(11.677 6.78)" fill="#627289"/>
        <rect id="Rectángulo_345580" data-name="Rectángulo 345580" width="1.182" height="1.177" transform="translate(14.137 6.786)" fill="#627289"/>
        <path id="Trazado_604620" data-name="Trazado 604620" d="M56.59,186.427H54.746V186c0-.839,0-1.677,0-2.516a.63.63,0,0,0-.663-.723c-1.037-.1-2.075-.2-3.113-.283a1.867,1.867,0,0,1-1.934-1.623,2.2,2.2,0,0,1,.139-1.013c.515-1.4,1.07-2.792,1.6-4.19a.368.368,0,0,1,.394-.264,19.715,19.715,0,0,1,4.735.525,2.114,2.114,0,0,0,1.475-.212c.87-.475,1.77-.9,2.686-1.354l.56.836c-.276.161-.53.311-.786.458-.841.482-1.68.969-2.529,1.437a1.28,1.28,0,0,1-.571.15c-.815.016-1.63,0-2.444.008-.48,0-.66.144-.783.617q-.275,1.059-.538,2.122c-.141.575.045.863.634.968.778.138,1.559.259,2.338.39.43.072.64.246.644.641.016,1.471.006,2.943.006,4.456" transform="translate(-44.31 -157.593)" fill="#fff"/>
        <path id="Trazado_604621" data-name="Trazado 604621" d="M219.262,121.368v1.2h-.408q-2.428,0-4.856,0c-.605,0-.771.142-.892.747q-.266,1.32-.533,2.64c-.115.568.062.829.64.93.8.14,1.606.27,2.407.415a.607.607,0,0,1,.585.654c.007,1.438,0,2.877,0,4.315a.459.459,0,0,1-.035.114h-1.808v-.75c0-.7,0-1.391,0-2.086,0-.618-.178-.805-.8-.862-1.062-.1-2.125-.184-3.186-.292a1.823,1.823,0,0,1-1.612-2.54c.525-1.439,1.089-2.863,1.651-4.288a.408.408,0,0,1,.3-.216c2.806-.011,5.611-.008,8.417-.006a.819.819,0,0,1,.133.027" transform="translate(-188.581 -109.68)" fill="#fff"/>
        <path id="Trazado_604622" data-name="Trazado 604622" d="M222.145,60.02a2.453,2.453,0,0,1-2.421,2.465,2.448,2.448,0,1,1-.029-4.9,2.442,2.442,0,0,1,2.45,2.431" transform="translate(-196.369 -52.055)" fill="#fff"/>
        <path id="Trazado_604623" data-name="Trazado 604623" d="M60.074,126.263a2.45,2.45,0,1,1-.006-4.9,2.479,2.479,0,0,1,2.445,2.454,2.453,2.453,0,0,1-2.439,2.447" transform="translate(-52.079 -109.701)" fill="#fff"/>
        <path id="Trazado_604624" data-name="Trazado 604624" d="M19.076,269.077l1.743.316a19.187,19.187,0,0,1-4.478,5.449l-.97-.985a13.735,13.735,0,0,0,3.705-4.78" transform="translate(-13.894 -243.222)" fill="#fff"/>
        <path id="Trazado_604625" data-name="Trazado 604625" d="M176.224,211.061l-.958-.969c.527-.525,1.093-1.025,1.582-1.592a16.448,16.448,0,0,0,1.19-1.652c.305-.458.565-.946.86-1.411a.347.347,0,0,1,.266-.154c.514.093,1.024.213,1.531.324a22.373,22.373,0,0,1-4.47,5.455" transform="translate(-158.425 -185.556)" fill="#fff"/>
        <path id="Trazado_604626" data-name="Trazado 604626" d="M335.432,18.347l-2.9,1.449V16.9l2.9,1.443" transform="translate(-300.581 -15.28)" fill="#fff"/>
        <path id="Trazado_604627" data-name="Trazado 604627" d="M177.717,138.5c-.277.723-.553,1.447-.835,2.169a.415.415,0,0,1-.137.162c-.531.405-1.066.807-1.626,1.23l-.572-.853,3.1-2.761.065.053" transform="translate(-157.776 -125.147)" fill="#fff"/>
        <path id="Trazado_604628" data-name="Trazado 604628" d="M13.8,15.868a3.638,3.638,0,0,1,6.22-1.919.965.965,0,0,0,1.08.192,2.375,2.375,0,0,1,2.923,1.726Z" transform="translate(-12.47 -11.589)" fill="#fff"/>
      </g>
    </g>
  </g>
</svg>
