<svg xmlns="http://www.w3.org/2000/svg" xmlns:xlink="http://www.w3.org/1999/xlink" width="85" height="85" viewBox="0 0 85 85">
  <defs>
    <clipPath id="clip-path">
      <rect id="Rectángulo_345323" data-name="Rectángulo 345323" width="57.628" height="57.632" fill="none"/>
    </clipPath>
  </defs>
  <g id="Grupo_1015215" data-name="Grupo 1015215" transform="translate(-414 -13925)">
    <g id="Grupo_1013475" data-name="Grupo 1013475" transform="translate(0 6563)">
      <circle id="Elipse_4848" data-name="Elipse 4848" cx="42.5" cy="42.5" r="42.5" transform="translate(414 7362)" fill="#a3bfe4"/>
    </g>
    <g id="Grupo_1014672" data-name="Grupo 1014672" transform="translate(428 13939)">
      <g id="Grupo_1014671" data-name="Grupo 1014671" clip-path="url(#clip-path)">
        <path id="Trazado_601555" data-name="Trazado 601555" d="M0,21.848c.1-.431.185-.867.307-1.293a10.4,10.4,0,0,1,8.778-7.943c.074-.013.147-.03.219-.049s.143-.044.273-.084c0-1.557.008-3.127-.016-4.7,0-.113-.216-.268-.362-.327A3.884,3.884,0,0,1,6.781,3.111a3.859,3.859,0,0,1,7.582.092A3.859,3.859,0,0,1,12,7.417a.568.568,0,0,0-.451.637c.018,1.331.009,2.663.005,3.994,0,.253-.017.491.33.533a10.588,10.588,0,0,1,5.493,2.393c1.844-1.577,3.67-3.133,5.485-4.7a.691.691,0,0,0,.209-.42A10.584,10.584,0,0,1,44.01,8.547a.9.9,0,0,0,.42.565c2.147,1.061,4.309,2.09,6.461,3.14a.656.656,0,0,0,.755-.055A3.833,3.833,0,1,1,55.43,18.84a3.613,3.613,0,0,1-3.967-.412,3.689,3.689,0,0,1-1.41-3.936c.058-.283.086-.466-.237-.618-1.793-.847-3.575-1.717-5.362-2.577a2.21,2.21,0,0,0-.279-.083A10.705,10.705,0,0,1,40.734,18.4c.058.1.105.192.169.276,1.484,1.98,2.973,3.955,4.45,5.94a.8.8,0,0,0,.73.384,10.561,10.561,0,0,1,1.969,20.943,10.617,10.617,0,0,1-10.943-4.852c-.056-.091-.127-.174-.22-.3-1.239.93-2.452,1.834-3.653,2.755-.079.06-.1.255-.079.378.152,1.071.31,2.142.489,3.209a.628.628,0,0,0,.276.412q3.25,1.594,6.522,3.143a.727.727,0,0,0,.59-.075A3.849,3.849,0,1,1,44.553,57.4c-.186.065-.364.155-.546.234H42.431a10.784,10.784,0,0,1-2.037-1.288,3.667,3.667,0,0,1-.8-3.883l-6.22-3c-.057.167-.1.288-.141.412a10.522,10.522,0,0,1-7,7.29c-.586.205-1.206.317-1.81.471h-2.7a.7.7,0,0,0-.188-.1,10.4,10.4,0,0,1-8.724-7.905c-.144-.5-.218-1.018-.329-1.546h-4.9c-.048.111-.1.212-.135.316a3.84,3.84,0,0,1-6.015,1.665A5.061,5.061,0,0,1,0,47.842V46.379c.047-.121.1-.239.141-.362a3.854,3.854,0,0,1,7.317-.276.705.705,0,0,0,.53.326c1.2.029,2.4.015,3.6.015.893,0,.865-.006,1.054-.889a10.25,10.25,0,0,1,7.313-8.2,10.145,10.145,0,0,1,10.8,2.868A23.113,23.113,0,0,1,32.3,41.8c1.178-.88,2.368-1.757,3.537-2.661a.64.64,0,0,0,.139-.521c-.108-.644-.337-1.275-.383-1.92a10.375,10.375,0,0,1,5.07-10.18,24.531,24.531,0,0,1,2.717-1.295l-4.213-5.611a10.388,10.388,0,0,1-9.766.659,10.559,10.559,0,0,1-6.2-7.71l-4.455,3.813a10.929,10.929,0,0,1,2.385,5.955.9.9,0,0,0,.353.521c1.455,1.152,2.935,2.272,4.377,3.439a.913.913,0,0,0,1.207.11,3.566,3.566,0,0,1,4.015.306,3.62,3.62,0,0,1,1.487,3.861,3.737,3.737,0,0,1-4,3.049,3.584,3.584,0,0,1-3.512-4.038,2.113,2.113,0,0,0-1.213-2.415c-.11-.069-.208-.16-.311-.241l-2.542-1.975c-.073.3-.125.515-.179.731a10.549,10.549,0,0,1-11.86,7.841A10.347,10.347,0,0,1,.325,25.625C.193,25.161.107,24.683,0,24.211V21.848M28.9,53.336a8.449,8.449,0,0,0,2.373-8.885,8.631,8.631,0,0,0-16.457.064,8.431,8.431,0,0,0,2.409,8.817c.02-.2.035-.38.056-.558a2.883,2.883,0,0,1,2.984-2.815c1.854-.059,3.711-.035,5.566-.008a2.808,2.808,0,0,1,2.76,1.841,8.372,8.372,0,0,1,.31,1.544M40.283,41.808c.01-.162.018-.307.028-.451a2.973,2.973,0,0,1,3.009-2.943q2.784-.062,5.57,0a2.96,2.96,0,0,1,2.991,3.068,3.187,3.187,0,0,0,.057.371A8.608,8.608,0,0,0,45.632,26.93a8.678,8.678,0,0,0-7.9,6.51,8.407,8.407,0,0,0,2.552,8.368M39.39,16.9a8.472,8.472,0,0,0,2.243-9.494,8.634,8.634,0,0,0-16.5,1.578c-.641,3.185.876,6.57,2.673,7.831.006-.122.011-.233.018-.344A2.832,2.832,0,0,1,30.587,13.5c2.072-.12,4.157-.023,6.236.012a2.264,2.264,0,0,1,.955.286,3,3,0,0,1,1.611,3.1M16.4,29.351c2.38-1.808,3.43-5.9,2.334-9.042a8.618,8.618,0,0,0-16.438.3A8.454,8.454,0,0,0,4.736,29.33c.024-.2.046-.38.065-.558a2.959,2.959,0,0,1,3.088-2.848c1.781-.031,3.563-.025,5.344,0a2.969,2.969,0,0,1,2.923,1.967,9.836,9.836,0,0,1,.241,1.461m2.836,24.322a2.025,2.025,0,0,1,0,.392c-.12.6.176.835.711,1.029a8.9,8.9,0,0,0,6.074.052c.883-.3.878-.317.878-1.242,0-.244,0-.487,0-.73-.012-.915-.383-1.282-1.31-1.285-1.517,0-3.034,0-4.551,0-1.645,0-1.8.152-1.8,1.785M33.614,15.412c-.861,0-1.721-.006-2.582,0-.893.008-1.22.334-1.229,1.209,0,.411.019.824-.007,1.234a.547.547,0,0,0,.4.622,8.771,8.771,0,0,0,5.956.323c1.305-.373,1.3-.383,1.3-1.732,0-.187.009-.375,0-.561a1.02,1.02,0,0,0-1.143-1.092c-.9-.014-1.8,0-2.694,0M10.592,27.9v.01c-.954,0-1.909-.019-2.863.007a.937.937,0,0,0-.98,1c-.016.467.021.937-.012,1.4a.58.58,0,0,0,.438.66,8.741,8.741,0,0,0,6.275.2c.963-.32.958-.334.958-1.366,0-.243.005-.487,0-.73A1.05,1.05,0,0,0,13.231,27.9c-.879-.014-1.759,0-2.639,0M46.125,40.375v0c-.9,0-1.8-.015-2.7,0-.8.017-1.121.356-1.136,1.136-.009.45.019.9-.009,1.349a.519.519,0,0,0,.4.577,8.638,8.638,0,0,0,6.175.246c1.075-.354,1.077-.349,1.077-1.446,0-.15,0-.3,0-.45,0-1.133-.288-1.414-1.442-1.418-.787,0-1.575,0-2.362,0M5.741,47.044A1.936,1.936,0,0,0,3.83,45.157a1.959,1.959,0,0,0-1.9,1.91,1.94,1.94,0,0,0,1.954,1.9,1.91,1.91,0,0,0,1.858-1.926M10.582,5.757a1.937,1.937,0,0,0,1.9-1.9,1.961,1.961,0,0,0-1.9-1.908A1.94,1.94,0,0,0,8.663,3.892a1.909,1.909,0,0,0,1.919,1.865m18.207,25.91A1.884,1.884,0,1,0,26.9,29.775a1.888,1.888,0,0,0,1.888,1.893M43.229,51.89a1.907,1.907,0,1,0,1.9,1.9,1.945,1.945,0,0,0-1.9-1.9m10.55-34.626a1.883,1.883,0,1,0,.037-3.765,1.883,1.883,0,1,0-.037,3.765" transform="translate(0 0)" fill="#161615"/>
        <path id="Trazado_601556" data-name="Trazado 601556" d="M116.845,287.768a8.373,8.373,0,0,0-.31-1.544,2.808,2.808,0,0,0-2.76-1.841c-1.855-.026-3.712-.051-5.566.008a2.883,2.883,0,0,0-2.984,2.815c-.021.178-.036.357-.056.558a8.431,8.431,0,0,1-2.409-8.817,8.631,8.631,0,0,1,16.457-.064,8.449,8.449,0,0,1-2.373,8.885m-9.693-9.138a3.845,3.845,0,1,0,3.863-3.87,3.9,3.9,0,0,0-3.863,3.87" transform="translate(-87.947 -234.432)" fill="#fff"/>
        <path id="Trazado_601557" data-name="Trazado 601557" d="M268.719,205.85a8.407,8.407,0,0,1-2.552-8.368,8.623,8.623,0,0,1,16.329-1.2,8.579,8.579,0,0,1-2.122,9.613,3.177,3.177,0,0,1-.057-.371,2.959,2.959,0,0,0-2.991-3.068q-2.784-.067-5.57,0a2.973,2.973,0,0,0-3.009,2.943c-.01.144-.018.288-.028.451m5.79-5.3a3.839,3.839,0,1,0,.079-7.678,3.839,3.839,0,1,0-.079,7.678" transform="translate(-228.436 -164.042)" fill="#fff"/>
        <path id="Trazado_601558" data-name="Trazado 601558" d="M191.681,28.885a3,3,0,0,0-1.611-3.1,2.264,2.264,0,0,0-.955-.286c-2.079-.035-4.164-.132-6.236-.012a2.832,2.832,0,0,0-2.764,2.974c-.007.111-.012.223-.018.344-1.8-1.26-3.314-4.646-2.673-7.831a8.611,8.611,0,1,1,14.258,7.915M185.654,23.5a3.835,3.835,0,0,0,4.092-3.523,3.884,3.884,0,0,0-3.505-4.132,3.827,3.827,0,0,0-4.163,3.685,3.77,3.77,0,0,0,3.576,3.97" transform="translate(-152.291 -11.98)" fill="#fff"/>
        <path id="Trazado_601559" data-name="Trazado 601559" d="M28.241,117.281A9.839,9.839,0,0,0,28,115.82a2.97,2.97,0,0,0-2.923-1.967c-1.781-.023-3.563-.03-5.344,0a2.959,2.959,0,0,0-3.088,2.848c-.019.178-.041.356-.065.558a8.454,8.454,0,0,1-2.442-8.726,8.618,8.618,0,0,1,16.438-.3c1.1,3.139.046,7.234-2.334,9.042m-5.84-5.326a3.844,3.844,0,1,0-3.831-3.877,3.845,3.845,0,0,0,3.831,3.877" transform="translate(-11.843 -87.93)" fill="#fff"/>
        <path id="Trazado_601560" data-name="Trazado 601560" d="M136.294,369.978c0-1.632.154-1.785,1.8-1.785,1.517,0,3.034,0,4.551,0,.927,0,1.3.37,1.31,1.285,0,.243,0,.487,0,.73,0,.925.005.941-.878,1.242A8.9,8.9,0,0,1,137,371.4c-.536-.194-.831-.433-.711-1.029a2.024,2.024,0,0,0,0-.392" transform="translate(-117.061 -316.305)" fill="#fff"/>
        <path id="Trazado_601561" data-name="Trazado 601561" d="M215.238,109.348c.9,0,1.8-.011,2.694,0a1.02,1.02,0,0,1,1.143,1.092c.013.186,0,.374,0,.561,0,1.349,0,1.359-1.3,1.732a8.773,8.773,0,0,1-5.956-.323.548.548,0,0,1-.4-.622c.026-.41,0-.823.007-1.234.009-.875.336-1.2,1.229-1.209.861-.008,1.721,0,2.582,0" transform="translate(-181.624 -93.935)" fill="#fff"/>
        <path id="Trazado_601562" data-name="Trazado 601562" d="M51.635,197.926c.88,0,1.759-.011,2.639,0a1.05,1.05,0,0,1,1.175,1.178c.007.243,0,.487,0,.73,0,1.032,0,1.045-.958,1.366a8.741,8.741,0,0,1-6.275-.2.58.58,0,0,1-.438-.66c.034-.465,0-.935.013-1.4a.937.937,0,0,1,.98-1c.954-.026,1.909-.007,2.863-.007v-.01" transform="translate(-41.044 -170.03)" fill="#fff"/>
        <path id="Trazado_601563" data-name="Trazado 601563" d="M303.86,286.48c.787,0,1.575,0,2.362,0,1.154,0,1.438.285,1.442,1.418,0,.15,0,.3,0,.45,0,1.1,0,1.091-1.077,1.446a8.637,8.637,0,0,1-6.175-.246.519.519,0,0,1-.4-.577c.029-.448,0-.9.009-1.349.015-.78.339-1.119,1.136-1.136.9-.02,1.8,0,2.7,0Z" transform="translate(-257.734 -246.105)" fill="#fff"/>
        <path id="Trazado_601564" data-name="Trazado 601564" d="M17.5,322.319a1.91,1.91,0,0,1-1.858,1.926,1.939,1.939,0,0,1-1.954-1.9,1.959,1.959,0,0,1,1.9-1.91,1.936,1.936,0,0,1,1.911,1.888" transform="translate(-11.756 -275.275)" fill="#fff"/>
        <path id="Trazado_601565" data-name="Trazado 601565" d="M63.393,17.621a1.909,1.909,0,0,1-1.919-1.865,1.94,1.94,0,0,1,1.911-1.946,1.961,1.961,0,0,1,1.9,1.908,1.936,1.936,0,0,1-1.9,1.9" transform="translate(-52.811 -11.864)" fill="#fff"/>
        <path id="Trazado_601566" data-name="Trazado 601566" d="M192.773,201.76a1.883,1.883,0,1,1,1.935-1.845,1.89,1.89,0,0,1-1.935,1.845" transform="translate(-163.984 -170.092)" fill="#fff"/>
        <path id="Trazado_601567" data-name="Trazado 601567" d="M295.031,368.214a1.936,1.936,0,0,1,1.9,1.9,1.912,1.912,0,1,1-1.9-1.9" transform="translate(-251.802 -316.324)" fill="#fff"/>
        <path id="Trazado_601568" data-name="Trazado 601568" d="M370.05,99.555a1.883,1.883,0,1,1,.037-3.765,1.883,1.883,0,1,1-.037,3.765" transform="translate(-316.271 -82.291)" fill="#fff"/>
        <path id="Trazado_601569" data-name="Trazado 601569" d="M136.282,290.033a3.845,3.845,0,1,1,3.824,3.852,3.9,3.9,0,0,1-3.824-3.852m3.858,1.874a1.883,1.883,0,1,0,0-3.766,1.883,1.883,0,1,0,0,3.766" transform="translate(-117.076 -245.836)" fill="#161615"/>
        <path id="Trazado_601570" data-name="Trazado 601570" d="M303.642,212.233a3.839,3.839,0,1,1,.079-7.678,3.839,3.839,0,1,1-.079,7.678m-1.859-3.83a1.886,1.886,0,1,0,3.771.012,1.886,1.886,0,1,0-3.771-.012" transform="translate(-257.569 -175.728)" fill="#161615"/>
        <path id="Trazado_601571" data-name="Trazado 601571" d="M214.888,34.969A3.77,3.77,0,0,1,211.312,31a3.827,3.827,0,0,1,4.163-3.685,3.884,3.884,0,0,1,3.505,4.132,3.835,3.835,0,0,1-4.092,3.523m2.145-3.815a1.891,1.891,0,1,0-3.781-.036,1.891,1.891,0,1,0,3.781.036" transform="translate(-181.525 -23.45)" fill="#161615"/>
        <path id="Trazado_601572" data-name="Trazado 601572" d="M51.565,123.621a3.844,3.844,0,1,1,3.847-3.808,3.839,3.839,0,0,1-3.847,3.808m.018-1.946a1.933,1.933,0,0,0,1.9-1.894,1.956,1.956,0,0,0-1.9-1.913,1.931,1.931,0,0,0-1.918,1.937,1.9,1.9,0,0,0,1.912,1.87" transform="translate(-41.007 -99.596)" fill="#161615"/>
        <path id="Trazado_601573" data-name="Trazado 601573" d="M152.014,303.968a1.883,1.883,0,1,1,0-3.766,1.883,1.883,0,1,1,0,3.766" transform="translate(-128.95 -257.896)" fill="#fff"/>
        <path id="Trazado_601574" data-name="Trazado 601574" d="M313.749,220.136a1.886,1.886,0,1,1,1.878,1.893,1.873,1.873,0,0,1-1.878-1.893" transform="translate(-269.534 -187.461)" fill="#fff"/>
        <path id="Trazado_601575" data-name="Trazado 601575" d="M228.912,43.021a1.891,1.891,0,1,1-1.877-1.911,1.882,1.882,0,0,1,1.877,1.911" transform="translate(-193.405 -35.316)" fill="#fff"/>
        <path id="Trazado_601576" data-name="Trazado 601576" d="M63.386,133.471a1.9,1.9,0,0,1-1.912-1.869,1.931,1.931,0,0,1,1.918-1.937,1.956,1.956,0,0,1,1.9,1.913,1.933,1.933,0,0,1-1.9,1.894" transform="translate(-52.811 -111.392)" fill="#fff"/>
      </g>
    </g>
  </g>
</svg>
