<svg xmlns="http://www.w3.org/2000/svg" xmlns:xlink="http://www.w3.org/1999/xlink" width="463" height="150" viewBox="0 0 463 150">
  <defs>
    <clipPath id="clip-path">
      <rect id="Rectángulo_345727" data-name="Rectángulo 345727" width="420" height="148.945" fill="none"/>
    </clipPath>
    <clipPath id="clip-path-3">
      <rect id="Rectángulo_345722" data-name="Rectángulo 345722" width="5.584" height="14.029" fill="none"/>
    </clipPath>
    <clipPath id="clip-path-4">
      <rect id="Rectángulo_345723" data-name="Rectángulo 345723" width="56.834" height="57.833" fill="none"/>
    </clipPath>
    <clipPath id="clip-path-5">
      <rect id="Rectángulo_345724" data-name="Rectángulo 345724" width="27.105" height="7.82" fill="none"/>
    </clipPath>
    <clipPath id="clip-path-6">
      <rect id="Rectángulo_345725" data-name="Rectángulo 345725" width="28.514" height="9.892" fill="none"/>
    </clipPath>
  </defs>
  <g id="Grupo_1015092" data-name="Grupo 1015092" transform="translate(-915 -2573)">
    <rect id="Rectángulo_345728" data-name="Rectángulo 345728" width="463" height="46" rx="23" transform="translate(915 2677)" fill="#fff"/>
    <g id="Grupo_1015091" data-name="Grupo 1015091" transform="translate(946 2573)">
      <g id="Grupo_1015090" data-name="Grupo 1015090" clip-path="url(#clip-path)">
        <g id="Grupo_1015089" data-name="Grupo 1015089">
          <g id="Grupo_1015088" data-name="Grupo 1015088" clip-path="url(#clip-path)">
            <path id="Trazado_605549" data-name="Trazado 605549" d="M124.068,46.64c3.131-.751,4.947-6.543,3.944-10.791-1.285-5.443-3.458-7.391-9.04-9.436Z" transform="translate(-47.016 -10.438)" fill="#5e2f36"/>
            <path id="Trazado_605550" data-name="Trazado 605550" d="M448.3,218.332,447.57,234.7h59.877s-1.629-13.292-2.722-17.7Z" transform="translate(-176.873 -85.757)" fill="#4f512e"/>
            <path id="Trazado_605551" data-name="Trazado 605551" d="M554.137,79.315a12.992,12.992,0,0,1,8.477-3.968c5.378-.353,6.006-.077,8.236-.693s3.57-1.808,2-7.359a8.339,8.339,0,0,1-7.084-.566c-3.542-2.1-7.543-5.911-6.69-22.52.453-8.819,17.184-17.094,25.579-10.536s8.789,17.184,6.427,22.3-3.541,5.818-4.066,8.55-.1,6.672,1.735,8.109,14.859.585,18.387,5.2c4.958,5.6,21.472,28.288,25.405,34.492,1.892,2.985,3.928,5.6,3.475,7.089-.907,3.326-25.856,41.911-25.856,41.911h-4.083l-1.008-13.359,13.306-26.511L604.79,101.5l-47.084,4.8-.232-7.2a84.659,84.659,0,0,1-10.7-.559Z" transform="translate(-216.078 -12.374)" fill="#f8c6a3"/>
            <path id="Trazado_605552" data-name="Trazado 605552" d="M598.84,85.651a2.176,2.176,0,0,1-.114.579,3.8,3.8,0,0,1-2.454,2.468,11.367,11.367,0,0,1-3.453.453,12.336,12.336,0,0,1-7.941-2.786,8.356,8.356,0,0,1-7.757-.958,4.248,4.248,0,0,0,4.65-5.465c-.6-2.142,17.069,5.7,17.069,5.7Z" transform="translate(-228.069 -31.446)" fill="#f3bd99"/>
            <path id="Trazado_605553" data-name="Trazado 605553" d="M660.9,167.54c-.3-1.008-3.832-7.056-3.832-7.056,5.643-2.922,8.548-9.708,8.549-9.71h0l-5.22-3.6-15.877,2.52,11.946,17.54-13.306,26.511.316,4.184c4.431-7.382,17.677-29.552,17.425-30.392" transform="translate(-254.165 -58.163)" fill="#f3bd99"/>
            <path id="Trazado_605554" data-name="Trazado 605554" d="M576.827,100.729c3.862,1.249,12.551,1.895,16.069-1.1,0,0,4.562.309,7.2.534,4.034.344,8.568.305,12.8,4.687s19.177,26.511,19.177,26.511-4.461,8.014-15.82,9.344l-5.7-8.066s-1.086,15.355-.481,28.661c.413,9.087,1.739,27.018,1.739,27.018H557.605s-1.411-46.12,1.613-56l5.165-29.589a47.357,47.357,0,0,1,5.475-.551,27.05,27.05,0,0,0,6.968-1.45" transform="translate(-220.227 -39.372)" fill="#3cb28e"/>
            <path id="Trazado_605555" data-name="Trazado 605555" d="M596.665,27.548a7.093,7.093,0,0,0-2.451.125,7,7,0,0,0-11.035-7.64,2.654,2.654,0,0,0-4.034-.01,8.2,8.2,0,0,0-14.867,6.763,5.862,5.862,0,1,0-1.159,11.508c1.19,5.182,4.867,6.839,6.01,6.7s.674-4.435,4.006-4.568c4.741-.189,5.04,6.552,3.528,9.274s-2.812,1.793-3.528,2.016c-1.109.705,1.149,4.937,4.9,7.3,4.3,2.7,9.213,2.368,12.175,1.7a7.029,7.029,0,0,0,2.931-2.3c.066.011.131.027.2.035a4.12,4.12,0,0,0,4-6.3,5.849,5.849,0,0,0,3.416-8.458,2.662,2.662,0,0,0,.248-4.243,7.117,7.117,0,0,0-4.341-11.9" transform="translate(-220.077 -6.276)" fill="#d6594c"/>
            <path id="Trazado_605556" data-name="Trazado 605556" d="M606.4,75.71c-1.755.031-2.142-1.912-2.829-1.225a12.787,12.787,0,0,1-3.567,2.289c-2.022.94-8.161.775-9.592.077-4.71-2.3-4.771-4.15-4.771-4.15,3.051-1.436,2.45-4.115,2.253-6.449a7.631,7.631,0,0,1-.807,3.359c-1.512,2.722-2.812,1.793-3.528,2.016-1.109.705,1.149,4.936,4.9,7.3,4.3,2.7,9.213,2.368,12.175,1.7a7.032,7.032,0,0,0,2.932-2.3c.066.012.131.027.2.035a4.128,4.128,0,0,0,4.61-3.582,3.994,3.994,0,0,0,0-.924A1.863,1.863,0,0,1,606.4,75.71" transform="translate(-230.503 -26.182)" fill="#bf4a41"/>
            <path id="Trazado_605557" data-name="Trazado 605557" d="M361.879,71.63a2.867,2.867,0,0,0-4.558.715c-1.341,2.056,1.519,9.475,5.631,7.151Z" transform="translate(-141.076 -27.982)" fill="#f8c6a3"/>
            <path id="Trazado_605558" data-name="Trazado 605558" d="M416.621,71.63a2.867,2.867,0,0,1,4.559.715c1.341,2.056-1.519,9.475-5.631,7.151Z" transform="translate(-164.218 -27.982)" fill="#f8c6a3"/>
            <path id="Trazado_605559" data-name="Trazado 605559" d="M362.621,63.982c0-10.369,7.739-18.775,17.284-18.775s17.284,8.406,17.284,18.775-7.739,18.775-17.284,18.775-17.284-8.406-17.284-18.775" transform="translate(-143.302 -17.865)" fill="#65439b"/>
            <path id="Trazado_605560" data-name="Trazado 605560" d="M397.19,69.275a20.025,20.025,0,0,0-1.79-8.32,13.294,13.294,0,0,1-2.683,11.263c-2.034,2.643-12.121,4.012-20.455,1.108-8.155-2.841-8.32-11.245-6.573-14.724a19.82,19.82,0,0,0-3.068,10.674c0,10.369,7.739,18.775,17.284,18.775s17.284-8.406,17.284-18.775" transform="translate(-143.302 -23.158)" fill="#523c7c"/>
            <path id="Trazado_605561" data-name="Trazado 605561" d="M406.626,43.328c-2,4.15-8.077,5.366-13.57,2.716s-8.323-8.161-6.322-12.311,8.077-5.366,13.57-2.716,8.323,8.161,6.322,12.311" transform="translate(-152.578 -11.703)" fill="#65439b"/>
            <path id="Trazado_605562" data-name="Trazado 605562" d="M136.163,231.2c.847-7.754,2.517-17.539,4.514-23.062h53.342c2,5.523,3.668,15.307,4.514,23.062Z" transform="translate(-53.81 -82.252)" fill="#394e5b"/>
            <path id="Trazado_605563" data-name="Trazado 605563" d="M297.763,210.586h-54.24l-1.21,21.58h56.659Z" transform="translate(-95.759 -83.22)" fill="#47b"/>
            <path id="Trazado_605564" data-name="Trazado 605564" d="M262.667,47.6a2.867,2.867,0,0,0-4.559.715c-1.341,2.056,1.519,9.475,5.631,7.151Z" transform="translate(-101.869 -18.488)" fill="#f8c6a3"/>
            <path id="Trazado_605565" data-name="Trazado 605565" d="M315.33,47.585a2.867,2.867,0,0,1,4.551.765c1.318,2.07-1.623,9.458-5.709,7.088Z" transform="translate(-124.156 -18.489)" fill="#f8c6a3"/>
            <rect id="Rectángulo_345720" data-name="Rectángulo 345720" width="14.516" height="12.298" transform="translate(167.627 46.478)" fill="#f8c6a3"/>
            <path id="Trazado_605566" data-name="Trazado 605566" d="M277.154,78.409v2.456s1.528,2.13,7.258,2.13,7.258-1.578,7.258-1.578V76.846H277.154Z" transform="translate(-109.527 -30.368)" fill="#f3bd99"/>
            <path id="Trazado_605567" data-name="Trazado 605567" d="M467.941,51.873a2.867,2.867,0,0,0-4.558.715c-1.341,2.056,1.519,9.475,5.631,7.151Z" transform="translate(-182.99 -20.175)" fill="#c17a61"/>
            <path id="Trazado_605568" data-name="Trazado 605568" d="M88.947,75.156s-5.3-3.3-10.674-3.651-6.006-.077-8.236-.693-3.57-1.808-2-7.359c0,0,4.376,1.334,7.933-.738,5.557-3.238,5.289-13.959,5.289-22.789S64.631,23.273,56.235,29.831s-8.789,17.183-6.427,22.3,3.542,5.818,4.066,8.55.1,6.672-1.735,8.109-11.222-.917-15.711,4.329c-4.565,5.334-20.07,31.612-22.955,36.729s-4.591,6.821-2.1,12.33,16.4,23.873,16.4,23.873l6.034-7.858L24.1,116.8,38.265,97.123l44.915,5.342.232-6.544s12.182-2.082,18.069-4.468Z" transform="translate(-4.019 -10.827)" fill="#e0a375"/>
            <path id="Trazado_605569" data-name="Trazado 605569" d="M135.291,121.029c-1.436.479-10.3-6.934-10.948-5.288-.855,2.182-.011,6.278,2.409,8.5-3.767.929-8.271,1.754-9.4,1.536-3-.582-6.99-6.1-7.255-12.972l-6.253,15.719,1.7,5.954,14.649,1.742.232-6.544s12.182-2.082,18.069-4.468Z" transform="translate(-41.038 -44.577)" fill="#d7986a"/>
            <path id="Trazado_605570" data-name="Trazado 605570" d="M82.769,82.414a2.15,2.15,0,0,0,.114.579,3.8,3.8,0,0,0,2.454,2.468,11.367,11.367,0,0,0,3.453.453,12.335,12.335,0,0,0,7.941-2.786s4.392,1.361,7.933-.738c-2.647-.589-6.111-2.551-6.255-4.77s-15.641,4.79-15.641,4.79Z" transform="translate(-32.709 -30.503)" fill="#ce8e60"/>
            <path id="Trazado_605571" data-name="Trazado 605571" d="M44.288,128.281s-18.5,25.266-19.353,26.689,14.019,21.608,14.019,21.608l-9.035-19.911,14.167-19.676,7.371.877,1.45-4.491Z" transform="translate(-9.84 -50.695)" fill="#d7986a"/>
            <path id="Trazado_605572" data-name="Trazado 605572" d="M50.315,96.945c-3.583,6.927-7.125,17.29-6.207,27.522s4.485,19.676,3.03,25.185-15.753,22.064-22.181,37.463H87.789s1.312-15.164,1.443-33.135-.319-27.2-.319-27.2-6.531.909-8.7-8.066c-2.467-10.22-1.344-17.315,1.41-19.95l-5.05-.5c-1.6,1.957-3.708,6.342-6.693,9.668-3.429,3.821-13.709,3.478-15.624-.1-1.4-2.614-.152-8.839,1.008-11.148,0,0-3.4-.344-4.951.261" transform="translate(-9.863 -38.169)" fill="#ec6469"/>
            <path id="Trazado_605573" data-name="Trazado 605573" d="M103.418,164.164c-4.045.847-22.144,4.614-22.892,4.393-.708-.211-15.028-1.443-19.564-1.83a39.384,39.384,0,0,1,.742,6.4l0,.014s22.065,6.016,28.083,6.376,8.9-1.684,13.692-6.375q-.007-5.155-.067-8.974" transform="translate(-24.091 -64.875)" fill="#d3545e"/>
            <path id="Trazado_605574" data-name="Trazado 605574" d="M119.267,133.308c-3.853.895-6.963,2.134-18.069,4.468-6.361,6.121-13.542,12.866-14.782,13.347-2.3.893-26.514.393-28.534-.7l-.827-4.3s-2.235,1.421-1.831,6.766,2.7,5.745,2.7,5.745,25.719,5.443,31.387,3.87,30.521-22.414,30.521-22.414Z" transform="translate(-21.805 -52.681)" fill="#f8c6a3"/>
            <path id="Trazado_605575" data-name="Trazado 605575" d="M123.171,135.5l-4.862-.1s-7.428,8.74-11.442,12.644S95.134,160.5,91.294,161.115s-26.518-1.036-26.53-1.037c6.981,1.378,23.874,4.49,28.338,3.25,5.669-1.574,30.521-22.414,30.521-22.414Z" transform="translate(-25.594 -53.508)" fill="#f3bd99"/>
            <path id="Trazado_605576" data-name="Trazado 605576" d="M520.741,51.854a2.867,2.867,0,0,1,4.551.765c1.318,2.07-1.623,9.457-5.709,7.088Z" transform="translate(-205.331 -20.176)" fill="#c17a61"/>
            <rect id="Rectángulo_345721" data-name="Rectángulo 345721" width="14.516" height="12.298" transform="translate(292.694 49.059)" fill="#c17a61"/>
            <path id="Trazado_605577" data-name="Trazado 605577" d="M483.94,81.114v3.567a19.155,19.155,0,0,0,8.068,1.311c4.623-.238,6.448-1.978,6.448-1.978v-2.9Z" transform="translate(-191.246 -32.055)" fill="#b5715a"/>
            <path id="Trazado_605578" data-name="Trazado 605578" d="M149.023,135.4c.169,4.117.209,12.054,1.053,17.394,1.2,7.6-5.236,16.361-7.592,26.58,0,0,9.568,5.383,27.362,5.383s27.362-5.383,27.362-5.383c-2.356-10.218-8.793-18.98-7.592-26.58.844-5.34,1.44-13.219,1.609-17.336Z" transform="translate(-56.308 -53.508)" fill="#ffda60"/>
            <path id="Trazado_605579" data-name="Trazado 605579" d="M193.883,156.76a13.8,13.8,0,0,1,0-3.965c.541-3.418.978-7.873,1.268-11.72-.513-2.683-.9-4.722-.9-4.722l-.994-.9-39.963-.054c.029.693.053,1.5.08,2.378,1.8.419,6.476,3.6,7.644,9.55.983,5,3.929,12.847,15.4,14.228,7.168.862,13.63-2.257,17.469-4.8" transform="translate(-60.579 -53.508)" fill="#eaab4e"/>
            <path id="Trazado_605580" data-name="Trazado 605580" d="M299.528,171.581s-6.852,3.629-29.938,3.629-29.938-3.629-29.938-3.629.073-1.675.224-4.6c.26-5.171.762-14.268,1.494-24.961.012-.188.024-.375.042-.562.054-.853.115-1.712.181-2.583.018-.29.042-.581.06-.871.52-7.209,1.488-13.633,1.579-20.733.06-.429.121-.853.175-1.276s.121-.841.181-1.258c.181-1.258.369-2.5.55-3.714.1-.629.2-1.258.3-1.875,1.591-10.028,3.26-17.818,4.089-18.253,1.512-.81,13.808-1.718,13.808-1.718s2.02,2.449,7.258,2.449,7.258-2.449,7.258-2.449,12.3.907,13.814,1.718,4.427,21.193,5.939,39.839,2.927,40.849,2.927,40.849" transform="translate(-94.706 -35.241)" fill="#def1f8"/>
            <g id="Grupo_1015078" data-name="Grupo 1015078" transform="translate(195.533 73.386)" opacity="0.37">
              <g id="Grupo_1015077" data-name="Grupo 1015077">
                <g id="Grupo_1015076" data-name="Grupo 1015076" clip-path="url(#clip-path-3)">
                  <path id="Trazado_605581" data-name="Trazado 605581" d="M325.141,121.633c-3.126,1.134-1.337,13.733-1.337,13.733l5.075-.462c-.475-4.734-1.012-9.372-1.566-13.567a7.732,7.732,0,0,0-2.171.3" transform="translate(-323.294 -121.337)" fill="#90c8ee"/>
                </g>
              </g>
            </g>
            <g id="Grupo_1015081" data-name="Grupo 1015081" transform="translate(145.168 73.905)" opacity="0.37">
              <g id="Grupo_1015080" data-name="Grupo 1015080">
                <g id="Grupo_1015079" data-name="Grupo 1015079" clip-path="url(#clip-path-4)">
                  <path id="Trazado_605582" data-name="Trazado 605582" d="M296.855,152.212s-21.211,8.909-25.656,10.754-19.058-3.81-21.943-4.814c-1.04-.363-4.947-1.669-9.236,21.876.26-5.171.762-14.268,1.494-24.961.012-.187.024-.375.042-.562.054-.853.115-1.712.181-2.583.018-.29.042-.581.06-.871.52-7.209,1.488-13.633,1.579-20.733.06-.429.121-.853.175-1.276s.121-.841.181-1.258c.181-1.258.369-2.5.55-3.714.1-.629.2-1.258.3-1.875,3.163,1.131,4.095,2.909,4.566,6.024.689,4.554.562,18.671.562,18.671l21.356,8.9Z" transform="translate(-240.021 -122.195)" fill="#90c8ee"/>
                </g>
              </g>
            </g>
            <path id="Trazado_605583" data-name="Trazado 605583" d="M232.344,133.308s27.171,17.068,29.53,17.8,26.858-2.208,28.8-3.441l-.323-3.75s3.651.99,3.622,6.351-3.15,6.34-3.15,6.34-25.275,7.227-31.04,6.053-35.027-18.093-35.027-18.093Z" transform="translate(-88.819 -52.681)" fill="#f8c6a3"/>
            <path id="Trazado_605584" data-name="Trazado 605584" d="M308.084,150.844l.323,3.75c-1.938,1.233-26.438,4.171-28.8,3.441a64.972,64.972,0,0,1-6.469-3.6l-3.507-.229c1.974,1.48,8.138,6.511,16.5,9.086s8.721,1.113,12.355-.608c3.348-1.588,10.235-5.619,12.932-7.924a5.307,5.307,0,0,0-3.331-3.916" transform="translate(-106.555 -59.611)" fill="#edb48e"/>
            <path id="Trazado_605585" data-name="Trazado 605585" d="M260.75,163.572c-2.425-1.178-27.669-15.442-32.984-19.039L224.752,149s29.262,16.919,35.027,18.093,31.04-6.053,31.04-6.053-27.342,3.855-30.07,2.53" transform="translate(-88.819 -57.117)" fill="#f3bd99"/>
            <path id="Trazado_605586" data-name="Trazado 605586" d="M171.071,23.271c-5.021,0-12.184.435-14.36,8.594-4.095.034-8.346,2.439-7.742,8.285.775,7.488-.233,9.259-3.355,11.872a11.034,11.034,0,0,0-4.15,11.111c.589,3.463-.89,7.362-2.924,12.448s-.382,12.079,5.976,14.5,10.045,3.815,11.952,9.282,6.768,13.519,20.059,12.91c15.877-.727,23.888-16.887,21.137-25.752-2.289-7.375-2.543-10.3-1.011-16.012,1.421-5.3.7-10.654-5.982-14.831-5.024-3.139-4.59-10.832-5.241-15.65-1.087-8.05-5-16.753-14.359-16.753" transform="translate(-54.424 -9.196)" fill="#aa683a"/>
            <path id="Trazado_605587" data-name="Trazado 605587" d="M141.668,103.413,140.42,105.2c4.531,2.654,18.149,13.566,22.341,14.937s24.969,3.029,36.42,3.579a14.436,14.436,0,0,0-.448-5.524,39.024,39.024,0,0,1-1.923-8.464l-24.893-1.346Z" transform="translate(-55.492 -40.867)" fill="#935b35"/>
            <path id="Trazado_605588" data-name="Trazado 605588" d="M378.945,86.422c-4.95.478-17.958,1.084-26.559-.438s-18.816-3.674-24.55-1.7a50.271,50.271,0,0,0-8.68,3.737l2.895.608s38.837,13.305,40.679,13.484,16.737-1.254,16.737-1.254Z" transform="translate(-126.125 -32.994)" fill="#c17a61"/>
            <path id="Trazado_605589" data-name="Trazado 605589" d="M362.728,104.336c1.664.162,13.985-.993,16.345-1.217l-4.779-9.311c-4.576,1.533-10.145,4.034-12.393,3.956s-26.575-8.351-31.655-8.611a48.723,48.723,0,0,0-11.091,1.09l2.895.608s38.837,13.305,40.679,13.484" transform="translate(-126.125 -35.219)" fill="#b5715a"/>
            <path id="Trazado_605590" data-name="Trazado 605590" d="M487.265,89.859c-6.638-.249-13.968-2.9-17.971-1.411,0,0-.979,2.217-6.826,2.52a14.268,14.268,0,0,1-7.69-1.671s-6.606-1.921-11.833-3.182c-4.725-1.139-7.3-.9-12.852-.451-5.44.443-19.078,1.756-19.078,1.756s-3.485,13.175,3.509,19.676c0,0,7.068.977,10.848,1.814,4.931,1.093,6.207,2.449,6.207,3.838,0,3.242,0,36.786,1.051,53.116,0,0,8.421,4.778,31.733,4.315s27.326-4.014,27.326-4.014-3.562-47.86-3.588-50.4a3.227,3.227,0,0,1,.4-1.773" transform="translate(-162.084 -33.705)" fill="#ffeaa8"/>
            <path id="Trazado_605591" data-name="Trazado 605591" d="M437.662,153.761c3.522-2.809,47.021,11.966,49.311,9.853a28.41,28.41,0,0,0,3.906-6.108c-.149-2.024-.306-4.168-.466-6.363-3.639.639-8.723,1.729-8.723,1.729l1.946-15.634s-40.514-.039-43.307-2.788-3.371-17.857-3.723-21.322-7.22-5.692-14.512-7.166L418.3,98.9l-7.577,5.494a14.056,14.056,0,0,0,4.032,8.084s7.068.977,10.847,1.814c4.932,1.092,6.207,2.449,6.207,3.837,0,3.242,0,36.786,1.051,53.116,0,0,1.283-14.672,4.805-17.481" transform="translate(-162.31 -39.083)" fill="#f7d89a"/>
            <path id="Trazado_605592" data-name="Trazado 605592" d="M425.992,86.5s-15.738,6.275-15.738,6.275a27.164,27.164,0,0,0,.22,6.606c3.1.217,7.056.465,7.056.465l7.258-7.058Z" transform="translate(-162.085 -34.182)" fill="#f7d89a"/>
            <path id="Trazado_605593" data-name="Trazado 605593" d="M176.077,96.832l-15.527,3.523s-16.135-4.985-22.956-5.9-14.822,3.5-14.822,3.5,7.182,1.36,10.674,3.652,21.2,12,26.973,12.261,20.725,0,20.725,0Z" transform="translate(-48.518 -37.276)" fill="#f8c6a3"/>
            <path id="Trazado_605594" data-name="Trazado 605594" d="M160.418,115.5c5.772.262,20.725,0,20.725,0l-5.067-17.034a21.354,21.354,0,0,0-6.443,12.59,45.994,45.994,0,0,1-9.25.549c-3.8-.341-24.073-10.1-28.572-10.858s-9.04-1.159-9.04-1.159,7.182,1.36,10.674,3.651,21.2,12,26.972,12.261" transform="translate(-48.517 -38.913)" fill="#f3bd99"/>
            <path id="Trazado_605595" data-name="Trazado 605595" d="M344.667,133.958s-.031,5.662,4.969,14.275c2.6,4.474,1.785,8.558,0,16.39s-7.482,31.482-7.482,31.482h62.555s-3.486-16.282-10.589-28c-6.047-9.977-11.444-15.095-10.588-19.184,1.754-8.372,7.721-27.321,5.022-29.584l-43.887,2.531Z" transform="translate(-135.214 -47.16)" fill="#93bf56"/>
            <path id="Trazado_605596" data-name="Trazado 605596" d="M351.279,135.949a15.716,15.716,0,0,0,2.667-4.846s19.586.925,22.59.917c2.269-.007,10.516-6.216,14.337-9.51.053-1.581-.135-2.718-.677-3.172l-43.887,2.531v12.091a19.084,19.084,0,0,0,.75,4.434,7.1,7.1,0,0,0,4.22-2.445" transform="translate(-136.856 -47.161)" fill="#80ad4d"/>
            <path id="Trazado_605597" data-name="Trazado 605597" d="M515.511,148.774s-10.251,18.257-16.32,26.244a3.416,3.416,0,0,1-3.209,1.6c-4.118-.082-43.443-11.5-48.049-13.6-5.091-2.318-7.023-4.229-7.771-10.077s3.253-12.1,3.253-12.1l.044,7.864s8.907,3.828,13.317,5.038S487.5,159.9,487.5,159.9l11.189-17.943Z" transform="translate(-173.909 -55.66)" fill="#f8c6a3"/>
            <path id="Trazado_605598" data-name="Trazado 605598" d="M510.448,146.721l-11.761-4.767-5.7,9.136a19.031,19.031,0,0,0,4.055,7.674,20.083,20.083,0,0,0,4.62,4.063s-4.471,7.257-5.663,8.152-38.738-9.468-38.738-9.468l24.684-2.667c-7.538-1.432-21.834-4.183-25.169-5.1-4.41-1.21-13.317-5.038-13.317-5.038l-.045-7.865s-4,6.25-3.253,12.1,2.68,7.76,7.771,10.078c4.606,2.1,43.931,13.515,48.048,13.6a3.413,3.413,0,0,0,3.208-1.6c4.732-6.226,12-18.689,14.979-23.885Z" transform="translate(-173.909 -55.66)" fill="#f3bd99"/>
            <path id="Trazado_605599" data-name="Trazado 605599" d="M417.731,119.317c2.962-.452,6.1,4.163,10.82,8.162,4.26,3.607,15.226,11.323,16.813,11.4l39.542,1.393-5.578,8.945c-5.378,1-35.318,2.565-37.435,1.96-4.017-1.147-25.907-15.362-25.907-15.362,1.479-6.761,2.1-13.451,1.745-16.5" transform="translate(-164.391 -47.14)" fill="#ffdbc2"/>
            <path id="Trazado_605600" data-name="Trazado 605600" d="M554.062,127.9c-2.921,7.379-10.935,19.911-10.935,19.911-11.395-1.875-16.626-12.12-16.626-12.12s2.087-4.058,5.189-9.465c0-.006,0-.006.006-.012.823-1.446,1.724-2.982,2.679-4.566.683-1.1,2.468-1.566,5.927-1.458a65.255,65.255,0,0,0,10.953-.871,28.9,28.9,0,0,0,.956-6.9,37.336,37.336,0,0,1-11.244,2.31,15.99,15.99,0,0,0-2.443.284c.405-.617.81-1.228,1.222-1.833,4.687-6.931,8.9-8.957,12.477-8.467,4.016,4.839,3.816,18.193,1.839,23.189" transform="translate(-208.065 -41.352)" fill="#3cb28e"/>
            <path id="Trazado_605601" data-name="Trazado 605601" d="M317.339,122.5c-3.4-.579-9.292,2.22-14.014,6.219-4.26,3.607-16.275,11.348-17.863,11.424-2.174.1-25.036-2.447-25.036-2.447s6.749,8.03,15.359,10.789c6.8,2.18,11.063,3.074,15.2,2.469s23.21-13.912,23.21-13.912c3.148-1.948,5.177-11.247,3.148-14.542" transform="translate(-102.916 -48.38)" fill="#ffdbc2"/>
            <path id="Trazado_605602" data-name="Trazado 605602" d="M313.457,131.225c.868,1.289-11.636,9.458-15.311,12.2s-6.973,4.51-11.032,4.246-14.667-2.241-25.941-9.462h0c1.643,1.808,7.6,7.938,14.908,10.278,6.8,2.18,11.063,3.075,15.2,2.47s23.21-13.913,23.21-13.913c3.148-1.947,5.177-11.247,3.148-14.541-3.4-.58-9.292,2.22-14.015,6.218,0,0,8.969,1.217,9.837,2.506" transform="translate(-103.212 -48.381)" fill="#fbd1b5"/>
            <path id="Trazado_605603" data-name="Trazado 605603" d="M361.159,94.272,376.326,99.6S395.436,88.742,401.871,86.3c10.466-8.933,19.093-1.527,19.093-1.527s-4.145.217-14.7,8.947c-3.219,2.662-22.172,20.113-27.943,19.835s-23.8-2.794-23.8-2.794Z" transform="translate(-140.103 -32.361)" fill="#f8c6a3"/>
            <path id="Trazado_605604" data-name="Trazado 605604" d="M378.321,114.975c5.771.278,24.724-17.173,27.943-19.835,10.555-8.731,14.7-8.947,14.7-8.947-3.686-2.092-9.511.642-15.747,5.745s-24.075,18.537-26.25,18.551-12.8-1.475-12.8-1.475c-1.266-11.362-5.005-13.32-5.005-13.32l-6.634,16.487s18.024,2.517,23.8,2.794" transform="translate(-140.103 -33.782)" fill="#f3bd99"/>
            <path id="Trazado_605605" data-name="Trazado 605605" d="M323.294,91.956s4.222-.47,11.374,1.766c7.656,2.394,13.759,4.512,13.759,4.512s5.582,6.875,1.295,19.281c0,0-6.453-.505-13.421-1.3-6.3-.717-6.279-1.295-8.522.446,0,0-3.347-1.429-4.859-10.35-1.576-9.3.375-14.356.375-14.356" transform="translate(-127.37 -36.323)" fill="#00a5c8"/>
            <g id="Grupo_1015084" data-name="Grupo 1015084" transform="translate(196.588 73.373)" opacity="0.37">
              <g id="Grupo_1015083" data-name="Grupo 1015083">
                <g id="Grupo_1015082" data-name="Grupo 1015082" clip-path="url(#clip-path-5)">
                  <path id="Trazado_605606" data-name="Trazado 605606" d="M325.038,122.284c1.637,5.062,3.821,6,3.821,6,2.243-1.741,2.219-1.163,8.522-.445,6.968.793,13.421,1.3,13.421,1.3a30.081,30.081,0,0,0,1.341-5.381c-8.207-.994-23.187-3.262-26.313-2.128a1.694,1.694,0,0,0-.792.66" transform="translate(-325.038 -121.314)" fill="#3e65ae"/>
                </g>
              </g>
            </g>
            <path id="Trazado_605607" data-name="Trazado 605607" d="M98.1,44.719c1.156.137,4.472-1.933,5.6-7.274,0,0,3.575-9.057-5.194-13.089s-17.471-3.2-23.341,2.117c-6.988,6.326-7.785,15.8-5.791,22.681,1.75,6.043,3.355,9.377,8.323,11.616,2.962.67,7.879,1,12.175-1.7,3.755-2.36,6.012-6.591,4.9-7.3-.716-.223-2.016.705-3.528-2.016s-1.215-9.379,3.528-9.274c3.406.076,2.169,4.1,3.326,4.234" transform="translate(-27.038 -8.624)" fill="#5e2f36"/>
            <path id="Trazado_605608" data-name="Trazado 605608" d="M54.547,15.657S53.189,2.469,40.357.436c-13.04-2.065-19.893,3.495-22.58,10.593-2.8,7.4,2.621,16.129-3.931,20.765S.54,38.447.036,45.6s4.536,8.646,5.141,12.589S2.271,66.268,7.2,71.309s19.042,5.767,26.6-5.275c6.479-9.461,4.133-19.019,4.335-29.2s1.13-15.9,5.645-19.05c3.906-2.722,8.367.6,8.367.6Z" transform="translate(0 0)" fill="#5e2f36"/>
            <path id="Trazado_605609" data-name="Trazado 605609" d="M271.638,22.811a5.37,5.37,0,0,0-5.72,1.251c-2.682,2.592-3.486,8.849-1.609,16.089s3.61,14.855,14.838,15.731c10.274.8,14.937-7.643,16.2-14.995.918-5.345,1.233-8.069,1.233-8.069a8.3,8.3,0,0,0,4.075-3.371c1.851-3.137-.982-2.364-3.931-2.722,0,0,3.45-1.879,4.687-4.687,1.915-4.347.111-5.265-3.553-4.461s-7.538-.22-12.811-1.739-13.229-.357-13.408,6.972" transform="translate(-104.047 -6.029)" fill="#2f256a"/>
            <path id="Trazado_605610" data-name="Trazado 605610" d="M274.245,89.318s1.384,4.079,9.017,4.079,9.018-4.078,9.018-4.079h-.014l-1.746-.138s-2.016,2.445-7.258,2.445S276,89.179,276,89.179l-1.753.139h-.006" transform="translate(-108.377 -35.242)" fill="#00a5c8"/>
            <path id="Trazado_605611" data-name="Trazado 605611" d="M234.576,91.857a34.643,34.643,0,0,0-12.138.7c-7.846,1.669-14.12,3.209-14.12,3.209s-6.2,6.323-3.088,19.076c0,0,6.185.24,13.2.412,6.636.163,9.795.966,10.861,2.982,0,0,3.173-2.788,4.886-12.062s.4-14.314.4-14.314" transform="translate(-80.758 -36.206)" fill="#00a5c8"/>
            <g id="Grupo_1015087" data-name="Grupo 1015087" transform="translate(123.602 72.134)" opacity="0.37">
              <g id="Grupo_1015086" data-name="Grupo 1015086">
                <g id="Grupo_1015085" data-name="Grupo 1015085" clip-path="url(#clip-path-6)">
                  <path id="Trazado_605612" data-name="Trazado 605612" d="M223.736,126.545c3.12.428,4.826,1.238,5.553,2.614,0,0,1.927-1.694,3.588-6.832-1.5-1.249-4.006-1.974-8.348-2.5-6.465-.781-14.468-.518-20.166-.518.008.431.03.878.061,1.331.007.1.015.2.022.3.037.465.082.937.146,1.426v.01c.062.474.143.962.232,1.456.022.125.045.249.07.375.1.508.206,1.024.336,1.554,0,0,6.185.241,13.2.413,1.428.035,2.686.1,3.806.2.53.047,1.035.1,1.5.165" transform="translate(-204.364 -119.266)" fill="#3e65ae"/>
                </g>
              </g>
            </g>
            <path id="Trazado_605613" data-name="Trazado 605613" d="M490.222,24.06a5.37,5.37,0,0,1,5.72,1.251c2.682,2.592,3.486,8.849,1.609,16.089s-4.375,16.589-15.637,16.589c-11.78,0-14.137-8.5-15.4-15.852-.918-5.345-1.233-8.069-1.233-8.069a8.3,8.3,0,0,1-4.075-3.371c-1.851-3.137.982-2.364,3.931-2.722,0,0-3.45-1.879-4.687-4.687-1.915-4.348-.111-5.265,3.553-4.461s7.538-.22,12.811-1.739,13.229-.358,13.408,6.972" transform="translate(-181.656 -6.523)" fill="#3f292d"/>
            <path id="Trazado_605614" data-name="Trazado 605614" d="M562,90.178c7.939-.311,30.339-5.494,33.371-4.077s5.8,4.8,1.927,9.739-27.359,13.876-33.3,13.9Z" transform="translate(-222.094 -33.929)" fill="#c17a61"/>
            <path id="Trazado_605615" data-name="Trazado 605615" d="M597.3,97.169c2.711-3.464,2.164-6.159.551-7.95.579,2,1.253,4.324-5.379,7.556s-23.766,7.615-23.766,7.615c-2.165-9.51-6.7-12.884-6.7-12.884l2,19.562c5.942-.024,29.432-8.957,33.3-13.9" transform="translate(-222.094 -35.258)" fill="#b5715a"/>
            <path id="Trazado_605616" data-name="Trazado 605616" d="M536.323,116.874c.686-1.1,2.394-1.456,5.853-1.348a65.577,65.577,0,0,0,10.954-.872s3.662-12.232-3.285-21.714c0,0-8.087.154-14.725-.094,0,0-9.481,15.1,1.2,24.028" transform="translate(-209.939 -36.691)" fill="#ffeaa8"/>
            <path id="Trazado_605617" data-name="Trazado 605617" d="M544.363,119.805a15.992,15.992,0,0,0-2.443.284c-6.363,1.294-5.05,6.435-6.828,11.2.823-1.445,1.724-2.982,2.679-4.566.683-1.1,2.468-1.566,5.927-1.458a65.255,65.255,0,0,0,10.953-.871,28.9,28.9,0,0,0,.956-6.9,37.335,37.335,0,0,1-11.244,2.31" transform="translate(-211.46 -46.432)" fill="#f7d89a"/>
            <path id="Trazado_605618" data-name="Trazado 605618" d="M442.41,147.5c-1.569-.8-21.693-12.376-22.032-12.927s-.807-1.626-.692-6.788a16.33,16.33,0,0,0-1.954-8.45c.358,3.046-.267,9.736-1.745,16.5,0,0,21.891,14.214,25.907,15.361,2.117.6,32.058-.963,37.435-1.96l1.672-2.68c-7.7.351-37.227,1.644-38.59.947" transform="translate(-164.392 -47.16)" fill="#fbd1b5"/>
            <path id="Trazado_605619" data-name="Trazado 605619" d="M404.65,55.109c-.016.007-7.278,3.155-14.545-4.057,0,0,1.658,5.852,9.887,6.827,3.079.365,5.942-.607,5.729-1a19.076,19.076,0,0,0-1.071-1.765" transform="translate(-154.164 -20.175)" fill="#523c7c"/>
            <path id="Trazado_605620" data-name="Trazado 605620" d="M536.625,154.654a22.112,22.112,0,0,0,10.5,4.854s8.014-12.532,10.935-19.911a21.6,21.6,0,0,0,1.144-5.354c-9.459,19.835-22.581,20.411-22.581,20.411" transform="translate(-212.066 -53.051)" fill="#349977"/>
            <path id="Trazado_605621" data-name="Trazado 605621" d="M646.158,137.181a78.963,78.963,0,0,1-.793,10.3l5.7,8.066a23.694,23.694,0,0,0,6.872-1.848Z" transform="translate(-255.038 -54.212)" fill="#349977"/>
          </g>
        </g>
      </g>
    </g>
  </g>
</svg>
