<svg id="Grupo_1014891" data-name="Grupo 1014891" xmlns="http://www.w3.org/2000/svg" xmlns:xlink="http://www.w3.org/1999/xlink" width="261.632" height="217.881" viewBox="0 0 261.632 217.881">
  <defs>
    <clipPath id="clip-path">
      <rect id="Rectángulo_345559" data-name="Rectángulo 345559" width="261.632" height="217.881" fill="none"/>
    </clipPath>
  </defs>
  <rect id="Rectángulo_345555" data-name="Rectángulo 345555" width="102.214" height="6.66" transform="translate(4.144 210.717)" fill="#fff"/>
  <path id="Trazado_604488" data-name="Trazado 604488" d="M33.906,129H55.328l-3.03,23.39H36.921Z" transform="translate(14.234 54.156)" fill="#1a1a1a"/>
  <rect id="Rectángulo_345556" data-name="Rectángulo 345556" width="195.833" height="136.819" transform="translate(48.471 12.77)" fill="#fff"/>
  <g id="Grupo_1014890" data-name="Grupo 1014890">
    <g id="Grupo_1014889" data-name="Grupo 1014889" clip-path="url(#clip-path)">
      <path id="Trazado_604489" data-name="Trazado 604489" d="M195.045,59.348h-69.8a14.384,14.384,0,0,0-14.368,14.368v45.168a14.383,14.383,0,0,0,14.368,14.367h69.8a14.382,14.382,0,0,0,14.364-14.367V73.716a14.383,14.383,0,0,0-14.364-14.368" transform="translate(46.545 24.914)" fill="#fff"/>
      <path id="Trazado_604490" data-name="Trazado 604490" d="M73.653,31.094H22.29A14.3,14.3,0,0,0,8.028,45.356V69.575A14.306,14.306,0,0,0,22.29,83.837H73.653a14.307,14.307,0,0,0,14.26-14.262V45.356a14.3,14.3,0,0,0-14.26-14.262" transform="translate(3.37 13.053)" fill="#a3bfe4"/>
      <path id="Trazado_604491" data-name="Trazado 604491" d="M52.19,56.344c2.4-1.4,2.4-3.706,0-5.113L33.7,40.435c-2.408-1.4-4.376-.274-4.376,2.514V64.641c0,2.784,1.968,3.914,4.374,2.509Z" transform="translate(12.31 16.722)" fill="#fff"/>
      <path id="Trazado_604492" data-name="Trazado 604492" d="M174.144,79.811a7.769,7.769,0,1,1-7.769-7.769,7.767,7.767,0,0,1,7.769,7.769" transform="translate(66.583 30.243)" fill="#fff"/>
      <path id="Trazado_604493" data-name="Trazado 604493" d="M218.667,1.727H35.634A1.884,1.884,0,0,0,33.95,3.753V21.065H219.113Z" transform="translate(14.252 0.725)" fill="#1a1a1a"/>
      <path id="Trazado_604494" data-name="Trazado 604494" d="M46.716,7.148a2.567,2.567,0,1,1-2.567-2.567,2.566,2.566,0,0,1,2.567,2.567" transform="translate(17.456 1.923)" fill="#ffce26"/>
      <path id="Trazado_604495" data-name="Trazado 604495" d="M53.669,7.148A2.567,2.567,0,1,1,51.1,4.581a2.564,2.564,0,0,1,2.567,2.567" transform="translate(20.375 1.923)" fill="#ffce26"/>
      <path id="Trazado_604496" data-name="Trazado 604496" d="M60.623,7.148a2.566,2.566,0,1,1-2.564-2.567,2.564,2.564,0,0,1,2.564,2.567" transform="translate(23.295 1.923)" fill="#ffce26"/>
      <path id="Trazado_604497" data-name="Trazado 604497" d="M197.628,125.26h-69.8a13.819,13.819,0,0,1-13.806-13.8V99.8l23.039-13.2a12.309,12.309,0,0,1,11.05.092l16.173,9.638A17.225,17.225,0,0,0,176.9,97.665l10.137-3.437a17.875,17.875,0,0,1,11.918.877l11.773,6.044a4.275,4.275,0,0,1,.625.425c.077.058.077,9.883.077,9.883a13.817,13.817,0,0,1-13.8,13.8" transform="translate(47.865 35.827)" fill="#fff198"/>
      <path id="Trazado_604498" data-name="Trazado 604498" d="M81.069,81.8l14.368-3.74a39.673,39.673,0,0,1,.082-10.795s4.789,24.912,8.444,33.9,8.276,19.028,14.62,18.692,9.829-3.78,13.61-4.326a12.537,12.537,0,0,1,6.426.649,40.92,40.92,0,0,1,8.83,15.507c2.426,8.84,2.736,11.321,2.436,19.974s-1.242,18.567-1.242,18.567,5.114,2.284,9.768-2.935,5.069-9.01,4.806-12.694a53.425,53.425,0,0,0-3.643-18.132c-3.26-8.127-6.464-17.153-14.192-23.917,0,0-2.267-2.144-7.434-3.278s-10.418-4.2-12.141-10.082-.841-12.56-.67-17.39.04-15.878-4.959-20.961-13.022-3.907-16.887-2.4-7.812,3.275-7.812,3.275S85.27,63.065,82.751,69.535A26.7,26.7,0,0,0,81.069,81.8" transform="translate(33.976 23.99)" fill="#1a1a1a"/>
      <path id="Trazado_604499" data-name="Trazado 604499" d="M83.039,80.973l11.777-3.067a40.178,40.178,0,0,1,0-11.1s7.462,24.541,11.117,33.529,8.319,19.511,14.618,18.693c6.2-.806,6.268-2.781,10.049-3.328a18.034,18.034,0,0,1,6.948.393,37.841,37.841,0,0,1,8.9,15.179c2.429,8.837,2.8,11.184,2.5,19.836s-1.133,19.132-1.133,19.132,5.113,2.284,9.768-2.936,5.067-9.862,4.8-13.546a49.677,49.677,0,0,0-3.642-17.279c-3.261-8.127-6.033-15.55-12.4-22.1a15.888,15.888,0,0,0-7.685-4.832c-5.167-1.142-11.586-3.613-13.739-10.8-1.756-5.871-.48-13.316-.314-18.148s-.166-14.385-5.167-19.468-10.524-4.387-15.625-3.088a54.409,54.409,0,0,0-9.358,3.814s-7.224.373-9.744,6.845a26.686,26.686,0,0,0-1.681,12.266" transform="translate(34.803 23.975)" fill="#1a1a1a"/>
      <path id="Trazado_604500" data-name="Trazado 604500" d="M97.256,77.164l2.5,8.449s5.754.383,5.946-4.224-2.243-7.17-3.839-7.255-3.7-.2-4.6,3.03" transform="translate(40.828 31.11)" fill="#fff"/>
      <path id="Trazado_604501" data-name="Trazado 604501" d="M82.509,77.284l.561-.588,1.437-.336.7.461L86.858,85.1l-.4.755-1.6.359-.818-.419Z" transform="translate(34.637 32.056)" fill="#fff"/>
      <path id="Trazado_604502" data-name="Trazado 604502" d="M96.981,103.115l6.2-5.969,2.634,2.908s-6.985,13.741-7.418,15.261Z" transform="translate(40.713 40.782)" fill="#fff"/>
      <path id="Trazado_604503" data-name="Trazado 604503" d="M61.021,158.918l1.859.968h1.765l14.215,3.741,1.881,12.528,79.537.449-3.963-12.2,1.264-21.135s1.141-14.239.449-19.03-3.038-14.658-6.741-19.636-4.308-5.654-4.308-5.654-3.983-1.315-6.784-.48-9.138,4.14-12.538,4.1A8.009,8.009,0,0,1,121.2,99.6s-8.736,13.423-9.679,22.937-1.386,15.94.442,26.085c.055.507-50.945,10.295-50.945,10.295" transform="translate(25.617 41.221)" fill="#33ece0"/>
      <path id="Trazado_604504" data-name="Trazado 604504" d="M42.541,148.364H83.3s2.435.335,2.039,1.812a5,5,0,0,1-1.343,2.3l3.713.009-.683-5.874L72.4,142.87H70.639s-9.916-3.747-13.871-4.1a8.683,8.683,0,0,0-6.914,2.418c-.921.73-7.312,7.179-7.312,7.179" transform="translate(17.859 58.237)" fill="#fff"/>
      <path id="Trazado_604505" data-name="Trazado 604505" d="M47.282,126.382c-9.826-.3-8.622-10.444-4.807-14.588,0,0,1.823-1.991.163-6.963S42.8,94.553,49.1,93.89s9.452,5.3,8.622,9.284-1.163,5.14,0,8.95.5,14.59-10.444,14.258" transform="translate(16.654 39.394)" fill="#fff"/>
      <path id="Trazado_604506" data-name="Trazado 604506" d="M53.334,89.375c0,2.519-1.336,4.559-2.983,4.559s-2.983-2.04-2.983-4.559,1.336-4.558,2.983-4.558,2.983,2.043,2.983,4.558" transform="translate(19.885 35.606)" fill="#fff"/>
      <path id="Trazado_604507" data-name="Trazado 604507" d="M101.042,163.427H33.969l-29.8-59.45A2.052,2.052,0,1,0,.5,105.816l30.37,60.6a2.051,2.051,0,0,0,2.154,1.1c.236.023,68.016.023,68.016.023a2.052,2.052,0,1,0,0-4.1" transform="translate(0.12 43.174)" fill="#a3bfe4"/>
      <path id="Trazado_604508" data-name="Trazado 604508" d="M59.249,130.96c-.193-.9-1.234-5.37-2.708-5.37H54.664L52.4,121.613c-.185-.109-6.983-.109-6.983-.109h-6.8c-.183.109-2.448,4.086-2.448,4.086H34.3c-1.474,0-2.517,4.471-2.71,5.37a2.72,2.72,0,0,0,2.71,2.759H56.541a2.716,2.716,0,0,0,2.712-2.713.15.15,0,0,0,0-.045" transform="translate(13.26 51.007)" fill="#fff"/>
      <rect id="Rectángulo_345557" data-name="Rectángulo 345557" width="9.364" height="9.364" transform="translate(196.377 68.697)" fill="#752121"/>
      <rect id="Rectángulo_345558" data-name="Rectángulo 345558" width="6.828" height="6.829" transform="translate(210.755 57.414)" fill="#ffce26"/>
      <path id="Trazado_604509" data-name="Trazado 604509" d="M143.45,118.676s-1.489,11.475,20.464,21.754c.422,0-6.755-14.885-20.464-21.754" transform="translate(60.212 49.82)" fill="#fff"/>
      <path id="Trazado_604510" data-name="Trazado 604510" d="M186.867,124.053c-12.785,6.408-21,21.673-21,21.673,22.43-10.25,21-21.673,21-21.673" transform="translate(69.632 52.078)" fill="#fff"/>
      <path id="Trazado_604511" data-name="Trazado 604511" d="M143.665,128.317c3.453,11.774,15.029,20.918,17.8,22.974l.606.439c-5.468-21.493-18.4-23.412-18.4-23.412" transform="translate(60.311 53.868)" fill="#fff"/>
      <path id="Trazado_604512" data-name="Trazado 604512" d="M155.849,113.384s-5.645,10.255,10.842,26.479c.017-2.526-1.536-16.8-10.842-26.479" transform="translate(65.034 47.599)" fill="#fff"/>
      <path id="Trazado_604513" data-name="Trazado 604513" d="M149.307,99.444s-1.261,11.208,20.208,21.426l.666.3c-.156-.322-7.316-14.929-20.874-21.724" transform="translate(62.673 41.747)" fill="#fff"/>
      <path id="Trazado_604514" data-name="Trazado 604514" d="M158.953,91.653c.146,9.328,8.28,19.217,8.28,19.217.451-16.018-8.28-19.217-8.28-19.217" transform="translate(66.729 38.476)" fill="#fff"/>
      <path id="Trazado_604515" data-name="Trazado 604515" d="M188.546,90.148c-11.816,5.922-18.767,17.779-20.464,20.941l-.1.656c21.845-10.264,20.559-21.6,20.559-21.6" transform="translate(70.521 37.844)" fill="#fff"/>
      <path id="Trazado_604516" data-name="Trazado 604516" d="M186.856,112.991c-12.727,6.378-19.816,19.646-20.766,21.514,22.049-10.18,20.766-21.514,20.766-21.514" transform="translate(69.725 47.434)" fill="#fff"/>
      <path id="Trazado_604517" data-name="Trazado 604517" d="M167.987,117.288c21.5-4.373,23.124-14.3,23.124-14.3-12.393,2.969-23.124,14.3-23.124,14.3" transform="translate(70.521 43.236)" fill="#fff"/>
      <path id="Trazado_604518" data-name="Trazado 604518" d="M164.458,139.186c-22.563-10.321-21.351-21.726-21.288-22.209,14.256,6.541,21.58,21.479,21.653,21.628-.1.51-.226.581-.365.581m-20.493-21.5c.1,2.448,1.682,11.87,19.714,20.475-1.681-3.108-8.442-14.56-19.714-20.475" transform="translate(60.09 49.107)" fill="#1a1a1a"/>
      <path id="Trazado_604519" data-name="Trazado 604519" d="M164.777,144.932c-.612-.788,7.727-16.088,20.481-22.477.642.788,1.8,12.142-20.309,22.44a.4.4,0,0,1-.172.037m20.263-21.456c-10.5,5.549-17.87,17.155-19.764,20.367,18-8.59,19.653-17.925,19.764-20.367" transform="translate(69.16 51.407)" fill="#1a1a1a"/>
      <path id="Trazado_604520" data-name="Trazado 604520" d="M163,150.971a5.428,5.428,0,0,1-.846-.517c-3.345-2.482-14.515-11.483-17.946-23.188.579-.5,13.714,1.694,19.184,23.2-.233.483-.314.5-.392.5m-17.809-23.262c3.542,10.975,14.233,19.659,17.123,21.851-4.746-17.243-14.506-21.11-17.123-21.851" transform="translate(60.539 53.402)" fill="#1a1a1a"/>
      <path id="Trazado_604521" data-name="Trazado 604521" d="M165.377,140.341c-16.8-16.367-11.434-26.65-11.2-27.078,9.985,9.623,11.59,23.767,11.817,26.5-.471.554-.545.574-.62.574m-10.71-26.153c-.815,2.255-2.906,11.478,10.451,24.919-.406-3.829-2.306-16.1-10.451-24.919" transform="translate(64.305 47.548)" fill="#1a1a1a"/>
      <path id="Trazado_604522" data-name="Trazado 604522" d="M170.376,120.142a8.927,8.927,0,0,1-.831-.331c-21.493-10.231-20.5-21.372-20.445-21.842,14.205,6.507,21.342,20.979,21.639,21.591-.152.54-.256.582-.363.582M149.909,98.677c.142,2.441,1.9,11.659,19.562,20.2-1.866-3.432-8.463-14.371-19.562-20.2" transform="translate(62.584 41.127)" fill="#1a1a1a"/>
      <path id="Trazado_604523" data-name="Trazado 604523" d="M167.54,109.931c-.649-.555-8.536-10.255-8.685-19.615.911-.254,9.542,3.091,9.237,19.047-.324.517-.434.568-.552.568M159.688,90.97c.424,7.445,5.82,15.2,7.6,17.569-.007-12.339-5.745-16.535-7.6-17.569" transform="translate(66.687 37.91)" fill="#1a1a1a"/>
      <path id="Trazado_604524" data-name="Trazado 604524" d="M166.741,110.911a1.536,1.536,0,0,1-.3-1.119c1.894-3.585,8.855-15.315,20.685-21.243.636.791,1.646,12.056-20.208,22.325a.443.443,0,0,1-.175.037M186.9,89.574c-10.968,5.756-17.563,16.552-19.553,20.2,17.664-8.539,19.414-17.757,19.553-20.2" transform="translate(69.866 37.173)" fill="#1a1a1a"/>
      <path id="Trazado_604525" data-name="Trazado 604525" d="M164.89,133.757c.224-2.211,7.464-15.892,20.388-22.365.636.791,1.647,12.06-20.218,22.326a.378.378,0,0,1-.17.038m20.164-21.341c-11.02,5.79-17.718,16.854-19.553,20.2,17.665-8.534,19.413-17.753,19.553-20.2" transform="translate(69.221 46.762)" fill="#1a1a1a"/>
      <path id="Trazado_604526" data-name="Trazado 604526" d="M167.259,116.606c-.393-.94,10.457-12.274,22.823-15.236.426.875-1.417,10.67-22.554,15.159a.61.61,0,0,1-.27.077m22.328-14.273c-9.987,2.655-18.869,10.711-21.473,13.24,16.81-3.76,20.675-11.052,21.473-13.24" transform="translate(70.211 42.555)" fill="#1a1a1a"/>
      <path id="Trazado_604527" data-name="Trazado 604527" d="M161.482,167.58a.414.414,0,0,1-.4-.453l7.505-63.042a.385.385,0,0,1,.45-.354.409.409,0,0,1,.356.451l-7.506,63.039a.409.409,0,0,1-.4.358" transform="translate(67.62 43.545)" fill="#1a1a1a"/>
      <path id="Trazado_604528" data-name="Trazado 604528" d="M159.327,155.69a.407.407,0,0,1-.4-.386l-1.053-22.83a.4.4,0,0,1,.385-.423.409.409,0,0,1,.425.385l1.055,22.829a.407.407,0,0,1-.386.426Z" transform="translate(66.273 55.435)" fill="#1a1a1a"/>
      <path id="Trazado_604529" data-name="Trazado 604529" d="M157.788,150.9a.405.405,0,0,1-.406-.389l-.221-6.723a.4.4,0,0,1,.39-.419.388.388,0,0,1,.42.392l.221,6.718a.4.4,0,0,1-.39.42Z" transform="translate(65.976 60.188)" fill="#1a1a1a"/>
      <path id="Trazado_604530" data-name="Trazado 604530" d="M164.144,153.29a.409.409,0,0,1-.4-.424l.72-14.791a.406.406,0,0,1,.811.04l-.721,14.79a.407.407,0,0,1-.4.386" transform="translate(68.738 57.802)" fill="#1a1a1a"/>
      <path id="Trazado_604531" data-name="Trazado 604531" d="M163.234,137.28c-.393-.31-1.648-5.384-1.648-5.384a.406.406,0,0,1,.788-.193l1.254,5.074a.4.4,0,0,1-.3.49.323.323,0,0,1-.1.013" transform="translate(67.829 55.158)" fill="#1a1a1a"/>
      <path id="Trazado_604532" data-name="Trazado 604532" d="M163.791,130.463c-.378-.139-.463-.38-.363-.584l1.531-3.138a.406.406,0,0,1,.73.356l-1.532,3.138a.405.405,0,0,1-.365.227" transform="translate(68.591 53.111)" fill="#1a1a1a"/>
      <path id="Trazado_604533" data-name="Trazado 604533" d="M165.016,123.3c-.4-.372-1.224-9.842-1.224-9.842a.41.41,0,0,1,.372-.439.464.464,0,0,1,.44.372l.816,9.469a.407.407,0,0,1-.371.44Z" transform="translate(68.76 47.444)" fill="#1a1a1a"/>
      <path id="Trazado_604534" data-name="Trazado 604534" d="M166.469,111.82c-.4-.329-1.775-7.783-1.775-7.783a.4.4,0,0,1,.322-.473.393.393,0,0,1,.473.324l1.377,7.453a.4.4,0,0,1-.324.473.448.448,0,0,1-.074.007" transform="translate(69.136 43.472)" fill="#1a1a1a"/>
      <path id="Trazado_604535" data-name="Trazado 604535" d="M165.288,118.881c-.368-.121-.46-.359-.372-.564l2.842-6.6a.393.393,0,0,1,.53-.213.4.4,0,0,1,.212.532l-2.841,6.6a.4.4,0,0,1-.371.246" transform="translate(69.219 46.793)" fill="#1a1a1a"/>
      <path id="Trazado_604536" data-name="Trazado 604536" d="M83.546,78.011c-.535-1.594-1.188-3.676-1.193-3.7a.406.406,0,0,1,.261-.51.4.4,0,0,1,.51.264,23.407,23.407,0,0,1,.825,3.493.4.4,0,0,1-.359.446.23.23,0,0,1-.044,0" transform="translate(34.564 30.974)" fill="#1a1a1a"/>
      <path id="Trazado_604537" data-name="Trazado 604537" d="M89.911,77.06a3.967,3.967,0,0,0-4.8-.779.406.406,0,0,1-.427-.69,4.524,4.524,0,0,1,5.517.779.405.405,0,0,1-.29.69" transform="translate(35.47 31.475)" fill="#1a1a1a"/>
      <path id="Trazado_604538" data-name="Trazado 604538" d="M100.82,86.155a8.309,8.309,0,0,1-.98-.062.4.4,0,0,1-.354-.45.4.4,0,0,1,.45-.355,4.565,4.565,0,0,0,4.169-1.242,6.006,6.006,0,0,0,1.153-5.056c-.247-1.183-1.3-4.964-4.931-4.316a3.3,3.3,0,0,0-2.5,2.686.393.393,0,0,1-.459.342.4.4,0,0,1-.342-.459,4.047,4.047,0,0,1,3.148-3.366c3.419-.649,5.287,2.133,5.877,4.949a6.786,6.786,0,0,1-1.353,5.769,5.054,5.054,0,0,1-3.882,1.56" transform="translate(40.731 30.973)" fill="#1a1a1a"/>
      <path id="Trazado_604539" data-name="Trazado 604539" d="M102.216,82.209c-.108-.014-3.966-1.085-3.966-1.085-.241-.595,2.6-5.5,2.6-5.5a.4.4,0,0,1,.7.4l-2.578,4.454,3.351.93a.406.406,0,0,1-.109.8" transform="translate(41.239 31.661)" fill="#1a1a1a"/>
      <path id="Trazado_604540" data-name="Trazado 604540" d="M87.247,80.948a.719.719,0,0,1-.872-.521l-.488-1.961a.718.718,0,1,1,1.393-.348l.49,1.961a.72.72,0,0,1-.522.869" transform="translate(36.046 32.565)" fill="#1a1a1a"/>
      <path id="Trazado_604541" data-name="Trazado 604541" d="M95.75,102.279a8.509,8.509,0,0,1-3.67-.8c-5.143-2.424-6.666-9.493-6.954-11.137-2.533-.132-5.436-.488-5.661-1.407.034-.284,4.712-9.219,4.712-9.219a.406.406,0,0,1,.72.378L80.332,88.8a19.461,19.461,0,0,0,5.16.741c.393.433,1.624,8.7,6.934,11.2,2.987,1.406,6.74.747,11.144-1.948a.405.405,0,0,1,.425.69,16.171,16.171,0,0,1-8.245,2.791" transform="translate(33.359 33.373)" fill="#1a1a1a"/>
      <path id="Trazado_604542" data-name="Trazado 604542" d="M89.756,87.441c-.31-.18-3.659,2.6-5.263,2.713a4.258,4.258,0,0,0,.8,2.461c1.559-1.116,4.758-5,4.462-5.174" transform="translate(35.47 36.704)" fill="#1a1a1a"/>
      <path id="Trazado_604543" data-name="Trazado 604543" d="M84.941,86.777a1.133,1.133,0,0,1-1.112-.923l-1.576-8.2a1.138,1.138,0,0,1,.9-1.329l1.261-.244a1.117,1.117,0,0,1,1.33.9l1.573,8.2a1.138,1.138,0,0,1-.176.855,1.1,1.1,0,0,1-.727.477l-1.262.241a1.1,1.1,0,0,1-.216.021m-.311-9.9-1.319.247c-.261.382,1.315,8.583,1.315,8.583.378.258,1.641.017,1.641.017.258-.381-1.315-8.583-1.315-8.583a.325.325,0,0,0-.322-.264" transform="translate(34.521 31.929)" fill="#1a1a1a"/>
      <path id="Trazado_604544" data-name="Trazado 604544" d="M85.046,80.9c-.444-.535-.305-.751-.088-.8l12.8-2.865a.391.391,0,0,1,.484.307.4.4,0,0,1-.305.484l-12.8,2.865a.392.392,0,0,1-.089.01" transform="translate(35.58 32.42)" fill="#1a1a1a"/>
      <path id="Trazado_604545" data-name="Trazado 604545" d="M99.084,155.209c-.49-.571-10.967-30.824,7.258-55.927a.406.406,0,0,1,.656.478c-17.976,24.757-7.639,54.61-7.532,54.907a.4.4,0,0,1-.246.518.374.374,0,0,1-.136.024" transform="translate(40.152 41.608)" fill="#1a1a1a"/>
      <path id="Trazado_604546" data-name="Trazado 604546" d="M134.942,176.556c-.386-.278-4.235-12.131-4.235-12.131,0-.488,2.023-33.962,2.023-35.07.013-13.345-6.885-27-11.449-30.178a.405.405,0,0,1-.1-.564.41.41,0,0,1,.565-.1c4.707,3.274,11.808,17.246,11.8,30.844,0,1.116-1.905,32.68-2.039,34.89l3.826,11.782a.408.408,0,0,1-.261.511.376.376,0,0,1-.125.018" transform="translate(50.841 41.325)" fill="#1a1a1a"/>
      <path id="Trazado_604547" data-name="Trazado 604547" d="M110.82,166.192c-.453-.5-.335-.723-.122-.791a49.754,49.754,0,0,0,10.021-4.063c1.873-.927,6.648-3.589,11.251-10.666,1.427-2.194,4.353-12.41,4.971-27.155a.405.405,0,1,1,.809.034c-.575,13.758-3.332,24.848-5.1,27.564-4.718,7.251-9.66,10.005-11.062,10.675a51.517,51.517,0,0,1-10.644,4.383.373.373,0,0,1-.124.018" transform="translate(46.392 51.689)" fill="#1a1a1a"/>
      <path id="Trazado_604548" data-name="Trazado 604548" d="M75.476,169.236c-.4-.356-1.884-12.9-1.884-12.9.307-.442,49.278-12.592,49.278-12.592.2-9.743.645-27.866.645-27.866l.811.02s-.456,18.663-.652,28.29c-.606.345-49.236,12.41-49.236,12.41l1.44,12.185a.4.4,0,0,1-.355.45.276.276,0,0,1-.047,0" transform="translate(30.894 48.646)" fill="#1a1a1a"/>
      <path id="Trazado_604549" data-name="Trazado 604549" d="M60.914,144.435c-.442-.549-.3-.761-.078-.8l51.275-9.841a.39.39,0,0,1,.474.321.4.4,0,0,1-.319.474l-51.275,9.841a.366.366,0,0,1-.077.007" transform="translate(25.451 56.161)" fill="#1a1a1a"/>
      <path id="Trazado_604550" data-name="Trazado 604550" d="M114.761,117.548a7.915,7.915,0,0,1-3.645-.885C97.735,109.9,91.281,66.072,91.012,64.21a.4.4,0,0,1,.342-.459.386.386,0,0,1,.459.342c.065.45,6.663,45.27,19.671,51.847,3.416,1.724,6.493.351,10.058-1.241,3.642-1.629,7.775-3.471,12.741-1.67a.405.405,0,1,1-.275.762c-4.661-1.7-8.461.006-12.136,1.648-2.4,1.073-4.718,2.107-7.11,2.107" transform="translate(38.205 26.758)" fill="#1a1a1a"/>
      <path id="Trazado_604551" data-name="Trazado 604551" d="M151.308,171.2a7.09,7.09,0,0,1-2.719-.487.4.4,0,0,1,.345-.733c.268.122,6.646,2.942,12.525-7.167,3.176-5.461,1.095-19.636-4.842-32.972-5.053-11.348-11.324-18.562-17.2-19.791-15.486-3.241-15.078-13.133-14.608-24.587.261-6.335.527-12.885-1.8-19.116-1.514-4.049-4.021-6.711-7.451-7.91-8.414-2.943-19.742,3.757-19.859,3.824-5.037.609-8.728,2.507-11.127,5.7C80.829,72.923,81.3,79.621,81.5,81.388L95.074,77.8c-.707-3.727.244-10.526.285-10.826a.385.385,0,0,1,.46-.342.406.406,0,0,1,.345.459c-.013.074-1.042,7.438-.217,10.91a.408.408,0,0,1-.291.487l-14.39,3.8c-.564-.669-1.874-8.807,2.651-14.823,2.526-3.355,6.373-5.354,11.436-5.948,1.107-.649,11.972-6.818,20.466-3.852,3.667,1.285,6.341,4.109,7.945,8.4,2.388,6.383,2.116,13.017,1.851,19.431-.456,11.087-.848,20.662,13.964,23.759,6.138,1.285,12.619,8.668,17.779,20.258,5.131,11.522,8.554,27.253,4.8,33.71-3.9,6.7-8.164,7.976-10.85,7.976" transform="translate(33.856 23.873)" fill="#1a1a1a"/>
      <path id="Trazado_604552" data-name="Trazado 604552" d="M50.2,147.661c-.461-.446-.369-.683-.165-.777.65-.287,16.007-7.069,20.844-5.194a105.518,105.518,0,0,0,13.149,3.5.406.406,0,0,1-.159.8,106.1,106.1,0,0,1-13.284-3.54c-4.519-1.745-20.066,5.11-20.222,5.179a.392.392,0,0,1-.163.034" transform="translate(20.936 59.344)" fill="#1a1a1a"/>
      <path id="Trazado_604553" data-name="Trazado 604553" d="M42.657,148.876c-.43-.234-.456-.488-.314-.659.3-.368,7.365-8.945,12.2-9.669,4.8-.733,16.233,3.886,16.718,4.081a.409.409,0,0,1,.224.528.4.4,0,0,1-.531.224c-.115-.044-11.719-4.708-16.288-4.032-4.532.677-11.624,9.29-11.7,9.378a.4.4,0,0,1-.312.149" transform="translate(17.743 58.13)" fill="#1a1a1a"/>
      <path id="Trazado_604554" data-name="Trazado 604554" d="M99.595,102.937c-.369-.234-4.244-8.6-4.244-8.6a.407.407,0,0,1,.738-.342l3.875,8.367a.406.406,0,0,1-.369.576" transform="translate(40.013 39.36)" fill="#1a1a1a"/>
      <path id="Trazado_604555" data-name="Trazado 604555" d="M98.521,115.878c-.4-.359-1.84-12.771-1.84-12.771.126-.344,6.487-6.227,6.487-6.227a.4.4,0,1,1,.551.592l-6.209,5.746,1.413,12.209a.4.4,0,0,1-.356.449.244.244,0,0,1-.045,0" transform="translate(40.587 40.624)" fill="#1a1a1a"/>
      <path id="Trazado_604556" data-name="Trazado 604556" d="M105.276,100.1C99.419,88.131,95.705,71.769,95.8,71.305a.408.408,0,0,1,.476-.322c.407,1.444,4.054,17.171,9.371,28.541a.4.4,0,0,1-.368.575" transform="translate(40.215 29.796)" fill="#1a1a1a"/>
      <path id="Trazado_604557" data-name="Trazado 604557" d="M3.039,155.6a.4.4,0,0,1-.4-.4v-6.66a.4.4,0,0,1,.4-.4H103.782a.405.405,0,1,1,0,.811H3.443v6.254a.4.4,0,0,1-.4.4" transform="translate(1.106 62.185)" fill="#1a1a1a"/>
      <path id="Trazado_604558" data-name="Trazado 604558" d="M166.829,153.7H66.086a.4.4,0,1,1,0-.809H166.829a.4.4,0,1,1,0,.809" transform="translate(27.572 64.183)" fill="#1a1a1a"/>
      <path id="Trazado_604559" data-name="Trazado 604559" d="M32.827,168.056a2.437,2.437,0,0,1-2.2-1.346l-30.37-60.6a2.461,2.461,0,0,1,1.093-3.3,2.506,2.506,0,0,1,3.3,1.1l29.682,59.226h66.823a2.458,2.458,0,0,1,0,4.917H33.384c-.3-.007-.427,0-.557,0M2.452,103.364a1.694,1.694,0,0,0-.734.173,1.656,1.656,0,0,0-.733,2.216l30.37,60.594a1.679,1.679,0,0,0,1.729.877c.3.017,68.078.017,68.078.017a1.647,1.647,0,1,0,0-3.294H34.089c-.362-.224-30.157-59.673-30.157-59.673a1.649,1.649,0,0,0-1.481-.912" transform="translate(0 43.057)" fill="#1a1a1a"/>
      <path id="Trazado_604560" data-name="Trazado 604560" d="M46.75,124.966c-5.171-.149-7.1-2.422-7.887-4.3-1.531-3.642-.035-8.439,2.294-10.972.014-.014,1.624-1.917.077-6.561a9.342,9.342,0,0,1,.632-8.022,7.993,7.993,0,0,1,6.178-3.45,9.621,9.621,0,0,1,1-.051,7.86,7.86,0,0,1,6.214,2.938,8.631,8.631,0,0,1,1.853,6.883c-.843,4.014-1.092,5.2-.01,8.75a13.575,13.575,0,0,1-1.849,10.945c-1.888,2.55-4.749,3.843-8.5,3.843m2.289-32.55a9.1,9.1,0,0,0-.909.048,7.2,7.2,0,0,0-5.581,3.082,8.536,8.536,0,0,0-.542,7.328c1.712,5.141-.169,7.276-.251,7.367-2.111,2.293-3.531,6.808-2.145,10.106,1,2.385,3.308,3.7,6.666,3.8,3.757.129,6.514-1.069,8.321-3.508a12.847,12.847,0,0,0,1.721-10.225c-1.14-3.751-.86-5.087-.109-8.661a8.021,8.021,0,0,0-1.584-6.7,6.983,6.983,0,0,0-5.585-2.638" transform="translate(16.054 38.456)" fill="#1a1a1a"/>
      <path id="Trazado_604561" data-name="Trazado 604561" d="M51.434,93.627c-1.905,0-3.392-2.179-3.392-4.962S49.529,83.7,51.434,83.7c1.867,0,3.388,2.225,3.388,4.964s-1.521,4.962-3.388,4.962m0-9.117c-1.425,0-2.583,1.864-2.583,4.154s1.157,4.153,2.583,4.153c1.394,0,2.577-1.9,2.577-4.153s-1.183-4.154-2.577-4.154" transform="translate(20.168 35.138)" fill="#1a1a1a"/>
      <path id="Trazado_604562" data-name="Trazado 604562" d="M55.517,131.845H33.272a2.908,2.908,0,0,1-2.9-2.906c.29-1.38,1.325-5.6,2.9-5.6H55.517c1.579,0,2.617,4.224,2.9,5.516a2.916,2.916,0,0,1-2.9,2.994m-22.245-7.7c-.619,0-1.6,2.571-2.1,4.88a2.1,2.1,0,0,0,2.1,2.009H55.517a2.1,2.1,0,0,0,2.1-2.1c-.493-2.222-1.478-4.793-2.1-4.793Z" transform="translate(12.748 51.776)" fill="#1a1a1a"/>
      <path id="Trazado_604563" data-name="Trazado 604563" d="M35.791,152.953c-.4-.352-3.471-23.736-3.471-23.736a.408.408,0,0,1,.351-.456.389.389,0,0,1,.454.351l3.068,23.383a.405.405,0,0,1-.349.456.346.346,0,0,1-.053,0" transform="translate(13.567 54.052)" fill="#1a1a1a"/>
      <path id="Trazado_604564" data-name="Trazado 604564" d="M46.128,147.78a.415.415,0,0,1-.4-.459l2.391-18.209a.384.384,0,0,1,.456-.351.409.409,0,0,1,.349.456l-2.39,18.212a.406.406,0,0,1-.4.351" transform="translate(19.194 54.051)" fill="#1a1a1a"/>
      <path id="Trazado_604565" data-name="Trazado 604565" d="M33.941,125.354c-.4-.163-.463-.41-.354-.6l2.324-4.089c.351-.2,7.152-.2,7.152-.2a.405.405,0,0,1,0,.811H36.5l-2.206,3.883a.4.4,0,0,1-.352.2" transform="translate(14.08 50.567)" fill="#1a1a1a"/>
      <path id="Trazado_604566" data-name="Trazado 604566" d="M49.486,125.354a40.707,40.707,0,0,1-2.558-4.088H40.367a.405.405,0,0,1,0-.811h6.8a44.908,44.908,0,0,1,2.675,4.293.405.405,0,0,1-.153.552.391.391,0,0,1-.2.053" transform="translate(16.776 50.567)" fill="#1a1a1a"/>
      <path id="Trazado_604567" data-name="Trazado 604567" d="M199.145,106.464c-.187-.043-9.281-4.714-9.281-4.714-1.66-.853-6.875-1.251-10.173-.135l-9.753,3.312a16.461,16.461,0,0,1-12.03-1.266l-15.564-9.274a11.8,11.8,0,0,0-10.766-.091l-9.508,5.425a.4.4,0,1,1-.4-.7l9.5-5.426a12.7,12.7,0,0,1,11.586.1l15.564,9.271a15.525,15.525,0,0,0,11.354,1.2l9.754-3.311c3.329-1.129,8.811-.841,10.8.177l9.1,4.67a.405.405,0,0,1-.186.767m4.6-4.088a.4.4,0,0,1-.4-.4V74.859a13.432,13.432,0,0,0-13.416-13.417H122.763a12.318,12.318,0,0,0-8.358,3.1.405.405,0,0,1-.571-.041.4.4,0,0,1,.041-.571,13.087,13.087,0,0,1,8.888-3.3h67.164a14.242,14.242,0,0,1,14.225,14.228v27.113a.4.4,0,0,1-.4.4m-24.084-13.57a7.88,7.88,0,1,1,7.877-7.88,7.891,7.891,0,0,1-7.877,7.88m0-14.949a7.069,7.069,0,1,0,7.068,7.069,7.08,7.08,0,0,0-7.068-7.069" transform="translate(47.745 25.453)" fill="#1a1a1a"/>
      <path id="Trazado_604568" data-name="Trazado 604568" d="M165.547,111.523h-26.13a.4.4,0,1,1,0-.809h26.13a.4.4,0,0,1,0,.809" transform="translate(58.357 46.478)" fill="#1a1a1a"/>
      <path id="Trazado_604569" data-name="Trazado 604569" d="M70.023,80.045H19.914A14.335,14.335,0,0,1,5.594,65.726V42.1a14.335,14.335,0,0,1,14.32-14.32H70.023A14.335,14.335,0,0,1,84.343,42.1V65.726a14.335,14.335,0,0,1-14.32,14.319M19.914,28.59A13.525,13.525,0,0,0,6.406,42.1V65.726A13.524,13.524,0,0,0,19.914,79.234H70.023A13.526,13.526,0,0,0,83.534,65.726V42.1A13.527,13.527,0,0,0,70.023,28.59Z" transform="translate(2.348 11.662)" fill="#1a1a1a"/>
      <path id="Trazado_604570" data-name="Trazado 604570" d="M29.45,64.359c-1.678,0-2.76-1.353-2.76-3.444V39.751c0-2.094,1.085-3.443,2.763-3.443a4.213,4.213,0,0,1,2.113.643l18.04,10.533a3.04,3.04,0,0,1,0,5.683L31.566,63.713a4.22,4.22,0,0,1-2.116.646m0-27.242c-1.205,0-1.954,1.008-1.954,2.634V60.915c0,1.623.748,2.634,1.951,2.634a3.493,3.493,0,0,0,1.707-.535L49.2,52.47a2.654,2.654,0,0,0,1.56-2.144A2.648,2.648,0,0,0,49.2,48.183L31.157,37.651a3.466,3.466,0,0,0-1.7-.534" transform="translate(11.204 15.242)" fill="#1a1a1a"/>
      <path id="Trazado_604571" data-name="Trazado 604571" d="M30.956,36.293a.406.406,0,0,1-.406-.406V.4a.4.4,0,0,1,.406-.4h183.45a.405.405,0,1,1,0,.811H31.362V35.887a.407.407,0,0,1-.406.406" transform="translate(12.825 0)" fill="#1a1a1a"/>
      <path id="Trazado_604572" data-name="Trazado 604572" d="M41.144,110.487H30.956a.4.4,0,0,1-.4-.4V67.173a.405.405,0,1,1,.811,0v42.5h9.782a.4.4,0,1,1,0,.809" transform="translate(12.825 28.029)" fill="#1a1a1a"/>
      <path id="Trazado_604573" data-name="Trazado 604573" d="M108.966,97.8H53.517a.4.4,0,1,1,0-.809h55.449a.4.4,0,1,1,0,.809" transform="translate(22.296 40.716)" fill="#1a1a1a"/>
      <path id="Trazado_604574" data-name="Trazado 604574" d="M160.165,82.458a.4.4,0,0,1-.4-.4V.4a.4.4,0,0,1,.809,0v81.65a.4.4,0,0,1-.4.4" transform="translate(67.067 0)" fill="#1a1a1a"/>
      <path id="Trazado_604575" data-name="Trazado 604575" d="M214.407,10.786H30.956a.405.405,0,1,1,0-.811H214.407a.405.405,0,0,1,0,.811" transform="translate(12.825 4.188)" fill="#1a1a1a"/>
      <path id="Trazado_604576" data-name="Trazado 604576" d="M66.356,134.328a.4.4,0,0,1-.406-.4V10.381a.405.405,0,1,1,.811,0V133.924a.4.4,0,0,1-.4.4" transform="translate(27.686 4.188)" fill="#1a1a1a"/>
      <path id="Trazado_604577" data-name="Trazado 604577" d="M106.507,22.228H73.892a.4.4,0,1,1,0-.809h32.616a.4.4,0,0,1,0,.809" transform="translate(30.85 8.992)" fill="#1a1a1a"/>
      <path id="Trazado_604578" data-name="Trazado 604578" d="M106.507,26.259H73.892a.405.405,0,0,1,0-.811h32.616a.405.405,0,0,1,0,.811" transform="translate(30.85 10.683)" fill="#1a1a1a"/>
      <path id="Trazado_604579" data-name="Trazado 604579" d="M106.507,30.138H73.892a.4.4,0,1,1,0-.809h32.616a.4.4,0,0,1,0,.809" transform="translate(30.85 12.312)" fill="#1a1a1a"/>
      <path id="Trazado_604580" data-name="Trazado 604580" d="M106.507,38.7H73.892a.405.405,0,0,1,0-.811h32.616a.405.405,0,0,1,0,.811" transform="translate(30.85 15.907)" fill="#1a1a1a"/>
      <path id="Trazado_604581" data-name="Trazado 604581" d="M106.507,42.731H73.892a.405.405,0,0,1,0-.811h32.616a.405.405,0,0,1,0,.811" transform="translate(30.85 17.598)" fill="#1a1a1a"/>
      <path id="Trazado_604582" data-name="Trazado 604582" d="M106.507,46.611H73.892a.4.4,0,1,1,0-.809h32.616a.4.4,0,1,1,0,.809" transform="translate(30.85 19.228)" fill="#1a1a1a"/>
      <path id="Trazado_604583" data-name="Trazado 604583" d="M139.3,21.866H106.683a.4.4,0,1,1,0-.809H139.3a.4.4,0,1,1,0,.809" transform="translate(44.615 8.84)" fill="#1a1a1a"/>
      <path id="Trazado_604584" data-name="Trazado 604584" d="M139.3,25.9H106.683a.4.4,0,1,1,0-.809H139.3a.4.4,0,1,1,0,.809" transform="translate(44.615 10.532)" fill="#1a1a1a"/>
      <path id="Trazado_604585" data-name="Trazado 604585" d="M139.232,29.776H106.683a.4.4,0,1,1,0-.809h32.549a.4.4,0,1,1,0,.809" transform="translate(44.615 12.16)" fill="#1a1a1a"/>
      <path id="Trazado_604586" data-name="Trazado 604586" d="M139.436,38.34H106.351a.4.4,0,1,1,0-.809h33.086a.4.4,0,1,1,0,.809" transform="translate(44.476 15.756)" fill="#1a1a1a"/>
      <path id="Trazado_604587" data-name="Trazado 604587" d="M139.3,42.371H106.683a.405.405,0,1,1,0-.811H139.3a.405.405,0,0,1,0,.811" transform="translate(44.615 17.447)" fill="#1a1a1a"/>
      <path id="Trazado_604588" data-name="Trazado 604588" d="M139.3,46.249H106.683a.4.4,0,1,1,0-.809H139.3a.4.4,0,1,1,0,.809" transform="translate(44.615 19.076)" fill="#1a1a1a"/>
      <path id="Trazado_604589" data-name="Trazado 604589" d="M157.683,41.365h-9a.4.4,0,0,1-.4-.4v-9a.4.4,0,0,1,.4-.406h9a.4.4,0,0,1,.4.406v9a.4.4,0,0,1-.4.4m-8.6-.811h8.192V32.361h-8.192Z" transform="translate(62.245 13.245)" fill="#1a1a1a"/>
      <path id="Trazado_604590" data-name="Trazado 604590" d="M148.6,60.081H136.523a.4.4,0,0,1-.406-.4V47.6a.4.4,0,0,1,.406-.4H148.6a.4.4,0,0,1,.406.4V59.676a.4.4,0,0,1-.406.4m-11.671-.809h11.266V48.006H136.928Z" transform="translate(57.142 19.812)" fill="#1a1a1a"/>
      <path id="Trazado_604591" data-name="Trazado 604591" d="M193.484,148.94H146.956a.405.405,0,1,1,0-.811h46.528a.405.405,0,1,1,0,.811" transform="translate(61.522 62.185)" fill="#1a1a1a"/>
    </g>
  </g>
</svg>
