<svg xmlns="http://www.w3.org/2000/svg" xmlns:xlink="http://www.w3.org/1999/xlink" width="85" height="85" viewBox="0 0 85 85">
  <defs>
    <clipPath id="clip-path">
      <rect id="Rect치ngulo_45751" data-name="Rect치ngulo 45751" width="58.859" height="56.967" fill="none"/>
    </clipPath>
  </defs>
  <g id="Grupo_1015231" data-name="Grupo 1015231" transform="translate(-758 -7362)">
    <g id="Grupo_1013449" data-name="Grupo 1013449">
      <circle id="Elipse_4846" data-name="Elipse 4846" cx="42.5" cy="42.5" r="42.5" transform="translate(758 7362)" fill="#a3bfe4"/>
      <g id="Grupo_1013442" data-name="Grupo 1013442" transform="translate(771 7376.017)">
        <g id="Grupo_1013441" data-name="Grupo 1013441" clip-path="url(#clip-path)">
          <path id="Trazado_601107" data-name="Trazado 601107" d="M22.325,49.37H3.686A3.356,3.356,0,0,1,0,45.7Q0,27.539,0,9.382A3.354,3.354,0,0,1,3.668,5.692c2.492,0,4.983.008,7.475-.011a2.23,2.23,0,0,0,.949-.233A15.267,15.267,0,0,1,18.584,3.8c1.048-.029,1.344.267,1.352,1.309,0,.173,0,.346,0,.55H21.8c.011-.159.032-.328.033-.5,0-1.286,0-2.571,0-3.857,0-1.015.306-1.34,1.3-1.3A14.975,14.975,0,0,1,34.262,5.27a1.133,1.133,0,0,0,.956.431q10-.019,19.992-.009a3.349,3.349,0,0,1,3.649,3.65q0,18.186,0,36.373a3.351,3.351,0,0,1-3.645,3.656q-8.987,0-17.975,0h-.708c.372.926.7,1.789,1.074,2.634.052.118.307.2.469.206,1.147.017,2.294.006,3.441.01.882,0,1.2.33,1.2,1.227,0,.791.006,1.582,0,2.374s-.345,1.143-1.109,1.143q-12.191.006-24.382,0c-.733,0-1.078-.361-1.087-1.1q-.014-1.276,0-2.551a.966.966,0,0,1,1.1-1.086c1.147-.009,2.294-.017,3.441.006a.6.6,0,0,0,.693-.45c.278-.8.614-1.571.946-2.407M19.948,18.036H32.8c1.114,0,1.4.286,1.358,1.418a15.032,15.032,0,0,1-.129,1.6A15.179,15.179,0,1,1,6.726,10.06c.622-.851,1.365-1.614,2.1-2.47h-.6q-2.255,0-4.509,0c-1.329,0-1.817.491-1.817,1.828q0,16.319,0,32.639v.622H56.94c.009-.122.019-.2.019-.278q0-16.616,0-33.232a1.446,1.446,0,0,0-1.649-1.578q-9.434,0-18.867,0c-.143,0-.286.028-.469.047.12.231.211.4.3.579a15.12,15.12,0,0,1,1.693,6.661c.021.923-.307,1.257-1.229,1.257q-6.823,0-13.646,0c-.937,0-1.254-.312-1.255-1.236q0-3.323,0-6.646V7.637H19.948ZM18.038,5.682C12.4,6.433,8.418,9.247,6.5,14.545c-1.729,4.772-.728,9.161,2.4,13.138.115-.093.179-.136.232-.189q4.322-4.319,8.631-8.651a1.214,1.214,0,0,0,.262-.785c.016-3.9.011-7.792.011-11.688ZM32.2,19.975a1.343,1.343,0,0,0-.225-.038c-4.092,0-8.185-.007-12.277.009a.978.978,0,0,0-.6.288c-1.02.993-2.019,2.007-3.026,3.013l-5.748,5.742A13.2,13.2,0,0,0,32.2,19.975M1.9,44.65c0,.287,0,.5,0,.721,0,1.714.382,2.1,2.079,2.1H54.929c.237,0,.476.011.711-.01A1.329,1.329,0,0,0,56.9,46.384a12.68,12.68,0,0,0,.017-1.734ZM36,14.206c-.417-7.187-6.71-12.124-12.231-12.2v12.2Zm-.389,38c-.358-.9-.669-1.73-1.026-2.539a.627.627,0,0,0-.478-.284q-4.681-.025-9.362,0c-.146,0-.378.081-.424.187-.372.859-.71,1.732-1.073,2.64Zm5.2,1.946H18.078v.873H40.811Z" transform="translate(0 0)"/>
          <path id="Trazado_601108" data-name="Trazado 601108" d="M30.027,58.331v-10.4h1.887v.615q0,3.323,0,6.647c0,.924.318,1.236,1.255,1.236q6.823,0,13.646,0c.922,0,1.25-.334,1.229-1.257a15.12,15.12,0,0,0-1.693-6.661c-.09-.174-.18-.347-.3-.579.183-.019.326-.047.469-.047q9.434,0,18.867,0a1.447,1.447,0,0,1,1.649,1.578q.006,16.616,0,33.232c0,.078-.01.156-.019.278H11.977v-.622q0-16.319,0-32.639c0-1.337.488-1.827,1.817-1.828q2.255,0,4.509,0h.6c-.731.856-1.473,1.619-2.1,2.47A15.179,15.179,0,1,0,44.112,61.345a15.032,15.032,0,0,0,.129-1.6c.039-1.132-.244-1.418-1.358-1.418H30.027ZM51.849,69.726v-.714q0-4.745,0-9.491c0-.75-.354-1.183-.945-1.186s-.95.431-.951,1.178q0,5.457,0,10.914c0,.857.331,1.194,1.176,1.195q5.93.005,11.861,0c.753,0,1.187-.346,1.2-.934.01-.608-.435-.962-1.227-.962q-4.329,0-8.658,0H51.849m4.75-3.941a3.831,3.831,0,0,0,.02,1.093,1.441,1.441,0,0,0,.6.836,1.473,1.473,0,0,0,1.008-.212c.228-.114.372-.4.552-.61,1.673-1.951,3.356-3.894,5-5.865a1.41,1.41,0,0,0,.338-1,1.017,1.017,0,0,0-.683-.683,1.369,1.369,0,0,0-1.012.4c-1.219,1.349-2.383,2.748-3.568,4.127-.091.105-.2.193-.368.351a3.9,3.9,0,0,0-.021-1.107,1.841,1.841,0,0,0-.616-.905.777.777,0,0,0-1.049.275q-1.9,2.353-3.779,4.723a.9.9,0,0,0-.046,1.153.94.94,0,0,0,1.563-.022c.662-.8,1.3-1.617,2.054-2.561m.472,8.688c2,0,3.995,0,5.992,0,.734,0,1.2-.458,1.117-1.067-.071-.522-.467-.826-1.119-.827q-3.47-.007-6.941,0c-1.7,0-3.4-.007-5.1,0a.959.959,0,0,0-1.057,1.064c.069.521.467.827,1.118.828,2,.005,3.994,0,5.992,0m.059.95q-3,0-5.992,0c-.75,0-1.182.354-1.183.947s.434.949,1.181.949q5.932,0,11.865,0c.747,0,1.183-.358,1.183-.948s-.434-.947-1.182-.948q-2.936-.005-5.873,0m-.113,4.747q3,0,5.992,0c.744,0,1.181-.363,1.177-.954s-.437-.941-1.189-.942q-5.932,0-11.865,0c-.746,0-1.18.36-1.176.953s.437.941,1.188.943q2.937.005,5.873,0" transform="translate(-10.079 -40.296)" fill="#fff"/>
          <path id="Trazado_601109" data-name="Trazado 601109" d="M48.07,35.848v.688c0,3.9.005,7.792-.011,11.688a1.215,1.215,0,0,1-.262.785q-4.3,4.344-8.631,8.651c-.053.053-.117.1-.232.189-3.131-3.977-4.133-8.366-2.4-13.138,1.92-5.3,5.9-8.112,11.539-8.863" transform="translate(-30.032 -30.166)" fill="#fff"/>
          <path id="Trazado_601110" data-name="Trazado 601110" d="M87,125.816a13.2,13.2,0,0,1-21.874,9.014l5.748-5.742c1.007-1.006,2.007-2.02,3.026-3.013a.978.978,0,0,1,.6-.288c4.092-.016,8.185-.012,12.277-.009a1.325,1.325,0,0,1,.225.038" transform="translate(-54.805 -105.841)" fill="#fff"/>
          <path id="Trazado_601111" data-name="Trazado 601111" d="M11.977,281.709H66.993a12.678,12.678,0,0,1-.017,1.734,1.329,1.329,0,0,1-1.257,1.077c-.235.021-.474.01-.711.01H14.056c-1.7,0-2.08-.387-2.079-2.1v-.721" transform="translate(-10.079 -237.059)" fill="#fff"/>
          <path id="Trazado_601112" data-name="Trazado 601112" d="M162.2,24.855H149.969v-12.2c5.521.077,11.814,5.013,12.231,12.2" transform="translate(-126.199 -10.648)" fill="#fff"/>
          <path id="Trazado_601113" data-name="Trazado 601113" d="M159.038,314.325H146.674c.363-.908.7-1.782,1.073-2.64.046-.106.278-.186.424-.187q4.681-.016,9.362,0a.627.627,0,0,1,.478.284c.357.809.668,1.638,1.026,2.539" transform="translate(-123.426 -262.12)" fill="#fff"/>
          <rect id="Rect치ngulo_45750" data-name="Rect치ngulo 45750" width="22.733" height="0.873" transform="translate(18.078 54.152)" fill="#fff"/>
          <path id="Trazado_601114" data-name="Trazado 601114" d="M253.459,125.21h2.451q4.329,0,8.658,0c.792,0,1.237.354,1.227.962-.009.588-.443.934-1.2.934q-5.93,0-11.861,0c-.845,0-1.175-.338-1.176-1.195q0-5.457,0-10.914c0-.747.358-1.181.951-1.178s.944.436.945,1.186q0,4.745,0,9.491v.714" transform="translate(-211.688 -95.78)"/>
          <path id="Trazado_601115" data-name="Trazado 601115" d="M273.309,126.621c-.754.943-1.392,1.762-2.054,2.561a.94.94,0,0,1-1.563.023.9.9,0,0,1,.046-1.153q1.882-2.368,3.779-4.723a.778.778,0,0,1,1.049-.275,1.841,1.841,0,0,1,.616.906,3.9,3.9,0,0,1,.021,1.107c.167-.158.278-.246.368-.351,1.185-1.379,2.349-2.778,3.568-4.127a1.369,1.369,0,0,1,1.012-.4,1.017,1.017,0,0,1,.683.683,1.41,1.41,0,0,1-.338,1c-1.649,1.971-3.332,3.914-5,5.865-.18.21-.323.5-.552.61a1.473,1.473,0,0,1-1.008.212,1.441,1.441,0,0,1-.6-.837,3.83,3.83,0,0,1-.02-1.092" transform="translate(-226.788 -101.132)"/>
          <path id="Trazado_601116" data-name="Trazado 601116" d="M258.693,205.543c-2,0-3.994,0-5.992,0-.651,0-1.049-.307-1.118-.828a.959.959,0,0,1,1.057-1.065c1.7-.01,3.4,0,5.1,0q3.47,0,6.941,0c.652,0,1.048.305,1.119.827.082.609-.382,1.065-1.117,1.067-2,.006-3.994,0-5.992,0" transform="translate(-211.7 -171.365)"/>
          <path id="Trazado_601117" data-name="Trazado 601117" d="M258.77,221.625q2.937,0,5.873,0c.748,0,1.183.356,1.182.948s-.436.948-1.183.948q-5.932,0-11.865,0c-.747,0-1.182-.357-1.181-.949s.433-.945,1.183-.947q3-.005,5.992,0" transform="translate(-211.718 -186.497)"/>
          <path id="Trazado_601118" data-name="Trazado 601118" d="M258.657,241.5q-2.937,0-5.873,0c-.751,0-1.184-.351-1.188-.943s.43-.953,1.176-.953q5.933,0,11.865,0c.751,0,1.185.351,1.189.942s-.433.953-1.177.954q-3,.006-5.992,0" transform="translate(-211.718 -201.622)"/>
        </g>
      </g>
    </g>
  </g>
</svg>
