<svg xmlns="http://www.w3.org/2000/svg" xmlns:xlink="http://www.w3.org/1999/xlink" width="62" height="62" viewBox="0 0 62 62">
  <defs>
    <clipPath id="clip-path">
      <rect id="Rectángulo_345584" data-name="Rectángulo 345584" width="34.426" height="34.414" fill="none"/>
    </clipPath>
  </defs>
  <g id="Grupo_1014935" data-name="Grupo 1014935" transform="translate(-1017 -12906)">
    <g id="Grupo_1014858" data-name="Grupo 1014858" transform="translate(632.001 10848)">
      <path id="Unión_12" data-name="Unión 12" d="M44.385,58.97a31.027,31.027,0,1,1,10.348-8.025L58.991,62Z" transform="translate(384.999 2058)" fill="#a3bfe4"/>
      <circle id="Elipse_4842" data-name="Elipse 4842" cx="26" cy="26" r="26" transform="translate(389.999 2063)" fill="#fff"/>
    </g>
    <g id="Grupo_1014906" data-name="Grupo 1014906" transform="translate(1030.83 12920.758)">
      <g id="Grupo_1014905" data-name="Grupo 1014905" clip-path="url(#clip-path)">
        <path id="Trazado_604629" data-name="Trazado 604629" d="M4.523,34.414a.976.976,0,0,1-.466-.959c.018-1.388.006-2.777.007-4.166,0-.739.2-.935.934-.937h.387c.083-1.593.167-3.129-1.175-4.333-.949-.851-1.811-1.8-2.718-2.7A4.8,4.8,0,0,1,.019,17.768C.024,12.538.05,7.308,0,2.078a1.858,1.858,0,0,1,2.487-2A3.675,3.675,0,0,1,5.4,3.608c.025,2.732.009,5.465.011,8.2,0,.132,0,.264,0,.421a2.978,2.978,0,0,1,2.917,1.023c1.638,1.687,3.308,3.343,4.984,4.992A4.989,4.989,0,0,1,14.868,22c-.017,1.982,0,3.964,0,5.947v.406c.239,0,.448-.006.657,0a.646.646,0,0,1,.685.672c.01,1.568,0,3.136,0,4.7a.823.823,0,0,1-.465.683Zm8.97-6.079a.9.9,0,0,0,.024-.131c0-2.184.012-4.369-.008-6.553a3.168,3.168,0,0,0-.922-2.21c-.3-.316-.613-.622-.922-.931Q9.4,16.24,7.127,13.972a1.353,1.353,0,1,0-1.94,1.877c1.269,1.281,2.55,2.551,3.822,3.828a.681.681,0,1,1-.945.955c-1.293-1.289-2.59-2.574-3.87-3.876a2.671,2.671,0,0,1-.263-3.529.682.682,0,0,0,.127-.362c.006-3.069.013-6.139,0-9.208a2.332,2.332,0,0,0-2.049-2.3c-.512-.072-.643.043-.643.566q0,7.9,0,15.794A3.575,3.575,0,0,0,2.469,20.4c.871.855,1.708,1.747,2.6,2.581A5.016,5.016,0,0,1,6.76,27.086c-.022.41,0,.821,0,1.249Zm1.362,1.387H5.433v3.325h9.422Z" transform="translate(0 0)" fill="#566377"/>
        <path id="Trazado_604630" data-name="Trazado 604630" d="M203.523,34.6a.933.933,0,0,1-.474-.918c.019-1.41.007-2.821.007-4.232,0-.711.2-.91.923-.911h.425v-.4c0-2,.007-4.008,0-6.012a4.882,4.882,0,0,1,1.507-3.643c1.7-1.685,3.405-3.371,5.077-5.086a2.938,2.938,0,0,1,2.874-.981c0-.154,0-.284,0-.414,0-2.676-.007-5.352,0-8.028A3.645,3.645,0,0,1,216.708.3a3.293,3.293,0,0,1,1.16-.072,1.717,1.717,0,0,1,1.38,1.3V18.6a1.3,1.3,0,0,0-.057.188,4.771,4.771,0,0,1-1.438,2.743c-.9.89-1.752,1.831-2.694,2.673-1.343,1.2-1.258,2.738-1.175,4.332h.387c.737,0,.934.2.934.937,0,1.389-.011,2.777.007,4.166a.976.976,0,0,1-.466.959Zm8.989-6.072c0-.521.011-1.012,0-1.5a4.769,4.769,0,0,1,1.514-3.672c.936-.917,1.85-1.857,2.783-2.777a3.55,3.55,0,0,0,1.1-2.648q-.01-7.914,0-15.828c0-.515-.138-.63-.654-.555a2.341,2.341,0,0,0-2.041,2.34c-.011,3.047-.005,6.094,0,9.14a.651.651,0,0,0,.094.341,2.7,2.7,0,0,1-.377,3.728q-1.8,1.807-3.611,3.612c-.443.443-.847.507-1.156.183s-.237-.692.2-1.131q1.841-1.842,3.683-3.682a1.377,1.377,0,0,0,.469-1.234,1.283,1.283,0,0,0-.921-1.093,1.318,1.318,0,0,0-1.413.367q-2.7,2.7-5.393,5.393a3.443,3.443,0,0,0-1.038,2.538q0,3.075,0,6.15c0,.107.01.213.016.329Zm-8.095,4.71h9.423V29.9h-9.423Z" transform="translate(-184.821 -0.183)" fill="#566377"/>
        <path id="Trazado_604631" data-name="Trazado 604631" d="M117.932,8.1A8.089,8.089,0,1,1,109.832,0a8.1,8.1,0,0,1,8.1,8.093M103.1,8.108a6.745,6.745,0,1,0,6.735-6.761A6.756,6.756,0,0,0,103.1,8.108" transform="translate(-92.62 -0.003)" fill="#627289"/>
        <path id="Trazado_604632" data-name="Trazado 604632" d="M27.286,41.923H20.55c0-.427-.018-.839,0-1.249a5.016,5.016,0,0,0-1.693-4.106c-.89-.835-1.726-1.726-2.6-2.581a3.574,3.574,0,0,1-1.108-2.678q.013-7.9,0-15.794c0-.523.131-.638.643-.566a2.332,2.332,0,0,1,2.049,2.3c.015,3.069.008,6.138,0,9.208a.682.682,0,0,1-.127.362,2.671,2.671,0,0,0,.263,3.529c1.28,1.3,2.577,2.586,3.87,3.876a.681.681,0,1,0,.945-.955c-1.273-1.277-2.554-2.547-3.822-3.828a1.353,1.353,0,1,1,1.94-1.877q2.272,2.267,4.539,4.538c.309.309.62.615.922.931a3.168,3.168,0,0,1,.922,2.21c.019,2.184.008,4.369.008,6.553a.906.906,0,0,1-.024.131" transform="translate(-13.794 -13.589)" fill="#fff"/>
        <rect id="Rectángulo_345582" data-name="Rectángulo 345582" width="9.422" height="3.325" transform="translate(5.433 29.722)" fill="#fff"/>
        <path id="Trazado_604633" data-name="Trazado 604633" d="M239.875,41.928h-6.747c-.006-.115-.016-.222-.016-.329q0-3.075,0-6.15a3.443,3.443,0,0,1,1.038-2.538q2.7-2.694,5.393-5.393a1.318,1.318,0,0,1,1.413-.367,1.283,1.283,0,0,1,.921,1.093,1.377,1.377,0,0,1-.469,1.234q-1.846,1.837-3.684,3.682c-.439.439-.505.814-.2,1.131s.713.26,1.156-.183q1.806-1.806,3.611-3.612a2.7,2.7,0,0,0,.377-3.728.652.652,0,0,1-.095-.341c0-3.047-.01-6.094,0-9.14a2.341,2.341,0,0,1,2.041-2.34c.516-.076.653.04.654.555q0,7.914,0,15.828a3.55,3.55,0,0,1-1.1,2.648c-.933.92-1.847,1.859-2.783,2.776a4.769,4.769,0,0,0-1.514,3.672c.013.49,0,.98,0,1.5" transform="translate(-212.184 -13.587)" fill="#fff"/>
        <rect id="Rectángulo_345583" data-name="Rectángulo 345583" width="9.423" height="3.336" transform="translate(19.596 29.716)" fill="#fff"/>
        <path id="Trazado_604634" data-name="Trazado 604634" d="M116.72,21.735a6.745,6.745,0,1,1,6.755,6.744,6.752,6.752,0,0,1-6.755-6.744m4.762,4.174c.477-.069,1-.1,1.512-.224a6.1,6.1,0,0,0,4.478-7.388.648.648,0,0,0-.577-.571,12.365,12.365,0,0,0-1.332-.136,6.086,6.086,0,0,0-6.113,7.531.684.684,0,0,0,.618.612c.453.06.908.113,1.414.176" transform="translate(-106.242 -13.63)" fill="#fff"/>
        <path id="Trazado_604635" data-name="Trazado 604635" d="M147.821,52.414c-.506-.063-.96-.116-1.414-.176a.684.684,0,0,1-.618-.612,6.086,6.086,0,0,1,6.113-7.531,12.387,12.387,0,0,1,1.332.136.648.648,0,0,1,.577.571,6.1,6.1,0,0,1-4.478,7.388c-.507.12-1.035.156-1.512.224m-.785-2.437.088.068a2.534,2.534,0,0,1,.217-.295q.516-.528,1.045-1.044a.574.574,0,0,1,.709-.128.86.86,0,0,1,.4.523.889.889,0,0,1-.241.615c-.391.435-.827.832-1.282,1.28,2.738.174,5.353-3.062,4.541-5.512a4.653,4.653,0,0,0-5.474,4.492" transform="translate(-132.581 -40.135)" fill="#627289"/>
        <path id="Trazado_604636" data-name="Trazado 604636" d="M161.016,63.557a4.653,4.653,0,0,1,5.474-4.492c.813,2.451-1.8,5.686-4.541,5.512.455-.449.89-.845,1.282-1.28a.889.889,0,0,0,.241-.615.86.86,0,0,0-.4-.523.574.574,0,0,0-.709.128q-.528.516-1.045,1.044a2.533,2.533,0,0,0-.217.295l-.088-.068" transform="translate(-146.561 -53.715)" fill="#fff"/>
      </g>
    </g>
  </g>
</svg>
