<svg xmlns="http://www.w3.org/2000/svg" xmlns:xlink="http://www.w3.org/1999/xlink" width="85" height="85" viewBox="0 0 85 85">
  <defs>
    <clipPath id="clip-path">
      <rect id="Rectángulo_345386" data-name="Rectángulo 345386" width="56.406" height="56.402" fill="none"/>
    </clipPath>
  </defs>
  <g id="Grupo_1014958" data-name="Grupo 1014958" transform="translate(-414 -1264)">
    <g id="Grupo_1014725" data-name="Grupo 1014725" transform="translate(0 -36)">
      <circle id="Elipse_5594" data-name="Elipse 5594" cx="42.5" cy="42.5" r="42.5" transform="translate(414 1300)" fill="#a3bfe4"/>
      <g id="Grupo_1014720" data-name="Grupo 1014720" transform="translate(428 1314)">
        <g id="Grupo_1014719" data-name="Grupo 1014719" clip-path="url(#clip-path)">
          <path id="Trazado_601597" data-name="Trazado 601597" d="M21.282,56.4c-.68-.182-1.38-.311-2.037-.556a10.176,10.176,0,0,1-6.889-8.312c-.027-.159-.08-.313-.129-.5-1.518,0-3.021-.01-4.523.018-.139,0-.327.226-.4.389a3.665,3.665,0,0,1-3.237,2.357A3.563,3.563,0,0,1,.482,47.831a3.752,3.752,0,1,1,6.784-3.184.588.588,0,0,0,.664.462c1.284-.021,2.569-.028,3.853,0,.42.01.53-.172.581-.528a10.319,10.319,0,0,1,18.984-3.992c.067.107.146.207.243.344,1.188-.888,2.367-1.756,3.522-2.656.111-.087.13-.392.083-.567a10.407,10.407,0,0,1,6.827-12.791c.152-.052.306-.1.5-.162L38.353,19.2A10.447,10.447,0,0,1,22.7,12.32L18.48,15.931a33.469,33.469,0,0,1,1.559,3.083,21.72,21.72,0,0,1,.645,2.711,1.121,1.121,0,0,0,.309.591c1.521,1.21,3.067,2.389,4.587,3.6a.53.53,0,0,0,.715.02,3.752,3.752,0,1,1-1.6,4.528,3.983,3.983,0,0,1-.076-2.429.638.638,0,0,0-.134-.548c-1.27-1.022-2.562-2.017-3.919-3.074a10.427,10.427,0,0,1-4.275,6.632,9.947,9.947,0,0,1-7.6,1.748A10.383,10.383,0,0,1,9.38,12.215V7.436A3.744,3.744,0,0,1,6.739,4.719a3.563,3.563,0,0,1,1.095-3.7A3.548,3.548,0,0,1,11.771.305,3.566,3.566,0,0,1,14.1,3.443a3.67,3.67,0,0,1-2.411,3.85.468.468,0,0,0-.366.511c.013,1.358,0,2.716.021,4.073a.569.569,0,0,0,.33.431,10.536,10.536,0,0,1,5.345,2.355c1.333-1.139,2.618-2.308,3.982-3.379a4.739,4.739,0,0,0,1.841-3A9.84,9.84,0,0,1,30.938.232,10.34,10.34,0,0,1,43.087,8.4a.823.823,0,0,0,.38.518q3.2,1.578,6.428,3.1a.633.633,0,0,0,.532-.009,3.783,3.783,0,0,1,5.873,2.15.744.744,0,0,0,.106.183v1.431c-.074.184-.157.364-.22.551a3.781,3.781,0,0,1-3.81,2.489,3.7,3.7,0,0,1-3.45-3.448,15.345,15.345,0,0,1,.093-1.649l-5.778-2.782a10.491,10.491,0,0,1-3.377,7.106c1.571,2.092,3.107,4.147,4.663,6.188a.9.9,0,0,0,.55.228,23.034,23.034,0,0,1,2.763.373,10.332,10.332,0,0,1-1.731,20.26,9.941,9.941,0,0,1-7.7-2.479A31.353,31.353,0,0,1,36.018,40c-1.1.824-2.274,1.7-3.432,2.591a.58.58,0,0,0-.1.455c.137.976.326,1.947.43,2.926a.685.685,0,0,0,.441.651q3.024,1.438,6.031,2.912a.768.768,0,0,0,.889-.043,3.752,3.752,0,0,1,4.926,5.544A5.032,5.032,0,0,1,43.083,56.4H41.542a10.54,10.54,0,0,1-1.993-1.261,3.588,3.588,0,0,1-.782-3.8L32.681,48.4c-.056.163-.1.282-.138.4a10.294,10.294,0,0,1-6.848,7.133c-.574.2-1.179.31-1.77.461ZM28.2,52.29c2.448-1.891,3.437-5.907,2.344-9.006a8.543,8.543,0,0,0-8.7-5.629,8.678,8.678,0,0,0-7.386,6.08,8.245,8.245,0,0,0,2.425,8.449c.018-.193.032-.372.054-.55A2.8,2.8,0,0,1,19.814,48.9c1.868-.061,3.739-.013,5.609,0a2.721,2.721,0,0,1,1.888.768A2.979,2.979,0,0,1,28.2,52.29m22.6-11.352a8.236,8.236,0,0,0,2.358-8.72A8.482,8.482,0,0,0,45,26.344a8.594,8.594,0,0,0-7.989,6.127c-1.009,3.6.665,7.152,2.437,8.442.009-.158.015-.3.025-.443a2.908,2.908,0,0,1,2.95-2.873q2.724-.058,5.449,0a2.894,2.894,0,0,1,2.9,2.569c.03.247.03.5.044.77M38.565,16.559a8.323,8.323,0,0,0,2.177-9.354,8.5,8.5,0,0,0-8.911-5.217A8.6,8.6,0,0,0,24.6,8.864c-.592,3.186.957,6.458,2.632,7.6.006-.1.011-.19.016-.281a2.8,2.8,0,0,1,2.763-2.974c1.918-.12,3.851-.074,5.775-.006a3.391,3.391,0,0,1,1.615.588,2.839,2.839,0,0,1,1.163,2.769M16,28.77a8.243,8.243,0,0,0,2.389-8.817,8.438,8.438,0,0,0-16.259.781c-.742,3.32.758,6.653,2.547,7.946a1.488,1.488,0,0,0,.034-.221,3.015,3.015,0,0,1,3.352-3.1c1.577.037,3.156-.022,4.733.024a4.171,4.171,0,0,1,1.642.352A2.814,2.814,0,0,1,16,28.77m6.632,22.013c-.9,0-1.8-.012-2.693,0a.99.99,0,0,0-1.084,1.1c-.007.44.022.881-.009,1.319-.024.334.118.475.409.6a8.583,8.583,0,0,0,5.988.257c1.109-.34,1.1-.358,1.1-1.534,0-.183,0-.367,0-.55-.022-.8-.39-1.179-1.185-1.187-.843-.009-1.686,0-2.528,0M32.953,15.091v0c-.915,0-1.831-.014-2.745,0a.933.933,0,0,0-1.017,1.029,11.252,11.252,0,0,0,.013,1.426.718.718,0,0,0,.343.5,8.319,8.319,0,0,0,5.972.3c1.158-.361,1.155-.37,1.155-1.558,0-.2.008-.4,0-.6a1.009,1.009,0,0,0-1.137-1.106c-.86-.013-1.72,0-2.581,0M10.359,27.307v.007c-.915,0-1.831-.018-2.746.006a.931.931,0,0,0-.981,1.013c-.012.457.02.917-.011,1.373a.538.538,0,0,0,.408.6,8.482,8.482,0,0,0,5.929.269c1.169-.367,1.167-.372,1.167-1.6,0-.183.006-.366,0-.549A1.019,1.019,0,0,0,13,27.31c-.879-.015-1.758,0-2.637,0M45.174,39.518v.006c-.917,0-1.834-.019-2.751.006a.929.929,0,0,0-1.017,1.031c-.013.44.019.882-.011,1.32a.572.572,0,0,0,.422.653,8.551,8.551,0,0,0,5.786.306c1.277-.371,1.275-.376,1.275-1.7,0-.147,0-.294,0-.44-.026-.835-.34-1.165-1.172-1.181s-1.687,0-2.531,0M5.647,46.069A1.894,1.894,0,0,0,3.8,44.195a1.917,1.917,0,0,0-1.886,1.843A1.9,1.9,0,0,0,3.8,47.927a1.868,1.868,0,0,0,1.845-1.858M10.388,5.644a1.9,1.9,0,0,0,1.85-1.866,1.92,1.92,0,0,0-1.866-1.863A1.9,1.9,0,0,0,8.507,3.823a1.868,1.868,0,0,0,1.881,1.821M28.218,31a1.843,1.843,0,1,0-1.869-1.83A1.849,1.849,0,0,0,28.218,31m14.1,19.787a1.866,1.866,0,1,0,1.864,1.852,1.9,1.9,0,0,0-1.864-1.852M52.652,13.219a1.842,1.842,0,1,0,.019,3.684,1.842,1.842,0,1,0-.019-3.684" transform="translate(0 0)" fill="#161615"/>
          <path id="Trazado_601598" data-name="Trazado 601598" d="M116.652,287.558a2.979,2.979,0,0,0-.894-2.627,2.72,2.72,0,0,0-1.888-.767c-1.87-.009-3.741-.057-5.609,0a2.8,2.8,0,0,0-2.876,2.735c-.022.178-.035.357-.054.55A8.245,8.245,0,0,1,102.907,279a8.678,8.678,0,0,1,7.386-6.08,8.543,8.543,0,0,1,8.7,5.629c1.093,3.1.1,7.115-2.344,9.006m-9.384-9.027a3.762,3.762,0,1,0,3.772-3.793,3.809,3.809,0,0,0-3.772,3.793" transform="translate(-88.447 -235.268)" fill="#fff"/>
          <path id="Trazado_601599" data-name="Trazado 601599" d="M280.251,205.613c-.015-.273-.015-.523-.044-.77a2.894,2.894,0,0,0-2.9-2.569q-2.724-.061-5.449,0a2.908,2.908,0,0,0-2.95,2.873c-.01.142-.016.285-.025.443-1.772-1.291-3.446-4.842-2.437-8.442a8.593,8.593,0,0,1,7.989-6.127,8.482,8.482,0,0,1,8.171,5.874,8.236,8.236,0,0,1-2.358,8.721m-5.705-5.209a3.756,3.756,0,1,0,.08-7.512,3.756,3.756,0,1,0-.08,7.512" transform="translate(-229.442 -164.675)" fill="#fff"/>
          <path id="Trazado_601600" data-name="Trazado 601600" d="M191.559,28.62a2.839,2.839,0,0,0-1.162-2.769,3.392,3.392,0,0,0-1.615-.588c-1.923-.069-3.856-.114-5.775.006a2.8,2.8,0,0,0-2.763,2.974c0,.091-.011.181-.016.281-1.675-1.141-3.224-4.413-2.632-7.6a8.6,8.6,0,0,1,7.229-6.876,8.5,8.5,0,0,1,8.911,5.217,8.324,8.324,0,0,1-2.177,9.354m-1.876-9.015a3.773,3.773,0,1,0-3.785,3.771,3.813,3.813,0,0,0,3.785-3.771" transform="translate(-152.993 -12.062)" fill="#fff"/>
          <path id="Trazado_601601" data-name="Trazado 601601" d="M28.066,117.059a2.813,2.813,0,0,0-1.562-3.032,4.169,4.169,0,0,0-1.641-.352c-1.576-.046-3.156.013-4.733-.024a3.015,3.015,0,0,0-3.352,3.1,1.494,1.494,0,0,1-.034.221c-1.789-1.293-3.29-4.626-2.547-7.946a8.438,8.438,0,0,1,16.259-.781,8.243,8.243,0,0,1-2.389,8.817m-1.871-9.016a3.756,3.756,0,1,0-3.78,3.765,3.768,3.768,0,0,0,3.78-3.765" transform="translate(-12.071 -88.29)" fill="#fff"/>
          <path id="Trazado_601602" data-name="Trazado 601602" d="M140.388,368.223c.843,0,1.686-.007,2.528,0,.8.009,1.163.384,1.185,1.187,0,.183,0,.366,0,.55,0,1.176.005,1.194-1.1,1.534a8.583,8.583,0,0,1-5.988-.257c-.291-.121-.433-.262-.409-.6.031-.438,0-.879.009-1.319a.989.989,0,0,1,1.084-1.1c.9-.016,1.8,0,2.693,0" transform="translate(-117.761 -317.441)" fill="#fff"/>
          <path id="Trazado_601603" data-name="Trazado 601603" d="M215.338,109.41c.86,0,1.721-.01,2.581,0a1.009,1.009,0,0,1,1.137,1.106c.011.2,0,.4,0,.6,0,1.188,0,1.2-1.155,1.558a8.319,8.319,0,0,1-5.972-.3.718.718,0,0,1-.343-.5,11.229,11.229,0,0,1-.013-1.426.932.932,0,0,1,1.017-1.029c.915-.018,1.83,0,2.745,0Z" transform="translate(-182.385 -94.319)" fill="#fff"/>
          <path id="Trazado_601604" data-name="Trazado 601604" d="M51.739,197.985c.879,0,1.758-.012,2.637,0a1.019,1.019,0,0,1,1.128,1.118c.007.183,0,.366,0,.549,0,1.23,0,1.235-1.167,1.6a8.483,8.483,0,0,1-5.929-.269.538.538,0,0,1-.408-.6c.031-.456,0-.915.01-1.373A.931.931,0,0,1,48.993,198c.915-.024,1.831-.006,2.746-.006v-.007" transform="translate(-41.38 -170.679)" fill="#fff"/>
          <path id="Trazado_601605" data-name="Trazado 601605" d="M303.937,286.533c.844,0,1.687-.013,2.531,0s1.146.345,1.172,1.181c0,.147,0,.293,0,.44,0,1.323,0,1.328-1.275,1.7a8.552,8.552,0,0,1-5.786-.306.572.572,0,0,1-.422-.653c.03-.438,0-.88.011-1.32a.929.929,0,0,1,1.017-1.031c.916-.025,1.834-.006,2.751-.006v-.007" transform="translate(-258.764 -247.016)" fill="#fff"/>
          <path id="Trazado_601606" data-name="Trazado 601606" d="M17.638,322.351a1.868,1.868,0,0,1-1.845,1.858,1.866,1.866,0,1,1,1.845-1.858" transform="translate(-11.99 -276.283)" fill="#fff"/>
          <path id="Trazado_601607" data-name="Trazado 601607" d="M63.567,17.609a1.868,1.868,0,0,1-1.881-1.821,1.9,1.9,0,0,1,1.865-1.909,1.92,1.92,0,0,1,1.866,1.863,1.9,1.9,0,0,1-1.85,1.866" transform="translate(-53.179 -11.966)" fill="#fff"/>
          <path id="Trazado_601608" data-name="Trazado 601608" d="M192.934,201.737a1.842,1.842,0,1,1,1.872-1.827,1.849,1.849,0,0,1-1.872,1.827" transform="translate(-164.716 -170.741)" fill="#fff"/>
          <path id="Trazado_601609" data-name="Trazado 601609" d="M295.139,368.26A1.894,1.894,0,0,1,297,370.112a1.871,1.871,0,1,1-1.864-1.852" transform="translate(-252.82 -317.476)" fill="#fff"/>
          <path id="Trazado_601610" data-name="Trazado 601610" d="M370.152,95.854a1.842,1.842,0,1,1,.019,3.684,1.842,1.842,0,1,1-.019-3.684" transform="translate(-317.5 -82.636)" fill="#fff"/>
          <path id="Trazado_601611" data-name="Trazado 601611" d="M136.478,290.009a3.762,3.762,0,1,1,3.747,3.763,3.814,3.814,0,0,1-3.747-3.763m3.739,1.828a1.843,1.843,0,1,0,.068-3.685,1.843,1.843,0,1,0-.068,3.685" transform="translate(-117.658 -246.746)" fill="#161615"/>
          <path id="Trazado_601612" data-name="Trazado 601612" d="M303.71,212.124a3.756,3.756,0,1,1,.08-7.512,3.756,3.756,0,1,1-.08,7.512m1.872-3.743a1.845,1.845,0,1,0-3.689-.052,1.845,1.845,0,1,0,3.689.052" transform="translate(-258.606 -176.396)" fill="#161615"/>
          <path id="Trazado_601613" data-name="Trazado 601613" d="M218.875,31.149a3.773,3.773,0,1,1-3.791-3.767,3.818,3.818,0,0,1,3.791,3.767m-5.62-.02a1.849,1.849,0,1,0,3.7.016,1.849,1.849,0,1,0-3.7-.016" transform="translate(-182.186 -23.606)" fill="#161615"/>
          <path id="Trazado_601614" data-name="Trazado 601614" d="M55.456,119.755A3.756,3.756,0,1,1,51.721,116a3.763,3.763,0,0,1,3.735,3.757m-3.774,1.861a1.892,1.892,0,0,0,1.89-1.825,1.921,1.921,0,0,0-1.884-1.9,1.892,1.892,0,0,0-1.849,1.868,1.862,1.862,0,0,0,1.843,1.857" transform="translate(-41.332 -100.001)" fill="#161615"/>
          <path id="Trazado_601615" data-name="Trazado 601615" d="M152.124,303.941a1.843,1.843,0,1,1,.068-3.685,1.843,1.843,0,1,1-.068,3.685" transform="translate(-129.564 -258.85)" fill="#fff"/>
          <path id="Trazado_601616" data-name="Trazado 601616" d="M317.587,220.16a1.845,1.845,0,1,1-1.82-1.885,1.843,1.843,0,0,1,1.82,1.885" transform="translate(-270.611 -188.175)" fill="#fff"/>
          <path id="Trazado_601617" data-name="Trazado 601617" d="M225.3,43.02a1.849,1.849,0,1,1,3.7.016,1.849,1.849,0,1,1-3.7-.016" transform="translate(-194.231 -35.497)" fill="#fff"/>
          <path id="Trazado_601618" data-name="Trazado 601618" d="M63.53,133.448a1.862,1.862,0,0,1-1.843-1.857,1.892,1.892,0,0,1,1.849-1.868,1.921,1.921,0,0,1,1.884,1.9,1.892,1.892,0,0,1-1.89,1.825" transform="translate(-53.18 -111.834)" fill="#fff"/>
        </g>
      </g>
    </g>
  </g>
</svg>
