<svg xmlns="http://www.w3.org/2000/svg" width="1030" height="140.044" viewBox="0 0 1030 140.044">
  <g id="Grupo_1015282" data-name="Grupo 1015282" transform="translate(-285 -8353.001)">
    <path id="Trazado_601354" data-name="Trazado 601354" d="M-8060.336-2062l80.348,12.359h719.5" transform="translate(8534.775 10472.604)" fill="none" stroke="#a3bfe4" stroke-width="4" stroke-dasharray="5"/>
    <path id="Trazado_601355" data-name="Trazado 601355" d="M-92,0l53.217,70.021L-92,140.044H181.072l51.75-70.391L181.072,0Z" transform="translate(377 8353)" fill="#e4fdfb"/>
    <path id="Trazado_601356" data-name="Trazado 601356" d="M-92,0l53.217,70.021L-92,140.044H181.072l51.75-70.391L181.072,0Z" transform="translate(1082.179 8353)" fill="#fffbe5"/>
    <path id="Trazado_601359" data-name="Trazado 601359" d="M-92,0l53.217,70.021L-92,140.044H181.072l51.75-70.391L181.072,0Z" transform="translate(728.891 8353)" fill="#e3ecf7"/>
    <path id="Trazado_605921" data-name="Trazado 605921" d="M4.989,16.166A4.173,4.173,0,0,1,1.88,14.958,4.381,4.381,0,0,1,.689,11.742v-.249a5.389,5.389,0,0,1,.519-2.4A3.949,3.949,0,0,1,2.665,7.442a3.851,3.851,0,0,1,2.092-.589,3.525,3.525,0,0,1,2.835,1.17,4.949,4.949,0,0,1,1,3.312v.813H2.723a2.7,2.7,0,0,0,.743,1.76,2.23,2.23,0,0,0,1.639.647,2.731,2.731,0,0,0,2.258-1.121L8.45,14.473a3.631,3.631,0,0,1-1.44,1.249A4.509,4.509,0,0,1,4.989,16.166ZM4.748,8.471a1.7,1.7,0,0,0-1.341.581,3.012,3.012,0,0,0-.652,1.619H6.6v-.149A2.452,2.452,0,0,0,6.06,8.99,1.686,1.686,0,0,0,4.748,8.471Zm7.3-1.453.058.938a3.232,3.232,0,0,1,2.59-1.1A2.483,2.483,0,0,1,17.166,8.23a3.186,3.186,0,0,1,2.756-1.378,2.8,2.8,0,0,1,2.212.822,3.618,3.618,0,0,1,.743,2.424V16H20.86V10.156A1.786,1.786,0,0,0,20.486,8.9a1.635,1.635,0,0,0-1.237-.4,1.679,1.679,0,0,0-1.125.369,1.948,1.948,0,0,0-.61.967L17.523,16H15.506V10.09A1.439,1.439,0,0,0,13.887,8.5a1.776,1.776,0,0,0-1.718.988V16H10.152V7.019ZM32.813,11.6a5.348,5.348,0,0,1-.946,3.324,3.287,3.287,0,0,1-4.906.27v4.258H24.944V7.019H26.8l.083.913A2.963,2.963,0,0,1,29.3,6.853a3.062,3.062,0,0,1,2.577,1.224,5.49,5.49,0,0,1,.934,3.4ZM30.8,11.426a3.746,3.746,0,0,0-.535-2.133A1.741,1.741,0,0,0,28.737,8.5a1.856,1.856,0,0,0-1.776,1.021V13.51a1.873,1.873,0,0,0,1.793,1.046,1.739,1.739,0,0,0,1.507-.776A4.124,4.124,0,0,0,30.8,11.426Zm8.417-2.565a4.991,4.991,0,0,0-.822-.066,1.85,1.85,0,0,0-1.868,1.063V16H34.515V7.019H36.44l.05,1a2.273,2.273,0,0,1,2.025-1.17,1.888,1.888,0,0,1,.714.116Zm5.072,7.3a4.173,4.173,0,0,1-3.109-1.208,4.381,4.381,0,0,1-1.191-3.217v-.249a5.389,5.389,0,0,1,.519-2.4,3.949,3.949,0,0,1,1.457-1.648,3.851,3.851,0,0,1,2.092-.589A3.525,3.525,0,0,1,46.9,8.023a4.949,4.949,0,0,1,1,3.312v.813H42.027a2.7,2.7,0,0,0,.743,1.76,2.23,2.23,0,0,0,1.639.647,2.731,2.731,0,0,0,2.258-1.121l1.087,1.038a3.631,3.631,0,0,1-1.44,1.249A4.509,4.509,0,0,1,44.293,16.166Zm-.241-7.695a1.7,1.7,0,0,0-1.341.581,3.012,3.012,0,0,0-.652,1.619H45.9v-.149a2.452,2.452,0,0,0-.54-1.531A1.686,1.686,0,0,0,44.052,8.471ZM54.495,13.56a.914.914,0,0,0-.444-.822,4.723,4.723,0,0,0-1.473-.5,7.574,7.574,0,0,1-1.718-.548,2.293,2.293,0,0,1-1.511-2.117,2.391,2.391,0,0,1,.979-1.942,3.872,3.872,0,0,1,2.49-.78,4.029,4.029,0,0,1,2.6.8,2.529,2.529,0,0,1,.992,2.067H54.4a1.243,1.243,0,0,0-.432-.967,1.654,1.654,0,0,0-1.146-.386,1.787,1.787,0,0,0-1.083.307.968.968,0,0,0-.419.822.818.818,0,0,0,.39.722,5.365,5.365,0,0,0,1.577.519,7.466,7.466,0,0,1,1.864.623,2.639,2.639,0,0,1,1,.867,2.212,2.212,0,0,1,.328,1.229,2.34,2.34,0,0,1-1,1.963,4.283,4.283,0,0,1-2.631.751,4.644,4.644,0,0,1-1.967-.4,3.238,3.238,0,0,1-1.345-1.1,2.594,2.594,0,0,1-.481-1.5h1.959a1.421,1.421,0,0,0,.54,1.1,2.1,2.1,0,0,0,1.32.386,2.04,2.04,0,0,0,1.212-.3A.938.938,0,0,0,54.495,13.56ZM63.6,16a3.113,3.113,0,0,1-.232-.838,3.393,3.393,0,0,1-4.565.232,2.47,2.47,0,0,1-.855-1.909,2.55,2.55,0,0,1,1.067-2.2,5.169,5.169,0,0,1,3.051-.768H63.3V9.924a1.573,1.573,0,0,0-.39-1.116,1.547,1.547,0,0,0-1.187-.419,1.777,1.777,0,0,0-1.129.344,1.066,1.066,0,0,0-.44.876H58.139a2.239,2.239,0,0,1,.49-1.382,3.263,3.263,0,0,1,1.332-1.009,4.68,4.68,0,0,1,1.88-.365,3.769,3.769,0,0,1,2.515.793,2.827,2.827,0,0,1,.963,2.229v4.051a4.591,4.591,0,0,0,.34,1.934V16Zm-2.216-1.453a2.294,2.294,0,0,0,1.125-.291,1.941,1.941,0,0,0,.793-.78V11.783H62.214a2.973,2.973,0,0,0-1.685.39,1.264,1.264,0,0,0-.564,1.1,1.179,1.179,0,0,0,.386.926A1.5,1.5,0,0,0,61.384,14.547ZM75.62,16.166a4.173,4.173,0,0,1-3.109-1.208,4.381,4.381,0,0,1-1.191-3.217v-.249a5.389,5.389,0,0,1,.519-2.4A3.949,3.949,0,0,1,73.3,7.442a3.851,3.851,0,0,1,2.092-.589,3.525,3.525,0,0,1,2.835,1.17,4.949,4.949,0,0,1,1,3.312v.813H73.354a2.7,2.7,0,0,0,.743,1.76,2.23,2.23,0,0,0,1.639.647,2.731,2.731,0,0,0,2.258-1.121l1.087,1.038a3.631,3.631,0,0,1-1.44,1.249A4.509,4.509,0,0,1,75.62,16.166Zm-.241-7.695a1.7,1.7,0,0,0-1.341.581,3.012,3.012,0,0,0-.652,1.619H77.23v-.149a2.452,2.452,0,0,0-.54-1.531A1.686,1.686,0,0,0,75.379,8.471ZM85.822,13.56a.914.914,0,0,0-.444-.822,4.723,4.723,0,0,0-1.473-.5,7.574,7.574,0,0,1-1.718-.548,2.293,2.293,0,0,1-1.511-2.117,2.391,2.391,0,0,1,.979-1.942,3.872,3.872,0,0,1,2.49-.78,4.029,4.029,0,0,1,2.6.8,2.529,2.529,0,0,1,.992,2.067H85.722a1.243,1.243,0,0,0-.432-.967,1.654,1.654,0,0,0-1.146-.386,1.787,1.787,0,0,0-1.083.307.968.968,0,0,0-.419.822.818.818,0,0,0,.39.722,5.365,5.365,0,0,0,1.577.519,7.466,7.466,0,0,1,1.864.623,2.639,2.639,0,0,1,1,.867,2.212,2.212,0,0,1,.328,1.229,2.34,2.34,0,0,1-1,1.963,4.283,4.283,0,0,1-2.631.751,4.644,4.644,0,0,1-1.967-.4,3.238,3.238,0,0,1-1.345-1.1,2.594,2.594,0,0,1-.481-1.5h1.959a1.421,1.421,0,0,0,.54,1.1,2.1,2.1,0,0,0,1.32.386,2.04,2.04,0,0,0,1.212-.3A.938.938,0,0,0,85.822,13.56ZM97.75,16.166a4.173,4.173,0,0,1-3.109-1.208,4.381,4.381,0,0,1-1.191-3.217v-.249a5.389,5.389,0,0,1,.519-2.4,3.949,3.949,0,0,1,1.457-1.648,3.851,3.851,0,0,1,2.092-.589,3.525,3.525,0,0,1,2.835,1.17,4.949,4.949,0,0,1,1,3.312v.813H95.484a2.7,2.7,0,0,0,.743,1.76,2.23,2.23,0,0,0,1.639.647,2.731,2.731,0,0,0,2.258-1.121l1.087,1.038a3.631,3.631,0,0,1-1.44,1.249A4.509,4.509,0,0,1,97.75,16.166Zm-.241-7.695a1.7,1.7,0,0,0-1.341.581,3.012,3.012,0,0,0-.652,1.619H99.36v-.149a2.452,2.452,0,0,0-.54-1.531A1.686,1.686,0,0,0,97.509,8.471ZM105.063,16h-2.017V3.25h2.017Zm6.051-4.565a5.307,5.307,0,0,1,.963-3.345,3.129,3.129,0,0,1,2.606-1.237,2.941,2.941,0,0,1,2.382,1.054l.116-.888h1.793V19.453h-2.017V15.236a3.011,3.011,0,0,1-2.291.93,3.1,3.1,0,0,1-2.582-1.258A5.557,5.557,0,0,1,111.114,11.435Zm2.017.174a3.748,3.748,0,0,0,.544,2.162,1.733,1.733,0,0,0,1.507.784,1.911,1.911,0,0,0,1.776-1.021V9.451a1.912,1.912,0,0,0-1.76-.979,1.762,1.762,0,0,0-1.515.772A4.089,4.089,0,0,0,113.131,11.609Zm13.456,3.511a3.128,3.128,0,0,1-2.523,1.046,2.788,2.788,0,0,1-2.212-.855,3.637,3.637,0,0,1-.751-2.474V7.019h2.017v5.794q0,1.71,1.419,1.71a1.993,1.993,0,0,0,1.984-1.054V7.019h2.017V16h-1.9Zm7.96,1.046a4.173,4.173,0,0,1-3.109-1.208,4.381,4.381,0,0,1-1.191-3.217v-.249a5.389,5.389,0,0,1,.519-2.4,3.949,3.949,0,0,1,1.457-1.648,3.851,3.851,0,0,1,2.092-.589,3.525,3.525,0,0,1,2.835,1.17,4.949,4.949,0,0,1,1,3.312v.813h-5.869a2.7,2.7,0,0,0,.743,1.76,2.23,2.23,0,0,0,1.639.647,2.731,2.731,0,0,0,2.258-1.121l1.087,1.038a3.631,3.631,0,0,1-1.44,1.249A4.509,4.509,0,0,1,134.547,16.166Zm-.241-7.695a1.7,1.7,0,0,0-1.341.581,3.012,3.012,0,0,0-.652,1.619h3.843v-.149a2.452,2.452,0,0,0-.54-1.531A1.686,1.686,0,0,0,134.307,8.471Z" transform="translate(387 8413.772)" fill="#12263f"/>
    <path id="Trazado_605923" data-name="Trazado 605923" d="M5.229,10.5a5.141,5.141,0,0,1-.237,1.633A3.876,3.876,0,0,1,4.167,13.4l-.855.881a2.467,2.467,0,0,0-.747,1.687,1.539,1.539,0,0,0,.407,1.168,1.6,1.6,0,0,0,1.146.387,1.634,1.634,0,0,0,1.17-.416A1.451,1.451,0,0,0,5.728,16H7.745a2.986,2.986,0,0,1-1.009,2.335,3.819,3.819,0,0,1-2.6.864,3.849,3.849,0,0,1-2.648-.835A3,3,0,0,1,.548,16a4,4,0,0,1,1.287-2.725L2.6,12.5a2.305,2.305,0,0,0,.73-1.554l.017-.44ZM5.4,7.927A1.079,1.079,0,0,1,5.1,8.7a1.107,1.107,0,0,1-.843.31,1.121,1.121,0,0,1-.847-.31,1.139,1.139,0,0,1,0-1.538,1.121,1.121,0,0,1,.847-.31,1.107,1.107,0,0,1,.843.31A1.068,1.068,0,0,1,5.4,7.927Zm13.323,4.138a4.364,4.364,0,0,1-1.428,3.017,4.867,4.867,0,0,1-3.312,1.083,4.713,4.713,0,0,1-2.544-.685,4.5,4.5,0,0,1-1.7-1.947,7.024,7.024,0,0,1-.623-2.93V9.476A7.075,7.075,0,0,1,9.72,6.462a4.567,4.567,0,0,1,1.739-2.009,4.851,4.851,0,0,1,2.619-.706A4.672,4.672,0,0,1,17.3,4.831,4.527,4.527,0,0,1,18.718,7.9H16.626a2.985,2.985,0,0,0-.76-1.88,2.51,2.51,0,0,0-1.789-.577,2.452,2.452,0,0,0-2.1,1,5,5,0,0,0-.751,2.937v1.072a5.308,5.308,0,0,0,.7,2.991,2.328,2.328,0,0,0,2.054,1.03,2.715,2.715,0,0,0,1.859-.556,2.9,2.9,0,0,0,.789-1.851ZM25.84,15.12a3.128,3.128,0,0,1-2.523,1.046,2.788,2.788,0,0,1-2.212-.855,3.637,3.637,0,0,1-.751-2.474V7.019h2.017v5.794q0,1.71,1.419,1.71a1.993,1.993,0,0,0,1.984-1.054V7.019h2.017V16h-1.9Zm9.372.88a3.113,3.113,0,0,1-.232-.838,3.393,3.393,0,0,1-4.565.232,2.47,2.47,0,0,1-.855-1.909,2.55,2.55,0,0,1,1.067-2.2,5.169,5.169,0,0,1,3.051-.768h1.237V9.924a1.573,1.573,0,0,0-.39-1.116,1.547,1.547,0,0,0-1.187-.419,1.777,1.777,0,0,0-1.129.344,1.066,1.066,0,0,0-.44.876H29.75a2.239,2.239,0,0,1,.49-1.382,3.263,3.263,0,0,1,1.332-1.009,4.68,4.68,0,0,1,1.88-.365,3.769,3.769,0,0,1,2.515.793,2.827,2.827,0,0,1,.963,2.229v4.051a4.591,4.591,0,0,0,.34,1.934V16ZM33,14.547a2.294,2.294,0,0,0,1.125-.291,1.941,1.941,0,0,0,.793-.78V11.783H33.826a2.973,2.973,0,0,0-1.685.39,1.264,1.264,0,0,0-.564,1.1,1.179,1.179,0,0,0,.386.926A1.5,1.5,0,0,0,33,14.547Zm1.121-11.3h2.3l-2.3,2.515-1.619,0ZM41.188,16H39.171V3.25h2.017Zm10.384.166a4.173,4.173,0,0,1-3.109-1.208,4.381,4.381,0,0,1-1.191-3.217v-.249a5.389,5.389,0,0,1,.519-2.4,3.949,3.949,0,0,1,1.457-1.648,3.851,3.851,0,0,1,2.092-.589,3.525,3.525,0,0,1,2.835,1.17,4.949,4.949,0,0,1,1,3.312v.813H49.307a2.7,2.7,0,0,0,.743,1.76,2.23,2.23,0,0,0,1.639.647,2.731,2.731,0,0,0,2.258-1.121l1.087,1.038a3.631,3.631,0,0,1-1.44,1.249A4.509,4.509,0,0,1,51.573,16.166Zm-.241-7.695a1.7,1.7,0,0,0-1.341.581,3.012,3.012,0,0,0-.652,1.619h3.843v-.149a2.452,2.452,0,0,0-.54-1.531A1.686,1.686,0,0,0,51.332,8.471ZM61.774,13.56a.914.914,0,0,0-.444-.822,4.723,4.723,0,0,0-1.473-.5,7.574,7.574,0,0,1-1.718-.548,2.293,2.293,0,0,1-1.511-2.117,2.391,2.391,0,0,1,.979-1.942,3.872,3.872,0,0,1,2.49-.78,4.029,4.029,0,0,1,2.6.8,2.529,2.529,0,0,1,.992,2.067H61.675a1.243,1.243,0,0,0-.432-.967A1.654,1.654,0,0,0,60.1,8.363a1.787,1.787,0,0,0-1.083.307.968.968,0,0,0-.419.822.818.818,0,0,0,.39.722,5.365,5.365,0,0,0,1.577.519,7.466,7.466,0,0,1,1.864.623,2.639,2.639,0,0,1,1,.867,2.212,2.212,0,0,1,.328,1.229,2.34,2.34,0,0,1-1,1.963,4.283,4.283,0,0,1-2.631.751,4.644,4.644,0,0,1-1.967-.4,3.238,3.238,0,0,1-1.345-1.1,2.594,2.594,0,0,1-.481-1.5h1.959a1.421,1.421,0,0,0,.54,1.1,2.1,2.1,0,0,0,1.32.386,2.04,2.04,0,0,0,1.212-.3A.938.938,0,0,0,61.774,13.56ZM73.7,16.166a4.173,4.173,0,0,1-3.109-1.208A4.381,4.381,0,0,1,69.4,11.742v-.249a5.389,5.389,0,0,1,.519-2.4,3.949,3.949,0,0,1,1.457-1.648,3.851,3.851,0,0,1,2.092-.589A3.525,3.525,0,0,1,76.3,8.023a4.949,4.949,0,0,1,1,3.312v.813H71.437a2.7,2.7,0,0,0,.743,1.76,2.23,2.23,0,0,0,1.639.647,2.731,2.731,0,0,0,2.258-1.121l1.087,1.038a3.631,3.631,0,0,1-1.44,1.249A4.509,4.509,0,0,1,73.7,16.166Zm-.241-7.695a1.7,1.7,0,0,0-1.341.581,3.012,3.012,0,0,0-.652,1.619h3.843v-.149a2.452,2.452,0,0,0-.54-1.531A1.686,1.686,0,0,0,73.462,8.471ZM81.016,16H79V3.25h2.017Zm10.119-1.444a1.824,1.824,0,0,0,1.253-.44,1.5,1.5,0,0,0,.531-1.087h1.9a2.963,2.963,0,0,1-.523,1.565,3.43,3.43,0,0,1-1.328,1.15,3.958,3.958,0,0,1-1.81.423,3.829,3.829,0,0,1-2.988-1.22,4.84,4.84,0,0,1-1.1-3.37v-.208a4.759,4.759,0,0,1,1.1-3.283,3.8,3.8,0,0,1,2.988-1.233,3.69,3.69,0,0,1,2.611.934,3.345,3.345,0,0,1,1.058,2.453h-1.9a1.847,1.847,0,0,0-.527-1.27,1.7,1.7,0,0,0-1.258-.5,1.775,1.775,0,0,0-1.511.71,3.621,3.621,0,0,0-.54,2.154v.324a3.681,3.681,0,0,0,.527,2.179A1.773,1.773,0,0,0,91.134,14.556ZM101.709,16a3.113,3.113,0,0,1-.232-.838,3.393,3.393,0,0,1-4.565.232,2.47,2.47,0,0,1-.855-1.909,2.55,2.55,0,0,1,1.067-2.2,5.169,5.169,0,0,1,3.051-.768h1.237V9.924a1.573,1.573,0,0,0-.39-1.116,1.547,1.547,0,0,0-1.187-.419,1.777,1.777,0,0,0-1.129.344,1.066,1.066,0,0,0-.44.876H96.248a2.239,2.239,0,0,1,.49-1.382A3.263,3.263,0,0,1,98.07,7.218a4.68,4.68,0,0,1,1.88-.365,3.769,3.769,0,0,1,2.515.793,2.827,2.827,0,0,1,.963,2.229v4.051a4.591,4.591,0,0,0,.34,1.934V16Zm-2.216-1.453a2.294,2.294,0,0,0,1.125-.291,1.941,1.941,0,0,0,.793-.78V11.783h-1.087a2.973,2.973,0,0,0-1.685.39,1.264,1.264,0,0,0-.564,1.1,1.179,1.179,0,0,0,.386.926A1.5,1.5,0,0,0,99.493,14.547Zm10.75-5.686a4.991,4.991,0,0,0-.822-.066,1.85,1.85,0,0,0-1.868,1.063V16h-2.017V7.019h1.926l.05,1a2.273,2.273,0,0,1,2.025-1.17,1.888,1.888,0,0,1,.714.116Zm.764,2.582A5.253,5.253,0,0,1,111.99,8.1,3.157,3.157,0,0,1,114.6,6.853a2.958,2.958,0,0,1,2.416,1.071l.091-.9h1.818v8.708a3.619,3.619,0,0,1-1.1,2.789,4.189,4.189,0,0,1-2.968,1.021,4.783,4.783,0,0,1-1.93-.411A3.429,3.429,0,0,1,111.5,18.05l.955-1.212a2.883,2.883,0,0,0,2.291,1.1,2.228,2.228,0,0,0,1.585-.544,2.084,2.084,0,0,0,.581-1.6v-.606a2.97,2.97,0,0,1-2.324.971,3.15,3.15,0,0,1-2.577-1.253A5.423,5.423,0,0,1,111.006,11.443Zm2.009.174a3.616,3.616,0,0,0,.552,2.129,1.775,1.775,0,0,0,1.531.776,1.941,1.941,0,0,0,1.81-1.046V9.525A1.913,1.913,0,0,0,115.115,8.5a1.782,1.782,0,0,0-1.548.789A4.049,4.049,0,0,0,113.015,11.617Zm7.6-.191a5.3,5.3,0,0,1,.523-2.378,3.819,3.819,0,0,1,1.469-1.627,4.14,4.14,0,0,1,2.175-.569,3.923,3.923,0,0,1,2.951,1.17,4.6,4.6,0,0,1,1.224,3.1l.008.473a5.343,5.343,0,0,1-.51,2.374A3.773,3.773,0,0,1,127,15.593a4.17,4.17,0,0,1-2.2.573A3.9,3.9,0,0,1,121.76,14.9a4.848,4.848,0,0,1-1.141-3.374Zm2.017.174a3.619,3.619,0,0,0,.573,2.171,1.862,1.862,0,0,0,1.594.784,1.842,1.842,0,0,0,1.59-.8,4,4,0,0,0,.569-2.333,3.572,3.572,0,0,0-.585-2.158,1.973,1.973,0,0,0-3.158-.012A3.922,3.922,0,0,0,122.636,11.6Zm11.9-.158a5.34,5.34,0,0,1,.963-3.333,3.085,3.085,0,0,1,2.582-1.258,2.931,2.931,0,0,1,2.308,1V3.25H142.4V16h-1.826l-.1-.93a2.973,2.973,0,0,1-2.416,1.1,3.068,3.068,0,0,1-2.552-1.27A5.535,5.535,0,0,1,134.531,11.443Zm2.017.174a3.739,3.739,0,0,0,.527,2.137,1.71,1.71,0,0,0,1.5.768,1.9,1.9,0,0,0,1.81-1.1V9.583A1.876,1.876,0,0,0,138.59,8.5a1.723,1.723,0,0,0-1.511.776A4.163,4.163,0,0,0,136.548,11.617Zm11.912,4.549a4.173,4.173,0,0,1-3.109-1.208,4.381,4.381,0,0,1-1.191-3.217v-.249a5.389,5.389,0,0,1,.519-2.4,3.949,3.949,0,0,1,1.457-1.648,3.851,3.851,0,0,1,2.092-.589,3.525,3.525,0,0,1,2.835,1.17,4.949,4.949,0,0,1,1,3.312v.813h-5.869a2.7,2.7,0,0,0,.743,1.76,2.23,2.23,0,0,0,1.639.647,2.731,2.731,0,0,0,2.258-1.121l1.087,1.038a3.631,3.631,0,0,1-1.44,1.249A4.509,4.509,0,0,1,148.459,16.166Zm-.241-7.695a1.7,1.7,0,0,0-1.341.581,3.012,3.012,0,0,0-.652,1.619h3.843v-.149a2.452,2.452,0,0,0-.54-1.531A1.686,1.686,0,0,0,148.219,8.471ZM155.772,16h-2.017V3.25h2.017Z" transform="translate(741 8399.272)" fill="#12263f"/>
    <path id="Trazado_605925" data-name="Trazado 605925" d="M5.229,10.5a5.141,5.141,0,0,1-.237,1.633A3.876,3.876,0,0,1,4.167,13.4l-.855.881a2.467,2.467,0,0,0-.747,1.687,1.539,1.539,0,0,0,.407,1.168,1.6,1.6,0,0,0,1.146.387,1.634,1.634,0,0,0,1.17-.416A1.451,1.451,0,0,0,5.728,16H7.745a2.986,2.986,0,0,1-1.009,2.335,3.819,3.819,0,0,1-2.6.864,3.849,3.849,0,0,1-2.648-.835A3,3,0,0,1,.548,16a4,4,0,0,1,1.287-2.725L2.6,12.5a2.305,2.305,0,0,0,.73-1.554l.017-.44ZM5.4,7.927A1.079,1.079,0,0,1,5.1,8.7a1.107,1.107,0,0,1-.843.31,1.121,1.121,0,0,1-.847-.31,1.139,1.139,0,0,1,0-1.538,1.121,1.121,0,0,1,.847-.31,1.107,1.107,0,0,1,.843.31A1.068,1.068,0,0,1,5.4,7.927Zm13.7,2.345a7.46,7.46,0,0,1-.544,2.976,4.847,4.847,0,0,1-1.523,2l2.075,1.619-1.361,1.229-2.573-2.034a5.213,5.213,0,0,1-1.087.108,4.825,4.825,0,0,1-2.611-.718A4.716,4.716,0,0,1,9.7,13.4a7.183,7.183,0,0,1-.635-3.063V9.658a7.352,7.352,0,0,1,.627-3.121,4.71,4.71,0,0,1,1.768-2.071,4.8,4.8,0,0,1,2.611-.718,4.887,4.887,0,0,1,2.635.71A4.651,4.651,0,0,1,18.469,6.5,7.336,7.336,0,0,1,19.1,9.6Zm-2.108-.631a5.248,5.248,0,0,0-.764-3.1A2.509,2.509,0,0,0,14.07,5.491a2.469,2.469,0,0,0-2.121,1.067,5.165,5.165,0,0,0-.784,3.009v.706a5.3,5.3,0,0,0,.768,3.063,2.474,2.474,0,0,0,2.154,1.1,2.478,2.478,0,0,0,2.154-1.062,5.356,5.356,0,0,0,.751-3.1Zm9.488,5.479a3.128,3.128,0,0,1-2.523,1.046,2.788,2.788,0,0,1-2.212-.855,3.637,3.637,0,0,1-.751-2.474V7.019H23.01v5.794q0,1.71,1.419,1.71a1.993,1.993,0,0,0,1.984-1.054V7.019H28.43V16h-1.9ZM32.63,16H30.613V7.019H32.63ZM30.489,4.686a1.071,1.071,0,0,1,.295-.772,1.113,1.113,0,0,1,.843-.307,1.127,1.127,0,0,1,.847.307,1.062,1.062,0,0,1,.3.772,1.038,1.038,0,0,1-.3.76,1.136,1.136,0,0,1-.847.3,1.122,1.122,0,0,1-.843-.3A1.046,1.046,0,0,1,30.489,4.686Zm8.292,11.48a4.173,4.173,0,0,1-3.109-1.208,4.381,4.381,0,0,1-1.191-3.217v-.249A5.389,5.389,0,0,1,35,9.09a3.949,3.949,0,0,1,1.457-1.648,3.851,3.851,0,0,1,2.092-.589,3.525,3.525,0,0,1,2.835,1.17,4.949,4.949,0,0,1,1,3.312v.813H36.515a2.7,2.7,0,0,0,.743,1.76,2.23,2.23,0,0,0,1.639.647,2.731,2.731,0,0,0,2.258-1.121l1.087,1.038a3.631,3.631,0,0,1-1.44,1.249A4.509,4.509,0,0,1,38.781,16.166Zm-.241-7.695a1.7,1.7,0,0,0-1.341.581,3.012,3.012,0,0,0-.652,1.619h3.843v-.149a2.452,2.452,0,0,0-.54-1.531A1.686,1.686,0,0,0,38.541,8.471ZM39,3.25h2.3L39,5.765l-1.619,0ZM45.82,7.019l.058,1.038a3.229,3.229,0,0,1,2.615-1.2q2.806,0,2.855,3.212V16H49.332V10.181a1.85,1.85,0,0,0-.369-1.266A1.554,1.554,0,0,0,47.754,8.5a1.944,1.944,0,0,0-1.818,1.1V16H43.919V7.019ZM59.782,16H57.765V7.019h2.017ZM57.641,4.686a1.071,1.071,0,0,1,.295-.772,1.113,1.113,0,0,1,.843-.307,1.127,1.127,0,0,1,.847.307,1.062,1.062,0,0,1,.3.772,1.038,1.038,0,0,1-.3.76,1.136,1.136,0,0,1-.847.3,1.122,1.122,0,0,1-.843-.3A1.046,1.046,0,0,1,57.641,4.686ZM63.85,7.019l.058,1.038a3.229,3.229,0,0,1,2.615-1.2q2.806,0,2.855,3.212V16H67.361V10.181a1.85,1.85,0,0,0-.369-1.266A1.554,1.554,0,0,0,65.784,8.5a1.944,1.944,0,0,0-1.818,1.1V16H61.949V7.019Zm13.4-2.167a10.962,10.962,0,0,0-1.461-.116q-1.627,0-1.627,1.527v.755h1.826V8.513H74.159V16H72.142V8.513h-1.37V7.019h1.37V6.213a3.007,3.007,0,0,1,.9-2.328,3.618,3.618,0,0,1,2.519-.809,30.331,30.331,0,0,1,3.7.4V16H77.247ZM86.934,15.12a3.128,3.128,0,0,1-2.523,1.046,2.788,2.788,0,0,1-2.212-.855,3.637,3.637,0,0,1-.751-2.474V7.019h2.017v5.794q0,1.71,1.419,1.71a1.993,1.993,0,0,0,1.984-1.054V7.019h2.017V16h-1.9Zm7.147-2.009,1.826-6.093h2.15L94.488,17.361A2.9,2.9,0,0,1,91.7,19.627a3.6,3.6,0,0,1-.971-.15V17.909l.382.025a1.964,1.964,0,0,0,1.15-.278,1.842,1.842,0,0,0,.61-.933l.291-.771L90.005,7.019H92.18Zm8.981,3.055a4.173,4.173,0,0,1-3.109-1.208,4.381,4.381,0,0,1-1.191-3.217v-.249a5.389,5.389,0,0,1,.519-2.4,3.949,3.949,0,0,1,1.457-1.648,3.851,3.851,0,0,1,2.092-.589,3.525,3.525,0,0,1,2.835,1.17,4.949,4.949,0,0,1,1,3.312v.813H100.8a2.7,2.7,0,0,0,.743,1.76,2.23,2.23,0,0,0,1.639.647,2.731,2.731,0,0,0,2.258-1.121l1.087,1.038a3.631,3.631,0,0,1-1.44,1.249A4.509,4.509,0,0,1,103.063,16.166Zm-.241-7.695a1.7,1.7,0,0,0-1.341.581,3.012,3.012,0,0,0-.652,1.619h3.843v-.149a2.452,2.452,0,0,0-.54-1.531A1.686,1.686,0,0,0,102.822,8.471Zm13.6,7.695a4.173,4.173,0,0,1-3.109-1.208,4.381,4.381,0,0,1-1.191-3.217v-.249a5.389,5.389,0,0,1,.519-2.4,3.949,3.949,0,0,1,1.457-1.648,3.851,3.851,0,0,1,2.092-.589,3.525,3.525,0,0,1,2.835,1.17,4.949,4.949,0,0,1,1,3.312v.813h-5.869a2.7,2.7,0,0,0,.743,1.76,2.23,2.23,0,0,0,1.639.647,2.731,2.731,0,0,0,2.258-1.121l1.087,1.038a3.631,3.631,0,0,1-1.44,1.249A4.509,4.509,0,0,1,116.418,16.166Zm-.241-7.695a1.7,1.7,0,0,0-1.341.581,3.012,3.012,0,0,0-.652,1.619h3.843v-.149a2.452,2.452,0,0,0-.54-1.531A1.686,1.686,0,0,0,116.178,8.471Zm7.28-1.453.058,1.038a3.229,3.229,0,0,1,2.615-1.2q2.806,0,2.855,3.212V16h-2.017V10.181a1.85,1.85,0,0,0-.369-1.266,1.554,1.554,0,0,0-1.208-.411,1.944,1.944,0,0,0-1.818,1.1V16h-2.017V7.019Z" transform="translate(1105 8399.272)" fill="#12263f"/>
    <path id="Trazado_605922" data-name="Trazado 605922" d="M4.723,14.556a1.824,1.824,0,0,0,1.253-.44,1.5,1.5,0,0,0,.531-1.087h1.9a2.963,2.963,0,0,1-.523,1.565,3.43,3.43,0,0,1-1.328,1.15,3.958,3.958,0,0,1-1.81.423,3.829,3.829,0,0,1-2.988-1.22,4.84,4.84,0,0,1-1.1-3.37v-.208a4.759,4.759,0,0,1,1.1-3.283A3.8,3.8,0,0,1,4.74,6.853a3.69,3.69,0,0,1,2.611.934,3.345,3.345,0,0,1,1.058,2.453h-1.9a1.847,1.847,0,0,0-.527-1.27,1.7,1.7,0,0,0-1.258-.5,1.775,1.775,0,0,0-1.511.71,3.621,3.621,0,0,0-.54,2.154v.324A3.682,3.682,0,0,0,3.2,13.838,1.773,1.773,0,0,0,4.723,14.556Zm4.831-3.129a5.3,5.3,0,0,1,.523-2.378,3.819,3.819,0,0,1,1.469-1.627,4.14,4.14,0,0,1,2.175-.569,3.923,3.923,0,0,1,2.951,1.17,4.6,4.6,0,0,1,1.224,3.1l.008.473a5.343,5.343,0,0,1-.51,2.374,3.773,3.773,0,0,1-1.461,1.619,4.17,4.17,0,0,1-2.2.573A3.9,3.9,0,0,1,10.7,14.9a4.848,4.848,0,0,1-1.141-3.374Zm2.017.174a3.619,3.619,0,0,0,.573,2.171,1.862,1.862,0,0,0,1.594.784,1.842,1.842,0,0,0,1.59-.8,4,4,0,0,0,.569-2.333,3.572,3.572,0,0,0-.585-2.158,1.973,1.973,0,0,0-3.158-.012A3.922,3.922,0,0,0,11.571,11.6Zm9.936-4.582.058.938a3.232,3.232,0,0,1,2.59-1.1A2.483,2.483,0,0,1,26.621,8.23a3.186,3.186,0,0,1,2.756-1.378,2.8,2.8,0,0,1,2.212.822,3.618,3.618,0,0,1,.743,2.424V16H30.314V10.156A1.786,1.786,0,0,0,29.941,8.9,1.635,1.635,0,0,0,28.7,8.5a1.679,1.679,0,0,0-1.125.369,1.948,1.948,0,0,0-.61.967L26.978,16H24.96V10.09A1.439,1.439,0,0,0,23.342,8.5a1.776,1.776,0,0,0-1.718.988V16H19.606V7.019ZM42.268,11.6a5.348,5.348,0,0,1-.946,3.324,3.287,3.287,0,0,1-4.906.27v4.258H34.4V7.019h1.859l.083.913a2.963,2.963,0,0,1,2.416-1.079,3.062,3.062,0,0,1,2.577,1.224,5.49,5.49,0,0,1,.934,3.4Zm-2.009-.174a3.746,3.746,0,0,0-.535-2.133A1.741,1.741,0,0,0,38.192,8.5a1.856,1.856,0,0,0-1.776,1.021V13.51a1.873,1.873,0,0,0,1.793,1.046,1.739,1.739,0,0,0,1.507-.776A4.124,4.124,0,0,0,40.259,11.426Zm8.417-2.565a4.991,4.991,0,0,0-.822-.066,1.85,1.85,0,0,0-1.868,1.063V16H43.969V7.019H45.9l.05,1a2.273,2.273,0,0,1,2.025-1.17,1.888,1.888,0,0,1,.714.116ZM55.067,16a3.113,3.113,0,0,1-.232-.838,3.393,3.393,0,0,1-4.565.232,2.47,2.47,0,0,1-.855-1.909,2.55,2.55,0,0,1,1.067-2.2,5.169,5.169,0,0,1,3.051-.768h1.237V9.924a1.573,1.573,0,0,0-.39-1.116,1.547,1.547,0,0,0-1.187-.419,1.777,1.777,0,0,0-1.129.344,1.066,1.066,0,0,0-.44.876H49.605a2.239,2.239,0,0,1,.49-1.382,3.263,3.263,0,0,1,1.332-1.009,4.68,4.68,0,0,1,1.88-.365,3.769,3.769,0,0,1,2.515.793,2.827,2.827,0,0,1,.963,2.229v4.051a4.591,4.591,0,0,0,.34,1.934V16Zm-2.216-1.453a2.294,2.294,0,0,0,1.125-.291,1.941,1.941,0,0,0,.793-.78V11.783H53.681a2.973,2.973,0,0,0-1.685.39,1.264,1.264,0,0,0-.564,1.1,1.179,1.179,0,0,0,.386.926A1.5,1.5,0,0,0,52.851,14.547Zm14.236,1.619a4.173,4.173,0,0,1-3.109-1.208,4.381,4.381,0,0,1-1.191-3.217v-.249a5.389,5.389,0,0,1,.519-2.4,3.949,3.949,0,0,1,1.457-1.648,3.851,3.851,0,0,1,2.092-.589,3.525,3.525,0,0,1,2.835,1.17,4.949,4.949,0,0,1,1,3.312v.813H64.821a2.7,2.7,0,0,0,.743,1.76,2.23,2.23,0,0,0,1.639.647,2.731,2.731,0,0,0,2.258-1.121l1.087,1.038a3.631,3.631,0,0,1-1.44,1.249A4.509,4.509,0,0,1,67.087,16.166Zm-.241-7.695a1.7,1.7,0,0,0-1.341.581,3.012,3.012,0,0,0-.652,1.619H68.7v-.149a2.452,2.452,0,0,0-.54-1.531A1.686,1.686,0,0,0,66.846,8.471ZM74.4,16H72.383V3.25H74.4Zm14.294-4.4a5.348,5.348,0,0,1-.946,3.324,3.287,3.287,0,0,1-4.906.27v4.258H80.825V7.019h1.859l.083.913a2.963,2.963,0,0,1,2.416-1.079A3.062,3.062,0,0,1,87.76,8.077a5.49,5.49,0,0,1,.934,3.4Zm-2.009-.174a3.746,3.746,0,0,0-.535-2.133A1.741,1.741,0,0,0,84.618,8.5a1.856,1.856,0,0,0-1.776,1.021V13.51a1.873,1.873,0,0,0,1.793,1.046,1.739,1.739,0,0,0,1.507-.776A4.124,4.124,0,0,0,86.685,11.426ZM95.1,8.861a4.991,4.991,0,0,0-.822-.066,1.85,1.85,0,0,0-1.868,1.063V16H90.4V7.019h1.926l.05,1A2.273,2.273,0,0,1,94.4,6.853a1.888,1.888,0,0,1,.714.116Zm.6,2.565a5.3,5.3,0,0,1,.523-2.378,3.819,3.819,0,0,1,1.469-1.627,4.14,4.14,0,0,1,2.175-.569,3.923,3.923,0,0,1,2.951,1.17,4.6,4.6,0,0,1,1.224,3.1l.008.473a5.343,5.343,0,0,1-.51,2.374,3.773,3.773,0,0,1-1.461,1.619,4.17,4.17,0,0,1-2.2.573A3.9,3.9,0,0,1,96.841,14.9,4.848,4.848,0,0,1,95.7,11.526Zm2.017.174a3.619,3.619,0,0,0,.573,2.171,1.862,1.862,0,0,0,1.594.784,1.842,1.842,0,0,0,1.59-.8,4,4,0,0,0,.569-2.333,3.572,3.572,0,0,0-.585-2.158A1.973,1.973,0,0,0,98.3,9.256,3.922,3.922,0,0,0,97.717,11.6Zm7.662-.158a5.34,5.34,0,0,1,.963-3.333,3.085,3.085,0,0,1,2.582-1.258,2.931,2.931,0,0,1,2.308,1V3.25h2.017V16h-1.826l-.1-.93a2.973,2.973,0,0,1-2.416,1.1,3.068,3.068,0,0,1-2.552-1.27A5.535,5.535,0,0,1,105.378,11.443Zm2.017.174a3.739,3.739,0,0,0,.527,2.137,1.71,1.71,0,0,0,1.5.768,1.9,1.9,0,0,0,1.81-1.1V9.583A1.876,1.876,0,0,0,109.438,8.5a1.723,1.723,0,0,0-1.511.776A4.163,4.163,0,0,0,107.4,11.617Zm13.4,3.5a3.128,3.128,0,0,1-2.523,1.046,2.788,2.788,0,0,1-2.212-.855,3.637,3.637,0,0,1-.751-2.474V7.019h2.017v5.794q0,1.71,1.419,1.71a1.993,1.993,0,0,0,1.984-1.054V7.019h2.017V16h-1.9Zm7.695-.564a1.824,1.824,0,0,0,1.253-.44,1.5,1.5,0,0,0,.531-1.087h1.9a2.963,2.963,0,0,1-.523,1.565,3.43,3.43,0,0,1-1.328,1.15,3.958,3.958,0,0,1-1.81.423,3.829,3.829,0,0,1-2.988-1.22,4.84,4.84,0,0,1-1.1-3.37v-.208a4.759,4.759,0,0,1,1.1-3.283A3.8,3.8,0,0,1,128.5,6.853a3.69,3.69,0,0,1,2.611.934,3.345,3.345,0,0,1,1.058,2.453h-1.9a1.847,1.847,0,0,0-.527-1.27,1.7,1.7,0,0,0-1.258-.5,1.775,1.775,0,0,0-1.511.71,3.621,3.621,0,0,0-.54,2.154v.324a3.681,3.681,0,0,0,.527,2.179A1.773,1.773,0,0,0,128.488,14.556Zm7.736-9.72V7.019h1.585V8.513h-1.585v5.014a1.1,1.1,0,0,0,.2.743.943.943,0,0,0,.726.228,3.107,3.107,0,0,0,.706-.083v1.561a4.968,4.968,0,0,1-1.328.191q-2.324,0-2.324-2.565V8.513h-1.478V7.019h1.478V4.835Zm2.5,6.591a5.3,5.3,0,0,1,.523-2.378,3.819,3.819,0,0,1,1.469-1.627,4.14,4.14,0,0,1,2.175-.569,3.923,3.923,0,0,1,2.951,1.17,4.6,4.6,0,0,1,1.224,3.1l.008.473a5.343,5.343,0,0,1-.51,2.374,3.773,3.773,0,0,1-1.461,1.619,4.17,4.17,0,0,1-2.2.573,3.9,3.9,0,0,1-3.042-1.266,4.848,4.848,0,0,1-1.141-3.374Zm2.017.174a3.619,3.619,0,0,0,.573,2.171,1.862,1.862,0,0,0,1.594.784,1.842,1.842,0,0,0,1.59-.8,4,4,0,0,0,.569-2.333,3.572,3.572,0,0,0-.585-2.158,1.973,1.973,0,0,0-3.158-.012A3.922,3.922,0,0,0,140.74,11.6Zm9.911.855a4.663,4.663,0,0,1,.274-1.761,4.617,4.617,0,0,1,1.083-1.442,8.269,8.269,0,0,0,1.025-1.117,1.955,1.955,0,0,0,.332-1.094,1.672,1.672,0,0,0-.386-1.189,1.482,1.482,0,0,0-1.133-.41,1.631,1.631,0,0,0-1.15.4,1.406,1.406,0,0,0-.436,1.088h-2.017a2.972,2.972,0,0,1,1-2.326,3.824,3.824,0,0,1,2.6-.856,3.732,3.732,0,0,1,2.6.847,3.035,3.035,0,0,1,.934,2.368,3.877,3.877,0,0,1-1.262,2.667L153.1,10.636a2.738,2.738,0,0,0-.564,1.82Zm-.141,2.577a1.058,1.058,0,0,1,.307-.79,1.29,1.29,0,0,1,1.668.008,1.065,1.065,0,0,1,.307.781,1.046,1.046,0,0,1-.3.761,1.13,1.13,0,0,1-.847.306,1.115,1.115,0,0,1-.843-.306A1.054,1.054,0,0,1,150.51,15.033Z" transform="translate(379 8438.772)" fill="#12263f"/>
    <path id="Trazado_605924" data-name="Trazado 605924" d="M.656,11.435a5.307,5.307,0,0,1,.963-3.345A3.129,3.129,0,0,1,4.225,6.853,2.941,2.941,0,0,1,6.607,7.907l.116-.888H8.517V19.453H6.5V15.236a3.011,3.011,0,0,1-2.291.93,3.1,3.1,0,0,1-2.582-1.258A5.557,5.557,0,0,1,.656,11.435Zm2.017.174a3.748,3.748,0,0,0,.544,2.162,1.733,1.733,0,0,0,1.507.784A1.911,1.911,0,0,0,6.5,13.535V9.451a1.912,1.912,0,0,0-1.76-.979,1.762,1.762,0,0,0-1.515.772A4.089,4.089,0,0,0,2.673,11.609ZM16.128,15.12A3.128,3.128,0,0,1,13.6,16.166a2.788,2.788,0,0,1-2.212-.855,3.637,3.637,0,0,1-.751-2.474V7.019h2.017v5.794q0,1.71,1.419,1.71a1.993,1.993,0,0,0,1.984-1.054V7.019h2.017V16h-1.9Zm7.96,1.046a4.173,4.173,0,0,1-3.109-1.208,4.381,4.381,0,0,1-1.191-3.217v-.249a5.389,5.389,0,0,1,.519-2.4,3.949,3.949,0,0,1,1.457-1.648,3.851,3.851,0,0,1,2.092-.589,3.525,3.525,0,0,1,2.835,1.17,4.949,4.949,0,0,1,1,3.312v.813H21.823a2.7,2.7,0,0,0,.743,1.76,2.23,2.23,0,0,0,1.639.647,2.731,2.731,0,0,0,2.258-1.121l1.087,1.038a3.631,3.631,0,0,1-1.44,1.249A4.509,4.509,0,0,1,24.089,16.166Zm-.241-7.695a1.7,1.7,0,0,0-1.341.581,3.012,3.012,0,0,0-.652,1.619H25.7v-.149a2.452,2.452,0,0,0-.54-1.531A1.686,1.686,0,0,0,23.848,8.471Zm13.6,7.695a4.173,4.173,0,0,1-3.109-1.208,4.381,4.381,0,0,1-1.191-3.217v-.249a5.389,5.389,0,0,1,.519-2.4,3.949,3.949,0,0,1,1.457-1.648,3.851,3.851,0,0,1,2.092-.589,3.525,3.525,0,0,1,2.835,1.17,4.949,4.949,0,0,1,1,3.312v.813H35.179a2.7,2.7,0,0,0,.743,1.76,2.23,2.23,0,0,0,1.639.647,2.731,2.731,0,0,0,2.258-1.121l1.087,1.038a3.631,3.631,0,0,1-1.44,1.249A4.509,4.509,0,0,1,37.445,16.166ZM37.2,8.471a1.7,1.7,0,0,0-1.341.581,3.012,3.012,0,0,0-.652,1.619h3.843v-.149a2.452,2.452,0,0,0-.54-1.531A1.686,1.686,0,0,0,37.2,8.471ZM44.758,16H42.741V3.25h2.017ZM49.1,16H47.082V7.019H49.1ZM46.958,4.686a1.071,1.071,0,0,1,.295-.772,1.113,1.113,0,0,1,.843-.307,1.127,1.127,0,0,1,.847.307,1.062,1.062,0,0,1,.3.772,1.038,1.038,0,0,1-.3.76,1.136,1.136,0,0,1-.847.3,1.122,1.122,0,0,1-.843-.3A1.046,1.046,0,0,1,46.958,4.686Zm3.984,6.757A5.253,5.253,0,0,1,51.926,8.1a3.157,3.157,0,0,1,2.611-1.249,2.958,2.958,0,0,1,2.416,1.071l.091-.9h1.818v8.708a3.619,3.619,0,0,1-1.1,2.789,4.189,4.189,0,0,1-2.968,1.021,4.783,4.783,0,0,1-1.93-.411,3.429,3.429,0,0,1-1.432-1.075l.955-1.212a2.883,2.883,0,0,0,2.291,1.1,2.228,2.228,0,0,0,1.585-.544,2.084,2.084,0,0,0,.581-1.6v-.606a2.97,2.97,0,0,1-2.324.971,3.15,3.15,0,0,1-2.577-1.253A5.423,5.423,0,0,1,50.942,11.443Zm2.009.174a3.616,3.616,0,0,0,.552,2.129,1.775,1.775,0,0,0,1.531.776,1.941,1.941,0,0,0,1.81-1.046V9.525A1.913,1.913,0,0,0,55.051,8.5a1.782,1.782,0,0,0-1.548.789A4.049,4.049,0,0,0,52.951,11.617Zm11.937,4.549a4.173,4.173,0,0,1-3.109-1.208,4.381,4.381,0,0,1-1.191-3.217v-.249a5.389,5.389,0,0,1,.519-2.4,3.949,3.949,0,0,1,1.457-1.648,3.851,3.851,0,0,1,2.092-.589,3.525,3.525,0,0,1,2.835,1.17,4.949,4.949,0,0,1,1,3.312v.813H62.621a2.7,2.7,0,0,0,.743,1.76A2.23,2.23,0,0,0,65,14.556a2.731,2.731,0,0,0,2.258-1.121l1.087,1.038a3.631,3.631,0,0,1-1.44,1.249A4.509,4.509,0,0,1,64.887,16.166Zm-.241-7.695a1.7,1.7,0,0,0-1.341.581,3.012,3.012,0,0,0-.652,1.619H66.5v-.149a2.452,2.452,0,0,0-.54-1.531A1.686,1.686,0,0,0,64.646,8.471ZM76.434,16H74.417V3.25h2.017ZM84,16a3.113,3.113,0,0,1-.232-.838,3.393,3.393,0,0,1-4.565.232,2.47,2.47,0,0,1-.855-1.909,2.55,2.55,0,0,1,1.067-2.2,5.169,5.169,0,0,1,3.051-.768H83.7V9.924a1.573,1.573,0,0,0-.39-1.116,1.547,1.547,0,0,0-1.187-.419,1.777,1.777,0,0,0-1.129.344,1.066,1.066,0,0,0-.44.876H78.534a2.239,2.239,0,0,1,.49-1.382,3.263,3.263,0,0,1,1.332-1.009,4.68,4.68,0,0,1,1.88-.365,3.769,3.769,0,0,1,2.515.793,2.827,2.827,0,0,1,.963,2.229v4.051a4.591,4.591,0,0,0,.34,1.934V16Zm-2.216-1.453a2.294,2.294,0,0,0,1.125-.291,1.941,1.941,0,0,0,.793-.78V11.783H82.609a2.973,2.973,0,0,0-1.685.39,1.264,1.264,0,0,0-.564,1.1,1.179,1.179,0,0,0,.386.926A1.5,1.5,0,0,0,81.779,14.547Zm13.97.008A1.824,1.824,0,0,0,97,14.116a1.5,1.5,0,0,0,.531-1.087h1.9a2.963,2.963,0,0,1-.523,1.565,3.43,3.43,0,0,1-1.328,1.15,3.958,3.958,0,0,1-1.81.423,3.829,3.829,0,0,1-2.988-1.22,4.84,4.84,0,0,1-1.1-3.37v-.208a4.759,4.759,0,0,1,1.1-3.283,3.8,3.8,0,0,1,2.988-1.233,3.69,3.69,0,0,1,2.611.934,3.345,3.345,0,0,1,1.058,2.453h-1.9a1.847,1.847,0,0,0-.527-1.27,1.7,1.7,0,0,0-1.258-.5,1.775,1.775,0,0,0-1.511.71,3.621,3.621,0,0,0-.54,2.154v.324a3.681,3.681,0,0,0,.527,2.179A1.773,1.773,0,0,0,95.75,14.556Zm4.831-3.129a5.3,5.3,0,0,1,.523-2.378,3.819,3.819,0,0,1,1.469-1.627,4.14,4.14,0,0,1,2.175-.569,3.923,3.923,0,0,1,2.951,1.17,4.6,4.6,0,0,1,1.224,3.1l.008.473a5.343,5.343,0,0,1-.51,2.374,3.773,3.773,0,0,1-1.461,1.619,4.17,4.17,0,0,1-2.2.573,3.9,3.9,0,0,1-3.042-1.266,4.848,4.848,0,0,1-1.141-3.374Zm2.017.174a3.619,3.619,0,0,0,.573,2.171,1.862,1.862,0,0,0,1.594.784,1.842,1.842,0,0,0,1.59-.8,4,4,0,0,0,.569-2.333,3.572,3.572,0,0,0-.585-2.158,1.973,1.973,0,0,0-3.158-.012A3.922,3.922,0,0,0,102.6,11.6Zm9.936-4.582.058.938a3.232,3.232,0,0,1,2.59-1.1,2.483,2.483,0,0,1,2.465,1.378A3.186,3.186,0,0,1,120.4,6.853a2.8,2.8,0,0,1,2.212.822,3.618,3.618,0,0,1,.743,2.424V16h-2.017V10.156a1.786,1.786,0,0,0-.374-1.253,1.635,1.635,0,0,0-1.237-.4,1.679,1.679,0,0,0-1.125.369,1.948,1.948,0,0,0-.61.967L118,16h-2.017V10.09A1.439,1.439,0,0,0,114.368,8.5a1.776,1.776,0,0,0-1.718.988V16h-2.017V7.019Zm20.76,4.582a5.348,5.348,0,0,1-.946,3.324,3.287,3.287,0,0,1-4.906.27v4.258h-2.017V7.019h1.859l.083.913a2.963,2.963,0,0,1,2.416-1.079,3.062,3.062,0,0,1,2.577,1.224,5.49,5.49,0,0,1,.934,3.4Zm-2.009-.174a3.746,3.746,0,0,0-.535-2.133,1.741,1.741,0,0,0-1.531-.789,1.856,1.856,0,0,0-1.776,1.021V13.51a1.873,1.873,0,0,0,1.793,1.046,1.739,1.739,0,0,0,1.507-.776A4.123,4.123,0,0,0,131.285,11.426ZM139.7,8.861a4.991,4.991,0,0,0-.822-.066,1.85,1.85,0,0,0-1.868,1.063V16H135V7.019h1.926l.05,1A2.273,2.273,0,0,1,139,6.853a1.888,1.888,0,0,1,.714.116ZM146.094,16a3.113,3.113,0,0,1-.232-.838,3.393,3.393,0,0,1-4.565.232,2.47,2.47,0,0,1-.855-1.909,2.55,2.55,0,0,1,1.067-2.2,5.169,5.169,0,0,1,3.051-.768h1.237V9.924a1.573,1.573,0,0,0-.39-1.116,1.547,1.547,0,0,0-1.187-.419,1.777,1.777,0,0,0-1.129.344,1.066,1.066,0,0,0-.44.876h-2.017a2.239,2.239,0,0,1,.49-1.382,3.263,3.263,0,0,1,1.332-1.009,4.68,4.68,0,0,1,1.88-.365,3.769,3.769,0,0,1,2.515.793,2.827,2.827,0,0,1,.963,2.229v4.051a4.591,4.591,0,0,0,.34,1.934V16Zm-2.216-1.453A2.294,2.294,0,0,0,145,14.257a1.941,1.941,0,0,0,.793-.78V11.783h-1.087a2.973,2.973,0,0,0-1.685.39,1.264,1.264,0,0,0-.564,1.1,1.179,1.179,0,0,0,.386.926A1.5,1.5,0,0,0,143.877,14.547Zm7.919-2.092a4.663,4.663,0,0,1,.274-1.761,4.617,4.617,0,0,1,1.083-1.442,8.269,8.269,0,0,0,1.025-1.117,1.955,1.955,0,0,0,.332-1.094,1.672,1.672,0,0,0-.386-1.189,1.482,1.482,0,0,0-1.133-.41,1.631,1.631,0,0,0-1.15.4,1.406,1.406,0,0,0-.436,1.088h-2.017a2.972,2.972,0,0,1,1-2.326,3.824,3.824,0,0,1,2.6-.856,3.732,3.732,0,0,1,2.6.847,3.035,3.035,0,0,1,.934,2.368,3.877,3.877,0,0,1-1.262,2.667l-1.021,1.005a2.738,2.738,0,0,0-.564,1.82Zm-.141,2.577a1.058,1.058,0,0,1,.307-.79,1.29,1.29,0,0,1,1.668.008,1.065,1.065,0,0,1,.307.781,1.046,1.046,0,0,1-.3.761,1.13,1.13,0,0,1-.847.306,1.115,1.115,0,0,1-.843-.306A1.054,1.054,0,0,1,151.655,15.033Z" transform="translate(743 8424.272)" fill="#12263f"/>
    <path id="Trazado_605926" data-name="Trazado 605926" d="M6.068,13.56a.914.914,0,0,0-.444-.822,4.723,4.723,0,0,0-1.473-.5,7.574,7.574,0,0,1-1.718-.548A2.293,2.293,0,0,1,.921,9.575,2.391,2.391,0,0,1,1.9,7.633a3.872,3.872,0,0,1,2.49-.78,4.029,4.029,0,0,1,2.6.8,2.529,2.529,0,0,1,.992,2.067H5.968a1.243,1.243,0,0,0-.432-.967,1.654,1.654,0,0,0-1.146-.386,1.787,1.787,0,0,0-1.083.307.968.968,0,0,0-.419.822.818.818,0,0,0,.39.722,5.365,5.365,0,0,0,1.577.519,7.466,7.466,0,0,1,1.864.623,2.639,2.639,0,0,1,1,.867,2.212,2.212,0,0,1,.328,1.229,2.34,2.34,0,0,1-1,1.963,4.283,4.283,0,0,1-2.631.751,4.644,4.644,0,0,1-1.967-.4,3.238,3.238,0,0,1-1.345-1.1,2.594,2.594,0,0,1-.481-1.5H2.582a1.421,1.421,0,0,0,.54,1.1,2.1,2.1,0,0,0,1.32.386,2.04,2.04,0,0,0,1.212-.3A.938.938,0,0,0,6.068,13.56Zm9.181,1.561a3.128,3.128,0,0,1-2.523,1.046,2.788,2.788,0,0,1-2.212-.855,3.637,3.637,0,0,1-.751-2.474V7.019h2.017v5.794q0,1.71,1.419,1.71a1.993,1.993,0,0,0,1.984-1.054V7.019H17.2V16H15.3Zm9.04-1.561a.914.914,0,0,0-.444-.822,4.723,4.723,0,0,0-1.473-.5,7.574,7.574,0,0,1-1.718-.548,2.293,2.293,0,0,1-1.511-2.117,2.391,2.391,0,0,1,.979-1.942,3.872,3.872,0,0,1,2.49-.78,4.029,4.029,0,0,1,2.6.8,2.529,2.529,0,0,1,.992,2.067H24.188a1.243,1.243,0,0,0-.432-.967,1.654,1.654,0,0,0-1.146-.386,1.787,1.787,0,0,0-1.083.307.968.968,0,0,0-.419.822.818.818,0,0,0,.39.722,5.365,5.365,0,0,0,1.577.519,7.466,7.466,0,0,1,1.864.623,2.639,2.639,0,0,1,1,.867,2.212,2.212,0,0,1,.328,1.229,2.34,2.34,0,0,1-1,1.963,4.283,4.283,0,0,1-2.631.751,4.644,4.644,0,0,1-1.967-.4,3.238,3.238,0,0,1-1.345-1.1,2.594,2.594,0,0,1-.481-1.5H20.8a1.421,1.421,0,0,0,.54,1.1,2.1,2.1,0,0,0,1.32.386,2.04,2.04,0,0,0,1.212-.3A.938.938,0,0,0,24.288,13.56Zm7.6-2.117a5.34,5.34,0,0,1,.963-3.333,3.085,3.085,0,0,1,2.582-1.258,2.931,2.931,0,0,1,2.308,1V3.25h2.017V16H37.926l-.1-.93a2.973,2.973,0,0,1-2.416,1.1,3.068,3.068,0,0,1-2.552-1.27A5.535,5.535,0,0,1,31.883,11.443Zm2.017.174a3.739,3.739,0,0,0,.527,2.137,1.71,1.71,0,0,0,1.5.768,1.9,1.9,0,0,0,1.81-1.1V9.583A1.876,1.876,0,0,0,35.942,8.5a1.723,1.723,0,0,0-1.511.776A4.163,4.163,0,0,0,33.9,11.617Zm11.912,4.549A4.173,4.173,0,0,1,42.7,14.958a4.381,4.381,0,0,1-1.191-3.217v-.249a5.389,5.389,0,0,1,.519-2.4,3.949,3.949,0,0,1,1.457-1.648,3.851,3.851,0,0,1,2.092-.589,3.525,3.525,0,0,1,2.835,1.17,4.949,4.949,0,0,1,1,3.312v.813H43.546a2.7,2.7,0,0,0,.743,1.76,2.23,2.23,0,0,0,1.639.647,2.731,2.731,0,0,0,2.258-1.121l1.087,1.038a3.631,3.631,0,0,1-1.44,1.249A4.509,4.509,0,0,1,45.812,16.166Zm-.241-7.695a1.7,1.7,0,0,0-1.341.581,3.012,3.012,0,0,0-.652,1.619h3.843v-.149a2.452,2.452,0,0,0-.54-1.531A1.686,1.686,0,0,0,45.571,8.471Zm9.1,6.084a1.824,1.824,0,0,0,1.253-.44,1.5,1.5,0,0,0,.531-1.087h1.9a2.963,2.963,0,0,1-.523,1.565,3.43,3.43,0,0,1-1.328,1.15,3.958,3.958,0,0,1-1.81.423,3.829,3.829,0,0,1-2.988-1.22,4.84,4.84,0,0,1-1.1-3.37v-.208a4.759,4.759,0,0,1,1.1-3.283,3.8,3.8,0,0,1,2.988-1.233,3.69,3.69,0,0,1,2.611.934,3.345,3.345,0,0,1,1.058,2.453h-1.9a1.847,1.847,0,0,0-.527-1.27,1.7,1.7,0,0,0-1.258-.5,1.775,1.775,0,0,0-1.511.71,3.621,3.621,0,0,0-.54,2.154v.324a3.682,3.682,0,0,0,.527,2.179A1.773,1.773,0,0,0,54.669,14.556ZM62.023,16H60.006V7.019h2.017ZM59.882,4.686a1.071,1.071,0,0,1,.295-.772,1.113,1.113,0,0,1,.843-.307,1.127,1.127,0,0,1,.847.307,1.062,1.062,0,0,1,.3.772,1.038,1.038,0,0,1-.3.76,1.136,1.136,0,0,1-.847.3,1.122,1.122,0,0,1-.843-.3A1.046,1.046,0,0,1,59.882,4.686Zm9.372,8.874a.914.914,0,0,0-.444-.822,4.723,4.723,0,0,0-1.473-.5,7.574,7.574,0,0,1-1.718-.548,2.293,2.293,0,0,1-1.511-2.117,2.391,2.391,0,0,1,.979-1.942,3.872,3.872,0,0,1,2.49-.78,4.029,4.029,0,0,1,2.6.8,2.529,2.529,0,0,1,.992,2.067H69.154a1.243,1.243,0,0,0-.432-.967,1.654,1.654,0,0,0-1.146-.386,1.787,1.787,0,0,0-1.083.307.968.968,0,0,0-.419.822.818.818,0,0,0,.39.722,5.365,5.365,0,0,0,1.577.519,7.466,7.466,0,0,1,1.864.623,2.639,2.639,0,0,1,1,.867,2.212,2.212,0,0,1,.328,1.229,2.34,2.34,0,0,1-1,1.963,4.283,4.283,0,0,1-2.631.751,4.644,4.644,0,0,1-1.967-.4,3.238,3.238,0,0,1-1.345-1.1,2.594,2.594,0,0,1-.481-1.5h1.959a1.421,1.421,0,0,0,.54,1.1,2.1,2.1,0,0,0,1.32.386,2.04,2.04,0,0,0,1.212-.3A.938.938,0,0,0,69.253,13.56ZM75.139,16H73.122V7.019h2.017ZM73,4.686a1.071,1.071,0,0,1,.295-.772,1.113,1.113,0,0,1,.843-.307,1.127,1.127,0,0,1,.847.307,1.062,1.062,0,0,1,.3.772,1.038,1.038,0,0,1-.3.76,1.136,1.136,0,0,1-.847.3,1.122,1.122,0,0,1-.843-.3A1.046,1.046,0,0,1,73,4.686Zm3.959,6.74a5.3,5.3,0,0,1,.523-2.378,3.819,3.819,0,0,1,1.469-1.627,4.14,4.14,0,0,1,2.175-.569,3.923,3.923,0,0,1,2.951,1.17,4.6,4.6,0,0,1,1.224,3.1l.008.473a5.343,5.343,0,0,1-.51,2.374,3.773,3.773,0,0,1-1.461,1.619,4.17,4.17,0,0,1-2.2.573A3.9,3.9,0,0,1,78.1,14.9a4.848,4.848,0,0,1-1.141-3.374Zm2.017.174a3.619,3.619,0,0,0,.573,2.171,1.862,1.862,0,0,0,1.594.784,1.842,1.842,0,0,0,1.59-.8,4,4,0,0,0,.569-2.333,3.572,3.572,0,0,0-.585-2.158,1.973,1.973,0,0,0-3.158-.012A3.922,3.922,0,0,0,78.974,11.6Zm9.911-4.582.058,1.038a3.229,3.229,0,0,1,2.615-1.2q2.806,0,2.855,3.212V16H92.4V10.181a1.85,1.85,0,0,0-.369-1.266A1.554,1.554,0,0,0,90.819,8.5,1.944,1.944,0,0,0,89,9.608V16H86.984V7.019Zm11.538,9.147a4.173,4.173,0,0,1-3.109-1.208,4.381,4.381,0,0,1-1.191-3.217v-.249a5.389,5.389,0,0,1,.519-2.4A3.949,3.949,0,0,1,98.1,7.442a3.851,3.851,0,0,1,2.092-.589,3.525,3.525,0,0,1,2.835,1.17,4.949,4.949,0,0,1,1,3.312v.813H98.157a2.7,2.7,0,0,0,.743,1.76,2.23,2.23,0,0,0,1.639.647,2.731,2.731,0,0,0,2.258-1.121l1.087,1.038a3.631,3.631,0,0,1-1.44,1.249A4.509,4.509,0,0,1,100.423,16.166Zm-.241-7.695a1.7,1.7,0,0,0-1.341.581,3.012,3.012,0,0,0-.652,1.619h3.843v-.149a2.452,2.452,0,0,0-.54-1.531A1.686,1.686,0,0,0,100.182,8.471Zm10.442,5.088a.914.914,0,0,0-.444-.822,4.723,4.723,0,0,0-1.473-.5,7.574,7.574,0,0,1-1.718-.548,2.293,2.293,0,0,1-1.511-2.117,2.391,2.391,0,0,1,.979-1.942,3.872,3.872,0,0,1,2.49-.78,4.029,4.029,0,0,1,2.6.8,2.529,2.529,0,0,1,.992,2.067h-2.017a1.243,1.243,0,0,0-.432-.967,1.654,1.654,0,0,0-1.146-.386,1.787,1.787,0,0,0-1.083.307.968.968,0,0,0-.419.822.818.818,0,0,0,.39.722,5.365,5.365,0,0,0,1.577.519,7.466,7.466,0,0,1,1.864.623,2.639,2.639,0,0,1,1,.867,2.212,2.212,0,0,1,.328,1.229,2.34,2.34,0,0,1-1,1.963,4.283,4.283,0,0,1-2.631.751,4.644,4.644,0,0,1-1.967-.4,3.238,3.238,0,0,1-1.345-1.1,2.594,2.594,0,0,1-.481-1.5h1.959a1.421,1.421,0,0,0,.54,1.1,2.1,2.1,0,0,0,1.32.386,2.04,2.04,0,0,0,1.212-.3A.938.938,0,0,0,110.625,13.56Zm5.611-1.1a4.663,4.663,0,0,1,.274-1.761,4.617,4.617,0,0,1,1.083-1.442,8.269,8.269,0,0,0,1.025-1.117,1.955,1.955,0,0,0,.332-1.094,1.672,1.672,0,0,0-.386-1.189,1.482,1.482,0,0,0-1.133-.41,1.631,1.631,0,0,0-1.15.4,1.406,1.406,0,0,0-.436,1.088h-2.017a2.972,2.972,0,0,1,1-2.326,3.824,3.824,0,0,1,2.6-.856,3.732,3.732,0,0,1,2.6.847,3.035,3.035,0,0,1,.934,2.368,3.877,3.877,0,0,1-1.262,2.667l-1.021,1.005a2.738,2.738,0,0,0-.564,1.82Zm-.141,2.577a1.058,1.058,0,0,1,.307-.79,1.29,1.29,0,0,1,1.668.008,1.065,1.065,0,0,1,.307.781,1.046,1.046,0,0,1-.3.761,1.13,1.13,0,0,1-.847.306,1.115,1.115,0,0,1-.843-.306A1.054,1.054,0,0,1,116.095,15.033Z" transform="translate(1107 8424.272)" fill="#12263f"/>
    <path id="Trazado_605920" data-name="Trazado 605920" d="M5.229,10.5a5.141,5.141,0,0,1-.237,1.633A3.876,3.876,0,0,1,4.167,13.4l-.855.881a2.467,2.467,0,0,0-.747,1.687,1.539,1.539,0,0,0,.407,1.168,1.6,1.6,0,0,0,1.146.387,1.634,1.634,0,0,0,1.17-.416A1.451,1.451,0,0,0,5.728,16H7.745a2.986,2.986,0,0,1-1.009,2.335,3.819,3.819,0,0,1-2.6.864,3.849,3.849,0,0,1-2.648-.835A3,3,0,0,1,.548,16a4,4,0,0,1,1.287-2.725L2.6,12.5a2.305,2.305,0,0,0,.73-1.554l.017-.44ZM5.4,7.927A1.079,1.079,0,0,1,5.1,8.7a1.107,1.107,0,0,1-.843.31,1.121,1.121,0,0,1-.847-.31,1.139,1.139,0,0,1,0-1.538,1.121,1.121,0,0,1,.847-.31,1.107,1.107,0,0,1,.843.31A1.068,1.068,0,0,1,5.4,7.927Zm13.7,2.345a7.46,7.46,0,0,1-.544,2.976,4.847,4.847,0,0,1-1.523,2l2.075,1.619-1.361,1.229-2.573-2.034a5.213,5.213,0,0,1-1.087.108,4.825,4.825,0,0,1-2.611-.718A4.716,4.716,0,0,1,9.7,13.4a7.183,7.183,0,0,1-.635-3.063V9.658a7.352,7.352,0,0,1,.627-3.121,4.71,4.71,0,0,1,1.768-2.071,4.8,4.8,0,0,1,2.611-.718,4.887,4.887,0,0,1,2.635.71A4.651,4.651,0,0,1,18.469,6.5,7.336,7.336,0,0,1,19.1,9.6Zm-2.108-.631a5.248,5.248,0,0,0-.764-3.1A2.509,2.509,0,0,0,14.07,5.491a2.469,2.469,0,0,0-2.121,1.067,5.165,5.165,0,0,0-.784,3.009v.706a5.3,5.3,0,0,0,.768,3.063,2.474,2.474,0,0,0,2.154,1.1,2.478,2.478,0,0,0,2.154-1.062,5.356,5.356,0,0,0,.751-3.1Zm9.488,5.479a3.128,3.128,0,0,1-2.523,1.046,2.788,2.788,0,0,1-2.212-.855,3.637,3.637,0,0,1-.751-2.474V7.019H23.01v5.794q0,1.71,1.419,1.71a1.993,1.993,0,0,0,1.984-1.054V7.019H28.43V16h-1.9Zm7.96,1.046a4.173,4.173,0,0,1-3.109-1.208,4.381,4.381,0,0,1-1.191-3.217v-.249a5.389,5.389,0,0,1,.519-2.4,3.949,3.949,0,0,1,1.457-1.648,3.851,3.851,0,0,1,2.092-.589,3.525,3.525,0,0,1,2.835,1.17,4.949,4.949,0,0,1,1,3.312v.813H32.174a2.7,2.7,0,0,0,.743,1.76,2.23,2.23,0,0,0,1.639.647,2.731,2.731,0,0,0,2.258-1.121L37.9,14.473a3.631,3.631,0,0,1-1.44,1.249A4.509,4.509,0,0,1,34.44,16.166ZM34.2,8.471a1.7,1.7,0,0,0-1.341.581,3.012,3.012,0,0,0-.652,1.619H36.05v-.149a2.452,2.452,0,0,0-.54-1.531A1.686,1.686,0,0,0,34.2,8.471Zm.457-5.221h2.3l-2.3,2.515-1.619,0ZM46.368,4.835V7.019h1.585V8.513H46.368v5.014a1.1,1.1,0,0,0,.2.743.943.943,0,0,0,.726.228A3.107,3.107,0,0,0,48,14.415v1.561a4.968,4.968,0,0,1-1.328.191q-2.324,0-2.324-2.565V8.513H42.874V7.019h1.478V4.835ZM51.639,16H49.622V7.019h2.017ZM49.5,4.686a1.071,1.071,0,0,1,.295-.772,1.113,1.113,0,0,1,.843-.307,1.127,1.127,0,0,1,.847.307,1.062,1.062,0,0,1,.3.772,1.038,1.038,0,0,1-.3.76,1.136,1.136,0,0,1-.847.3,1.122,1.122,0,0,1-.843-.3A1.046,1.046,0,0,1,49.5,4.686ZM61.7,11.6a5.348,5.348,0,0,1-.946,3.324,3.287,3.287,0,0,1-4.906.27v4.258H53.831V7.019H55.69l.083.913a2.963,2.963,0,0,1,2.416-1.079,3.062,3.062,0,0,1,2.577,1.224,5.49,5.49,0,0,1,.934,3.4Zm-2.009-.174a3.746,3.746,0,0,0-.535-2.133A1.741,1.741,0,0,0,57.624,8.5a1.856,1.856,0,0,0-1.776,1.021V13.51a1.873,1.873,0,0,0,1.793,1.046,1.739,1.739,0,0,0,1.507-.776A4.124,4.124,0,0,0,59.691,11.426Zm3.337,0a5.3,5.3,0,0,1,.523-2.378A3.819,3.819,0,0,1,65.02,7.421a4.14,4.14,0,0,1,2.175-.569,3.923,3.923,0,0,1,2.951,1.17,4.6,4.6,0,0,1,1.224,3.1l.008.473a5.343,5.343,0,0,1-.51,2.374,3.773,3.773,0,0,1-1.461,1.619,4.17,4.17,0,0,1-2.2.573A3.9,3.9,0,0,1,64.169,14.9a4.848,4.848,0,0,1-1.141-3.374Zm2.017.174a3.619,3.619,0,0,0,.573,2.171,1.862,1.862,0,0,0,1.594.784,1.842,1.842,0,0,0,1.59-.8,4,4,0,0,0,.569-2.333,3.572,3.572,0,0,0-.585-2.158,1.973,1.973,0,0,0-3.158-.012A3.922,3.922,0,0,0,65.045,11.6Zm11.9-.158A5.34,5.34,0,0,1,77.9,8.11a3.085,3.085,0,0,1,2.582-1.258,2.931,2.931,0,0,1,2.308,1V3.25h2.017V16H82.983l-.1-.93a2.973,2.973,0,0,1-2.416,1.1,3.068,3.068,0,0,1-2.552-1.27A5.535,5.535,0,0,1,76.94,11.443Zm2.017.174a3.739,3.739,0,0,0,.527,2.137,1.71,1.71,0,0,0,1.5.768,1.9,1.9,0,0,0,1.81-1.1V9.583A1.876,1.876,0,0,0,81,8.5a1.723,1.723,0,0,0-1.511.776A4.163,4.163,0,0,0,78.957,11.617Zm11.912,4.549a4.173,4.173,0,0,1-3.109-1.208,4.381,4.381,0,0,1-1.191-3.217v-.249a5.389,5.389,0,0,1,.519-2.4,3.949,3.949,0,0,1,1.457-1.648,3.851,3.851,0,0,1,2.092-.589,3.525,3.525,0,0,1,2.835,1.17,4.949,4.949,0,0,1,1,3.312v.813H88.6a2.7,2.7,0,0,0,.743,1.76,2.23,2.23,0,0,0,1.639.647,2.731,2.731,0,0,0,2.258-1.121l1.087,1.038a3.631,3.631,0,0,1-1.44,1.249A4.509,4.509,0,0,1,90.869,16.166Zm-.241-7.695a1.7,1.7,0,0,0-1.341.581,3.012,3.012,0,0,0-.652,1.619h3.843v-.149a2.452,2.452,0,0,0-.54-1.531A1.686,1.686,0,0,0,90.628,8.471Z" transform="translate(400 8389.272)" fill="#12263f"/>
  </g>
</svg>
