<svg xmlns="http://www.w3.org/2000/svg" xmlns:xlink="http://www.w3.org/1999/xlink" width="400" height="188" viewBox="0 0 400 188">
  <defs>
    <clipPath id="clip-path">
      <rect id="Rect치ngulo_44501" data-name="Rect치ngulo 44501" width="295" height="187.891" fill="none"/>
    </clipPath>
  </defs>
  <g id="Grupo_1013404" data-name="Grupo 1013404" transform="translate(-1020 -403)">
    <rect id="Rect치ngulo_45687" data-name="Rect치ngulo 45687" width="400" height="82" rx="41" transform="translate(1020 509)" fill="#a3bfe4"/>
    <g id="Grupo_1013403" data-name="Grupo 1013403" transform="translate(1073 403)">
      <g id="Grupo_156607" data-name="Grupo 156607" clip-path="url(#clip-path)">
        <path id="Trazado_598926" data-name="Trazado 598926" d="M86.164,46.729A14.827,14.827,0,1,1,71.336,31.9,14.827,14.827,0,0,1,86.164,46.729" transform="translate(9.79 5.527)" fill="#fff198"/>
        <path id="Trazado_598927" data-name="Trazado 598927" d="M213.169,65.446l-.217,5.534s-3.253,1.708-3.211,1.977A37.65,37.65,0,0,0,212.029,76s.1,6,4.377,6.538a16.645,16.645,0,0,0,3.462,0l.2,6.022s4.417-2.666,6.019-2.779a20.659,20.659,0,0,1,.126-6.506,16.4,16.4,0,0,1,1.292-3.665s2.717-1.149,2.392-3.544a3.74,3.74,0,0,0-3.164-3.358,12.168,12.168,0,0,0-2.933.941,15.338,15.338,0,0,1-2.085-3.833,13.724,13.724,0,0,1-.256-4.585,21.084,21.084,0,0,0-5.188,1.538c-2.756,1.219-3.081,2.1-3.081,2.1Z" transform="translate(36.336 10.609)" fill="#fff"/>
        <path id="Trazado_598928" data-name="Trazado 598928" d="M94.3,145.216c-5.652.055-6.487,1.142-6.487,1.142-.083.458-4.488.595-5.609,3.815a7.278,7.278,0,0,0,1.538,7.289,12.754,12.754,0,0,0,3.924,1.6l.147,2.291s2.2,1.144,7.043,1.049,6.243-.783,6.243-.783V146.469s-1.147-1.308-6.8-1.253m-10.438,7.065c.155-3.365,1.774-2.842,3.868-3.165l.084,7.86s-4.109-1.28-3.953-4.694" transform="translate(14.174 25.157)" fill="#1a1a1a"/>
        <path id="Trazado_598929" data-name="Trazado 598929" d="M25.571,86.208s-5.729,3.629-6.685,4.675A128.188,128.188,0,0,0,9.474,104.9c-3.839,6.567-7.668,17.809-8.351,22.448s-1.858,12.958,1.533,19.045,6.849,6.917,6.849,6.917v15.24l52.748.069s-1.166-10.558-.645-13.227l7.686,11.91a27.451,27.451,0,0,0,8.894-2.965,61.285,61.285,0,0,0,6.1-3.954l-12.411-47.1S67,97.351,64.072,93.416,57.9,85.608,46.716,83.344Z" transform="translate(0.062 14.439)" fill="#1a1a1a"/>
        <path id="Trazado_598930" data-name="Trazado 598930" d="M167.149,162.732H108.061a4.3,4.3,0,0,1-4.3-4.3V121.64a4.3,4.3,0,0,1,4.3-4.3h59.088a4.3,4.3,0,0,1,4.3,4.3v36.788a4.3,4.3,0,0,1-4.3,4.3" transform="translate(17.975 20.328)" fill="#1a1a1a"/>
        <path id="Trazado_598931" data-name="Trazado 598931" d="M135.422,103.455l3.93,19.087-24.467.117s-3.808.526-4.282,3.754v4.1a43.7,43.7,0,0,1-18.046-2.33c-9.11-3.363-14.526-7.77-18.52-13.5a54.126,54.126,0,0,1-6.575-13.5c-.554-1.648-3.216-10.523-3.216-10.523s2.771,2.229,10.8.623,9.23-4,9.23-4,.9,9.556,5.779,14.806,10.438,8.239,21.185,6.8c0,0,9.591-2.488,13.821-3.37s10.36-2.077,10.36-2.077" transform="translate(11.13 15.122)" fill="#33ece0"/>
        <path id="Trazado_598932" data-name="Trazado 598932" d="M47.4,64.663s.02,9.192.056,10.867-.657,6.788-5.07,6.772l-.549,5.277-1.245,7.265-7.124-5.529a5.831,5.831,0,0,0,4.238-5.587c.232-4.672-4.421-8.2-4.421-8.2s-4.2.829-4.756-3.258a3.3,3.3,0,0,1,2.406-3.115c2.35-.519,2.533.09,2.533.09a14.5,14.5,0,0,0,4.844-3.861c1.627-2.317,3.141-4.824,3.421-6.489a39.325,39.325,0,0,1,3.541,3.083c.959,1.068,2.125,2.683,2.125,2.683" transform="translate(4.942 10.203)" fill="#fff"/>
        <path id="Trazado_598933" data-name="Trazado 598933" d="M125.814,76.66s-.224,9.06-.168,11.1-.664,6.993,4.673,8.078l-.012,5.24,6.35,9.4,6.441-9.4-.631-12.53s5.426,1.81,5.531-4.152c0,0,.311-2.748-3.93-3.408a3.925,3.925,0,0,0-2.881,1.35s-1.88-.727-3.514-4.024-1.4-4.865-1.4-4.865-2.2,2.728-5.025,3.116a24.989,24.989,0,0,1-5.437.1" transform="translate(21.766 12.724)" fill="#fff"/>
        <path id="Trazado_598934" data-name="Trazado 598934" d="M126.084,82.372l.131-4.264a11.937,11.937,0,0,0,5.16,0,28.11,28.11,0,0,0,5.321-2.973s.856,6.622,4.891,8.647a2.649,2.649,0,0,1,2.676-1.3,12.359,12.359,0,0,1,3.047.937,11.289,11.289,0,0,0,1.711-5.592c.184-3.468-.893-5.676-2.51-6.2a43.765,43.765,0,0,0-6.736-.757s-3.075-5.152-6.314-5.649a8.691,8.691,0,0,0-7.377,1.868,6.617,6.617,0,0,0-1.139,8.03,2.559,2.559,0,0,0-1.617,2.564c-.116,2.163,2.231,4.679,2.756,4.687" transform="translate(21.365 11.275)" fill="#ffce26"/>
        <path id="Trazado_598935" data-name="Trazado 598935" d="M67.409,87.5l.734,4.308s-3.91-.1-3.963-1.474S67.409,87.5,67.409,87.5" transform="translate(11.119 15.159)" fill="#ffce26"/>
        <path id="Trazado_598936" data-name="Trazado 598936" d="M78.907,85.8V89.67s3.167-1.892,2.8-2.757-2.8-1.113-2.8-1.113" transform="translate(13.67 14.864)" fill="#ffce26"/>
        <path id="Trazado_598937" data-name="Trazado 598937" d="M135.828,85.886a3.982,3.982,0,0,0-1.644,1.715,3.713,3.713,0,0,0,.114,2.413,1.6,1.6,0,0,1-1.853.425c-1.335-.37-2.12-.624-2.014-1.45s.135-.987,1.063-1.038,1.793.174,2-.67.244-1.994,1.13-2.057a1.212,1.212,0,0,1,1.2.662" transform="translate(22.595 14.764)" fill="#1a1a1a"/>
        <path id="Trazado_598938" data-name="Trazado 598938" d="M182.955,70.3c.016.052.5,2.047.5,2.047s-2.737.235-2.857-.259,2.361-1.788,2.361-1.788" transform="translate(31.286 12.179)" fill="#1a1a1a"/>
        <path id="Trazado_598939" data-name="Trazado 598939" d="M191.852,67.333l.584,1.782s2.436-1.118,1.921-1.645-2.5-.137-2.5-.137" transform="translate(33.237 11.641)" fill="#1a1a1a"/>
        <path id="Trazado_598940" data-name="Trazado 598940" d="M93.427,146.052c-3.133,0-5.67.479-5.67,1.069l5.67.458,5.67-.458c0-.59-2.539-1.069-5.67-1.069" transform="translate(15.203 25.302)" fill="#fff"/>
        <path id="Trazado_598941" data-name="Trazado 598941" d="M79.733,73.825s-.554-5.95-1.583-7.916S76.7,62.84,75.671,63.284s-2.451,1.3-2.354,3.036S74.431,73.3,74.431,73.3s-1.565-1.845-3.246-1.34-2.046,3.187-2.046,3.187-1.736-2.365-3.631-2.029-1.895,3.827-1.461,5.864.384,3.334,1.285,3.824l1.738,6.9,1.137,6.321a38.25,38.25,0,0,0,6.534-.506c2.6-.543,6.781-1.929,6.781-1.929l-.305-6.81s1.8-6.591,1.72-8.258.894-2.636-3.2-4.694" transform="translate(11.055 10.947)" fill="#fff"/>
        <path id="Trazado_598942" data-name="Trazado 598942" d="M73.113,149.753A12.9,12.9,0,0,0,77.46,152.5a71.42,71.42,0,0,0,8.154,1.732l1.736,2.443-25.307.371-1.051-1.552a36.333,36.333,0,0,0,7.633-3.165,51.388,51.388,0,0,1,4.488-2.576" transform="translate(10.566 25.944)" fill="#fff"/>
        <path id="Trazado_598943" data-name="Trazado 598943" d="M195.866,70.749a30.364,30.364,0,0,1-1.2-4.86c.027-1.018,1.251-2.365,2.2-3.2s3.164-2.756,1.807-4.179-4.083.454-5.932,1.942-2.824,3.026-3.245,2.749-7.036-4.359-7.946-4.752-3.854-1.478-4.713.325c0,0-2,.2-2.111,1.2,0,0-1.912-.049-2.555,1.127s1.383,4.123,4.807,5.761,4.634,1.83,5.224,2.229a8.24,8.24,0,0,1,2.727,5.255,23.375,23.375,0,0,0,5.47-1.219,55.778,55.778,0,0,0,5.466-2.378" transform="translate(29.807 10.007)" fill="#fff"/>
        <path id="Trazado_598944" data-name="Trazado 598944" d="M189.211,113.852c-.246-.336-.61-.953-1.069-1.633L198.1,101.5l-10.452-9.851-15.482,16.428,2.392,2.436c-.314.318-1.266,1.516-.256,3.636a3.169,3.169,0,0,0-.536,3.987c1.235,2.594,4.821,7.117,6.836,8.046,0,0,1.68,1.8,3.375,1.8s3.636,1.362,3.855,2.037a31.964,31.964,0,0,1,3.174-5.534,49.921,49.921,0,0,1,4.292-4.722s-5.185-4.682-6.087-5.917m-5.108,4.856a4.377,4.377,0,0,1-1.275-.772l2.041-2.2a1.751,1.751,0,0,1,.264.564c.244,1.316-.424,2.522-1.03,2.405" transform="translate(29.826 15.878)" fill="#fff"/>
        <path id="Trazado_598945" data-name="Trazado 598945" d="M136.942,106.628l-6.509-9.635-5.521,4.78,3.93,19.087h5.181l.659-2.73-1.745-3.5Z" transform="translate(21.64 16.803)" fill="#fff"/>
        <path id="Trazado_598946" data-name="Trazado 598946" d="M141.448,96.994l-6.283,9.635,4.057,8.168-1.416,3.324.822,2.741h4.39l4.022-19.638Z" transform="translate(23.416 16.803)" fill="#fff"/>
        <path id="Trazado_598947" data-name="Trazado 598947" d="M131.752,113.212l1.746,3.5-.659,2.73h6.381L138.4,116.7l1.416-3.325-4.057-8.167Z" transform="translate(22.825 18.226)" fill="#ffce26"/>
        <path id="Trazado_598948" data-name="Trazado 598948" d="M139.984,138.951a4.777,4.777,0,1,1-4.777-4.776,4.777,4.777,0,0,1,4.777,4.776" transform="translate(22.596 23.245)" fill="#fff"/>
        <path id="Trazado_598949" data-name="Trazado 598949" d="M196.294,67.43S204.96,89.1,221.9,92.354l-.8,3.982s7.481-5.581,14.459-6.323c0,0,4.309,1.634,8.362,3.246s6.688,7.31,8.129,12.12c0,0,.4,15.961.61,21.008s1.777,44.99,1.777,44.99l-42.749-.33.364-18.264a108.834,108.834,0,0,1-13.775-6.7c-6.266-3.747-12.42-7.621-12.42-7.621a19.457,19.457,0,0,1,3.852-10.2c3.767-5.127,7.905-5.682,7.905-5.682l14.582,6.1s-.726-10.041.529-15.176c0,0-11.216-5.707-17.477-12.307-6.553-6.91-12.078-18.914-13.009-23.072s-1.569-5.124-1.569-5.124A31.949,31.949,0,0,0,188,71.739c3.372-1.1,7.091-2.392,8.289-4.309" transform="translate(31.3 11.682)" fill="#fff198"/>
        <path id="Trazado_598950" data-name="Trazado 598950" d="M98.413,115.362a3.054,3.054,0,0,0-2.019,3.084c-.052,2.559,1.469,3.2,2.019,3.083a2.861,2.861,0,0,0,2.019-3.083c-.136-2.135-1.122-2.923-2.019-3.084" transform="translate(16.699 19.986)" fill="#fff"/>
        <path id="Trazado_598951" data-name="Trazado 598951" d="M95.292,121.684s-3.8.312-4.865,3.134.82,4.738.51,6.654-.278,1.728-1.513,3.149-2.168,7.347,1.011,8.214,4.871,1.3,7.211,0,3.289-3.764,3.309-6.42-.864-3.293-.717-5.129,1.452-2.919.292-5.721-2.643-3.908-5.237-3.88" transform="translate(15.293 21.081)" fill="#fff"/>
        <path id="Trazado_598952" data-name="Trazado 598952" d="M41.695,105.067l3.469-11.348H68.833s-4.036,12.629-4.408,20.1-1.292,18.425-1.292,18.425H41.9l.65-1.075-1.364-2.671-1.066-18.385Z" transform="translate(6.95 16.236)" fill="#fff"/>
        <path id="Trazado_598953" data-name="Trazado 598953" d="M145.881,100.6l-4.022,19.638H160.19a4.416,4.416,0,0,1,4.662,4.837c0,5.106-.092,36.817-.092,36.817s-1.021,3.272-3.285,3.672l10.5-.121s3.521-.116,5.371-2.312a17.362,17.362,0,0,0,4.19-11.5c-.177-5.176-1.124-15.517-4.634-24.138s-6.157-14.91-8.978-17.765a28.671,28.671,0,0,0-10.267-6.485c-3.15-1.016-11.772-2.646-11.772-2.646" transform="translate(24.576 17.428)" fill="#33ece0"/>
        <path id="Trazado_598954" data-name="Trazado 598954" d="M215.337,32.962a.817.817,0,0,0-.669-.917c-1.437-.5-2.87-1.01-4.275-1.587a1.691,1.691,0,0,1-.8-.84c-.59-1.366-1.125-2.756-1.639-4.153a1.343,1.343,0,0,1,0-.926c.695-1.544,1.456-3.057,2.147-4.6a.968.968,0,0,0-.115-.858c-1.159-1.237-2.378-2.418-3.551-3.642a.7.7,0,0,0-.963-.155c-1.465.726-2.94,1.434-4.434,2.1a1.472,1.472,0,0,1-1.009.047q-2.14-.771-4.239-1.659a1.562,1.562,0,0,1-.8-.738c-.58-1.436-1.1-2.9-1.6-4.361-.161-.47-.351-.7-.9-.684-1.638.04-3.277.038-4.916,0a.816.816,0,0,0-.914.675c-.494,1.436-1.05,2.851-1.538,4.289a1.269,1.269,0,0,1-.919.879c-1.352.469-2.689,1-3.989,1.6a1.283,1.283,0,0,1-1.267-.012c-1.436-.723-2.9-1.389-4.335-2.107a.752.752,0,0,0-1.039.18c-1.132,1.184-2.287,2.348-3.476,3.474a.8.8,0,0,0-.151,1.115c.712,1.441,1.411,2.889,2.056,4.36a1.494,1.494,0,0,1-.027,1.066q-.9,2.092-1.917,4.13a1.757,1.757,0,0,1-.828.821c-1.526.581-3.08,1.1-4.633,1.606a.8.8,0,0,0-.682.9c.036,1.637.03,3.277,0,4.916a.744.744,0,0,0,.61.855c1.584.51,3.164,1.038,4.719,1.628a1.737,1.737,0,0,1,.808.846c.629,1.318,1.145,2.689,1.8,3.993a1.415,1.415,0,0,1,.03,1.433c-.679,1.36-1.3,2.751-1.973,4.113a.8.8,0,0,0,.175,1.111q1.779,1.7,3.475,3.476a.792.792,0,0,0,1.108.16c1.414-.7,2.853-1.35,4.267-2.052a1.255,1.255,0,0,1,1.266.033c1.36.671,2.777,1.225,4.149,1.874a1.478,1.478,0,0,1,.7.73c.582,1.558,1.122,3.134,1.641,4.714a.764.764,0,0,0,.863.619c1.638-.028,3.277-.033,4.916,0a.788.788,0,0,0,.9-.671c.5-1.556,1.034-3.1,1.614-4.631a1.606,1.606,0,0,1,.775-.778q2.1-.982,4.255-1.847a1.419,1.419,0,0,1,1-.02c1.673.744,3.32,1.544,5.041,2.355,1.347-1.364,2.693-2.7,3.99-4.081a.98.98,0,0,0,.079-.871c-.668-1.492-1.4-2.954-2.079-4.444a1.4,1.4,0,0,1-.066-.944c.507-1.46,1.045-2.911,1.632-4.339a1.551,1.551,0,0,1,.765-.781c1.436-.581,2.894-1.106,4.359-1.614a.766.766,0,0,0,.6-.872c-.028-1.638-.033-3.278,0-4.916m-25.322,12.03a9.579,9.579,0,1,1,9.59-9.568,9.546,9.546,0,0,1-9.59,9.568" transform="translate(28.396 1.73)" fill="#1a1a1a"/>
        <path id="Trazado_598955" data-name="Trazado 598955" d="M62.17,46.183l1.611-.446c.292-.08.584-.158.875-.24a25.385,25.385,0,0,0,3.682,3.573,1.482,1.482,0,0,0,1.35.28,4.615,4.615,0,0,0,1.38-.631,17.567,17.567,0,0,0,2.872-2.38,53.2,53.2,0,0,0,4.51-5.117,19.931,19.931,0,0,1,2.9.635,48.962,48.962,0,0,1-5.621,8.426,20.549,20.549,0,0,1-3.607,3.553,11.215,11.215,0,0,1-1.4.855,3.48,3.48,0,0,1-3.2.046,6.774,6.774,0,0,1-2.58-2.149,14.623,14.623,0,0,1-2.182-4.36c-.219-.666-.393-1.346-.595-2.044" transform="translate(10.77 7.141)" fill="#fff"/>
        <path id="Trazado_598956" data-name="Trazado 598956" d="M18.251,93.643s-2.046-1.856-.768-5.438,3.3-3.446,3.3-3.446-1.7-3.14.216-4.829,4.853-1.471,5.68-.729c0,0-.7-5.56-1.469-10.261a33.668,33.668,0,0,0-1.037-5.235s.961-6.574,7.2-7.513,8.169-1.106,11.569-.689,4.485,1.313,5.384,2.554,1.662,5.73,1.054,7.233c0,0-2.24-4.144-5.664-5.766,0,0-.771,5.468-8.089,10.26a3.74,3.74,0,0,0-4.652,1.394c-1.761,2.7.6,5.528,3.889,4.978,0,0,5.373,2.964,4.823,7.528s-2.856,5.6-4.421,6.438a4.81,4.81,0,0,1-4.521,4.533c-4.369.415-7.655-1.68-8.368-3.2Z" transform="translate(2.956 9.578)" fill="#fff198"/>
        <path id="Trazado_598957" data-name="Trazado 598957" d="M40.166,78.93l-.326,5.485,3.591.4a3.349,3.349,0,0,0,.954-3.255,6.669,6.669,0,0,0-1.4-3.194Z" transform="translate(6.902 13.576)" fill="#fff198"/>
        <path id="Trazado_598958" data-name="Trazado 598958" d="M223.51,70.611a9.716,9.716,0,0,1-2.481-8.417s-6.06.991-8.269,3.634c0,0-1.362-2.185.316-5.546s4.086-3.91,7.113-4.44,8.092.676,8.092.676,5.775.821,7.551,5.09.023,10.806-.26,13.132-.744,6.692,2.813,9.5,7.618,5.657,9.177,8.932,4.747,9.025-.535,19.463l-.443-5.221s-2.329-8.715-6.136-10.776c0,0-1.271-1.173-5.514-2.532s-7.789-3.305-8.826-6.656-.607-6.726-.236-7.427a29.154,29.154,0,0,0,1.078-3.4s2.823-.948,2.519-3.591a3.752,3.752,0,0,0-3.361-3.487,8.255,8.255,0,0,0-2.6,1.069" transform="translate(36.769 9.651)" fill="#fff"/>
        <path id="Trazado_598959" data-name="Trazado 598959" d="M35.675,117.053s1.167-.833,1.4-3.363.556-8.438,5.385-10.3l-1.02,5.128s-.344,3.271,1.224,3.637,7.293-3.605,8.7-4.652,3.433-3.287,5.239-2.02.236,3.332.236,3.332,1.6-.584,2.463.4-.947,3.372-.947,3.372a3.081,3.081,0,0,1-.346,3.792c-1.694,1.79-15.873,10.432-15.873,10.432Z" transform="translate(6.18 17.912)" fill="#fff"/>
        <path id="Trazado_598960" data-name="Trazado 598960" d="M215.214,93.332s.1-6.324,3.909-8.359,6.16-3,6.16-3,1.309,3.957,4.293,5.521a24.354,24.354,0,0,0-7.844,2.181c-3.542,1.813-6.517,3.656-6.517,3.656" transform="translate(37.284 14.201)" fill="#fff"/>
        <path id="Trazado_598961" data-name="Trazado 598961" d="M239.829,131.2s-2.038,13.526-16.335,16.43c-12.171,2.471-16.335-.107-16.335-.107l.305-5.782s9.767,3.826,16,2.2,12.658-4.424,16.364-12.743" transform="translate(35.889 22.729)" fill="#1a1a1a"/>
        <path id="Trazado_598962" data-name="Trazado 598962" d="M121.827,46.921h-6.352a1.556,1.556,0,0,1-1.55-1.551V39.02a1.556,1.556,0,0,1,1.55-1.551h6.352a1.555,1.555,0,0,1,1.55,1.551v6.35a1.555,1.555,0,0,1-1.55,1.551" transform="translate(19.737 6.491)" fill="#33ece0"/>
        <path id="Trazado_598963" data-name="Trazado 598963" d="M118.735,63.19h-6.351a1.556,1.556,0,0,1-1.551-1.551V55.288a1.555,1.555,0,0,1,1.551-1.55h6.351a1.554,1.554,0,0,1,1.55,1.55v6.351a1.555,1.555,0,0,1-1.55,1.551" transform="translate(19.201 9.31)" fill="#33ece0"/>
        <path id="Trazado_598964" data-name="Trazado 598964" d="M46.893,127.037S31.329,156.684,8.113,151.31l.049-5.568s5.5,3.16,14.52-1.164,14.576-8.323,18.714-12.252,5.5-5.289,5.5-5.289" transform="translate(1.406 22.008)" fill="#1a1a1a"/>
        <path id="Trazado_598965" data-name="Trazado 598965" d="M28.729,89.509s3.642-.77,4.095-2.22a7.812,7.812,0,0,0,.426-2.312l7.315,5.847s.082,6.42-3.829,6.379-6.6-2.687-8.006-7.694" transform="translate(4.977 14.722)" fill="#fff"/>
        <path id="Trazado_598966" data-name="Trazado 598966" d="M40.228,82.01V84l-1.482,7.109s1.7,2.681,3.767,3.175a3.386,3.386,0,0,0,4.045-1.576,4.155,4.155,0,0,0-.339-3.967c-.989-1.777-5.992-6.736-5.992-6.736" transform="translate(6.712 14.208)" fill="#fff"/>
        <path id="Trazado_598967" data-name="Trazado 598967" d="M38.616,92.29a5.572,5.572,0,0,0,5.3,1.126s-3.86-.535-5.061-3.456Z" transform="translate(6.69 15.585)" fill="#3a3a3a"/>
        <path id="Trazado_598968" data-name="Trazado 598968" d="M223.316,132.947c-5.388,1.643-8.77,6.458-8,11.091,0,0,6.686.086,11.136-1.521,3.994-1.441,8.659-6.515,8.659-6.515-2.471-3.113-7.172-4.465-11.795-3.055" transform="translate(37.283 22.935)" fill="#fff"/>
        <path id="Trazado_598969" data-name="Trazado 598969" d="M68.167,153.572s-3.31,2.282-6.662,1.1c-.131-.046-.448.339-.448.339l.975,1.373,8.673-.055s-2.81-1.664-2.538-2.758" transform="translate(10.578 26.605)" fill="#b5b5b5"/>
        <path id="Trazado_598970" data-name="Trazado 598970" d="M128.1,75.02c-3.536-2.158-1.1-8.511-.948-8.886a8.026,8.026,0,0,0-1.064.776,6.617,6.617,0,0,0-1.139,8.03,2.558,2.558,0,0,0-1.617,2.562c-.116,2.165,2.233,4.68,2.756,4.688l.131-4.264a11.937,11.937,0,0,0,5.16,0,21.613,21.613,0,0,0,4.116-2.169c.258-.3-3.751,1.487-7.395-.737" transform="translate(21.365 11.457)" fill="#fff"/>
        <path id="Trazado_598971" data-name="Trazado 598971" d="M141.395,81.051c-4.03-1.154-6.646-7.711-6.646-7.711-.032.365.824,6.987,4.858,9.012a2.82,2.82,0,0,1,1.789-1.3h0" transform="translate(23.344 12.706)" fill="#fff"/>
        <path id="Trazado_598972" data-name="Trazado 598972" d="M40.545,55.5a23.758,23.758,0,0,0-5.319-.121c2.494.682,4.6,1.914,4.273,4.14-.744,5.168-8.567,9.977-8.567,9.977a4.674,4.674,0,0,1,2.3.283c7.319-4.792,8.088-10.26,8.088-10.26,3.425,1.624,5.666,5.766,5.666,5.766.608-1.5-.155-5.991-1.054-7.232s-1.984-2.135-5.384-2.554" transform="translate(5.359 9.578)" fill="#fff"/>
        <path id="Trazado_598973" data-name="Trazado 598973" d="M34.225,73.157l-1.7.043s3.4,1.373,3.661,6.316c.34,6.548-5.906,6.724-5.906,6.724s-.919,5.043-8.547,2.263c.718,1.474,3.943,3.461,8.208,3.055a4.811,4.811,0,0,0,4.522-4.533c1.564-.842,3.869-1.875,4.42-6.438.5-4.1-3.781-6.9-4.658-7.43" transform="translate(3.765 12.674)" fill="#fff"/>
        <path id="Trazado_598974" data-name="Trazado 598974" d="M43.374,84.811a3.349,3.349,0,0,0,.954-3.255,6.669,6.669,0,0,0-1.4-3.194l-1.035.208c.205.054,1.942,4.244-.56,4.985a1.71,1.71,0,0,0-1.16.9Z" transform="translate(6.959 13.576)" fill="#fff"/>
        <path id="Trazado_598975" data-name="Trazado 598975" d="M136.9,107.505l-2.8,4.558,1.752,4.634-.067,2.741h-2.945l.659-2.73-1.746-3.809,4-7.693Z" transform="translate(22.825 18.226)" fill="#fff"/>
        <path id="Trazado_598976" data-name="Trazado 598976" d="M111.162,94.213c-.368-.373-.289-.562-.121-.629l8.818-3.52a.335.335,0,0,1,.425.184.329.329,0,0,1-.183.425l-8.818,3.517a.307.307,0,0,1-.121.022" transform="translate(19.213 15.599)" fill="#1a1a1a"/>
        <path id="Trazado_598977" data-name="Trazado 598977" d="M120.147,87.5l-14.888-.386a.324.324,0,0,1-.317-.334.362.362,0,0,1,.333-.317l14.881.386a.326.326,0,0,1-.009.651" transform="translate(18.18 14.979)" fill="#1a1a1a"/>
        <path id="Trazado_598978" data-name="Trazado 598978" d="M119.588,84.84c-.135-.031-7.853-3.59-7.853-3.59a.325.325,0,0,1-.16-.431.322.322,0,0,1,.433-.16l7.715,3.56a.325.325,0,0,1-.136.621" transform="translate(19.325 13.968)" fill="#1a1a1a"/>
        <path id="Trazado_598979" data-name="Trazado 598979" d="M18.468,89.785c-2.063-1.146-1.822-4.307-1.2-6.162a4.761,4.761,0,0,1,3.482-3.485.318.318,0,0,1,.392.241.326.326,0,0,1-.242.393,4.163,4.163,0,0,0-3.015,3.057c-.535,1.59-.807,4.448.745,5.348a.326.326,0,0,1-.164.608" transform="translate(2.915 13.881)" fill="#1a1a1a"/>
        <path id="Trazado_598980" data-name="Trazado 598980" d="M25.864,79.7c-1.657-10.19-2.993-15.5-3.008-15.55a7.938,7.938,0,0,1,3.688-6.516c5.33-3.589,15.362-2.87,18.3-1.783.133.012,4.862.785,3.862,9.529a.329.329,0,0,1-.36.287.325.325,0,0,1-.286-.361c.923-8.077-3.2-8.8-3.379-8.825-2.344-.862-12.313-1.98-17.775,1.7a7.31,7.31,0,0,0-3.4,5.864,154.666,154.666,0,0,1,2.688,15.292.325.325,0,0,1-.28.366.268.268,0,0,1-.043,0" transform="translate(3.96 9.523)" fill="#1a1a1a"/>
        <path id="Trazado_598981" data-name="Trazado 598981" d="M28.456,89.974c-3.013,0-4.911-.933-7.055-3.4a.325.325,0,1,1,.492-.426,7.907,7.907,0,0,0,7.151,3.162c3.331-.128,5.021-1.536,5.166-4.3a.36.36,0,0,1,.343-.307.325.325,0,0,1,.307.343c-.163,3.122-2.111,4.776-5.79,4.917-.211.009-.416.013-.614.013" transform="translate(3.694 14.674)" fill="#1a1a1a"/>
        <path id="Trazado_598982" data-name="Trazado 598982" d="M102.877,109.745a22.009,22.009,0,0,1-3.86-.33C88.99,107.627,82.256,99.268,81.009,87.057a.319.319,0,0,1,.29-.354.315.315,0,0,1,.358.29c1.219,11.9,7.752,20.046,17.477,21.781,5.49.981,11.055-.483,16.443-1.894,1.735-.458,3.531-.927,5.275-1.3,3.16-.677,7.336-1.555,11.608-2.343a.341.341,0,0,1,.378.264.325.325,0,0,1-.263.379c-4.261.786-8.431,1.661-11.586,2.337-1.73.371-3.516.839-5.247,1.292-4.208,1.1-8.528,2.236-12.865,2.236" transform="translate(14.034 15.02)" fill="#1a1a1a"/>
        <path id="Trazado_598983" data-name="Trazado 598983" d="M190.188,64.29c-1.515-.034-3.116-.034-4.95,0a1.075,1.075,0,0,1-1.18-.845c-.6-1.837-1.125-3.333-1.638-4.7a1.136,1.136,0,0,0-.53-.55c-.605-.286-1.219-.554-1.831-.821-.766-.333-1.558-.678-2.323-1.056a.936.936,0,0,0-.977-.032c-.72.358-1.447.7-2.175,1.045-.7.331-1.4.661-2.092,1.005A1.111,1.111,0,0,1,171,58.11c-1.069-1.127-2.2-2.26-3.463-3.466a1.116,1.116,0,0,1-.241-1.489c.321-.652.634-1.314.943-1.973.339-.716.677-1.433,1.03-2.141a1.1,1.1,0,0,0-.032-1.14c-.37-.732-.7-1.5-1.015-2.233-.257-.592-.51-1.185-.79-1.767a1.382,1.382,0,0,0-.629-.678c-1.631-.623-3.294-1.173-4.7-1.627a1.064,1.064,0,0,1-.837-1.173c.031-1.831.031-3.434,0-4.9a1.126,1.126,0,0,1,.9-1.221c1.471-.48,3.05-1.005,4.62-1.6a1.459,1.459,0,0,0,.651-.663c.678-1.356,1.32-2.74,1.91-4.115a1.162,1.162,0,0,0,.027-.8c-.706-1.612-1.467-3.17-2.05-4.348a1.121,1.121,0,0,1,.219-1.5c1.089-1.032,2.223-2.163,3.467-3.463a1.065,1.065,0,0,1,1.42-.245c.691.345,1.386.676,2.083,1.011.754.359,1.508.719,2.254,1.1a.966.966,0,0,0,.984.007c1.272-.584,2.624-1.125,4.018-1.609a.95.95,0,0,0,.716-.675c.25-.736.517-1.467.786-2.2.257-.7.512-1.394.753-2.1a1.135,1.135,0,0,1,1.181-.9c1.809.039,3.411.036,4.948,0a1.138,1.138,0,0,1,1.216.9c.6,1.765,1.095,3.1,1.594,4.343a1.272,1.272,0,0,0,.625.563c1.347.571,2.767,1.127,4.221,1.652a1.232,1.232,0,0,0,.77-.038c1.347-.607,2.792-1.292,4.42-2.1a1.006,1.006,0,0,1,1.341.225c.506.522,1.018,1.039,1.529,1.558.68.689,1.365,1.376,2.025,2.085a1.276,1.276,0,0,1,.175,1.213c-.358.8-.737,1.6-1.115,2.393-.348.736-.7,1.468-1.031,2.209a1.034,1.034,0,0,0,.008.68c.618,1.679,1.123,2.955,1.633,4.137a1.372,1.372,0,0,0,.63.669c1.52.625,3.075,1.172,4.255,1.58a1.14,1.14,0,0,1,.891,1.232c-.033,1.538-.033,3.143,0,4.9a1.088,1.088,0,0,1-.824,1.187c-1.714.592-3.093,1.1-4.342,1.607a1.221,1.221,0,0,0-.587.6c-.547,1.333-1.077,2.747-1.624,4.322a1.071,1.071,0,0,0,.054.7c.317.7.648,1.394.977,2.088.375.781.747,1.566,1.1,2.358a1.287,1.287,0,0,1-.138,1.227c-.984,1.045-2.012,2.084-3.008,3.088l-.987,1a5.342,5.342,0,0,1-1.627-.528c-1.275-.605-2.521-1.2-3.779-1.759a1.085,1.085,0,0,0-.747.025c-1.525.618-2.913,1.219-4.24,1.84a1.3,1.3,0,0,0-.609.6c-.549,1.443-1.075,2.952-1.608,4.613a1.092,1.092,0,0,1-1.169.9m-2.416-.676c.839,0,1.63.009,2.382.026.319,0,.459-.069.582-.446.536-1.672,1.068-3.192,1.623-4.648a1.921,1.921,0,0,1,.939-.956c1.339-.628,2.735-1.232,4.272-1.853a1.741,1.741,0,0,1,1.258-.015c1.262.562,2.515,1.154,3.793,1.762l1.046.5.826-.833c.99-1,2.019-2.037,3-3.077a.746.746,0,0,0,.018-.513c-.351-.788-.721-1.566-1.095-2.345-.332-.7-.666-1.395-.984-2.1a1.711,1.711,0,0,1-.076-1.185c.551-1.586,1.086-3.011,1.638-4.353a1.876,1.876,0,0,1,.944-.962c1.26-.507,2.65-1.022,4.376-1.619.317-.11.387-.214.384-.561-.033-1.766-.033-3.379,0-4.925.006-.361-.077-.474-.453-.6-1.19-.409-2.751-.964-4.291-1.593a2.012,2.012,0,0,1-.98-1.013c-.515-1.194-1.024-2.48-1.646-4.172a1.679,1.679,0,0,1,.008-1.172c.336-.745.688-1.483,1.038-2.221.374-.792.75-1.583,1.108-2.382a.682.682,0,0,0-.054-.5c-.659-.706-1.336-1.389-2.014-2.073-.515-.521-1.028-1.039-1.535-1.567-.207-.217-.3-.23-.583-.09-1.633.81-3.087,1.5-4.444,2.107a1.818,1.818,0,0,1-1.253.059c-1.468-.533-2.9-1.092-4.257-1.667a1.9,1.9,0,0,1-.976-.92c-.5-1.248-1-2.6-1.6-4.375-.136-.393-.26-.474-.582-.463-1.548.039-3.161.041-4.93,0-.381,0-.469.076-.6.455-.242.707-.5,1.409-.757,2.109-.267.724-.531,1.449-.783,2.181a1.574,1.574,0,0,1-1.118,1.081c-1.375.478-2.707,1.009-3.961,1.585a1.6,1.6,0,0,1-1.549-.018c-.744-.374-1.494-.732-2.243-1.09-.7-.334-1.4-.67-2.092-1.017-.306-.155-.418-.134-.658.116-1.249,1.3-2.391,2.444-3.488,3.483-.252.241-.266.364-.081.734.584,1.181,1.35,2.751,2.061,4.373a1.807,1.807,0,0,1-.026,1.323c-.595,1.388-1.244,2.782-1.926,4.151a2.071,2.071,0,0,1-1,.977c-1.584.6-3.172,1.13-4.651,1.612-.378.123-.465.232-.456.587.035,1.476.035,3.087,0,4.93-.007.343.059.435.384.539,1.42.456,3.092,1.011,4.735,1.637a2.046,2.046,0,0,1,.989,1.009c.28.589.54,1.187.8,1.789.314.729.638,1.483,1,2.2a1.722,1.722,0,0,1,.032,1.722c-.352.706-.688,1.417-1.021,2.131-.313.664-.628,1.328-.951,1.984-.173.346-.151.483.107.731,1.268,1.211,2.411,2.351,3.488,3.487.241.258.363.273.726.09.7-.345,1.4-.677,2.1-1.01.723-.341,1.447-.684,2.163-1.04a1.588,1.588,0,0,1,1.557.031c.75.372,1.533.713,2.291,1.044.622.27,1.24.54,1.853.828a1.782,1.782,0,0,1,.864.912c.515,1.375,1.038,2.877,1.646,4.725.108.329.226.391.547.4.9-.015,1.748-.025,2.547-.025m-.081-15.746a9.925,9.925,0,0,1-7.008-16.913,9.912,9.912,0,1,1,7.011,16.913Zm.081-19.157a9.3,9.3,0,0,0-6.628,2.7,9.256,9.256,0,0,0,6.547,15.8,9.252,9.252,0,0,0,.1-18.5Z" transform="translate(27.938 2.115)" fill="#1a1a1a"/>
        <path id="Trazado_598984" data-name="Trazado 598984" d="M169.515,165.939c-.46,0-.929-.019-1.414-.056a.325.325,0,0,1-.3-.348c5.865.113,9.592-1.961,11.47-6.486,5.545-13.369-6.855-44.607-12.87-49.78-7.115-6.118-13.749-7.15-19.6-8.061-.51-.08-1.015-.158-1.512-.239a.324.324,0,0,1-.27-.373.313.313,0,0,1,.373-.269l1.509.236c5.94.926,12.671,1.972,19.93,8.21,6.272,5.4,18.815,36.616,13.044,50.526-1.828,4.41-5.309,6.641-10.355,6.641" transform="translate(25.122 17.379)" fill="#1a1a1a"/>
        <path id="Trazado_598985" data-name="Trazado 598985" d="M144.842,121.223a.339.339,0,0,1-.32-.39l3.983-19.438L143.353,97.5l-6.09,9.343c-.543.006-6.848-9.327-6.848-9.327l-5.1,4.415,3.892,18.9a.326.326,0,0,1-.638.134l-3.929-19.087c.106-.312,5.628-5.094,5.628-5.094.482.063,6.719,9.292,6.719,9.292L143,96.85c.469-.082,6.063,4.149,6.063,4.149.122.326-3.9,19.964-3.9,19.964a.322.322,0,0,1-.318.26" transform="translate(21.593 16.767)" fill="#1a1a1a"/>
        <path id="Trazado_598986" data-name="Trazado 598986" d="M143.335,119.785c-.291-.181-7.07-13.827-7.07-13.827l-6.828,13.648a.326.326,0,1,1-.582-.293l7.119-14.233c.582,0,7.652,14.234,7.652,14.234a.323.323,0,0,1-.147.436.311.311,0,0,1-.144.034" transform="translate(22.317 18.204)" fill="#1a1a1a"/>
        <path id="Trazado_598987" data-name="Trazado 598987" d="M133.523,115.947a34.94,34.94,0,0,1-1.89-4.011.326.326,0,0,1,.6-.249l1.5,3.607,4.465-.008,1.311-3.171a.326.326,0,1,1,.6.249l-1.395,3.373a47.927,47.927,0,0,1-5.2.211" transform="translate(22.8 19.314)" fill="#1a1a1a"/>
        <path id="Trazado_598988" data-name="Trazado 598988" d="M133.275,96.083c-3.487,0-7-1.333-7.671-4.567a28.417,28.417,0,0,1-.221-3.65l-.028-1.064c-.043-1.374.172-10.2.183-10.577a.326.326,0,0,1,.651.016c0,.09-.224,9.184-.183,10.539l.028,1.071a28.669,28.669,0,0,0,.206,3.531c.7,3.354,4.963,4.4,8.626,3.951a14.219,14.219,0,0,0,3.019-.642.326.326,0,1,1,.216.616,14.936,14.936,0,0,1-3.156.672,13.87,13.87,0,0,1-1.671.1" transform="translate(21.716 13.15)" fill="#1a1a1a"/>
        <path id="Trazado_598989" data-name="Trazado 598989" d="M140.661,99.216c-.325-.307-.957-12.838-.957-12.838a.326.326,0,0,1,.309-.343.332.332,0,0,1,.344.307l.631,12.53a.327.327,0,0,1-.31.343Z" transform="translate(24.203 14.905)" fill="#1a1a1a"/>
        <path id="Trazado_598990" data-name="Trazado 598990" d="M141.97,88.164a4.239,4.239,0,0,1-2.591-.886.326.326,0,0,1,.4-.517,3.609,3.609,0,0,0,4.983-5.155,3.608,3.608,0,0,0-6.163,1.01.326.326,0,1,1-.609-.233,4.258,4.258,0,1,1,3.982,5.782" transform="translate(23.902 13.797)" fill="#1a1a1a"/>
        <path id="Trazado_598991" data-name="Trazado 598991" d="M14.927,154.2a12.106,12.106,0,0,1-6.4-1.664A17.017,17.017,0,0,1,.684,141.464c-3.243-13.66,5.771-33.082,11.608-42.407A67.124,67.124,0,0,1,17.925,91.1c1.986-2.331,4.716-3.866,7.573-5.362a.326.326,0,0,1,.3.577c-2.8,1.464-5.468,2.966-7.381,5.207A66.6,66.6,0,0,0,12.845,99.4c-5.783,9.238-14.718,28.461-11.527,41.911a16.4,16.4,0,0,0,7.551,10.668c9.828,5.965,27.721-5.84,40.257-19.38a30.385,30.385,0,0,0-3.959-7.32,46.968,46.968,0,0,0-5.846-6.738c-1.729,1.112-13.965,9.052-20.791,15.725a.326.326,0,1,1-.456-.466c7.37-7.2,20.967-15.856,21.1-15.943.479.1,2.782,2.021,6.512,7.035a30.676,30.676,0,0,1,4.12,7.684C39.375,144.133,25.289,154.2,14.927,154.2" transform="translate(0 14.847)" fill="#1a1a1a"/>
        <path id="Trazado_598992" data-name="Trazado 598992" d="M60.344,163.374a90.861,90.861,0,0,1-8.273-12.605.326.326,0,1,1,.569-.319A127.114,127.114,0,0,0,60.5,162.712c6.009-.391,13.272-5.785,14.467-6.7-1.008-3.6-11.851-42.429-12.487-47.739a.327.327,0,0,1,.284-.363.319.319,0,0,1,.363.285c.646,5.4,12.409,47.427,12.528,47.851-.451.615-8.515,7-15.3,7.332Z" transform="translate(9.014 18.693)" fill="#1a1a1a"/>
        <path id="Trazado_598993" data-name="Trazado 598993" d="M58.321,95.786c-4.111-6.23-9.306-9.934-16.154-11.477a.329.329,0,0,1-.248-.391.334.334,0,0,1,.39-.248A24.946,24.946,0,0,1,58.6,95.286a.325.325,0,0,1-.1.449.315.315,0,0,1-.175.05" transform="translate(7.261 14.494)" fill="#1a1a1a"/>
        <path id="Trazado_598994" data-name="Trazado 598994" d="M41.039,81.72c-.3,0-.618-.015-.959-.043-1.095-.093-2.7-.289-3.812-.513a.326.326,0,0,1,.129-.638c1.086.218,2.662.409,3.738.5a6.675,6.675,0,0,0,2.628-.194,3.752,3.752,0,0,0,2.423-2.683,22.909,22.909,0,0,0,.707-7.53c-.027-1.689-.069-3.036-.115-4.381l-.066-2.145a.333.333,0,0,1,.235-.4.329.329,0,0,1,.392.231c.023.161.093,2.294.093,2.294.043,1.35.088,2.7.107,4.047.048,2.92.092,5.583-.732,8.089a4.364,4.364,0,0,1-2.849,3.1,6.26,6.26,0,0,1-1.919.268" transform="translate(6.238 11.033)" fill="#1a1a1a"/>
        <path id="Trazado_598995" data-name="Trazado 598995" d="M32.779,69.595c-.373-.333-.31-.53-.15-.614a15.471,15.471,0,0,0,7.975-10.2c.716-.062,5.453,3.431,6.335,5.968a.327.327,0,0,1-.2.415.32.32,0,0,1-.415-.2c-.675-1.943-4.03-4.665-5.194-5.566a16.307,16.307,0,0,1-8.2,10.164.3.3,0,0,1-.151.038" transform="translate(5.631 10.182)" fill="#1a1a1a"/>
        <path id="Trazado_598996" data-name="Trazado 598996" d="M207.175,159.078a.325.325,0,0,1-.326-.321c-.068-5.381.074-12.9.345-18.277.522-.3.661-.147.651.035-.271,5.368-.412,12.863-.344,18.233a.332.332,0,0,1-.326.33" transform="translate(35.832 24.308)" fill="#1a1a1a"/>
        <path id="Trazado_598997" data-name="Trazado 598997" d="M207.614,125.738c-1.532-14,.4-21,8.637-32.861.387-.316,7.91-5.935,14.695-6.549a.313.313,0,0,1,.356.3.329.329,0,0,1-.3.356c-6.348.573-13.638,5.858-14.251,6.313-8.111,11.688-10.007,18.594-8.815,32.093a.328.328,0,0,1-.3.353Z" transform="translate(35.884 14.956)" fill="#1a1a1a"/>
        <path id="Trazado_598998" data-name="Trazado 598998" d="M243.957,166.149c-.34-.719-1.856-41.027-2.366-51-.147-2.818-.141-5.413-.135-7.7a61.287,61.287,0,0,0-.272-7.587.326.326,0,0,1,.646-.082,61.607,61.607,0,0,1,.278,7.672c-.007,2.28-.012,4.865.133,7.665.511,9.974,2.026,50.285,2.041,50.69a.326.326,0,0,1-.313.339Z" transform="translate(41.783 17.237)" fill="#1a1a1a"/>
        <path id="Trazado_598999" data-name="Trazado 598999" d="M223.6,149.589c-7.043,0-13.809-2.853-19.546-5.682A205.6,205.6,0,0,1,185.1,132.8c-.326-.481-.966-4.481,3.854-10.912,4.376-5.836,8.051-5.783,8.169-5.783.123.028,2.822,1.219,2.822,1.219q9.289,4.107,18.572,8.223c2.682,1.19,4.551.917,5.709-.841a10.16,10.16,0,0,0,1.228-4.279l.367-2.763c.66-4.971,1.342-10.11,2.064-15.159a.336.336,0,0,1,.368-.277.325.325,0,0,1,.277.368c-.722,5.046-1.4,10.186-2.064,15.155l-.367,2.762a10.608,10.608,0,0,1-1.332,4.551c-1.343,2.043-3.538,2.4-6.515,1.077q-9.283-4.12-18.571-8.22l-2.632-1.164c-.463.026-3.725.388-7.573,5.522-4.147,5.532-4.106,9.221-4.047,9.957a204.589,204.589,0,0,0,18.912,11.08c5.669,2.8,12.352,5.615,19.26,5.615.348,0,.7-.006,1.051-.021,11.331-.481,18.9-10.041,21.367-19.306a150.713,150.713,0,0,0,3.84-20.653.313.313,0,0,1,.361-.285.326.326,0,0,1,.284.363,151.52,151.52,0,0,1-3.856,20.744c-2.528,9.494-10.306,19.294-21.97,19.787-.359.015-.72.025-1.079.025" transform="translate(32.029 17.71)" fill="#1a1a1a"/>
        <path id="Trazado_599000" data-name="Trazado 599000" d="M98.182,156.4H1.746a.326.326,0,0,1,0-.651H98.182a.326.326,0,0,1,0,.651" transform="translate(0.246 26.983)" fill="#1a1a1a"/>
        <path id="Trazado_599001" data-name="Trazado 599001" d="M267.325,156.4H158.2a.326.326,0,1,1,0-.651H267.325a.326.326,0,0,1,0,.651" transform="translate(27.35 26.983)" fill="#1a1a1a"/>
        <path id="Trazado_599002" data-name="Trazado 599002" d="M109.421,156.4H98.3a.326.326,0,0,1,0-.651h11.121a.326.326,0,0,1,0,.651" transform="translate(16.973 26.983)" fill="#1a1a1a"/>
        <path id="Trazado_599003" data-name="Trazado 599003" d="M167.2,163.105H108.109a4.632,4.632,0,0,1-4.628-4.628V121.687a4.632,4.632,0,0,1,4.628-4.627H167.2a4.631,4.631,0,0,1,4.627,4.627v36.789a4.631,4.631,0,0,1-4.627,4.628m-59.089-45.4a3.982,3.982,0,0,0-3.977,3.977v36.789a3.981,3.981,0,0,0,3.977,3.977H167.2a3.981,3.981,0,0,0,3.977-3.977V121.687a3.982,3.982,0,0,0-3.977-3.977Z" transform="translate(17.927 20.28)" fill="#1a1a1a"/>
        <path id="Trazado_599004" data-name="Trazado 599004" d="M133.431,142.791a5.1,5.1,0,1,1,5.1-5.1,5.107,5.107,0,0,1-5.1,5.1m0-9.551a4.451,4.451,0,1,0,4.451,4.45,4.456,4.456,0,0,0-4.451-4.45" transform="translate(22.232 22.97)" fill="#1a1a1a"/>
        <path id="Trazado_599005" data-name="Trazado 599005" d="M217.184,66.165a2.287,2.287,0,0,0-2.8-.289.326.326,0,0,1-.379-.53,2.715,2.715,0,0,1,3.391.25.326.326,0,0,1-.216.569" transform="translate(37.052 11.238)" fill="#1a1a1a"/>
        <path id="Trazado_599006" data-name="Trazado 599006" d="M247.508,112.984c-.317-.131-.373-.33-.284-.487,8.166-14.355-2.3-23.284-5.7-25.678-7.086-4.991-6.507-8.208-5.546-13.535a47.365,47.365,0,0,0,.833-6.493c.189-3.956-1.111-6.825-3.861-8.528a9.86,9.86,0,0,0-4.208-1.393,13.144,13.144,0,0,0-3.316-.583c-7.533-.553-11.318,1.417-12.317,6.408a4.211,4.211,0,0,0,.4,2.978c.054.194-.188,6.3-.188,6.3-1.755.9-3.16,1.7-3.216,2.018a7.939,7.939,0,0,0,2.189,2.614c.106.3-.1,3.8,2.14,5.629,1.56,1.268,3.937,1.471,7.072.6a.324.324,0,0,1,.4.226.33.33,0,0,1-.227.4c-3.357.933-5.931.691-7.664-.724-2.243-1.833-2.295-4.992-2.274-5.751-.814-.744-2.413-2.318-2.282-3.1.131-.807,2.155-1.721,3.215-2.148l.229-5.8a4.924,4.924,0,0,1-.438-3.373c1.059-5.308,5.2-7.515,13-6.932a13.444,13.444,0,0,1,3.347.587,10.452,10.452,0,0,1,4.472,1.485c2.039,1.264,4.417,3.872,4.17,9.114a47.827,47.827,0,0,1-.842,6.577c-.946,5.247-1.468,8.136,5.28,12.886,3.515,2.476,14.324,11.7,5.886,26.536a.322.322,0,0,1-.282.163" transform="translate(36.288 9.623)" fill="#1a1a1a"/>
        <path id="Trazado_599007" data-name="Trazado 599007" d="M125.886,79.354c-.3-.106-.371-.3-.3-.463A2.517,2.517,0,0,1,128.7,77.85a.323.323,0,0,1,.233.4.316.316,0,0,1-.4.232c-1.8-.469-2.349.675-2.352.688a.324.324,0,0,1-.3.188" transform="translate(21.753 13.464)" fill="#1a1a1a"/>
        <path id="Trazado_599008" data-name="Trazado 599008" d="M135.984,79.566c-1.783-2.073-3.284-1.149-3.346-1.109a.326.326,0,1,1-.353-.548c.019-.018,2.064-1.286,3.956,1.132a.323.323,0,0,1-.056.455.311.311,0,0,1-.2.069" transform="translate(22.892 13.437)" fill="#1a1a1a"/>
        <path id="Trazado_599009" data-name="Trazado 599009" d="M37.386,66.932c.26-.041.435.07.51,1.008.083,1.045-.188,1.23-.422,1.22s-.469-.331-.459-1.078.031-1.1.371-1.15" transform="translate(6.413 11.594)" fill="#1a1a1a"/>
        <path id="Trazado_599010" data-name="Trazado 599010" d="M43.78,66.7c.258-.049.436.056.543.991.118,1.042-.145,1.235-.38,1.234s-.481-.317-.5-1.063-.007-1.1.332-1.163" transform="translate(7.526 11.554)" fill="#1a1a1a"/>
        <path id="Trazado_599011" data-name="Trazado 599011" d="M44.917,65.262a2.225,2.225,0,0,0-2.12-.36.317.317,0,0,1-.4-.232.324.324,0,0,1,.233-.4,2.486,2.486,0,0,1,2.5.418.323.323,0,0,1,.032.459.317.317,0,0,1-.245.113" transform="translate(7.344 11.111)" fill="#1a1a1a"/>
        <path id="Trazado_599012" data-name="Trazado 599012" d="M36.4,65.469c-.364-.251-.348-.458-.21-.574a3.615,3.615,0,0,1,3.177-.614.325.325,0,1,1-.184.624,3,3,0,0,0-2.572.485.319.319,0,0,1-.211.079" transform="translate(6.255 11.113)" fill="#1a1a1a"/>
        <path id="Trazado_599013" data-name="Trazado 599013" d="M129.666,98.139a.325.325,0,0,1-.326-.325l.012-5.239a.325.325,0,0,1,.65,0l-.009,5.239a.326.326,0,0,1-.326.325" transform="translate(22.407 15.982)" fill="#1a1a1a"/>
        <path id="Trazado_599014" data-name="Trazado 599014" d="M132.726,118.113c-.252-.052-.36-.225-.317-.4l.659-2.73a.326.326,0,0,1,.634.155l-.659,2.73a.328.328,0,0,1-.317.248" transform="translate(22.937 19.876)" fill="#1a1a1a"/>
        <path id="Trazado_599015" data-name="Trazado 599015" d="M138.288,118.115a16.048,16.048,0,0,1-1.136-2.971.327.327,0,0,1,.218-.408.323.323,0,0,1,.406.218l.824,2.741a.327.327,0,0,1-.217.408.389.389,0,0,1-.1.012" transform="translate(23.758 19.875)" fill="#1a1a1a"/>
        <path id="Trazado_599016" data-name="Trazado 599016" d="M141.207,82.69a11.939,11.939,0,0,1-5.161-8.443A10.611,10.611,0,0,1,125.763,77a.325.325,0,1,1,.147-.632,9.863,9.863,0,0,0,10.127-3.095c.59.237.828,5.778,5.351,8.816a.326.326,0,0,1-.182.6" transform="translate(21.744 12.695)" fill="#1a1a1a"/>
        <path id="Trazado_599017" data-name="Trazado 599017" d="M147.357,83.816c-.368-.374-.286-.562-.118-.629-.008,0,.989-.692,1.579-5.926.365-3.251-1.592-5.082-2.994-5.522a17.9,17.9,0,0,0-6.15-.452c-2.174-3.829-4.566-5.186-6.244-5.676a7.013,7.013,0,0,0-5.575.7,6.494,6.494,0,0,0-3.284,3.973,7.159,7.159,0,0,0,.8,4.925,2.221,2.221,0,0,0-1.334,1.109,4.6,4.6,0,0,0,2.253,5.843.327.327,0,0,1-.319.57,5.266,5.266,0,0,1-2.517-6.7,1.777,1.777,0,0,1,1.081-1.01,7.535,7.535,0,0,1-.6-4.89,7.126,7.126,0,0,1,3.585-4.376,7.628,7.628,0,0,1,6.089-.763c1.772.52,4.273,1.917,6.215,5.63a17.881,17.881,0,0,1,6.19.5c1.991.621,3.815,2.957,3.448,6.216-.637,5.66-1.768,6.375-1.989,6.461a.325.325,0,0,1-.119.021" transform="translate(21.317 11.203)" fill="#1a1a1a"/>
        <path id="Trazado_599018" data-name="Trazado 599018" d="M80.231,92.312a65.752,65.752,0,0,1-.729-6.738c.008-.1,1.244-5.289,1.244-5.289.072-.258.135-.508.2-.756.381-1.569.726-3.355-.026-4.661A4.087,4.087,0,0,0,79.1,73.41a16.764,16.764,0,0,0-3.161-1.252,5.779,5.779,0,0,0-1.524-.266,2.06,2.06,0,0,0-2.168,1.766,2.681,2.681,0,0,0,.763,1.931,9.413,9.413,0,0,0,2.356,1.746,8.846,8.846,0,0,0,4.186,1.152.326.326,0,0,1,0,.651,9.48,9.48,0,0,1-4.5-1.235,9.942,9.942,0,0,1-2.524-1.878,3.3,3.3,0,0,1-.927-2.418A2.7,2.7,0,0,1,74.4,71.242a6.466,6.466,0,0,1,1.711.286,17.542,17.542,0,0,1,3.286,1.3,4.593,4.593,0,0,1,2.079,1.711c.871,1.515.507,3.448.1,5.144-.065.255-.129.509-.2.76L80.156,85.58c.034.522.323,5.085.4,6.387a.329.329,0,0,1-.307.345Z" transform="translate(12.402 12.342)" fill="#1a1a1a"/>
        <path id="Trazado_599019" data-name="Trazado 599019" d="M68.03,93.472c-.32-.27-1.332-6.158-1.332-6.158a73.944,73.944,0,0,1-1.862-7.292.326.326,0,0,1,.638-.129c.815,4.023,1.846,7.234,1.855,7.266l1.022,5.932a.327.327,0,0,1-.265.378.31.31,0,0,1-.056,0" transform="translate(11.231 13.795)" fill="#1a1a1a"/>
        <path id="Trazado_599020" data-name="Trazado 599020" d="M66.98,82.289a2.692,2.692,0,0,1-1.816-.659,2.4,2.4,0,0,1-.459-.576,3.8,3.8,0,0,1-.424-1.1,18.308,18.308,0,0,1-.719-5.883,3.291,3.291,0,0,1,.839-1.95,2.581,2.581,0,0,1,2.766-.576,4.1,4.1,0,0,1,1.972,2.312,11.026,11.026,0,0,1,.44,1.34,12.59,12.59,0,0,1,.483,3.855,3.811,3.811,0,0,1-1.021,2.418,2.938,2.938,0,0,1-2.063.814m-.739-10.263a1.946,1.946,0,0,0-1.375.551,2.717,2.717,0,0,0-.657,1.57,17.674,17.674,0,0,0,.695,5.606,3.4,3.4,0,0,0,.361.968,1.814,1.814,0,0,0,.339.428,2.26,2.26,0,0,0,2.981-.137,3.167,3.167,0,0,0,.828-2.006,10.835,10.835,0,0,0-.347-3.172,12.476,12.476,0,0,0-.53-1.721,3.6,3.6,0,0,0-1.61-1.959,1.863,1.863,0,0,0-.685-.127" transform="translate(11.003 12.364)" fill="#1a1a1a"/>
        <path id="Trazado_599021" data-name="Trazado 599021" d="M78.4,74.358a60.036,60.036,0,0,0-2.3-9.068,3.4,3.4,0,0,0-.824-1.355,1.494,1.494,0,0,0-2.113.39c-1.242,1.357-.924,3.02-.592,4.777.289,1.552.5,2.735.7,3.915a.325.325,0,0,1-.264.377.309.309,0,0,1-.378-.264c-.2-1.181-.417-2.359-.634-3.538-.418-2.207-.779-4.106.68-5.705a2.116,2.116,0,0,1,3.023-.442,3.96,3.96,0,0,1,1,1.607,37.138,37.138,0,0,1,2.019,8.94.323.323,0,0,1-.283.364.171.171,0,0,1-.041,0" transform="translate(12.409 10.91)" fill="#1a1a1a"/>
        <path id="Trazado_599022" data-name="Trazado 599022" d="M72.4,81.093a3.813,3.813,0,0,1-1.781-.449A3.692,3.692,0,0,1,69,78.421c-.181-.588-.31-1.2-.433-1.794-.069-.339-.14-.675-.219-1.009a5.747,5.747,0,0,1-.093-3.148,3.166,3.166,0,0,1,3.537-2.12,2.3,2.3,0,0,1,1.929,1.87.324.324,0,0,1-.282.364.317.317,0,0,1-.365-.283,1.725,1.725,0,0,0-1.442-1.319,2.514,2.514,0,0,0-2.758,1.689,5.182,5.182,0,0,0,.107,2.8c.082.338.153.68.224,1.024.12.578.245,1.178.42,1.738a3.051,3.051,0,0,0,1.3,1.842,2.767,2.767,0,0,0,2.723.023,2.844,2.844,0,0,0,.981-2.8.327.327,0,0,1,.3-.352.342.342,0,0,1,.351.3c.164,2.012-.6,2.959-1.275,3.4a2.932,2.932,0,0,1-1.61.451" transform="translate(11.793 12.175)" fill="#1a1a1a"/>
        <path id="Trazado_599023" data-name="Trazado 599023" d="M103.656,124.712c-1.793,0-3.547-.069-5.223-.2a.326.326,0,0,1-.3-.352.343.343,0,0,1,.351-.3c1.993.162,4.089.222,6.245.2a.325.325,0,1,1,.008.65c-.361.007-.722.009-1.082.009" transform="translate(17.001 21.457)" fill="#1a1a1a"/>
        <path id="Trazado_599024" data-name="Trazado 599024" d="M95.664,129A38.707,38.707,0,0,1,77.53,118.859c-7.465-7.469-10.413-17.684-13.263-27.564l-.345-1.2a.326.326,0,0,1,.625-.182l.347,1.2c2.826,9.8,5.751,19.933,13.1,27.284a38.106,38.106,0,0,0,17.756,9.962.326.326,0,0,1-.082.642" transform="translate(11.072 15.537)" fill="#1a1a1a"/>
        <path id="Trazado_599025" data-name="Trazado 599025" d="M69.245,92.476c-2.881,0-5.124-.513-5.335-1.74-.184-1.065.947-2.061,3.455-3.047a.327.327,0,0,1,.237.609c-2.053.8-3.164,1.654-3.05,2.327.17.994,4.1,1.739,10.118.705,5.725-.987,9.5-2.923,9.306-4.043-.1-.588-1.023-.977-2.669-1.129a.331.331,0,0,1-.3-.355.308.308,0,0,1,.357-.3c2.027.188,3.091.733,3.251,1.67.337,1.955-4.816,3.93-9.836,4.8a33.606,33.606,0,0,1-5.538.5" transform="translate(11.069 14.813)" fill="#1a1a1a"/>
        <path id="Trazado_599026" data-name="Trazado 599026" d="M137.832,71.041c-.313-.123-.374-.321-.287-.481s2.3-4.245,4.342-4.768a.323.323,0,0,1,.4.235.329.329,0,0,1-.236.4c-1.464.374-3.336,3.336-3.933,4.445a.324.324,0,0,1-.285.17" transform="translate(23.822 11.396)" fill="#1a1a1a"/>
        <path id="Trazado_599027" data-name="Trazado 599027" d="M136.779,69.953c-.3-.11-.373-.306-.292-.468a13.2,13.2,0,0,0,.9-2.437.332.332,0,0,1,.381-.26.328.328,0,0,1,.26.381,13.369,13.369,0,0,1-.954,2.6.325.325,0,0,1-.293.183" transform="translate(23.64 11.57)" fill="#1a1a1a"/>
        <path id="Trazado_599028" data-name="Trazado 599028" d="M130.869,86.915c-.214,0-2.1-.02-2.744-.7a.843.843,0,0,1-.236-.636,39.434,39.434,0,0,1,1.563-5.182.327.327,0,0,1,.415-.2.323.323,0,0,1,.2.417,38.006,38.006,0,0,0-1.523,5.005c.4.508,1.632.643,2.329.643a.326.326,0,1,1,0,.651" transform="translate(22.155 13.891)" fill="#1a1a1a"/>
        <path id="Trazado_599029" data-name="Trazado 599029" d="M132.731,90.828a3.743,3.743,0,0,1-1.065-.157,2.387,2.387,0,0,1-1.607-1.252,1.267,1.267,0,0,1,.172-1.269,1.8,1.8,0,0,1,1.679-.577c.886.108.961.049,1.135-.082s.259-.189.414-1.058A1.849,1.849,0,0,1,134.506,85a1.286,1.286,0,0,1,1.265.211,2.277,2.277,0,0,1,.657,1.828,3.813,3.813,0,0,1-1.471,3.047,3.746,3.746,0,0,1-2.226.743m-1.106-2.622a1.115,1.115,0,0,0-.882.352.62.62,0,0,0-.072.637,1.818,1.818,0,0,0,1.183.852,3.051,3.051,0,0,0,2.715-.487,3.147,3.147,0,0,0,1.206-2.526,1.7,1.7,0,0,0-.4-1.306.622.622,0,0,0-.631-.12,1.21,1.21,0,0,0-.643.94c-.182,1.024-.33,1.215-.666,1.469-.365.264-.618.325-1.6.2a1.752,1.752,0,0,0-.205-.013" transform="translate(22.515 14.711)" fill="#1a1a1a"/>
        <path id="Trazado_599030" data-name="Trazado 599030" d="M133.813,90.29c-1.508-2.349.263-4.111,1.368-4.739a.326.326,0,0,1,.323.567c-.108.063-2.616,1.528-1.407,3.687a.325.325,0,0,1-.284.485" transform="translate(23.081 14.814)" fill="#1a1a1a"/>
        <path id="Trazado_599031" data-name="Trazado 599031" d="M142.916,86.028c-.144-.032-3.2-1.545-3.2-1.545-.088-.522,2.69-3.364,2.69-3.364a.326.326,0,0,1,.466.458l-2.465,2.52,2.655,1.313a.326.326,0,0,1-.144.618" transform="translate(24.204 14.036)" fill="#1a1a1a"/>
        <path id="Trazado_599032" data-name="Trazado 599032" d="M152.941,118.006a.324.324,0,0,1-.325-.326v-2.542a.325.325,0,1,1,.65,0v2.542a.324.324,0,0,1-.325.326" transform="translate(26.44 19.89)" fill="#1a1a1a"/>
        <path id="Trazado_599033" data-name="Trazado 599033" d="M69.162,55.492a4.142,4.142,0,0,1-1.725-.4,7.016,7.016,0,0,1-2.7-2.25A14.621,14.621,0,0,1,62.5,48.392c-.154-.472-.289-.949-.424-1.436l-.172-.618c.225-.406,2.709-1.091,2.709-1.091a.466.466,0,0,1,.55.19,18.367,18.367,0,0,0,3.424,3.439,1.151,1.151,0,0,0,1.072.222,4.3,4.3,0,0,0,1.281-.59,17.47,17.47,0,0,0,2.817-2.338,52.957,52.957,0,0,0,4.482-5.084.546.546,0,0,1,.631-.209c.7.2,1.406.394,2.108.589l.508.14a34.2,34.2,0,0,1-5.456,8.951,20.989,20.989,0,0,1-3.665,3.605,11.385,11.385,0,0,1-1.442.883,3.77,3.77,0,0,1-1.762.448m-6.542-9.02c.217.785.348,1.253.5,1.718a14.082,14.082,0,0,0,2.131,4.262A6.418,6.418,0,0,0,67.707,54.5a3.143,3.143,0,0,0,2.915-.034,11.147,11.147,0,0,0,1.36-.832,20.337,20.337,0,0,0,3.549-3.5,61.332,61.332,0,0,0,5.526-7.975c-.943-.26-1.634-.451-2.324-.649a53.88,53.88,0,0,1-4.519,5.119,17.978,17.978,0,0,1-2.923,2.425,5.131,5.131,0,0,1-1.479.672,1.811,1.811,0,0,1-1.631-.343A19.063,19.063,0,0,1,64.7,45.9Z" transform="translate(10.724 7.077)" fill="#1a1a1a"/>
        <path id="Trazado_599034" data-name="Trazado 599034" d="M72.643,64.364A15.139,15.139,0,1,1,86.912,54.321a.326.326,0,0,1-.417.2.322.322,0,0,1-.2-.415,14.5,14.5,0,1,0-13.657,9.612.325.325,0,0,1,0,.65" transform="translate(9.96 5.901)" fill="#1a1a1a"/>
        <path id="Trazado_599035" data-name="Trazado 599035" d="M56.963,43.823c-.148-.036-7.768-3.97-7.768-3.97a.325.325,0,0,1,.3-.578l7.619,3.935a.325.325,0,0,1-.149.614" transform="translate(8.492 6.797)" fill="#1a1a1a"/>
        <path id="Trazado_599036" data-name="Trazado 599036" d="M81.969,39.209c-.366-.255-.347-.462-.209-.576l5.647-4.712a.326.326,0,1,1,.419.5l-5.648,4.712a.315.315,0,0,1-.209.076" transform="translate(14.148 5.863)" fill="#1a1a1a"/>
        <path id="Trazado_599037" data-name="Trazado 599037" d="M89.7,64.381c-.209-.075-8.866-7.287-8.866-7.287a.326.326,0,0,1,.418-.5l8.657,7.212a.325.325,0,0,1-.209.575" transform="translate(13.984 9.791)" fill="#1a1a1a"/>
        <path id="Trazado_599038" data-name="Trazado 599038" d="M70.454,34.189a.325.325,0,0,1-.326-.326V25.9a.326.326,0,1,1,.651,0v7.967a.324.324,0,0,1-.325.326" transform="translate(12.149 4.43)" fill="#1a1a1a"/>
        <path id="Trazado_599039" data-name="Trazado 599039" d="M58.716,61.742c-.353-.209-.363-.415-.239-.548l2.573-2.767a.326.326,0,1,1,.478.443l-2.573,2.767a.321.321,0,0,1-.238.1" transform="translate(10.118 10.104)" fill="#1a1a1a"/>
        <path id="Trazado_599040" data-name="Trazado 599040" d="M31.977,74.571a3.839,3.839,0,0,1-2.8-1.26,3.7,3.7,0,0,1-.925-2.7A3.765,3.765,0,0,1,32.2,67.131a3.709,3.709,0,0,1,2.039.765.325.325,0,1,1-.4.516,3.072,3.072,0,0,0-4.939,2.244,3.07,3.07,0,0,0,4.478,2.917.326.326,0,1,1,.3.577,3.676,3.676,0,0,1-1.708.421" transform="translate(4.894 11.629)" fill="#1a1a1a"/>
        <path id="Trazado_599041" data-name="Trazado 599041" d="M30.869,72.68c-.37-.27-.344-.474-.2-.584L32.62,70.59l-2.186-1.619a.327.327,0,1,1,.39-.526l2.531,1.875c0,.521-2.289,2.293-2.289,2.293a.325.325,0,0,1-.2.067" transform="translate(5.25 11.847)" fill="#1a1a1a"/>
        <path id="Trazado_599042" data-name="Trazado 599042" d="M39.89,92.036c-.2-.067-7.461-5.689-7.461-5.689a.328.328,0,0,1,.4-.517l6.829,5.292,1.2-6.8.286-5.447a.335.335,0,0,1,.343-.309.326.326,0,0,1,.307.343l-.29,5.486-1.3,7.369c-.242.264-.282.27-.32.27" transform="translate(5.596 13.611)" fill="#1a1a1a"/>
        <path id="Trazado_599043" data-name="Trazado 599043" d="M21.163,82.129a3.987,3.987,0,0,1-1.8-3.725,3.444,3.444,0,0,1,1.007-2.1,5.322,5.322,0,0,1,3.995-1.415,3.969,3.969,0,0,1,3,1.458.325.325,0,1,1-.516.4,3.341,3.341,0,0,0-2.525-1.2,4.532,4.532,0,0,0-3.489,1.221,2.776,2.776,0,0,0-.821,1.691,3.448,3.448,0,0,0,1.345,3.093.326.326,0,0,1-.2.582" transform="translate(3.353 12.973)" fill="#1a1a1a"/>
        <path id="Trazado_599044" data-name="Trazado 599044" d="M43.236,85.194c-.337-.163-.371-.366-.265-.515,2.163-3.05-.692-6.063-.722-6.094a.326.326,0,1,1,.469-.452c.033.034,3.258,3.436.783,6.926a.327.327,0,0,1-.265.135" transform="translate(7.304 13.519)" fill="#1a1a1a"/>
        <path id="Trazado_599045" data-name="Trazado 599045" d="M31.623,87.407a4.774,4.774,0,0,1-.853-.063.321.321,0,0,1-.256-.381.339.339,0,0,1,.38-.259c.2.048,4.784.851,6.011-4.606,1.25-5.54-4.455-8.655-4.512-8.688a.325.325,0,0,1,.305-.574c.063.033,6.2,3.386,4.846,9.4-1.037,4.6-4.34,5.168-5.92,5.168" transform="translate(5.285 12.611)" fill="#1a1a1a"/>
        <path id="Trazado_599046" data-name="Trazado 599046" d="M48.173,117.673c-.368-.27-.343-.474-.2-.584.226-.174.754-.476,1.485-.894,2.3-1.318,6.591-3.767,7.346-5.68.4-1,.338-1.743-.164-2.149a1.555,1.555,0,0,0-1.654-.116.327.327,0,0,1-.363-.543,2.187,2.187,0,0,1,2.426.151c.427.345,1.041,1.18.363,2.9-.841,2.125-5.091,4.553-7.631,6.006-.68.39-1.22.7-1.411.845a.328.328,0,0,1-.2.067" transform="translate(8.294 18.608)" fill="#1a1a1a"/>
        <path id="Trazado_599047" data-name="Trazado 599047" d="M41.226,125.831c-.373-.309-.324-.509-.17-.6.05-.033,5.361-3.286,12.15-7.255,2.452-1.433,3.93-3,4.274-4.528a2.632,2.632,0,0,0-.255-1.978.326.326,0,0,1,.534-.373,3.268,3.268,0,0,1,.361,2.47c-.38,1.743-1.924,3.415-4.587,4.973-6.783,3.962-12.084,7.214-12.137,7.247a.335.335,0,0,1-.17.047" transform="translate(7.093 19.222)" fill="#1a1a1a"/>
        <path id="Trazado_599048" data-name="Trazado 599048" d="M40.642,110.568a.334.334,0,0,1-.32-.379A78.777,78.777,0,0,1,44.83,93.636c.3-.194,13.768-.194,13.768-.194a.326.326,0,0,1,0,.651H45.347a79.973,79.973,0,0,0-4.383,16.2.325.325,0,0,1-.321.271" transform="translate(6.985 16.188)" fill="#1a1a1a"/>
        <path id="Trazado_599049" data-name="Trazado 599049" d="M62.919,132.613H41.683a.326.326,0,0,1,0-.651H62.6c.344-21.687,4.671-35.3,5.559-37.87h-9.74a.326.326,0,0,1,0-.651h10.2c.252.582-5.037,14.731-5.373,38.851a.326.326,0,0,1-.326.321" transform="translate(7.165 16.188)" fill="#1a1a1a"/>
        <path id="Trazado_599050" data-name="Trazado 599050" d="M53.359,161.513c-1.1-1.224-1.542-22.046-1.623-34.912a.326.326,0,0,1,.652,0c.109,17.664.673,33.419,1.23,34.4a.32.32,0,0,1-.063.452.312.312,0,0,1-.2.067" transform="translate(8.963 21.876)" fill="#1a1a1a"/>
        <path id="Trazado_599051" data-name="Trazado 599051" d="M8.211,158.594c-.543-4.811-.327-15.466-.326-15.572a.332.332,0,0,1,.332-.318.321.321,0,0,1,.319.331c0,.108-.216,10.739,0,15.219a.325.325,0,0,1-.31.34Z" transform="translate(1.358 24.722)" fill="#1a1a1a"/>
        <path id="Trazado_599052" data-name="Trazado 599052" d="M19.306,128.154c-.307-.114-.373-.311-.291-.472,5.352-10.634,6.04-27.741,6.046-27.914a.3.3,0,0,1,.339-.312.325.325,0,0,1,.312.338c-.007.172-.7,17.418-6.115,28.18a.323.323,0,0,1-.291.18" transform="translate(3.289 17.23)" fill="#1a1a1a"/>
        <path id="Trazado_599053" data-name="Trazado 599053" d="M83.978,154.847a12.356,12.356,0,0,0-3.707-.785,14.451,14.451,0,0,1-9.317-4.225.326.326,0,1,1,.49-.431,14.063,14.063,0,0,0,8.884,4.005,12.079,12.079,0,0,1,3.774.807.326.326,0,0,1-.124.628" transform="translate(12.278 25.864)"/>
        <path id="Trazado_599054" data-name="Trazado 599054" d="M82.158,156.987c-.34-.175-.368-.379-.26-.521a1.768,1.768,0,0,0,.332-1.411c-.162-.448-.675-.778-1.525-.981-3.019-.72-6.157-1.758-6.189-1.767a.327.327,0,0,1,.207-.621c.031.012,3.142,1.042,6.133,1.754a2.507,2.507,0,0,1,1.989,1.4,2.383,2.383,0,0,1-.427,2.02.318.318,0,0,1-.258.128" transform="translate(12.871 26.276)" fill="#1a1a1a"/>
        <path id="Trazado_599055" data-name="Trazado 599055" d="M70.705,156.829c-4.11-.848-3.874-3.15-3.861-3.248a.316.316,0,0,1,.361-.284.324.324,0,0,1,.284.359c-.007.087-.124,1.817,3.282,2.528a.325.325,0,0,1-.066.644" transform="translate(11.579 26.557)" fill="#1a1a1a"/>
        <path id="Trazado_599056" data-name="Trazado 599056" d="M62.09,156.573a4.572,4.572,0,0,1-1.36-1.774.326.326,0,0,1,.616-.212,4.249,4.249,0,0,0,.973,1.428.326.326,0,0,1-.229.558" transform="translate(10.518 26.743)" fill="#1a1a1a"/>
        <path id="Trazado_599057" data-name="Trazado 599057" d="M42.71,73.552c-.371-.289-.334-.492-.185-.595a3.8,3.8,0,0,0,1.321-1.834c-.206-.435-.841-.162-1.177-.019-.373.161-.616.264-.829.158a29.025,29.025,0,0,1-.793-4.247.326.326,0,1,1,.646-.086c.16,1.174.411,2.98.521,3.659.757-.326,1.6-.692,2.085-.128a.917.917,0,0,1,.192.746A4.333,4.333,0,0,1,42.9,73.5a.321.321,0,0,1-.185.056" transform="translate(7.11 11.546)" fill="#1a1a1a"/>
        <path id="Trazado_599058" data-name="Trazado 599058" d="M40.43,75a2.3,2.3,0,0,1-1.334-.394,3.094,3.094,0,0,1-1.139-2.072.327.327,0,0,1,.651-.063,2.444,2.444,0,0,0,.861,1.6,2.1,2.1,0,0,0,1.774.156.326.326,0,0,1,.172.629A3.785,3.785,0,0,1,40.43,75" transform="translate(6.576 12.504)" fill="#1a1a1a"/>
        <path id="Trazado_599059" data-name="Trazado 599059" d="M215.452,67.846c-.263-.016-.427.11-.415,1.051.012,1.048.3,1.207.53,1.176s.438-.372.359-1.116-.129-1.088-.474-1.111" transform="translate(37.253 11.754)" fill="#1a1a1a"/>
        <path id="Trazado_599060" data-name="Trazado 599060" d="M212.925,76.36a3.567,3.567,0,0,1-1.164-.217.327.327,0,0,1,.216-.617,2.063,2.063,0,0,0,1.783-.036,2.431,2.431,0,0,0,.968-1.532.3.3,0,0,1,.375-.266.324.324,0,0,1,.267.374,3.084,3.084,0,0,1-1.278,1.985,2.249,2.249,0,0,1-1.169.31" transform="translate(36.648 12.765)" fill="#1a1a1a"/>
        <path id="Trazado_599061" data-name="Trazado 599061" d="M93.91,144.237c-3.534-.1-4.848-1.658-5.391-2.946-1.043-2.483-.027-5.748,1.559-7.474.028-.032,1.073-1.309.046-4.39a6.367,6.367,0,0,1,.433-5.472,5.9,5.9,0,0,1,8.942-.618,5.86,5.86,0,0,1,1.458,4.932c-.58,2.771-.732,3.507-.006,5.9a9.187,9.187,0,0,1-1.316,7.527,6.785,6.785,0,0,1-5.725,2.545m1.551-22.024c-.2,0-.4.011-.618.032A4.824,4.824,0,0,0,91.1,124.31a5.721,5.721,0,0,0-.363,4.91c1.167,3.508-.125,4.976-.178,5.036-1.42,1.542-2.373,4.571-1.444,6.784.67,1.593,2.213,2.472,4.464,2.541a6.369,6.369,0,0,0,5.534-2.283,8.592,8.592,0,0,0,1.208-6.942c-.773-2.549-.584-3.456-.077-5.879a5.4,5.4,0,0,0-1.232-4.7,4.666,4.666,0,0,0-3.556-1.562" transform="translate(15.262 21.06)" fill="#1a1a1a"/>
        <path id="Trazado_599062" data-name="Trazado 599062" d="M98.464,121.909c-1.314,0-2.344-1.5-2.344-3.408s1.03-3.409,2.344-3.409,2.344,1.5,2.344,3.409-1.03,3.408-2.344,3.408m0-6.167c-.917,0-1.693,1.262-1.693,2.758s.776,2.757,1.693,2.757,1.693-1.262,1.693-2.757-.776-2.758-1.693-2.758" transform="translate(16.652 19.939)" fill="#1a1a1a"/>
        <path id="Trazado_599063" data-name="Trazado 599063" d="M87.576,156.77c-.111-.018-4.145-.961-4.387-4.888a3.175,3.175,0,0,1,.888-2.62,4.838,4.838,0,0,1,3.512-.989.325.325,0,1,1-.068.646,4.338,4.338,0,0,0-3,.817,2.564,2.564,0,0,0-.686,2.107c.212,3.431,3.662,4.249,3.808,4.282a.326.326,0,0,1-.072.644" transform="translate(14.41 25.683)" fill="#1a1a1a"/>
        <path id="Trazado_599064" data-name="Trazado 599064" d="M87.734,159.17c-.1-.008-6.731-.732-6.285-6.989a5.975,5.975,0,0,1,1.992-4.39,6.274,6.274,0,0,1,4.394-1.258.325.325,0,1,1-.077.645,5.757,5.757,0,0,0-3.906,1.118,5.361,5.361,0,0,0-1.753,3.932c-.4,5.62,5.419,6.267,5.668,6.292a.326.326,0,0,1,.291.358.323.323,0,0,1-.324.292" transform="translate(14.107 25.381)" fill="#1a1a1a"/>
        <path id="Trazado_599065" data-name="Trazado 599065" d="M93.657,160.4c-1.17,0-7-.065-7-1.375a.326.326,0,0,1,.651,0c.232.253,2.645.724,6.351.724,3.668,0,6.049-.47,6.3-.793.5-.29.632-.111.632.069,0,1.31-5.772,1.375-6.929,1.375" transform="translate(15.012 27.493)" fill="#1a1a1a"/>
        <path id="Trazado_599066" data-name="Trazado 599066" d="M98.3,161.548a.324.324,0,0,1-.325-.326v-14.89a.326.326,0,0,1,.651,0v14.89a.325.325,0,0,1-.326.326" transform="translate(16.973 25.295)" fill="#1a1a1a"/>
        <path id="Trazado_599067" data-name="Trazado 599067" d="M86.975,161.564a.324.324,0,0,1-.325-.326v-15a.326.326,0,0,1,.651,0v15a.325.325,0,0,1-.326.326" transform="translate(15.011 25.278)" fill="#1a1a1a"/>
        <path id="Trazado_599068" data-name="Trazado 599068" d="M93.619,148.1c-.284,0-6.969-.018-6.969-1.579s6.685-1.579,6.969-1.579,6.969.016,6.969,1.579S93.9,148.1,93.619,148.1m0-2.508c-3.894,0-6.151.612-6.323.955.171.291,2.429.9,6.323.9,3.794,0,6.036-.582,6.305-.928-.269-.347-2.511-.929-6.305-.929" transform="translate(15.011 25.109)" fill="#1a1a1a"/>
        <path id="Trazado_599069" data-name="Trazado 599069" d="M224.407,75.085a3.847,3.847,0,0,1-1.91-.506.326.326,0,0,1,.324-.565,3.144,3.144,0,0,0,1.885.406,3.225,3.225,0,1,0-3.176-4.661.326.326,0,0,1-.582-.292,3.878,3.878,0,1,1,3.819,5.6c-.122.012-.242.015-.36.015" transform="translate(38.271 11.664)" fill="#1a1a1a"/>
        <path id="Trazado_599070" data-name="Trazado 599070" d="M225.18,72.808c-.153-.036-2.738-1.411-2.738-1.411-.065-.53,2.208-2.58,2.208-2.58a.327.327,0,0,1,.459.025.324.324,0,0,1-.022.459l-1.928,1.739,2.175,1.156a.326.326,0,0,1,.136.441.33.33,0,0,1-.29.172" transform="translate(38.536 11.908)" fill="#1a1a1a"/>
        <path id="Trazado_599071" data-name="Trazado 599071" d="M215.181,94.157a.331.331,0,0,1-.327-.348,17.486,17.486,0,0,1,2.263-7.259c1.407-2.139,6.049-3.963,7.978-4.648a.327.327,0,0,1,.219.616c-3.893,1.379-6.751,3.021-7.653,4.389a17.127,17.127,0,0,0-2.155,6.949.326.326,0,0,1-.325.3" transform="translate(37.222 14.186)" fill="#1a1a1a"/>
        <path id="Trazado_599072" data-name="Trazado 599072" d="M244.621,104.687a68.3,68.3,0,0,0-3.232-7.5,10.905,10.905,0,0,0-6.31-5.156c-.557-.189-1.126-.36-1.7-.53a27.754,27.754,0,0,1-3.346-1.17,15.514,15.514,0,0,1-3.963-2.675c-3.9-3.49-3.38-9.633-1.142-14.172a.327.327,0,0,1,.587.289c-2.132,4.319-2.65,10.134.99,13.4a14.873,14.873,0,0,0,3.8,2.567,27.4,27.4,0,0,0,3.266,1.139c.575.172,1.15.348,1.72.54a11.53,11.53,0,0,1,6.666,5.453,41.3,41.3,0,0,1,2.974,7.391.327.327,0,0,1-.21.411.307.307,0,0,1-.1.015" transform="translate(38.667 12.699)" fill="#1a1a1a"/>
        <path id="Trazado_599073" data-name="Trazado 599073" d="M223.48,70.027a9.827,9.827,0,0,1-2.873-8.362c-5.253.757-7.6,3.435-7.627,3.463a.327.327,0,0,1-.459.036.323.323,0,0,1-.036-.459c.106-.124,2.65-3.047,8.477-3.745.346.44-.609,5.122,2.749,8.51a.325.325,0,0,1,0,.461.317.317,0,0,1-.23.1" transform="translate(36.798 10.561)" fill="#1a1a1a"/>
        <path id="Trazado_599074" data-name="Trazado 599074" d="M218.72,85.789a.324.324,0,0,1-.325-.314l-.218-6a.326.326,0,0,1,.651-.021l.217,6a.324.324,0,0,1-.314.336Z" transform="translate(37.797 13.71)" fill="#1a1a1a"/>
        <path id="Trazado_599075" data-name="Trazado 599075" d="M219.177,92.868c-17.365-5.02-25.329-25-25.407-25.2a.327.327,0,0,1,.185-.422.322.322,0,0,1,.422.185c.077.2,7.928,19.884,24.89,24.8a.326.326,0,0,1-.091.638" transform="translate(33.565 11.645)" fill="#1a1a1a"/>
        <path id="Trazado_599076" data-name="Trazado 599076" d="M212.838,112.891c-11.025-4.387-25.493-15.016-32.512-40.858a.327.327,0,0,1,.229-.4.319.319,0,0,1,.4.229c6.946,25.586,21.237,36.092,32,40.4a.325.325,0,0,1-.12.627" transform="translate(31.238 12.407)" fill="#1a1a1a"/>
        <path id="Trazado_599077" data-name="Trazado 599077" d="M194.262,71.1c-.5-.668-2.235-4.841-1.342-6.283a10.92,10.92,0,0,1,2.393-2.637c.283-.244.556-.479.811-.729.892-.873,1.2-1.753.853-2.412a1.74,1.74,0,0,0-1.921-.707c-1.777.365-4.167,2.705-5.914,4.414-1.7,1.671-6.879,1.357-7.106,1.341a.327.327,0,0,1-.3-.346c1.765-.218,5.682-.214,6.779-1.287,2.079-2.036,4.45-4.355,6.413-4.76a2.376,2.376,0,0,1,2.629,1.041c.233.442.609,1.635-.973,3.182-.265.259-.547.5-.84.757a10.2,10.2,0,0,0-2.264,2.488c-.542.872.378,3.828,1.085,5.487a.324.324,0,0,1-.3.452" transform="translate(31.484 9.984)" fill="#1a1a1a"/>
        <path id="Trazado_599078" data-name="Trazado 599078" d="M184.972,74.55c-.528-1.61-1.438-5.161-3.178-5.571-2.124-.5-9.154-3.637-9.94-7.287a1.725,1.725,0,0,1,.5-1.677,2.522,2.522,0,0,1,2.439-.409,64.4,64.4,0,0,1,6.886,3.569c.83-.087,5.811-.487,8.255,2.155a.326.326,0,1,1-.478.445c-2.392-2.59-7.755-1.948-7.8-1.942-.258-.073-5.6-3.163-7.049-3.6a1.857,1.857,0,0,0-1.807.264,1.059,1.059,0,0,0-.309,1.058c.672,3.131,7.009,6.219,9.453,6.792,2.521.592,3.316,5.615,3.351,5.829a.328.328,0,0,1-.273.372.262.262,0,0,1-.05,0" transform="translate(29.765 10.302)" fill="#1a1a1a"/>
        <path id="Trazado_599079" data-name="Trazado 599079" d="M185.95,63.975c-3.336-2-8.688-5.028-9.824-5.028a1.6,1.6,0,0,0-1.483,1.228.3.3,0,0,1-.374.268.324.324,0,0,1-.267-.375,2.214,2.214,0,0,1,2-1.765c1.577-.188,9.252,4.533,10.123,5.07a.325.325,0,0,1,.108.448.321.321,0,0,1-.278.155" transform="translate(30.144 10.1)" fill="#1a1a1a"/>
        <path id="Trazado_599080" data-name="Trazado 599080" d="M188.807,63.585c-.211-.076-3.482-2.22-4.217-2.614-.371-.2-.81-.455-1.285-.739-1.478-.875-3.5-2.075-4.824-2.141-1.5-.1-1.79.738-1.8.773a.336.336,0,0,1-.4.217.327.327,0,0,1-.222-.4c.014-.055.432-1.348,2.463-1.242,1.481.075,3.5,1.271,5.121,2.231.468.279.9.533,1.259.727.76.406,3.955,2.5,4.09,2.589a.326.326,0,0,1-.178.6" transform="translate(30.498 9.95)" fill="#1a1a1a"/>
        <path id="Trazado_599081" data-name="Trazado 599081" d="M194.026,117.6c-.222-.084-.757-.5-3.506-3.021a25.282,25.282,0,0,1-2.836-3.021c-.374-.475-.724-.974-1.071-1.471a20.9,20.9,0,0,0-1.573-2.071q-.267-.3-.555-.569a3.167,3.167,0,0,0-1.054-.693,1.574,1.574,0,0,0-1.356.215,1.843,1.843,0,0,0-.833,1.349,4.33,4.33,0,0,0,.9,2.407c.252.4.526.778.8,1.157.31.433.631.881.917,1.349.461.659,1.27,1.8-.236,3.016-1.223.987-2.772-.662-3.692-1.651-.13-.137-.246-.263-.347-.366a.326.326,0,1,1,.466-.458c.105.106.225.235.358.379.766.824,2.047,2.208,2.808,1.586a1.2,1.2,0,0,0,.226-1.963c-.412-.65-.726-1.09-1.03-1.512-.283-.391-.563-.783-.821-1.19a4.825,4.825,0,0,1-1-2.8,2.474,2.474,0,0,1,1.125-1.846,2.193,2.193,0,0,1,1.926-.289,3.733,3.733,0,0,1,1.286.834c.209.2.407.4.6.61a22.191,22.191,0,0,1,1.621,2.131c.341.489.682.979,1.05,1.444a24.454,24.454,0,0,0,2.763,2.941c2.706,2.478,3.245,2.9,3.266,2.923a.322.322,0,0,1,.056.455.327.327,0,0,1-.257.126" transform="translate(31.096 18.369)" fill="#1a1a1a"/>
        <path id="Trazado_599082" data-name="Trazado 599082" d="M174.444,112.243a3.6,3.6,0,0,1-1.191-2.8,2.063,2.063,0,0,1,1.049-2.025.327.327,0,0,1,.327.565,1.42,1.42,0,0,0-.726,1.46,3.765,3.765,0,0,0,.786,2.256.326.326,0,0,1-.245.54" transform="translate(30.015 18.602)" fill="#1a1a1a"/>
        <path id="Trazado_599083" data-name="Trazado 599083" d="M182.65,118.308c-.224-.088-10.677-9.941-10.677-9.941-.013-.46,15.47-16.889,15.47-16.889a.325.325,0,0,1,.461-.013l10.451,9.849a.328.328,0,0,1,.013.462l-10,10.61a.326.326,0,1,1-.474-.448l9.774-10.373-9.976-9.4-15.036,15.954,9.978,9.4,1.648-1.752a.326.326,0,0,1,.474.448l-1.872,1.989c-.231.1-.235.1-.237.1" transform="translate(29.793 15.83)" fill="#1a1a1a"/>
        <path id="Trazado_599084" data-name="Trazado 599084" d="M177.884,107.186c-.355-.211-.361-.418-.237-.55L187.128,96.6a.326.326,0,1,1,.474.448l-9.482,10.039a.33.33,0,0,1-.236.1" transform="translate(30.763 16.717)" fill="#1a1a1a"/>
        <path id="Trazado_599085" data-name="Trazado 599085" d="M183.074,107.642c-.355-.211-.36-.418-.237-.549l7.132-7.552a.326.326,0,1,1,.474.447l-7.132,7.553a.33.33,0,0,1-.237.1" transform="translate(31.662 17.227)" fill="#1a1a1a"/>
        <path id="Trazado_599086" data-name="Trazado 599086" d="M179.888,117.466a40.724,40.724,0,0,1-5.829-5.971.326.326,0,0,1,.513-.4,43.292,43.292,0,0,0,5.524,5.795.328.328,0,0,1,.045.459.323.323,0,0,1-.252.119" transform="translate(30.142 19.225)" fill="#1a1a1a"/>
        <path id="Trazado_599087" data-name="Trazado 599087" d="M120.471,48.908h-6.35a1.878,1.878,0,0,1-1.877-1.875v-6.35a1.88,1.88,0,0,1,1.877-1.877h6.35a1.879,1.879,0,0,1,1.876,1.877v6.35a1.877,1.877,0,0,1-1.876,1.875m-6.35-9.45a1.226,1.226,0,0,0-1.226,1.226v6.35a1.226,1.226,0,0,0,1.226,1.225h6.35a1.227,1.227,0,0,0,1.226-1.225v-6.35a1.227,1.227,0,0,0-1.226-1.226Z" transform="translate(19.445 6.723)" fill="#1a1a1a"/>
        <path id="Trazado_599088" data-name="Trazado 599088" d="M120.471,62.209h-6.35a1.878,1.878,0,0,1-1.877-1.875V53.983a1.879,1.879,0,0,1,1.877-1.876h6.35a1.878,1.878,0,0,1,1.876,1.876v6.351a1.877,1.877,0,0,1-1.876,1.875m-6.35-9.452a1.227,1.227,0,0,0-1.226,1.226v6.351a1.227,1.227,0,0,0,1.226,1.225h6.35a1.227,1.227,0,0,0,1.226-1.225V53.983a1.228,1.228,0,0,0-1.226-1.226Z" transform="translate(19.445 9.027)" fill="#1a1a1a"/>
        <path id="Trazado_599089" data-name="Trazado 599089" d="M163.452,41.181H123.725a.325.325,0,1,1,0-.65h39.727a.325.325,0,1,1,0,.65" transform="translate(21.378 7.022)" fill="#1a1a1a"/>
        <path id="Trazado_599090" data-name="Trazado 599090" d="M163.452,46.236H123.725a.326.326,0,1,1,0-.651h39.727a.326.326,0,0,1,0,.651" transform="translate(21.378 7.897)" fill="#1a1a1a"/>
        <path id="Trazado_599091" data-name="Trazado 599091" d="M163.452,54.482H123.725a.326.326,0,1,1,0-.651h39.727a.326.326,0,0,1,0,.651" transform="translate(21.378 9.326)" fill="#1a1a1a"/>
        <path id="Trazado_599092" data-name="Trazado 599092" d="M163.452,59.536H123.725a.325.325,0,1,1,0-.65h39.727a.325.325,0,1,1,0,.65" transform="translate(21.378 10.202)" fill="#1a1a1a"/>
        <path id="Trazado_599093" data-name="Trazado 599093" d="M187.835,127.28a4.429,4.429,0,0,0-2.953-1.891A14.319,14.319,0,0,1,181.2,123.8a24.217,24.217,0,0,1-7.845-8.788c-1.517-3.123.646-4.4.669-4.411a.319.319,0,0,1,.444.121.324.324,0,0,1-.121.445c-.082.048-1.639,1.016-.4,3.562a23.47,23.47,0,0,0,7.608,8.519,13.426,13.426,0,0,0,3.521,1.522c1.36.42,2.433.752,3.053,2.05a.32.32,0,0,1-.153.433.3.3,0,0,1-.14.032" transform="translate(29.94 19.152)" fill="#1a1a1a"/>
        <path id="Trazado_599094" data-name="Trazado 599094" d="M35.453,117.667c-.368-.378-.285-.566-.116-.629.006-.006,1.389-.659,1.639-4.762.461-7.572,5.267-9.228,5.471-9.294a.327.327,0,0,1,.2.621c-.187.062-4.59,1.6-5.023,8.712-.277,4.523-1.876,5.261-2.058,5.33a.315.315,0,0,1-.116.022" transform="translate(6.097 17.838)" fill="#1a1a1a"/>
        <path id="Trazado_599095" data-name="Trazado 599095" d="M47.3,115.569c-.371-.354-.3-.547-.135-.622,4.692-2.122,8.478-5.28,9-7.508a1.831,1.831,0,0,0-.348-1.677,1.361,1.361,0,0,0-1.032-.546,3.647,3.647,0,0,0-1.808.734c-.588.38-1.158.811-1.713,1.227-.232.174-.462.348-.7.521-1.271.934-2.58,1.754-3.8,2.5-.307.188-.612.391-.921.594a13.241,13.241,0,0,1-2.481,1.4,2.3,2.3,0,0,1-1.274.165c-1.9-.384-1.816-2.864-1.775-4.055a.31.31,0,0,1,.336-.314.324.324,0,0,1,.314.336c-.05,1.543.059,3.151,1.254,3.4a1.705,1.705,0,0,0,.914-.138,12.726,12.726,0,0,0,2.352-1.332c.314-.21.628-.414.94-.605,1.213-.741,2.506-1.553,3.756-2.472.232-.17.461-.343.691-.515.563-.425,1.145-.865,1.753-1.254a4.147,4.147,0,0,1,2.158-.838,1.967,1.967,0,0,1,1.539.781,2.475,2.475,0,0,1,.481,2.24c-.672,2.857-5.327,6.124-9.37,7.952a.31.31,0,0,1-.133.028" transform="translate(6.982 18.116)" fill="#1a1a1a"/>
        <path id="Trazado_599096" data-name="Trazado 599096" d="M181.817,73.42c-.785,0-1.349-.154-1.483-.556-.217-.67.461-1.3,2.42-2.247a.325.325,0,0,1,.284.585c-2.148,1.038-2.1,1.42-2.084,1.46.289.312,3.194.117,7.913-1.428s7.174-3.109,7.224-3.55c-.008,0-.216-.292-2.186.021a.314.314,0,0,1-.371-.269.323.323,0,0,1,.268-.374c1.869-.3,2.716-.169,2.912.44a.665.665,0,0,1-.057.517c-.561,1.112-4.326,2.768-7.585,3.835-.252.082-4.816,1.565-7.255,1.565" transform="translate(31.235 11.591)" fill="#1a1a1a"/>
        <path id="Trazado_599097" data-name="Trazado 599097" d="M158.54,97.195h-7.729a.323.323,0,0,1-.325-.325v-24a.323.323,0,0,1,.325-.325h7.729a.323.323,0,0,1,.325.325v7.709a.326.326,0,1,1-.651,0V73.195h-7.078v23.35h7.078V89.477a.326.326,0,1,1,.651,0V96.87a.323.323,0,0,1-.325.325" transform="translate(26.071 12.568)" fill="#1a1a1a"/>
        <path id="Trazado_599098" data-name="Trazado 599098" d="M169.559,95.856h-7.727a.323.323,0,0,1-.325-.325V80.6a.323.323,0,0,1,.325-.325h7.727a.323.323,0,0,1,.325.325V95.531a.324.324,0,0,1-.325.325m-7.4-.651h7.077V80.921h-7.077Z" transform="translate(27.98 13.906)" fill="#1a1a1a"/>
        <path id="Trazado_599099" data-name="Trazado 599099" d="M180.579,95.055h-7.727a.323.323,0,0,1-.325-.325V88.818a.326.326,0,1,1,.651,0v5.587h7.076v-8.86h-4.9a.326.326,0,0,1,0-.651h5.223a.324.324,0,0,1,.326.325V94.73a.324.324,0,0,1-.326.325" transform="translate(29.889 14.707)" fill="#1a1a1a"/>
        <path id="Trazado_599100" data-name="Trazado 599100" d="M31.713,51.335a5.5,5.5,0,0,1-.368-2.2.326.326,0,0,1,.651,0c0,.616.012,1.235.042,1.86a.326.326,0,0,1-.31.34Z" transform="translate(5.43 8.456)" fill="#1a1a1a"/>
        <path id="Trazado_599101" data-name="Trazado 599101" d="M31.843,54.135a.331.331,0,0,1-.324-.359,37.661,37.661,0,0,1,.594-3.77.325.325,0,0,1,.637.134c-.257,1.235-.453,2.48-.584,3.705a.323.323,0,0,1-.323.29m1.545-7.395c-.27-.069-.365-.252-.311-.422.374-1.2.813-2.4,1.3-3.582a.332.332,0,0,1,.427-.176.327.327,0,0,1,.176.427c-.483,1.163-.915,2.349-1.286,3.524a.323.323,0,0,1-.31.229m2.9-6.977c-.311-.121-.373-.317-.289-.476.577-1.1,1.217-2.213,1.9-3.3a.326.326,0,1,1,.55.35c-.673,1.071-1.306,2.166-1.876,3.253a.324.324,0,0,1-.289.175m4.031-6.4c-.338-.172-.368-.375-.262-.52.749-1.005,1.551-2.005,2.382-2.971a.334.334,0,0,1,.461-.035.33.33,0,0,1,.034.461c-.822.955-1.616,1.942-2.355,2.933a.325.325,0,0,1-.26.131m74.359-3.194c-.367,0-.757-.019-1.185-.06a11.124,11.124,0,0,1-1.613-.268.326.326,0,0,1,.154-.634,10.34,10.34,0,0,0,1.523.25,9.367,9.367,0,0,0,2.119,0,.332.332,0,0,1,.365.283.324.324,0,0,1-.282.364,8.615,8.615,0,0,1-1.081.065m4.191-1.907c-.323-.142-.372-.343-.277-.5a4.314,4.314,0,0,0,.59-2.262,5.494,5.494,0,0,0-.123-1.159.326.326,0,0,1,.638-.134,6.064,6.064,0,0,1,.135,1.3,4.98,4.98,0,0,1-.684,2.6.327.327,0,0,1-.279.155m-10.152-.231a2.745,2.745,0,0,1-.869-1.219,4.146,4.146,0,0,1-.226-1.386,6.077,6.077,0,0,1,.175-1.391.315.315,0,0,1,.393-.242.327.327,0,0,1,.242.392,5.438,5.438,0,0,0-.158,1.241,3.433,3.433,0,0,0,.192,1.165,3.194,3.194,0,0,0,.506.912.325.325,0,0,1-.052.458.314.314,0,0,1-.2.07m-63.457-.4c-.358-.222-.358-.426-.23-.556.879-.885,1.809-1.762,2.769-2.608a.318.318,0,0,1,.459.028.322.322,0,0,1-.028.459c-.948.838-1.868,1.706-2.738,2.582a.325.325,0,0,1-.231.1m5.671-5.007c-.368-.27-.343-.474-.2-.584,1.014-.783,2.051-1.531,3.084-2.227a.325.325,0,1,1,.365.539c-1.023.689-2.048,1.43-3.048,2.206a.332.332,0,0,1-.2.067m66.68-1.327a27.467,27.467,0,0,0-2.965-2.634.327.327,0,0,1-.066-.456.331.331,0,0,1,.458-.065,17.261,17.261,0,0,1,2.823,2.621.326.326,0,0,1-.041.459.32.32,0,0,1-.209.075m-8.085-.363c-.313-.12-.373-.318-.289-.478a23.916,23.916,0,0,1,2.061-3.23.326.326,0,1,1,.522.392,23.14,23.14,0,0,0-2.006,3.144.328.328,0,0,1-.289.171M57.2,18.392c-.372-.317-.32-.515-.163-.609,1.092-.638,2.217-1.251,3.343-1.815a.325.325,0,0,1,.292.581c-1.112.561-2.226,1.166-3.307,1.8a.319.319,0,0,1-.164.043m54.417-1.638c-1.252-.618-2.392-1.167-3.539-1.666a.327.327,0,0,1,.259-.6c1.164.507,2.316,1.063,3.433,1.652a.325.325,0,0,1-.154.614M63.969,15c-.371-.365-.293-.556-.128-.625,1.146-.483,2.324-.933,3.5-1.334a.355.355,0,0,1,.439.178,25.873,25.873,0,0,1-3.68,1.755.344.344,0,0,1-.127.026m50.083-.093c-.358-.222-.358-.427-.231-.556a33.136,33.136,0,0,1,2.849-2.545.325.325,0,1,1,.4.508,33.323,33.323,0,0,0-2.792,2.5.327.327,0,0,1-.23.1m72.638-1.166c-1.131-.947-2.081-1.782-3.054-2.564a.33.33,0,0,1-.049-.46.335.335,0,0,1,.459-.049c.986.8,1.95,1.64,2.869,2.511a.326.326,0,0,1,.013.461.33.33,0,0,1-.237.1m-82-.007c-1.288-.428-2.5-.8-3.7-1.125a.327.327,0,0,1-.23-.4.32.32,0,0,1,.4-.231c1.219.33,2.444.706,3.639,1.123a.325.325,0,0,1-.108.632M71.127,12.558c-.363-.416-.257-.595-.084-.641,1.235-.326,2.485-.611,3.711-.848a.327.327,0,1,1,.124.642c-1.212.232-2.447.515-3.668.837a.29.29,0,0,1-.083.011m26.257-.8c-1.285-.248-2.535-.455-3.777-.616a.327.327,0,0,1-.279-.367.318.318,0,0,1,.366-.279c1.253.163,2.519.372,3.753.618a.325.325,0,0,1-.063.644M78.553,11.12c-.346-.465-.219-.625-.04-.65,1.239-.157,2.512-.279,3.786-.359a.326.326,0,0,1,.042.651c-1.26.079-2.52.2-3.747.354a.162.162,0,0,1-.041,0m11.332-.348c-1.255-.079-2.521-.122-3.781-.124a.326.326,0,0,1,0-.651c1.275,0,2.556.043,3.8.126a.325.325,0,0,1-.022.65m30.049-.605c-.371-.3-.33-.5-.178-.6,1.035-.685,2.136-1.345,3.266-1.964a.326.326,0,1,1,.314.57c-1.117.612-2.2,1.265-3.224,1.937a.309.309,0,0,1-.178.054M180.8,8.992c-1.215-.763-2.287-1.435-3.365-2.052a.327.327,0,1,1,.324-.568c1.093.629,2.18,1.309,3.226,2.025a.325.325,0,0,1-.185.595M126.554,6.5c-.371-.353-.3-.547-.138-.623,1.136-.529,2.312-1.036,3.5-1.5a.326.326,0,1,1,.24.605c-1.172.465-2.336.964-3.46,1.489a.349.349,0,0,1-.138.032m47.685-1.267c-1.28-.566-2.445-1.056-3.6-1.485a.326.326,0,0,1,.229-.611c1.172.435,2.354.933,3.509,1.476a.326.326,0,0,1-.137.621M133.59,3.7c-.367-.394-.273-.578-.1-.635,1.2-.4,2.425-.767,3.646-1.09a.33.33,0,0,1,.4.233.324.324,0,0,1-.23.4c-1.211.319-2.424.68-3.607,1.077a.317.317,0,0,1-.1.016m33.564-1.1c-.492-.126-.9-.231-1.306-.331-.793-.2-1.614-.378-2.44-.542a.326.326,0,0,1,.124-.639c.84.165,1.67.35,2.471.548q.625.155,1.238.323a.327.327,0,0,1-.087.642M140.9,1.772c-.355-.439-.239-.61-.062-.645,1.237-.244,2.5-.452,3.753-.617a.313.313,0,0,1,.366.28.324.324,0,0,1-.279.365c-1.241.165-2.491.371-3.716.611a.279.279,0,0,1-.062.006m18.833-.648q-1.92-.243-3.786-.36a.326.326,0,0,1-.306-.345.346.346,0,0,1,.345-.306c1.262.08,2.535.2,3.788.363a.325.325,0,0,1,.283.364.329.329,0,0,1-.324.285M148.4.787c-.339-.485-.2-.641-.022-.652,1.255-.086,2.535-.13,3.8-.135a.327.327,0,0,1,0,.653c-1.258,0-2.524.048-3.764.131l-.022,0" transform="translate(5.46)" fill="#1a1a1a"/>
        <path id="Trazado_599102" data-name="Trazado 599102" d="M167.357,15.61a19.581,19.581,0,0,1-1.461-1.526.327.327,0,0,1,.487-.436c.418.469.826.944,1.225,1.43a.325.325,0,0,1-.251.533" transform="translate(28.726 2.345)" fill="#1a1a1a"/>
        <path id="Trazado_599103" data-name="Trazado 599103" d="M36.507,98.269a6.073,6.073,0,0,1-1.438-.188c-4.382-1.071-6.8-7.533-6.9-7.807a.324.324,0,0,1,.195-.418.329.329,0,0,1,.418.194c.023.065,2.4,6.408,6.44,7.4a3.593,3.593,0,0,0,3.307-.521c1.926-1.6,1.728-5.485,1.727-5.525.611-.181,2.708,2.7,4.943,2.889a2.666,2.666,0,0,0,2.172-.867,2.792,2.792,0,0,0,.874-2.118C48.21,89.158,46.1,86.128,41.97,82.3a.326.326,0,1,1,.443-.479c4.325,4.012,6.445,7.113,6.485,9.477a3.46,3.46,0,0,1-1.066,2.591,3.411,3.411,0,0,1-2.686,1.055c-1.787-.15-3.406-1.7-4.24-2.641-.059,1.353-.391,3.826-1.957,5.129a3.693,3.693,0,0,1-2.442.839" transform="translate(4.877 14.16)" fill="#1a1a1a"/>
        <path id="Trazado_599104" data-name="Trazado 599104" d="M221.379,59.836c-.36-.232-.352-.439-.223-.562a14.308,14.308,0,0,1,3.3-2.349.326.326,0,1,1,.246.6,13.984,13.984,0,0,0-3.095,2.22.327.327,0,0,1-.224.088" transform="translate(38.3 9.857)" fill="#1a1a1a"/>
        <path id="Trazado_599105" data-name="Trazado 599105" d="M135.869,72.394c-.346-.185-.367-.391-.255-.531l1.6-1.985a.326.326,0,1,1,.508.408l-1.6,1.987a.326.326,0,0,1-.253.121" transform="translate(23.484 12.085)" fill="#1a1a1a"/>
        <path id="Trazado_599106" data-name="Trazado 599106" d="M39.392,57.962a22.69,22.69,0,0,0-3.686-1.612.325.325,0,0,1-.25-.388.329.329,0,0,1,.387-.249,18.025,18.025,0,0,1,3.711,1.641.325.325,0,0,1-.162.608" transform="translate(6.141 9.651)" fill="#1a1a1a"/>
        <path id="Trazado_599107" data-name="Trazado 599107" d="M71.193,84.432a6.805,6.805,0,0,1,.567-5.346.326.326,0,0,1,.546.358,6.824,6.824,0,0,0-.792,4.6.329.329,0,0,1-.26.382c-.021,0-.041,0-.06,0" transform="translate(12.285 13.676)" fill="#1a1a1a"/>
        <path id="Trazado_599108" data-name="Trazado 599108" d="M183.826,113.76h-1.973a.325.325,0,1,1,0-.65h1.973a.325.325,0,1,1,0,.65" transform="translate(31.448 19.595)" fill="#1a1a1a"/>
        <path id="Trazado_599109" data-name="Trazado 599109" d="M210.415,113.76H189.427a.325.325,0,0,1,0-.65h20.988a.325.325,0,0,1,0,.65" transform="translate(32.76 19.595)" fill="#1a1a1a"/>
        <path id="Trazado_599110" data-name="Trazado 599110" d="M228.567,58.418a.323.323,0,0,1-.325-.326V37.939a7.506,7.506,0,0,0-7.5-7.5H204.237a.326.326,0,0,1,0-.651h16.509a8.158,8.158,0,0,1,8.148,8.149V58.092a.325.325,0,0,1-.326.326" transform="translate(35.326 5.161)" fill="#1a1a1a"/>
        <path id="Trazado_599111" data-name="Trazado 599111" d="M103.807,80.6a.324.324,0,0,1-.325-.326V37.939a8.156,8.156,0,0,1,8.148-8.149h59.36a.326.326,0,1,1,0,.651H111.63a7.507,7.507,0,0,0-7.5,7.5V80.276a.324.324,0,0,1-.325.326" transform="translate(17.927 5.161)" fill="#1a1a1a"/>
        <path id="Trazado_599112" data-name="Trazado 599112" d="M174.305,113.76h-6.936a.325.325,0,0,1,0-.65h6.936a.325.325,0,1,1,0,.65" transform="translate(28.939 19.595)" fill="#1a1a1a"/>
        <path id="Trazado_599113" data-name="Trazado 599113" d="M127.157,83.345c-1.515-.244-1.108-2.913-1.056-3.217a.307.307,0,0,1,.375-.266.324.324,0,0,1,.266.374c-.155.937-.144,2.365.378,2.454.649-.4.961-1.8,1.051-2.608a.3.3,0,0,1,.36-.286.323.323,0,0,1,.286.36c-.026.242-.286,2.372-1.111,3a.906.906,0,0,1-.55.191" transform="translate(21.831 13.823)" fill="#1a1a1a"/>
        <path id="Trazado_599114" data-name="Trazado 599114" d="M133.725,83.518c-1.526-.28-1.058-2.939-1-3.243a.348.348,0,0,1,.381-.259.328.328,0,0,1,.26.382c-.178.934-.2,2.363.317,2.463.657-.386,1.005-1.78,1.112-2.579a.336.336,0,0,1,.366-.282.329.329,0,0,1,.28.367c-.033.242-.343,2.365-1.185,2.971a.9.9,0,0,1-.533.18" transform="translate(22.974 13.859)" fill="#1a1a1a"/>
        <path id="Trazado_599115" data-name="Trazado 599115" d="M215.274,144.03c-.886-5.061,2.6-9.713,7.959-11.346,4.617-1.407,9.488-.149,12.117,3.128a.327.327,0,1,1-.509.409c-2.465-3.075-7.064-4.246-11.418-2.913-4.978,1.516-8.342,5.969-7.827,10.359a.323.323,0,0,1-.284.361.228.228,0,0,1-.039,0" transform="translate(37.271 22.888)" fill="#1a1a1a"/>
      </g>
    </g>
  </g>
</svg>
