<svg id="Grupo_1015266" data-name="Grupo 1015266" xmlns="http://www.w3.org/2000/svg" xmlns:xlink="http://www.w3.org/1999/xlink" width="190" height="286.5" viewBox="0 0 190 286.5">
  <defs>
    <clipPath id="clip-path">
      <rect id="Rectángulo_345816" data-name="Rectángulo 345816" width="190" height="286.5" fill="none"/>
    </clipPath>
    <clipPath id="clip-path-2">
      <rect id="Rectángulo_345817" data-name="Rectángulo 345817" width="171.381" height="190.526" transform="translate(12.5 26.869)" fill="none"/>
    </clipPath>
    <clipPath id="clip-path-4">
      <rect id="Rectángulo_345819" data-name="Rectángulo 345819" width="136.149" height="23.237" transform="translate(39.038 204.879)" fill="none"/>
    </clipPath>
  </defs>
  <g id="Grupo_1015257" data-name="Grupo 1015257">
    <g id="Grupo_1015256" data-name="Grupo 1015256" clip-path="url(#clip-path)">
      <path id="Trazado_605695" data-name="Trazado 605695" d="M30.5,225h129a30.5,30.5,0,0,1,0,61H30.5a30.5,30.5,0,0,1,0-61" fill="#e3ecf7"/>
      <path id="Trazado_605696" data-name="Trazado 605696" d="M179.776,183.3l4.1-6.251,4.966,74.457-4.966,7.087-2.026-7.276Z" fill="#fff5c5"/>
      <path id="Trazado_605697" data-name="Trazado 605697" d="M179.776,183.3l4.1-6.251,4.966,74.457-4.966,7.087-2.026-7.276Z" fill="none" stroke="#1a1a1a" stroke-linecap="round" stroke-linejoin="round" stroke-width="1"/>
      <path id="Trazado_605698" data-name="Trazado 605698" d="M139.484,134.719s9.347.85,14.1,0S165.272,143,165.272,143s.708,3.554,0,4.4-4.607,1.2-4.607,1.2-2.834,2.693-3.047,3.614-.5,4.465-2.764,4.677a11.462,11.462,0,0,1-3.189,0s-.85,2.906-2.267,2.906-5.882-2.622-5.882-2.622l-1.418-1.559s-6.023-1.489-6.023-2.126-.213-9.78-.071-10.134S139.484,134.719,139.484,134.719Z" fill="none" stroke="#1a1a1a" stroke-miterlimit="10" stroke-width="1"/>
      <path id="Trazado_605699" data-name="Trazado 605699" d="M149.965,138.05s3.827,2.764,4.394,3.26,6.165,5.925,6.165,5.925.5,5.272.5,6.122.425,4.606-1.488,4.11-5.1-4.606-5.244-6.165-3.517-2.906-3.517-2.906-6.9,1.63-8.389.78" fill="#fff"/>
      <path id="Trazado_605700" data-name="Trazado 605700" d="M149.965,138.05s3.827,2.764,4.394,3.26,6.165,5.925,6.165,5.925.5,5.272.5,6.122.425,4.606-1.488,4.11-5.1-4.606-5.244-6.165-3.517-2.906-3.517-2.906-6.9,1.63-8.389.78" fill="none" stroke="#1a1a1a" stroke-miterlimit="10" stroke-width="1"/>
      <path id="Trazado_605701" data-name="Trazado 605701" d="M143.516,157.184c-.732-.78-.827-3.425-.827-3.425a12.276,12.276,0,0,1,.662-2.5c.378-.756,2.078-.709,2.078-.709" fill="none" stroke="#1a1a1a" stroke-miterlimit="10" stroke-width="1"/>
      <path id="Trazado_605702" data-name="Trazado 605702" d="M151.665,156.9s-3.921-2.127-4.441-3.036-2.244-3.524-2.067-4.508" fill="none" stroke="#1a1a1a" stroke-miterlimit="10" stroke-width="1"/>
      <path id="Trazado_605703" data-name="Trazado 605703" d="M154.958,152.956a20.879,20.879,0,0,1-3.293-1.37,9.866,9.866,0,0,1-2.759-2.794" fill="none" stroke="#1a1a1a" stroke-miterlimit="10" stroke-width="1"/>
      <path id="Trazado_605704" data-name="Trazado 605704" d="M155.344,142.238s3.833-1.351,6.29.762,6.992,16.806,6.992,16.806l4.63,17.244h-1.795L164.3,153.129s-2.666-8.3-3.8-8.866a5.4,5.4,0,0,0-3.084-.034Z" fill="#9eca7c"/>
      <path id="Trazado_605705" data-name="Trazado 605705" d="M155.344,142.238s3.833-1.351,6.29.762,6.992,16.806,6.992,16.806l4.63,17.244h-1.795L164.3,153.129s-2.666-8.3-3.8-8.866a5.4,5.4,0,0,0-3.084-.034Z" fill="none" stroke="#1a1a1a" stroke-miterlimit="10" stroke-width="1"/>
      <path id="Trazado_605706" data-name="Trazado 605706" d="M145.145,158.389l-7.228,18.661H135.6l7.087-18.661.425-.876Z" fill="#9eca7c"/>
      <path id="Trazado_605707" data-name="Trazado 605707" d="M145.145,158.389l-7.228,18.661H135.6l7.087-18.661.425-.876Z" fill="none" stroke="#1a1a1a" stroke-miterlimit="10" stroke-width="1"/>
      <path id="Trazado_605708" data-name="Trazado 605708" d="M123.357,177.05h60.524v81.543H119.492Z" fill="#fff5c5"/>
      <path id="Trazado_605709" data-name="Trazado 605709" d="M123.357,177.05h60.524v81.543H119.492Z" fill="none" stroke="#1a1a1a" stroke-miterlimit="10" stroke-width="1"/>
      <path id="Trazado_605710" data-name="Trazado 605710" d="M80.895,185.28l8.37,21.257s2.259,41.5,2.512,53.9,0,25.56,0,25.56H19.148s-2.531-76.425,8.6-93.38,53.147-7.337,53.147-7.337" fill="#1a1a1a"/>
      <path id="Trazado_605711" data-name="Trazado 605711" d="M103.571,143l33.444-7.71,1.189-.274,1.28.554v18.295l-2.344,1.321L91.89,173.058l-.6,40.077s-42.144,2.513-47.2,2.513-17.433-1.606-20.079-3.968l-.567-.189v-9.237l-10.945.5v-49.11l-.181-1.359.181-5.114,5.193-26.3s5.51-18.61,10.97-24.3c0,0,7.465-13.474,27.887-11.58l6.5,8.273s6.059,6.307,7.052,2.515.212-9.389.212-9.389.745-1.621,6.662-.284,16.094,4.644,19.633,12.137,4.414,23.438,4.414,23.438l2.728,21.01.957.31,34.779-8.281" fill="#33ece0"/>
    </g>
  </g>
  <g id="Grupo_1015259" data-name="Grupo 1015259">
    <g id="Grupo_1015258" data-name="Grupo 1015258" clip-path="url(#clip-path-2)">
      <path id="Trazado_605712" data-name="Trazado 605712" d="M92.2,154.064v59.4s-14.641,5.955-41.448,3.207c0,0,30.233,1.03,39.5-4.188l1.169-59.019Z" fill="#1a1a1a"/>
      <path id="Trazado_605713" data-name="Trazado 605713" d="M88.856,90.047s2.67-2.575-.261-7.743-5.073-5.2-4.932-7.486.954-4.885,3.371-8.21,3.847-7.436,3.3-13.69-3.489-8.686-7.406-10.693-10.75-6.008-17.28-1.388c0,0-14.8,2.161-16.139,5.692s-1.063,13.791-.735,16.379S49.557,73.887,45.792,76s-6.768,2.5-9.428,3.106-9.524,6.88-6.453,16.2c0,0,7.7-9.345,15.654-9.851s10.984-.47,10.984-.47l14.58.468a33.957,33.957,0,0,1,17.728,4.591" fill="#1a1a1a"/>
      <path id="Trazado_605714" data-name="Trazado 605714" d="M80.622,61.469c-.328-.124-.585-.027-.941,1.175-.394,1.341-.091,1.655.217,1.706s.7-.3.893-1.282.259-1.436-.169-1.6" fill="#1a1a1a"/>
      <path id="Trazado_605715" data-name="Trazado 605715" d="M70.895,59.138c-.331-.116-.587-.011-.908,1.2-.362,1.352-.05,1.659.259,1.7s.7-.322.859-1.3.223-1.445-.209-1.6" fill="#1a1a1a"/>
      <path id="Trazado_605716" data-name="Trazado 605716" d="M71.962,79.3l-1.556,6.778s1.1,11.346-1.693,11.074S56.55,84.99,56.55,84.99l4.264-16.655s-5.46.118-4.353-5.578S63.128,59.9,63.128,59.9s3.169-2.588,3.7-5.8,1.152-6.06,1.152-6.06,3.872,4.22,8.579,5.326A12.248,12.248,0,0,1,83.437,57.5L80.078,73.135S77.8,81.181,71.962,79.3" fill="#fff"/>
      <path id="Trazado_605717" data-name="Trazado 605717" d="M80.965,62.949c-.329-.126-.585-.029-.941,1.175-.392,1.341-.09,1.655.219,1.706s.7-.3.891-1.282.261-1.438-.169-1.6" fill="#1a1a1a"/>
      <path id="Trazado_605718" data-name="Trazado 605718" d="M71.249,60.547c-.324-.135-.585-.046-.979,1.145-.44,1.325-.147,1.651.16,1.714s.714-.282.935-1.251.309-1.43-.116-1.607" fill="#1a1a1a"/>
      <path id="Trazado_605719" data-name="Trazado 605719" d="M88.861,90.047s2.67-2.575-.261-7.743-5.078-5.2-4.939-7.489a12.2,12.2,0,0,1,.655-3.194c-.253-.194-2.483,1.411-1.552,5.812.758,3.588,1.874,7.774.84,10.114a30.8,30.8,0,0,1,5.25,2.5" fill="#fff"/>
      <path id="Trazado_605720" data-name="Trazado 605720" d="M68.918,39.2c.017.086,14.273,1.59,17.337,10.718a34.242,34.242,0,0,1,.8,16.665c2.4-3.319,3.828-7.429,3.279-13.666-.552-6.254-3.489-8.688-7.406-10.693-3.27-1.672-8.556-4.728-14.01-3.024" fill="#fff"/>
      <path id="Trazado_605721" data-name="Trazado 605721" d="M60.565,59.1c-5.342.935,4.121,5.989,4.121,5.989s5.5-8.922,5.505-9.169-2.542-8.309-2.542-8.309S65.9,58.167,60.565,59.1" fill="#fff"/>
      <path id="Trazado_605722" data-name="Trazado 605722" d="M95.733,96.877c-5.439-6.789-16.482-11.622-24.916-10.922,8.686-1.584,20.011,3.4,25.263,10.222-.16.67-.253.7-.347.7" fill="#1a1a1a"/>
      <path id="Trazado_605723" data-name="Trazado 605723" d="M73.808,79.828a11.324,11.324,0,0,1-2.88-.428c-1.417-.373-3.475-.994-4.885-1.543a13.229,13.229,0,0,1,5.1.7,9,9,0,0,0,3.494.347,5.009,5.009,0,0,0,3.8-2.966,20.951,20.951,0,0,0,1.965-5.8c.2-1,.463-2.329.741-3.759.7-3.613,1.5-7.707,1.874-9,.478,1.5-.354,5.755-1.023,9.169-.278,1.432-.537,2.763-.743,3.765a21.757,21.757,0,0,1-2.047,6.033,5.808,5.808,0,0,1-4.445,3.418,6.9,6.9,0,0,1-.952.063" fill="#1a1a1a"/>
      <path id="Trazado_605724" data-name="Trazado 605724" d="M60.862,68.772a4.86,4.86,0,0,1-1.158-.139,4.96,4.96,0,1,1,4.81-8.177,9.759,9.759,0,0,1-2.7-.625,4.092,4.092,0,1,0,.282,7.882c-.225.983-.726,1.059-1.23,1.059" fill="#1a1a1a"/>
      <path id="Trazado_605725" data-name="Trazado 605725" d="M59.486,66.336c-.2-.819,2.7-2.352,2.7-2.352l-2.5-2.62c.63-.6,3.527,2.438,3.527,2.438-.112.684-3.527,2.483-3.527,2.483a.41.41,0,0,1-.2.051" fill="#1a1a1a"/>
      <path id="Trazado_605726" data-name="Trazado 605726" d="M73.22,73.194a3.335,3.335,0,0,1-2.436-.886,4.112,4.112,0,0,1-1.019-2.98c.863.08.769,1.52,1.634,2.361a2.712,2.712,0,0,0,2.292.612c-.11.884-.293.893-.468.893" fill="#1a1a1a"/>
      <path id="Trazado_605727" data-name="Trazado 605727" d="M68.638,97.583c-3.9,0-11.546-11.03-12.445-12.35-.063-.352,4.178-16.9,4.178-16.9.844.217-3.352,16.568-3.352,16.568,3.455,5.034,9.63,12.561,11.914,11.768,1.516-.526,1.478-6.267.962-10.175.008-.156,1.643-7.288,1.643-7.288.849.2-.769,7.252-.769,7.252.238,1.855,1.139,10.1-1.55,11.032a1.763,1.763,0,0,1-.581.093" fill="#1a1a1a"/>
      <path id="Trazado_605728" data-name="Trazado 605728" d="M84.6,61.006c-.434-.619-.5-4.946-7.473-7.01-5.2-1.541-7.734-3.643-8.821-4.831-.326,2.668-1.5,9.354-5.2,11.02,3.74-2.632,4.433-12.081,4.439-12.174.832-.152,2.725,3.047,9.828,5.153,7.635,2.26,7.665,7.2,7.661,7.414a.434.434,0,0,1-.434.428" fill="#1a1a1a"/>
      <path id="Trazado_605729" data-name="Trazado 605729" d="M82.763,60.889c-.411-.289-.781-1.026-1.906-1.026,1.621-1.019,2.274.354,2.3.415-.276.6-.335.611-.394.611" fill="#1a1a1a"/>
      <path id="Trazado_605730" data-name="Trazado 605730" d="M75.2,57.935a5.428,5.428,0,0,0-5.509-.423c3.449-2.367,5.705-.421,5.8-.335-.05.708-.169.758-.289.758" fill="#1a1a1a"/>
      <path id="Trazado_605731" data-name="Trazado 605731" d="M29.912,95.741c-2.822-7.01-.017-14.048,6.263-17.027a21.49,21.49,0,0,1,4.4-1.352c2.255-.522,4.386-1.013,5.964-2.483,2.064-1.923,2.39-4.9,2.4-6.5a27.891,27.891,0,0,0-.468-4.549c-.149-.948-.3-1.935-.394-2.919a57.242,57.242,0,0,1-.259-7.612c.133-3.319.251-6.42,2.624-8.7a11.05,11.05,0,0,1,4.9-2.428,46.585,46.585,0,0,1,5.309-.95,10.9,10.9,0,0,1,2.1-.152,4.129,4.129,0,0,0,2.392-.375c.067-.055,6.825-5.9,18.356,1.379,7.553,4.77,7.619,8.7,7.067,16.423-.27,3.776-2.222,6.873-3.942,9.606-1.756,2.79-3.272,5.2-2.285,7.381a17.689,17.689,0,0,0,2.5,3.668c2.388,2.954,4.856,6.008,2.274,11.407,1.56-5.279-.63-7.993-2.946-10.862a18.433,18.433,0,0,1-2.615-3.854c-1.181-2.607.451-5.2,2.342-8.2,1.666-2.647,3.554-5.644,3.8-9.206.547-7.572.486-11.112-6.661-15.627C72.1,35.9,65.964,41.115,65.709,41.342a4.529,4.529,0,0,1-2.982.59,8.649,8.649,0,0,0-1.183.03A53.637,53.637,0,0,0,55.561,43a9.718,9.718,0,0,0-4.514,2.213C48.927,47.256,48.815,50.046,48.7,53a56.889,56.889,0,0,0,.238,7.821c.09.958.244,1.927.392,2.864a28.725,28.725,0,0,1,.476,4.69,9.651,9.651,0,0,1-2.676,7.134c-1.75,1.63-4.092,2.173-6.362,2.695A20.765,20.765,0,0,0,36.547,79.5c-5.961,2.828-8.52,9.267-6.227,15.659-.309.575-.358.583-.408.583" fill="#1a1a1a"/>
      <path id="Trazado_605732" data-name="Trazado 605732" d="M76.393,70.916c.809-.916,1.442-1.522,1.744-1.878a2.886,2.886,0,0,0,.647-1.169c-.44-.293-1.862-1.325-2.053-2.531a41.858,41.858,0,0,1,.328-5.684c.727,1.337.4,4.74.528,5.549.12.739,1.152,1.623,1.775,2.007.156.1.4.343.249.931a3.974,3.974,0,0,1-3.2,2.773h-.023" fill="#1a1a1a"/>
      <path id="Trazado_605733" data-name="Trazado 605733" d="M66.814,45.29a14.321,14.321,0,0,1-1.47-2.817c.8-.335,1.87,2.215,1.87,2.215-.288.59-.345.6-.4.6" fill="#1a1a1a"/>
    </g>
  </g>
  <g id="Grupo_1015261" data-name="Grupo 1015261">
    <g id="Grupo_1015260" data-name="Grupo 1015260" clip-path="url(#clip-path)">
      <path id="Trazado_605734" data-name="Trazado 605734" d="M123.542,61.121h50.149a10.223,10.223,0,0,0,10.194-10.2V24.2A10.223,10.223,0,0,0,173.691,14H123.542a10.223,10.223,0,0,0-10.194,10.2V50.925a10.223,10.223,0,0,0,10.194,10.2" fill="#a3bfe4"/>
      <path id="Trazado_605735" data-name="Trazado 605735" d="M123.357,44.051a7.077,7.077,0,1,1-7.077-7.077,7.076,7.076,0,0,1,7.077,7.077" fill="#fff"/>
      <path id="Trazado_605736" data-name="Trazado 605736" d="M164.328,68.045c5.509-.868,9.988-5.349,9.988-10.857V30.913a10,10,0,0,0-9.988-9.987h-49.69a10,10,0,0,0-9.99,9.987V57.189a10,10,0,0,0,9.99,9.987h28.294c0,.868-28.3.868-28.3.868a10.869,10.869,0,0,1-10.856-10.855V30.913a10.87,10.87,0,0,1,10.857-10.857h49.69a10.871,10.871,0,0,1,10.859,10.857V57.189a10.869,10.869,0,0,1-10.859,10.856" fill="#1a1a1a"/>
      <path id="Trazado_605737" data-name="Trazado 605737" d="M116.279,51.563a7.511,7.511,0,1,1,7.513-7.511,7.511,7.511,0,0,1-7.513,7.511m0-14.153a6.641,6.641,0,1,0,6.644,6.642,6.641,6.641,0,0,0-6.644-6.642" fill="#1a1a1a"/>
      <path id="Trazado_605738" data-name="Trazado 605738" d="M167.449,39.421H129.6c0-.87,37.845-.87,37.845-.87.434.676.238.87,0,.87" fill="#1a1a1a"/>
      <path id="Trazado_605739" data-name="Trazado 605739" d="M167.449,49.295H129.6c0-.87,37.845-.87,37.845-.87.434.676.238.87,0,.87" fill="#1a1a1a"/>
      <path id="Trazado_605740" data-name="Trazado 605740" d="M49.949,106.94c-5.858,7.37-6.992,39.685-6.992,39.685l-9.638,55.181-20.819.945V152.483s-1.008-5.433,5.323-32.126c7.2-30.37,24-33.826,24-33.826S53.918,84.168,56.941,85.4" fill="none" stroke="#1a1a1a" stroke-miterlimit="10" stroke-width="1"/>
      <path id="Trazado_605741" data-name="Trazado 605741" d="M80.232,86.6s16.654,3.827,18.921,18.921S103.781,143,103.781,143l35.7-8.281v19.559L91.889,172.7V129.652" fill="none" stroke="#1a1a1a" stroke-miterlimit="10" stroke-width="1"/>
    </g>
  </g>
  <g id="Grupo_1015263" data-name="Grupo 1015263">
    <g id="Grupo_1015262" data-name="Grupo 1015262" clip-path="url(#clip-path-4)">
      <path id="Trazado_605742" data-name="Trazado 605742" d="M168.343,227.506H46.371a6.255,6.255,0,0,1-6.238-6.235v-9.552a6.254,6.254,0,0,1,6.238-6.229H168.343a6.254,6.254,0,0,1,6.239,6.229v9.552a6.253,6.253,0,0,1-6.235,6.235" fill="#fff"/>
      <path id="Trazado_605743" data-name="Trazado 605743" d="M153.641,217.922a6.266,6.266,0,1,0,6.266-6.266,6.266,6.266,0,0,0-6.266,6.266Z" fill="#fff198"/>
      <path id="Trazado_605744" data-name="Trazado 605744" d="M107.111,228.116H45.958a6.925,6.925,0,0,1-6.92-6.918v-9.4a6.928,6.928,0,0,1,6.92-6.918h8.611a.61.61,0,0,1,0,1.219H45.958a5.707,5.707,0,0,0-5.7,5.7v9.4a5.708,5.708,0,0,0,5.7,5.7h61.153a.608.608,0,0,1,.047,1.216h-.047" fill="#1a1a1a"/>
      <path id="Trazado_605745" data-name="Trazado 605745" d="M168.266,228.116H138.111a.608.608,0,0,1-.047-1.216h30.2a5.708,5.708,0,0,0,5.7-5.7v-9.4a5.708,5.708,0,0,0-5.7-5.7H54.57a.609.609,0,1,1,0-1.218h113.7a6.924,6.924,0,0,1,6.92,6.917v9.4a6.924,6.924,0,0,1-6.92,6.917" fill="#1a1a1a"/>
      <path id="Trazado_605746" data-name="Trazado 605746" d="M157.994,223.373a6.876,6.876,0,1,1,6.871-6.882v.005a6.885,6.885,0,0,1-6.871,6.877m0-12.534a5.658,5.658,0,1,0,5.657,5.659v0a5.666,5.666,0,0,0-5.657-5.657" fill="#1a1a1a"/>
      <path id="Trazado_605747" data-name="Trazado 605747" d="M145.236,213.135h-94.5a.608.608,0,1,1-.047-1.216h94.551a.608.608,0,0,1,.047,1.216.366.366,0,0,1-.047,0" fill="#1a1a1a"/>
      <path id="Trazado_605748" data-name="Trazado 605748" d="M145.236,221.077h-94.5a.608.608,0,1,1,0-1.217h94.5a.608.608,0,1,1,0,1.217Z" fill="#1a1a1a"/>
    </g>
  </g>
  <g id="Grupo_1015265" data-name="Grupo 1015265">
    <g id="Grupo_1015264" data-name="Grupo 1015264" clip-path="url(#clip-path)">
      <path id="Trazado_605749" data-name="Trazado 605749" d="M115.872,48.975V47.764a3.493,3.493,0,0,1-1.835-.528l.288-.8a3.2,3.2,0,0,0,1.728.515c.85,0,1.426-.492,1.426-1.175,0-.66-.467-1.068-1.355-1.427-1.223-.48-1.979-1.032-1.979-2.075a1.966,1.966,0,0,1,1.811-1.931V39.129h.744v1.163a3.2,3.2,0,0,1,1.559.42l-.3.791a2.9,2.9,0,0,0-1.511-.407c-.924,0-1.271.551-1.271,1.031,0,.623.443.935,1.487,1.367,1.235.5,1.858,1.127,1.858,2.195a2.085,2.085,0,0,1-1.894,2.039v1.247Z"/>
      <path id="Trazado_605750" data-name="Trazado 605750" d="M36.827,209.989a21.051,21.051,0,0,0-4.006-7.789c-.149-.179-.285-.361-.418-.543l-15.739.865c-.353,2.355-.839,5.435-1.176,7.3-.54,2.989-.709,5,2.027,8.9s14.4,7.815,14.4,7.815.781-.341,2.111.521,3.46-.8,3.553-2.54-.67-14.117-.75-14.532" fill="#fff"/>
      <path id="Trazado_605751" data-name="Trazado 605751" d="M36.827,209.989a21.051,21.051,0,0,0-4.006-7.789c-.149-.179-.285-.361-.418-.543l-15.739.865c-.353,2.355-.839,5.435-1.176,7.3-.54,2.989-.709,5,2.027,8.9s14.4,7.815,14.4,7.815.781-.341,2.111.521,3.46-.8,3.553-2.54S36.907,210.4,36.827,209.989Z" fill="none" stroke="#1a1a1a" stroke-linecap="round" stroke-linejoin="round" stroke-width="1"/>
      <path id="Trazado_605752" data-name="Trazado 605752" d="M29.512,210.188l1.5,6.564s.075,5.369.7,6.819,1.065,2.676,2.749,3.673" fill="none" stroke="#1a1a1a" stroke-linecap="round" stroke-linejoin="round" stroke-width="1"/>
      <path id="Trazado_605753" data-name="Trazado 605753" d="M31.081,218.716a17.75,17.75,0,0,1,4.647,14.507h3.309s3.342-14.315-8.275-17.575Z" fill="#ffc483"/>
      <path id="Trazado_605754" data-name="Trazado 605754" d="M31.081,218.716a17.75,17.75,0,0,1,4.647,14.507h3.309s3.342-14.315-8.275-17.575Z" fill="none" stroke="#1a1a1a" stroke-linecap="round" stroke-linejoin="round" stroke-width="1"/>
      <path id="Trazado_605755" data-name="Trazado 605755" d="M15.313,210.868s-5.191.671-2.994,15.41l2.994,1.838s-2.332-9.113-.147-12.467c0,0-.662-2.9.147-4.781" fill="#ffc483"/>
      <path id="Trazado_605756" data-name="Trazado 605756" d="M15.313,210.868s-5.191.671-2.994,15.41l2.994,1.838s-2.332-9.113-.147-12.467C15.166,215.649,14.5,212.751,15.313,210.868Z" fill="none" stroke="#1a1a1a" stroke-linecap="round" stroke-linejoin="round" stroke-width="1"/>
      <path id="Trazado_605757" data-name="Trazado 605757" d="M39.483,236.152l5.174-1.872-.85-1.908,2.835.851,2.126,52.582H41.823Z" fill="#ffc483"/>
      <path id="Trazado_605758" data-name="Trazado 605758" d="M39.483,236.152l5.174-1.872-.85-1.908,2.835.851,2.126,52.582H41.823Z" fill="none" stroke="#1a1a1a" stroke-linecap="round" stroke-linejoin="round" stroke-width="1"/>
      <path id="Trazado_605759" data-name="Trazado 605759" d="M5.539,222.026,44.657,234.28V286H3.082Z" fill="#ffc483"/>
      <path id="Trazado_605760" data-name="Trazado 605760" d="M5.539,222.026,44.657,234.28V286H3.082Z" fill="none" stroke="#1a1a1a" stroke-linecap="round" stroke-linejoin="round" stroke-width="1"/>
    </g>
  </g>
</svg>
