<svg xmlns="http://www.w3.org/2000/svg" xmlns:xlink="http://www.w3.org/1999/xlink" width="190" height="286.5" viewBox="0 0 190 286.5">
  <defs>
    <clipPath id="clip-path">
      <rect id="Rectángulo_345442" data-name="Rectángulo 345442" width="171.381" height="190.526" fill="none"/>
    </clipPath>
    <clipPath id="clip-path-2">
      <rect id="Rectángulo_345444" data-name="Rectángulo 345444" width="148.621" height="25.365" fill="none"/>
    </clipPath>
  </defs>
  <g id="Grupo_1014797" data-name="Grupo 1014797" transform="translate(-180 -4676)">
    <rect id="Rectángulo_345364" data-name="Rectángulo 345364" width="190" height="286" transform="translate(180 4676)" fill="none"/>
    <rect id="Rectángulo_345443" data-name="Rectángulo 345443" width="190" height="61" rx="30.5" transform="translate(180 4901)" fill="#e3ecf7"/>
    <path id="Trazado_602007" data-name="Trazado 602007" d="M-2311.085-6846.956l8.37,21.257s2.259,41.5,2.512,53.9,0,25.56,0,25.56h-72.629s-2.531-76.425,8.6-93.38S-2311.085-6846.956-2311.085-6846.956Z" transform="translate(2571.98 11708.236)" fill="#1a1a1a" stroke="#707070" stroke-width="1"/>
    <g id="Grupo_1014794" data-name="Grupo 1014794" transform="translate(192.5 4702.869)">
      <g id="Grupo_1014793" data-name="Grupo 1014793" transform="translate(0 0)" clip-path="url(#clip-path)">
        <path id="Trazado_601935" data-name="Trazado 601935" d="M13.858,105.515,9.872,128.7s34.6,7.562,60.9-.526V64.6L44.647,68.35l-4.323.87L30.5,86.533Z" transform="translate(8.928 58.416)" fill="#33ece0"/>
        <path id="Trazado_601936" data-name="Trazado 601936" d="M61.536,67.078v59.4s-14.641,5.955-41.448,3.207c0,0,30.233,1.03,39.5-4.188l1.169-59.019Z" transform="translate(18.166 60.117)" fill="#1a1a1a"/>
        <path id="Trazado_601937" data-name="Trazado 601937" d="M43.737,30.735S26.2,26.485,15.526,44.022C6.387,59.026,1.146,77.028.535,84.676s-.421,22.7,11.346,28.917l-1.39,43.162s5.269,6.022,26.9,3.668l8.8-15.795V107.139s1.565-7,6.6-7.711L72.028,42.584,83.22,42.19S72.159,29.316,57.97,31.27s-14.233-.535-14.233-.535" transform="translate(0.312 27.385)" fill="#33ece0"/>
        <path id="Trazado_601938" data-name="Trazado 601938" d="M68.456,57.561s2.67-2.575-.261-7.743-5.073-5.2-4.932-7.486.954-4.885,3.371-8.21,3.847-7.436,3.3-13.69-3.489-8.686-7.406-10.693S51.778,3.731,45.248,8.351c0,0-14.8,2.161-16.139,5.692s-1.063,13.791-.735,16.379.783,10.979-2.982,13.092-6.768,2.5-9.428,3.106S6.44,53.5,9.511,62.821c0,0,7.7-9.345,15.654-9.851S36.149,52.5,36.149,52.5l14.58.468a33.96,33.96,0,0,1,17.728,4.591" transform="translate(7.9 5.617)" fill="#1a1a1a"/>
        <path id="Trazado_601939" data-name="Trazado 601939" d="M36.308,18.188c-.328-.124-.585-.027-.941,1.175-.394,1.341-.091,1.655.217,1.706s.7-.3.893-1.282.259-1.436-.169-1.6" transform="translate(31.814 16.412)" fill="#1a1a1a"/>
        <path id="Trazado_601940" data-name="Trazado 601940" d="M31.173,16.962c-.331-.116-.587-.011-.908,1.2-.362,1.352-.05,1.659.259,1.7s.7-.322.859-1.3.223-1.445-.209-1.6" transform="translate(27.222 15.307)" fill="#1a1a1a"/>
        <path id="Trazado_601941" data-name="Trazado 601941" d="M38.656,42.381,37.1,49.159s1.1,11.346-1.693,11.074S23.244,48.068,23.244,48.068l4.264-16.655s-5.46.118-4.353-5.578,6.667-2.862,6.667-2.862,3.169-2.588,3.7-5.8,1.152-6.06,1.152-6.06,3.872,4.22,8.579,5.326a12.248,12.248,0,0,1,6.878,4.136L46.772,36.213s-2.278,8.046-8.116,6.168" transform="translate(20.806 10.053)" fill="#fff"/>
        <path id="Trazado_601942" data-name="Trazado 601942" d="M35.432,49.751l-2.759-3.715s2.558.032,3.767.981Z" transform="translate(29.547 41.632)" fill="#fff"/>
        <path id="Trazado_601943" data-name="Trazado 601943" d="M46.428,53.157,41.294,67.932s-4.056-1.036-4.645-.769-4.736,6.252-4.736,6.252-5.926-3.839-8.318-6.448a49.241,49.241,0,0,1-4.047-5.05s7.575-8.874,8.53-10.493,6.086-5.313,9.733-5.235l5.163,5.643Z" transform="translate(17.678 41.769)" fill="#fff"/>
        <path id="Trazado_601944" data-name="Trazado 601944" d="M65.225,45.651l-2.167,6.037a27.721,27.721,0,0,1-6.185.562c-3.544-.063-5.982-.1-6.551,1.784s-1.135,3.913.449,4.532c0,0-2.108,2.632-1.849,3.835a5.864,5.864,0,0,0,1.143,2.232A2.963,2.963,0,0,0,48.9,67.705c.5,1.948,1.594,4.759,7.153,4.54s9.853-1.192,11.022-2.182,3.639-6.006,3.475-11.34.486-8.52-5.325-13.071" transform="translate(44.139 41.284)" fill="#fff"/>
        <path id="Trazado_601945" data-name="Trazado 601945" d="M39.825,52.68,31.5,42.8l-3.685,3.1,7.774,9.228,3.095.769Z" transform="translate(25.155 38.704)" fill="#1a1a1a"/>
        <path id="Trazado_601946" data-name="Trazado 601946" d="M68.394,95.215,88.022,37.984H48.766L29.138,95.215Z" transform="translate(26.35 34.35)" fill="#fff"/>
        <path id="Trazado_601948" data-name="Trazado 601948" d="M36.487,18.966c-.329-.126-.585-.029-.941,1.175-.392,1.341-.09,1.655.219,1.706s.7-.3.891-1.282.261-1.438-.169-1.6" transform="translate(31.978 17.114)" fill="#1a1a1a"/>
        <path id="Trazado_601949" data-name="Trazado 601949" d="M31.421,17.707c-.324-.135-.585-.046-.979,1.145-.44,1.325-.147,1.651.16,1.714s.714-.282.935-1.251.309-1.43-.116-1.607" transform="translate(27.328 15.971)" fill="#1a1a1a"/>
        <path id="Trazado_601950" data-name="Trazado 601950" d="M32.192,43.652l-1.4-1.8-3.744,3.077,1.685,1.824Z" transform="translate(24.464 37.851)" fill="#fff"/>
        <path id="Trazado_601951" data-name="Trazado 601951" d="M85.753,39.1l.836-2.047L47.52,36.745l-19.7,57.222H30.9L49.961,39.1Z" transform="translate(25.155 33.23)" fill="#ccc"/>
        <path id="Trazado_601952" data-name="Trazado 601952" d="M26.041,62.273l2.685-3.763s3.348,3.613,2.3,5.014-4.987-1.251-4.987-1.251" transform="translate(23.55 52.913)" fill="#1a1a1a"/>
        <path id="Trazado_601953" data-name="Trazado 601953" d="M20.25,56.331l2.538-3.157s-2.3-1.327-3.622-.583,1.084,3.74,1.084,3.74" transform="translate(16.976 47.355)" fill="#1a1a1a"/>
        <path id="Trazado_601954" data-name="Trazado 601954" d="M47.494,62.013S38.483,85.1,22.136,91.869c-13.029,5.393-16.08,2-16.08,2L6.717,84.9s3.215,2.609,10.017,1.074S30.666,78.4,34.724,75.22,47.494,62.013,47.494,62.013" transform="translate(5.477 56.081)" fill="#1a1a1a"/>
        <path id="Trazado_601955" data-name="Trazado 601955" d="M48.808,57.973s.762,3.755,6.728,4.784l.655-1.91a8.06,8.06,0,0,1-7.383-2.874" transform="translate(44.139 52.427)" fill="#ccc"/>
        <path id="Trazado_601956" data-name="Trazado 601956" d="M48.821,57.636s6.185,3.852,15.991-.986l-9.9.272s-4.334-.628-4.856-1.3Z" transform="translate(44.151 50.299)" fill="#ccc"/>
        <path id="Trazado_601957" data-name="Trazado 601957" d="M49.209,54.411a17.493,17.493,0,0,0,15.252-1.788L55.3,53.7s-4.334-.63-4.856-1.3Z" transform="translate(44.502 47.382)" fill="#ccc"/>
        <path id="Trazado_601958" data-name="Trazado 601958" d="M54.323,60.015,50.44,72.169l6.461.017s4.412-8.272,5.359-12.942c0,0-5.688,1.11-7.937.771" transform="translate(45.615 53.577)" fill="#33ece0"/>
        <path id="Trazado_601960" data-name="Trazado 601960" d="M43.1,41.932s2.67-2.575-.261-7.743S37.761,28.99,37.9,26.7a12.2,12.2,0,0,1,.655-3.194c-.253-.194-2.483,1.411-1.552,5.812.758,3.588,1.874,7.774.84,10.114a30.8,30.8,0,0,1,5.25,2.5" transform="translate(33.261 21.246)" fill="#fff"/>
        <path id="Trazado_601961" data-name="Trazado 601961" d="M29.626,6.715c.017.086,14.273,1.59,17.337,10.718a34.242,34.242,0,0,1,.8,16.665c2.4-3.319,3.828-7.429,3.279-13.666-.552-6.254-3.489-8.688-7.406-10.693C40.366,8.067,35.08,5.011,29.626,6.715" transform="translate(26.792 5.62)" fill="#fff"/>
        <path id="Trazado_601962" data-name="Trazado 601962" d="M26.016,22.382c-5.342.935,4.121,5.989,4.121,5.989s5.5-8.922,5.505-9.169S33.1,10.893,33.1,10.893s-1.746,10.554-7.084,11.489" transform="translate(22.049 9.851)" fill="#fff"/>
        <path id="Trazado_601963" data-name="Trazado 601963" d="M35.747,55.723c-.331-.152-8.107-9.385-8.107-9.385.053-.613,3.74-3.715,3.74-3.715.609.051,9.129,10.163,9.129,10.163-.665.562-8.9-9.219-8.9-9.219l-3.022,2.544,7.5,8.9c-.131.682-.232.714-.331.714" transform="translate(24.996 38.546)" fill="#1a1a1a"/>
        <path id="Trazado_601964" data-name="Trazado 601964" d="M28.691,47.348a17.5,17.5,0,0,1-1.843-1.95c.051-.613,3.738-3.717,3.738-3.717.611.051,2.123,1.849,2.123,1.849-.663.56-1.9-.9-1.9-.9L27.789,45.17l1.234,1.464c-.131.682-.232.714-.331.714" transform="translate(24.28 37.694)" fill="#1a1a1a"/>
        <path id="Trazado_601965" data-name="Trazado 601965" d="M34.524,53.791a38.813,38.813,0,0,1-4.106-1.257,9.139,9.139,0,0,1,4.211.4c.269.726.088.855-.1.855" transform="translate(27.508 47.417)" fill="#1a1a1a"/>
        <path id="Trazado_601966" data-name="Trazado 601966" d="M37.1,50.965c-2.483-.4-5.473-1-7.208-2.177,2.08.366,4.953.935,7.278,1.314.326.712.137.863-.07.863" transform="translate(27.033 44.121)" fill="#1a1a1a"/>
        <path id="Trazado_601967" data-name="Trazado 601967" d="M33.736,56.111a30.83,30.83,0,0,1-4.186-.657c.229-.838,1.76-.451,4.228-.208.369.7.179.865-.042.865" transform="translate(26.723 49.686)" fill="#1a1a1a"/>
        <path id="Trazado_601968" data-name="Trazado 601968" d="M36.955,47.777a12.165,12.165,0,0,0-4.664-1.468c.166-.859,2.685-.676,4.888.661.063.733-.08.807-.225.807" transform="translate(29.202 41.405)" fill="#1a1a1a"/>
        <path id="Trazado_601969" data-name="Trazado 601969" d="M19.547,62.555c-.013-1.129,7.793-11.171,9.863-12.932a17.691,17.691,0,0,1,8.659-3.66c.048.868-4.662,1.4-8.093,4.321-2.005,1.706-10,12-10.085,12.1a.428.428,0,0,1-.343.169" transform="translate(17.677 41.565)" fill="#1a1a1a"/>
        <path id="Trazado_601970" data-name="Trazado 601970" d="M25.873,64.1c.8-2.6,3.66-7.122,5.054-7.122a6.064,6.064,0,0,1,.929.133,16.11,16.11,0,0,0,3.8.343,5.353,5.353,0,0,1-3.952.512c-1.36-.09-3.506,2.676-5.456,5.923a.433.433,0,0,1-.371.211" transform="translate(23.398 51.525)" fill="#1a1a1a"/>
        <path id="Trazado_601971" data-name="Trazado 601971" d="M7.9,74.582c4.864-9.826,17.08-19.862,20.7-22.288C24.981,55.768,13.157,65.821,8.28,74.365a.441.441,0,0,1-.377.217" transform="translate(7.147 47.292)" fill="#1a1a1a"/>
        <path id="Trazado_601972" data-name="Trazado 601972" d="M53.976,72.306c1.662-4.4,3.407-8.716,4.669-13.125a34.042,34.042,0,0,1-4.289,12.9.436.436,0,0,1-.381.227" transform="translate(48.813 53.52)" fill="#1a1a1a"/>
        <path id="Trazado_601973" data-name="Trazado 601973" d="M18.682,115.689A14.479,14.479,0,0,1,12,114.083C-2.157,106.837-3.822,87.963,7.187,59.5c1.506-3.9,7.155-17.2,16.568-24.676,6.663-5.3,16.44-4.852,20.346-4.414-3.881.44-13.4,0-19.809,5.094C15.052,42.846,9.484,55.965,8,59.812c-10.822,27.988-9.3,46.487,4.4,53.5C26.28,120.423,43.633,100.743,54,88.994c-8.307,10.727-22.393,26.693-35.318,26.7" transform="translate(0 27.28)" fill="#1a1a1a"/>
        <path id="Trazado_601974" data-name="Trazado 601974" d="M55.539,42.089C50.1,35.3,39.057,30.467,30.623,31.167c8.686-1.584,20.011,3.4,25.263,10.222-.16.67-.253.7-.347.7" transform="translate(27.694 27.919)" fill="#1a1a1a"/>
        <path id="Trazado_601975" data-name="Trazado 601975" d="M35.88,38.47A11.314,11.314,0,0,1,33,38.042c-1.417-.373-3.475-.994-4.885-1.543a13.217,13.217,0,0,1,5.1.7,8.995,8.995,0,0,0,3.494.347A5.009,5.009,0,0,0,40.51,34.58a20.931,20.931,0,0,0,1.965-5.795c.2-1,.463-2.329.741-3.759.7-3.613,1.5-7.707,1.874-9,.478,1.5-.354,5.755-1.023,9.169-.278,1.432-.537,2.763-.743,3.765a21.75,21.75,0,0,1-2.047,6.033,5.808,5.808,0,0,1-4.445,3.418,6.994,6.994,0,0,1-.952.063" transform="translate(25.428 14.489)" fill="#1a1a1a"/>
        <path id="Trazado_601976" data-name="Trazado 601976" d="M27.752,26.715a4.863,4.863,0,0,1-1.158-.139,4.96,4.96,0,1,1,4.81-8.177,9.757,9.757,0,0,1-2.7-.625,4.092,4.092,0,1,0,.282,7.882c-.225.983-.726,1.059-1.23,1.059" transform="translate(20.61 15.188)" fill="#1a1a1a"/>
        <path id="Trazado_601977" data-name="Trazado 601977" d="M24.678,23.123c-.2-.819,2.7-2.352,2.7-2.352l-2.5-2.62c.63-.6,3.527,2.438,3.527,2.438-.112.684-3.527,2.483-3.527,2.483a.411.411,0,0,1-.2.051" transform="translate(22.308 16.344)" fill="#1a1a1a"/>
        <path id="Trazado_601978" data-name="Trazado 601978" d="M16.264,66.282a65.328,65.328,0,0,1,4.29-24.442c.756.446-3.856,11.584-3.856,24.008a.435.435,0,0,1-.434.434" transform="translate(14.682 37.838)" fill="#1a1a1a"/>
        <path id="Trazado_601979" data-name="Trazado 601979" d="M33.529,26.162a3.337,3.337,0,0,1-2.436-.886,4.11,4.11,0,0,1-1.019-2.98c.863.08.769,1.52,1.634,2.361A2.713,2.713,0,0,0,34,25.269c-.11.884-.293.893-.468.893" transform="translate(27.191 20.163)" fill="#1a1a1a"/>
        <path id="Trazado_601980" data-name="Trazado 601980" d="M58.209,72.6a31.806,31.806,0,0,1-3.626-.217c-2.662-.3-6.442-2.219-6.1-5.351a3.2,3.2,0,0,1,1.691-2.487c-.289,1.143-.741,1.8-.826,2.58-.289,2.641,3.333,4.167,5.336,4.4,6.667.764,11.078-.672,12.468-2.445a14.061,14.061,0,0,0,2.386-5.338,30.292,30.292,0,0,0,.7-10.765c-.432-3.7-4.748-7.082-4.793-7.115.722-.543,5.18,2.952,5.656,7.016a31.277,31.277,0,0,1-.722,11.076,14.848,14.848,0,0,1-2.544,5.66c-1.493,1.91-5.1,2.99-9.625,2.99" transform="translate(43.824 41.421)" fill="#1a1a1a"/>
        <path id="Trazado_601981" data-name="Trazado 601981" d="M54.316,57.689a8.175,8.175,0,0,1-1.145-.057c-1.28-.171-2.742-.362-3.382-1.392a4.335,4.335,0,0,1-.484-3.765,4.566,4.566,0,0,1,2.26-2.439,5.382,5.382,0,0,1,3.016-.417c1.145.046,1.592.051,2.017.051,7.292,0,8.686-1.63,8.7-1.647.545.733-1.089,2.693-10.063,2.5-1.626-.086-2.487-.135-3.256.278a3.748,3.748,0,0,0-1.859,1.969,3.5,3.5,0,0,0,.406,3.015c.421.678,1.64.84,2.443.945,2.209.322,10.472-.569,11.2-.853-.51,1.131-6.865,1.815-9.849,1.815" transform="translate(44.379 43.429)" fill="#1a1a1a"/>
        <path id="Trazado_601982" data-name="Trazado 601982" d="M56.259,60.478c-1.152,0-2.3-.044-3.367-.152-2.209-.227-4.479-1.712-4.233-4.439A5.111,5.111,0,0,1,50.9,52.326a17.451,17.451,0,0,0-1.381,3.635c-.189,2.144,1.659,3.317,3.458,3.5A61.971,61.971,0,0,0,64.918,59c.065.868-4.311,1.48-8.659,1.48" transform="translate(43.987 47.321)" fill="#1a1a1a"/>
        <path id="Trazado_601983" data-name="Trazado 601983" d="M35.389,51.021c-3.9,0-11.546-11.03-12.445-12.35-.063-.352,4.178-16.9,4.178-16.9.844.217-3.352,16.568-3.352,16.568C27.225,43.373,33.4,50.9,35.684,50.107c1.516-.526,1.478-6.267.962-10.175.008-.156,1.643-7.288,1.643-7.288.849.2-.769,7.252-.769,7.252.238,1.855,1.139,10.1-1.55,11.032a1.768,1.768,0,0,1-.581.093" transform="translate(20.749 19.693)" fill="#1a1a1a"/>
        <path id="Trazado_601984" data-name="Trazado 601984" d="M68.4,95.856H29.14c-.411-.573,19.219-57.806,19.219-57.806.411-.293,39.667-.293,39.667-.293.411.575-6.534,20.82-6.534,20.82-.825-.282,5.926-19.952,5.926-19.952H49.078L29.748,94.987h38.34L73.38,79.543c.825.284-4.572,16.019-4.572,16.019a.432.432,0,0,1-.411.293" transform="translate(26.347 34.144)" fill="#1a1a1a"/>
        <path id="Trazado_601985" data-name="Trazado 601985" d="M31.15,94.615H27.817c-.411-.575,19.219-57.808,19.219-57.808.411-.293,39.669-.293,39.669-.293.411.575-.236,2.46-.236,2.46-.823-.284-.373-1.592-.373-1.592H47.755L28.425,93.745H31.15c.434.674.24.87,0,.87" transform="translate(25.15 33.021)" fill="#1a1a1a"/>
        <path id="Trazado_601986" data-name="Trazado 601986" d="M48.066,24.1c-.434-.619-.5-4.946-7.473-7.01-5.2-1.541-7.734-3.643-8.821-4.831-.326,2.668-1.495,9.354-5.2,11.02,3.74-2.632,4.433-12.081,4.439-12.174.832-.152,2.725,3.047,9.828,5.153,7.635,2.26,7.665,7.2,7.661,7.414a.434.434,0,0,1-.434.428" transform="translate(24.03 10.037)" fill="#1a1a1a"/>
        <path id="Trazado_601987" data-name="Trazado 601987" d="M37.8,18.53c-.411-.289-.781-1.026-1.906-1.026,1.621-1.019,2.274.354,2.3.415-.276.6-.335.611-.394.611" transform="translate(32.463 15.49)" fill="#1a1a1a"/>
        <path id="Trazado_601988" data-name="Trazado 601988" d="M35.542,17.069a5.427,5.427,0,0,0-5.509-.423c3.449-2.367,5.705-.421,5.8-.335-.05.708-.169.758-.289.758" transform="translate(27.16 13.997)" fill="#1a1a1a"/>
        <path id="Trazado_601989" data-name="Trazado 601989" d="M36.7,70.217a8.12,8.12,0,0,1-3.483-1.2,38.919,38.919,0,0,1-7.162-5.277,39.2,39.2,0,0,1-5.955-6.61c-1.508-2.238-1.914-3.772-1.205-4.559.945-1.034,2.666-.316,4.216.527-2.127-.168-3.159-.4-3.571.055-.286.314-.12,1.417,1.282,3.489A37.986,37.986,0,0,0,26.635,63.1a37.87,37.87,0,0,0,6.995,5.155c2.2,1.19,3.314,1.247,3.6.935.388-.434.038-1.95-2.249-4.808,3.039,2.409,3.788,4.407,2.893,5.393a1.511,1.511,0,0,1-1.173.444" transform="translate(16.779 47.081)" fill="#1a1a1a"/>
        <path id="Trazado_601990" data-name="Trazado 601990" d="M56.06,46.074A9.2,9.2,0,0,0,59.7,40.852c.786-2.733.276-5.378-1.11-5.78-1.312-.364-2.975,1.285-3.841,3.757.215-3.245,2.323-5.1,4.079-4.591,1.9.548,2.655,3.559,1.71,6.852-.851,2.95-2.729,4.984-4.481,4.984" transform="translate(49.514 30.888)" fill="#1a1a1a"/>
        <path id="Trazado_601991" data-name="Trazado 601991" d="M49.74,46.074a9.192,9.192,0,0,0,3.645-5.222c.786-2.733.276-5.378-1.11-5.78-1.316-.364-2.976,1.285-3.841,3.757.215-3.245,2.314-5.1,4.077-4.591,1.906.548,2.657,3.559,1.71,6.852-.849,2.95-2.727,4.984-4.481,4.984" transform="translate(43.801 30.888)" fill="#1a1a1a"/>
        <path id="Trazado_601992" data-name="Trazado 601992" d="M43.375,46.074a9.2,9.2,0,0,0,3.645-5.222,8.073,8.073,0,0,0,.232-3.9,2.28,2.28,0,0,0-1.344-1.883c-1.318-.364-2.973,1.285-3.841,3.757.217-3.245,2.321-5.1,4.079-4.591A3.085,3.085,0,0,1,48.1,36.767a8.945,8.945,0,0,1-.242,4.325c-.849,2.948-2.727,4.982-4.481,4.982" transform="translate(38.043 30.888)" fill="#1a1a1a"/>
        <path id="Trazado_601993" data-name="Trazado 601993" d="M66.817,43.558H41.853c0-.868,24.964-.868,24.964-.868.434.674.24.868,0,.868" transform="translate(37.849 38.606)" fill="#1a1a1a"/>
        <path id="Trazado_601994" data-name="Trazado 601994" d="M65.636,47.06H40.674c0-.87,24.962-.87,24.962-.87.436.676.24.87,0,.87" transform="translate(36.783 41.772)" fill="#1a1a1a"/>
        <path id="Trazado_601995" data-name="Trazado 601995" d="M59.468,53.592H38.412c0-.87,21.056-.87,21.056-.87.434.676.24.87,0,.87" transform="translate(34.738 47.679)" fill="#1a1a1a"/>
        <path id="Trazado_601996" data-name="Trazado 601996" d="M59.071,50.488H39.464c0-.87,19.607-.87,19.607-.87.436.676.24.87,0,.87" transform="translate(35.689 44.872)" fill="#1a1a1a"/>
        <path id="Trazado_601997" data-name="Trazado 601997" d="M59.369,57.021H37.256c0-.87,22.113-.87,22.113-.87.434.676.24.87,0,.87" transform="translate(33.692 50.78)" fill="#1a1a1a"/>
        <path id="Trazado_601998" data-name="Trazado 601998" d="M61.063,60.449H36.1c0-.87,24.962-.87,24.962-.87.436.676.24.87,0,.87" transform="translate(32.648 53.88)" fill="#1a1a1a"/>
        <path id="Trazado_601999" data-name="Trazado 601999" d="M24.665,122.069a52.425,52.425,0,0,1-11.321-1.219,31.294,31.294,0,0,1-5.313-1.525c-.952-.392-2.508-1.028-2.567-2.2-.289-6,1.017-42.623,1.03-42.992.857.4-.449,36.986-.162,42.951.03.621,1.348,1.164,1.912,1.4A30.924,30.924,0,0,0,13.533,120a54.135,54.135,0,0,0,19.036.657,18.064,18.064,0,0,1-7.9,1.409" transform="translate(4.903 67.038)" fill="#1a1a1a"/>
        <path id="Trazado_602001" data-name="Trazado 602001" d="M9.665,63.389c-2.822-7.01-.017-14.048,6.263-17.027a21.461,21.461,0,0,1,4.4-1.352c2.255-.522,4.386-1.013,5.964-2.483,2.064-1.923,2.39-4.9,2.4-6.505a27.918,27.918,0,0,0-.468-4.549c-.149-.948-.3-1.935-.394-2.919a57.15,57.15,0,0,1-.259-7.612c.133-3.319.251-6.42,2.624-8.7a11.057,11.057,0,0,1,4.9-2.428,46.523,46.523,0,0,1,5.309-.95A10.933,10.933,0,0,1,42.5,8.712a4.126,4.126,0,0,0,2.392-.375c.067-.055,6.825-5.9,18.356,1.379,7.553,4.77,7.619,8.7,7.067,16.423-.27,3.776-2.222,6.873-3.942,9.606-1.756,2.79-3.272,5.2-2.285,7.381a17.671,17.671,0,0,0,2.5,3.668c2.388,2.954,4.856,6.008,2.274,11.407,1.56-5.279-.63-7.993-2.946-10.862a18.407,18.407,0,0,1-2.615-3.854c-1.181-2.607.451-5.2,2.342-8.2,1.666-2.647,3.554-5.644,3.8-9.206.547-7.572.486-11.112-6.661-15.627C51.848,3.545,45.717,8.763,45.462,8.99a4.532,4.532,0,0,1-2.982.59,8.5,8.5,0,0,0-1.183.03,53.715,53.715,0,0,0-5.983,1.038A9.718,9.718,0,0,0,30.8,12.861c-2.12,2.043-2.232,4.833-2.346,7.791a56.853,56.853,0,0,0,.238,7.821c.09.958.244,1.927.392,2.864a28.809,28.809,0,0,1,.476,4.69,9.65,9.65,0,0,1-2.676,7.134c-1.75,1.63-4.092,2.173-6.362,2.695A20.767,20.767,0,0,0,16.3,47.147c-5.961,2.828-8.52,9.267-6.227,15.659-.309.575-.358.583-.408.583" transform="translate(7.747 5.483)" fill="#1a1a1a"/>
        <path id="Trazado_602002" data-name="Trazado 602002" d="M33.551,28.478c.809-.916,1.442-1.522,1.744-1.878a2.887,2.887,0,0,0,.647-1.169c-.44-.293-1.862-1.325-2.053-2.531a41.836,41.836,0,0,1,.328-5.684c.727,1.337.4,4.74.528,5.549.12.739,1.152,1.623,1.775,2.007.156.1.4.343.249.931a3.974,3.974,0,0,1-3.2,2.773l-.023,0" transform="translate(30.342 15.569)" fill="#1a1a1a"/>
        <path id="Trazado_602003" data-name="Trazado 602003" d="M29.219,11.025a14.352,14.352,0,0,1-1.47-2.817c.8-.335,1.87,2.215,1.87,2.215-.288.59-.345.6-.4.6" transform="translate(25.095 7.396)" fill="#1a1a1a"/>
      </g>
    </g>
    <g id="Grupo_1014796" data-name="Grupo 1014796" transform="translate(215.26 4880.712)">
      <g id="Grupo_1014795" data-name="Grupo 1014795" transform="translate(0 0)" clip-path="url(#clip-path-2)">
        <path id="Trazado_602008" data-name="Trazado 602008" d="M140.49,24.333H7.345A6.827,6.827,0,0,1,.536,17.527V7.1A6.828,6.828,0,0,1,7.345.3H140.49A6.826,6.826,0,0,1,147.3,7.1V17.527a6.825,6.825,0,0,1-6.806,6.806" transform="translate(0.66 0.366)" fill="#fff"/>
        <path id="Trazado_602009" data-name="Trazado 602009" d="M56.078,10.156a6.84,6.84,0,1,0,6.84-6.84,6.839,6.839,0,0,0-6.84,6.84" transform="translate(69.023 4.081)" fill="#fff198"/>
        <path id="Trazado_602010" data-name="Trazado 602010" d="M74.309,25.365H7.554A7.56,7.56,0,0,1,0,17.813V7.551A7.562,7.562,0,0,1,7.554,0h9.4a.665.665,0,0,1,0,1.33h-9.4A6.23,6.23,0,0,0,1.33,7.551V17.813a6.231,6.231,0,0,0,6.224,6.224H74.309a.664.664,0,1,1,0,1.327" transform="translate(0 0)" fill="#1a1a1a"/>
        <path id="Trazado_602011" data-name="Trazado 602011" d="M132.078,25.365H99.161a.664.664,0,1,1,0-1.327h32.916a6.231,6.231,0,0,0,6.224-6.224V7.551a6.23,6.23,0,0,0-6.224-6.222H7.967a.665.665,0,0,1,0-1.33H132.078a7.56,7.56,0,0,1,7.554,7.551V17.813a7.559,7.559,0,0,1-7.554,7.551" transform="translate(8.988 0)" fill="#1a1a1a"/>
        <path id="Trazado_602012" data-name="Trazado 602012" d="M62.349,17.332a7.506,7.506,0,1,1,7.5-7.507,7.515,7.515,0,0,1-7.5,7.507m0-13.682a6.176,6.176,0,1,0,6.175,6.175,6.185,6.185,0,0,0-6.175-6.175" transform="translate(67.504 2.856)" fill="#1a1a1a"/>
        <path id="Trazado_602013" data-name="Trazado 602013" d="M109.25,4.772H6.089a.664.664,0,1,1,0-1.327H109.25a.664.664,0,1,1,0,1.327" transform="translate(6.676 4.24)" fill="#1a1a1a"/>
        <path id="Trazado_602014" data-name="Trazado 602014" d="M109.25,8.66H6.089a.665.665,0,1,1,0-1.33H109.25a.665.665,0,1,1,0,1.33" transform="translate(6.676 9.022)" fill="#1a1a1a"/>
      </g>
    </g>
    <path id="Trazado_602015" data-name="Trazado 602015" d="M63.151,47.121H113.3a10.223,10.223,0,0,0,10.194-10.2V10.2A10.223,10.223,0,0,0,113.3,0H63.151A10.223,10.223,0,0,0,52.957,10.2V36.925a10.223,10.223,0,0,0,10.194,10.2" transform="translate(240.391 4690)" fill="#fff198"/>
    <path id="Trazado_602016" data-name="Trazado 602016" d="M64.934,19.141a7.077,7.077,0,1,1-7.077-7.077,7.077,7.077,0,0,1,7.077,7.077" transform="translate(238.423 4700.91)" fill="#fff"/>
    <path id="Trazado_602017" data-name="Trazado 602017" d="M108.48,51.169c5.509-.868,9.988-5.349,9.988-10.857V14.037A10,10,0,0,0,108.48,4.05H58.79A10,10,0,0,0,48.8,14.037V40.313A10,10,0,0,0,58.79,50.3H87.084c0,.868-28.295.868-28.295.868A10.868,10.868,0,0,1,47.933,40.313V14.037A10.869,10.869,0,0,1,58.79,3.18h49.69a10.871,10.871,0,0,1,10.859,10.857V40.313A10.869,10.869,0,0,1,108.48,51.169" transform="translate(235.848 4692.876)" fill="#1a1a1a"/>
    <path id="Trazado_602018" data-name="Trazado 602018" d="M58.063,26.858a7.511,7.511,0,1,1,7.513-7.511,7.52,7.52,0,0,1-7.513,7.511m0-14.153a6.641,6.641,0,1,0,6.644,6.642,6.649,6.649,0,0,0-6.644-6.642" transform="translate(238.216 4700.705)" fill="#1a1a1a"/>
    <path id="Trazado_602019" data-name="Trazado 602019" d="M99.338,13.762H61.493c0-.87,37.845-.87,37.845-.87.434.676.238.87,0,.87" transform="translate(248.111 4701.659)" fill="#1a1a1a"/>
    <path id="Trazado_602020" data-name="Trazado 602020" d="M99.338,18.947H61.493c0-.87,37.845-.87,37.845-.87.434.676.238.87,0,.87" transform="translate(248.111 4706.348)" fill="#1a1a1a"/>
  </g>
</svg>
