<svg xmlns="http://www.w3.org/2000/svg" xmlns:xlink="http://www.w3.org/1999/xlink" width="505" height="570" viewBox="0 0 505 570">
  <defs>
    <clipPath id="clip-path">
      <rect id="Rectángulo_345830" data-name="Rectángulo 345830" width="51.134" height="50.806" fill="none"/>
    </clipPath>
    <clipPath id="clip-path-2">
      <rect id="Rectángulo_345831" data-name="Rectángulo 345831" width="39.589" height="46.498" fill="none"/>
    </clipPath>
    <clipPath id="clip-path-3">
      <rect id="Rectángulo_345832" data-name="Rectángulo 345832" width="45.915" height="45.789" fill="none"/>
    </clipPath>
  </defs>
  <g id="Grupo_1015281" data-name="Grupo 1015281" transform="translate(3137 10845)">
    <rect id="Rectángulo_345826" data-name="Rectángulo 345826" width="505" height="570" transform="translate(-3137 -10845)" fill="#fff"/>
    <path id="Trazado_605795" data-name="Trazado 605795" d="M18.433,11.269V16H16.84V3.914H21.3a4.478,4.478,0,0,1,3.109,1.013,3.433,3.433,0,0,1,1.125,2.681,3.388,3.388,0,0,1-1.1,2.71,4.678,4.678,0,0,1-3.15.95Zm0-1.3H21.3a2.863,2.863,0,0,0,1.959-.6,2.2,2.2,0,0,0,.681-1.742,2.277,2.277,0,0,0-.681-1.73,2.682,2.682,0,0,0-1.868-.674H18.433Zm14.435,5.146a3.262,3.262,0,0,1-2.631,1.054,2.792,2.792,0,0,1-2.187-.834,3.611,3.611,0,0,1-.76-2.469V7.019h1.536v5.8q0,2.042,1.66,2.042a2.3,2.3,0,0,0,2.341-1.312V7.019h1.536V16H32.9Zm5.279-8.093.05,1.129a3.273,3.273,0,0,1,2.689-1.295q2.847,0,2.872,3.212V16H42.223V10.057a2.068,2.068,0,0,0-.444-1.436,1.78,1.78,0,0,0-1.357-.465,2.216,2.216,0,0,0-1.312.4,2.706,2.706,0,0,0-.88,1.046V16H36.7V7.019ZM48.158,4.844V7.019h1.677V8.206H48.158v5.577a1.247,1.247,0,0,0,.224.81.943.943,0,0,0,.764.27,3.718,3.718,0,0,0,.73-.1V16a4.478,4.478,0,0,1-1.179.165,1.912,1.912,0,0,1-1.552-.623,2.675,2.675,0,0,1-.523-1.768V8.206H44.988V7.019h1.635V4.844Zm2.9,6.583a5.3,5.3,0,0,1,.519-2.374,3.87,3.87,0,0,1,1.444-1.627,3.932,3.932,0,0,1,2.113-.573A3.788,3.788,0,0,1,58.1,8.123,4.886,4.886,0,0,1,59.232,11.5v.108a5.351,5.351,0,0,1-.5,2.353,3.813,3.813,0,0,1-1.436,1.623,3.977,3.977,0,0,1-2.146.581,3.778,3.778,0,0,1-2.959-1.27,4.861,4.861,0,0,1-1.133-3.362Zm1.544.183a3.842,3.842,0,0,0,.693,2.4A2.349,2.349,0,0,0,57.007,14a4.2,4.2,0,0,0,.689-2.569,3.836,3.836,0,0,0-.7-2.395,2.23,2.23,0,0,0-1.864-.917,2.205,2.205,0,0,0-1.834.9A4.17,4.17,0,0,0,52.6,11.609Zm13.788,2.009a1.131,1.131,0,0,0-.469-.967,4.514,4.514,0,0,0-1.635-.594,7.731,7.731,0,0,1-1.851-.6,2.633,2.633,0,0,1-1.013-.83,1.986,1.986,0,0,1-.328-1.146,2.33,2.33,0,0,1,.934-1.868,3.647,3.647,0,0,1,2.386-.764,3.753,3.753,0,0,1,2.478.789,2.5,2.5,0,0,1,.95,2.017H66.3a1.386,1.386,0,0,0-.535-1.087,2.006,2.006,0,0,0-1.349-.457,2.1,2.1,0,0,0-1.312.365,1.15,1.15,0,0,0-.473.955.932.932,0,0,0,.44.838,5.413,5.413,0,0,0,1.59.54,8.283,8.283,0,0,1,1.864.614,2.718,2.718,0,0,1,1.058.859,2.112,2.112,0,0,1,.344,1.224,2.3,2.3,0,0,1-.963,1.93,4.039,4.039,0,0,1-2.5.726,4.523,4.523,0,0,1-1.909-.382,3.105,3.105,0,0,1-1.3-1.067,2.571,2.571,0,0,1-.469-1.482H62.32a1.59,1.59,0,0,0,.618,1.224,2.4,2.4,0,0,0,1.523.452,2.476,2.476,0,0,0,1.4-.353A1.084,1.084,0,0,0,66.387,13.618Zm7.371-2.183a5.261,5.261,0,0,1,.979-3.324A3.333,3.333,0,0,1,79.8,7.932V3.25h1.536V16H79.926l-.075-.963a3.127,3.127,0,0,1-2.565,1.129,3.068,3.068,0,0,1-2.544-1.278,5.321,5.321,0,0,1-.984-3.337Zm1.536.174A3.984,3.984,0,0,0,75.925,14a2.039,2.039,0,0,0,1.743.863A2.24,2.24,0,0,0,79.8,13.551V9.426a2.257,2.257,0,0,0-2.117-1.27,2.049,2.049,0,0,0-1.76.872A4.386,4.386,0,0,0,75.294,11.609Zm12.152,4.557a3.924,3.924,0,0,1-2.972-1.2,4.452,4.452,0,0,1-1.146-3.208v-.282a5.39,5.39,0,0,1,.51-2.386,3.982,3.982,0,0,1,1.428-1.644,3.59,3.59,0,0,1,1.988-.594,3.364,3.364,0,0,1,2.723,1.154,5,5,0,0,1,.971,3.3v.639H84.865a3.193,3.193,0,0,0,.776,2.146,2.44,2.44,0,0,0,1.888.818,2.675,2.675,0,0,0,1.378-.332,3.462,3.462,0,0,0,.988-.88l.938.73A3.772,3.772,0,0,1,87.446,16.166Zm-.191-8.052a2.048,2.048,0,0,0-1.561.677,3.288,3.288,0,0,0-.78,1.9h4.5v-.116a2.925,2.925,0,0,0-.631-1.814A1.928,1.928,0,0,0,87.255,8.114Zm-70.3,27.32a5.261,5.261,0,0,1,.979-3.324A3.1,3.1,0,0,1,20.5,30.853a3.115,3.115,0,0,1,2.5,1.079V27.25H24.53V40H23.119l-.075-.963a3.127,3.127,0,0,1-2.565,1.129,3.068,3.068,0,0,1-2.544-1.278,5.321,5.321,0,0,1-.984-3.337Zm1.536.174A3.984,3.984,0,0,0,19.118,38a2.039,2.039,0,0,0,1.743.863,2.24,2.24,0,0,0,2.133-1.312V33.426a2.257,2.257,0,0,0-2.117-1.27,2.049,2.049,0,0,0-1.76.872A4.386,4.386,0,0,0,18.487,35.609ZM28.581,40H27.045V31.019h1.536Zm-1.66-11.364a.917.917,0,0,1,.228-.631.857.857,0,0,1,.677-.257.87.87,0,0,1,.681.257.907.907,0,0,1,.232.631.877.877,0,0,1-.232.623.886.886,0,0,1-.681.249.872.872,0,0,1-.677-.249A.886.886,0,0,1,26.921,28.636ZM31.793,40V32.206H30.374V31.019h1.419V30.1a3.058,3.058,0,0,1,.772-2.233,2.916,2.916,0,0,1,2.183-.789,4.055,4.055,0,0,1,1.054.14l-.083,1.238a4.41,4.41,0,0,0-.83-.075,1.5,1.5,0,0,0-1.154.437,1.773,1.773,0,0,0-.407,1.253v.949h1.917v1.187H33.329V40Zm8.674.166a3.924,3.924,0,0,1-2.972-1.2,4.452,4.452,0,0,1-1.146-3.208v-.282a5.39,5.39,0,0,1,.51-2.386,3.982,3.982,0,0,1,1.428-1.644,3.59,3.59,0,0,1,1.988-.594A3.364,3.364,0,0,1,43,32.006a5,5,0,0,1,.971,3.3v.639H37.886a3.193,3.193,0,0,0,.776,2.146,2.44,2.44,0,0,0,1.888.818,2.675,2.675,0,0,0,1.378-.332,3.462,3.462,0,0,0,.988-.88l.938.73A3.772,3.772,0,0,1,40.468,40.166Zm-.191-8.052a2.048,2.048,0,0,0-1.561.677,3.288,3.288,0,0,0-.78,1.9h4.5v-.116a2.925,2.925,0,0,0-.631-1.814A1.928,1.928,0,0,0,40.277,32.114Zm9.812.282a4.6,4.6,0,0,0-.755-.058,2.024,2.024,0,0,0-2.05,1.287V40H45.747V31.019h1.494l.025,1.038a2.391,2.391,0,0,1,2.142-1.2,1.569,1.569,0,0,1,.681.116Zm4.98,7.77a3.924,3.924,0,0,1-2.972-1.2,4.452,4.452,0,0,1-1.146-3.208v-.282a5.39,5.39,0,0,1,.51-2.386,3.982,3.982,0,0,1,1.428-1.644,3.59,3.59,0,0,1,1.988-.594A3.364,3.364,0,0,1,57.6,32.006a5,5,0,0,1,.971,3.3v.639H52.487a3.193,3.193,0,0,0,.776,2.146,2.44,2.44,0,0,0,1.888.818,2.675,2.675,0,0,0,1.378-.332,3.462,3.462,0,0,0,.988-.88l.938.73A3.772,3.772,0,0,1,55.069,40.166Zm-.191-8.052a2.048,2.048,0,0,0-1.561.677,3.288,3.288,0,0,0-.78,1.9h4.5v-.116a2.925,2.925,0,0,0-.631-1.814A1.928,1.928,0,0,0,54.878,32.114Zm6.923-1.1.05,1.129a3.273,3.273,0,0,1,2.689-1.295q2.847,0,2.872,3.212V40H65.876V34.057a2.068,2.068,0,0,0-.444-1.436,1.78,1.78,0,0,0-1.357-.465,2.216,2.216,0,0,0-1.312.4,2.706,2.706,0,0,0-.88,1.046V40H60.348V31.019Zm11.53,7.894a2.212,2.212,0,0,0,1.436-.5,1.752,1.752,0,0,0,.681-1.245H76.9a2.785,2.785,0,0,1-.531,1.469,3.5,3.5,0,0,1-1.307,1.112,3.772,3.772,0,0,1-1.731.415,3.7,3.7,0,0,1-2.918-1.224,4.877,4.877,0,0,1-1.083-3.349v-.257A5.407,5.407,0,0,1,69.811,33a3.667,3.667,0,0,1,1.382-1.585,3.926,3.926,0,0,1,2.129-.564,3.6,3.6,0,0,1,2.511.9A3.234,3.234,0,0,1,76.9,34.106H75.447a2.116,2.116,0,0,0-.66-1.432,2.053,2.053,0,0,0-1.465-.56,2.149,2.149,0,0,0-1.814.843,3.957,3.957,0,0,0-.643,2.436v.291a3.878,3.878,0,0,0,.639,2.391A2.16,2.16,0,0,0,73.331,38.913ZM80.295,40H78.759V31.019h1.536Zm-1.66-11.364a.917.917,0,0,1,.228-.631.857.857,0,0,1,.677-.257.87.87,0,0,1,.681.257.907.907,0,0,1,.232.631.877.877,0,0,1-.232.623.886.886,0,0,1-.681.249.872.872,0,0,1-.677-.249A.886.886,0,0,1,78.635,28.636ZM88.3,40a3.226,3.226,0,0,1-.216-.946,3.426,3.426,0,0,1-2.557,1.112,3.17,3.17,0,0,1-2.179-.751,2.43,2.43,0,0,1-.851-1.905,2.539,2.539,0,0,1,1.067-2.179,5.029,5.029,0,0,1,3-.776h1.494v-.706a1.725,1.725,0,0,0-.481-1.282,1.935,1.935,0,0,0-1.419-.477,2.239,2.239,0,0,0-1.378.415,1.223,1.223,0,0,0-.556,1H82.677a2.119,2.119,0,0,1,.477-1.3,3.258,3.258,0,0,1,1.295-.992,4.356,4.356,0,0,1,1.8-.365,3.551,3.551,0,0,1,2.432.776,2.8,2.8,0,0,1,.913,2.137V37.9a5.054,5.054,0,0,0,.315,1.967V40Zm-2.548-1.17a2.7,2.7,0,0,0,1.37-.374,2.259,2.259,0,0,0,.938-.971V35.642h-1.2q-2.822,0-2.822,1.652a1.4,1.4,0,0,0,.481,1.129A1.85,1.85,0,0,0,85.749,38.83Z" transform="translate(-2785 -10816)" fill="#12263f"/>
    <path id="Trazado_605791" data-name="Trazado 605791" d="M23.787,11.269V16H22.193V3.914h4.458a4.478,4.478,0,0,1,3.109,1.013,3.433,3.433,0,0,1,1.125,2.681,3.388,3.388,0,0,1-1.1,2.71,4.678,4.678,0,0,1-3.15.95Zm0-1.3h2.864a2.863,2.863,0,0,0,1.959-.6A2.2,2.2,0,0,0,29.29,7.62a2.277,2.277,0,0,0-.681-1.73,2.682,2.682,0,0,0-1.868-.674H23.787Zm14.435,5.146a3.262,3.262,0,0,1-2.631,1.054,2.792,2.792,0,0,1-2.187-.834,3.611,3.611,0,0,1-.76-2.469V7.019h1.536v5.8q0,2.042,1.66,2.042a2.3,2.3,0,0,0,2.341-1.312V7.019h1.536V16H38.255ZM43.5,7.019l.05,1.129A3.273,3.273,0,0,1,46.24,6.853q2.847,0,2.872,3.212V16H47.577V10.057a2.068,2.068,0,0,0-.444-1.436,1.78,1.78,0,0,0-1.357-.465,2.216,2.216,0,0,0-1.312.4,2.706,2.706,0,0,0-.88,1.046V16H42.049V7.019ZM53.512,4.844V7.019h1.677V8.206H53.512v5.577a1.247,1.247,0,0,0,.224.81.943.943,0,0,0,.764.27,3.718,3.718,0,0,0,.73-.1V16a4.478,4.478,0,0,1-1.179.165,1.912,1.912,0,0,1-1.552-.623,2.675,2.675,0,0,1-.523-1.768V8.206H50.341V7.019h1.635V4.844Zm2.9,6.583a5.3,5.3,0,0,1,.519-2.374,3.87,3.87,0,0,1,1.444-1.627,3.932,3.932,0,0,1,2.113-.573,3.788,3.788,0,0,1,2.968,1.27A4.886,4.886,0,0,1,64.585,11.5v.108a5.351,5.351,0,0,1-.5,2.353,3.813,3.813,0,0,1-1.436,1.623,3.977,3.977,0,0,1-2.146.581,3.778,3.778,0,0,1-2.959-1.27,4.861,4.861,0,0,1-1.133-3.362Zm1.544.183a3.842,3.842,0,0,0,.693,2.4A2.349,2.349,0,0,0,62.361,14a4.2,4.2,0,0,0,.689-2.569,3.836,3.836,0,0,0-.7-2.395,2.23,2.23,0,0,0-1.864-.917,2.205,2.205,0,0,0-1.834.9A4.17,4.17,0,0,0,57.953,11.609ZM71.74,13.618a1.131,1.131,0,0,0-.469-.967,4.514,4.514,0,0,0-1.635-.594,7.731,7.731,0,0,1-1.851-.6,2.633,2.633,0,0,1-1.013-.83,1.986,1.986,0,0,1-.328-1.146,2.33,2.33,0,0,1,.934-1.868,3.647,3.647,0,0,1,2.386-.764,3.753,3.753,0,0,1,2.478.789,2.5,2.5,0,0,1,.95,2.017H71.649a1.386,1.386,0,0,0-.535-1.087,2.006,2.006,0,0,0-1.349-.457,2.1,2.1,0,0,0-1.312.365,1.15,1.15,0,0,0-.473.955.932.932,0,0,0,.44.838,5.413,5.413,0,0,0,1.59.54,8.283,8.283,0,0,1,1.864.614,2.718,2.718,0,0,1,1.058.859,2.112,2.112,0,0,1,.344,1.224,2.3,2.3,0,0,1-.963,1.93,4.039,4.039,0,0,1-2.5.726,4.523,4.523,0,0,1-1.909-.382,3.105,3.105,0,0,1-1.3-1.067,2.571,2.571,0,0,1-.469-1.482h1.536a1.59,1.59,0,0,0,.618,1.224,2.4,2.4,0,0,0,1.523.452,2.476,2.476,0,0,0,1.4-.353A1.084,1.084,0,0,0,71.74,13.618Zm7.371-2.183a5.261,5.261,0,0,1,.979-3.324,3.333,3.333,0,0,1,5.063-.178V3.25H86.69V16H85.279l-.075-.963a3.127,3.127,0,0,1-2.565,1.129A3.068,3.068,0,0,1,80.1,14.888a5.321,5.321,0,0,1-.984-3.337Zm1.536.174A3.984,3.984,0,0,0,81.278,14a2.039,2.039,0,0,0,1.743.863,2.24,2.24,0,0,0,2.133-1.312V9.426a2.257,2.257,0,0,0-2.117-1.27,2.049,2.049,0,0,0-1.76.872A4.386,4.386,0,0,0,80.647,11.609ZM92.8,16.166a3.924,3.924,0,0,1-2.972-1.2,4.452,4.452,0,0,1-1.146-3.208v-.282a5.39,5.39,0,0,1,.51-2.386,3.982,3.982,0,0,1,1.428-1.644,3.59,3.59,0,0,1,1.988-.594,3.364,3.364,0,0,1,2.723,1.154,5,5,0,0,1,.971,3.3v.639H90.218a3.193,3.193,0,0,0,.776,2.146,2.44,2.44,0,0,0,1.888.818,2.675,2.675,0,0,0,1.378-.332,3.462,3.462,0,0,0,.988-.88l.938.73A3.772,3.772,0,0,1,92.8,16.166Zm-.191-8.052a2.048,2.048,0,0,0-1.561.677,3.288,3.288,0,0,0-.78,1.9h4.5v-.116a2.925,2.925,0,0,0-.631-1.814A1.928,1.928,0,0,0,92.609,8.114Zm17.266,3.495a5.378,5.378,0,0,1-.938,3.3,3.006,3.006,0,0,1-2.54,1.253,3.294,3.294,0,0,1-2.573-1.038v4.325h-1.536V7.019h1.4l.075,1a3.163,3.163,0,0,1,2.606-1.162,3.063,3.063,0,0,1,2.561,1.22,5.437,5.437,0,0,1,.942,3.4Zm-1.536-.174a3.968,3.968,0,0,0-.647-2.4,2.086,2.086,0,0,0-1.776-.88,2.257,2.257,0,0,0-2.092,1.237v4.292a2.262,2.262,0,0,0,2.108,1.229,2.076,2.076,0,0,0,1.756-.876A4.332,4.332,0,0,0,108.339,11.435ZM117.37,16a3.226,3.226,0,0,1-.216-.946,3.426,3.426,0,0,1-2.557,1.112,3.17,3.17,0,0,1-2.179-.751,2.43,2.43,0,0,1-.851-1.905,2.539,2.539,0,0,1,1.067-2.179,5.029,5.029,0,0,1,3-.776h1.494V9.849a1.725,1.725,0,0,0-.481-1.282,1.935,1.935,0,0,0-1.419-.477,2.239,2.239,0,0,0-1.378.415,1.223,1.223,0,0,0-.556,1H111.75a2.119,2.119,0,0,1,.477-1.3,3.258,3.258,0,0,1,1.295-.992,4.356,4.356,0,0,1,1.8-.365,3.551,3.551,0,0,1,2.432.776,2.8,2.8,0,0,1,.913,2.137V13.9a5.054,5.054,0,0,0,.315,1.967V16Zm-2.548-1.17a2.7,2.7,0,0,0,1.37-.374,2.259,2.259,0,0,0,.938-.971V11.642h-1.2q-2.822,0-2.822,1.652a1.4,1.4,0,0,0,.481,1.129A1.85,1.85,0,0,0,114.822,14.83ZM125.413,8.4a4.6,4.6,0,0,0-.755-.058,2.024,2.024,0,0,0-2.05,1.287V16h-1.536V7.019h1.494l.025,1.038a2.391,2.391,0,0,1,2.142-1.2,1.569,1.569,0,0,1,.681.116Zm3.08,7.6h-1.536V7.019h1.536Zm-1.66-11.364a.917.917,0,0,1,.228-.631.857.857,0,0,1,.677-.257.87.87,0,0,1,.681.257.907.907,0,0,1,.232.631.877.877,0,0,1-.232.623.886.886,0,0,1-.681.249.872.872,0,0,1-.677-.249A.886.886,0,0,1,126.833,4.636Zm3.744,6.8a5.261,5.261,0,0,1,.979-3.324,3.333,3.333,0,0,1,5.063-.178V3.25h1.536V16h-1.411l-.075-.963a3.127,3.127,0,0,1-2.565,1.129,3.068,3.068,0,0,1-2.544-1.278,5.321,5.321,0,0,1-.984-3.337Zm1.536.174A3.984,3.984,0,0,0,132.743,14a2.039,2.039,0,0,0,1.743.863,2.24,2.24,0,0,0,2.133-1.312V9.426a2.257,2.257,0,0,0-2.117-1.27,2.049,2.049,0,0,0-1.76.872A4.386,4.386,0,0,0,132.112,11.609ZM146.082,16a3.226,3.226,0,0,1-.216-.946,3.426,3.426,0,0,1-2.557,1.112,3.17,3.17,0,0,1-2.179-.751,2.43,2.43,0,0,1-.851-1.905,2.539,2.539,0,0,1,1.067-2.179,5.029,5.029,0,0,1,3-.776h1.494V9.849a1.725,1.725,0,0,0-.481-1.282,1.935,1.935,0,0,0-1.419-.477,2.239,2.239,0,0,0-1.378.415,1.223,1.223,0,0,0-.556,1h-1.544a2.119,2.119,0,0,1,.477-1.3,3.258,3.258,0,0,1,1.295-.992,4.356,4.356,0,0,1,1.8-.365,3.551,3.551,0,0,1,2.432.776,2.8,2.8,0,0,1,.913,2.137V13.9a5.054,5.054,0,0,0,.315,1.967V16Zm-2.548-1.17a2.7,2.7,0,0,0,1.37-.374,2.259,2.259,0,0,0,.938-.971V11.642h-1.2q-2.822,0-2.822,1.652a1.4,1.4,0,0,0,.481,1.129A1.85,1.85,0,0,0,143.534,14.83Zm5.877-3.4a5.261,5.261,0,0,1,.979-3.324,3.333,3.333,0,0,1,5.063-.178V3.25h1.536V16h-1.411l-.075-.963a3.127,3.127,0,0,1-2.565,1.129,3.068,3.068,0,0,1-2.544-1.278,5.321,5.321,0,0,1-.984-3.337Zm1.536.174A3.984,3.984,0,0,0,151.577,14a2.039,2.039,0,0,0,1.743.863,2.24,2.24,0,0,0,2.133-1.312V9.426a2.257,2.257,0,0,0-2.117-1.27,2.049,2.049,0,0,0-1.76.872A4.386,4.386,0,0,0,150.947,11.609Z" transform="translate(-2970 -10334)" fill="#12263f"/>
    <path id="Trazado_605794" data-name="Trazado 605794" d="M18.433,11.269V16H16.84V3.914H21.3a4.478,4.478,0,0,1,3.109,1.013,3.433,3.433,0,0,1,1.125,2.681,3.388,3.388,0,0,1-1.1,2.71,4.678,4.678,0,0,1-3.15.95Zm0-1.3H21.3a2.863,2.863,0,0,0,1.959-.6,2.2,2.2,0,0,0,.681-1.742,2.277,2.277,0,0,0-.681-1.73,2.682,2.682,0,0,0-1.868-.674H18.433Zm14.435,5.146a3.262,3.262,0,0,1-2.631,1.054,2.792,2.792,0,0,1-2.187-.834,3.611,3.611,0,0,1-.76-2.469V7.019h1.536v5.8q0,2.042,1.66,2.042a2.3,2.3,0,0,0,2.341-1.312V7.019h1.536V16H32.9Zm5.279-8.093.05,1.129a3.273,3.273,0,0,1,2.689-1.295q2.847,0,2.872,3.212V16H42.223V10.057a2.068,2.068,0,0,0-.444-1.436,1.78,1.78,0,0,0-1.357-.465,2.216,2.216,0,0,0-1.312.4,2.706,2.706,0,0,0-.88,1.046V16H36.7V7.019ZM48.158,4.844V7.019h1.677V8.206H48.158v5.577a1.247,1.247,0,0,0,.224.81.943.943,0,0,0,.764.27,3.718,3.718,0,0,0,.73-.1V16a4.478,4.478,0,0,1-1.179.165,1.912,1.912,0,0,1-1.552-.623,2.675,2.675,0,0,1-.523-1.768V8.206H44.988V7.019h1.635V4.844Zm2.9,6.583a5.3,5.3,0,0,1,.519-2.374,3.87,3.87,0,0,1,1.444-1.627,3.932,3.932,0,0,1,2.113-.573A3.788,3.788,0,0,1,58.1,8.123,4.886,4.886,0,0,1,59.232,11.5v.108a5.351,5.351,0,0,1-.5,2.353,3.813,3.813,0,0,1-1.436,1.623,3.977,3.977,0,0,1-2.146.581,3.778,3.778,0,0,1-2.959-1.27,4.861,4.861,0,0,1-1.133-3.362Zm1.544.183a3.842,3.842,0,0,0,.693,2.4A2.349,2.349,0,0,0,57.007,14a4.2,4.2,0,0,0,.689-2.569,3.836,3.836,0,0,0-.7-2.395,2.23,2.23,0,0,0-1.864-.917,2.205,2.205,0,0,0-1.834.9A4.17,4.17,0,0,0,52.6,11.609Zm13.788,2.009a1.131,1.131,0,0,0-.469-.967,4.514,4.514,0,0,0-1.635-.594,7.731,7.731,0,0,1-1.851-.6,2.633,2.633,0,0,1-1.013-.83,1.986,1.986,0,0,1-.328-1.146,2.33,2.33,0,0,1,.934-1.868,3.647,3.647,0,0,1,2.386-.764,3.753,3.753,0,0,1,2.478.789,2.5,2.5,0,0,1,.95,2.017H66.3a1.386,1.386,0,0,0-.535-1.087,2.006,2.006,0,0,0-1.349-.457,2.1,2.1,0,0,0-1.312.365,1.15,1.15,0,0,0-.473.955.932.932,0,0,0,.44.838,5.413,5.413,0,0,0,1.59.54,8.283,8.283,0,0,1,1.864.614,2.718,2.718,0,0,1,1.058.859,2.112,2.112,0,0,1,.344,1.224,2.3,2.3,0,0,1-.963,1.93,4.039,4.039,0,0,1-2.5.726,4.523,4.523,0,0,1-1.909-.382,3.105,3.105,0,0,1-1.3-1.067,2.571,2.571,0,0,1-.469-1.482H62.32a1.59,1.59,0,0,0,.618,1.224,2.4,2.4,0,0,0,1.523.452,2.476,2.476,0,0,0,1.4-.353A1.084,1.084,0,0,0,66.387,13.618Zm7.371-2.183a5.261,5.261,0,0,1,.979-3.324A3.333,3.333,0,0,1,79.8,7.932V3.25h1.536V16H79.926l-.075-.963a3.127,3.127,0,0,1-2.565,1.129,3.068,3.068,0,0,1-2.544-1.278,5.321,5.321,0,0,1-.984-3.337Zm1.536.174A3.984,3.984,0,0,0,75.925,14a2.039,2.039,0,0,0,1.743.863A2.24,2.24,0,0,0,79.8,13.551V9.426a2.257,2.257,0,0,0-2.117-1.27,2.049,2.049,0,0,0-1.76.872A4.386,4.386,0,0,0,75.294,11.609Zm12.152,4.557a3.924,3.924,0,0,1-2.972-1.2,4.452,4.452,0,0,1-1.146-3.208v-.282a5.39,5.39,0,0,1,.51-2.386,3.982,3.982,0,0,1,1.428-1.644,3.59,3.59,0,0,1,1.988-.594,3.364,3.364,0,0,1,2.723,1.154,5,5,0,0,1,.971,3.3v.639H84.865a3.193,3.193,0,0,0,.776,2.146,2.44,2.44,0,0,0,1.888.818,2.675,2.675,0,0,0,1.378-.332,3.462,3.462,0,0,0,.988-.88l.938.73A3.772,3.772,0,0,1,87.446,16.166Zm-.191-8.052a2.048,2.048,0,0,0-1.561.677,3.288,3.288,0,0,0-.78,1.9h4.5v-.116a2.925,2.925,0,0,0-.631-1.814A1.928,1.928,0,0,0,87.255,8.114Zm-70.3,27.32a5.261,5.261,0,0,1,.979-3.324A3.1,3.1,0,0,1,20.5,30.853a3.115,3.115,0,0,1,2.5,1.079V27.25H24.53V40H23.119l-.075-.963a3.127,3.127,0,0,1-2.565,1.129,3.068,3.068,0,0,1-2.544-1.278,5.321,5.321,0,0,1-.984-3.337Zm1.536.174A3.984,3.984,0,0,0,19.118,38a2.039,2.039,0,0,0,1.743.863,2.24,2.24,0,0,0,2.133-1.312V33.426a2.257,2.257,0,0,0-2.117-1.27,2.049,2.049,0,0,0-1.76.872A4.386,4.386,0,0,0,18.487,35.609ZM28.581,40H27.045V31.019h1.536Zm-1.66-11.364a.917.917,0,0,1,.228-.631.857.857,0,0,1,.677-.257.87.87,0,0,1,.681.257.907.907,0,0,1,.232.631.877.877,0,0,1-.232.623.886.886,0,0,1-.681.249.872.872,0,0,1-.677-.249A.886.886,0,0,1,26.921,28.636ZM31.793,40V32.206H30.374V31.019h1.419V30.1a3.058,3.058,0,0,1,.772-2.233,2.916,2.916,0,0,1,2.183-.789,4.055,4.055,0,0,1,1.054.14l-.083,1.238a4.41,4.41,0,0,0-.83-.075,1.5,1.5,0,0,0-1.154.437,1.773,1.773,0,0,0-.407,1.253v.949h1.917v1.187H33.329V40Zm8.674.166a3.924,3.924,0,0,1-2.972-1.2,4.452,4.452,0,0,1-1.146-3.208v-.282a5.39,5.39,0,0,1,.51-2.386,3.982,3.982,0,0,1,1.428-1.644,3.59,3.59,0,0,1,1.988-.594A3.364,3.364,0,0,1,43,32.006a5,5,0,0,1,.971,3.3v.639H37.886a3.193,3.193,0,0,0,.776,2.146,2.44,2.44,0,0,0,1.888.818,2.675,2.675,0,0,0,1.378-.332,3.462,3.462,0,0,0,.988-.88l.938.73A3.772,3.772,0,0,1,40.468,40.166Zm-.191-8.052a2.048,2.048,0,0,0-1.561.677,3.288,3.288,0,0,0-.78,1.9h4.5v-.116a2.925,2.925,0,0,0-.631-1.814A1.928,1.928,0,0,0,40.277,32.114Zm9.812.282a4.6,4.6,0,0,0-.755-.058,2.024,2.024,0,0,0-2.05,1.287V40H45.747V31.019h1.494l.025,1.038a2.391,2.391,0,0,1,2.142-1.2,1.569,1.569,0,0,1,.681.116Zm4.98,7.77a3.924,3.924,0,0,1-2.972-1.2,4.452,4.452,0,0,1-1.146-3.208v-.282a5.39,5.39,0,0,1,.51-2.386,3.982,3.982,0,0,1,1.428-1.644,3.59,3.59,0,0,1,1.988-.594A3.364,3.364,0,0,1,57.6,32.006a5,5,0,0,1,.971,3.3v.639H52.487a3.193,3.193,0,0,0,.776,2.146,2.44,2.44,0,0,0,1.888.818,2.675,2.675,0,0,0,1.378-.332,3.462,3.462,0,0,0,.988-.88l.938.73A3.772,3.772,0,0,1,55.069,40.166Zm-.191-8.052a2.048,2.048,0,0,0-1.561.677,3.288,3.288,0,0,0-.78,1.9h4.5v-.116a2.925,2.925,0,0,0-.631-1.814A1.928,1.928,0,0,0,54.878,32.114Zm6.923-1.1.05,1.129a3.273,3.273,0,0,1,2.689-1.295q2.847,0,2.872,3.212V40H65.876V34.057a2.068,2.068,0,0,0-.444-1.436,1.78,1.78,0,0,0-1.357-.465,2.216,2.216,0,0,0-1.312.4,2.706,2.706,0,0,0-.88,1.046V40H60.348V31.019Zm11.53,7.894a2.212,2.212,0,0,0,1.436-.5,1.752,1.752,0,0,0,.681-1.245H76.9a2.785,2.785,0,0,1-.531,1.469,3.5,3.5,0,0,1-1.307,1.112,3.772,3.772,0,0,1-1.731.415,3.7,3.7,0,0,1-2.918-1.224,4.877,4.877,0,0,1-1.083-3.349v-.257A5.407,5.407,0,0,1,69.811,33a3.667,3.667,0,0,1,1.382-1.585,3.926,3.926,0,0,1,2.129-.564,3.6,3.6,0,0,1,2.511.9A3.234,3.234,0,0,1,76.9,34.106H75.447a2.116,2.116,0,0,0-.66-1.432,2.053,2.053,0,0,0-1.465-.56,2.149,2.149,0,0,0-1.814.843,3.957,3.957,0,0,0-.643,2.436v.291a3.878,3.878,0,0,0,.639,2.391A2.16,2.16,0,0,0,73.331,38.913ZM80.295,40H78.759V31.019h1.536Zm-1.66-11.364a.917.917,0,0,1,.228-.631.857.857,0,0,1,.677-.257.87.87,0,0,1,.681.257.907.907,0,0,1,.232.631.877.877,0,0,1-.232.623.886.886,0,0,1-.681.249.872.872,0,0,1-.677-.249A.886.886,0,0,1,78.635,28.636ZM88.3,40a3.226,3.226,0,0,1-.216-.946,3.426,3.426,0,0,1-2.557,1.112,3.17,3.17,0,0,1-2.179-.751,2.43,2.43,0,0,1-.851-1.905,2.539,2.539,0,0,1,1.067-2.179,5.029,5.029,0,0,1,3-.776h1.494v-.706a1.725,1.725,0,0,0-.481-1.282,1.935,1.935,0,0,0-1.419-.477,2.239,2.239,0,0,0-1.378.415,1.223,1.223,0,0,0-.556,1H82.677a2.119,2.119,0,0,1,.477-1.3,3.258,3.258,0,0,1,1.295-.992,4.356,4.356,0,0,1,1.8-.365,3.551,3.551,0,0,1,2.432.776,2.8,2.8,0,0,1,.913,2.137V37.9a5.054,5.054,0,0,0,.315,1.967V40Zm-2.548-1.17a2.7,2.7,0,0,0,1.37-.374,2.259,2.259,0,0,0,.938-.971V35.642h-1.2q-2.822,0-2.822,1.652a1.4,1.4,0,0,0,.481,1.129A1.85,1.85,0,0,0,85.749,38.83Z" transform="translate(-3093 -10814)" fill="#12263f"/>
    <g id="Rectángulo_345827" data-name="Rectángulo 345827" transform="translate(-2815 -10833)" fill="none" stroke="#707070" stroke-width="2" stroke-dasharray="4">
      <rect width="172" height="81" rx="10" stroke="none"/>
      <rect x="1" y="1" width="170" height="79" rx="9" fill="none"/>
    </g>
    <g id="Rectángulo_345828" data-name="Rectángulo 345828" transform="translate(-2996 -10354)" fill="none" stroke="#a3bfe4" stroke-width="3" stroke-dasharray="4">
      <rect width="231" height="60" rx="10" stroke="none"/>
      <rect x="1.5" y="1.5" width="228" height="57" rx="8.5" fill="none"/>
    </g>
    <g id="Rectángulo_345829" data-name="Rectángulo 345829" transform="translate(-3126 -10833)" fill="none" stroke="#707070" stroke-width="2" stroke-dasharray="4">
      <rect width="172" height="81" rx="10" stroke="none"/>
      <rect x="1" y="1" width="170" height="79" rx="9" fill="none"/>
    </g>
    <ellipse id="Elipse_5761" data-name="Elipse 5761" cx="125.5" cy="111.5" rx="125.5" ry="111.5" transform="translate(-3104 -10598)" fill="#fff198" opacity="0.29"/>
    <ellipse id="Elipse_5762" data-name="Elipse 5762" cx="125.5" cy="111.5" rx="125.5" ry="111.5" transform="translate(-2915 -10598)" fill="#33ece0" opacity="0.29"/>
    <ellipse id="Elipse_5763" data-name="Elipse 5763" cx="115.5" cy="112" rx="115.5" ry="112" transform="translate(-2999 -10735)" fill="#a3bfe4" opacity="0.29"/>
    <path id="Trazado_605793" data-name="Trazado 605793" d="M11.058,16H8.568L3.72,8.048V16H1.23V3.914H3.72l4.856,7.969V3.914h2.482Zm6.151.166a4.409,4.409,0,0,1-3.217-1.212,4.308,4.308,0,0,1-1.241-3.229v-.232a5.426,5.426,0,0,1,.523-2.42,3.838,3.838,0,0,1,1.482-1.644,4.159,4.159,0,0,1,2.187-.577,3.727,3.727,0,0,1,2.9,1.162,4.722,4.722,0,0,1,1.058,3.3v.979H15.184a2.229,2.229,0,0,0,.7,1.411,2.12,2.12,0,0,0,1.482.531,2.589,2.589,0,0,0,2.167-1l1.179,1.32a3.6,3.6,0,0,1-1.461,1.191A4.793,4.793,0,0,1,17.209,16.166Zm-.274-7.379a1.5,1.5,0,0,0-1.158.484,2.5,2.5,0,0,0-.569,1.384h3.337v-.192a1.786,1.786,0,0,0-.432-1.238A1.547,1.547,0,0,0,16.935,8.787ZM26,14.232a1.573,1.573,0,0,0,1.079-.365,1.28,1.28,0,0,0,.432-.971h2.25a3.077,3.077,0,0,1-.5,1.673,3.286,3.286,0,0,1-1.341,1.179,4.2,4.2,0,0,1-1.88.419A3.9,3.9,0,0,1,23,14.942a4.845,4.845,0,0,1-1.112-3.383V11.4a4.79,4.79,0,0,1,1.1-3.312,3.854,3.854,0,0,1,3.03-1.237,3.778,3.778,0,0,1,2.7.959,3.4,3.4,0,0,1,1.033,2.552H27.51a1.648,1.648,0,0,0-.432-1.139,1.6,1.6,0,0,0-2.362.173,3.541,3.541,0,0,0-.427,1.983v.249a3.586,3.586,0,0,0,.423,2A1.463,1.463,0,0,0,26,14.232Zm9.264,1.934a4.409,4.409,0,0,1-3.217-1.212,4.308,4.308,0,0,1-1.241-3.229v-.232a5.426,5.426,0,0,1,.523-2.42,3.838,3.838,0,0,1,1.482-1.644A4.159,4.159,0,0,1,35,6.853a3.727,3.727,0,0,1,2.9,1.162,4.722,4.722,0,0,1,1.058,3.3v.979H33.238a2.229,2.229,0,0,0,.7,1.411,2.12,2.12,0,0,0,1.482.531,2.589,2.589,0,0,0,2.167-1l1.179,1.32a3.6,3.6,0,0,1-1.461,1.191A4.793,4.793,0,0,1,35.263,16.166ZM34.99,8.787a1.5,1.5,0,0,0-1.158.484,2.5,2.5,0,0,0-.569,1.384H36.6v-.192a1.786,1.786,0,0,0-.432-1.238A1.547,1.547,0,0,0,34.99,8.787Zm10.193,4.731a.773.773,0,0,0-.436-.693,4.95,4.95,0,0,0-1.4-.452q-3.2-.672-3.2-2.723a2.468,2.468,0,0,1,.992-2,4,4,0,0,1,2.594-.8,4.307,4.307,0,0,1,2.735.805A2.538,2.538,0,0,1,47.49,9.75h-2.4A1.161,1.161,0,0,0,44.76,8.9a1.405,1.405,0,0,0-1.038-.336,1.436,1.436,0,0,0-.938.274.865.865,0,0,0-.332.7.739.739,0,0,0,.378.643A3.885,3.885,0,0,0,44.1,10.6a10.407,10.407,0,0,1,1.511.4,2.482,2.482,0,0,1,1.9,2.416,2.343,2.343,0,0,1-1.054,1.988,4.548,4.548,0,0,1-2.723.76,4.75,4.75,0,0,1-2-.4,3.363,3.363,0,0,1-1.374-1.1,2.565,2.565,0,0,1-.5-1.515h2.274a1.252,1.252,0,0,0,.473.979,1.877,1.877,0,0,0,1.179.34A1.737,1.737,0,0,0,44.83,14.2.814.814,0,0,0,45.183,13.518ZM51.591,16H49.184V7.019h2.407ZM49.043,4.694a1.181,1.181,0,0,1,.361-.888,1.556,1.556,0,0,1,1.963,0,1.175,1.175,0,0,1,.365.888,1.178,1.178,0,0,1-.369.9,1.539,1.539,0,0,1-1.951,0A1.178,1.178,0,0,1,49.043,4.694Zm4.15,6.749A5.413,5.413,0,0,1,54.135,8.1a3.057,3.057,0,0,1,2.577-1.245,2.751,2.751,0,0,1,2.167.979V3.25h2.407V16H59.12L59,15.045A2.823,2.823,0,0,1,56.7,16.166a3.049,3.049,0,0,1-2.544-1.249A5.587,5.587,0,0,1,53.193,11.443Zm2.4.179a3.546,3.546,0,0,0,.44,1.937,1.433,1.433,0,0,0,1.278.673,1.605,1.605,0,0,0,1.569-.939V9.743A1.582,1.582,0,0,0,57.327,8.8Q55.592,8.8,55.592,11.621ZM68.35,16a2.664,2.664,0,0,1-.241-.805,2.9,2.9,0,0,1-2.266.971,3.189,3.189,0,0,1-2.187-.764,2.456,2.456,0,0,1-.867-1.926,2.538,2.538,0,0,1,1.058-2.191,5.222,5.222,0,0,1,3.059-.772h1.1V10a1.48,1.48,0,0,0-.32-1,1.257,1.257,0,0,0-1.009-.374,1.429,1.429,0,0,0-.95.291.987.987,0,0,0-.344.8h-2.4a2.41,2.41,0,0,1,.481-1.444A3.182,3.182,0,0,1,64.831,7.23a4.961,4.961,0,0,1,1.976-.378,3.92,3.92,0,0,1,2.635.834,2.918,2.918,0,0,1,.975,2.345v3.893a4.294,4.294,0,0,0,.357,1.934V16Zm-1.984-1.668a2.066,2.066,0,0,0,.979-.237,1.554,1.554,0,0,0,.664-.635V11.916h-.9q-1.8,0-1.917,1.245l-.008.141a.96.96,0,0,0,.315.739A1.225,1.225,0,0,0,66.366,14.332Zm5.52-2.889A5.413,5.413,0,0,1,72.829,8.1a3.057,3.057,0,0,1,2.577-1.245,2.751,2.751,0,0,1,2.167.979V3.25H79.98V16H77.813l-.116-.955a2.823,2.823,0,0,1-2.308,1.121,3.049,3.049,0,0,1-2.544-1.249A5.587,5.587,0,0,1,71.886,11.443Zm2.4.179a3.546,3.546,0,0,0,.44,1.937A1.433,1.433,0,0,0,76,14.232a1.605,1.605,0,0,0,1.569-.939V9.743A1.582,1.582,0,0,0,76.02,8.8Q74.285,8.8,74.285,11.621Zm11.688,4.545a4.409,4.409,0,0,1-3.217-1.212,4.308,4.308,0,0,1-1.241-3.229v-.232a5.426,5.426,0,0,1,.523-2.42A3.838,3.838,0,0,1,83.52,7.429a4.159,4.159,0,0,1,2.187-.577,3.727,3.727,0,0,1,2.9,1.162,4.722,4.722,0,0,1,1.058,3.3v.979H83.948a2.229,2.229,0,0,0,.7,1.411,2.12,2.12,0,0,0,1.482.531,2.589,2.589,0,0,0,2.167-1l1.179,1.32a3.6,3.6,0,0,1-1.461,1.191A4.793,4.793,0,0,1,85.973,16.166ZM85.7,8.787a1.5,1.5,0,0,0-1.158.484,2.5,2.5,0,0,0-.569,1.384h3.337v-.192a1.786,1.786,0,0,0-.432-1.238A1.547,1.547,0,0,0,85.7,8.787Zm10.193,4.731a.773.773,0,0,0-.436-.693,4.95,4.95,0,0,0-1.4-.452q-3.2-.672-3.2-2.723a2.468,2.468,0,0,1,.992-2,4,4,0,0,1,2.594-.8,4.307,4.307,0,0,1,2.735.805A2.538,2.538,0,0,1,98.2,9.75H95.8a1.161,1.161,0,0,0-.332-.851,1.405,1.405,0,0,0-1.038-.336,1.436,1.436,0,0,0-.938.274.865.865,0,0,0-.332.7.739.739,0,0,0,.378.643,3.885,3.885,0,0,0,1.274.423,10.407,10.407,0,0,1,1.511.4,2.482,2.482,0,0,1,1.9,2.416,2.343,2.343,0,0,1-1.054,1.988,4.548,4.548,0,0,1-2.723.76,4.75,4.75,0,0,1-2-.4,3.363,3.363,0,0,1-1.374-1.1,2.565,2.565,0,0,1-.5-1.515h2.274a1.252,1.252,0,0,0,.473.979,1.877,1.877,0,0,0,1.179.34A1.737,1.737,0,0,0,95.54,14.2.814.814,0,0,0,95.892,13.518Zm7.736-2.075a5.413,5.413,0,0,1,.942-3.345,3.057,3.057,0,0,1,2.577-1.245,2.751,2.751,0,0,1,2.167.979V3.25h2.407V16h-2.167l-.116-.955a2.823,2.823,0,0,1-2.308,1.121,3.049,3.049,0,0,1-2.544-1.249A5.587,5.587,0,0,1,103.629,11.443Zm2.4.179a3.546,3.546,0,0,0,.44,1.937,1.433,1.433,0,0,0,1.278.673,1.605,1.605,0,0,0,1.569-.939V9.743a1.582,1.582,0,0,0-1.552-.939Q106.028,8.8,106.028,11.621Zm11.688,4.545a4.409,4.409,0,0,1-3.217-1.212,4.308,4.308,0,0,1-1.241-3.229v-.232a5.426,5.426,0,0,1,.523-2.42,3.838,3.838,0,0,1,1.482-1.644,4.159,4.159,0,0,1,2.187-.577,3.727,3.727,0,0,1,2.9,1.162,4.722,4.722,0,0,1,1.058,3.3v.979H115.69a2.229,2.229,0,0,0,.7,1.411,2.12,2.12,0,0,0,1.482.531,2.589,2.589,0,0,0,2.167-1l1.179,1.32a3.6,3.6,0,0,1-1.461,1.191A4.793,4.793,0,0,1,117.715,16.166Zm-.274-7.379a1.5,1.5,0,0,0-1.158.484,2.5,2.5,0,0,0-.569,1.384h3.337v-.192a1.786,1.786,0,0,0-.432-1.238A1.547,1.547,0,0,0,117.441,8.787ZM17.936,40H15.528V27.25h2.407Zm1.6-4.574a5.327,5.327,0,0,1,.515-2.382,3.768,3.768,0,0,1,1.482-1.619,4.323,4.323,0,0,1,2.245-.573,4.09,4.09,0,0,1,2.968,1.112,4.464,4.464,0,0,1,1.282,3.021l.017.614a4.694,4.694,0,0,1-1.154,3.316,4.011,4.011,0,0,1-3.1,1.249,4.031,4.031,0,0,1-3.1-1.245,4.777,4.777,0,0,1-1.158-3.387Zm2.4.17a3.357,3.357,0,0,0,.481,1.958,1.73,1.73,0,0,0,2.739.008,3.674,3.674,0,0,0,.49-2.141,3.324,3.324,0,0,0-.49-1.945,1.592,1.592,0,0,0-1.378-.69,1.566,1.566,0,0,0-1.361.686A3.735,3.735,0,0,0,21.937,35.6Zm12.451,1.922a.773.773,0,0,0-.436-.693,4.95,4.95,0,0,0-1.4-.452q-3.2-.672-3.2-2.723a2.468,2.468,0,0,1,.992-2,4,4,0,0,1,2.594-.8,4.307,4.307,0,0,1,2.735.805A2.538,2.538,0,0,1,36.7,33.75H34.3a1.161,1.161,0,0,0-.332-.851,1.405,1.405,0,0,0-1.038-.336,1.436,1.436,0,0,0-.938.274.865.865,0,0,0-.332.7.739.739,0,0,0,.378.643,3.885,3.885,0,0,0,1.274.423,10.407,10.407,0,0,1,1.511.4,2.482,2.482,0,0,1,1.9,2.416,2.343,2.343,0,0,1-1.054,1.988,4.548,4.548,0,0,1-2.723.76,4.75,4.75,0,0,1-2-.4,3.363,3.363,0,0,1-1.374-1.1,2.565,2.565,0,0,1-.5-1.515h2.274a1.252,1.252,0,0,0,.473.979,1.877,1.877,0,0,0,1.179.34,1.737,1.737,0,0,0,1.042-.261A.814.814,0,0,0,34.388,37.518Zm13.489,1.569a3.008,3.008,0,0,1-2.457,1.079,2.837,2.837,0,0,1-2.2-.83,3.543,3.543,0,0,1-.776-2.432V31.019h2.4v5.809q0,1.4,1.278,1.4a1.732,1.732,0,0,0,1.677-.848V31.019H50.2V40H47.943Zm9-1.569a.773.773,0,0,0-.436-.693,4.95,4.95,0,0,0-1.4-.452q-3.2-.672-3.2-2.723a2.468,2.468,0,0,1,.992-2,4,4,0,0,1,2.594-.8,4.307,4.307,0,0,1,2.735.805,2.538,2.538,0,0,1,1.025,2.092h-2.4a1.161,1.161,0,0,0-.332-.851,1.405,1.405,0,0,0-1.038-.336,1.436,1.436,0,0,0-.938.274.865.865,0,0,0-.332.7.739.739,0,0,0,.378.643A3.885,3.885,0,0,0,55.8,34.6a10.407,10.407,0,0,1,1.511.4,2.482,2.482,0,0,1,1.9,2.416,2.343,2.343,0,0,1-1.054,1.988,4.548,4.548,0,0,1-2.723.76,4.75,4.75,0,0,1-2-.4,3.363,3.363,0,0,1-1.374-1.1,2.565,2.565,0,0,1-.5-1.515h2.274a1.252,1.252,0,0,0,.473.979,1.877,1.877,0,0,0,1.179.34,1.737,1.737,0,0,0,1.042-.261A.814.814,0,0,0,56.875,37.518Zm9.255,1.569a3.008,3.008,0,0,1-2.457,1.079,2.837,2.837,0,0,1-2.2-.83,3.543,3.543,0,0,1-.776-2.432V31.019h2.4v5.809q0,1.4,1.278,1.4a1.732,1.732,0,0,0,1.677-.848V31.019h2.407V40H66.2ZM75.468,40a2.664,2.664,0,0,1-.241-.805,2.9,2.9,0,0,1-2.266.971,3.189,3.189,0,0,1-2.187-.764,2.456,2.456,0,0,1-.867-1.926,2.538,2.538,0,0,1,1.058-2.191,5.222,5.222,0,0,1,3.059-.772h1.1V34a1.48,1.48,0,0,0-.32-1,1.257,1.257,0,0,0-1.009-.374,1.429,1.429,0,0,0-.95.291.987.987,0,0,0-.344.8h-2.4a2.41,2.41,0,0,1,.481-1.444,3.182,3.182,0,0,1,1.361-1.042,4.961,4.961,0,0,1,1.976-.378,3.92,3.92,0,0,1,2.635.834,2.918,2.918,0,0,1,.975,2.345v3.893a4.294,4.294,0,0,0,.357,1.934V40Zm-1.984-1.668a2.066,2.066,0,0,0,.979-.237,1.554,1.554,0,0,0,.664-.635V35.916h-.9q-1.8,0-1.917,1.245l-.008.141a.96.96,0,0,0,.315.739A1.225,1.225,0,0,0,73.484,38.332Zm10.94-5.063a6.517,6.517,0,0,0-.863-.066,1.757,1.757,0,0,0-1.785.921V40h-2.4V31.019h2.266l.066,1.071a2.223,2.223,0,0,1,2-1.237,2.514,2.514,0,0,1,.747.108ZM88.11,40H85.7V31.019H88.11ZM85.562,28.694a1.181,1.181,0,0,1,.361-.888,1.556,1.556,0,0,1,1.963,0,1.268,1.268,0,0,1,0,1.785,1.539,1.539,0,0,1-1.951,0A1.178,1.178,0,0,1,85.562,28.694Zm4.15,6.732a5.326,5.326,0,0,1,.515-2.382,3.768,3.768,0,0,1,1.482-1.619,4.323,4.323,0,0,1,2.245-.573,4.09,4.09,0,0,1,2.968,1.112A4.464,4.464,0,0,1,98.2,34.986l.017.614a4.694,4.694,0,0,1-1.154,3.316,4.472,4.472,0,0,1-6.2,0,4.777,4.777,0,0,1-1.158-3.387Zm2.4.17a3.357,3.357,0,0,0,.481,1.958,1.73,1.73,0,0,0,2.739.008,3.674,3.674,0,0,0,.49-2.141,3.324,3.324,0,0,0-.49-1.945,1.592,1.592,0,0,0-1.378-.69,1.566,1.566,0,0,0-1.361.686A3.735,3.735,0,0,0,92.111,35.6Zm12.451,1.922a.773.773,0,0,0-.436-.693,4.95,4.95,0,0,0-1.4-.452q-3.2-.672-3.2-2.723a2.468,2.468,0,0,1,.992-2,4,4,0,0,1,2.594-.8,4.307,4.307,0,0,1,2.735.805,2.538,2.538,0,0,1,1.025,2.092h-2.4a1.161,1.161,0,0,0-.332-.851,1.405,1.405,0,0,0-1.038-.336,1.436,1.436,0,0,0-.938.274.865.865,0,0,0-.332.7.739.739,0,0,0,.378.643,3.885,3.885,0,0,0,1.274.423,10.407,10.407,0,0,1,1.511.4,2.482,2.482,0,0,1,1.9,2.416,2.343,2.343,0,0,1-1.054,1.988,4.548,4.548,0,0,1-2.723.76,4.75,4.75,0,0,1-2-.4,3.363,3.363,0,0,1-1.374-1.1,2.565,2.565,0,0,1-.5-1.515h2.274a1.252,1.252,0,0,0,.473.979,1.877,1.877,0,0,0,1.179.34,1.737,1.737,0,0,0,1.042-.261A.814.814,0,0,0,104.563,37.518Z" transform="translate(-2944 -10657)" fill="#12263f"/>
    <path id="Trazado_605792" data-name="Trazado 605792" d="M17.893,11.742V16H15.4V3.914h4.715a5.455,5.455,0,0,1,2.395.5A3.67,3.67,0,0,1,24.1,5.827a3.946,3.946,0,0,1,.556,2.088,3.47,3.47,0,0,1-1.216,2.8,5.065,5.065,0,0,1-3.366,1.025Zm0-2.017h2.225a2.187,2.187,0,0,0,1.507-.465,1.691,1.691,0,0,0,.519-1.328A1.994,1.994,0,0,0,21.62,6.5a1.953,1.953,0,0,0-1.444-.564H17.893Zm13.364-.457a6.517,6.517,0,0,0-.863-.066,1.757,1.757,0,0,0-1.785.921V16h-2.4V7.019h2.266l.066,1.071a2.223,2.223,0,0,1,2-1.237,2.514,2.514,0,0,1,.747.108Zm.481,2.158a5.327,5.327,0,0,1,.515-2.382,3.767,3.767,0,0,1,1.482-1.619,4.323,4.323,0,0,1,2.245-.573,4.09,4.09,0,0,1,2.968,1.112,4.464,4.464,0,0,1,1.282,3.021l.017.614a4.694,4.694,0,0,1-1.154,3.316A4.011,4.011,0,0,1,36,16.166a4.031,4.031,0,0,1-3.1-1.245,4.777,4.777,0,0,1-1.158-3.387Zm2.4.17a3.357,3.357,0,0,0,.481,1.958,1.73,1.73,0,0,0,2.739.008,3.674,3.674,0,0,0,.49-2.141,3.324,3.324,0,0,0-.49-1.945,1.592,1.592,0,0,0-1.378-.69,1.566,1.566,0,0,0-1.361.686A3.735,3.735,0,0,0,34.138,11.6Zm15.672,0a5.387,5.387,0,0,1-.942,3.324,3.021,3.021,0,0,1-2.544,1.249,2.8,2.8,0,0,1-2.2-.946v4.233h-2.4V7.019h2.225l.083.88a2.819,2.819,0,0,1,2.274-1.046,3.041,3.041,0,0,1,2.582,1.229,5.532,5.532,0,0,1,.921,3.387Zm-2.4-.174a3.535,3.535,0,0,0-.444-1.934A1.446,1.446,0,0,0,45.676,8.8a1.571,1.571,0,0,0-1.552.863v3.677a1.6,1.6,0,0,0,1.569.888Q47.411,14.232,47.411,11.418Zm9.264,3.669a3.008,3.008,0,0,1-2.457,1.079,2.837,2.837,0,0,1-2.2-.83,3.543,3.543,0,0,1-.776-2.432V7.019h2.4v5.809q0,1.4,1.278,1.4a1.732,1.732,0,0,0,1.677-.848V7.019H59V16H56.741Zm8.268,1.079a4.409,4.409,0,0,1-3.217-1.212,4.308,4.308,0,0,1-1.241-3.229v-.232a5.426,5.426,0,0,1,.523-2.42,3.838,3.838,0,0,1,1.482-1.644,4.159,4.159,0,0,1,2.187-.577,3.727,3.727,0,0,1,2.9,1.162,4.722,4.722,0,0,1,1.058,3.3v.979H62.917a2.229,2.229,0,0,0,.7,1.411,2.12,2.12,0,0,0,1.482.531,2.589,2.589,0,0,0,2.167-1l1.179,1.32a3.6,3.6,0,0,1-1.461,1.191A4.793,4.793,0,0,1,64.942,16.166Zm-.274-7.379a1.5,1.5,0,0,0-1.158.484,2.5,2.5,0,0,0-.569,1.384h3.337v-.192a1.786,1.786,0,0,0-.432-1.238A1.547,1.547,0,0,0,64.668,8.787Zm10.193,4.731a.773.773,0,0,0-.436-.693,4.95,4.95,0,0,0-1.4-.452q-3.2-.672-3.2-2.723a2.468,2.468,0,0,1,.992-2,4,4,0,0,1,2.594-.8,4.307,4.307,0,0,1,2.735.805A2.538,2.538,0,0,1,77.169,9.75h-2.4a1.161,1.161,0,0,0-.332-.851A1.405,1.405,0,0,0,73.4,8.563a1.436,1.436,0,0,0-.938.274.865.865,0,0,0-.332.7.739.739,0,0,0,.378.643,3.885,3.885,0,0,0,1.274.423,10.407,10.407,0,0,1,1.511.4,2.482,2.482,0,0,1,1.9,2.416,2.343,2.343,0,0,1-1.054,1.988,4.548,4.548,0,0,1-2.723.76,4.75,4.75,0,0,1-2-.4,3.363,3.363,0,0,1-1.374-1.1,2.565,2.565,0,0,1-.5-1.515h2.274a1.252,1.252,0,0,0,.473.979,1.877,1.877,0,0,0,1.179.34,1.737,1.737,0,0,0,1.042-.261A.814.814,0,0,0,74.861,13.518ZM81.61,4.811V7.019h1.536v1.76H81.61v4.482a1.07,1.07,0,0,0,.191.714.959.959,0,0,0,.73.216,3.826,3.826,0,0,0,.706-.058V15.95a4.938,4.938,0,0,1-1.453.216,2.29,2.29,0,0,1-2.573-2.548V8.778H77.9V7.019h1.312V4.811ZM89.687,16a2.664,2.664,0,0,1-.241-.805,2.9,2.9,0,0,1-2.266.971,3.189,3.189,0,0,1-2.187-.764,2.456,2.456,0,0,1-.867-1.926,2.538,2.538,0,0,1,1.058-2.191,5.222,5.222,0,0,1,3.059-.772h1.1V10a1.48,1.48,0,0,0-.32-1,1.257,1.257,0,0,0-1.009-.374,1.429,1.429,0,0,0-.95.291.987.987,0,0,0-.344.8h-2.4a2.41,2.41,0,0,1,.481-1.444A3.182,3.182,0,0,1,86.167,7.23a4.961,4.961,0,0,1,1.976-.378,3.92,3.92,0,0,1,2.635.834,2.918,2.918,0,0,1,.975,2.345v3.893a4.294,4.294,0,0,0,.357,1.934V16ZM87.7,14.332a2.066,2.066,0,0,0,.979-.237,1.554,1.554,0,0,0,.664-.635V11.916h-.9q-1.8,0-1.917,1.245l-.008.141a.96.96,0,0,0,.315.739A1.225,1.225,0,0,0,87.7,14.332Zm9.753-2.889A5.413,5.413,0,0,1,98.4,8.1a3.057,3.057,0,0,1,2.577-1.245,2.751,2.751,0,0,1,2.167.979V3.25h2.407V16h-2.167l-.116-.955a2.823,2.823,0,0,1-2.308,1.121,3.049,3.049,0,0,1-2.544-1.249A5.587,5.587,0,0,1,97.456,11.443Zm2.4.179a3.546,3.546,0,0,0,.44,1.937,1.433,1.433,0,0,0,1.278.673,1.605,1.605,0,0,0,1.569-.939V9.743A1.582,1.582,0,0,0,101.59,8.8Q99.855,8.8,99.855,11.621Zm11.688,4.545a4.409,4.409,0,0,1-3.217-1.212,4.308,4.308,0,0,1-1.241-3.229v-.232a5.426,5.426,0,0,1,.523-2.42,3.838,3.838,0,0,1,1.482-1.644,4.159,4.159,0,0,1,2.187-.577,3.727,3.727,0,0,1,2.9,1.162,4.722,4.722,0,0,1,1.058,3.3v.979h-5.719a2.229,2.229,0,0,0,.7,1.411,2.12,2.12,0,0,0,1.482.531,2.589,2.589,0,0,0,2.167-1l1.179,1.32a3.6,3.6,0,0,1-1.461,1.191A4.793,4.793,0,0,1,111.542,16.166Zm-.274-7.379a1.5,1.5,0,0,0-1.158.484,2.5,2.5,0,0,0-.569,1.384h3.337v-.192a1.786,1.786,0,0,0-.432-1.238A1.547,1.547,0,0,0,111.269,8.787ZM25.285,37.07l1.668-6.051H29.46L26.43,40H24.139l-3.03-8.981h2.507ZM35.594,40a2.664,2.664,0,0,1-.241-.805,2.9,2.9,0,0,1-2.266.971A3.189,3.189,0,0,1,30.9,39.4a2.456,2.456,0,0,1-.867-1.926,2.538,2.538,0,0,1,1.058-2.191,5.222,5.222,0,0,1,3.059-.772h1.1V34a1.48,1.48,0,0,0-.32-1,1.257,1.257,0,0,0-1.009-.374,1.429,1.429,0,0,0-.95.291.987.987,0,0,0-.344.8h-2.4a2.41,2.41,0,0,1,.481-1.444,3.182,3.182,0,0,1,1.361-1.042,4.961,4.961,0,0,1,1.976-.378,3.92,3.92,0,0,1,2.635.834,2.918,2.918,0,0,1,.975,2.345v3.893a4.294,4.294,0,0,0,.357,1.934V40Zm-1.984-1.668a2.066,2.066,0,0,0,.979-.237,1.554,1.554,0,0,0,.664-.635V35.916h-.9q-1.8,0-1.917,1.245l-.008.141a.96.96,0,0,0,.315.739A1.225,1.225,0,0,0,33.611,38.332ZM42.036,40H39.629V27.25h2.407Zm1.6-4.574a5.327,5.327,0,0,1,.515-2.382,3.767,3.767,0,0,1,1.482-1.619,4.323,4.323,0,0,1,2.245-.573,4.09,4.09,0,0,1,2.968,1.112,4.464,4.464,0,0,1,1.282,3.021l.017.614a4.694,4.694,0,0,1-1.154,3.316,4.472,4.472,0,0,1-6.2,0,4.777,4.777,0,0,1-1.158-3.387Zm2.4.17a3.357,3.357,0,0,0,.481,1.958,1.73,1.73,0,0,0,2.739.008,3.674,3.674,0,0,0,.49-2.141,3.324,3.324,0,0,0-.49-1.945,1.592,1.592,0,0,0-1.378-.69,1.566,1.566,0,0,0-1.361.686A3.735,3.735,0,0,0,46.037,35.6Zm12.634-2.328a6.517,6.517,0,0,0-.863-.066,1.757,1.757,0,0,0-1.785.921V40h-2.4V31.019H55.89l.066,1.071a2.223,2.223,0,0,1,2-1.237,2.514,2.514,0,0,1,.747.108Zm5.014,2.175a5.413,5.413,0,0,1,.942-3.345A3.057,3.057,0,0,1,67.2,30.853a2.751,2.751,0,0,1,2.167.979V27.25h2.407V40H69.611l-.116-.955a2.823,2.823,0,0,1-2.308,1.121,3.049,3.049,0,0,1-2.544-1.249A5.587,5.587,0,0,1,63.684,35.443Zm2.4.179a3.546,3.546,0,0,0,.44,1.937,1.433,1.433,0,0,0,1.278.673,1.605,1.605,0,0,0,1.569-.939v-3.55a1.582,1.582,0,0,0-1.552-.939Q66.083,32.8,66.083,35.621Zm11.688,4.545a4.409,4.409,0,0,1-3.217-1.212,4.308,4.308,0,0,1-1.241-3.229v-.232a5.426,5.426,0,0,1,.523-2.42,3.838,3.838,0,0,1,1.482-1.644,4.159,4.159,0,0,1,2.187-.577,3.727,3.727,0,0,1,2.9,1.162,4.722,4.722,0,0,1,1.058,3.3v.979H75.745a2.229,2.229,0,0,0,.7,1.411,2.12,2.12,0,0,0,1.482.531,2.589,2.589,0,0,0,2.167-1l1.179,1.32a3.6,3.6,0,0,1-1.461,1.191A4.793,4.793,0,0,1,77.771,40.166ZM77.5,32.787a1.5,1.5,0,0,0-1.158.484,2.5,2.5,0,0,0-.569,1.384h3.337v-.192a1.786,1.786,0,0,0-.432-1.238A1.547,1.547,0,0,0,77.5,32.787ZM89.591,40H87.184V27.25h2.407Zm1.6-4.574a5.326,5.326,0,0,1,.515-2.382,3.768,3.768,0,0,1,1.482-1.619,4.323,4.323,0,0,1,2.245-.573A4.09,4.09,0,0,1,98.4,31.965a4.464,4.464,0,0,1,1.282,3.021l.017.614a4.694,4.694,0,0,1-1.154,3.316,4.472,4.472,0,0,1-6.2,0,4.777,4.777,0,0,1-1.158-3.387Zm2.4.17a3.357,3.357,0,0,0,.481,1.958,1.73,1.73,0,0,0,2.739.008,3.674,3.674,0,0,0,.49-2.141,3.324,3.324,0,0,0-.49-1.945,1.592,1.592,0,0,0-1.378-.69,1.566,1.566,0,0,0-1.361.686A3.735,3.735,0,0,0,93.592,35.6Zm12.451,1.922a.773.773,0,0,0-.436-.693,4.95,4.95,0,0,0-1.4-.452Q101,35.7,101,33.65a2.468,2.468,0,0,1,.992-2,4,4,0,0,1,2.594-.8,4.307,4.307,0,0,1,2.735.805,2.538,2.538,0,0,1,1.025,2.092h-2.4a1.161,1.161,0,0,0-.332-.851,1.405,1.405,0,0,0-1.038-.336,1.436,1.436,0,0,0-.938.274.865.865,0,0,0-.332.7.739.739,0,0,0,.378.643,3.885,3.885,0,0,0,1.274.423,10.407,10.407,0,0,1,1.511.4,2.482,2.482,0,0,1,1.9,2.416,2.343,2.343,0,0,1-1.054,1.988,4.548,4.548,0,0,1-2.723.76,4.75,4.75,0,0,1-2-.4,3.363,3.363,0,0,1-1.374-1.1,2.565,2.565,0,0,1-.5-1.515H103a1.252,1.252,0,0,0,.473.979,1.877,1.877,0,0,0,1.179.34,1.737,1.737,0,0,0,1.042-.261A.814.814,0,0,0,106.043,37.518ZM16.972,62.232a1.573,1.573,0,0,0,1.079-.365,1.28,1.28,0,0,0,.432-.971h2.25a3.077,3.077,0,0,1-.5,1.673,3.286,3.286,0,0,1-1.341,1.179,4.2,4.2,0,0,1-1.88.419,3.9,3.9,0,0,1-3.038-1.224,4.845,4.845,0,0,1-1.112-3.383V59.4a4.79,4.79,0,0,1,1.1-3.312A3.854,3.854,0,0,1,17,54.853a3.778,3.778,0,0,1,2.7.959,3.4,3.4,0,0,1,1.033,2.552h-2.25a1.648,1.648,0,0,0-.432-1.139,1.6,1.6,0,0,0-2.362.173,3.541,3.541,0,0,0-.427,1.983v.249a3.586,3.586,0,0,0,.423,2A1.463,1.463,0,0,0,16.972,62.232Zm4.756-2.806a5.327,5.327,0,0,1,.515-2.382,3.768,3.768,0,0,1,1.482-1.619,4.323,4.323,0,0,1,2.245-.573,4.09,4.09,0,0,1,2.968,1.112,4.464,4.464,0,0,1,1.282,3.021l.017.614a4.694,4.694,0,0,1-1.154,3.316,4.011,4.011,0,0,1-3.1,1.249,4.031,4.031,0,0,1-3.1-1.245,4.777,4.777,0,0,1-1.158-3.387Zm2.4.17a3.357,3.357,0,0,0,.481,1.958,1.73,1.73,0,0,0,2.739.008,3.674,3.674,0,0,0,.49-2.141,3.324,3.324,0,0,0-.49-1.945,1.592,1.592,0,0,0-1.378-.69,1.566,1.566,0,0,0-1.361.686A3.735,3.735,0,0,0,24.127,59.6Zm9.836-4.578.075,1a3.156,3.156,0,0,1,2.582-1.17A2.4,2.4,0,0,1,39,56.222a3.084,3.084,0,0,1,2.7-1.37,2.679,2.679,0,0,1,2.175.851,3.911,3.911,0,0,1,.714,2.561V64H42.181V58.272a1.71,1.71,0,0,0-.3-1.116,1.324,1.324,0,0,0-1.054-.353,1.5,1.5,0,0,0-1.494,1.029L39.342,64h-2.4V58.281a1.689,1.689,0,0,0-.307-1.129A1.337,1.337,0,0,0,35.59,56.8a1.555,1.555,0,0,0-1.478.847V64h-2.4V55.019Zm20.553,4.574a5.387,5.387,0,0,1-.942,3.324,3.021,3.021,0,0,1-2.544,1.249,2.8,2.8,0,0,1-2.2-.946v4.233h-2.4V55.019h2.225l.083.88a2.819,2.819,0,0,1,2.274-1.046,3.041,3.041,0,0,1,2.582,1.229,5.532,5.532,0,0,1,.921,3.387Zm-2.4-.174a3.535,3.535,0,0,0-.444-1.934,1.446,1.446,0,0,0-1.291-.681,1.571,1.571,0,0,0-1.552.863v3.677a1.6,1.6,0,0,0,1.569.888Q52.117,62.232,52.117,59.418Zm8.019,4.748a4.409,4.409,0,0,1-3.217-1.212,4.308,4.308,0,0,1-1.241-3.229v-.232a5.426,5.426,0,0,1,.523-2.42,3.838,3.838,0,0,1,1.482-1.644,4.159,4.159,0,0,1,2.187-.577,3.727,3.727,0,0,1,2.9,1.162,4.722,4.722,0,0,1,1.058,3.3v.979H58.11a2.229,2.229,0,0,0,.7,1.411,2.12,2.12,0,0,0,1.482.531,2.589,2.589,0,0,0,2.167-1l1.179,1.32a3.6,3.6,0,0,1-1.461,1.191A4.793,4.793,0,0,1,60.136,64.166Zm-.274-7.379a1.5,1.5,0,0,0-1.158.484,2.5,2.5,0,0,0-.569,1.384h3.337v-.192a1.786,1.786,0,0,0-.432-1.238A1.547,1.547,0,0,0,59.862,56.787Zm8.2-3.976v2.208H69.6v1.76H68.063v4.482a1.07,1.07,0,0,0,.191.714.959.959,0,0,0,.73.216,3.825,3.825,0,0,0,.706-.058V63.95a4.938,4.938,0,0,1-1.453.216,2.29,2.29,0,0,1-2.573-2.548V56.778H64.353v-1.76h1.312V52.811ZM73.467,64H71.06V55.019h2.407ZM70.918,52.694a1.181,1.181,0,0,1,.361-.888,1.556,1.556,0,0,1,1.963,0,1.268,1.268,0,0,1,0,1.785,1.539,1.539,0,0,1-1.951,0A1.178,1.178,0,0,1,70.918,52.694Zm4.15,6.749a5.413,5.413,0,0,1,.942-3.345,3.057,3.057,0,0,1,2.577-1.245,2.751,2.751,0,0,1,2.167.979V51.25h2.407V64H81l-.116-.955a2.823,2.823,0,0,1-2.308,1.121,3.049,3.049,0,0,1-2.544-1.249A5.587,5.587,0,0,1,75.069,59.443Zm2.4.179a3.546,3.546,0,0,0,.44,1.937,1.433,1.433,0,0,0,1.278.673,1.605,1.605,0,0,0,1.569-.939v-3.55A1.582,1.582,0,0,0,79.2,56.8Q77.468,56.8,77.468,59.621Zm7.18-.2a5.326,5.326,0,0,1,.515-2.382,3.768,3.768,0,0,1,1.482-1.619,4.323,4.323,0,0,1,2.245-.573,4.09,4.09,0,0,1,2.968,1.112,4.464,4.464,0,0,1,1.282,3.021l.017.614A4.694,4.694,0,0,1,92,62.917a4.472,4.472,0,0,1-6.2,0,4.777,4.777,0,0,1-1.158-3.387Zm2.4.17a3.357,3.357,0,0,0,.481,1.958,1.73,1.73,0,0,0,2.739.008,3.674,3.674,0,0,0,.49-2.141,3.324,3.324,0,0,0-.49-1.945,1.592,1.592,0,0,0-1.378-.69,1.566,1.566,0,0,0-1.361.686A3.735,3.735,0,0,0,87.047,59.6Zm12.634-2.328a6.517,6.517,0,0,0-.863-.066,1.757,1.757,0,0,0-1.785.921V64h-2.4V55.019H96.9l.066,1.071a2.223,2.223,0,0,1,2-1.237,2.514,2.514,0,0,1,.747.108Zm5.13,6.9a4.409,4.409,0,0,1-3.217-1.212,4.308,4.308,0,0,1-1.241-3.229v-.232a5.426,5.426,0,0,1,.523-2.42,3.838,3.838,0,0,1,1.482-1.644,4.159,4.159,0,0,1,2.187-.577,3.727,3.727,0,0,1,2.9,1.162,4.722,4.722,0,0,1,1.058,3.3v.979h-5.719a2.229,2.229,0,0,0,.7,1.411,2.12,2.12,0,0,0,1.482.531,2.589,2.589,0,0,0,2.167-1l1.179,1.32a3.6,3.6,0,0,1-1.461,1.191A4.793,4.793,0,0,1,104.811,64.166Zm-.274-7.379a1.5,1.5,0,0,0-1.158.484,2.5,2.5,0,0,0-.569,1.384h3.337v-.192a1.786,1.786,0,0,0-.432-1.238A1.547,1.547,0,0,0,104.537,56.787Zm10.193,4.731a.773.773,0,0,0-.436-.693,4.95,4.95,0,0,0-1.4-.452q-3.2-.672-3.2-2.723a2.468,2.468,0,0,1,.992-2,4,4,0,0,1,2.594-.8,4.307,4.307,0,0,1,2.735.805,2.538,2.538,0,0,1,1.025,2.092h-2.4a1.161,1.161,0,0,0-.332-.851,1.405,1.405,0,0,0-1.038-.336,1.436,1.436,0,0,0-.938.274.865.865,0,0,0-.332.7.739.739,0,0,0,.378.643,3.885,3.885,0,0,0,1.274.423,10.407,10.407,0,0,1,1.511.4,2.482,2.482,0,0,1,1.9,2.416,2.343,2.343,0,0,1-1.054,1.988,4.548,4.548,0,0,1-2.723.76,4.75,4.75,0,0,1-2-.4,3.363,3.363,0,0,1-1.374-1.1,2.565,2.565,0,0,1-.5-1.515h2.274a1.252,1.252,0,0,0,.473.979,1.877,1.877,0,0,0,1.179.34,1.737,1.737,0,0,0,1.042-.261A.814.814,0,0,0,114.73,61.518Z" transform="translate(-3064 -10508)" fill="#12263f"/>
    <path id="Trazado_605790" data-name="Trazado 605790" d="M6.393,11.742V16H3.9V3.914H8.618a5.455,5.455,0,0,1,2.395.5A3.67,3.67,0,0,1,12.6,5.827a3.946,3.946,0,0,1,.556,2.088,3.47,3.47,0,0,1-1.216,2.8,5.065,5.065,0,0,1-3.366,1.025Zm0-2.017H8.618a2.187,2.187,0,0,0,1.507-.465,1.691,1.691,0,0,0,.519-1.328A1.994,1.994,0,0,0,10.12,6.5a1.953,1.953,0,0,0-1.444-.564H6.393Zm13.364-.457a6.517,6.517,0,0,0-.863-.066,1.757,1.757,0,0,0-1.785.921V16h-2.4V7.019h2.266l.066,1.071a2.223,2.223,0,0,1,2-1.237,2.514,2.514,0,0,1,.747.108Zm.481,2.158a5.327,5.327,0,0,1,.515-2.382,3.768,3.768,0,0,1,1.482-1.619,4.323,4.323,0,0,1,2.245-.573,4.09,4.09,0,0,1,2.968,1.112,4.464,4.464,0,0,1,1.282,3.021l.017.614a4.694,4.694,0,0,1-1.154,3.316,4.011,4.011,0,0,1-3.1,1.249,4.031,4.031,0,0,1-3.1-1.245,4.777,4.777,0,0,1-1.158-3.387Zm2.4.17a3.357,3.357,0,0,0,.481,1.958,1.73,1.73,0,0,0,2.739.008,3.674,3.674,0,0,0,.49-2.141,3.324,3.324,0,0,0-.49-1.945,1.592,1.592,0,0,0-1.378-.69,1.566,1.566,0,0,0-1.361.686A3.735,3.735,0,0,0,22.638,11.6Zm15.672,0a5.387,5.387,0,0,1-.942,3.324,3.021,3.021,0,0,1-2.544,1.249,2.8,2.8,0,0,1-2.2-.946v4.233h-2.4V7.019h2.225l.083.88a2.819,2.819,0,0,1,2.274-1.046,3.041,3.041,0,0,1,2.582,1.229,5.532,5.532,0,0,1,.921,3.387Zm-2.4-.174a3.535,3.535,0,0,0-.444-1.934A1.446,1.446,0,0,0,34.176,8.8a1.571,1.571,0,0,0-1.552.863v3.677a1.6,1.6,0,0,0,1.569.888Q35.911,14.232,35.911,11.418Zm9.264,3.669a3.008,3.008,0,0,1-2.457,1.079,2.837,2.837,0,0,1-2.2-.83,3.543,3.543,0,0,1-.776-2.432V7.019h2.4v5.809q0,1.4,1.278,1.4a1.732,1.732,0,0,0,1.677-.848V7.019H47.5V16H45.241Zm8.268,1.079a4.409,4.409,0,0,1-3.217-1.212,4.308,4.308,0,0,1-1.241-3.229v-.232a5.426,5.426,0,0,1,.523-2.42,3.838,3.838,0,0,1,1.482-1.644,4.159,4.159,0,0,1,2.187-.577,3.727,3.727,0,0,1,2.9,1.162,4.722,4.722,0,0,1,1.058,3.3v.979H51.417a2.229,2.229,0,0,0,.7,1.411,2.12,2.12,0,0,0,1.482.531,2.589,2.589,0,0,0,2.167-1l1.179,1.32a3.6,3.6,0,0,1-1.461,1.191A4.793,4.793,0,0,1,53.442,16.166Zm-.274-7.379a1.5,1.5,0,0,0-1.158.484,2.5,2.5,0,0,0-.569,1.384h3.337v-.192a1.786,1.786,0,0,0-.432-1.238A1.547,1.547,0,0,0,53.168,8.787Zm10.193,4.731a.773.773,0,0,0-.436-.693,4.95,4.95,0,0,0-1.4-.452q-3.2-.672-3.2-2.723a2.468,2.468,0,0,1,.992-2,4,4,0,0,1,2.594-.8,4.307,4.307,0,0,1,2.735.805A2.538,2.538,0,0,1,65.669,9.75h-2.4a1.161,1.161,0,0,0-.332-.851A1.405,1.405,0,0,0,61.9,8.563a1.436,1.436,0,0,0-.938.274.865.865,0,0,0-.332.7.739.739,0,0,0,.378.643,3.885,3.885,0,0,0,1.274.423,10.407,10.407,0,0,1,1.511.4,2.482,2.482,0,0,1,1.9,2.416,2.343,2.343,0,0,1-1.054,1.988,4.548,4.548,0,0,1-2.723.76,4.75,4.75,0,0,1-2-.4,3.363,3.363,0,0,1-1.374-1.1,2.565,2.565,0,0,1-.5-1.515h2.274a1.252,1.252,0,0,0,.473.979,1.877,1.877,0,0,0,1.179.34,1.737,1.737,0,0,0,1.042-.261A.814.814,0,0,0,63.361,13.518ZM70.11,4.811V7.019h1.536v1.76H70.11v4.482a1.07,1.07,0,0,0,.191.714.959.959,0,0,0,.73.216,3.826,3.826,0,0,0,.706-.058V15.95a4.938,4.938,0,0,1-1.453.216,2.29,2.29,0,0,1-2.573-2.548V8.778H66.4V7.019h1.312V4.811ZM78.187,16a2.664,2.664,0,0,1-.241-.805,2.9,2.9,0,0,1-2.266.971,3.189,3.189,0,0,1-2.187-.764,2.456,2.456,0,0,1-.867-1.926,2.538,2.538,0,0,1,1.058-2.191,5.222,5.222,0,0,1,3.059-.772h1.1V10a1.48,1.48,0,0,0-.32-1,1.257,1.257,0,0,0-1.009-.374,1.429,1.429,0,0,0-.95.291.987.987,0,0,0-.344.8h-2.4a2.41,2.41,0,0,1,.481-1.444A3.182,3.182,0,0,1,74.667,7.23a4.961,4.961,0,0,1,1.976-.378,3.92,3.92,0,0,1,2.635.834,2.918,2.918,0,0,1,.975,2.345v3.893a4.294,4.294,0,0,0,.357,1.934V16ZM76.2,14.332a2.066,2.066,0,0,0,.979-.237,1.554,1.554,0,0,0,.664-.635V11.916h-.9q-1.8,0-1.917,1.245l-.008.141a.96.96,0,0,0,.315.739A1.225,1.225,0,0,0,76.2,14.332Zm9.753-2.889A5.413,5.413,0,0,1,86.9,8.1a3.057,3.057,0,0,1,2.577-1.245,2.751,2.751,0,0,1,2.167.979V3.25h2.407V16H91.883l-.116-.955a2.823,2.823,0,0,1-2.308,1.121,3.049,3.049,0,0,1-2.544-1.249A5.587,5.587,0,0,1,85.956,11.443Zm2.4.179a3.546,3.546,0,0,0,.44,1.937,1.433,1.433,0,0,0,1.278.673,1.605,1.605,0,0,0,1.569-.939V9.743A1.582,1.582,0,0,0,90.09,8.8Q88.355,8.8,88.355,11.621Zm11.688,4.545a4.409,4.409,0,0,1-3.217-1.212,4.308,4.308,0,0,1-1.241-3.229v-.232a5.426,5.426,0,0,1,.523-2.42A3.838,3.838,0,0,1,97.59,7.429a4.159,4.159,0,0,1,2.187-.577,3.727,3.727,0,0,1,2.9,1.162,4.722,4.722,0,0,1,1.058,3.3v.979H98.017a2.229,2.229,0,0,0,.7,1.411,2.12,2.12,0,0,0,1.482.531,2.589,2.589,0,0,0,2.167-1l1.179,1.32a3.6,3.6,0,0,1-1.461,1.191A4.793,4.793,0,0,1,100.042,16.166Zm-.274-7.379a1.5,1.5,0,0,0-1.158.484,2.5,2.5,0,0,0-.569,1.384h3.337v-.192a1.786,1.786,0,0,0-.432-1.238A1.547,1.547,0,0,0,99.769,8.787ZM12.577,37.07l1.668-6.051h2.507L13.723,40H11.432L8.4,31.019h2.507ZM22.887,40a2.664,2.664,0,0,1-.241-.805,2.9,2.9,0,0,1-2.266.971,3.189,3.189,0,0,1-2.187-.764,2.456,2.456,0,0,1-.867-1.926,2.538,2.538,0,0,1,1.058-2.191,5.222,5.222,0,0,1,3.059-.772h1.1V34a1.48,1.48,0,0,0-.32-1,1.257,1.257,0,0,0-1.009-.374,1.429,1.429,0,0,0-.95.291.987.987,0,0,0-.344.8h-2.4a2.41,2.41,0,0,1,.481-1.444,3.182,3.182,0,0,1,1.361-1.042,4.961,4.961,0,0,1,1.976-.378,3.92,3.92,0,0,1,2.635.834,2.918,2.918,0,0,1,.975,2.345v3.893a4.294,4.294,0,0,0,.357,1.934V40ZM20.9,38.332a2.066,2.066,0,0,0,.979-.237,1.554,1.554,0,0,0,.664-.635V35.916h-.9q-1.8,0-1.917,1.245l-.008.141a.96.96,0,0,0,.315.739A1.225,1.225,0,0,0,20.9,38.332ZM29.328,40H26.921V27.25h2.407Zm1.6-4.574a5.327,5.327,0,0,1,.515-2.382,3.768,3.768,0,0,1,1.482-1.619,4.323,4.323,0,0,1,2.245-.573,4.09,4.09,0,0,1,2.968,1.112,4.464,4.464,0,0,1,1.282,3.021l.017.614a4.694,4.694,0,0,1-1.154,3.316,4.011,4.011,0,0,1-3.1,1.249,4.031,4.031,0,0,1-3.1-1.245,4.777,4.777,0,0,1-1.158-3.387Zm2.4.17a3.357,3.357,0,0,0,.481,1.958,1.73,1.73,0,0,0,2.739.008,3.674,3.674,0,0,0,.49-2.141,3.324,3.324,0,0,0-.49-1.945,1.592,1.592,0,0,0-1.378-.69,1.566,1.566,0,0,0-1.361.686A3.735,3.735,0,0,0,33.329,35.6Zm12.634-2.328A6.517,6.517,0,0,0,45.1,33.2a1.757,1.757,0,0,0-1.785.921V40h-2.4V31.019h2.266l.066,1.071a2.223,2.223,0,0,1,2-1.237A2.514,2.514,0,0,1,46,30.96Zm13.472,2.324a5.387,5.387,0,0,1-.942,3.324,3.021,3.021,0,0,1-2.544,1.249,2.8,2.8,0,0,1-2.2-.946v4.233h-2.4V31.019h2.225l.083.88a2.819,2.819,0,0,1,2.274-1.046,3.041,3.041,0,0,1,2.582,1.229,5.532,5.532,0,0,1,.921,3.387Zm-2.4-.174a3.535,3.535,0,0,0-.444-1.934A1.446,1.446,0,0,0,55.3,32.8a1.571,1.571,0,0,0-1.552.863v3.677a1.6,1.6,0,0,0,1.569.888Q57.036,38.232,57.036,35.418Zm8.932-2.15A6.517,6.517,0,0,0,65.1,33.2a1.757,1.757,0,0,0-1.785.921V40h-2.4V31.019h2.266l.066,1.071a2.223,2.223,0,0,1,2-1.237A2.514,2.514,0,0,1,66,30.96Zm.481,2.158a5.326,5.326,0,0,1,.515-2.382,3.768,3.768,0,0,1,1.482-1.619,4.323,4.323,0,0,1,2.245-.573,4.09,4.09,0,0,1,2.968,1.112,4.464,4.464,0,0,1,1.282,3.021l.017.614A4.694,4.694,0,0,1,73.8,38.917a4.472,4.472,0,0,1-6.2,0,4.777,4.777,0,0,1-1.158-3.387Zm2.4.17a3.357,3.357,0,0,0,.481,1.958,1.73,1.73,0,0,0,2.739.008,3.674,3.674,0,0,0,.49-2.141,3.324,3.324,0,0,0-.49-1.945,1.592,1.592,0,0,0-1.378-.69,1.566,1.566,0,0,0-1.361.686A3.735,3.735,0,0,0,68.848,35.6Zm15.672,0a5.387,5.387,0,0,1-.942,3.324,3.021,3.021,0,0,1-2.544,1.249,2.8,2.8,0,0,1-2.2-.946v4.233h-2.4V31.019H78.66l.083.88a2.819,2.819,0,0,1,2.274-1.046A3.041,3.041,0,0,1,83.6,32.081a5.532,5.532,0,0,1,.921,3.387Zm-2.4-.174a3.535,3.535,0,0,0-.444-1.934,1.446,1.446,0,0,0-1.291-.681,1.571,1.571,0,0,0-1.552.863v3.677a1.6,1.6,0,0,0,1.569.888Q82.121,38.232,82.121,35.418ZM88.538,40H86.13V31.019h2.407ZM85.989,28.694a1.181,1.181,0,0,1,.361-.888,1.556,1.556,0,0,1,1.963,0,1.268,1.268,0,0,1,0,1.785,1.539,1.539,0,0,1-1.951,0A1.178,1.178,0,0,1,85.989,28.694ZM95.718,40a2.664,2.664,0,0,1-.241-.805,2.9,2.9,0,0,1-2.266.971,3.189,3.189,0,0,1-2.187-.764,2.456,2.456,0,0,1-.867-1.926,2.538,2.538,0,0,1,1.058-2.191,5.222,5.222,0,0,1,3.059-.772h1.1V34a1.48,1.48,0,0,0-.32-1,1.257,1.257,0,0,0-1.009-.374,1.429,1.429,0,0,0-.95.291.987.987,0,0,0-.344.8h-2.4a2.41,2.41,0,0,1,.481-1.444A3.182,3.182,0,0,1,92.2,31.23a4.961,4.961,0,0,1,1.976-.378,3.92,3.92,0,0,1,2.635.834,2.918,2.918,0,0,1,.975,2.345v3.893a4.294,4.294,0,0,0,.357,1.934V40Zm-1.984-1.668a2.066,2.066,0,0,0,.979-.237,1.554,1.554,0,0,0,.664-.635V35.916h-.9q-1.8,0-1.917,1.245l-.008.141a.96.96,0,0,0,.315.739A1.225,1.225,0,0,0,93.734,38.332Z" transform="translate(-2819 -10499)" fill="#12263f"/>
    <path id="Trazado_605761" data-name="Trazado 605761" d="M-1709.229-10794.874l88.936-87.671H-1562v-111.329" transform="translate(-1122 241.874)" fill="none" stroke="#707070" stroke-width="2" stroke-dasharray="4"/>
    <g id="Elipse_5767" data-name="Elipse 5767" transform="translate(-2921 -10752)" fill="#fff" stroke="#a3bfe4" stroke-width="3">
      <circle cx="37.5" cy="37.5" r="37.5" stroke="none"/>
      <circle cx="37.5" cy="37.5" r="36" fill="none"/>
    </g>
    <g id="Elipse_5768" data-name="Elipse 5768" transform="translate(-2739 -10586)" fill="#fff" stroke="#33ece0" stroke-width="3">
      <circle cx="37.5" cy="37.5" r="37.5" stroke="none"/>
      <circle cx="37.5" cy="37.5" r="36" fill="none"/>
    </g>
    <g id="Elipse_5769" data-name="Elipse 5769" transform="translate(-3108 -10586)" fill="#fff" stroke="#fff198" stroke-width="3">
      <circle cx="37.5" cy="37.5" r="37.5" stroke="none"/>
      <circle cx="37.5" cy="37.5" r="36" fill="none"/>
    </g>
    <g id="Grupo_1015270" data-name="Grupo 1015270" transform="translate(-2909.567 -10739.903)">
      <g id="Grupo_1015269" data-name="Grupo 1015269" clip-path="url(#clip-path)">
        <path id="Trazado_605764" data-name="Trazado 605764" d="M74.35,118.518c1.169,0,2.34-.045,3.507.009a5.728,5.728,0,0,1,5.319,3.52,4.325,4.325,0,0,1,.426,1.859c-.015,1.194,0,2.387,0,3.581a1.429,1.429,0,0,1-.661,1.179.3.3,0,0,0-.142.269c-.008.634.024,1.273-.047,1.9a7.968,7.968,0,0,1-2.53,5.051c-.186.175-.393.328-.575.507a.444.444,0,0,0-.14.271c-.01.724,0,1.449,0,2.174a1.765,1.765,0,0,0,1.377,1.783c1.4.45,2.792.919,4.186,1.382.563.187,1.131.36,1.686.57a3.973,3.973,0,0,1,2.618,3.155,1.531,1.531,0,0,1,.023.288q0,1.428,0,2.857a.673.673,0,0,1-.559.734.7.7,0,0,1-.81-.421,1.437,1.437,0,0,1-.12-.537c-.013-.821-.006-1.642-.005-2.463a2.253,2.253,0,0,0-1.381-2.129,9.488,9.488,0,0,0-1.2-.443c-.915-.309-1.833-.609-2.75-.913-.4-.132-.8-.26-1.2-.4a.239.239,0,0,0-.314.094,8.267,8.267,0,0,1-4.462,2.881,7.613,7.613,0,0,1-2.817.214,8.287,8.287,0,0,1-5.57-3.07.267.267,0,0,0-.336-.11c-.588.2-1.18.386-1.769.581-.891.294-1.78.593-2.672.885a3.078,3.078,0,0,0-1.474.839,2.5,2.5,0,0,0-.67,1.668q0,1.263.007,2.526a.728.728,0,0,1-.729.819.752.752,0,0,1-.751-.794c0-.9-.029-1.809.017-2.711a3.9,3.9,0,0,1,1.626-3.009,5.291,5.291,0,0,1,1.585-.747q2.15-.716,4.3-1.423.521-.172,1.045-.335a1.794,1.794,0,0,0,1.369-1.764c.021-.738.008-1.476-.008-2.214,0-.091-.1-.2-.188-.267A8.139,8.139,0,0,1,66.44,129.8c-.009-.559,0-1.118,0-1.677a.34.34,0,0,0-.112-.234,1.691,1.691,0,0,1-.722-1.4c0-1.1-.038-2.21.017-3.311a4.844,4.844,0,0,1,3.428-4.4,6.587,6.587,0,0,1,2.025-.275c1.093.013,2.186,0,3.279,0v.008m-7.241,8.235c.453-.371.853-.7,1.251-1.025q1.264-1.041,2.526-2.084a.632.632,0,0,1,.8-.039,28.375,28.375,0,0,0,5.084,2.45,5.648,5.648,0,0,1,.741.315.673.673,0,0,1,.325.69.634.634,0,0,1-.439.574.861.861,0,0,1-.647-.016,31.972,31.972,0,0,1-5.145-2.374.314.314,0,0,0-.422.026c-1.051.875-2.111,1.74-3.163,2.615a.365.365,0,0,0-.106.249c-.006.559-.018,1.119.01,1.676a9.6,9.6,0,0,0,.161,1.684,6.62,6.62,0,0,0,6.6,5.134,7.593,7.593,0,0,0,1.3-.116,6.526,6.526,0,0,0,3.778-2.234A6.446,6.446,0,0,0,81.3,130.56c.04-.494.005-.993.026-1.49.008-.188-.06-.262-.231-.29-.272-.045-.547-.086-.813-.154a.768.768,0,0,1-.6-.826.716.716,0,0,1,.871-.6c.443.065.882.163,1.321.254.185.038.257-.005.255-.213-.011-.932,0-1.863-.01-2.795a5.811,5.811,0,0,0-.068-1.113,4.189,4.189,0,0,0-4.11-3.321c-1.646-.02-3.293,0-4.939,0-.865,0-1.73-.025-2.594,0a3.413,3.413,0,0,0-3.333,3.388c.013,1,0,2,.006,3,0,.094.013.188.025.349m10.913,10.625a8.072,8.072,0,0,1-6.775,0c0,.081-.01.148-.01.216,0,.393.018.787.006,1.18a3.42,3.42,0,0,1-.648,1.994,3.265,3.265,0,0,1-1.081.943,6.7,6.7,0,0,0,10.179-.005c-.057-.038-.114-.074-.169-.112a3.1,3.1,0,0,1-1.461-2.361c-.044-.542-.029-1.089-.04-1.634,0-.066,0-.132,0-.223" transform="translate(-49.874 -98.824)" fill="#161615"/>
        <path id="Trazado_605765" data-name="Trazado 605765" d="M227.44,81.545a1.542,1.542,0,0,0,.1.213q.9,1.377,1.806,2.751a.724.724,0,0,1-.007.933c-.664.9-1.334,1.8-2,2.693-.041.054-.079.11-.152.213a1.528,1.528,0,0,0,.342,0c.8-.211,1.6-.432,2.4-.648.293-.079.587-.157.882-.227a.747.747,0,0,1,.817.36c.386.53.764,1.066,1.147,1.6q.374.521.753,1.039c.055.075.126.138.227.248.02-.354.037-.651.054-.948.045-.819.088-1.639.137-2.458a.923.923,0,0,1,.248-.741.892.892,0,0,1,.279-.171c1.111-.354,2.225-.7,3.336-1.051.046-.014.079-.07.118-.106-.04-.039-.074-.1-.122-.114-.9-.346-1.806-.686-2.709-1.029-.174-.066-.348-.135-.521-.2a.693.693,0,0,1-.481-.66c-.015-.676-.009-1.352-.01-2.028,0-.53,0-1.06,0-1.648-.121.114-.22.2-.311.294a.721.721,0,0,1-1.035.094.73.73,0,0,1-.088-1.022,1.624,1.624,0,0,1,1.337-.785,1.563,1.563,0,0,1,1.608,1.568c0,.9-.012,1.808-.04,2.711a.346.346,0,0,0,.258.4c.777.285,1.555.57,2.324.879a2.61,2.61,0,0,1,.784.444,1.5,1.5,0,0,1-.337,2.442,9.273,9.273,0,0,1-1.283.458c-.584.189-1.174.361-1.758.551a.216.216,0,0,0-.105.161c-.048.681-.088,1.363-.129,2.045a6.937,6.937,0,0,0-.032.744,1.611,1.611,0,0,1-1.054,1.492,1.471,1.471,0,0,1-1.723-.512c-.59-.774-1.149-1.571-1.716-2.362a.217.217,0,0,0-.287-.1c-.856.245-1.713.486-2.575.7a1.585,1.585,0,0,1-2.039-.914,1.3,1.3,0,0,1,.02-1.141,3.7,3.7,0,0,1,.354-.558c.486-.662.972-1.325,1.476-1.973a.33.33,0,0,0,.015-.456c-.468-.7-.929-1.4-1.4-2.1a1.9,1.9,0,0,1-.385-1.051,1.547,1.547,0,0,1,1.848-1.492c.707.181,1.4.432,2.093.656.44.142.883.279,1.314.444a1.32,1.32,0,0,1,.512.325.629.629,0,0,1,.04.8.611.611,0,0,1-.721.317c-.362-.082-.714-.208-1.068-.323-.728-.237-1.454-.481-2.182-.719-.1-.034-.211-.049-.317-.073l-.045.043" transform="translate(-188.271 -65.165)" fill="#161615"/>
        <path id="Trazado_605766" data-name="Trazado 605766" d="M74.719,3.937a8.143,8.143,0,0,1-.494,2.322,17.768,17.768,0,0,1-1.987,3.825,5.959,5.959,0,0,1-.388.536.767.767,0,0,1-.741.269,18.917,18.917,0,0,1-3.1-.653,9.424,9.424,0,0,1-3.719-1.884,3.618,3.618,0,0,1-1.285-3.093,3.649,3.649,0,0,1,1.644-2.8,3.636,3.636,0,0,1,2.862-.588.207.207,0,0,0,.248-.118,3.76,3.76,0,0,1,6.432.108,3.874,3.874,0,0,1,.524,2.07M73.235,3.8a3.949,3.949,0,0,0-.054-.563,2.27,2.27,0,0,0-2.819-1.708,2.237,2.237,0,0,0-1.606,1.5.743.743,0,0,1-1.054.454,3.109,3.109,0,0,0-.656-.177A2.217,2.217,0,0,0,64.5,5.153a2.14,2.14,0,0,0,.629,1.99,6.049,6.049,0,0,0,2.238,1.34,15.8,15.8,0,0,0,3.441.875.318.318,0,0,0,.245-.127,16.369,16.369,0,0,0,1.539-2.8A6.942,6.942,0,0,0,73.235,3.8" transform="translate(-52.533 0)" fill="#161615"/>
        <path id="Trazado_605767" data-name="Trazado 605767" d="M4.868,99.557H.968C.3,99.557,0,99.26,0,98.6Q0,95.93,0,93.26a1.034,1.034,0,0,1,.414-.876c1.28-1.008,2.551-2.029,3.825-3.045.043-.035.088-.068.133-.1a.744.744,0,0,1,1.1.029c1.278,1.023,2.549,2.053,3.837,3.063A1.222,1.222,0,0,1,9.8,93.369q0,1.5,0,3,0,.993,0,1.986c0,.076,0,.152,0,.228-.021.681-.325.973-1.008.972H4.868ZM8.3,98.049v-.179c0-1.4-.006-2.8,0-4.2a.473.473,0,0,0-.19-.421Q6.553,92.014,5,90.767a.156.156,0,0,0-.233,0q-1.558,1.252-3.123,2.5a.379.379,0,0,0-.154.333c0,1.421,0,2.841,0,4.262v.189Z" transform="translate(0 -74.232)" fill="#161615"/>
        <path id="Trazado_605768" data-name="Trazado 605768" d="M177.763,18.647c.063-.121.1-.192.137-.264.49-.965.978-1.931,1.474-2.893a.2.2,0,0,0-.03-.252c-.22-.309-.441-.618-.632-.945a2.274,2.274,0,0,1,.368-2.716,2.6,2.6,0,0,1,2.584-.912c.112.021.151-.014.2-.112a2.958,2.958,0,0,1,.326-.548.648.648,0,0,1,.8-.2.729.729,0,0,1,.414.821,6.852,6.852,0,0,1-.26.678c.091.085.225.192.338.318a6.507,6.507,0,0,1,.47.577.639.639,0,0,1-.11.922.689.689,0,0,1-.975,0,2.7,2.7,0,0,1-.246-.305l-.156-.2c-.146.282-.276.529-.4.778-.27.535-.534,1.074-.811,1.606a.2.2,0,0,0,.047.269,7.121,7.121,0,0,1,.6.708,2.763,2.763,0,0,1-.52,3.778,3.179,3.179,0,0,1-2.807.789c-.106-.02-.145,0-.186.1a4.311,4.311,0,0,1-.249.5.717.717,0,0,1-.93.3.727.727,0,0,1-.4-.877,1.808,1.808,0,0,1,.237-.479c.086-.123.051-.179-.054-.245a4.048,4.048,0,0,1-1.208-1.235,1.862,1.862,0,0,1-.177-.326.718.718,0,0,1,1.249-.7c.144.194.268.4.422.589.135.163.3.3.485.485m2.7-2.1-1.289,2.559a1.675,1.675,0,0,0,1.636-.962,1.365,1.365,0,0,0-.348-1.6m-.277-2.676.9-1.792a1.232,1.232,0,0,0-1.074.688.865.865,0,0,0,.176,1.1" transform="translate(-146.39 -8.122)" fill="#161615"/>
        <path id="Trazado_605769" data-name="Trazado 605769" d="M64.71,79.856a2.028,2.028,0,0,1-.427-.225c-.3-.264-.583-.549-.867-.831q-1.567-1.554-3.129-3.113a3.084,3.084,0,0,1-.265-.291.716.716,0,0,1,.984-1.014,2.66,2.66,0,0,1,.312.272q1.869,1.854,3.733,3.712a2.735,2.735,0,0,1,.313.383c.341.493-.174,1.081-.653,1.107" transform="translate(-49.92 -61.909)" fill="#161615"/>
        <path id="Trazado_605770" data-name="Trazado 605770" d="M222.543,176.561a2.283,2.283,0,0,1-.413-.168q-1.2-.786-2.4-1.591a.727.727,0,0,1-.348-.871.713.713,0,0,1,.922-.435,1.1,1.1,0,0,1,.277.134q1.081.711,2.157,1.429a3.023,3.023,0,0,1,.283.209.692.692,0,0,1,.219.8.745.745,0,0,1-.7.492" transform="translate(-182.927 -144.657)" fill="#161615"/>
        <path id="Trazado_605771" data-name="Trazado 605771" d="M144.474,76.095c0-.386,0-.772,0-1.158a.754.754,0,0,1,.45-.728.68.68,0,0,1,.815.158.645.645,0,0,1,.188.37c.034.321.029.646.033.97.006.538.011,1.075.007,1.613a.685.685,0,0,1-.8.756.727.727,0,0,1-.688-.739c-.013-.413,0-.827,0-1.241h-.006" transform="translate(-120.483 -61.824)" fill="#161615"/>
        <path id="Trazado_605772" data-name="Trazado 605772" d="M60.571,166.488a.817.817,0,0,1-.684-.472.6.6,0,0,1,.126-.723c.585-.587,1.169-1.175,1.764-1.751a.638.638,0,0,1,.883-.011c.286.272.43.568.2.891a2.513,2.513,0,0,1-.235.314q-.706.715-1.424,1.418a1.075,1.075,0,0,1-.629.335" transform="translate(-49.886 -136.233)" fill="#161615"/>
        <path id="Trazado_605773" data-name="Trazado 605773" d="M195.149,96.379a.8.8,0,0,1-.712-.436.555.555,0,0,1,.058-.691,12.368,12.368,0,0,1,1.008-1.006.681.681,0,0,1,.926.048.7.7,0,0,1,.071.925,13.528,13.528,0,0,1-1.075,1.054.724.724,0,0,1-.277.106" transform="translate(-162.074 -78.463)" fill="#161615"/>
        <path id="Trazado_605774" data-name="Trazado 605774" d="M24.925,119.854a3.372,3.372,0,0,0,0-.371.766.766,0,0,1,.736-.762.838.838,0,0,1,.769.778c.005.275,0,.55,0,.825a.714.714,0,0,1-.732.687.731.731,0,0,1-.761-.663c-.009-.165,0-.33,0-.5Z" transform="translate(-20.782 -99.007)" fill="#161615"/>
      </g>
    </g>
    <path id="Intersección_1" data-name="Intersección 1" d="M2754.908,11920.784a107.765,107.765,0,0,1,27.092-45.657,107.724,107.724,0,0,1,27.155,45.876,120,120,0,0,1-54.247-.219Z" transform="translate(-5666.032 -22435)" fill="#a3bfe4"/>
    <path id="Trazado_605762" data-name="Trazado 605762" d="M-1734.182-10880.937h175.191" transform="translate(-13764.937 -8792.52) rotate(90)" fill="none" stroke="#a3bfe4" stroke-width="2" stroke-dasharray="4"/>
    <g id="Grupo_1015272" data-name="Grupo 1015272" transform="translate(-2722 -10573)">
      <g id="Grupo_1015271" data-name="Grupo 1015271" clip-path="url(#clip-path-2)">
        <path id="Trazado_605775" data-name="Trazado 605775" d="M11.311,40.654c-.248.3-.461.548-.672.8q-1.566,1.885-3.132,3.77a3.313,3.313,0,0,1-2.55,1.257A3.391,3.391,0,0,1,1.594,44.1a4.774,4.774,0,0,1-.171-1.172c-.024-.68,0-1.362,0-2.044a.222.222,0,0,0-.092-.171A2.126,2.126,0,0,1,0,38.636c0-1.855-.007-3.71.005-5.565a2.591,2.591,0,0,1,.142-.814,1.79,1.79,0,0,1,1.734-1.2c.209-.016.243-.082.24-.267q-.016-.975,0-1.95A2.168,2.168,0,0,1,3.7,26.7,2.08,2.08,0,0,1,6.27,28.339a2.873,2.873,0,0,1,.043.488c0,.833,0,1.666.006,2.5a.577.577,0,0,0,.131.352,2.484,2.484,0,0,1,.618,1.683c.013.574,0,1.148,0,1.722v.244c.234-.3.435-.551.633-.806,1.084-1.4,2.171-2.8,3.247-4.21a4.316,4.316,0,0,1,2.079-1.376c1.8-.655,3.586-1.34,5.384-2a.308.308,0,0,0,.246-.358c-.011-.757-.007-1.514,0-2.271a.405.405,0,0,0-.164-.356A7.33,7.33,0,0,1,15.788,17.9c-.334-.036-.662-.046-.98-.108a2.737,2.737,0,0,1-2.221-1.968,2.835,2.835,0,0,1-.062-.543c-.009-.448,0-.9,0-1.344a2.513,2.513,0,0,1,.6-1.691.654.654,0,0,0,.153-.464c-.009-1.489-.026-2.978-.008-4.466A4.315,4.315,0,0,1,14.3,4.635a4.846,4.846,0,0,1,2.4-1.6,7.59,7.59,0,0,1,2.173-.195c.094,0,.189,0,.3,0,.037-.144.066-.3.116-.444A3.435,3.435,0,0,1,21.167.31a3.685,3.685,0,0,1,1.565-.3q2.186-.02,4.372,0a6.314,6.314,0,0,1,5.974,4.183,4.865,4.865,0,0,1,.344,1.867c-.014.391,0,.782,0,1.174a.577.577,0,0,1-.362.583.726.726,0,0,1-.754-.156.981.981,0,0,1-.248-.676,11.153,11.153,0,0,0-.027-1.437,4.7,4.7,0,0,0-2.161-3.379,4.214,4.214,0,0,0-2.263-.759c-.763-.017-1.525-.031-2.288-.036-.921-.006-1.842,0-2.764,0a2,2,0,0,0-2.081,1.958c-.014.214-.008.429-.008.643q0,2.48,0,4.959a5.254,5.254,0,0,0,.037.622,1.956,1.956,0,0,0,1.18,1.576,2.259,2.259,0,0,0,1.037.159q2.962,0,5.925,0,1.581,0,3.161,0h.252a9.022,9.022,0,0,1,.008-.91,1.469,1.469,0,0,1,.185-.6.633.633,0,0,1,.913-.168.529.529,0,0,1,.259.473q-.009.927,0,1.855a.446.446,0,0,0,.086.255,2.77,2.77,0,0,1,.628,1.913c-.022.46-.008.921-.029,1.381a2.249,2.249,0,0,1-1.033,1.782,3.36,3.36,0,0,1-1.9.6c-.1,0-.2,0-.287,0-.028.449-.022.886-.087,1.312A7.669,7.669,0,0,1,29.462,22.6a6.843,6.843,0,0,1-1.322,1.372.4.4,0,0,0-.17.35c.008.776.007,1.552,0,2.328a.184.184,0,0,0,.153.213q3.391,1.052,6.778,2.115a19.11,19.11,0,0,1,1.9.637,4.328,4.328,0,0,1,2.746,3.809c.071.8.035,1.6.032,2.4a.638.638,0,0,1-.66.675.662.662,0,0,1-.693-.67c-.017-.681-.042-1.364-.013-2.044a3.111,3.111,0,0,0-2.178-3.051q-2.615-.812-5.225-1.636c-1.08-.34-2.158-.691-3.239-1.028a.305.305,0,0,0-.231.058c-1.189.884-2.374,1.775-3.561,2.661a.663.663,0,0,1-.9,0q-1.721-1.284-3.434-2.579a.426.426,0,0,0-.473-.063q-2.916,1.1-5.841,2.174a2.6,2.6,0,0,0-1.192.89q-2.39,3.1-4.785,6.2a.444.444,0,0,0-.075.24c-.018.428.007.86-.046,1.283a2.014,2.014,0,0,1-.66,1.344.244.244,0,0,0-.052.166c0,.366.015.733-.007,1.1A.924.924,0,0,1,6.15,42a.609.609,0,0,1-.683.245.74.74,0,0,1-.515-.7c-.008-.207,0-.415,0-.633a1.334,1.334,0,0,0-.135-.015c-.618,0-1.237,0-1.855,0-.141,0-.183.038-.181.182.006.7,0,1.4,0,2.1A1.758,1.758,0,0,0,3.87,44.955a2.436,2.436,0,0,0,1.7-.027,3.02,3.02,0,0,0,1.3-1.007Q9,41.336,11.153,38.77a.628.628,0,0,0,.162-.442c-.009-.713-.006-1.426,0-2.139a1.6,1.6,0,0,1,.045-.374.663.663,0,0,1,1.314.142c.008.225,0,.451,0,.686H32.492a5.3,5.3,0,0,1,.06-.595.672.672,0,0,1,.878-.57.567.567,0,0,1,.443.544c.008.271.008.543.008.814q0,4.032-.006,8.064c0,.068,0,.137,0,.22H38.22c0-.07,0-.143,0-.216q0-2.924-.007-5.848c0-.076,0-.151.009-.227a.672.672,0,0,1,1.342-.046,2.377,2.377,0,0,1,.015.283c0,2.183-.009,4.366.008,6.549a.8.8,0,0,1-.883.884q-13.25,0-26.5,0a1.3,1.3,0,0,1-.189-.009c-.488-.072-.7-.331-.7-.866,0-.877,0-1.754,0-2.631q0-1.051,0-2.1v-.235m1.37,4.466H32.5V43.671H21.67c-.29,0-.581,0-.87-.012a.664.664,0,0,1-.051-1.326,4.209,4.209,0,0,1,.529-.028q5.536,0,11.072,0c.048,0,.1,0,.146-.006v-4.27H12.7c-.011.016-.017.021-.017.026q0,2.072-.007,4.145c0,.12.063.127.157.126q2.328-.012,4.656-.018a3.112,3.112,0,0,1,.434.027.662.662,0,0,1,.544.418c.2.476-.141.922-.712.921q-2.394,0-4.788-.009H12.68ZM19.772,11.3a.068.068,0,0,0-.027.019,3.351,3.351,0,0,1-2.464,1.3c-.108.005-.128.067-.128.165q.006,2.8,0,5.6a6.156,6.156,0,0,0,.189,1.664,4.974,4.974,0,0,0,1.486,2.432,6.61,6.61,0,0,0,4.4,1.6,6.994,6.994,0,0,0,2.435-.367,5.611,5.611,0,0,0,2.754-1.877,4.693,4.693,0,0,0,1.052-2.821c.035-2.062.01-4.125.01-6.187v-.183h-.617c-2.056,0-4.112,0-6.169,0a3.494,3.494,0,0,1-2.327-.792c-.207-.172-.394-.367-.6-.557m-.662-4.44h0c0-.826,0-1.652,0-2.478,0-.156-.051-.194-.2-.184-.182.013-.365,0-.548.006a5.831,5.831,0,0,0-1.018.036,3.349,3.349,0,0,0-1.978,1.17,2.723,2.723,0,0,0-.721,1.633c-.037,1.361-.018,2.724-.026,4.086,0,.124.044.162.167.162.776,0,1.551.009,2.327-.009a1.992,1.992,0,0,0,.734-.14A1.948,1.948,0,0,0,19.108,9.26c.013-.8,0-1.6,0-2.4M5.7,33.865c0-.269.013-.508,0-.745a.736.736,0,0,0-.81-.737l-1.7.015c-.4,0-.795,0-1.191.014a.643.643,0,0,0-.611.608c-.01.138-.01.277-.01.416q0,2.45,0,4.9c0,.176,0,.353,0,.529a.544.544,0,0,0,.323.516,1.227,1.227,0,0,0,.483.136c.92.015,1.842.036,2.761,0,.474-.018.688-.212.74-.633a7.359,7.359,0,0,0,.006-.869H5.461c-.643,0-1.287,0-1.93,0a.669.669,0,0,1-.676-.549.635.635,0,0,1,.341-.675,1.069,1.069,0,0,1,.461-.131c.611-.015,1.223-.006,1.835-.006.067,0,.133-.006.206-.009,0-.448,0-.876-.006-1.3,0-.036-.085-.1-.133-.1-.283-.01-.567,0-.851-.008-.4,0-.795,0-1.191-.02a.707.707,0,0,1-.639-.486.54.54,0,0,1,.167-.633.732.732,0,0,1,.427-.2c.636-.027,1.273-.022,1.91-.028H5.7M20,24.892c0,.589.014,1.176-.007,1.761a.523.523,0,0,0,.235.492q1.457,1.085,2.9,2.188a.28.28,0,0,0,.4,0Q25,28.213,26.489,27.1a.353.353,0,0,0,.156-.319c-.008-.586,0-1.172-.005-1.759a.729.729,0,0,0-.018-.114A8.259,8.259,0,0,1,20,24.892m10.88-12.278c-.007.09-.011.121-.011.152q-.006,1.3-.011,2.609c0,.321,0,.643,0,.964,0,.089,0,.163.126.161.208,0,.416.011.624,0a1.125,1.125,0,0,0,1.15-1.055,12.813,12.813,0,0,0-.006-1.774,1.045,1.045,0,0,0-.868-.974,6.381,6.381,0,0,0-1-.084m-15.1.041a7.342,7.342,0,0,0-.861.006,1.113,1.113,0,0,0-1.01,1.014,14.817,14.817,0,0,0,0,1.8,1.063,1.063,0,0,0,.874.988,7.22,7.22,0,0,0,1,.009ZM4.95,31.025v-.172q0-1.058,0-2.116A.7.7,0,0,0,4.4,28a.692.692,0,0,0-.863.455,1.683,1.683,0,0,0-.081.554c0,.617.012,1.234.02,1.851,0,.048.006.1.01.161Z" transform="translate(0 0)" fill="#161615"/>
        <path id="Trazado_605776" data-name="Trazado 605776" d="M9.885,83.666A10.234,10.234,0,0,1,9.8,84.894a2.089,2.089,0,0,1-1.946,1.571q-2.9,0-5.79,0A2.1,2.1,0,0,1,.034,84.627c-.017-.182-.026-.365-.026-.547q0-3.993,0-7.985A2.412,2.412,0,0,1,.193,75a2.039,2.039,0,0,1,1.88-1.248c1.949-.028,3.9-.051,5.846.006a2,2,0,0,1,1.92,1.9c.012,1.324.008,2.649,0,3.973a.443.443,0,0,0,.14.349q1.195,1.187,2.377,2.386a2.192,2.192,0,0,1,.336.454.465.465,0,0,1-.247.709,2.039,2.039,0,0,1-.644.118c-.58.017-1.16.007-1.741.009-.062,0-.123.006-.181.01m.5-1.369c-.065-.084-.09-.124-.123-.157-.454-.456-.9-.92-1.368-1.361a1.186,1.186,0,0,1-.41-.954c0-.107,0-.214,0-.322,0-1.248,0-2.5,0-3.745a.616.616,0,0,0-.657-.643c-.265,0-.53,0-.795,0-1.627,0-3.254,0-4.881,0a1.07,1.07,0,0,0-.452.1.673.673,0,0,0-.334.688q.011,3.822.017,7.643c0,.284-.007.568,0,.851a.667.667,0,0,0,.737.7H7.779a.631.631,0,0,0,.713-.721c0-.448-.011-.9,0-1.343a.679.679,0,0,1,.706-.745c.276-.017.554,0,.832,0h.36" transform="translate(-0.005 -62.533)" fill="#161615"/>
        <path id="Trazado_605777" data-name="Trazado 605777" d="M140.386,124.113a2.381,2.381,0,0,1-2.343-2.322.653.653,0,0,1,.352-.642.59.59,0,0,1,.69.062,1.065,1.065,0,0,1,.242.389,2.982,2.982,0,0,1,.1.4,1.02,1.02,0,0,0,2-.1,2.717,2.717,0,0,1,.078-.369.655.655,0,0,1,.717-.455.634.634,0,0,1,.565.651,2.372,2.372,0,0,1-2.394,2.381" transform="translate(-117.083 -102.685)" fill="#161615"/>
        <path id="Trazado_605778" data-name="Trazado 605778" d="M168.513,91.845c0-.164-.012-.329,0-.492a.676.676,0,0,1,.689-.636.724.724,0,0,1,.654.668,8.717,8.717,0,0,1,0,.964.613.613,0,0,1-.459.567.648.648,0,0,1-.737-.2.655.655,0,0,1-.137-.3,5.588,5.588,0,0,1-.037-.565h.018" transform="translate(-142.911 -76.943)" fill="#161615"/>
        <path id="Trazado_605779" data-name="Trazado 605779" d="M131.105,91.912c0,.138-.007.277,0,.415a.667.667,0,0,1-1.332.035,6.583,6.583,0,0,1,0-1,.72.72,0,0,1,.7-.616.7.7,0,0,1,.628.637c.012.175,0,.352,0,.528h0" transform="translate(-110.053 -76.968)" fill="#161615"/>
        <path id="Trazado_605780" data-name="Trazado 605780" d="M16.17,104.736c.437-.436.851-.85,1.266-1.262.371-.369.741-.738,1.116-1.1a.682.682,0,0,1,.894-.05.638.638,0,0,1,.077.928c-.349.389-.722.757-1.092,1.126q-.85.848-1.712,1.683a.96.96,0,0,1-.328.214.668.668,0,0,1-.737-.205c-.41-.41-.822-.818-1.232-1.228a1.685,1.685,0,0,1-.183-.215.62.62,0,0,1,.1-.894.631.631,0,0,1,.858.021c.328.313.637.646.968.986" transform="translate(-11.955 -86.663)" fill="#161615"/>
      </g>
    </g>
    <g id="Grupo_1015274" data-name="Grupo 1015274" transform="translate(-3093.457 -10574.753)">
      <g id="Grupo_1015273" data-name="Grupo 1015273" clip-path="url(#clip-path-3)">
        <path id="Trazado_605781" data-name="Trazado 605781" d="M.192,45.581c.169.171.552.206,1.115.206H44.742c.1,0,.2,0,.3,0,.637-.025.855-.245.863-.872.011-.87.008-1.756.006-2.613l0-.692a6.141,6.141,0,0,0-6.261-6.255q-.961,0-1.922,0H36.71l-.271-.433.1-.111c.06-.065.117-.135.177-.209a2.079,2.079,0,0,1,.477-.472,5.984,5.984,0,0,0,3-5.325c0-.478,0-.956,0-1.434,0-.664-.006-1.35.007-2.027a6.02,6.02,0,0,0-1.417-4.026c-.028-.034-.059-.069-.091-.1a.829.829,0,0,1-.275-.5c-.021-.905-.019-1.831-.016-2.727q0-.436,0-.875v-.2h.2l.762,0c.555,0,1.078,0,1.6.007.561.012.854-.049,1-.435s-.026-.651-.415-1.038q-1.884-1.869-3.762-3.745-1.473-1.469-2.948-2.937c-.631-.627-.882-.632-1.489-.028q-1.462,1.453-2.92,2.91C29.17,12.9,27.87,14.2,26.586,15.474c-.363.36-.541.645-.38,1.039.147.359.434.419.947.408.556-.012,1.1-.009,1.68-.007l.736,0h.2v.2c0,.317,0,.625,0,.926.006.756.012,1.47-.022,2.186a2.083,2.083,0,0,1-.4,1.1,6.179,6.179,0,0,0-1.387,3.97c.024,1.244.024,2.25,0,3.166a6.09,6.09,0,0,0,3.153,5.758,1.346,1.346,0,0,1,.4.488c.068.111.145.237.245.378l.237.334-.409-.023c-3.758-.211-6.563-.127-8.428,2.871l-.139.223-.175-.2c-.046-.052-.087-.1-.123-.134a2.353,2.353,0,0,1-.18-.207,6.128,6.128,0,0,0-5.333-2.6c-.6.007-1.213.005-1.8,0l-.82,0h-.1l-.308-.388.108-.124c.056-.065.11-.136.166-.211a1.846,1.846,0,0,1,.461-.48,6,6,0,0,0,3.029-5.384c0-.269,0-.537.007-.806.008-.6.016-1.213-.016-1.814a3.785,3.785,0,0,1,.9-3.109,2.8,2.8,0,0,0,.643-1.441c.124-.787.171-1.605.217-2.4.017-.287.033-.574.053-.86.033-.473-.021-.764-.4-.945-.333-.158-.524-.036-.861.214-.048.035-.1.071-.145.106-.4.282-.814.545-1.251.823-.191.122-.387.246-.589.377l-.3.2V8.645h.2c.247,0,.491.005.73.011a12.224,12.224,0,0,0,1.621-.034,1.346,1.346,0,0,0,.914-.438,1.215,1.215,0,0,0-.321-.941C17.4,5.255,15.4,3.265,13.459,1.34L12.548.435c-.584-.58-.853-.58-1.439,0l-.992.986c-1.91,1.9-3.886,3.86-5.8,5.82A1.207,1.207,0,0,0,4,8.184a1.339,1.339,0,0,0,.914.437,12.956,12.956,0,0,0,1.663.034c.243-.005.49-.011.74-.011h.2v1.33c0,.688.362.785.677.792a.7.7,0,0,0,.52-.159.913.913,0,0,0,.211-.658c.009-.565.017-1.223,0-1.871-.017-.614-.242-.827-.891-.843-.25-.006-.5,0-.722,0H6.581l5.193-5.306,5.358,5.306H16.087c-1.28.007-1.356.083-1.357,1.352V18.96l-5.809.509v-.215c0-.069,0-.149,0-.239,0-.228.01-.513-.008-.792a.679.679,0,0,0-.714-.717.659.659,0,0,0-.686.732c0,.194,0,.394.008.587a8.273,8.273,0,0,1-.031,1.238,3.008,3.008,0,0,1-.478,1.357A6.251,6.251,0,0,0,5.708,25.2l0,.269c.008,1,.017,2.029,0,3.044a6.1,6.1,0,0,0,3.13,5.7,1.3,1.3,0,0,1,.4.5c.057.1.122.215.2.332l.209.308H9.276c-.416,0-.807,0-1.179,0l-.986,0c-.393,0-.771,0-1.152.009A5.98,5.98,0,0,0,.137,40.374,20.856,20.856,0,0,0,0,43.387c0,.355,0,.722,0,1.082-.009.66.042.961.191,1.112m38.073-8.737.143-.016a5.48,5.48,0,0,1,4.708,1.315c1.237,1.264,1.677,3.291,1.307,6.023l-.023.171H42.3v-.91c0-.546,0-1.1,0-1.645-.005-.671-.246-1.011-.715-1.011h0c-.295,0-.687.108-.69,1.022,0,.531,0,1.062,0,1.613v.952H36.767ZM29.482,15.5H28.83l5.313-5.291,5.2,5.291h-.47l-.291,0c-.224,0-.456,0-.687,0-.666.022-.9.261-.914.912-.01.691-.007,1.381-.005,2.111,0,.323,0,.652,0,.992v.3l-.275-.118a6.227,6.227,0,0,0-5.254.009l-.278.124V18.6c0-.634,0-1.238,0-1.843,0-1.086-.164-1.25-1.247-1.255h-.447m1.984,5.847a4.457,4.457,0,0,1,4.951-.17,4.644,4.644,0,0,1,2.359,4.669l-.013.219-.216-.037a2.5,2.5,0,0,1-1.933-2.355c-.059-.616-.223-.86-.628-.933-.388-.07-.586.142-.885.641a5.735,5.735,0,0,1-5.3,2.946l-.192,0-.175,0-.017-.174a4.715,4.715,0,0,1,2.054-4.8m.453,11.631c-1.872-.9-2.72-2.6-2.52-5.034l.015-.186.186,0a7.408,7.408,0,0,0,5.765-2.319l.178-.182.132.218a4.633,4.633,0,0,0,2.9,2.194l.13.034.015.134a4.734,4.734,0,0,1-2.953,5.377.937.937,0,0,0-.6,1.064c.057.828.127,1.859-1.042,2.386l-.1.045-.091-.06a1.776,1.776,0,0,1-.965-1.861c.144-.881-.143-1.373-1.06-1.815m-.092,3.647.54.538q.456.456.914.91c.686.68.911.679,1.6-.008l.9-.9.555-.552.438.31L36.5,38.37q-.313,1.607-.628,3.214c-.043.22-.089.439-.135.659-.09.431-.184.877-.252,1.317-.061.393-.213.832-.834.832-.047,0-.1,0-.148-.008a8.172,8.172,0,0,0-.973-.016c-.164,0-.334.007-.512.007h-.162l-1.49-7.449Zm-7.777,3c.88-2.078,2.846-3.05,5.685-2.813l.148.012,1.507,7.5H27.267v-.2q0-.371,0-.74c0-.564-.005-1.147.007-1.72s-.2-.843-.688-.889a.566.566,0,0,0-.449.137,1.033,1.033,0,0,0-.275.766c-.008.549-.006,1.1,0,1.676,0,.259,0,.523,0,.794v.2H23.663l.007-.2c.013-.409,0-.827-.012-1.23a7.582,7.582,0,0,1,.391-3.285m-8.028-2.794.146-.014c2.044-.2,3.524.178,4.527,1.144,1.2,1.156,1.7,3.173,1.522,6.166l-.011.186H20.051v-.2q0-.351,0-.707c0-.544,0-1.094,0-1.644a1.173,1.173,0,0,0-.275-.855.561.561,0,0,0-.44-.135c-.507.04-.716.324-.7.949.014.538.011,1.074.008,1.642,0,.252,0,.509,0,.775v.2h-4.12Zm-7.88-14.53a4.964,4.964,0,0,1,3.721-1.774c.737-.028,1.448-.028,2.115,0a7.411,7.411,0,0,0,4.063-.852l.3-.165-.011.345a4.557,4.557,0,0,1-1.912,3.757,4.769,4.769,0,0,1-2.9.95,7.282,7.282,0,0,1-2.429-.464A12.5,12.5,0,0,1,9.1,23.114c-.294-.168-.6-.341-.907-.5l-.224-.117ZM9.627,32.962A4.064,4.064,0,0,1,7.178,29.45a34.581,34.581,0,0,1-.047-3.485c.009-.419.017-.838.02-1.256a1.725,1.725,0,0,1,.1-.495c.02-.065.04-.131.056-.2l.059-.242.222.113c4.6,2.345,4.845,2.389,8.676,1.579l.238-.05v.243c0,.39.01.789.02,1.174a19.982,19.982,0,0,1-.049,2.659,4.324,4.324,0,0,1-2.74,3.637,1.157,1.157,0,0,0-.819,1.3c.041,1.327.008,1.409-.882,2.19l-.16.141-.125-.079a1.753,1.753,0,0,1-1.019-1.867,1.506,1.506,0,0,0-1.1-1.853m-.105,3.7.115.1c.088.079.177.158.266.236.194.17.394.345.581.532.679.677,1.051,1.047,1.341,1.047h0c.293,0,.674-.382,1.366-1.071.183-.182.372-.35.555-.513.084-.075.168-.149.251-.225l.105-.1.434.245L13.066,44.3l-.145.014c-.5.05-.891.085-1.2.085-1.042,0-1.175-.393-1.493-1.926-.26-1.251-.51-2.525-.753-3.757q-.163-.83-.327-1.659l-.025-.128ZM1.531,40.7a4.6,4.6,0,0,1,4.638-3.93c1.349-.026,1.444.047,1.709,1.317.292,1.4.579,2.834.855,4.221q.18.9.362,1.809l.047.236H5.016v-.2q0-.382,0-.759c0-.586,0-1.14,0-1.706a1.055,1.055,0,0,0-.262-.778.556.556,0,0,0-.442-.131c-.3.027-.71.149-.706.885,0,.555,0,1.111,0,1.686v.969H1.5v-.2c0-.361-.014-.726-.027-1.08A12.528,12.528,0,0,1,1.531,40.7" transform="translate(0 0)" fill="#161615"/>
        <path id="Trazado_605782" data-name="Trazado 605782" d="M57.247,103.062c.014.321.122.651.808.664a.629.629,0,0,0,.576-.707.71.71,0,0,0-.21-.512.67.67,0,0,0-.467-.168h-.039a.709.709,0,0,0-.509.209.694.694,0,0,0-.16.513" transform="translate(-49.724 -88.891)" fill="#161615"/>
      </g>
    </g>
    <path id="Trazado_605783" data-name="Trazado 605783" d="M-1562-10794.874l-88.936-87.671h-58.293v-111.329" transform="translate(-1372 241.874)" fill="none" stroke="#707070" stroke-width="2" stroke-dasharray="4"/>
  </g>
</svg>
