<svg xmlns="http://www.w3.org/2000/svg" width="505" height="399" viewBox="0 0 505 399">
  <g id="Grupo_1015273" data-name="Grupo 1015273" transform="translate(8932 1978)">
    <g id="Grupo_1014679" data-name="Grupo 1014679" transform="translate(-2440 -1508)">
      <rect id="Rectángulo_345321" data-name="Rectángulo 345321" width="505" height="399" transform="translate(-6492 -470)" fill="#fff" opacity="0.8"/>
    </g>
    <path id="Trazado_601354" data-name="Trazado 601354" d="M-8060.337-2062l96.486,8.367,149.751,2.218v125.59h-269.308v128.642" transform="translate(-725 146.186)" fill="none" stroke="#a3bfe4" stroke-width="4" stroke-dasharray="5"/>
    <path id="Trazado_601355" data-name="Trazado 601355" d="M-92,0l38.11,47.407L-92,94.815H103.555l37.059-47.657L103.555,0Z" transform="translate(-8829 -1954.814)" fill="#e3ecf7"/>
    <path id="Trazado_601356" data-name="Trazado 601356" d="M-92,0l38.11,47.407L-92,94.815H103.555l37.059-47.657L103.555,0Z" transform="translate(-8528.386 -1730.999) rotate(180)" fill="#e3ecf7"/>
    <path id="Trazado_601357" data-name="Trazado 601357" d="M-92,0l38.11,47.407L-92,94.815H103.555l37.059-47.657L103.555,0Z" transform="translate(-8820.114 -1696.814)" fill="#e3ecf7"/>
    <path id="Trazado_601358" data-name="Trazado 601358" d="M-92,0l38.11,47.407L-92,94.815H103.555l37.059-47.657L103.555,0Z" transform="translate(-8780.386 -1730.999) rotate(180)" fill="#fffbe5"/>
    <path id="Trazado_601359" data-name="Trazado 601359" d="M-92,0l38.11,47.407L-92,94.815H103.555l37.059-47.657L103.555,0Z" transform="translate(-8577 -1954.814)" fill="#fffbe5"/>
    <path id="Trazado_605808" data-name="Trazado 605808" d="M4.723,14.556a1.824,1.824,0,0,0,1.253-.44,1.5,1.5,0,0,0,.531-1.087h1.9a2.963,2.963,0,0,1-.523,1.565,3.43,3.43,0,0,1-1.328,1.15,3.958,3.958,0,0,1-1.81.423,3.829,3.829,0,0,1-2.988-1.22,4.84,4.84,0,0,1-1.1-3.37v-.208a4.759,4.759,0,0,1,1.1-3.283A3.8,3.8,0,0,1,4.74,6.853a3.69,3.69,0,0,1,2.611.934,3.345,3.345,0,0,1,1.058,2.453h-1.9a1.847,1.847,0,0,0-.527-1.27,1.7,1.7,0,0,0-1.258-.5,1.775,1.775,0,0,0-1.511.71,3.621,3.621,0,0,0-.54,2.154v.324A3.682,3.682,0,0,0,3.2,13.838,1.773,1.773,0,0,0,4.723,14.556ZM12.078,16H10.061V3.25h2.017Zm4.341,0H14.4V7.019h2.017ZM14.277,4.686a1.071,1.071,0,0,1,.295-.772,1.113,1.113,0,0,1,.843-.307,1.127,1.127,0,0,1,.847.307,1.062,1.062,0,0,1,.3.772,1.038,1.038,0,0,1-.3.76,1.136,1.136,0,0,1-.847.3,1.122,1.122,0,0,1-.843-.3A1.046,1.046,0,0,1,14.277,4.686Zm8.292,11.48a4.173,4.173,0,0,1-3.109-1.208,4.381,4.381,0,0,1-1.191-3.217v-.249a5.389,5.389,0,0,1,.519-2.4,3.949,3.949,0,0,1,1.457-1.648,3.851,3.851,0,0,1,2.092-.589,3.525,3.525,0,0,1,2.835,1.17,4.949,4.949,0,0,1,1,3.312v.813H20.3a2.7,2.7,0,0,0,.743,1.76,2.23,2.23,0,0,0,1.639.647,2.731,2.731,0,0,0,2.258-1.121l1.087,1.038a3.631,3.631,0,0,1-1.44,1.249A4.509,4.509,0,0,1,22.57,16.166Zm-.241-7.695a1.7,1.7,0,0,0-1.341.581,3.012,3.012,0,0,0-.652,1.619H24.18v-.149a2.452,2.452,0,0,0-.54-1.531A1.686,1.686,0,0,0,22.329,8.471Zm7.28-1.453.058,1.038a3.229,3.229,0,0,1,2.615-1.2q2.806,0,2.855,3.212V16H33.12V10.181a1.85,1.85,0,0,0-.369-1.266A1.554,1.554,0,0,0,31.543,8.5a1.944,1.944,0,0,0-1.818,1.1V16H27.708V7.019Zm10.11-2.183V7.019H41.3V8.513H39.719v5.014a1.1,1.1,0,0,0,.2.743.943.943,0,0,0,.726.228,3.107,3.107,0,0,0,.706-.083v1.561a4.968,4.968,0,0,1-1.328.191q-2.324,0-2.324-2.565V8.513H36.225V7.019H37.7V4.835ZM46.8,16.166a4.173,4.173,0,0,1-3.109-1.208A4.381,4.381,0,0,1,42.5,11.742v-.249a5.389,5.389,0,0,1,.519-2.4,3.949,3.949,0,0,1,1.457-1.648,3.851,3.851,0,0,1,2.092-.589A3.525,3.525,0,0,1,49.4,8.023a4.949,4.949,0,0,1,1,3.312v.813H44.534a2.7,2.7,0,0,0,.743,1.76,2.23,2.23,0,0,0,1.639.647,2.731,2.731,0,0,0,2.258-1.121l1.087,1.038a3.631,3.631,0,0,1-1.44,1.249A4.509,4.509,0,0,1,46.8,16.166Zm-.241-7.695a1.7,1.7,0,0,0-1.341.581,3.012,3.012,0,0,0-.652,1.619H48.41v-.149a2.452,2.452,0,0,0-.54-1.531A1.686,1.686,0,0,0,46.559,8.471Zm7.28,3.984a4.663,4.663,0,0,1,.274-1.761A4.617,4.617,0,0,1,55.2,9.253a8.269,8.269,0,0,0,1.025-1.117,1.955,1.955,0,0,0,.332-1.094,1.672,1.672,0,0,0-.386-1.189,1.482,1.482,0,0,0-1.133-.41,1.631,1.631,0,0,0-1.15.4,1.406,1.406,0,0,0-.436,1.088H51.432a2.972,2.972,0,0,1,1-2.326,3.824,3.824,0,0,1,2.6-.856,3.732,3.732,0,0,1,2.6.847,3.035,3.035,0,0,1,.934,2.368,3.877,3.877,0,0,1-1.262,2.667l-1.021,1.005a2.738,2.738,0,0,0-.564,1.82ZM53.7,15.033a1.058,1.058,0,0,1,.307-.79,1.29,1.29,0,0,1,1.668.008,1.065,1.065,0,0,1,.307.781,1.046,1.046,0,0,1-.3.761,1.13,1.13,0,0,1-.847.306,1.115,1.115,0,0,1-.843-.306A1.054,1.054,0,0,1,53.7,15.033Z" transform="translate(-8582 -1907.814)" fill="#12263f"/>
    <path id="Trazado_605806" data-name="Trazado 605806" d="M7.139,7.019,7.2,8.056a3.229,3.229,0,0,1,2.615-1.2q2.806,0,2.855,3.212V16H10.65V10.181a1.85,1.85,0,0,0-.369-1.266A1.554,1.554,0,0,0,9.073,8.5a1.944,1.944,0,0,0-1.818,1.1V16H5.238V7.019Zm11.538,9.147a4.173,4.173,0,0,1-3.109-1.208,4.381,4.381,0,0,1-1.191-3.217v-.249a5.389,5.389,0,0,1,.519-2.4,3.949,3.949,0,0,1,1.457-1.648,3.851,3.851,0,0,1,2.092-.589,3.525,3.525,0,0,1,2.835,1.17,4.949,4.949,0,0,1,1,3.312v.813H16.411a2.7,2.7,0,0,0,.743,1.76,2.23,2.23,0,0,0,1.639.647,2.731,2.731,0,0,0,2.258-1.121l1.087,1.038a3.631,3.631,0,0,1-1.44,1.249A4.509,4.509,0,0,1,18.677,16.166Zm-.241-7.695a1.7,1.7,0,0,0-1.341.581,3.012,3.012,0,0,0-.652,1.619h3.843v-.149a2.452,2.452,0,0,0-.54-1.531A1.686,1.686,0,0,0,18.436,8.471Zm5.055,2.972A5.253,5.253,0,0,1,24.475,8.1a3.157,3.157,0,0,1,2.611-1.249A2.958,2.958,0,0,1,29.5,7.923l.091-.9H31.41v8.708a3.619,3.619,0,0,1-1.1,2.789,4.189,4.189,0,0,1-2.968,1.021,4.783,4.783,0,0,1-1.93-.411,3.429,3.429,0,0,1-1.432-1.075l.955-1.212a2.883,2.883,0,0,0,2.291,1.1,2.228,2.228,0,0,0,1.585-.544,2.084,2.084,0,0,0,.581-1.6v-.606a2.97,2.97,0,0,1-2.324.971,3.15,3.15,0,0,1-2.577-1.253A5.423,5.423,0,0,1,23.491,11.443Zm2.009.174a3.616,3.616,0,0,0,.552,2.129,1.775,1.775,0,0,0,1.531.776,1.941,1.941,0,0,0,1.81-1.046V9.525A1.913,1.913,0,0,0,27.6,8.5a1.782,1.782,0,0,0-1.548.789A4.049,4.049,0,0,0,25.5,11.617Zm7.6-.191a5.3,5.3,0,0,1,.523-2.378A3.819,3.819,0,0,1,35.1,7.421a4.14,4.14,0,0,1,2.175-.569,3.923,3.923,0,0,1,2.951,1.17,4.6,4.6,0,0,1,1.224,3.1l.008.473a5.343,5.343,0,0,1-.51,2.374,3.773,3.773,0,0,1-1.461,1.619,4.17,4.17,0,0,1-2.2.573A3.9,3.9,0,0,1,34.245,14.9,4.848,4.848,0,0,1,33.1,11.526Zm2.017.174a3.619,3.619,0,0,0,.573,2.171,1.862,1.862,0,0,0,1.594.784,1.842,1.842,0,0,0,1.59-.8,4,4,0,0,0,.569-2.333,3.572,3.572,0,0,0-.585-2.158A1.973,1.973,0,0,0,35.7,9.256,3.922,3.922,0,0,0,35.121,11.6ZM46.85,14.556a1.824,1.824,0,0,0,1.253-.44,1.5,1.5,0,0,0,.531-1.087h1.9a2.963,2.963,0,0,1-.523,1.565,3.43,3.43,0,0,1-1.328,1.15,3.958,3.958,0,0,1-1.81.423,3.829,3.829,0,0,1-2.988-1.22,4.84,4.84,0,0,1-1.1-3.37v-.208a4.759,4.759,0,0,1,1.1-3.283,3.8,3.8,0,0,1,2.988-1.233,3.69,3.69,0,0,1,2.611.934,3.345,3.345,0,0,1,1.058,2.453h-1.9a1.847,1.847,0,0,0-.527-1.27,1.7,1.7,0,0,0-1.258-.5,1.775,1.775,0,0,0-1.511.71,3.621,3.621,0,0,0-.54,2.154v.324a3.682,3.682,0,0,0,.527,2.179A1.773,1.773,0,0,0,46.85,14.556ZM54.2,16H52.187V7.019H54.2ZM52.063,4.686a1.071,1.071,0,0,1,.295-.772,1.113,1.113,0,0,1,.843-.307,1.127,1.127,0,0,1,.847.307,1.062,1.062,0,0,1,.3.772,1.038,1.038,0,0,1-.3.76,1.136,1.136,0,0,1-.847.3,1.122,1.122,0,0,1-.843-.3A1.046,1.046,0,0,1,52.063,4.686Zm3.959,6.74a5.3,5.3,0,0,1,.523-2.378,3.819,3.819,0,0,1,1.469-1.627,4.14,4.14,0,0,1,2.175-.569,3.923,3.923,0,0,1,2.951,1.17,4.6,4.6,0,0,1,1.224,3.1l.008.473a5.343,5.343,0,0,1-.51,2.374A3.773,3.773,0,0,1,62.4,15.593a4.17,4.17,0,0,1-2.2.573A3.9,3.9,0,0,1,57.163,14.9a4.848,4.848,0,0,1-1.141-3.374Zm2.017.174a3.619,3.619,0,0,0,.573,2.171,1.862,1.862,0,0,0,1.594.784,1.842,1.842,0,0,0,1.59-.8,4,4,0,0,0,.569-2.333,3.572,3.572,0,0,0-.585-2.158,1.973,1.973,0,0,0-3.158-.012A3.922,3.922,0,0,0,58.039,11.6Zm9.911.855a4.663,4.663,0,0,1,.274-1.761,4.617,4.617,0,0,1,1.083-1.442,8.269,8.269,0,0,0,1.025-1.117,1.955,1.955,0,0,0,.332-1.094,1.672,1.672,0,0,0-.386-1.189,1.482,1.482,0,0,0-1.133-.41,1.631,1.631,0,0,0-1.15.4A1.406,1.406,0,0,0,67.56,6.93H65.543a2.972,2.972,0,0,1,1-2.326,3.824,3.824,0,0,1,2.6-.856,3.732,3.732,0,0,1,2.6.847,3.035,3.035,0,0,1,.934,2.368A3.877,3.877,0,0,1,71.42,9.631L70.4,10.636a2.738,2.738,0,0,0-.564,1.82Zm-.141,2.577a1.058,1.058,0,0,1,.307-.79,1.29,1.29,0,0,1,1.668.008,1.065,1.065,0,0,1,.307.781,1.046,1.046,0,0,1-.3.761,1.13,1.13,0,0,1-.847.306,1.115,1.115,0,0,1-.843-.306A1.054,1.054,0,0,1,67.809,15.033Z" transform="translate(-8840 -1907.814)" fill="#12263f"/>
    <path id="Trazado_605807" data-name="Trazado 605807" d="M5.229,10.5a5.141,5.141,0,0,1-.237,1.633A3.876,3.876,0,0,1,4.167,13.4l-.855.881a2.467,2.467,0,0,0-.747,1.687,1.539,1.539,0,0,0,.407,1.168,1.6,1.6,0,0,0,1.146.387,1.634,1.634,0,0,0,1.17-.416A1.451,1.451,0,0,0,5.728,16H7.745a2.986,2.986,0,0,1-1.009,2.335,3.819,3.819,0,0,1-2.6.864,3.849,3.849,0,0,1-2.648-.835A3,3,0,0,1,.548,16a4,4,0,0,1,1.287-2.725L2.6,12.5a2.305,2.305,0,0,0,.73-1.554l.017-.44ZM5.4,7.927A1.079,1.079,0,0,1,5.1,8.7a1.107,1.107,0,0,1-.843.31,1.121,1.121,0,0,1-.847-.31,1.139,1.139,0,0,1,0-1.538,1.121,1.121,0,0,1,.847-.31,1.107,1.107,0,0,1,.843.31A1.068,1.068,0,0,1,5.4,7.927Zm13.7,2.345a7.46,7.46,0,0,1-.544,2.976,4.847,4.847,0,0,1-1.523,2l2.075,1.619-1.361,1.229-2.573-2.034a5.213,5.213,0,0,1-1.087.108,4.825,4.825,0,0,1-2.611-.718A4.716,4.716,0,0,1,9.7,13.4a7.183,7.183,0,0,1-.635-3.063V9.658a7.352,7.352,0,0,1,.627-3.121,4.71,4.71,0,0,1,1.768-2.071,4.8,4.8,0,0,1,2.611-.718,4.887,4.887,0,0,1,2.635.71A4.651,4.651,0,0,1,18.469,6.5,7.336,7.336,0,0,1,19.1,9.6Zm-2.108-.631a5.248,5.248,0,0,0-.764-3.1A2.509,2.509,0,0,0,14.07,5.491a2.469,2.469,0,0,0-2.121,1.067,5.165,5.165,0,0,0-.784,3.009v.706a5.3,5.3,0,0,0,.768,3.063,2.474,2.474,0,0,0,2.154,1.1,2.478,2.478,0,0,0,2.154-1.062,5.356,5.356,0,0,0,.751-3.1Zm9.488,5.479a3.128,3.128,0,0,1-2.523,1.046,2.788,2.788,0,0,1-2.212-.855,3.637,3.637,0,0,1-.751-2.474V7.019H23.01v5.794q0,1.71,1.419,1.71a1.993,1.993,0,0,0,1.984-1.054V7.019H28.43V16h-1.9ZM32.63,16H30.613V7.019H32.63ZM30.489,4.686a1.071,1.071,0,0,1,.295-.772,1.113,1.113,0,0,1,.843-.307,1.127,1.127,0,0,1,.847.307,1.062,1.062,0,0,1,.3.772,1.038,1.038,0,0,1-.3.76,1.136,1.136,0,0,1-.847.3,1.122,1.122,0,0,1-.843-.3A1.046,1.046,0,0,1,30.489,4.686Zm8.292,11.48a4.173,4.173,0,0,1-3.109-1.208,4.381,4.381,0,0,1-1.191-3.217v-.249A5.389,5.389,0,0,1,35,9.09a3.949,3.949,0,0,1,1.457-1.648,3.851,3.851,0,0,1,2.092-.589,3.525,3.525,0,0,1,2.835,1.17,4.949,4.949,0,0,1,1,3.312v.813H36.515a2.7,2.7,0,0,0,.743,1.76,2.23,2.23,0,0,0,1.639.647,2.731,2.731,0,0,0,2.258-1.121l1.087,1.038a3.631,3.631,0,0,1-1.44,1.249A4.509,4.509,0,0,1,38.781,16.166Zm-.241-7.695a1.7,1.7,0,0,0-1.341.581,3.012,3.012,0,0,0-.652,1.619h3.843v-.149a2.452,2.452,0,0,0-.54-1.531A1.686,1.686,0,0,0,38.541,8.471ZM39,3.25h2.3L39,5.765l-1.619,0ZM45.82,7.019l.058,1.038a3.229,3.229,0,0,1,2.615-1.2q2.806,0,2.855,3.212V16H49.332V10.181a1.85,1.85,0,0,0-.369-1.266A1.554,1.554,0,0,0,47.754,8.5a1.944,1.944,0,0,0-1.818,1.1V16H43.919V7.019Zm15.771,9.147a4.173,4.173,0,0,1-3.109-1.208,4.381,4.381,0,0,1-1.191-3.217v-.249a5.389,5.389,0,0,1,.519-2.4,3.949,3.949,0,0,1,1.457-1.648,3.851,3.851,0,0,1,2.092-.589,3.525,3.525,0,0,1,2.835,1.17,4.949,4.949,0,0,1,1,3.312v.813H59.326a2.7,2.7,0,0,0,.743,1.76,2.23,2.23,0,0,0,1.639.647,2.731,2.731,0,0,0,2.258-1.121l1.087,1.038a3.631,3.631,0,0,1-1.44,1.249A4.509,4.509,0,0,1,61.592,16.166Zm-.241-7.695a1.7,1.7,0,0,0-1.341.581,3.012,3.012,0,0,0-.652,1.619H63.2v-.149a2.452,2.452,0,0,0-.54-1.531A1.686,1.686,0,0,0,61.351,8.471ZM71.793,13.56a.914.914,0,0,0-.444-.822,4.723,4.723,0,0,0-1.473-.5,7.574,7.574,0,0,1-1.718-.548,2.293,2.293,0,0,1-1.511-2.117,2.391,2.391,0,0,1,.979-1.942,3.872,3.872,0,0,1,2.49-.78,4.029,4.029,0,0,1,2.6.8,2.529,2.529,0,0,1,.992,2.067H71.694a1.243,1.243,0,0,0-.432-.967,1.654,1.654,0,0,0-1.146-.386,1.787,1.787,0,0,0-1.083.307.968.968,0,0,0-.419.822.818.818,0,0,0,.39.722,5.365,5.365,0,0,0,1.577.519,7.466,7.466,0,0,1,1.864.623,2.639,2.639,0,0,1,1,.867,2.212,2.212,0,0,1,.328,1.229,2.34,2.34,0,0,1-1,1.963,4.283,4.283,0,0,1-2.631.751,4.644,4.644,0,0,1-1.967-.4,3.238,3.238,0,0,1-1.345-1.1,2.594,2.594,0,0,1-.481-1.5h1.959a1.421,1.421,0,0,0,.54,1.1,2.1,2.1,0,0,0,1.32.386,2.04,2.04,0,0,0,1.212-.3A.938.938,0,0,0,71.793,13.56Zm11.928,2.606a4.173,4.173,0,0,1-3.109-1.208,4.381,4.381,0,0,1-1.191-3.217v-.249a5.389,5.389,0,0,1,.519-2.4A3.949,3.949,0,0,1,81.4,7.442a3.851,3.851,0,0,1,2.092-.589,3.525,3.525,0,0,1,2.835,1.17,4.949,4.949,0,0,1,1,3.312v.813H81.456a2.7,2.7,0,0,0,.743,1.76,2.23,2.23,0,0,0,1.639.647A2.731,2.731,0,0,0,86.1,13.435l1.087,1.038a3.631,3.631,0,0,1-1.44,1.249A4.509,4.509,0,0,1,83.722,16.166Zm-.241-7.695a1.7,1.7,0,0,0-1.341.581,3.012,3.012,0,0,0-.652,1.619h3.843v-.149a2.452,2.452,0,0,0-.54-1.531A1.686,1.686,0,0,0,83.481,8.471ZM91.035,16H89.018V3.25h2.017Z" transform="translate(-8598 -1929.814)" fill="#12263f"/>
    <path id="Trazado_605805" data-name="Trazado 605805" d="M5.229,10.5a5.141,5.141,0,0,1-.237,1.633A3.876,3.876,0,0,1,4.167,13.4l-.855.881a2.467,2.467,0,0,0-.747,1.687,1.539,1.539,0,0,0,.407,1.168,1.6,1.6,0,0,0,1.146.387,1.634,1.634,0,0,0,1.17-.416A1.451,1.451,0,0,0,5.728,16H7.745a2.986,2.986,0,0,1-1.009,2.335,3.819,3.819,0,0,1-2.6.864,3.849,3.849,0,0,1-2.648-.835A3,3,0,0,1,.548,16a4,4,0,0,1,1.287-2.725L2.6,12.5a2.305,2.305,0,0,0,.73-1.554l.017-.44ZM5.4,7.927A1.079,1.079,0,0,1,5.1,8.7a1.107,1.107,0,0,1-.843.31,1.121,1.121,0,0,1-.847-.31,1.139,1.139,0,0,1,0-1.538,1.121,1.121,0,0,1,.847-.31,1.107,1.107,0,0,1,.843.31A1.068,1.068,0,0,1,5.4,7.927Zm13.323,4.138a4.364,4.364,0,0,1-1.428,3.017,4.867,4.867,0,0,1-3.312,1.083,4.713,4.713,0,0,1-2.544-.685,4.5,4.5,0,0,1-1.7-1.947,7.024,7.024,0,0,1-.623-2.93V9.476A7.075,7.075,0,0,1,9.72,6.462a4.567,4.567,0,0,1,1.739-2.009,4.851,4.851,0,0,1,2.619-.706A4.672,4.672,0,0,1,17.3,4.831,4.527,4.527,0,0,1,18.718,7.9H16.626a2.985,2.985,0,0,0-.76-1.88,2.51,2.51,0,0,0-1.789-.577,2.452,2.452,0,0,0-2.1,1,5,5,0,0,0-.751,2.937v1.072a5.308,5.308,0,0,0,.7,2.991,2.328,2.328,0,0,0,2.054,1.03,2.715,2.715,0,0,0,1.859-.556,2.9,2.9,0,0,0,.789-1.851ZM25.84,15.12a3.128,3.128,0,0,1-2.523,1.046,2.788,2.788,0,0,1-2.212-.855,3.637,3.637,0,0,1-.751-2.474V7.019h2.017v5.794q0,1.71,1.419,1.71a1.993,1.993,0,0,0,1.984-1.054V7.019h2.017V16h-1.9Zm9.372.88a3.113,3.113,0,0,1-.232-.838,3.393,3.393,0,0,1-4.565.232,2.47,2.47,0,0,1-.855-1.909,2.55,2.55,0,0,1,1.067-2.2,5.169,5.169,0,0,1,3.051-.768h1.237V9.924a1.573,1.573,0,0,0-.39-1.116,1.547,1.547,0,0,0-1.187-.419,1.777,1.777,0,0,0-1.129.344,1.066,1.066,0,0,0-.44.876H29.75a2.239,2.239,0,0,1,.49-1.382,3.263,3.263,0,0,1,1.332-1.009,4.68,4.68,0,0,1,1.88-.365,3.769,3.769,0,0,1,2.515.793,2.827,2.827,0,0,1,.963,2.229v4.051a4.591,4.591,0,0,0,.34,1.934V16ZM33,14.547a2.294,2.294,0,0,0,1.125-.291,1.941,1.941,0,0,0,.793-.78V11.783H33.826a2.973,2.973,0,0,0-1.685.39,1.264,1.264,0,0,0-.564,1.1,1.179,1.179,0,0,0,.386.926A1.5,1.5,0,0,0,33,14.547Zm1.121-11.3h2.3l-2.3,2.515-1.619,0ZM41.188,16H39.171V3.25h2.017Zm10.384.166a4.173,4.173,0,0,1-3.109-1.208,4.381,4.381,0,0,1-1.191-3.217v-.249a5.389,5.389,0,0,1,.519-2.4,3.949,3.949,0,0,1,1.457-1.648,3.851,3.851,0,0,1,2.092-.589,3.525,3.525,0,0,1,2.835,1.17,4.949,4.949,0,0,1,1,3.312v.813H49.307a2.7,2.7,0,0,0,.743,1.76,2.23,2.23,0,0,0,1.639.647,2.731,2.731,0,0,0,2.258-1.121l1.087,1.038a3.631,3.631,0,0,1-1.44,1.249A4.509,4.509,0,0,1,51.573,16.166Zm-.241-7.695a1.7,1.7,0,0,0-1.341.581,3.012,3.012,0,0,0-.652,1.619h3.843v-.149a2.452,2.452,0,0,0-.54-1.531A1.686,1.686,0,0,0,51.332,8.471ZM61.774,13.56a.914.914,0,0,0-.444-.822,4.723,4.723,0,0,0-1.473-.5,7.574,7.574,0,0,1-1.718-.548,2.293,2.293,0,0,1-1.511-2.117,2.391,2.391,0,0,1,.979-1.942,3.872,3.872,0,0,1,2.49-.78,4.029,4.029,0,0,1,2.6.8,2.529,2.529,0,0,1,.992,2.067H61.675a1.243,1.243,0,0,0-.432-.967A1.654,1.654,0,0,0,60.1,8.363a1.787,1.787,0,0,0-1.083.307.968.968,0,0,0-.419.822.818.818,0,0,0,.39.722,5.365,5.365,0,0,0,1.577.519,7.466,7.466,0,0,1,1.864.623,2.639,2.639,0,0,1,1,.867,2.212,2.212,0,0,1,.328,1.229,2.34,2.34,0,0,1-1,1.963,4.283,4.283,0,0,1-2.631.751,4.644,4.644,0,0,1-1.967-.4,3.238,3.238,0,0,1-1.345-1.1,2.594,2.594,0,0,1-.481-1.5h1.959a1.421,1.421,0,0,0,.54,1.1,2.1,2.1,0,0,0,1.32.386,2.04,2.04,0,0,0,1.212-.3A.938.938,0,0,0,61.774,13.56ZM73.7,16.166a4.173,4.173,0,0,1-3.109-1.208A4.381,4.381,0,0,1,69.4,11.742v-.249a5.389,5.389,0,0,1,.519-2.4,3.949,3.949,0,0,1,1.457-1.648,3.851,3.851,0,0,1,2.092-.589A3.525,3.525,0,0,1,76.3,8.023a4.949,4.949,0,0,1,1,3.312v.813H71.437a2.7,2.7,0,0,0,.743,1.76,2.23,2.23,0,0,0,1.639.647,2.731,2.731,0,0,0,2.258-1.121l1.087,1.038a3.631,3.631,0,0,1-1.44,1.249A4.509,4.509,0,0,1,73.7,16.166Zm-.241-7.695a1.7,1.7,0,0,0-1.341.581,3.012,3.012,0,0,0-.652,1.619h3.843v-.149a2.452,2.452,0,0,0-.54-1.531A1.686,1.686,0,0,0,73.462,8.471ZM81.016,16H79V3.25h2.017Z" transform="translate(-8845 -1929.814)" fill="#12263f"/>
    <path id="Trazado_605811" data-name="Trazado 605811" d="M5.229,10.5a5.141,5.141,0,0,1-.237,1.633A3.876,3.876,0,0,1,4.167,13.4l-.855.881a2.467,2.467,0,0,0-.747,1.687,1.539,1.539,0,0,0,.407,1.168,1.6,1.6,0,0,0,1.146.387,1.634,1.634,0,0,0,1.17-.416A1.451,1.451,0,0,0,5.728,16H7.745a2.986,2.986,0,0,1-1.009,2.335,3.819,3.819,0,0,1-2.6.864,3.849,3.849,0,0,1-2.648-.835A3,3,0,0,1,.548,16a4,4,0,0,1,1.287-2.725L2.6,12.5a2.305,2.305,0,0,0,.73-1.554l.017-.44ZM5.4,7.927A1.079,1.079,0,0,1,5.1,8.7a1.107,1.107,0,0,1-.843.31,1.121,1.121,0,0,1-.847-.31,1.139,1.139,0,0,1,0-1.538,1.121,1.121,0,0,1,.847-.31,1.107,1.107,0,0,1,.843.31A1.068,1.068,0,0,1,5.4,7.927Zm13.323,4.138a4.364,4.364,0,0,1-1.428,3.017,4.867,4.867,0,0,1-3.312,1.083,4.713,4.713,0,0,1-2.544-.685,4.5,4.5,0,0,1-1.7-1.947,7.024,7.024,0,0,1-.623-2.93V9.476A7.075,7.075,0,0,1,9.72,6.462a4.567,4.567,0,0,1,1.739-2.009,4.851,4.851,0,0,1,2.619-.706A4.672,4.672,0,0,1,17.3,4.831,4.527,4.527,0,0,1,18.718,7.9H16.626a2.985,2.985,0,0,0-.76-1.88,2.51,2.51,0,0,0-1.789-.577,2.452,2.452,0,0,0-2.1,1,5,5,0,0,0-.751,2.937v1.072a5.308,5.308,0,0,0,.7,2.991,2.328,2.328,0,0,0,2.054,1.03,2.715,2.715,0,0,0,1.859-.556,2.9,2.9,0,0,0,.789-1.851ZM25.84,15.12a3.128,3.128,0,0,1-2.523,1.046,2.788,2.788,0,0,1-2.212-.855,3.637,3.637,0,0,1-.751-2.474V7.019h2.017v5.794q0,1.71,1.419,1.71a1.993,1.993,0,0,0,1.984-1.054V7.019h2.017V16h-1.9Zm9.372.88a3.113,3.113,0,0,1-.232-.838,3.393,3.393,0,0,1-4.565.232,2.47,2.47,0,0,1-.855-1.909,2.55,2.55,0,0,1,1.067-2.2,5.169,5.169,0,0,1,3.051-.768h1.237V9.924a1.573,1.573,0,0,0-.39-1.116,1.547,1.547,0,0,0-1.187-.419,1.777,1.777,0,0,0-1.129.344,1.066,1.066,0,0,0-.44.876H29.75a2.239,2.239,0,0,1,.49-1.382,3.263,3.263,0,0,1,1.332-1.009,4.68,4.68,0,0,1,1.88-.365,3.769,3.769,0,0,1,2.515.793,2.827,2.827,0,0,1,.963,2.229v4.051a4.591,4.591,0,0,0,.34,1.934V16ZM33,14.547a2.294,2.294,0,0,0,1.125-.291,1.941,1.941,0,0,0,.793-.78V11.783H33.826a2.973,2.973,0,0,0-1.685.39,1.264,1.264,0,0,0-.564,1.1,1.179,1.179,0,0,0,.386.926A1.5,1.5,0,0,0,33,14.547Zm1.121-11.3h2.3l-2.3,2.515-1.619,0ZM41.188,16H39.171V3.25h2.017Zm11.463-2.44a.914.914,0,0,0-.444-.822,4.723,4.723,0,0,0-1.473-.5,7.574,7.574,0,0,1-1.718-.548,2.293,2.293,0,0,1-1.511-2.117,2.391,2.391,0,0,1,.979-1.942,3.872,3.872,0,0,1,2.49-.78,4.029,4.029,0,0,1,2.6.8,2.529,2.529,0,0,1,.992,2.067H52.552a1.243,1.243,0,0,0-.432-.967,1.654,1.654,0,0,0-1.146-.386,1.787,1.787,0,0,0-1.083.307.968.968,0,0,0-.419.822.818.818,0,0,0,.39.722,5.365,5.365,0,0,0,1.577.519,7.466,7.466,0,0,1,1.864.623,2.639,2.639,0,0,1,1,.867,2.212,2.212,0,0,1,.328,1.229,2.34,2.34,0,0,1-1,1.963A4.283,4.283,0,0,1,51,16.166a4.644,4.644,0,0,1-1.967-.4,3.238,3.238,0,0,1-1.345-1.1,2.594,2.594,0,0,1-.481-1.5h1.959a1.421,1.421,0,0,0,.54,1.1,2.1,2.1,0,0,0,1.32.386,2.04,2.04,0,0,0,1.212-.3A.938.938,0,0,0,52.652,13.56Zm7.695,2.606a4.173,4.173,0,0,1-3.109-1.208,4.381,4.381,0,0,1-1.191-3.217v-.249a5.389,5.389,0,0,1,.519-2.4,3.949,3.949,0,0,1,1.457-1.648,3.851,3.851,0,0,1,2.092-.589,3.525,3.525,0,0,1,2.835,1.17,4.949,4.949,0,0,1,1,3.312v.813H58.081a2.7,2.7,0,0,0,.743,1.76,2.23,2.23,0,0,0,1.639.647,2.731,2.731,0,0,0,2.258-1.121l1.087,1.038a3.631,3.631,0,0,1-1.44,1.249A4.509,4.509,0,0,1,60.347,16.166Zm-.241-7.695a1.7,1.7,0,0,0-1.341.581,3.012,3.012,0,0,0-.652,1.619h3.843v-.149a2.452,2.452,0,0,0-.54-1.531A1.686,1.686,0,0,0,60.106,8.471Zm10.11.39a4.991,4.991,0,0,0-.822-.066,1.85,1.85,0,0,0-1.868,1.063V16H65.51V7.019h1.926l.05,1a2.273,2.273,0,0,1,2.025-1.17,1.888,1.888,0,0,1,.714.116ZM76.608,16a3.113,3.113,0,0,1-.232-.838,3.393,3.393,0,0,1-4.565.232,2.47,2.47,0,0,1-.855-1.909,2.55,2.55,0,0,1,1.067-2.2,5.169,5.169,0,0,1,3.051-.768h1.237V9.924a1.573,1.573,0,0,0-.39-1.116,1.547,1.547,0,0,0-1.187-.419,1.777,1.777,0,0,0-1.129.344,1.066,1.066,0,0,0-.44.876H71.146a2.239,2.239,0,0,1,.49-1.382,3.263,3.263,0,0,1,1.332-1.009,4.68,4.68,0,0,1,1.88-.365,3.769,3.769,0,0,1,2.515.793,2.827,2.827,0,0,1,.963,2.229v4.051a4.591,4.591,0,0,0,.34,1.934V16Zm-2.216-1.453a2.294,2.294,0,0,0,1.125-.291,1.941,1.941,0,0,0,.793-.78V11.783H75.222a2.973,2.973,0,0,0-1.685.39,1.264,1.264,0,0,0-.564,1.1,1.179,1.179,0,0,0,.386.926A1.5,1.5,0,0,0,74.392,14.547Zm1.121-11.3h2.3l-2.3,2.515-1.619,0ZM88.627,16.166a4.173,4.173,0,0,1-3.109-1.208,4.381,4.381,0,0,1-1.191-3.217v-.249a5.389,5.389,0,0,1,.519-2.4A3.949,3.949,0,0,1,86.3,7.442,3.851,3.851,0,0,1,88.4,6.853a3.525,3.525,0,0,1,2.835,1.17,4.949,4.949,0,0,1,1,3.312v.813H86.361a2.7,2.7,0,0,0,.743,1.76,2.23,2.23,0,0,0,1.639.647A2.731,2.731,0,0,0,91,13.435l1.087,1.038a3.631,3.631,0,0,1-1.44,1.249A4.509,4.509,0,0,1,88.627,16.166Zm-.241-7.695a1.7,1.7,0,0,0-1.341.581,3.012,3.012,0,0,0-.652,1.619h3.843v-.149A2.452,2.452,0,0,0,89.7,8.99,1.686,1.686,0,0,0,88.387,8.471ZM95.94,16H93.923V3.25H95.94Z" transform="translate(-8855 -1800.814)" fill="#12263f"/>
    <path id="Trazado_605809" data-name="Trazado 605809" d="M5.229,10.5a5.141,5.141,0,0,1-.237,1.633A3.876,3.876,0,0,1,4.167,13.4l-.855.881a2.467,2.467,0,0,0-.747,1.687,1.539,1.539,0,0,0,.407,1.168,1.6,1.6,0,0,0,1.146.387,1.634,1.634,0,0,0,1.17-.416A1.451,1.451,0,0,0,5.728,16H7.745a2.986,2.986,0,0,1-1.009,2.335,3.819,3.819,0,0,1-2.6.864,3.849,3.849,0,0,1-2.648-.835A3,3,0,0,1,.548,16a4,4,0,0,1,1.287-2.725L2.6,12.5a2.305,2.305,0,0,0,.73-1.554l.017-.44ZM5.4,7.927A1.079,1.079,0,0,1,5.1,8.7a1.107,1.107,0,0,1-.843.31,1.121,1.121,0,0,1-.847-.31,1.139,1.139,0,0,1,0-1.538,1.121,1.121,0,0,1,.847-.31,1.107,1.107,0,0,1,.843.31A1.068,1.068,0,0,1,5.4,7.927Zm13.7,2.345a7.46,7.46,0,0,1-.544,2.976,4.847,4.847,0,0,1-1.523,2l2.075,1.619-1.361,1.229-2.573-2.034a5.213,5.213,0,0,1-1.087.108,4.825,4.825,0,0,1-2.611-.718A4.716,4.716,0,0,1,9.7,13.4a7.183,7.183,0,0,1-.635-3.063V9.658a7.352,7.352,0,0,1,.627-3.121,4.71,4.71,0,0,1,1.768-2.071,4.8,4.8,0,0,1,2.611-.718,4.887,4.887,0,0,1,2.635.71A4.651,4.651,0,0,1,18.469,6.5,7.336,7.336,0,0,1,19.1,9.6Zm-2.108-.631a5.248,5.248,0,0,0-.764-3.1A2.509,2.509,0,0,0,14.07,5.491a2.469,2.469,0,0,0-2.121,1.067,5.165,5.165,0,0,0-.784,3.009v.706a5.3,5.3,0,0,0,.768,3.063,2.474,2.474,0,0,0,2.154,1.1,2.478,2.478,0,0,0,2.154-1.062,5.356,5.356,0,0,0,.751-3.1Zm9.488,5.479a3.128,3.128,0,0,1-2.523,1.046,2.788,2.788,0,0,1-2.212-.855,3.637,3.637,0,0,1-.751-2.474V7.019H23.01v5.794q0,1.71,1.419,1.71a1.993,1.993,0,0,0,1.984-1.054V7.019H28.43V16h-1.9Zm7.96,1.046a4.173,4.173,0,0,1-3.109-1.208,4.381,4.381,0,0,1-1.191-3.217v-.249a5.389,5.389,0,0,1,.519-2.4,3.949,3.949,0,0,1,1.457-1.648,3.851,3.851,0,0,1,2.092-.589,3.525,3.525,0,0,1,2.835,1.17,4.949,4.949,0,0,1,1,3.312v.813H32.174a2.7,2.7,0,0,0,.743,1.76,2.23,2.23,0,0,0,1.639.647,2.731,2.731,0,0,0,2.258-1.121L37.9,14.473a3.631,3.631,0,0,1-1.44,1.249A4.509,4.509,0,0,1,34.44,16.166ZM34.2,8.471a1.7,1.7,0,0,0-1.341.581,3.012,3.012,0,0,0-.652,1.619H36.05v-.149a2.452,2.452,0,0,0-.54-1.531A1.686,1.686,0,0,0,34.2,8.471Zm.457-5.221h2.3l-2.3,2.515-1.619,0ZM46.368,4.835V7.019h1.585V8.513H46.368v5.014a1.1,1.1,0,0,0,.2.743.943.943,0,0,0,.726.228A3.107,3.107,0,0,0,48,14.415v1.561a4.968,4.968,0,0,1-1.328.191q-2.324,0-2.324-2.565V8.513H42.874V7.019h1.478V4.835ZM51.639,16H49.622V7.019h2.017ZM49.5,4.686a1.071,1.071,0,0,1,.295-.772,1.113,1.113,0,0,1,.843-.307,1.127,1.127,0,0,1,.847.307,1.062,1.062,0,0,1,.3.772,1.038,1.038,0,0,1-.3.76,1.136,1.136,0,0,1-.847.3,1.122,1.122,0,0,1-.843-.3A1.046,1.046,0,0,1,49.5,4.686Zm8.292,11.48a4.173,4.173,0,0,1-3.109-1.208,4.381,4.381,0,0,1-1.191-3.217v-.249a5.389,5.389,0,0,1,.519-2.4,3.949,3.949,0,0,1,1.457-1.648,3.851,3.851,0,0,1,2.092-.589,3.525,3.525,0,0,1,2.835,1.17,4.949,4.949,0,0,1,1,3.312v.813H55.524a2.7,2.7,0,0,0,.743,1.76,2.23,2.23,0,0,0,1.639.647,2.731,2.731,0,0,0,2.258-1.121l1.087,1.038a3.631,3.631,0,0,1-1.44,1.249A4.509,4.509,0,0,1,57.79,16.166Zm-.241-7.695a1.7,1.7,0,0,0-1.341.581,3.012,3.012,0,0,0-.652,1.619H59.4v-.149a2.452,2.452,0,0,0-.54-1.531A1.686,1.686,0,0,0,57.549,8.471Zm7.28-1.453.058,1.038a3.229,3.229,0,0,1,2.615-1.2q2.806,0,2.855,3.212V16H68.34V10.181a1.85,1.85,0,0,0-.369-1.266A1.554,1.554,0,0,0,66.763,8.5a1.944,1.944,0,0,0-1.818,1.1V16H62.928V7.019Zm11.538,9.147a4.173,4.173,0,0,1-3.109-1.208,4.381,4.381,0,0,1-1.191-3.217v-.249a5.389,5.389,0,0,1,.519-2.4,3.949,3.949,0,0,1,1.457-1.648,3.851,3.851,0,0,1,2.092-.589,3.525,3.525,0,0,1,2.835,1.17,4.949,4.949,0,0,1,1,3.312v.813H74.1a2.7,2.7,0,0,0,.743,1.76,2.23,2.23,0,0,0,1.639.647,2.731,2.731,0,0,0,2.258-1.121l1.087,1.038a3.631,3.631,0,0,1-1.44,1.249A4.509,4.509,0,0,1,76.367,16.166Zm-.241-7.695a1.7,1.7,0,0,0-1.341.581,3.012,3.012,0,0,0-.652,1.619h3.843v-.149a2.452,2.452,0,0,0-.54-1.531A1.686,1.686,0,0,0,76.126,8.471Zm12.808,4.972,1.9-6.425h2.083L89.806,16H88.055L84.917,7.019h2.092ZM99.418,16a3.113,3.113,0,0,1-.232-.838,3.393,3.393,0,0,1-4.565.232,2.47,2.47,0,0,1-.855-1.909,2.55,2.55,0,0,1,1.067-2.2,5.169,5.169,0,0,1,3.051-.768H99.12V9.924a1.573,1.573,0,0,0-.39-1.116,1.547,1.547,0,0,0-1.187-.419,1.777,1.777,0,0,0-1.129.344,1.066,1.066,0,0,0-.44.876H93.957a2.239,2.239,0,0,1,.49-1.382,3.263,3.263,0,0,1,1.332-1.009,4.68,4.68,0,0,1,1.88-.365,3.769,3.769,0,0,1,2.515.793,2.827,2.827,0,0,1,.963,2.229v4.051a4.591,4.591,0,0,0,.34,1.934V16ZM97.2,14.547a2.294,2.294,0,0,0,1.125-.291,1.941,1.941,0,0,0,.793-.78V11.783H98.032a2.973,2.973,0,0,0-1.685.39,1.264,1.264,0,0,0-.564,1.1,1.179,1.179,0,0,0,.386.926A1.5,1.5,0,0,0,97.2,14.547ZM105.4,16h-2.017V3.25H105.4Zm1.818-4.574a5.3,5.3,0,0,1,.523-2.378,3.819,3.819,0,0,1,1.469-1.627,4.14,4.14,0,0,1,2.175-.569,3.923,3.923,0,0,1,2.951,1.17,4.6,4.6,0,0,1,1.224,3.1l.008.473a5.343,5.343,0,0,1-.51,2.374,3.773,3.773,0,0,1-1.461,1.619,4.17,4.17,0,0,1-2.2.573,3.9,3.9,0,0,1-3.042-1.266,4.848,4.848,0,0,1-1.141-3.374Zm2.017.174a3.619,3.619,0,0,0,.573,2.171,1.862,1.862,0,0,0,1.594.784,1.842,1.842,0,0,0,1.59-.8,4,4,0,0,0,.569-2.333,3.572,3.572,0,0,0-.585-2.158,1.973,1.973,0,0,0-3.158-.012A3.922,3.922,0,0,0,109.23,11.6Zm12.742-2.739a4.991,4.991,0,0,0-.822-.066,1.85,1.85,0,0,0-1.868,1.063V16h-2.017V7.019h1.926l.05,1a2.273,2.273,0,0,1,2.025-1.17,1.888,1.888,0,0,1,.714.116Z" transform="translate(-8615 -1800.814)" fill="#12263f"/>
    <path id="Trazado_605813" data-name="Trazado 605813" d="M5.229,10.5a5.141,5.141,0,0,1-.237,1.633A3.876,3.876,0,0,1,4.167,13.4l-.855.881a2.467,2.467,0,0,0-.747,1.687,1.539,1.539,0,0,0,.407,1.168,1.6,1.6,0,0,0,1.146.387,1.634,1.634,0,0,0,1.17-.416A1.451,1.451,0,0,0,5.728,16H7.745a2.986,2.986,0,0,1-1.009,2.335,3.819,3.819,0,0,1-2.6.864,3.849,3.849,0,0,1-2.648-.835A3,3,0,0,1,.548,16a4,4,0,0,1,1.287-2.725L2.6,12.5a2.305,2.305,0,0,0,.73-1.554l.017-.44ZM5.4,7.927A1.079,1.079,0,0,1,5.1,8.7a1.107,1.107,0,0,1-.843.31,1.121,1.121,0,0,1-.847-.31,1.139,1.139,0,0,1,0-1.538,1.121,1.121,0,0,1,.847-.31,1.107,1.107,0,0,1,.843.31A1.068,1.068,0,0,1,5.4,7.927Zm13.323,4.138a4.364,4.364,0,0,1-1.428,3.017,4.867,4.867,0,0,1-3.312,1.083,4.713,4.713,0,0,1-2.544-.685,4.5,4.5,0,0,1-1.7-1.947,7.024,7.024,0,0,1-.623-2.93V9.476A7.075,7.075,0,0,1,9.72,6.462a4.567,4.567,0,0,1,1.739-2.009,4.851,4.851,0,0,1,2.619-.706A4.672,4.672,0,0,1,17.3,4.831,4.527,4.527,0,0,1,18.718,7.9H16.626a2.985,2.985,0,0,0-.76-1.88,2.51,2.51,0,0,0-1.789-.577,2.452,2.452,0,0,0-2.1,1,5,5,0,0,0-.751,2.937v1.072a5.308,5.308,0,0,0,.7,2.991,2.328,2.328,0,0,0,2.054,1.03,2.715,2.715,0,0,0,1.859-.556,2.9,2.9,0,0,0,.789-1.851ZM25.84,15.12a3.128,3.128,0,0,1-2.523,1.046,2.788,2.788,0,0,1-2.212-.855,3.637,3.637,0,0,1-.751-2.474V7.019h2.017v5.794q0,1.71,1.419,1.71a1.993,1.993,0,0,0,1.984-1.054V7.019h2.017V16h-1.9Zm9.372.88a3.113,3.113,0,0,1-.232-.838,3.393,3.393,0,0,1-4.565.232,2.47,2.47,0,0,1-.855-1.909,2.55,2.55,0,0,1,1.067-2.2,5.169,5.169,0,0,1,3.051-.768h1.237V9.924a1.573,1.573,0,0,0-.39-1.116,1.547,1.547,0,0,0-1.187-.419,1.777,1.777,0,0,0-1.129.344,1.066,1.066,0,0,0-.44.876H29.75a2.239,2.239,0,0,1,.49-1.382,3.263,3.263,0,0,1,1.332-1.009,4.68,4.68,0,0,1,1.88-.365,3.769,3.769,0,0,1,2.515.793,2.827,2.827,0,0,1,.963,2.229v4.051a4.591,4.591,0,0,0,.34,1.934V16ZM33,14.547a2.294,2.294,0,0,0,1.125-.291,1.941,1.941,0,0,0,.793-.78V11.783H33.826a2.973,2.973,0,0,0-1.685.39,1.264,1.264,0,0,0-.564,1.1,1.179,1.179,0,0,0,.386.926A1.5,1.5,0,0,0,33,14.547Zm1.121-11.3h2.3l-2.3,2.515-1.619,0ZM41.188,16H39.171V3.25h2.017Zm6.051-4.557A5.34,5.34,0,0,1,48.2,8.11a3.085,3.085,0,0,1,2.582-1.258,2.931,2.931,0,0,1,2.308,1V3.25h2.017V16H53.283l-.1-.93a2.973,2.973,0,0,1-2.416,1.1,3.068,3.068,0,0,1-2.552-1.27A5.535,5.535,0,0,1,47.24,11.443Zm2.017.174a3.739,3.739,0,0,0,.527,2.137,1.71,1.71,0,0,0,1.5.768,1.9,1.9,0,0,0,1.81-1.1V9.583A1.876,1.876,0,0,0,51.3,8.5a1.723,1.723,0,0,0-1.511.776A4.163,4.163,0,0,0,49.257,11.617Zm11.912,4.549a4.173,4.173,0,0,1-3.109-1.208,4.381,4.381,0,0,1-1.191-3.217v-.249a5.389,5.389,0,0,1,.519-2.4,3.949,3.949,0,0,1,1.457-1.648,3.851,3.851,0,0,1,2.092-.589,3.525,3.525,0,0,1,2.835,1.17,4.949,4.949,0,0,1,1,3.312v.813H58.9a2.7,2.7,0,0,0,.743,1.76,2.23,2.23,0,0,0,1.639.647,2.731,2.731,0,0,0,2.258-1.121l1.087,1.038a3.631,3.631,0,0,1-1.44,1.249A4.509,4.509,0,0,1,61.168,16.166Zm-.241-7.695a1.7,1.7,0,0,0-1.341.581,3.012,3.012,0,0,0-.652,1.619h3.843v-.149a2.452,2.452,0,0,0-.54-1.531A1.686,1.686,0,0,0,60.928,8.471ZM74.217,11.6a5.4,5.4,0,0,1-.934,3.329,3.042,3.042,0,0,1-2.569,1.237,2.93,2.93,0,0,1-2.457-1.137l-.1.971H66.332V3.25h2.017V7.882A2.92,2.92,0,0,1,70.7,6.853a3.077,3.077,0,0,1,2.582,1.22,5.484,5.484,0,0,1,.938,3.412ZM72.2,11.426a3.813,3.813,0,0,0-.515-2.191,1.714,1.714,0,0,0-1.494-.73A1.873,1.873,0,0,0,68.349,9.65v3.7a1.892,1.892,0,0,0,1.859,1.17,1.7,1.7,0,0,0,1.461-.706,3.7,3.7,0,0,0,.531-2.133Zm7.662,4.74a4.173,4.173,0,0,1-3.109-1.208,4.381,4.381,0,0,1-1.191-3.217v-.249a5.389,5.389,0,0,1,.519-2.4,3.949,3.949,0,0,1,1.457-1.648,3.851,3.851,0,0,1,2.092-.589,3.525,3.525,0,0,1,2.835,1.17,4.949,4.949,0,0,1,1,3.312v.813H77.6a2.7,2.7,0,0,0,.743,1.76,2.23,2.23,0,0,0,1.639.647,2.731,2.731,0,0,0,2.258-1.121l1.087,1.038a3.631,3.631,0,0,1-1.44,1.249A4.509,4.509,0,0,1,79.862,16.166Zm-.241-7.695a1.7,1.7,0,0,0-1.341.581,3.012,3.012,0,0,0-.652,1.619h3.843v-.149a2.452,2.452,0,0,0-.54-1.531A1.686,1.686,0,0,0,79.621,8.471Zm10.11.39a4.991,4.991,0,0,0-.822-.066,1.85,1.85,0,0,0-1.868,1.063V16H85.025V7.019h1.926l.05,1a2.273,2.273,0,0,1,2.025-1.17,1.888,1.888,0,0,1,.714.116ZM93.176,16H91.159V7.019h2.017ZM92.794,3.308h2.3l-2.3,2.515-1.619,0ZM100.838,16a3.113,3.113,0,0,1-.232-.838,3.393,3.393,0,0,1-4.565.232,2.47,2.47,0,0,1-.855-1.909,2.55,2.55,0,0,1,1.067-2.2,5.169,5.169,0,0,1,3.051-.768h1.237V9.924a1.573,1.573,0,0,0-.39-1.116,1.547,1.547,0,0,0-1.187-.419,1.777,1.777,0,0,0-1.129.344,1.066,1.066,0,0,0-.44.876H95.376a2.239,2.239,0,0,1,.49-1.382A3.263,3.263,0,0,1,97.2,7.218a4.68,4.68,0,0,1,1.88-.365,3.769,3.769,0,0,1,2.515.793,2.827,2.827,0,0,1,.963,2.229v4.051a4.591,4.591,0,0,0,.34,1.934V16Zm-2.216-1.453a2.294,2.294,0,0,0,1.125-.291,1.941,1.941,0,0,0,.793-.78V11.783H99.452a2.973,2.973,0,0,0-1.685.39,1.264,1.264,0,0,0-.564,1.1,1.179,1.179,0,0,0,.386.926A1.5,1.5,0,0,0,98.622,14.547Z" transform="translate(-8847.501 -1671.814)" fill="#12263f"/>
    <path id="Trazado_605812" data-name="Trazado 605812" d="M7.139,7.019,7.2,8.056a3.229,3.229,0,0,1,2.615-1.2q2.806,0,2.855,3.212V16H10.65V10.181a1.85,1.85,0,0,0-.369-1.266A1.554,1.554,0,0,0,9.073,8.5a1.944,1.944,0,0,0-1.818,1.1V16H5.238V7.019Zm11.538,9.147a4.173,4.173,0,0,1-3.109-1.208,4.381,4.381,0,0,1-1.191-3.217v-.249a5.389,5.389,0,0,1,.519-2.4,3.949,3.949,0,0,1,1.457-1.648,3.851,3.851,0,0,1,2.092-.589,3.525,3.525,0,0,1,2.835,1.17,4.949,4.949,0,0,1,1,3.312v.813H16.411a2.7,2.7,0,0,0,.743,1.76,2.23,2.23,0,0,0,1.639.647,2.731,2.731,0,0,0,2.258-1.121l1.087,1.038a3.631,3.631,0,0,1-1.44,1.249A4.509,4.509,0,0,1,18.677,16.166Zm-.241-7.695a1.7,1.7,0,0,0-1.341.581,3.012,3.012,0,0,0-.652,1.619h3.843v-.149a2.452,2.452,0,0,0-.54-1.531A1.686,1.686,0,0,0,18.436,8.471Zm5.055,2.972A5.253,5.253,0,0,1,24.475,8.1a3.157,3.157,0,0,1,2.611-1.249A2.958,2.958,0,0,1,29.5,7.923l.091-.9H31.41v8.708a3.619,3.619,0,0,1-1.1,2.789,4.189,4.189,0,0,1-2.968,1.021,4.783,4.783,0,0,1-1.93-.411,3.429,3.429,0,0,1-1.432-1.075l.955-1.212a2.883,2.883,0,0,0,2.291,1.1,2.228,2.228,0,0,0,1.585-.544,2.084,2.084,0,0,0,.581-1.6v-.606a2.97,2.97,0,0,1-2.324.971,3.15,3.15,0,0,1-2.577-1.253A5.423,5.423,0,0,1,23.491,11.443Zm2.009.174a3.616,3.616,0,0,0,.552,2.129,1.775,1.775,0,0,0,1.531.776,1.941,1.941,0,0,0,1.81-1.046V9.525A1.913,1.913,0,0,0,27.6,8.5a1.782,1.782,0,0,0-1.548.789A4.049,4.049,0,0,0,25.5,11.617Zm7.6-.191a5.3,5.3,0,0,1,.523-2.378A3.819,3.819,0,0,1,35.1,7.421a4.14,4.14,0,0,1,2.175-.569,3.923,3.923,0,0,1,2.951,1.17,4.6,4.6,0,0,1,1.224,3.1l.008.473a5.343,5.343,0,0,1-.51,2.374,3.773,3.773,0,0,1-1.461,1.619,4.17,4.17,0,0,1-2.2.573A3.9,3.9,0,0,1,34.245,14.9,4.848,4.848,0,0,1,33.1,11.526Zm2.017.174a3.619,3.619,0,0,0,.573,2.171,1.862,1.862,0,0,0,1.594.784,1.842,1.842,0,0,0,1.59-.8,4,4,0,0,0,.569-2.333,3.572,3.572,0,0,0-.585-2.158A1.973,1.973,0,0,0,35.7,9.256,3.922,3.922,0,0,0,35.121,11.6ZM46.85,14.556a1.824,1.824,0,0,0,1.253-.44,1.5,1.5,0,0,0,.531-1.087h1.9a2.963,2.963,0,0,1-.523,1.565,3.43,3.43,0,0,1-1.328,1.15,3.958,3.958,0,0,1-1.81.423,3.829,3.829,0,0,1-2.988-1.22,4.84,4.84,0,0,1-1.1-3.37v-.208a4.759,4.759,0,0,1,1.1-3.283,3.8,3.8,0,0,1,2.988-1.233,3.69,3.69,0,0,1,2.611.934,3.345,3.345,0,0,1,1.058,2.453h-1.9a1.847,1.847,0,0,0-.527-1.27,1.7,1.7,0,0,0-1.258-.5,1.775,1.775,0,0,0-1.511.71,3.621,3.621,0,0,0-.54,2.154v.324a3.682,3.682,0,0,0,.527,2.179A1.773,1.773,0,0,0,46.85,14.556ZM54.2,16H52.187V7.019H54.2ZM52.063,4.686a1.071,1.071,0,0,1,.295-.772,1.113,1.113,0,0,1,.843-.307,1.127,1.127,0,0,1,.847.307,1.062,1.062,0,0,1,.3.772,1.038,1.038,0,0,1-.3.76,1.136,1.136,0,0,1-.847.3,1.122,1.122,0,0,1-.843-.3A1.046,1.046,0,0,1,52.063,4.686Zm3.959,6.74a5.3,5.3,0,0,1,.523-2.378,3.819,3.819,0,0,1,1.469-1.627,4.14,4.14,0,0,1,2.175-.569,3.923,3.923,0,0,1,2.951,1.17,4.6,4.6,0,0,1,1.224,3.1l.008.473a5.343,5.343,0,0,1-.51,2.374A3.773,3.773,0,0,1,62.4,15.593a4.17,4.17,0,0,1-2.2.573A3.9,3.9,0,0,1,57.163,14.9a4.848,4.848,0,0,1-1.141-3.374Zm2.017.174a3.619,3.619,0,0,0,.573,2.171,1.862,1.862,0,0,0,1.594.784,1.842,1.842,0,0,0,1.59-.8,4,4,0,0,0,.569-2.333,3.572,3.572,0,0,0-.585-2.158,1.973,1.973,0,0,0-3.158-.012A3.922,3.922,0,0,0,58.039,11.6Zm9.911.855a4.663,4.663,0,0,1,.274-1.761,4.617,4.617,0,0,1,1.083-1.442,8.269,8.269,0,0,0,1.025-1.117,1.955,1.955,0,0,0,.332-1.094,1.672,1.672,0,0,0-.386-1.189,1.482,1.482,0,0,0-1.133-.41,1.631,1.631,0,0,0-1.15.4A1.406,1.406,0,0,0,67.56,6.93H65.543a2.972,2.972,0,0,1,1-2.326,3.824,3.824,0,0,1,2.6-.856,3.732,3.732,0,0,1,2.6.847,3.035,3.035,0,0,1,.934,2.368A3.877,3.877,0,0,1,71.42,9.631L70.4,10.636a2.738,2.738,0,0,0-.564,1.82Zm-.141,2.577a1.058,1.058,0,0,1,.307-.79,1.29,1.29,0,0,1,1.668.008,1.065,1.065,0,0,1,.307.781,1.046,1.046,0,0,1-.3.761,1.13,1.13,0,0,1-.847.306,1.115,1.115,0,0,1-.843-.306A1.054,1.054,0,0,1,67.809,15.033Z" transform="translate(-8842 -1778.814)" fill="#12263f"/>
    <path id="Trazado_605810" data-name="Trazado 605810" d="M8.9,11.6a5.348,5.348,0,0,1-.946,3.324,3.031,3.031,0,0,1-2.54,1.241,3.051,3.051,0,0,1-2.366-.971v4.258H1.029V7.019H2.889l.083.913A2.963,2.963,0,0,1,5.387,6.853,3.062,3.062,0,0,1,7.965,8.077a5.49,5.49,0,0,1,.934,3.4ZM6.89,11.426a3.746,3.746,0,0,0-.535-2.133A1.741,1.741,0,0,0,4.823,8.5,1.856,1.856,0,0,0,3.046,9.525V13.51a1.873,1.873,0,0,0,1.793,1.046,1.739,1.739,0,0,0,1.507-.776A4.124,4.124,0,0,0,6.89,11.426ZM15.971,16a3.113,3.113,0,0,1-.232-.838,3.14,3.14,0,0,1-2.357,1,3.169,3.169,0,0,1-2.208-.772,2.47,2.47,0,0,1-.855-1.909,2.55,2.55,0,0,1,1.067-2.2,5.169,5.169,0,0,1,3.051-.768h1.237V9.924a1.573,1.573,0,0,0-.39-1.116,1.547,1.547,0,0,0-1.187-.419,1.777,1.777,0,0,0-1.129.344,1.066,1.066,0,0,0-.44.876H10.509A2.239,2.239,0,0,1,11,8.226a3.263,3.263,0,0,1,1.332-1.009,4.68,4.68,0,0,1,1.88-.365,3.769,3.769,0,0,1,2.515.793,2.827,2.827,0,0,1,.963,2.229v4.051a4.591,4.591,0,0,0,.34,1.934V16Zm-2.216-1.453a2.294,2.294,0,0,0,1.125-.291,1.941,1.941,0,0,0,.793-.78V11.783H14.584a2.973,2.973,0,0,0-1.685.39,1.264,1.264,0,0,0-.564,1.1,1.179,1.179,0,0,0,.386.926A1.5,1.5,0,0,0,13.754,14.547ZM24.5,8.861a4.991,4.991,0,0,0-.822-.066,1.85,1.85,0,0,0-1.868,1.063V16H19.8V7.019h1.926l.05,1A2.273,2.273,0,0,1,23.8,6.853a1.888,1.888,0,0,1,.714.116ZM30.9,16a3.113,3.113,0,0,1-.232-.838,3.393,3.393,0,0,1-4.565.232,2.47,2.47,0,0,1-.855-1.909,2.55,2.55,0,0,1,1.067-2.2,5.169,5.169,0,0,1,3.051-.768H30.6V9.924a1.573,1.573,0,0,0-.39-1.116,1.547,1.547,0,0,0-1.187-.419,1.777,1.777,0,0,0-1.129.344,1.066,1.066,0,0,0-.44.876H25.434a2.239,2.239,0,0,1,.49-1.382,3.263,3.263,0,0,1,1.332-1.009,4.68,4.68,0,0,1,1.88-.365,3.769,3.769,0,0,1,2.515.793,2.827,2.827,0,0,1,.963,2.229v4.051a4.591,4.591,0,0,0,.34,1.934V16Zm-2.216-1.453a2.294,2.294,0,0,0,1.125-.291,1.941,1.941,0,0,0,.793-.78V11.783H29.509a2.973,2.973,0,0,0-1.685.39,1.264,1.264,0,0,0-.564,1.1,1.179,1.179,0,0,0,.386.926A1.5,1.5,0,0,0,28.679,14.547Zm14.236,1.619a4.173,4.173,0,0,1-3.109-1.208,4.381,4.381,0,0,1-1.191-3.217v-.249a5.389,5.389,0,0,1,.519-2.4,3.949,3.949,0,0,1,1.457-1.648,3.851,3.851,0,0,1,2.092-.589,3.525,3.525,0,0,1,2.835,1.17,4.949,4.949,0,0,1,1,3.312v.813H40.649a2.7,2.7,0,0,0,.743,1.76,2.23,2.23,0,0,0,1.639.647,2.731,2.731,0,0,0,2.258-1.121l1.087,1.038a3.631,3.631,0,0,1-1.44,1.249A4.509,4.509,0,0,1,42.915,16.166Zm-.241-7.695a1.7,1.7,0,0,0-1.341.581,3.012,3.012,0,0,0-.652,1.619h3.843v-.149a2.452,2.452,0,0,0-.54-1.531A1.686,1.686,0,0,0,42.674,8.471ZM50.228,16H48.211V3.25h2.017Zm10.119-1.444a1.824,1.824,0,0,0,1.253-.44,1.5,1.5,0,0,0,.531-1.087h1.9a2.963,2.963,0,0,1-.523,1.565,3.43,3.43,0,0,1-1.328,1.15,3.958,3.958,0,0,1-1.81.423,3.829,3.829,0,0,1-2.988-1.22,4.84,4.84,0,0,1-1.1-3.37v-.208a4.759,4.759,0,0,1,1.1-3.283,3.8,3.8,0,0,1,2.988-1.233,3.69,3.69,0,0,1,2.611.934,3.345,3.345,0,0,1,1.058,2.453h-1.9a1.847,1.847,0,0,0-.527-1.27,1.7,1.7,0,0,0-1.258-.5,1.775,1.775,0,0,0-1.511.71,3.621,3.621,0,0,0-.54,2.154v.324a3.682,3.682,0,0,0,.527,2.179A1.773,1.773,0,0,0,60.347,14.556ZM67.7,16H65.684V3.25H67.7Zm4.341,0H70.025V7.019h2.017ZM69.9,4.686a1.071,1.071,0,0,1,.295-.772,1.113,1.113,0,0,1,.843-.307,1.127,1.127,0,0,1,.847.307,1.062,1.062,0,0,1,.3.772,1.038,1.038,0,0,1-.3.76,1.136,1.136,0,0,1-.847.3,1.122,1.122,0,0,1-.843-.3A1.046,1.046,0,0,1,69.9,4.686Zm8.292,11.48a4.173,4.173,0,0,1-3.109-1.208,4.381,4.381,0,0,1-1.191-3.217v-.249a5.389,5.389,0,0,1,.519-2.4,3.949,3.949,0,0,1,1.457-1.648,3.851,3.851,0,0,1,2.092-.589A3.525,3.525,0,0,1,80.8,8.023a4.949,4.949,0,0,1,1,3.312v.813H75.927a2.7,2.7,0,0,0,.743,1.76,2.23,2.23,0,0,0,1.639.647,2.731,2.731,0,0,0,2.258-1.121l1.087,1.038a3.631,3.631,0,0,1-1.44,1.249A4.509,4.509,0,0,1,78.193,16.166Zm-.241-7.695a1.7,1.7,0,0,0-1.341.581,3.012,3.012,0,0,0-.652,1.619H79.8v-.149a2.452,2.452,0,0,0-.54-1.531A1.686,1.686,0,0,0,77.953,8.471Zm7.28-1.453.058,1.038a3.229,3.229,0,0,1,2.615-1.2q2.806,0,2.855,3.212V16H88.744V10.181a1.85,1.85,0,0,0-.369-1.266A1.554,1.554,0,0,0,87.167,8.5a1.944,1.944,0,0,0-1.818,1.1V16H83.332V7.019Zm10.11-2.183V7.019h1.585V8.513H95.343v5.014a1.1,1.1,0,0,0,.2.743.943.943,0,0,0,.726.228,3.107,3.107,0,0,0,.706-.083v1.561a4.968,4.968,0,0,1-1.328.191q-2.324,0-2.324-2.565V8.513H91.848V7.019h1.478V4.835Zm7.081,11.331a4.173,4.173,0,0,1-3.109-1.208,4.381,4.381,0,0,1-1.191-3.217v-.249a5.389,5.389,0,0,1,.519-2.4A3.949,3.949,0,0,1,100.1,7.442a3.851,3.851,0,0,1,2.092-.589,3.525,3.525,0,0,1,2.835,1.17,4.949,4.949,0,0,1,1,3.312v.813h-5.869a2.7,2.7,0,0,0,.743,1.76,2.23,2.23,0,0,0,1.639.647,2.731,2.731,0,0,0,2.258-1.121l1.087,1.038a3.631,3.631,0,0,1-1.44,1.249A4.509,4.509,0,0,1,102.423,16.166Zm-.241-7.695a1.7,1.7,0,0,0-1.341.581,3.012,3.012,0,0,0-.652,1.619h3.843v-.149a2.452,2.452,0,0,0-.54-1.531A1.686,1.686,0,0,0,102.183,8.471Zm7.28,3.984a4.663,4.663,0,0,1,.274-1.761,4.617,4.617,0,0,1,1.083-1.442,8.269,8.269,0,0,0,1.025-1.117,1.955,1.955,0,0,0,.332-1.094,1.672,1.672,0,0,0-.386-1.189,1.482,1.482,0,0,0-1.133-.41,1.631,1.631,0,0,0-1.15.4,1.406,1.406,0,0,0-.436,1.088h-2.017a2.972,2.972,0,0,1,1-2.326,3.824,3.824,0,0,1,2.6-.856,3.732,3.732,0,0,1,2.6.847,3.035,3.035,0,0,1,.934,2.368,3.877,3.877,0,0,1-1.262,2.667l-1.021,1.005a2.738,2.738,0,0,0-.564,1.82Zm-.141,2.577a1.058,1.058,0,0,1,.307-.79,1.29,1.29,0,0,1,1.668.008,1.065,1.065,0,0,1,.307.781,1.046,1.046,0,0,1-.3.761,1.13,1.13,0,0,1-.847.306,1.115,1.115,0,0,1-.843-.306A1.054,1.054,0,0,1,109.321,15.033Z" transform="translate(-8610 -1778.814)" fill="#12263f"/>
    <path id="Trazado_605814" data-name="Trazado 605814" d="M10.3,13.56a.914.914,0,0,0-.444-.822,4.723,4.723,0,0,0-1.473-.5,7.574,7.574,0,0,1-1.718-.548A2.293,2.293,0,0,1,5.155,9.575a2.391,2.391,0,0,1,.979-1.942,3.872,3.872,0,0,1,2.49-.78,4.029,4.029,0,0,1,2.6.8,2.529,2.529,0,0,1,.992,2.067H10.2a1.243,1.243,0,0,0-.432-.967,1.654,1.654,0,0,0-1.146-.386,1.787,1.787,0,0,0-1.083.307.968.968,0,0,0-.419.822.818.818,0,0,0,.39.722,5.365,5.365,0,0,0,1.577.519,7.466,7.466,0,0,1,1.864.623,2.639,2.639,0,0,1,1,.867,2.212,2.212,0,0,1,.328,1.229,2.34,2.34,0,0,1-1,1.963,4.283,4.283,0,0,1-2.631.751,4.644,4.644,0,0,1-1.967-.4,3.238,3.238,0,0,1-1.345-1.1,2.594,2.594,0,0,1-.481-1.5H6.815a1.421,1.421,0,0,0,.54,1.1,2.1,2.1,0,0,0,1.32.386,2.04,2.04,0,0,0,1.212-.3A.938.938,0,0,0,10.3,13.56ZM18,16.166a4.173,4.173,0,0,1-3.109-1.208A4.381,4.381,0,0,1,13.7,11.742v-.249a5.389,5.389,0,0,1,.519-2.4,3.949,3.949,0,0,1,1.457-1.648,3.851,3.851,0,0,1,2.092-.589A3.525,3.525,0,0,1,20.6,8.023a4.949,4.949,0,0,1,1,3.312v.813H15.73a2.7,2.7,0,0,0,.743,1.76,2.23,2.23,0,0,0,1.639.647,2.731,2.731,0,0,0,2.258-1.121l1.087,1.038a3.631,3.631,0,0,1-1.44,1.249A4.509,4.509,0,0,1,18,16.166Zm-.241-7.695a1.7,1.7,0,0,0-1.341.581,3.012,3.012,0,0,0-.652,1.619h3.843v-.149a2.452,2.452,0,0,0-.54-1.531A1.686,1.686,0,0,0,17.755,8.471Zm10.11.39a4.991,4.991,0,0,0-.822-.066,1.85,1.85,0,0,0-1.868,1.063V16H23.159V7.019h1.926l.05,1a2.273,2.273,0,0,1,2.025-1.17,1.888,1.888,0,0,1,.714.116Zm9.463,7.3a4.173,4.173,0,0,1-3.109-1.208,4.381,4.381,0,0,1-1.191-3.217v-.249a5.389,5.389,0,0,1,.519-2.4A3.949,3.949,0,0,1,35,7.442,3.851,3.851,0,0,1,37.1,6.853a3.525,3.525,0,0,1,2.835,1.17,4.949,4.949,0,0,1,1,3.312v.813H35.063a2.7,2.7,0,0,0,.743,1.76,2.23,2.23,0,0,0,1.639.647A2.731,2.731,0,0,0,39.7,13.435l1.087,1.038a3.631,3.631,0,0,1-1.44,1.249A4.509,4.509,0,0,1,37.329,16.166Zm-.241-7.695a1.7,1.7,0,0,0-1.341.581,3.012,3.012,0,0,0-.652,1.619h3.843v-.149A2.452,2.452,0,0,0,38.4,8.99,1.686,1.686,0,0,0,37.088,8.471ZM44.642,16H42.625V3.25h2.017Zm8.3-8.981L53,8.056a3.229,3.229,0,0,1,2.615-1.2q2.806,0,2.855,3.212V16H56.454V10.181a1.85,1.85,0,0,0-.369-1.266A1.554,1.554,0,0,0,54.876,8.5a1.944,1.944,0,0,0-1.818,1.1V16H51.042V7.019ZM64.48,16.166a4.173,4.173,0,0,1-3.109-1.208,4.381,4.381,0,0,1-1.191-3.217v-.249a5.389,5.389,0,0,1,.519-2.4,3.949,3.949,0,0,1,1.457-1.648,3.851,3.851,0,0,1,2.092-.589,3.525,3.525,0,0,1,2.835,1.17,4.949,4.949,0,0,1,1,3.312v.813H62.214a2.7,2.7,0,0,0,.743,1.76,2.23,2.23,0,0,0,1.639.647,2.731,2.731,0,0,0,2.258-1.121l1.087,1.038a3.631,3.631,0,0,1-1.44,1.249A4.509,4.509,0,0,1,64.48,16.166ZM64.24,8.471a1.7,1.7,0,0,0-1.341.581,3.012,3.012,0,0,0-.652,1.619h3.843v-.149a2.452,2.452,0,0,0-.54-1.531A1.686,1.686,0,0,0,64.24,8.471Zm5.055,2.972A5.253,5.253,0,0,1,70.279,8.1a3.157,3.157,0,0,1,2.611-1.249A2.958,2.958,0,0,1,75.3,7.923l.091-.9h1.818v8.708a3.619,3.619,0,0,1-1.1,2.789,4.189,4.189,0,0,1-2.968,1.021,4.783,4.783,0,0,1-1.93-.411,3.429,3.429,0,0,1-1.432-1.075l.955-1.212a2.883,2.883,0,0,0,2.291,1.1,2.228,2.228,0,0,0,1.585-.544,2.084,2.084,0,0,0,.581-1.6v-.606a2.97,2.97,0,0,1-2.324.971A3.15,3.15,0,0,1,70.3,14.913,5.423,5.423,0,0,1,69.295,11.443Zm2.009.174a3.616,3.616,0,0,0,.552,2.129,1.775,1.775,0,0,0,1.531.776,1.941,1.941,0,0,0,1.81-1.046V9.525A1.913,1.913,0,0,0,73.4,8.5a1.782,1.782,0,0,0-1.548.789A4.049,4.049,0,0,0,71.3,11.617Zm7.6-.191a5.3,5.3,0,0,1,.523-2.378A3.819,3.819,0,0,1,80.9,7.421a4.14,4.14,0,0,1,2.175-.569,3.923,3.923,0,0,1,2.951,1.17,4.6,4.6,0,0,1,1.224,3.1l.008.473a5.343,5.343,0,0,1-.51,2.374,3.773,3.773,0,0,1-1.461,1.619,4.17,4.17,0,0,1-2.2.573A3.9,3.9,0,0,1,80.049,14.9a4.848,4.848,0,0,1-1.141-3.374Zm2.017.174a3.619,3.619,0,0,0,.573,2.171,1.862,1.862,0,0,0,1.594.784,1.842,1.842,0,0,0,1.59-.8,4,4,0,0,0,.569-2.333,3.572,3.572,0,0,0-.585-2.158,1.973,1.973,0,0,0-3.158-.012A3.922,3.922,0,0,0,80.924,11.6Zm11.729,2.955a1.824,1.824,0,0,0,1.253-.44,1.5,1.5,0,0,0,.531-1.087h1.9a2.963,2.963,0,0,1-.523,1.565,3.43,3.43,0,0,1-1.328,1.15,3.958,3.958,0,0,1-1.81.423,3.829,3.829,0,0,1-2.988-1.22,4.84,4.84,0,0,1-1.1-3.37v-.208a4.759,4.759,0,0,1,1.1-3.283A3.8,3.8,0,0,1,92.67,6.853a3.69,3.69,0,0,1,2.611.934,3.345,3.345,0,0,1,1.058,2.453h-1.9a1.847,1.847,0,0,0-.527-1.27,1.7,1.7,0,0,0-1.258-.5,1.775,1.775,0,0,0-1.511.71,3.621,3.621,0,0,0-.54,2.154v.324a3.681,3.681,0,0,0,.527,2.179A1.773,1.773,0,0,0,92.653,14.556ZM100.008,16H97.991V7.019h2.017ZM97.866,4.686a1.071,1.071,0,0,1,.295-.772A1.113,1.113,0,0,1,99,3.607a1.127,1.127,0,0,1,.847.307,1.062,1.062,0,0,1,.3.772,1.038,1.038,0,0,1-.3.76,1.136,1.136,0,0,1-.847.3,1.122,1.122,0,0,1-.843-.3A1.046,1.046,0,0,1,97.866,4.686Zm3.959,6.74a5.3,5.3,0,0,1,.523-2.378,3.819,3.819,0,0,1,1.469-1.627,4.14,4.14,0,0,1,2.175-.569,3.923,3.923,0,0,1,2.951,1.17,4.6,4.6,0,0,1,1.224,3.1l.008.473a5.343,5.343,0,0,1-.51,2.374,3.773,3.773,0,0,1-1.461,1.619,4.17,4.17,0,0,1-2.2.573,3.9,3.9,0,0,1-3.042-1.266,4.848,4.848,0,0,1-1.141-3.374Zm2.017.174a3.619,3.619,0,0,0,.573,2.171,1.862,1.862,0,0,0,1.594.784,1.842,1.842,0,0,0,1.59-.8,4,4,0,0,0,.569-2.333,3.572,3.572,0,0,0-.585-2.158,1.973,1.973,0,0,0-3.158-.012A3.922,3.922,0,0,0,103.843,11.6Zm9.911.855a4.663,4.663,0,0,1,.274-1.761,4.617,4.617,0,0,1,1.083-1.442,8.269,8.269,0,0,0,1.025-1.117,1.955,1.955,0,0,0,.332-1.094,1.672,1.672,0,0,0-.386-1.189,1.482,1.482,0,0,0-1.133-.41,1.631,1.631,0,0,0-1.15.4,1.406,1.406,0,0,0-.436,1.088h-2.017a2.972,2.972,0,0,1,1-2.326,3.824,3.824,0,0,1,2.6-.856,3.732,3.732,0,0,1,2.6.847,3.035,3.035,0,0,1,.934,2.368,3.877,3.877,0,0,1-1.262,2.667L116.2,10.636a2.738,2.738,0,0,0-.564,1.82Zm-.141,2.577a1.058,1.058,0,0,1,.307-.79,1.29,1.29,0,0,1,1.668.008,1.065,1.065,0,0,1,.307.781,1.046,1.046,0,0,1-.3.761,1.13,1.13,0,0,1-.847.306,1.115,1.115,0,0,1-.843-.306A1.054,1.054,0,0,1,113.613,15.033Z" transform="translate(-8854.501 -1649.814)" fill="#12263f"/>
  </g>
</svg>
