<svg xmlns="http://www.w3.org/2000/svg" width="505" height="522" viewBox="0 0 505 522">
  <g id="Grupo_1015279" data-name="Grupo 1015279" transform="translate(857 8605)">
    <rect id="Rectángulo_45759" data-name="Rectángulo 45759" width="505" height="522" rx="10" transform="translate(-857 -8605)" fill="#e3ecf7"/>
    <path id="Trazado_601140" data-name="Trazado 601140" d="M-9117.426-4479.262v-35.672h54v-36.053" transform="translate(8326.926 -3828.065)" fill="none" stroke="#12263f" stroke-width="2" stroke-dasharray="2"/>
    <path id="Trazado_601147" data-name="Trazado 601147" d="M-9066.928-4479.262v-35.672h-50.5v-36.053" transform="translate(8637.927 -3828.013)" fill="none" stroke="#12263f" stroke-width="2" stroke-dasharray="2"/>
    <path id="Trazado_601141" data-name="Trazado 601141" d="M-9117.426-4290.392v-224.544h26.913" transform="translate(8511.115 -4028.828)" fill="none" stroke="#12263f" stroke-width="2" stroke-dasharray="2"/>
    <path id="Trazado_601143" data-name="Trazado 601143" d="M-9117.426-4514.935v20.646h37.5v25.606" transform="translate(8600.926 -3733.318)" fill="none" stroke="#12263f" stroke-width="2" stroke-dasharray="2"/>
    <path id="Trazado_601146" data-name="Trazado 601146" d="M-9086.926-4514.935v20.646h-30.5v25.606" transform="translate(8380.926 -3733.318)" fill="none" stroke="#12263f" stroke-width="2" stroke-dasharray="2"/>
    <rect id="Rectángulo_45773" data-name="Rectángulo 45773" width="199" height="93" rx="12" transform="translate(-579 -8202)" fill="#fff"/>
    <rect id="Rectángulo_45777" data-name="Rectángulo 45777" width="199" height="93" rx="12" transform="translate(-836 -8202)" fill="#fff"/>
    <rect id="Rectángulo_45765" data-name="Rectángulo 45765" width="199" height="202" rx="12" transform="translate(-836 -8581)" fill="#fff"/>
    <rect id="Rectángulo_45780" data-name="Rectángulo 45780" width="199" height="112" rx="12" transform="translate(-579 -8491)" fill="#fff"/>
    <rect id="Rectángulo_45766" data-name="Rectángulo 45766" width="199" height="70" rx="12" transform="translate(-579 -8581)" fill="#fff"/>
    <path id="Trazado_605892" data-name="Trazado 605892" d="M8.193,10.878H3.329V16h-2.1V3.914H8.907V5.607H3.329V9.2H8.193ZM12.518,16H10.5V7.019h2.017ZM10.376,4.686a1.071,1.071,0,0,1,.295-.772,1.113,1.113,0,0,1,.843-.307,1.127,1.127,0,0,1,.847.307,1.062,1.062,0,0,1,.3.772,1.038,1.038,0,0,1-.3.76,1.136,1.136,0,0,1-.847.3,1.122,1.122,0,0,1-.843-.3A1.046,1.046,0,0,1,10.376,4.686Zm6.209,2.333.058,1.038a3.229,3.229,0,0,1,2.615-1.2q2.806,0,2.855,3.212V16H20.1V10.181a1.85,1.85,0,0,0-.369-1.266A1.554,1.554,0,0,0,18.519,8.5a1.944,1.944,0,0,0-1.818,1.1V16H14.684V7.019ZM29.534,16a3.113,3.113,0,0,1-.232-.838,3.393,3.393,0,0,1-4.565.232,2.47,2.47,0,0,1-.855-1.909,2.55,2.55,0,0,1,1.067-2.2A5.169,5.169,0,0,1,28,10.513h1.237V9.924a1.573,1.573,0,0,0-.39-1.116,1.547,1.547,0,0,0-1.187-.419,1.777,1.777,0,0,0-1.129.344,1.066,1.066,0,0,0-.44.876H24.072a2.239,2.239,0,0,1,.49-1.382,3.263,3.263,0,0,1,1.332-1.009,4.68,4.68,0,0,1,1.88-.365,3.769,3.769,0,0,1,2.515.793,2.827,2.827,0,0,1,.963,2.229v4.051a4.591,4.591,0,0,0,.34,1.934V16Zm-2.216-1.453a2.294,2.294,0,0,0,1.125-.291,1.941,1.941,0,0,0,.793-.78V11.783H28.148a2.973,2.973,0,0,0-1.685.39,1.264,1.264,0,0,0-.564,1.1,1.179,1.179,0,0,0,.386.926A1.5,1.5,0,0,0,27.318,14.547ZM35.511,16H33.494V3.25h2.017ZM39.6,7.019l.058.938a3.232,3.232,0,0,1,2.59-1.1A2.483,2.483,0,0,1,44.716,8.23a3.186,3.186,0,0,1,2.756-1.378,2.8,2.8,0,0,1,2.212.822,3.618,3.618,0,0,1,.743,2.424V16H48.41V10.156A1.786,1.786,0,0,0,48.037,8.9,1.635,1.635,0,0,0,46.8,8.5a1.679,1.679,0,0,0-1.125.369,1.948,1.948,0,0,0-.61.967L45.073,16H43.056V10.09A1.439,1.439,0,0,0,41.438,8.5a1.776,1.776,0,0,0-1.718.988V16H37.7V7.019Zm16.851,9.147a4.173,4.173,0,0,1-3.109-1.208,4.381,4.381,0,0,1-1.191-3.217v-.249a5.389,5.389,0,0,1,.519-2.4,3.949,3.949,0,0,1,1.457-1.648,3.851,3.851,0,0,1,2.092-.589,3.525,3.525,0,0,1,2.835,1.17,4.949,4.949,0,0,1,1,3.312v.813H54.188a2.7,2.7,0,0,0,.743,1.76,2.23,2.23,0,0,0,1.639.647,2.731,2.731,0,0,0,2.258-1.121l1.087,1.038a3.631,3.631,0,0,1-1.44,1.249A4.509,4.509,0,0,1,56.454,16.166Zm-.241-7.695a1.7,1.7,0,0,0-1.341.581,3.012,3.012,0,0,0-.652,1.619h3.843v-.149a2.452,2.452,0,0,0-.54-1.531A1.686,1.686,0,0,0,56.213,8.471Zm7.28-1.453.058,1.038a3.229,3.229,0,0,1,2.615-1.2q2.806,0,2.855,3.212V16H67V10.181a1.85,1.85,0,0,0-.369-1.266A1.554,1.554,0,0,0,65.427,8.5a1.944,1.944,0,0,0-1.818,1.1V16H61.592V7.019ZM73.6,4.835V7.019h1.585V8.513H73.6v5.014a1.1,1.1,0,0,0,.2.743.943.943,0,0,0,.726.228,3.107,3.107,0,0,0,.706-.083v1.561a4.968,4.968,0,0,1-1.328.191q-2.324,0-2.324-2.565V8.513H70.108V7.019h1.478V4.835Zm7.081,11.331a4.173,4.173,0,0,1-3.109-1.208,4.381,4.381,0,0,1-1.191-3.217v-.249a5.389,5.389,0,0,1,.519-2.4,3.949,3.949,0,0,1,1.457-1.648,3.851,3.851,0,0,1,2.092-.589,3.525,3.525,0,0,1,2.835,1.17,4.949,4.949,0,0,1,1,3.312v.813H78.417a2.7,2.7,0,0,0,.743,1.76,2.23,2.23,0,0,0,1.639.647,2.731,2.731,0,0,0,2.258-1.121l1.087,1.038a3.631,3.631,0,0,1-1.44,1.249A4.509,4.509,0,0,1,80.684,16.166Zm-.241-7.695a1.7,1.7,0,0,0-1.341.581,3.012,3.012,0,0,0-.652,1.619h3.843v-.149a2.452,2.452,0,0,0-.54-1.531A1.686,1.686,0,0,0,80.443,8.471Zm5.694,10.251-1.087-.647a5.866,5.866,0,0,0,.66-1.316,3.926,3.926,0,0,0,.187-1.141V14.049h1.818L87.706,15.5a4.049,4.049,0,0,1-.444,1.764A4.382,4.382,0,0,1,86.137,18.723ZM96.347,4.835V7.019h1.585V8.513H96.347v5.014a1.1,1.1,0,0,0,.2.743.943.943,0,0,0,.726.228,3.107,3.107,0,0,0,.706-.083v1.561a4.968,4.968,0,0,1-1.328.191q-2.324,0-2.324-2.565V8.513H92.853V7.019H94.33V4.835Zm2.5,6.591a5.3,5.3,0,0,1,.523-2.378,3.819,3.819,0,0,1,1.469-1.627,4.14,4.14,0,0,1,2.175-.569,3.923,3.923,0,0,1,2.951,1.17,4.6,4.6,0,0,1,1.224,3.1l.008.473a5.343,5.343,0,0,1-.51,2.374,3.773,3.773,0,0,1-1.461,1.619,4.17,4.17,0,0,1-2.2.573A3.9,3.9,0,0,1,99.987,14.9a4.848,4.848,0,0,1-1.141-3.374Zm2.017.174a3.619,3.619,0,0,0,.573,2.171,1.862,1.862,0,0,0,1.594.784,1.842,1.842,0,0,0,1.59-.8,4,4,0,0,0,.569-2.333,3.572,3.572,0,0,0-.585-2.158,1.973,1.973,0,0,0-3.158-.012A3.922,3.922,0,0,0,100.863,11.6Zm7.662-.158a5.34,5.34,0,0,1,.963-3.333,3.085,3.085,0,0,1,2.582-1.258,2.931,2.931,0,0,1,2.308,1V3.25h2.017V16h-1.826l-.1-.93a2.973,2.973,0,0,1-2.416,1.1A3.068,3.068,0,0,1,109.5,14.9,5.535,5.535,0,0,1,108.524,11.443Zm2.017.174a3.739,3.739,0,0,0,.527,2.137,1.71,1.71,0,0,0,1.5.768,1.9,1.9,0,0,0,1.81-1.1V9.583A1.876,1.876,0,0,0,112.583,8.5a1.723,1.723,0,0,0-1.511.776A4.163,4.163,0,0,0,110.542,11.617Zm7.579-.191a5.3,5.3,0,0,1,.523-2.378,3.819,3.819,0,0,1,1.469-1.627,4.14,4.14,0,0,1,2.175-.569,3.923,3.923,0,0,1,2.951,1.17,4.6,4.6,0,0,1,1.224,3.1l.008.473a5.343,5.343,0,0,1-.51,2.374,3.773,3.773,0,0,1-1.461,1.619,4.17,4.17,0,0,1-2.2.573,3.9,3.9,0,0,1-3.042-1.266,4.848,4.848,0,0,1-1.141-3.374Zm2.017.174a3.619,3.619,0,0,0,.573,2.171,1.862,1.862,0,0,0,1.594.784,1.842,1.842,0,0,0,1.59-.8,4,4,0,0,0,.569-2.333,3.572,3.572,0,0,0-.585-2.158,1.973,1.973,0,0,0-3.158-.012A3.922,3.922,0,0,0,120.137,11.6ZM3.179,40H1.162V31.019H3.179ZM1.038,28.686a1.071,1.071,0,0,1,.295-.772,1.113,1.113,0,0,1,.843-.307,1.127,1.127,0,0,1,.847.307,1.062,1.062,0,0,1,.3.772,1.038,1.038,0,0,1-.3.76,1.136,1.136,0,0,1-.847.3,1.122,1.122,0,0,1-.843-.3A1.046,1.046,0,0,1,1.038,28.686Zm6.209,2.333L7.3,32.056a3.229,3.229,0,0,1,2.615-1.2q2.806,0,2.855,3.212V40H10.758V34.181a1.85,1.85,0,0,0-.369-1.266A1.554,1.554,0,0,0,9.181,32.5a1.944,1.944,0,0,0-1.818,1.1V40H5.346V31.019Zm13.4-2.167a10.962,10.962,0,0,0-1.461-.116q-1.627,0-1.627,1.527v.755h1.826v1.494H17.556V40H15.539V32.513h-1.37V31.019h1.37v-.805a3.007,3.007,0,0,1,.9-2.328,3.618,3.618,0,0,1,2.519-.809,30.331,30.331,0,0,1,3.7.4V40H20.644ZM30.331,39.12a3.128,3.128,0,0,1-2.523,1.046,2.788,2.788,0,0,1-2.212-.855,3.637,3.637,0,0,1-.751-2.474V31.019h2.017v5.794q0,1.71,1.419,1.71a1.993,1.993,0,0,0,1.984-1.054v-6.45h2.017V40h-1.9Zm7.147-2.009L39.3,31.019h2.15L37.885,41.361A2.9,2.9,0,0,1,35.1,43.627a3.6,3.6,0,0,1-.971-.15V41.909l.382.025a1.964,1.964,0,0,0,1.15-.278,1.842,1.842,0,0,0,.61-.933l.291-.771L33.4,31.019h2.175Zm8.981,3.055a4.173,4.173,0,0,1-3.109-1.208,4.381,4.381,0,0,1-1.191-3.217v-.249a5.389,5.389,0,0,1,.519-2.4,3.949,3.949,0,0,1,1.457-1.648,3.851,3.851,0,0,1,2.092-.589,3.525,3.525,0,0,1,2.835,1.17,4.949,4.949,0,0,1,1,3.312v.813H44.193a2.7,2.7,0,0,0,.743,1.76,2.23,2.23,0,0,0,1.639.647,2.731,2.731,0,0,0,2.258-1.121l1.087,1.038a3.631,3.631,0,0,1-1.44,1.249A4.509,4.509,0,0,1,46.459,40.166Zm-.241-7.695a1.7,1.7,0,0,0-1.341.581,3.012,3.012,0,0,0-.652,1.619H48.07v-.149a2.452,2.452,0,0,0-.54-1.531A1.686,1.686,0,0,0,46.219,32.471Zm6.624,5.4a1.152,1.152,0,0,1,.872.32,1.11,1.11,0,0,1,.307.8,1.071,1.071,0,0,1-.307.784,1.36,1.36,0,0,1-1.727,0A1.053,1.053,0,0,1,51.672,39a1.11,1.11,0,0,1,.307-.8A1.141,1.141,0,0,1,52.843,37.875Zm0-7.047a1.152,1.152,0,0,1,.872.32,1.11,1.11,0,0,1,.307.8,1.071,1.071,0,0,1-.307.784,1.36,1.36,0,0,1-1.727,0,1.053,1.053,0,0,1-.315-.789,1.11,1.11,0,0,1,.307-.8A1.141,1.141,0,0,1,52.843,30.828Zm11.214,7.728a1.824,1.824,0,0,0,1.253-.44,1.5,1.5,0,0,0,.531-1.087h1.9a2.963,2.963,0,0,1-.523,1.565,3.43,3.43,0,0,1-1.328,1.15,3.958,3.958,0,0,1-1.81.423,3.829,3.829,0,0,1-2.988-1.22,4.84,4.84,0,0,1-1.1-3.37v-.208a4.759,4.759,0,0,1,1.1-3.283,3.8,3.8,0,0,1,2.988-1.233,3.69,3.69,0,0,1,2.611.934,3.345,3.345,0,0,1,1.058,2.453h-1.9a1.847,1.847,0,0,0-.527-1.27,1.7,1.7,0,0,0-1.258-.5,1.775,1.775,0,0,0-1.511.71,3.621,3.621,0,0,0-.54,2.154v.324a3.682,3.682,0,0,0,.527,2.179A1.773,1.773,0,0,0,64.057,38.556Zm4.831-3.129a5.3,5.3,0,0,1,.523-2.378,3.819,3.819,0,0,1,1.469-1.627,4.14,4.14,0,0,1,2.175-.569,3.923,3.923,0,0,1,2.951,1.17,4.6,4.6,0,0,1,1.224,3.1l.008.473a5.343,5.343,0,0,1-.51,2.374,3.773,3.773,0,0,1-1.461,1.619,4.17,4.17,0,0,1-2.2.573A3.9,3.9,0,0,1,70.03,38.9a4.848,4.848,0,0,1-1.141-3.374Zm2.017.174a3.619,3.619,0,0,0,.573,2.171,1.862,1.862,0,0,0,1.594.784,1.842,1.842,0,0,0,1.59-.8,4,4,0,0,0,.569-2.333,3.572,3.572,0,0,0-.585-2.158,1.973,1.973,0,0,0-3.158-.012A3.922,3.922,0,0,0,70.905,35.6Zm9.911-4.582.058,1.038a3.229,3.229,0,0,1,2.615-1.2q2.806,0,2.855,3.212V40H84.328V34.181a1.85,1.85,0,0,0-.369-1.266A1.554,1.554,0,0,0,82.75,32.5a1.944,1.944,0,0,0-1.818,1.1V40H78.916V31.019Zm11.538,9.147a4.173,4.173,0,0,1-3.109-1.208,4.381,4.381,0,0,1-1.191-3.217v-.249a5.389,5.389,0,0,1,.519-2.4,3.949,3.949,0,0,1,1.457-1.648,3.851,3.851,0,0,1,2.092-.589,3.525,3.525,0,0,1,2.835,1.17,4.949,4.949,0,0,1,1,3.312v.813H90.088a2.7,2.7,0,0,0,.743,1.76,2.23,2.23,0,0,0,1.639.647,2.731,2.731,0,0,0,2.258-1.121l1.087,1.038a3.631,3.631,0,0,1-1.44,1.249A4.509,4.509,0,0,1,92.354,40.166Zm-.241-7.695a1.7,1.7,0,0,0-1.341.581,3.012,3.012,0,0,0-.652,1.619h3.843v-.149a2.452,2.452,0,0,0-.54-1.531A1.686,1.686,0,0,0,92.114,32.471Zm9.1,6.084a1.824,1.824,0,0,0,1.253-.44A1.5,1.5,0,0,0,103,37.028h1.9a2.963,2.963,0,0,1-.523,1.565,3.43,3.43,0,0,1-1.328,1.15,3.958,3.958,0,0,1-1.81.423,3.829,3.829,0,0,1-2.988-1.22,4.84,4.84,0,0,1-1.1-3.37v-.208a4.759,4.759,0,0,1,1.1-3.283,3.8,3.8,0,0,1,2.988-1.233,3.69,3.69,0,0,1,2.611.934,3.345,3.345,0,0,1,1.058,2.453H103a1.847,1.847,0,0,0-.527-1.27,1.7,1.7,0,0,0-1.258-.5,1.775,1.775,0,0,0-1.511.71,3.621,3.621,0,0,0-.54,2.154v.324a3.681,3.681,0,0,0,.527,2.179A1.773,1.773,0,0,0,101.211,38.556Zm7.736-9.72v2.183h1.585v1.494h-1.585v5.014a1.1,1.1,0,0,0,.2.743.943.943,0,0,0,.726.228,3.107,3.107,0,0,0,.706-.083v1.561a4.968,4.968,0,0,1-1.328.191q-2.324,0-2.324-2.565V32.513h-1.478V31.019h1.478V28.835ZM117.439,40a3.113,3.113,0,0,1-.232-.838,3.393,3.393,0,0,1-4.565.232,2.47,2.47,0,0,1-.855-1.909,2.55,2.55,0,0,1,1.067-2.2,5.169,5.169,0,0,1,3.051-.768h1.237v-.589a1.573,1.573,0,0,0-.39-1.116,1.547,1.547,0,0,0-1.187-.419,1.777,1.777,0,0,0-1.129.344,1.066,1.066,0,0,0-.44.876h-2.017a2.239,2.239,0,0,1,.49-1.382,3.263,3.263,0,0,1,1.332-1.009,4.68,4.68,0,0,1,1.88-.365,3.769,3.769,0,0,1,2.515.793,2.827,2.827,0,0,1,.963,2.229v4.051a4.591,4.591,0,0,0,.34,1.934V40Zm-2.216-1.453a2.294,2.294,0,0,0,1.125-.291,1.941,1.941,0,0,0,.793-.78V35.783h-1.087a2.973,2.973,0,0,0-1.685.39,1.264,1.264,0,0,0-.564,1.1,1.179,1.179,0,0,0,.386.926A1.5,1.5,0,0,0,115.223,38.547Zm10.75-5.686a4.992,4.992,0,0,0-.822-.066,1.85,1.85,0,0,0-1.868,1.063V40h-2.017V31.019h1.926l.05,1a2.273,2.273,0,0,1,2.025-1.17,1.888,1.888,0,0,1,.714.116ZM133.626,40h-2.017V27.25h2.017Zm1.818-4.574a5.3,5.3,0,0,1,.523-2.378,3.819,3.819,0,0,1,1.469-1.627,4.14,4.14,0,0,1,2.175-.569,3.923,3.923,0,0,1,2.951,1.17,4.6,4.6,0,0,1,1.224,3.1l.008.473a5.343,5.343,0,0,1-.51,2.374,3.773,3.773,0,0,1-1.461,1.619,4.17,4.17,0,0,1-2.2.573,3.9,3.9,0,0,1-3.042-1.266,4.848,4.848,0,0,1-1.141-3.374Zm2.017.174a3.619,3.619,0,0,0,.573,2.171,1.862,1.862,0,0,0,1.594.784,1.842,1.842,0,0,0,1.59-.8,4,4,0,0,0,.569-2.333,3.572,3.572,0,0,0-.585-2.158,1.973,1.973,0,0,0-3.158-.012A3.922,3.922,0,0,0,137.461,35.6Zm13.074,1.959a.914.914,0,0,0-.444-.822,4.723,4.723,0,0,0-1.473-.5,7.574,7.574,0,0,1-1.718-.548,2.293,2.293,0,0,1-1.511-2.117,2.391,2.391,0,0,1,.979-1.942,3.872,3.872,0,0,1,2.49-.78,4.029,4.029,0,0,1,2.6.8,2.529,2.529,0,0,1,.992,2.067h-2.017a1.243,1.243,0,0,0-.432-.967,1.654,1.654,0,0,0-1.146-.386,1.787,1.787,0,0,0-1.083.307.968.968,0,0,0-.419.822.818.818,0,0,0,.39.722,5.365,5.365,0,0,0,1.577.519,7.466,7.466,0,0,1,1.864.623,2.639,2.639,0,0,1,1,.867,2.212,2.212,0,0,1,.328,1.229,2.34,2.34,0,0,1-1,1.963,4.283,4.283,0,0,1-2.631.751,4.644,4.644,0,0,1-1.967-.4,3.238,3.238,0,0,1-1.345-1.1,2.594,2.594,0,0,1-.481-1.5h1.959a1.421,1.421,0,0,0,.54,1.1,2.1,2.1,0,0,0,1.32.386,2.04,2.04,0,0,0,1.212-.3A.938.938,0,0,0,150.535,37.56ZM2.905,55.019l.058,1.038a3.229,3.229,0,0,1,2.615-1.2q2.806,0,2.855,3.212V64H6.417V58.181a1.85,1.85,0,0,0-.369-1.266A1.554,1.554,0,0,0,4.839,56.5a1.944,1.944,0,0,0-1.818,1.1V64H1V55.019Zm13.024,8.1a3.128,3.128,0,0,1-2.523,1.046,2.788,2.788,0,0,1-2.212-.855,3.637,3.637,0,0,1-.751-2.474V55.019h2.017v5.794q0,1.71,1.419,1.71a1.993,1.993,0,0,0,1.984-1.054v-6.45H17.88V64h-1.9Zm7.96,1.046a4.173,4.173,0,0,1-3.109-1.208,4.381,4.381,0,0,1-1.191-3.217v-.249a5.389,5.389,0,0,1,.519-2.4,3.949,3.949,0,0,1,1.457-1.648,3.851,3.851,0,0,1,2.092-.589,3.525,3.525,0,0,1,2.835,1.17,4.949,4.949,0,0,1,1,3.312v.813H21.624a2.7,2.7,0,0,0,.743,1.76,2.23,2.23,0,0,0,1.639.647,2.731,2.731,0,0,0,2.258-1.121l1.087,1.038a3.631,3.631,0,0,1-1.44,1.249A4.509,4.509,0,0,1,23.89,64.166Zm-.241-7.695a1.7,1.7,0,0,0-1.341.581,3.012,3.012,0,0,0-.652,1.619H25.5v-.149a2.452,2.452,0,0,0-.54-1.531A1.686,1.686,0,0,0,23.649,56.471Zm8.467,4.972,1.9-6.425H36.1L32.987,64H31.236L28.1,55.019H30.19Zm9.089,2.723A4.173,4.173,0,0,1,38.1,62.958a4.381,4.381,0,0,1-1.191-3.217v-.249a5.389,5.389,0,0,1,.519-2.4,3.949,3.949,0,0,1,1.457-1.648,3.851,3.851,0,0,1,2.092-.589,3.525,3.525,0,0,1,2.835,1.17,4.949,4.949,0,0,1,1,3.312v.813H38.939a2.7,2.7,0,0,0,.743,1.76,2.23,2.23,0,0,0,1.639.647,2.731,2.731,0,0,0,2.258-1.121l1.087,1.038a3.631,3.631,0,0,1-1.44,1.249A4.509,4.509,0,0,1,41.205,64.166Zm-.241-7.695a1.7,1.7,0,0,0-1.341.581,3.012,3.012,0,0,0-.652,1.619h3.843v-.149a2.452,2.452,0,0,0-.54-1.531A1.686,1.686,0,0,0,40.964,56.471ZM58.471,59.6a5.348,5.348,0,0,1-.946,3.324,3.287,3.287,0,0,1-4.906.27v4.258H50.6V55.019h1.859l.083.913a2.963,2.963,0,0,1,2.416-1.079,3.062,3.062,0,0,1,2.577,1.224,5.49,5.49,0,0,1,.934,3.4Zm-2.009-.174a3.746,3.746,0,0,0-.535-2.133A1.741,1.741,0,0,0,54.4,56.5a1.856,1.856,0,0,0-1.776,1.021V61.51a1.873,1.873,0,0,0,1.793,1.046,1.739,1.739,0,0,0,1.507-.776A4.124,4.124,0,0,0,56.462,59.426ZM62.322,64H60.305V55.019h2.017ZM60.181,52.686a1.071,1.071,0,0,1,.295-.772,1.113,1.113,0,0,1,.843-.307,1.127,1.127,0,0,1,.847.307,1.062,1.062,0,0,1,.3.772,1.038,1.038,0,0,1-.3.76,1.136,1.136,0,0,1-.847.3,1.122,1.122,0,0,1-.843-.3A1.046,1.046,0,0,1,60.181,52.686ZM66.664,64H64.646V51.25h2.017Zm7.562,0a3.113,3.113,0,0,1-.232-.838,3.393,3.393,0,0,1-4.565.232,2.47,2.47,0,0,1-.855-1.909,2.55,2.55,0,0,1,1.067-2.2,5.169,5.169,0,0,1,3.051-.768h1.237v-.589a1.573,1.573,0,0,0-.39-1.116,1.547,1.547,0,0,0-1.187-.419,1.777,1.777,0,0,0-1.129.344,1.066,1.066,0,0,0-.44.876H68.764a2.239,2.239,0,0,1,.49-1.382,3.263,3.263,0,0,1,1.332-1.009,4.68,4.68,0,0,1,1.88-.365,3.769,3.769,0,0,1,2.515.793,2.827,2.827,0,0,1,.963,2.229v4.051a4.591,4.591,0,0,0,.34,1.934V64Zm-2.216-1.453a2.294,2.294,0,0,0,1.125-.291,1.941,1.941,0,0,0,.793-.78V59.783H72.839a2.973,2.973,0,0,0-1.685.39,1.264,1.264,0,0,0-.564,1.1,1.179,1.179,0,0,0,.386.926A1.5,1.5,0,0,0,72.009,62.547Zm10.75-5.686a4.992,4.992,0,0,0-.822-.066,1.85,1.85,0,0,0-1.868,1.063V64H78.052V55.019h1.926l.05,1a2.273,2.273,0,0,1,2.025-1.17,1.888,1.888,0,0,1,.714.116Zm5.072,7.3a4.173,4.173,0,0,1-3.109-1.208,4.381,4.381,0,0,1-1.191-3.217v-.249a5.389,5.389,0,0,1,.519-2.4,3.949,3.949,0,0,1,1.457-1.648,3.851,3.851,0,0,1,2.092-.589,3.525,3.525,0,0,1,2.835,1.17,4.949,4.949,0,0,1,1,3.312v.813H85.564a2.7,2.7,0,0,0,.743,1.76,2.23,2.23,0,0,0,1.639.647A2.731,2.731,0,0,0,90.2,61.435l1.087,1.038a3.631,3.631,0,0,1-1.44,1.249A4.509,4.509,0,0,1,87.831,64.166Zm-.241-7.695a1.7,1.7,0,0,0-1.341.581,3.012,3.012,0,0,0-.652,1.619h3.843v-.149a2.452,2.452,0,0,0-.54-1.531A1.686,1.686,0,0,0,87.59,56.471ZM98.032,61.56a.914.914,0,0,0-.444-.822,4.723,4.723,0,0,0-1.473-.5,7.574,7.574,0,0,1-1.718-.548,2.293,2.293,0,0,1-1.511-2.117,2.391,2.391,0,0,1,.979-1.942,3.872,3.872,0,0,1,2.49-.78,4.029,4.029,0,0,1,2.6.8,2.529,2.529,0,0,1,.992,2.067H97.933a1.243,1.243,0,0,0-.432-.967,1.654,1.654,0,0,0-1.146-.386,1.787,1.787,0,0,0-1.083.307.968.968,0,0,0-.419.822.818.818,0,0,0,.39.722,5.365,5.365,0,0,0,1.577.519,7.466,7.466,0,0,1,1.864.623,2.639,2.639,0,0,1,1,.867,2.212,2.212,0,0,1,.328,1.229,2.34,2.34,0,0,1-1,1.963,4.283,4.283,0,0,1-2.631.751,4.644,4.644,0,0,1-1.967-.4,3.238,3.238,0,0,1-1.345-1.1,2.594,2.594,0,0,1-.481-1.5h1.959a1.421,1.421,0,0,0,.54,1.1,2.1,2.1,0,0,0,1.32.386,2.04,2.04,0,0,0,1.212-.3A.938.938,0,0,0,98.032,61.56Z" transform="translate(-555 -8469)" fill="#12263f"/>
    <path id="Trazado_605890" data-name="Trazado 605890" d="M27.783,10.6H22.819v3.719h5.8V16h-7.9V3.914h7.844V5.607H22.819V8.944h4.964Zm4.225-3.586.058,1.038a3.229,3.229,0,0,1,2.615-1.2q2.806,0,2.855,3.212V16H35.519V10.181a1.85,1.85,0,0,0-.369-1.266A1.554,1.554,0,0,0,33.942,8.5a1.944,1.944,0,0,0-1.818,1.1V16H30.107V7.019Zm10.11-2.183V7.019H43.7V8.513H42.118v5.014a1.1,1.1,0,0,0,.2.743.943.943,0,0,0,.726.228,3.107,3.107,0,0,0,.706-.083v1.561a4.968,4.968,0,0,1-1.328.191q-2.324,0-2.324-2.565V8.513H38.624V7.019H40.1V4.835ZM49.2,16.166a4.173,4.173,0,0,1-3.109-1.208A4.381,4.381,0,0,1,44.9,11.742v-.249a5.389,5.389,0,0,1,.519-2.4,3.949,3.949,0,0,1,1.457-1.648,3.851,3.851,0,0,1,2.092-.589A3.525,3.525,0,0,1,51.8,8.023a4.949,4.949,0,0,1,1,3.312v.813H46.933a2.7,2.7,0,0,0,.743,1.76,2.23,2.23,0,0,0,1.639.647,2.731,2.731,0,0,0,2.258-1.121l1.087,1.038a3.631,3.631,0,0,1-1.44,1.249A4.509,4.509,0,0,1,49.2,16.166Zm-.241-7.695a1.7,1.7,0,0,0-1.341.581,3.012,3.012,0,0,0-.652,1.619h3.843v-.149a2.452,2.452,0,0,0-.54-1.531A1.686,1.686,0,0,0,48.958,8.471Zm7.28-1.453L56.3,8.056a3.229,3.229,0,0,1,2.615-1.2q2.806,0,2.855,3.212V16H59.749V10.181a1.85,1.85,0,0,0-.369-1.266A1.554,1.554,0,0,0,58.172,8.5a1.944,1.944,0,0,0-1.818,1.1V16H54.337V7.019Zm7.205,4.424a5.34,5.34,0,0,1,.963-3.333,3.085,3.085,0,0,1,2.582-1.258,2.931,2.931,0,0,1,2.308,1V3.25h2.017V16H69.486l-.1-.93a2.973,2.973,0,0,1-2.416,1.1,3.068,3.068,0,0,1-2.552-1.27A5.535,5.535,0,0,1,63.443,11.443Zm2.017.174a3.739,3.739,0,0,0,.527,2.137,1.71,1.71,0,0,0,1.5.768,1.9,1.9,0,0,0,1.81-1.1V9.583A1.876,1.876,0,0,0,67.5,8.5a1.723,1.723,0,0,0-1.511.776A4.163,4.163,0,0,0,65.46,11.617Zm11.912,4.549a4.173,4.173,0,0,1-3.109-1.208,4.381,4.381,0,0,1-1.191-3.217v-.249a5.389,5.389,0,0,1,.519-2.4,3.949,3.949,0,0,1,1.457-1.648,3.851,3.851,0,0,1,2.092-.589,3.525,3.525,0,0,1,2.835,1.17,4.949,4.949,0,0,1,1,3.312v.813H75.106a2.7,2.7,0,0,0,.743,1.76,2.23,2.23,0,0,0,1.639.647,2.731,2.731,0,0,0,2.258-1.121l1.087,1.038a3.631,3.631,0,0,1-1.44,1.249A4.509,4.509,0,0,1,77.372,16.166Zm-.241-7.695a1.7,1.7,0,0,0-1.341.581,3.012,3.012,0,0,0-.652,1.619h3.843v-.149a2.452,2.452,0,0,0-.54-1.531A1.686,1.686,0,0,0,77.131,8.471Zm10.11.39a4.991,4.991,0,0,0-.822-.066,1.85,1.85,0,0,0-1.868,1.063V16H82.535V7.019h1.926l.05,1a2.273,2.273,0,0,1,2.025-1.17,1.888,1.888,0,0,1,.714.116ZM94.895,16H92.878V3.25h2.017Zm1.818-4.574a5.3,5.3,0,0,1,.523-2.378A3.819,3.819,0,0,1,98.7,7.421a4.14,4.14,0,0,1,2.175-.569,3.923,3.923,0,0,1,2.951,1.17,4.6,4.6,0,0,1,1.224,3.1l.008.473a5.343,5.343,0,0,1-.51,2.374,3.773,3.773,0,0,1-1.461,1.619,4.17,4.17,0,0,1-2.2.573A3.9,3.9,0,0,1,97.854,14.9a4.848,4.848,0,0,1-1.141-3.374Zm2.017.174a3.619,3.619,0,0,0,.573,2.171,1.862,1.862,0,0,0,1.594.784,1.842,1.842,0,0,0,1.59-.8,4,4,0,0,0,.569-2.333,3.572,3.572,0,0,0-.585-2.158,1.973,1.973,0,0,0-3.158-.012A3.922,3.922,0,0,0,98.73,11.6ZM111.8,13.56a.914.914,0,0,0-.444-.822,4.723,4.723,0,0,0-1.473-.5,7.574,7.574,0,0,1-1.718-.548,2.293,2.293,0,0,1-1.511-2.117,2.391,2.391,0,0,1,.979-1.942,3.872,3.872,0,0,1,2.49-.78,4.029,4.029,0,0,1,2.6.8,2.529,2.529,0,0,1,.992,2.067H111.7a1.243,1.243,0,0,0-.432-.967,1.654,1.654,0,0,0-1.146-.386,1.787,1.787,0,0,0-1.083.307.968.968,0,0,0-.419.822.818.818,0,0,0,.39.722,5.365,5.365,0,0,0,1.577.519,7.466,7.466,0,0,1,1.864.623,2.639,2.639,0,0,1,1,.867,2.212,2.212,0,0,1,.328,1.229,2.34,2.34,0,0,1-1,1.963,4.283,4.283,0,0,1-2.631.751,4.644,4.644,0,0,1-1.967-.4,3.238,3.238,0,0,1-1.345-1.1,2.594,2.594,0,0,1-.481-1.5h1.959a1.421,1.421,0,0,0,.54,1.1,2.1,2.1,0,0,0,1.32.386,2.04,2.04,0,0,0,1.212-.3A.938.938,0,0,0,111.8,13.56ZM6.288,31.019l.058.938a3.232,3.232,0,0,1,2.59-1.1A2.483,2.483,0,0,1,11.4,32.23a3.186,3.186,0,0,1,2.756-1.378,2.8,2.8,0,0,1,2.212.822,3.618,3.618,0,0,1,.743,2.424V40H15.1V34.156a1.786,1.786,0,0,0-.374-1.253,1.635,1.635,0,0,0-1.237-.4,1.679,1.679,0,0,0-1.125.369,1.948,1.948,0,0,0-.61.967L11.758,40H9.741V34.09A1.439,1.439,0,0,0,8.123,32.5a1.776,1.776,0,0,0-1.718.988V40H4.387V31.019Zm16.851,9.147a4.173,4.173,0,0,1-3.109-1.208,4.381,4.381,0,0,1-1.191-3.217v-.249a5.389,5.389,0,0,1,.519-2.4,3.949,3.949,0,0,1,1.457-1.648,3.851,3.851,0,0,1,2.092-.589,3.525,3.525,0,0,1,2.835,1.17,4.949,4.949,0,0,1,1,3.312v.813H20.873a2.7,2.7,0,0,0,.743,1.76,2.23,2.23,0,0,0,1.639.647,2.731,2.731,0,0,0,2.258-1.121L26.6,38.473a3.631,3.631,0,0,1-1.44,1.249A4.509,4.509,0,0,1,23.139,40.166ZM22.9,32.471a1.7,1.7,0,0,0-1.341.581,3.012,3.012,0,0,0-.652,1.619h3.843v-.149a2.452,2.452,0,0,0-.54-1.531A1.686,1.686,0,0,0,22.9,32.471ZM32,38.556a1.824,1.824,0,0,0,1.253-.44,1.5,1.5,0,0,0,.531-1.087h1.9a2.963,2.963,0,0,1-.523,1.565,3.43,3.43,0,0,1-1.328,1.15,3.958,3.958,0,0,1-1.81.423,3.829,3.829,0,0,1-2.988-1.22,4.84,4.84,0,0,1-1.1-3.37v-.208a4.759,4.759,0,0,1,1.1-3.283,3.8,3.8,0,0,1,2.988-1.233,3.69,3.69,0,0,1,2.611.934,3.345,3.345,0,0,1,1.058,2.453h-1.9a1.847,1.847,0,0,0-.527-1.27,1.7,1.7,0,0,0-1.258-.5,1.775,1.775,0,0,0-1.511.71,3.621,3.621,0,0,0-.54,2.154v.324a3.682,3.682,0,0,0,.527,2.179A1.773,1.773,0,0,0,32,38.556ZM42.571,40a3.113,3.113,0,0,1-.232-.838,3.393,3.393,0,0,1-4.565.232,2.47,2.47,0,0,1-.855-1.909,2.55,2.55,0,0,1,1.067-2.2,5.169,5.169,0,0,1,3.051-.768h1.237v-.589a1.573,1.573,0,0,0-.39-1.116,1.547,1.547,0,0,0-1.187-.419,1.777,1.777,0,0,0-1.129.344,1.066,1.066,0,0,0-.44.876H37.109a2.239,2.239,0,0,1,.49-1.382,3.263,3.263,0,0,1,1.332-1.009,4.68,4.68,0,0,1,1.88-.365,3.769,3.769,0,0,1,2.515.793,2.827,2.827,0,0,1,.963,2.229v4.051a4.591,4.591,0,0,0,.34,1.934V40Zm-2.216-1.453a2.294,2.294,0,0,0,1.125-.291,1.941,1.941,0,0,0,.793-.78V35.783H41.185a2.973,2.973,0,0,0-1.685.39,1.264,1.264,0,0,0-.564,1.1,1.179,1.179,0,0,0,.386.926A1.5,1.5,0,0,0,40.354,38.547Zm7.919-7.529.058,1.038a3.229,3.229,0,0,1,2.615-1.2q2.806,0,2.855,3.212V40H51.785V34.181a1.85,1.85,0,0,0-.369-1.266,1.554,1.554,0,0,0-1.208-.411,1.944,1.944,0,0,0-1.818,1.1V40H46.373V31.019ZM58,40H55.985V31.019H58ZM55.86,28.686a1.07,1.07,0,0,1,.295-.772A1.113,1.113,0,0,1,57,27.607a1.127,1.127,0,0,1,.847.307,1.062,1.062,0,0,1,.3.772,1.038,1.038,0,0,1-.3.76,1.136,1.136,0,0,1-.847.3,1.122,1.122,0,0,1-.843-.3A1.046,1.046,0,0,1,55.86,28.686Zm9.372,8.874a.914.914,0,0,0-.444-.822,4.723,4.723,0,0,0-1.473-.5,7.574,7.574,0,0,1-1.718-.548,2.293,2.293,0,0,1-1.511-2.117,2.391,2.391,0,0,1,.979-1.942,3.872,3.872,0,0,1,2.49-.78,4.029,4.029,0,0,1,2.6.8,2.529,2.529,0,0,1,.992,2.067H65.132a1.243,1.243,0,0,0-.432-.967,1.654,1.654,0,0,0-1.146-.386,1.787,1.787,0,0,0-1.083.307.968.968,0,0,0-.419.822.818.818,0,0,0,.39.722,5.365,5.365,0,0,0,1.577.519,7.466,7.466,0,0,1,1.864.623,2.639,2.639,0,0,1,1,.867,2.212,2.212,0,0,1,.328,1.229,2.34,2.34,0,0,1-1,1.963,4.283,4.283,0,0,1-2.631.751,4.644,4.644,0,0,1-1.967-.4,3.238,3.238,0,0,1-1.345-1.1,2.594,2.594,0,0,1-.481-1.5h1.959a1.421,1.421,0,0,0,.54,1.1,2.1,2.1,0,0,0,1.32.386,2.04,2.04,0,0,0,1.212-.3A.938.938,0,0,0,65.232,37.56Zm5.636-6.541.058.938a3.232,3.232,0,0,1,2.59-1.1,2.483,2.483,0,0,1,2.465,1.378,3.186,3.186,0,0,1,2.756-1.378,2.8,2.8,0,0,1,2.212.822,3.618,3.618,0,0,1,.743,2.424V40H79.675V34.156A1.786,1.786,0,0,0,79.3,32.9a1.635,1.635,0,0,0-1.237-.4,1.679,1.679,0,0,0-1.125.369,1.948,1.948,0,0,0-.61.967L76.338,40H74.321V34.09A1.439,1.439,0,0,0,72.7,32.5a1.776,1.776,0,0,0-1.718.988V40H68.967V31.019Zm12.518,4.408a5.3,5.3,0,0,1,.523-2.378,3.819,3.819,0,0,1,1.469-1.627,4.14,4.14,0,0,1,2.175-.569,3.923,3.923,0,0,1,2.951,1.17,4.6,4.6,0,0,1,1.224,3.1l.008.473a5.343,5.343,0,0,1-.51,2.374,3.773,3.773,0,0,1-1.461,1.619,4.17,4.17,0,0,1-2.2.573A3.9,3.9,0,0,1,84.527,38.9a4.848,4.848,0,0,1-1.141-3.374ZM85.4,35.6a3.619,3.619,0,0,0,.573,2.171,1.862,1.862,0,0,0,1.594.784,1.842,1.842,0,0,0,1.59-.8,4,4,0,0,0,.569-2.333,3.572,3.572,0,0,0-.585-2.158,1.973,1.973,0,0,0-3.158-.012A3.922,3.922,0,0,0,85.4,35.6ZM98.477,37.56a.914.914,0,0,0-.444-.822,4.723,4.723,0,0,0-1.473-.5,7.574,7.574,0,0,1-1.718-.548,2.293,2.293,0,0,1-1.511-2.117,2.391,2.391,0,0,1,.979-1.942,3.872,3.872,0,0,1,2.49-.78,4.029,4.029,0,0,1,2.6.8,2.529,2.529,0,0,1,.992,2.067H98.377a1.243,1.243,0,0,0-.432-.967,1.654,1.654,0,0,0-1.146-.386,1.787,1.787,0,0,0-1.083.307.968.968,0,0,0-.419.822.818.818,0,0,0,.39.722,5.365,5.365,0,0,0,1.577.519,7.466,7.466,0,0,1,1.864.623,2.639,2.639,0,0,1,1,.867,2.212,2.212,0,0,1,.328,1.229,2.34,2.34,0,0,1-1,1.963,4.283,4.283,0,0,1-2.631.751,4.644,4.644,0,0,1-1.967-.4,3.238,3.238,0,0,1-1.345-1.1,2.594,2.594,0,0,1-.481-1.5H94.99a1.421,1.421,0,0,0,.54,1.1,2.1,2.1,0,0,0,1.32.386,2.04,2.04,0,0,0,1.212-.3A.938.938,0,0,0,98.477,37.56ZM114.314,35.6a5.348,5.348,0,0,1-.946,3.324,3.287,3.287,0,0,1-4.906.27v4.258h-2.017V31.019H108.3l.083.913a2.963,2.963,0,0,1,2.416-1.079,3.062,3.062,0,0,1,2.577,1.224,5.49,5.49,0,0,1,.934,3.4Zm-2.009-.174a3.746,3.746,0,0,0-.535-2.133,1.741,1.741,0,0,0-1.531-.789,1.856,1.856,0,0,0-1.776,1.021V37.51a1.873,1.873,0,0,0,1.793,1.046,1.739,1.739,0,0,0,1.507-.776A4.124,4.124,0,0,0,112.306,35.426Zm3.337,0a5.3,5.3,0,0,1,.523-2.378,3.819,3.819,0,0,1,1.469-1.627,4.14,4.14,0,0,1,2.175-.569,3.923,3.923,0,0,1,2.951,1.17,4.6,4.6,0,0,1,1.224,3.1l.008.473a5.343,5.343,0,0,1-.51,2.374,3.773,3.773,0,0,1-1.461,1.619,4.17,4.17,0,0,1-2.2.573,3.9,3.9,0,0,1-3.042-1.266,4.848,4.848,0,0,1-1.141-3.374Zm2.017.174a3.619,3.619,0,0,0,.573,2.171,1.862,1.862,0,0,0,1.594.784,1.842,1.842,0,0,0,1.59-.8,4,4,0,0,0,.569-2.333,3.572,3.572,0,0,0-.585-2.158,1.973,1.973,0,0,0-3.158-.012A3.922,3.922,0,0,0,117.66,35.6ZM130.4,32.861a4.992,4.992,0,0,0-.822-.066,1.85,1.85,0,0,0-1.868,1.063V40h-2.017V31.019h1.926l.05,1a2.273,2.273,0,0,1,2.025-1.17,1.888,1.888,0,0,1,.714.116ZM30.987,64H28.97V51.25h2.017ZM32.8,59.426a5.3,5.3,0,0,1,.523-2.378A3.819,3.819,0,0,1,34.8,55.421a4.14,4.14,0,0,1,2.175-.569,3.923,3.923,0,0,1,2.951,1.17,4.6,4.6,0,0,1,1.224,3.1l.008.473a5.343,5.343,0,0,1-.51,2.374,3.773,3.773,0,0,1-1.461,1.619,4.17,4.17,0,0,1-2.2.573A3.9,3.9,0,0,1,33.946,62.9,4.848,4.848,0,0,1,32.8,59.526Zm2.017.174a3.619,3.619,0,0,0,.573,2.171,1.862,1.862,0,0,0,1.594.784,1.842,1.842,0,0,0,1.59-.8,4,4,0,0,0,.569-2.333,3.572,3.572,0,0,0-.585-2.158,1.973,1.973,0,0,0-3.158-.012A3.922,3.922,0,0,0,34.822,59.6ZM47.9,61.56a.914.914,0,0,0-.444-.822,4.723,4.723,0,0,0-1.473-.5,7.574,7.574,0,0,1-1.718-.548,2.293,2.293,0,0,1-1.511-2.117,2.391,2.391,0,0,1,.979-1.942,3.872,3.872,0,0,1,2.49-.78,4.029,4.029,0,0,1,2.6.8,2.529,2.529,0,0,1,.992,2.067H47.8a1.243,1.243,0,0,0-.432-.967,1.654,1.654,0,0,0-1.146-.386,1.787,1.787,0,0,0-1.083.307.968.968,0,0,0-.419.822.818.818,0,0,0,.39.722,5.365,5.365,0,0,0,1.577.519,7.466,7.466,0,0,1,1.864.623,2.639,2.639,0,0,1,1,.867,2.212,2.212,0,0,1,.328,1.229,2.34,2.34,0,0,1-1,1.963,4.283,4.283,0,0,1-2.631.751,4.644,4.644,0,0,1-1.967-.4,3.238,3.238,0,0,1-1.345-1.1,2.594,2.594,0,0,1-.481-1.5h1.959a1.421,1.421,0,0,0,.54,1.1,2.1,2.1,0,0,0,1.32.386,2.04,2.04,0,0,0,1.212-.3A.938.938,0,0,0,47.9,61.56Zm7.6-2.125a5.307,5.307,0,0,1,.963-3.345,3.129,3.129,0,0,1,2.606-1.237,2.941,2.941,0,0,1,2.382,1.054l.116-.888h1.793V67.453H61.335V63.236a3.011,3.011,0,0,1-2.291.93,3.1,3.1,0,0,1-2.582-1.258A5.557,5.557,0,0,1,55.491,59.435Zm2.017.174a3.748,3.748,0,0,0,.544,2.162,1.733,1.733,0,0,0,1.507.784,1.911,1.911,0,0,0,1.776-1.021V57.451a1.912,1.912,0,0,0-1.76-.979,1.762,1.762,0,0,0-1.515.772A4.089,4.089,0,0,0,57.508,59.609ZM70.964,63.12a3.128,3.128,0,0,1-2.523,1.046,2.788,2.788,0,0,1-2.212-.855,3.637,3.637,0,0,1-.751-2.474V55.019h2.017v5.794q0,1.71,1.419,1.71A1.993,1.993,0,0,0,70.9,61.468v-6.45h2.017V64h-1.9Zm7.96,1.046a4.173,4.173,0,0,1-3.109-1.208,4.381,4.381,0,0,1-1.191-3.217v-.249a5.389,5.389,0,0,1,.519-2.4A3.949,3.949,0,0,1,76.6,55.442a3.851,3.851,0,0,1,2.092-.589,3.525,3.525,0,0,1,2.835,1.17,4.949,4.949,0,0,1,1,3.312v.813H76.658a2.7,2.7,0,0,0,.743,1.76,2.23,2.23,0,0,0,1.639.647A2.731,2.731,0,0,0,81.3,61.435l1.087,1.038a3.631,3.631,0,0,1-1.44,1.249A4.509,4.509,0,0,1,78.924,64.166Zm-.241-7.695a1.7,1.7,0,0,0-1.341.581,3.012,3.012,0,0,0-.652,1.619h3.843v-.149a2.452,2.452,0,0,0-.54-1.531A1.686,1.686,0,0,0,78.683,56.471ZM93.766,63.12a3.128,3.128,0,0,1-2.523,1.046,2.788,2.788,0,0,1-2.212-.855,3.637,3.637,0,0,1-.751-2.474V55.019H90.3v5.794q0,1.71,1.419,1.71A1.993,1.993,0,0,0,93.7,61.468v-6.45h2.017V64h-1.9Zm5.877-8.1.058,1.038a3.229,3.229,0,0,1,2.615-1.2q2.806,0,2.855,3.212V64h-2.017V58.181a1.85,1.85,0,0,0-.369-1.266,1.554,1.554,0,0,0-1.208-.411,1.944,1.944,0,0,0-1.818,1.1V64H97.742V55.019Zm-88.391,24,.058,1.038a3.229,3.229,0,0,1,2.615-1.2q2.806,0,2.855,3.212V88H14.763V82.181a1.85,1.85,0,0,0-.369-1.266,1.554,1.554,0,0,0-1.208-.411,1.944,1.944,0,0,0-1.818,1.1V88H9.351V79.019ZM22.79,88.166a4.173,4.173,0,0,1-3.109-1.208,4.381,4.381,0,0,1-1.191-3.217v-.249a5.389,5.389,0,0,1,.519-2.4,3.949,3.949,0,0,1,1.457-1.648,3.851,3.851,0,0,1,2.092-.589,3.525,3.525,0,0,1,2.835,1.17,4.949,4.949,0,0,1,1,3.312v.813H20.524a2.7,2.7,0,0,0,.743,1.76,2.23,2.23,0,0,0,1.639.647,2.731,2.731,0,0,0,2.258-1.121l1.087,1.038a3.631,3.631,0,0,1-1.44,1.249A4.509,4.509,0,0,1,22.79,88.166Zm-.241-7.695a1.7,1.7,0,0,0-1.341.581,3.012,3.012,0,0,0-.652,1.619H24.4v-.149a2.452,2.452,0,0,0-.54-1.531A1.686,1.686,0,0,0,22.549,80.471ZM27.6,83.443a5.253,5.253,0,0,1,.984-3.341A3.157,3.157,0,0,1,31.2,78.853a2.958,2.958,0,0,1,2.416,1.071l.091-.9h1.818v8.708a3.619,3.619,0,0,1-1.1,2.789,4.189,4.189,0,0,1-2.968,1.021,4.783,4.783,0,0,1-1.93-.411,3.429,3.429,0,0,1-1.432-1.075l.955-1.212a2.883,2.883,0,0,0,2.291,1.1,2.228,2.228,0,0,0,1.585-.544,2.084,2.084,0,0,0,.581-1.6v-.606a2.97,2.97,0,0,1-2.324.971A3.15,3.15,0,0,1,28.6,86.913,5.423,5.423,0,0,1,27.6,83.443Zm2.009.174a3.616,3.616,0,0,0,.552,2.129,1.775,1.775,0,0,0,1.531.776,1.941,1.941,0,0,0,1.81-1.046V81.525A1.913,1.913,0,0,0,31.713,80.5a1.782,1.782,0,0,0-1.548.789A4.049,4.049,0,0,0,29.613,83.617Zm7.6-.191a5.3,5.3,0,0,1,.523-2.378,3.819,3.819,0,0,1,1.469-1.627,4.14,4.14,0,0,1,2.175-.569,3.923,3.923,0,0,1,2.951,1.17,4.6,4.6,0,0,1,1.224,3.1l.008.473a5.343,5.343,0,0,1-.51,2.374A3.773,3.773,0,0,1,43.6,87.593a4.17,4.17,0,0,1-2.2.573A3.9,3.9,0,0,1,38.358,86.9a4.848,4.848,0,0,1-1.141-3.374Zm2.017.174a3.619,3.619,0,0,0,.573,2.171,1.862,1.862,0,0,0,1.594.784,1.842,1.842,0,0,0,1.59-.8,4,4,0,0,0,.569-2.333,3.572,3.572,0,0,0-.585-2.158,1.973,1.973,0,0,0-3.158-.012A3.922,3.922,0,0,0,39.234,83.6Zm11.729,2.955a1.824,1.824,0,0,0,1.253-.44,1.5,1.5,0,0,0,.531-1.087h1.9a2.963,2.963,0,0,1-.523,1.565,3.43,3.43,0,0,1-1.328,1.15,3.958,3.958,0,0,1-1.81.423A3.829,3.829,0,0,1,48,86.946a4.84,4.84,0,0,1-1.1-3.37v-.208a4.759,4.759,0,0,1,1.1-3.283,3.8,3.8,0,0,1,2.988-1.233,3.69,3.69,0,0,1,2.611.934,3.345,3.345,0,0,1,1.058,2.453h-1.9a1.847,1.847,0,0,0-.527-1.27,1.7,1.7,0,0,0-1.258-.5,1.775,1.775,0,0,0-1.511.71,3.621,3.621,0,0,0-.54,2.154v.324a3.682,3.682,0,0,0,.527,2.179A1.774,1.774,0,0,0,50.963,86.556ZM58.317,88H56.3V79.019h2.017ZM56.176,76.686a1.07,1.07,0,0,1,.295-.772,1.113,1.113,0,0,1,.843-.307,1.127,1.127,0,0,1,.847.307,1.062,1.062,0,0,1,.3.772,1.038,1.038,0,0,1-.3.76,1.136,1.136,0,0,1-.847.3,1.122,1.122,0,0,1-.843-.3A1.046,1.046,0,0,1,56.176,76.686Zm3.959,6.74a5.3,5.3,0,0,1,.523-2.378,3.819,3.819,0,0,1,1.469-1.627,4.14,4.14,0,0,1,2.175-.569,3.923,3.923,0,0,1,2.951,1.17,4.6,4.6,0,0,1,1.224,3.1l.008.473a5.343,5.343,0,0,1-.51,2.374,3.773,3.773,0,0,1-1.461,1.619,4.17,4.17,0,0,1-2.2.573A3.9,3.9,0,0,1,61.277,86.9a4.848,4.848,0,0,1-1.141-3.374Zm2.017.174a3.619,3.619,0,0,0,.573,2.171,1.862,1.862,0,0,0,1.594.784,1.842,1.842,0,0,0,1.59-.8,4,4,0,0,0,.569-2.333,3.572,3.572,0,0,0-.585-2.158,1.973,1.973,0,0,0-3.158-.012A3.922,3.922,0,0,0,62.152,83.6Zm11.92-.158a5.253,5.253,0,0,1,.984-3.341,3.157,3.157,0,0,1,2.611-1.249,2.958,2.958,0,0,1,2.416,1.071l.091-.9h1.818v8.708a3.619,3.619,0,0,1-1.1,2.789,4.189,4.189,0,0,1-2.968,1.021,4.783,4.783,0,0,1-1.93-.411,3.429,3.429,0,0,1-1.432-1.075l.955-1.212a2.883,2.883,0,0,0,2.291,1.1,2.228,2.228,0,0,0,1.585-.544,2.084,2.084,0,0,0,.581-1.6v-.606a2.97,2.97,0,0,1-2.324.971,3.15,3.15,0,0,1-2.577-1.253A5.423,5.423,0,0,1,74.072,83.443Zm2.009.174a3.616,3.616,0,0,0,.552,2.129,1.775,1.775,0,0,0,1.531.776,1.941,1.941,0,0,0,1.81-1.046V81.525A1.913,1.913,0,0,0,78.181,80.5a1.782,1.782,0,0,0-1.548.789A4.049,4.049,0,0,0,76.081,83.617Zm11.937,4.549a4.173,4.173,0,0,1-3.109-1.208,4.381,4.381,0,0,1-1.191-3.217v-.249a5.389,5.389,0,0,1,.519-2.4,3.949,3.949,0,0,1,1.457-1.648,3.851,3.851,0,0,1,2.092-.589,3.525,3.525,0,0,1,2.835,1.17,4.949,4.949,0,0,1,1,3.312v.813H85.751a2.7,2.7,0,0,0,.743,1.76,2.23,2.23,0,0,0,1.639.647,2.731,2.731,0,0,0,2.258-1.121l1.087,1.038a3.631,3.631,0,0,1-1.44,1.249A4.509,4.509,0,0,1,88.018,88.166Zm-.241-7.695a1.7,1.7,0,0,0-1.341.581,3.012,3.012,0,0,0-.652,1.619h3.843v-.149a2.452,2.452,0,0,0-.54-1.531A1.686,1.686,0,0,0,87.777,80.471Zm7.28-1.453.058,1.038a3.229,3.229,0,0,1,2.615-1.2q2.806,0,2.855,3.212V88H98.568V82.181a1.85,1.85,0,0,0-.369-1.266,1.554,1.554,0,0,0-1.208-.411,1.944,1.944,0,0,0-1.818,1.1V88H93.156V79.019Zm11.538,9.147a4.173,4.173,0,0,1-3.109-1.208,4.381,4.381,0,0,1-1.191-3.217v-.249a5.389,5.389,0,0,1,.519-2.4,3.949,3.949,0,0,1,1.457-1.648,3.851,3.851,0,0,1,2.092-.589,3.525,3.525,0,0,1,2.835,1.17,4.949,4.949,0,0,1,1,3.312v.813h-5.869a2.7,2.7,0,0,0,.743,1.76,2.23,2.23,0,0,0,1.639.647,2.731,2.731,0,0,0,2.258-1.121l1.087,1.038a3.631,3.631,0,0,1-1.44,1.249A4.509,4.509,0,0,1,106.595,88.166Zm-.241-7.695a1.7,1.7,0,0,0-1.341.581,3.012,3.012,0,0,0-.652,1.619h3.843v-.149a2.452,2.452,0,0,0-.54-1.531A1.686,1.686,0,0,0,106.354,80.471Zm10.11.39a4.991,4.991,0,0,0-.822-.066,1.85,1.85,0,0,0-1.868,1.063V88h-2.017V79.019h1.926l.05,1a2.273,2.273,0,0,1,2.025-1.17,1.888,1.888,0,0,1,.714.116ZM122.856,88a3.113,3.113,0,0,1-.232-.838,3.393,3.393,0,0,1-4.565.232,2.47,2.47,0,0,1-.855-1.909,2.55,2.55,0,0,1,1.067-2.2,5.169,5.169,0,0,1,3.051-.768h1.237v-.589a1.573,1.573,0,0,0-.39-1.116,1.547,1.547,0,0,0-1.187-.419,1.777,1.777,0,0,0-1.129.344,1.066,1.066,0,0,0-.44.876h-2.017a2.239,2.239,0,0,1,.49-1.382,3.263,3.263,0,0,1,1.332-1.009,4.68,4.68,0,0,1,1.88-.365,3.769,3.769,0,0,1,2.515.793,2.827,2.827,0,0,1,.963,2.229v4.051a4.591,4.591,0,0,0,.34,1.934V88Zm-2.216-1.453a2.294,2.294,0,0,0,1.125-.291,1.941,1.941,0,0,0,.793-.78V83.783H121.47a2.973,2.973,0,0,0-1.685.39,1.264,1.264,0,0,0-.564,1.1,1.179,1.179,0,0,0,.386.926A1.5,1.5,0,0,0,120.64,86.547ZM37.379,112H35.362v-8.981h2.017Zm-2.142-11.314a1.07,1.07,0,0,1,.295-.772,1.113,1.113,0,0,1,.843-.307,1.127,1.127,0,0,1,.847.307,1.062,1.062,0,0,1,.3.772,1.038,1.038,0,0,1-.3.76,1.136,1.136,0,0,1-.847.3,1.122,1.122,0,0,1-.843-.3A1.046,1.046,0,0,1,35.237,100.686Zm6.209,2.333.058,1.038a3.229,3.229,0,0,1,2.615-1.2q2.806,0,2.855,3.212V112H44.957v-5.819a1.85,1.85,0,0,0-.369-1.266,1.554,1.554,0,0,0-1.208-.411,1.944,1.944,0,0,0-1.818,1.1V112H39.545v-8.981Zm7.23,4.424a5.253,5.253,0,0,1,.984-3.341,3.157,3.157,0,0,1,2.611-1.249,2.958,2.958,0,0,1,2.416,1.071l.091-.9h1.818v8.708a3.619,3.619,0,0,1-1.1,2.789,4.189,4.189,0,0,1-2.968,1.021,4.783,4.783,0,0,1-1.93-.411,3.429,3.429,0,0,1-1.432-1.075l.955-1.212a2.883,2.883,0,0,0,2.291,1.1A2.228,2.228,0,0,0,54,113.4a2.084,2.084,0,0,0,.581-1.6v-.606a2.97,2.97,0,0,1-2.324.971,3.15,3.15,0,0,1-2.577-1.253A5.423,5.423,0,0,1,48.676,107.443Zm2.009.174a3.616,3.616,0,0,0,.552,2.129,1.775,1.775,0,0,0,1.531.776,1.941,1.941,0,0,0,1.81-1.046v-3.951a1.913,1.913,0,0,0-1.793-1.021,1.782,1.782,0,0,0-1.548.789A4.049,4.049,0,0,0,50.685,107.617Zm12.684-2.756a4.991,4.991,0,0,0-.822-.066,1.85,1.85,0,0,0-1.868,1.063V112H58.662v-8.981h1.926l.05,1a2.273,2.273,0,0,1,2.025-1.17,1.888,1.888,0,0,1,.714.116Zm5.072,7.3a4.173,4.173,0,0,1-3.109-1.208,4.381,4.381,0,0,1-1.191-3.217v-.249a5.389,5.389,0,0,1,.519-2.4,3.949,3.949,0,0,1,1.457-1.648,3.851,3.851,0,0,1,2.092-.589,3.525,3.525,0,0,1,2.835,1.17,4.949,4.949,0,0,1,1,3.312v.813H66.174a2.7,2.7,0,0,0,.743,1.76,2.23,2.23,0,0,0,1.639.647,2.731,2.731,0,0,0,2.258-1.121l1.087,1.038a3.631,3.631,0,0,1-1.44,1.249A4.509,4.509,0,0,1,68.44,112.166Zm-.241-7.695a1.7,1.7,0,0,0-1.341.581,3.012,3.012,0,0,0-.652,1.619h3.843v-.149a2.452,2.452,0,0,0-.54-1.531A1.686,1.686,0,0,0,68.2,104.471Zm10.442,5.088a.914.914,0,0,0-.444-.822,4.723,4.723,0,0,0-1.473-.5,7.574,7.574,0,0,1-1.718-.548,2.293,2.293,0,0,1-1.511-2.117,2.391,2.391,0,0,1,.979-1.942,3.872,3.872,0,0,1,2.49-.78,4.029,4.029,0,0,1,2.6.8,2.529,2.529,0,0,1,.992,2.067H78.542a1.243,1.243,0,0,0-.432-.967,1.654,1.654,0,0,0-1.146-.386,1.787,1.787,0,0,0-1.083.307.968.968,0,0,0-.419.822.818.818,0,0,0,.39.722,5.365,5.365,0,0,0,1.577.519,7.466,7.466,0,0,1,1.864.623,2.639,2.639,0,0,1,1,.867,2.212,2.212,0,0,1,.328,1.229,2.34,2.34,0,0,1-1,1.963,4.283,4.283,0,0,1-2.631.751,4.644,4.644,0,0,1-1.967-.4,3.238,3.238,0,0,1-1.345-1.1,2.594,2.594,0,0,1-.481-1.5h1.959a1.421,1.421,0,0,0,.54,1.1,2.1,2.1,0,0,0,1.32.386,2.04,2.04,0,0,0,1.212-.3A.938.938,0,0,0,78.642,109.56ZM82,107.426a5.3,5.3,0,0,1,.523-2.378A3.819,3.819,0,0,1,84,103.421a4.14,4.14,0,0,1,2.175-.569,3.923,3.923,0,0,1,2.951,1.17,4.6,4.6,0,0,1,1.224,3.1l.008.473a5.343,5.343,0,0,1-.51,2.374,3.773,3.773,0,0,1-1.461,1.619,4.17,4.17,0,0,1-2.2.573,3.9,3.9,0,0,1-3.042-1.266A4.848,4.848,0,0,1,82,107.526Zm2.017.174a3.619,3.619,0,0,0,.573,2.171,1.862,1.862,0,0,0,1.594.784,1.842,1.842,0,0,0,1.59-.8,4,4,0,0,0,.569-2.333,3.572,3.572,0,0,0-.585-2.158,1.973,1.973,0,0,0-3.158-.012A3.922,3.922,0,0,0,84.021,107.6Zm13.074,1.959a.914.914,0,0,0-.444-.822,4.723,4.723,0,0,0-1.473-.5,7.574,7.574,0,0,1-1.718-.548,2.293,2.293,0,0,1-1.511-2.117,2.391,2.391,0,0,1,.979-1.942,3.872,3.872,0,0,1,2.49-.78,4.029,4.029,0,0,1,2.6.8,2.529,2.529,0,0,1,.992,2.067H96.995a1.243,1.243,0,0,0-.432-.967,1.654,1.654,0,0,0-1.146-.386,1.787,1.787,0,0,0-1.083.307.968.968,0,0,0-.419.822.818.818,0,0,0,.39.722,5.365,5.365,0,0,0,1.577.519,7.466,7.466,0,0,1,1.864.623,2.639,2.639,0,0,1,1,.867,2.212,2.212,0,0,1,.328,1.229,2.34,2.34,0,0,1-1,1.963,4.283,4.283,0,0,1-2.631.751,4.644,4.644,0,0,1-1.967-.4,3.238,3.238,0,0,1-1.345-1.1,2.594,2.594,0,0,1-.481-1.5h1.959a1.421,1.421,0,0,0,.54,1.1,2.1,2.1,0,0,0,1.32.386,2.04,2.04,0,0,0,1.212-.3A.938.938,0,0,0,97.094,109.56ZM22.674,131.086a12.649,12.649,0,0,1,.515-3.64,9.991,9.991,0,0,1,1.511-3.08,6,6,0,0,1,2.108-1.905l.4,1.179a6.162,6.162,0,0,0-1.9,2.71,12.138,12.138,0,0,0-.793,4.171l-.008.714a13.2,13.2,0,0,0,.71,4.487,6.613,6.613,0,0,0,1.988,3l-.4,1.121A6.009,6.009,0,0,1,24.7,137.93a9.989,9.989,0,0,1-1.511-3.08A13.148,13.148,0,0,1,22.674,131.086Zm13.779.515a5.4,5.4,0,0,1-.934,3.329,3.042,3.042,0,0,1-2.569,1.237,2.93,2.93,0,0,1-2.457-1.137l-.1.971H28.567V123.25h2.017v4.632a2.92,2.92,0,0,1,2.349-1.029,3.077,3.077,0,0,1,2.582,1.22,5.484,5.484,0,0,1,.938,3.412Zm-2.017-.174a3.813,3.813,0,0,0-.515-2.191,1.714,1.714,0,0,0-1.494-.73,1.873,1.873,0,0,0-1.843,1.146v3.7a1.892,1.892,0,0,0,1.859,1.17,1.7,1.7,0,0,0,1.461-.706,3.7,3.7,0,0,0,.531-2.133Zm7.662,4.74a4.173,4.173,0,0,1-3.109-1.208,4.381,4.381,0,0,1-1.191-3.217v-.249a5.389,5.389,0,0,1,.519-2.4,3.949,3.949,0,0,1,1.457-1.648,3.851,3.851,0,0,1,2.092-.589,3.525,3.525,0,0,1,2.835,1.17,4.949,4.949,0,0,1,1,3.312v.813H39.832a2.7,2.7,0,0,0,.743,1.76,2.23,2.23,0,0,0,1.639.647,2.731,2.731,0,0,0,2.258-1.121l1.087,1.038a3.631,3.631,0,0,1-1.44,1.249A4.509,4.509,0,0,1,42.1,136.166Zm-.241-7.695a1.7,1.7,0,0,0-1.341.581,3.012,3.012,0,0,0-.652,1.619h3.843v-.149a2.452,2.452,0,0,0-.54-1.531A1.686,1.686,0,0,0,41.857,128.471Zm7.28-1.453.058,1.038a3.229,3.229,0,0,1,2.615-1.2q2.806,0,2.855,3.212V136H52.648v-5.819a1.85,1.85,0,0,0-.369-1.266,1.554,1.554,0,0,0-1.208-.411,1.944,1.944,0,0,0-1.818,1.1V136H47.236v-8.981Zm11.538,9.147a4.173,4.173,0,0,1-3.109-1.208,4.381,4.381,0,0,1-1.191-3.217v-.249a5.389,5.389,0,0,1,.519-2.4,3.949,3.949,0,0,1,1.457-1.648,3.851,3.851,0,0,1,2.092-.589,3.525,3.525,0,0,1,2.835,1.17,4.949,4.949,0,0,1,1,3.312v.813H58.409a2.7,2.7,0,0,0,.743,1.76,2.23,2.23,0,0,0,1.639.647,2.731,2.731,0,0,0,2.258-1.121l1.087,1.038a3.631,3.631,0,0,1-1.44,1.249A4.509,4.509,0,0,1,60.675,136.166Zm-.241-7.695a1.7,1.7,0,0,0-1.341.581,3.012,3.012,0,0,0-.652,1.619h3.843v-.149a2.452,2.452,0,0,0-.54-1.531A1.686,1.686,0,0,0,60.434,128.471ZM66.377,136v-7.487h-1.37v-1.494h1.37V126.4a3.593,3.593,0,0,1,.448-1.81,2.788,2.788,0,0,1,1.245-1.137A4.482,4.482,0,0,1,70,123.076a5.638,5.638,0,0,1,1.274.141q.61.141,1.266.357l-.307,1.668a6.421,6.421,0,0,0-2.092-.4,1.869,1.869,0,0,0-1.336.4,1.61,1.61,0,0,0-.415,1.208v.564h1.768v1.494H68.395V136Zm7.122,0H71.482v-8.981H73.5Zm5.927-1.444a1.824,1.824,0,0,0,1.253-.44,1.5,1.5,0,0,0,.531-1.087h1.9a2.963,2.963,0,0,1-.523,1.565,3.43,3.43,0,0,1-1.328,1.15,3.958,3.958,0,0,1-1.81.423,3.829,3.829,0,0,1-2.988-1.22,4.84,4.84,0,0,1-1.1-3.37v-.208a4.759,4.759,0,0,1,1.1-3.283,3.8,3.8,0,0,1,2.988-1.233,3.69,3.69,0,0,1,2.611.934,3.345,3.345,0,0,1,1.058,2.453h-1.9a1.847,1.847,0,0,0-.527-1.27,1.7,1.7,0,0,0-1.258-.5,1.775,1.775,0,0,0-1.511.71,3.621,3.621,0,0,0-.54,2.154v.324a3.682,3.682,0,0,0,.527,2.179A1.773,1.773,0,0,0,79.426,134.556ZM86.781,136H84.764v-8.981h2.017Zm-2.142-11.314a1.071,1.071,0,0,1,.295-.772,1.113,1.113,0,0,1,.843-.307,1.127,1.127,0,0,1,.847.307,1.062,1.062,0,0,1,.3.772,1.038,1.038,0,0,1-.3.76,1.136,1.136,0,0,1-.847.3,1.122,1.122,0,0,1-.843-.3A1.046,1.046,0,0,1,84.639,124.686Zm3.959,6.74a5.3,5.3,0,0,1,.523-2.378,3.819,3.819,0,0,1,1.469-1.627,4.14,4.14,0,0,1,2.175-.569,3.923,3.923,0,0,1,2.951,1.17,4.6,4.6,0,0,1,1.224,3.1l.008.473a5.343,5.343,0,0,1-.51,2.374,3.773,3.773,0,0,1-1.461,1.619,4.17,4.17,0,0,1-2.2.573A3.9,3.9,0,0,1,89.74,134.9a4.848,4.848,0,0,1-1.141-3.374Zm2.017.174a3.619,3.619,0,0,0,.573,2.171,1.862,1.862,0,0,0,1.594.784,1.842,1.842,0,0,0,1.59-.8,4,4,0,0,0,.569-2.333,3.572,3.572,0,0,0-.585-2.158,1.973,1.973,0,0,0-3.158-.012A3.922,3.922,0,0,0,90.616,131.6Zm13.074,1.959a.914.914,0,0,0-.444-.822,4.723,4.723,0,0,0-1.473-.5,7.574,7.574,0,0,1-1.718-.548,2.293,2.293,0,0,1-1.511-2.117,2.391,2.391,0,0,1,.979-1.942,3.872,3.872,0,0,1,2.49-.78,4.029,4.029,0,0,1,2.6.8,2.529,2.529,0,0,1,.992,2.067H103.59a1.243,1.243,0,0,0-.432-.967,1.654,1.654,0,0,0-1.146-.386,1.787,1.787,0,0,0-1.083.307.968.968,0,0,0-.419.822.818.818,0,0,0,.39.722,5.365,5.365,0,0,0,1.577.519,7.466,7.466,0,0,1,1.864.623,2.639,2.639,0,0,1,1,.867,2.212,2.212,0,0,1,.328,1.229,2.34,2.34,0,0,1-1,1.963,4.283,4.283,0,0,1-2.631.751,4.644,4.644,0,0,1-1.967-.4,3.238,3.238,0,0,1-1.345-1.1,2.594,2.594,0,0,1-.481-1.5H100.2a1.421,1.421,0,0,0,.54,1.1,2.1,2.1,0,0,0,1.32.386,2.04,2.04,0,0,0,1.212-.3A.938.938,0,0,0,103.689,133.56Zm7.628-2.341a12.489,12.489,0,0,1-.506,3.557,10.078,10.078,0,0,1-1.536,3.121,6.014,6.014,0,0,1-2.15,1.947l-.4-1.121a6.379,6.379,0,0,0,1.971-2.943,13.071,13.071,0,0,0,.726-4.52v-.191a13.264,13.264,0,0,0-.631-4.2,7.416,7.416,0,0,0-1.81-3.042l-.257-.232.4-1.129a5.951,5.951,0,0,1,2.059,1.826,9.909,9.909,0,0,1,1.527,2.934,12.223,12.223,0,0,1,.6,3.349Z" transform="translate(-803 -8550)" fill="#12263f"/>
    <path id="Trazado_605891" data-name="Trazado 605891" d="M10.833,10.272a7.46,7.46,0,0,1-.544,2.976,4.847,4.847,0,0,1-1.523,2l2.075,1.619L9.479,18.092,6.906,16.058a5.213,5.213,0,0,1-1.087.108,4.825,4.825,0,0,1-2.611-.718A4.716,4.716,0,0,1,1.432,13.4,7.183,7.183,0,0,1,.8,10.339V9.658a7.351,7.351,0,0,1,.627-3.121A4.71,4.71,0,0,1,3.192,4.466,4.8,4.8,0,0,1,5.8,3.748a4.887,4.887,0,0,1,2.635.71A4.65,4.65,0,0,1,10.2,6.5a7.336,7.336,0,0,1,.631,3.1ZM8.724,9.642a5.248,5.248,0,0,0-.764-3.1A2.509,2.509,0,0,0,5.8,5.491,2.469,2.469,0,0,0,3.681,6.558,5.165,5.165,0,0,0,2.9,9.567v.706a5.3,5.3,0,0,0,.768,3.063,2.474,2.474,0,0,0,2.154,1.1,2.478,2.478,0,0,0,2.154-1.062,5.356,5.356,0,0,0,.751-3.1Zm9.488,5.479a3.128,3.128,0,0,1-2.523,1.046,2.788,2.788,0,0,1-2.212-.855,3.637,3.637,0,0,1-.751-2.474V7.019h2.017v5.794q0,1.71,1.419,1.71a1.993,1.993,0,0,0,1.984-1.054V7.019h2.017V16h-1.9Zm7.96,1.046a4.173,4.173,0,0,1-3.109-1.208,4.381,4.381,0,0,1-1.191-3.217v-.249a5.389,5.389,0,0,1,.519-2.4,3.949,3.949,0,0,1,1.457-1.648,3.851,3.851,0,0,1,2.092-.589,3.525,3.525,0,0,1,2.835,1.17,4.949,4.949,0,0,1,1,3.312v.813H23.906a2.7,2.7,0,0,0,.743,1.76,2.23,2.23,0,0,0,1.639.647,2.731,2.731,0,0,0,2.258-1.121l1.087,1.038a3.631,3.631,0,0,1-1.44,1.249A4.509,4.509,0,0,1,26.172,16.166Zm-.241-7.695a1.7,1.7,0,0,0-1.341.581,3.012,3.012,0,0,0-.652,1.619h3.843v-.149a2.452,2.452,0,0,0-.54-1.531A1.686,1.686,0,0,0,25.932,8.471Zm.457-5.221h2.3l-2.3,2.515-1.619,0ZM37.561,8a3.157,3.157,0,0,1,2.5-1.146q2.872,0,2.914,3.279V16H40.956V10.206a1.773,1.773,0,0,0-.4-1.316A1.646,1.646,0,0,0,39.371,8.5a1.943,1.943,0,0,0-1.81,1.079V16H35.544V3.25h2.017Zm12.816,8a3.113,3.113,0,0,1-.232-.838,3.393,3.393,0,0,1-4.565.232,2.47,2.47,0,0,1-.855-1.909,2.55,2.55,0,0,1,1.067-2.2,5.169,5.169,0,0,1,3.051-.768h1.237V9.924a1.573,1.573,0,0,0-.39-1.116A1.547,1.547,0,0,0,48.5,8.388a1.777,1.777,0,0,0-1.129.344,1.066,1.066,0,0,0-.44.876H44.916a2.239,2.239,0,0,1,.49-1.382,3.263,3.263,0,0,1,1.332-1.009,4.68,4.68,0,0,1,1.88-.365,3.769,3.769,0,0,1,2.515.793A2.827,2.827,0,0,1,52.1,9.874v4.051a4.591,4.591,0,0,0,.34,1.934V16Zm-2.216-1.453a2.294,2.294,0,0,0,1.125-.291,1.941,1.941,0,0,0,.793-.78V11.783H48.991a2.973,2.973,0,0,0-1.685.39,1.264,1.264,0,0,0-.564,1.1,1.179,1.179,0,0,0,.386.926A1.5,1.5,0,0,0,48.161,14.547Zm9.737.008a1.824,1.824,0,0,0,1.253-.44,1.5,1.5,0,0,0,.531-1.087h1.9a2.963,2.963,0,0,1-.523,1.565,3.43,3.43,0,0,1-1.328,1.15,3.958,3.958,0,0,1-1.81.423,3.829,3.829,0,0,1-2.988-1.22,4.84,4.84,0,0,1-1.1-3.37v-.208a4.759,4.759,0,0,1,1.1-3.283,3.8,3.8,0,0,1,2.988-1.233,3.69,3.69,0,0,1,2.611.934,3.345,3.345,0,0,1,1.058,2.453h-1.9a1.847,1.847,0,0,0-.527-1.27,1.7,1.7,0,0,0-1.258-.5,1.775,1.775,0,0,0-1.511.71,3.621,3.621,0,0,0-.54,2.154v.324a3.682,3.682,0,0,0,.527,2.179A1.773,1.773,0,0,0,57.9,14.556Zm9.164,1.61a4.173,4.173,0,0,1-3.109-1.208,4.381,4.381,0,0,1-1.191-3.217v-.249a5.389,5.389,0,0,1,.519-2.4,3.949,3.949,0,0,1,1.457-1.648,3.851,3.851,0,0,1,2.092-.589,3.525,3.525,0,0,1,2.835,1.17,4.949,4.949,0,0,1,1,3.312v.813H64.8a2.7,2.7,0,0,0,.743,1.76,2.23,2.23,0,0,0,1.639.647,2.731,2.731,0,0,0,2.258-1.121l1.087,1.038a3.631,3.631,0,0,1-1.44,1.249A4.509,4.509,0,0,1,67.062,16.166Zm-.241-7.695a1.7,1.7,0,0,0-1.341.581,3.012,3.012,0,0,0-.652,1.619h3.843v-.149a2.452,2.452,0,0,0-.54-1.531A1.686,1.686,0,0,0,66.821,8.471ZM78.608,16H76.591V3.25h2.017Zm7.562,0a3.113,3.113,0,0,1-.232-.838,3.393,3.393,0,0,1-4.565.232,2.47,2.47,0,0,1-.855-1.909,2.55,2.55,0,0,1,1.067-2.2,5.169,5.169,0,0,1,3.051-.768h1.237V9.924a1.573,1.573,0,0,0-.39-1.116,1.547,1.547,0,0,0-1.187-.419,1.777,1.777,0,0,0-1.129.344,1.066,1.066,0,0,0-.44.876H80.708a2.239,2.239,0,0,1,.49-1.382,3.263,3.263,0,0,1,1.332-1.009,4.68,4.68,0,0,1,1.88-.365,3.769,3.769,0,0,1,2.515.793,2.827,2.827,0,0,1,.963,2.229v4.051a4.591,4.591,0,0,0,.34,1.934V16Zm-2.216-1.453a2.294,2.294,0,0,0,1.125-.291,1.941,1.941,0,0,0,.793-.78V11.783H84.784a2.973,2.973,0,0,0-1.685.39,1.264,1.264,0,0,0-.564,1.1,1.179,1.179,0,0,0,.386.926A1.5,1.5,0,0,0,83.954,14.547ZM96.131,7.019l.058.938a3.232,3.232,0,0,1,2.59-1.1,2.483,2.483,0,0,1,2.465,1.378A3.186,3.186,0,0,1,104,6.853a2.8,2.8,0,0,1,2.212.822,3.618,3.618,0,0,1,.743,2.424V16h-2.017V10.156a1.786,1.786,0,0,0-.374-1.253,1.635,1.635,0,0,0-1.237-.4,1.679,1.679,0,0,0-1.125.369,1.948,1.948,0,0,0-.61.967L101.6,16H99.584V10.09A1.439,1.439,0,0,0,97.966,8.5a1.776,1.776,0,0,0-1.718.988V16H94.23V7.019ZM114.393,16a3.113,3.113,0,0,1-.232-.838,3.393,3.393,0,0,1-4.565.232,2.47,2.47,0,0,1-.855-1.909,2.55,2.55,0,0,1,1.067-2.2,5.169,5.169,0,0,1,3.051-.768h1.237V9.924a1.573,1.573,0,0,0-.39-1.116,1.547,1.547,0,0,0-1.187-.419,1.777,1.777,0,0,0-1.129.344,1.066,1.066,0,0,0-.44.876h-2.017a2.239,2.239,0,0,1,.49-1.382,3.263,3.263,0,0,1,1.332-1.009,4.68,4.68,0,0,1,1.88-.365,3.769,3.769,0,0,1,2.515.793,2.827,2.827,0,0,1,.963,2.229v4.051a4.591,4.591,0,0,0,.34,1.934V16Zm-2.216-1.453a2.294,2.294,0,0,0,1.125-.291,1.941,1.941,0,0,0,.793-.78V11.783h-1.087a2.973,2.973,0,0,0-1.685.39,1.264,1.264,0,0,0-.564,1.1,1.179,1.179,0,0,0,.386.926A1.5,1.5,0,0,0,112.177,14.547Zm10.75-5.686a4.991,4.991,0,0,0-.822-.066,1.85,1.85,0,0,0-1.868,1.063V16H118.22V7.019h1.926l.05,1a2.273,2.273,0,0,1,2.025-1.17,1.888,1.888,0,0,1,.714.116Zm4.806,5.694a1.824,1.824,0,0,0,1.253-.44,1.5,1.5,0,0,0,.531-1.087h1.9a2.963,2.963,0,0,1-.523,1.565,3.43,3.43,0,0,1-1.328,1.15,3.958,3.958,0,0,1-1.81.423,3.829,3.829,0,0,1-2.988-1.22,4.84,4.84,0,0,1-1.1-3.37v-.208a4.759,4.759,0,0,1,1.1-3.283,3.8,3.8,0,0,1,2.988-1.233,3.69,3.69,0,0,1,2.611.934,3.345,3.345,0,0,1,1.058,2.453h-1.9a1.847,1.847,0,0,0-.527-1.27,1.7,1.7,0,0,0-1.258-.5,1.775,1.775,0,0,0-1.511.71,3.621,3.621,0,0,0-.54,2.154v.324a3.681,3.681,0,0,0,.527,2.179A1.773,1.773,0,0,0,127.732,14.556ZM138.308,16a3.113,3.113,0,0,1-.232-.838,3.393,3.393,0,0,1-4.565.232,2.47,2.47,0,0,1-.855-1.909,2.55,2.55,0,0,1,1.067-2.2,5.169,5.169,0,0,1,3.051-.768h1.237V9.924a1.573,1.573,0,0,0-.39-1.116,1.547,1.547,0,0,0-1.187-.419,1.777,1.777,0,0,0-1.129.344,1.066,1.066,0,0,0-.44.876h-2.017a2.239,2.239,0,0,1,.49-1.382,3.263,3.263,0,0,1,1.332-1.009,4.68,4.68,0,0,1,1.88-.365,3.769,3.769,0,0,1,2.515.793,2.827,2.827,0,0,1,.963,2.229v4.051a4.591,4.591,0,0,0,.34,1.934V16Zm-2.216-1.453a2.294,2.294,0,0,0,1.125-.291,1.941,1.941,0,0,0,.793-.78V11.783h-1.087a2.973,2.973,0,0,0-1.685.39,1.264,1.264,0,0,0-.564,1.1,1.179,1.179,0,0,0,.386.926A1.5,1.5,0,0,0,136.091,14.547Z" transform="translate(-555 -8556)" fill="#12263f"/>
    <rect id="Rectángulo_45770" data-name="Rectángulo 45770" width="120" height="3" transform="translate(-540 -8514)" fill="#33ece0"/>
    <rect id="Rectángulo_45771" data-name="Rectángulo 45771" width="134" height="3" transform="translate(-803 -8382)" fill="#a3bfe4"/>
    <rect id="Rectángulo_45779" data-name="Rectángulo 45779" width="134" height="3" transform="translate(-546 -8382)" fill="#98d9ff"/>
    <rect id="Rectángulo_45774" data-name="Rectángulo 45774" width="160" height="3" transform="translate(-559 -8202)" fill="#ffd9a1"/>
    <rect id="Rectángulo_45778" data-name="Rectángulo 45778" width="160" height="3" transform="translate(-816 -8202)" fill="#fff198"/>
    <path id="Trazado_605899" data-name="Trazado 605899" d="M10.451,12.065a4.364,4.364,0,0,1-1.428,3.017,4.867,4.867,0,0,1-3.312,1.083,4.713,4.713,0,0,1-2.544-.685,4.5,4.5,0,0,1-1.7-1.947A7.024,7.024,0,0,1,.847,10.6V9.476a7.075,7.075,0,0,1,.606-3.013A4.567,4.567,0,0,1,3.192,4.454a4.851,4.851,0,0,1,2.619-.706A4.672,4.672,0,0,1,9.031,4.831,4.527,4.527,0,0,1,10.451,7.9H8.359a2.985,2.985,0,0,0-.76-1.88,2.51,2.51,0,0,0-1.789-.577,2.452,2.452,0,0,0-2.1,1A5,5,0,0,0,2.955,9.38v1.072a5.308,5.308,0,0,0,.7,2.991,2.328,2.328,0,0,0,2.054,1.03,2.715,2.715,0,0,0,1.859-.556,2.9,2.9,0,0,0,.789-1.851Zm1.3-.639a5.3,5.3,0,0,1,.523-2.378,3.819,3.819,0,0,1,1.469-1.627,4.14,4.14,0,0,1,2.175-.569,3.923,3.923,0,0,1,2.951,1.17,4.6,4.6,0,0,1,1.224,3.1l.008.473a5.343,5.343,0,0,1-.51,2.374,3.773,3.773,0,0,1-1.461,1.619,4.17,4.17,0,0,1-2.2.573A3.9,3.9,0,0,1,12.9,14.9a4.848,4.848,0,0,1-1.141-3.374Zm2.017.174a3.619,3.619,0,0,0,.573,2.171,1.862,1.862,0,0,0,1.594.784,1.842,1.842,0,0,0,1.59-.8,4,4,0,0,0,.569-2.333,3.572,3.572,0,0,0-.585-2.158,1.973,1.973,0,0,0-3.158-.012A3.922,3.922,0,0,0,13.771,11.6ZM16.477,3.25h2.3l-2.3,2.515-1.619,0Zm7.23,3.769.058.938a3.232,3.232,0,0,1,2.59-1.1A2.483,2.483,0,0,1,28.82,8.23a3.186,3.186,0,0,1,2.756-1.378,2.8,2.8,0,0,1,2.212.822,3.618,3.618,0,0,1,.743,2.424V16H32.514V10.156A1.786,1.786,0,0,0,32.141,8.9,1.635,1.635,0,0,0,30.9,8.5a1.679,1.679,0,0,0-1.125.369,1.948,1.948,0,0,0-.61.967L29.177,16H27.16V10.09A1.439,1.439,0,0,0,25.542,8.5a1.776,1.776,0,0,0-1.718.988V16H21.806V7.019Zm12.518,4.408a5.3,5.3,0,0,1,.523-2.378,3.819,3.819,0,0,1,1.469-1.627,4.14,4.14,0,0,1,2.175-.569,3.923,3.923,0,0,1,2.951,1.17,4.6,4.6,0,0,1,1.224,3.1l.008.473a5.343,5.343,0,0,1-.51,2.374A3.773,3.773,0,0,1,42.6,15.593a4.17,4.17,0,0,1-2.2.573A3.9,3.9,0,0,1,37.366,14.9a4.848,4.848,0,0,1-1.141-3.374Zm2.017.174a3.619,3.619,0,0,0,.573,2.171,1.862,1.862,0,0,0,1.594.784,1.842,1.842,0,0,0,1.59-.8,4,4,0,0,0,.569-2.333,3.572,3.572,0,0,0-.585-2.158,1.973,1.973,0,0,0-3.158-.012A3.922,3.922,0,0,0,38.242,11.6Zm11.92-.158A5.253,5.253,0,0,1,51.145,8.1a3.157,3.157,0,0,1,2.611-1.249,2.958,2.958,0,0,1,2.416,1.071l.091-.9h1.818v8.708a3.619,3.619,0,0,1-1.1,2.789,4.189,4.189,0,0,1-2.968,1.021,4.783,4.783,0,0,1-1.93-.411,3.429,3.429,0,0,1-1.432-1.075l.955-1.212a2.883,2.883,0,0,0,2.291,1.1,2.228,2.228,0,0,0,1.585-.544,2.084,2.084,0,0,0,.581-1.6v-.606a2.97,2.97,0,0,1-2.324.971,3.15,3.15,0,0,1-2.577-1.253A5.423,5.423,0,0,1,50.162,11.443Zm2.009.174a3.616,3.616,0,0,0,.552,2.129,1.775,1.775,0,0,0,1.531.776,1.941,1.941,0,0,0,1.81-1.046V9.525A1.913,1.913,0,0,0,54.271,8.5a1.782,1.782,0,0,0-1.548.789A4.049,4.049,0,0,0,52.17,11.617ZM65.518,16a3.113,3.113,0,0,1-.232-.838,3.393,3.393,0,0,1-4.565.232,2.47,2.47,0,0,1-.855-1.909,2.55,2.55,0,0,1,1.067-2.2,5.169,5.169,0,0,1,3.051-.768h1.237V9.924a1.573,1.573,0,0,0-.39-1.116,1.547,1.547,0,0,0-1.187-.419,1.777,1.777,0,0,0-1.129.344,1.066,1.066,0,0,0-.44.876H60.056a2.239,2.239,0,0,1,.49-1.382,3.263,3.263,0,0,1,1.332-1.009,4.68,4.68,0,0,1,1.88-.365,3.769,3.769,0,0,1,2.515.793,2.827,2.827,0,0,1,.963,2.229v4.051a4.591,4.591,0,0,0,.34,1.934V16ZM63.3,14.547a2.294,2.294,0,0,0,1.125-.291,1.941,1.941,0,0,0,.793-.78V11.783H64.132a2.973,2.973,0,0,0-1.685.39,1.264,1.264,0,0,0-.564,1.1,1.179,1.179,0,0,0,.386.926A1.5,1.5,0,0,0,63.3,14.547Zm7.919-7.529.058,1.038a3.229,3.229,0,0,1,2.615-1.2q2.806,0,2.855,3.212V16H74.732V10.181a1.85,1.85,0,0,0-.369-1.266A1.554,1.554,0,0,0,73.155,8.5a1.944,1.944,0,0,0-1.818,1.1V16H69.32V7.019ZM84.17,16a3.113,3.113,0,0,1-.232-.838,3.393,3.393,0,0,1-4.565.232,2.47,2.47,0,0,1-.855-1.909,2.55,2.55,0,0,1,1.067-2.2,5.169,5.169,0,0,1,3.051-.768h1.237V9.924a1.573,1.573,0,0,0-.39-1.116,1.547,1.547,0,0,0-1.187-.419,1.777,1.777,0,0,0-1.129.344,1.066,1.066,0,0,0-.44.876H78.708a2.239,2.239,0,0,1,.49-1.382A3.263,3.263,0,0,1,80.53,7.218a4.68,4.68,0,0,1,1.88-.365,3.769,3.769,0,0,1,2.515.793,2.827,2.827,0,0,1,.963,2.229v4.051a4.591,4.591,0,0,0,.34,1.934V16Zm-2.216-1.453a2.294,2.294,0,0,0,1.125-.291,1.941,1.941,0,0,0,.793-.78V11.783H82.784a2.973,2.973,0,0,0-1.685.39,1.264,1.264,0,0,0-.564,1.1,1.179,1.179,0,0,0,.386.926A1.5,1.5,0,0,0,81.954,14.547Zm9.9-3.1a5.34,5.34,0,0,1,.963-3.333A3.085,3.085,0,0,1,95.4,6.853a2.931,2.931,0,0,1,2.308,1V3.25h2.017V16H97.9l-.1-.93a2.973,2.973,0,0,1-2.416,1.1,3.068,3.068,0,0,1-2.552-1.27A5.535,5.535,0,0,1,91.856,11.443Zm2.017.174a3.739,3.739,0,0,0,.527,2.137,1.71,1.71,0,0,0,1.5.768,1.9,1.9,0,0,0,1.81-1.1V9.583A1.876,1.876,0,0,0,95.916,8.5a1.723,1.723,0,0,0-1.511.776A4.163,4.163,0,0,0,93.874,11.617ZM103.976,16h-2.017V7.019h2.017ZM101.834,4.686a1.071,1.071,0,0,1,.295-.772,1.113,1.113,0,0,1,.843-.307,1.127,1.127,0,0,1,.847.307,1.062,1.062,0,0,1,.3.772,1.038,1.038,0,0,1-.3.76,1.136,1.136,0,0,1-.847.3,1.122,1.122,0,0,1-.843-.3A1.046,1.046,0,0,1,101.834,4.686Zm6.209,2.333.058,1.038a3.229,3.229,0,0,1,2.615-1.2q2.806,0,2.855,3.212V16h-2.017V10.181a1.85,1.85,0,0,0-.369-1.266,1.554,1.554,0,0,0-1.208-.411,1.944,1.944,0,0,0-1.818,1.1V16h-2.017V7.019Zm11.538,9.147a4.173,4.173,0,0,1-3.109-1.208,4.381,4.381,0,0,1-1.191-3.217v-.249a5.389,5.389,0,0,1,.519-2.4,3.949,3.949,0,0,1,1.457-1.648,3.851,3.851,0,0,1,2.092-.589,3.525,3.525,0,0,1,2.835,1.17,4.949,4.949,0,0,1,1,3.312v.813h-5.869a2.7,2.7,0,0,0,.743,1.76,2.23,2.23,0,0,0,1.639.647,2.731,2.731,0,0,0,2.258-1.121l1.087,1.038a3.631,3.631,0,0,1-1.44,1.249A4.509,4.509,0,0,1,119.581,16.166Zm-.241-7.695A1.7,1.7,0,0,0,118,9.052a3.012,3.012,0,0,0-.652,1.619h3.843v-.149a2.452,2.452,0,0,0-.54-1.531A1.686,1.686,0,0,0,119.34,8.471Zm10.11.39a4.991,4.991,0,0,0-.822-.066,1.85,1.85,0,0,0-1.868,1.063V16h-2.017V7.019h1.926l.05,1a2.273,2.273,0,0,1,2.025-1.17,1.888,1.888,0,0,1,.714.116Zm.6,2.565a5.3,5.3,0,0,1,.523-2.378,3.819,3.819,0,0,1,1.469-1.627,4.14,4.14,0,0,1,2.175-.569,3.923,3.923,0,0,1,2.951,1.17,4.6,4.6,0,0,1,1.224,3.1l.008.473a5.343,5.343,0,0,1-.51,2.374,3.773,3.773,0,0,1-1.461,1.619,4.17,4.17,0,0,1-2.2.573A3.9,3.9,0,0,1,131.19,14.9a4.848,4.848,0,0,1-1.141-3.374Zm2.017.174a3.619,3.619,0,0,0,.573,2.171,1.862,1.862,0,0,0,1.594.784,1.842,1.842,0,0,0,1.59-.8,4,4,0,0,0,.569-2.333,3.572,3.572,0,0,0-.585-2.158,1.973,1.973,0,0,0-3.158-.012A3.922,3.922,0,0,0,132.065,11.6ZM3.179,40H1.162V27.25H3.179Zm7.562,0a3.113,3.113,0,0,1-.232-.838,3.14,3.14,0,0,1-2.357,1,3.169,3.169,0,0,1-2.208-.772,2.47,2.47,0,0,1-.855-1.909,2.55,2.55,0,0,1,1.067-2.2,5.169,5.169,0,0,1,3.051-.768h1.237v-.589a1.573,1.573,0,0,0-.39-1.116,1.547,1.547,0,0,0-1.187-.419,1.777,1.777,0,0,0-1.129.344,1.066,1.066,0,0,0-.44.876H5.279a2.239,2.239,0,0,1,.49-1.382A3.263,3.263,0,0,1,7.1,31.218a4.68,4.68,0,0,1,1.88-.365,3.769,3.769,0,0,1,2.515.793,2.827,2.827,0,0,1,.963,2.229v4.051a4.591,4.591,0,0,0,.34,1.934V40ZM8.525,38.547a2.294,2.294,0,0,0,1.125-.291,1.941,1.941,0,0,0,.793-.78V35.783H9.355a2.973,2.973,0,0,0-1.685.39,1.264,1.264,0,0,0-.564,1.1,1.179,1.179,0,0,0,.386.926A1.5,1.5,0,0,0,8.525,38.547ZM20.7,31.019l.058.938a3.232,3.232,0,0,1,2.59-1.1,2.483,2.483,0,0,1,2.465,1.378,3.186,3.186,0,0,1,2.756-1.378,2.8,2.8,0,0,1,2.212.822,3.618,3.618,0,0,1,.743,2.424V40H29.509V34.156a1.786,1.786,0,0,0-.374-1.253,1.635,1.635,0,0,0-1.237-.4,1.679,1.679,0,0,0-1.125.369,1.948,1.948,0,0,0-.61.967L26.172,40H24.155V34.09A1.439,1.439,0,0,0,22.537,32.5a1.776,1.776,0,0,0-1.718.988V40H18.8V31.019ZM38.964,40a3.113,3.113,0,0,1-.232-.838,3.393,3.393,0,0,1-4.565.232,2.47,2.47,0,0,1-.855-1.909,2.55,2.55,0,0,1,1.067-2.2,5.169,5.169,0,0,1,3.051-.768h1.237v-.589a1.573,1.573,0,0,0-.39-1.116,1.547,1.547,0,0,0-1.187-.419,1.777,1.777,0,0,0-1.129.344,1.066,1.066,0,0,0-.44.876H33.5a2.239,2.239,0,0,1,.49-1.382,3.263,3.263,0,0,1,1.332-1.009,4.68,4.68,0,0,1,1.88-.365,3.769,3.769,0,0,1,2.515.793,2.827,2.827,0,0,1,.963,2.229v4.051a4.591,4.591,0,0,0,.34,1.934V40Zm-2.216-1.453a2.294,2.294,0,0,0,1.125-.291,1.941,1.941,0,0,0,.793-.78V35.783H37.578a2.973,2.973,0,0,0-1.685.39,1.264,1.264,0,0,0-.564,1.1,1.179,1.179,0,0,0,.386.926A1.5,1.5,0,0,0,36.748,38.547ZM47.5,32.861a4.992,4.992,0,0,0-.822-.066,1.85,1.85,0,0,0-1.868,1.063V40H42.791V31.019h1.926l.05,1a2.273,2.273,0,0,1,2.025-1.17,1.888,1.888,0,0,1,.714.116ZM52.3,38.556a1.824,1.824,0,0,0,1.253-.44,1.5,1.5,0,0,0,.531-1.087h1.9a2.963,2.963,0,0,1-.523,1.565,3.43,3.43,0,0,1-1.328,1.15,3.958,3.958,0,0,1-1.81.423,3.829,3.829,0,0,1-2.988-1.22,4.84,4.84,0,0,1-1.1-3.37v-.208a4.759,4.759,0,0,1,1.1-3.283,3.8,3.8,0,0,1,2.988-1.233,3.69,3.69,0,0,1,2.611.934,3.345,3.345,0,0,1,1.058,2.453h-1.9a1.847,1.847,0,0,0-.527-1.27,1.7,1.7,0,0,0-1.258-.5,1.775,1.775,0,0,0-1.511.71,3.621,3.621,0,0,0-.54,2.154v.324a3.682,3.682,0,0,0,.527,2.179A1.773,1.773,0,0,0,52.3,38.556ZM62.878,40a3.113,3.113,0,0,1-.232-.838,3.393,3.393,0,0,1-4.565.232,2.47,2.47,0,0,1-.855-1.909,2.55,2.55,0,0,1,1.067-2.2,5.169,5.169,0,0,1,3.051-.768H62.58v-.589a1.573,1.573,0,0,0-.39-1.116A1.547,1.547,0,0,0,61,32.388a1.777,1.777,0,0,0-1.129.344,1.066,1.066,0,0,0-.44.876H57.417a2.239,2.239,0,0,1,.49-1.382,3.263,3.263,0,0,1,1.332-1.009,4.68,4.68,0,0,1,1.88-.365,3.769,3.769,0,0,1,2.515.793,2.827,2.827,0,0,1,.963,2.229v4.051a4.591,4.591,0,0,0,.34,1.934V40Zm-2.216-1.453a2.294,2.294,0,0,0,1.125-.291,1.941,1.941,0,0,0,.793-.78V35.783H61.492a2.973,2.973,0,0,0-1.685.39,1.264,1.264,0,0,0-.564,1.1,1.179,1.179,0,0,0,.386.926A1.5,1.5,0,0,0,60.662,38.547Z" transform="translate(-555 -8177)" fill="#12263f"/>
    <path id="Trazado_605898" data-name="Trazado 605898" d="M10.451,12.065a4.364,4.364,0,0,1-1.428,3.017,4.867,4.867,0,0,1-3.312,1.083,4.713,4.713,0,0,1-2.544-.685,4.5,4.5,0,0,1-1.7-1.947A7.024,7.024,0,0,1,.847,10.6V9.476a7.075,7.075,0,0,1,.606-3.013A4.567,4.567,0,0,1,3.192,4.454a4.851,4.851,0,0,1,2.619-.706A4.672,4.672,0,0,1,9.031,4.831,4.527,4.527,0,0,1,10.451,7.9H8.359a2.985,2.985,0,0,0-.76-1.88,2.51,2.51,0,0,0-1.789-.577,2.452,2.452,0,0,0-2.1,1A5,5,0,0,0,2.955,9.38v1.072a5.308,5.308,0,0,0,.7,2.991,2.328,2.328,0,0,0,2.054,1.03,2.715,2.715,0,0,0,1.859-.556,2.9,2.9,0,0,0,.789-1.851Zm1.3-.639a5.3,5.3,0,0,1,.523-2.378,3.819,3.819,0,0,1,1.469-1.627,4.14,4.14,0,0,1,2.175-.569,3.923,3.923,0,0,1,2.951,1.17,4.6,4.6,0,0,1,1.224,3.1l.008.473a5.343,5.343,0,0,1-.51,2.374,3.773,3.773,0,0,1-1.461,1.619,4.17,4.17,0,0,1-2.2.573A3.9,3.9,0,0,1,12.9,14.9a4.848,4.848,0,0,1-1.141-3.374Zm2.017.174a3.619,3.619,0,0,0,.573,2.171,1.862,1.862,0,0,0,1.594.784,1.842,1.842,0,0,0,1.59-.8,4,4,0,0,0,.569-2.333,3.572,3.572,0,0,0-.585-2.158,1.973,1.973,0,0,0-3.158-.012A3.922,3.922,0,0,0,13.771,11.6ZM16.477,3.25h2.3l-2.3,2.515-1.619,0Zm7.23,3.769.058.938a3.232,3.232,0,0,1,2.59-1.1A2.483,2.483,0,0,1,28.82,8.23a3.186,3.186,0,0,1,2.756-1.378,2.8,2.8,0,0,1,2.212.822,3.618,3.618,0,0,1,.743,2.424V16H32.514V10.156A1.786,1.786,0,0,0,32.141,8.9,1.635,1.635,0,0,0,30.9,8.5a1.679,1.679,0,0,0-1.125.369,1.948,1.948,0,0,0-.61.967L29.177,16H27.16V10.09A1.439,1.439,0,0,0,25.542,8.5a1.776,1.776,0,0,0-1.718.988V16H21.806V7.019Zm12.518,4.408a5.3,5.3,0,0,1,.523-2.378,3.819,3.819,0,0,1,1.469-1.627,4.14,4.14,0,0,1,2.175-.569,3.923,3.923,0,0,1,2.951,1.17,4.6,4.6,0,0,1,1.224,3.1l.008.473a5.343,5.343,0,0,1-.51,2.374A3.773,3.773,0,0,1,42.6,15.593a4.17,4.17,0,0,1-2.2.573A3.9,3.9,0,0,1,37.366,14.9a4.848,4.848,0,0,1-1.141-3.374Zm2.017.174a3.619,3.619,0,0,0,.573,2.171,1.862,1.862,0,0,0,1.594.784,1.842,1.842,0,0,0,1.59-.8,4,4,0,0,0,.569-2.333,3.572,3.572,0,0,0-.585-2.158,1.973,1.973,0,0,0-3.158-.012A3.922,3.922,0,0,0,38.242,11.6Zm11.92-.158A5.253,5.253,0,0,1,51.145,8.1a3.157,3.157,0,0,1,2.611-1.249,2.958,2.958,0,0,1,2.416,1.071l.091-.9h1.818v8.708a3.619,3.619,0,0,1-1.1,2.789,4.189,4.189,0,0,1-2.968,1.021,4.783,4.783,0,0,1-1.93-.411,3.429,3.429,0,0,1-1.432-1.075l.955-1.212a2.883,2.883,0,0,0,2.291,1.1,2.228,2.228,0,0,0,1.585-.544,2.084,2.084,0,0,0,.581-1.6v-.606a2.97,2.97,0,0,1-2.324.971,3.15,3.15,0,0,1-2.577-1.253A5.423,5.423,0,0,1,50.162,11.443Zm2.009.174a3.616,3.616,0,0,0,.552,2.129,1.775,1.775,0,0,0,1.531.776,1.941,1.941,0,0,0,1.81-1.046V9.525A1.913,1.913,0,0,0,54.271,8.5a1.782,1.782,0,0,0-1.548.789A4.049,4.049,0,0,0,52.17,11.617Zm11.937,4.549A4.173,4.173,0,0,1,61,14.958a4.381,4.381,0,0,1-1.191-3.217v-.249a5.389,5.389,0,0,1,.519-2.4,3.949,3.949,0,0,1,1.457-1.648,3.851,3.851,0,0,1,2.092-.589,3.525,3.525,0,0,1,2.835,1.17,4.949,4.949,0,0,1,1,3.312v.813H61.841a2.7,2.7,0,0,0,.743,1.76,2.23,2.23,0,0,0,1.639.647,2.731,2.731,0,0,0,2.258-1.121l1.087,1.038a3.631,3.631,0,0,1-1.44,1.249A4.509,4.509,0,0,1,64.107,16.166Zm-.241-7.695a1.7,1.7,0,0,0-1.341.581,3.012,3.012,0,0,0-.652,1.619h3.843v-.149a2.452,2.452,0,0,0-.54-1.531A1.686,1.686,0,0,0,63.866,8.471Zm7.28-1.453L71.2,8.056a3.229,3.229,0,0,1,2.615-1.2q2.806,0,2.855,3.212V16H74.657V10.181a1.85,1.85,0,0,0-.369-1.266A1.554,1.554,0,0,0,73.08,8.5a1.944,1.944,0,0,0-1.818,1.1V16H69.245V7.019Zm11.538,9.147a4.173,4.173,0,0,1-3.109-1.208,4.381,4.381,0,0,1-1.191-3.217v-.249a5.389,5.389,0,0,1,.519-2.4A3.949,3.949,0,0,1,80.36,7.442a3.851,3.851,0,0,1,2.092-.589,3.525,3.525,0,0,1,2.835,1.17,4.949,4.949,0,0,1,1,3.312v.813H80.418a2.7,2.7,0,0,0,.743,1.76,2.23,2.23,0,0,0,1.639.647,2.731,2.731,0,0,0,2.258-1.121l1.087,1.038a3.631,3.631,0,0,1-1.44,1.249A4.509,4.509,0,0,1,82.684,16.166Zm-.241-7.695a1.7,1.7,0,0,0-1.341.581,3.012,3.012,0,0,0-.652,1.619h3.843v-.149a2.452,2.452,0,0,0-.54-1.531A1.686,1.686,0,0,0,82.443,8.471Zm10.11.39a4.991,4.991,0,0,0-.822-.066,1.85,1.85,0,0,0-1.868,1.063V16H87.847V7.019h1.926l.05,1a2.273,2.273,0,0,1,2.025-1.17,1.888,1.888,0,0,1,.714.116ZM98.945,16a3.113,3.113,0,0,1-.232-.838,3.393,3.393,0,0,1-4.565.232,2.47,2.47,0,0,1-.855-1.909,2.55,2.55,0,0,1,1.067-2.2,5.169,5.169,0,0,1,3.051-.768h1.237V9.924a1.573,1.573,0,0,0-.39-1.116,1.547,1.547,0,0,0-1.187-.419,1.777,1.777,0,0,0-1.129.344,1.066,1.066,0,0,0-.44.876H93.483a2.239,2.239,0,0,1,.49-1.382,3.263,3.263,0,0,1,1.332-1.009,4.68,4.68,0,0,1,1.88-.365,3.769,3.769,0,0,1,2.515.793,2.827,2.827,0,0,1,.963,2.229v4.051a4.591,4.591,0,0,0,.34,1.934V16Zm-2.216-1.453a2.294,2.294,0,0,0,1.125-.291,1.941,1.941,0,0,0,.793-.78V11.783H97.559a2.973,2.973,0,0,0-1.685.39,1.264,1.264,0,0,0-.564,1.1,1.179,1.179,0,0,0,.386.926A1.5,1.5,0,0,0,96.729,14.547Zm10.75-5.686a4.991,4.991,0,0,0-.822-.066,1.85,1.85,0,0,0-1.868,1.063V16h-2.017V7.019H104.7l.05,1a2.273,2.273,0,0,1,2.025-1.17,1.888,1.888,0,0,1,.714.116Zm8.674,4.582,1.9-6.425h2.083L117.024,16h-1.751l-3.138-8.981h2.092ZM126.637,16a3.113,3.113,0,0,1-.232-.838,3.393,3.393,0,0,1-4.565.232,2.47,2.47,0,0,1-.855-1.909,2.55,2.55,0,0,1,1.067-2.2,5.169,5.169,0,0,1,3.051-.768h1.237V9.924a1.573,1.573,0,0,0-.39-1.116,1.547,1.547,0,0,0-1.187-.419,1.777,1.777,0,0,0-1.129.344,1.066,1.066,0,0,0-.44.876h-2.017a2.239,2.239,0,0,1,.49-1.382A3.263,3.263,0,0,1,123,7.218a4.68,4.68,0,0,1,1.88-.365,3.769,3.769,0,0,1,2.515.793,2.827,2.827,0,0,1,.963,2.229v4.051a4.591,4.591,0,0,0,.34,1.934V16Zm-2.216-1.453a2.294,2.294,0,0,0,1.125-.291,1.941,1.941,0,0,0,.793-.78V11.783H125.25a2.973,2.973,0,0,0-1.685.39,1.264,1.264,0,0,0-.564,1.1,1.179,1.179,0,0,0,.386.926A1.5,1.5,0,0,0,124.42,14.547ZM132.613,16H130.6V3.25h2.017Zm1.818-4.574a5.3,5.3,0,0,1,.523-2.378,3.819,3.819,0,0,1,1.469-1.627,4.14,4.14,0,0,1,2.175-.569,3.923,3.923,0,0,1,2.951,1.17,4.6,4.6,0,0,1,1.224,3.1l.008.473a5.343,5.343,0,0,1-.51,2.374,3.773,3.773,0,0,1-1.461,1.619,4.17,4.17,0,0,1-2.2.573,3.9,3.9,0,0,1-3.042-1.266,4.848,4.848,0,0,1-1.141-3.374Zm2.017.174a3.619,3.619,0,0,0,.573,2.171,1.862,1.862,0,0,0,1.594.784,1.842,1.842,0,0,0,1.59-.8,4,4,0,0,0,.569-2.333,3.572,3.572,0,0,0-.585-2.158,1.973,1.973,0,0,0-3.158-.012A3.922,3.922,0,0,0,136.448,11.6ZM149.19,8.861a4.991,4.991,0,0,0-.822-.066A1.85,1.85,0,0,0,146.5,9.857V16h-2.017V7.019h1.926l.05,1a2.273,2.273,0,0,1,2.025-1.17,1.888,1.888,0,0,1,.714.116Zm-144.2,31.3A4.173,4.173,0,0,1,1.88,38.958,4.381,4.381,0,0,1,.689,35.742v-.249a5.389,5.389,0,0,1,.519-2.4,3.949,3.949,0,0,1,1.457-1.648,3.851,3.851,0,0,1,2.092-.589,3.525,3.525,0,0,1,2.835,1.17,4.949,4.949,0,0,1,1,3.312v.813H2.723a2.7,2.7,0,0,0,.743,1.76,2.23,2.23,0,0,0,1.639.647,2.731,2.731,0,0,0,2.258-1.121L8.45,38.473a3.631,3.631,0,0,1-1.44,1.249A4.509,4.509,0,0,1,4.989,40.166Zm-.241-7.695a1.7,1.7,0,0,0-1.341.581,3.012,3.012,0,0,0-.652,1.619H6.6v-.149a2.452,2.452,0,0,0-.54-1.531A1.686,1.686,0,0,0,4.748,32.471Zm7.28-1.453.058,1.038a3.229,3.229,0,0,1,2.615-1.2q2.806,0,2.855,3.212V40H15.539V34.181a1.85,1.85,0,0,0-.369-1.266,1.554,1.554,0,0,0-1.208-.411,1.944,1.944,0,0,0-1.818,1.1V40H10.127V31.019ZM27.8,40.166a4.173,4.173,0,0,1-3.109-1.208A4.381,4.381,0,0,1,23.5,35.742v-.249a5.389,5.389,0,0,1,.519-2.4,3.949,3.949,0,0,1,1.457-1.648,3.851,3.851,0,0,1,2.092-.589,3.525,3.525,0,0,1,2.835,1.17,4.949,4.949,0,0,1,1,3.312v.813H25.533a2.7,2.7,0,0,0,.743,1.76,2.23,2.23,0,0,0,1.639.647,2.731,2.731,0,0,0,2.258-1.121l1.087,1.038a3.631,3.631,0,0,1-1.44,1.249A4.509,4.509,0,0,1,27.8,40.166Zm-.241-7.695a1.7,1.7,0,0,0-1.341.581,3.012,3.012,0,0,0-.652,1.619H29.41v-.149a2.452,2.452,0,0,0-.54-1.531A1.686,1.686,0,0,0,27.559,32.471ZM35.112,40H33.1V27.25h2.017Zm8.326-8.981.058.938a3.232,3.232,0,0,1,2.59-1.1,2.483,2.483,0,0,1,2.465,1.378,3.186,3.186,0,0,1,2.756-1.378,2.8,2.8,0,0,1,2.212.822,3.618,3.618,0,0,1,.743,2.424V40H52.245V34.156a1.786,1.786,0,0,0-.374-1.253,1.635,1.635,0,0,0-1.237-.4,1.679,1.679,0,0,0-1.125.369,1.948,1.948,0,0,0-.61.967L48.908,40H46.891V34.09A1.439,1.439,0,0,0,45.272,32.5a1.776,1.776,0,0,0-1.718.988V40H41.537V31.019Zm16.851,9.147a4.173,4.173,0,0,1-3.109-1.208,4.381,4.381,0,0,1-1.191-3.217v-.249a5.389,5.389,0,0,1,.519-2.4,3.949,3.949,0,0,1,1.457-1.648,3.851,3.851,0,0,1,2.092-.589,3.525,3.525,0,0,1,2.835,1.17,4.949,4.949,0,0,1,1,3.312v.813H58.022a2.7,2.7,0,0,0,.743,1.76,2.23,2.23,0,0,0,1.639.647,2.731,2.731,0,0,0,2.258-1.121l1.087,1.038a3.631,3.631,0,0,1-1.44,1.249A4.509,4.509,0,0,1,60.289,40.166Zm-.241-7.695a1.7,1.7,0,0,0-1.341.581,3.012,3.012,0,0,0-.652,1.619H61.9v-.149a2.452,2.452,0,0,0-.54-1.531A1.686,1.686,0,0,0,60.048,32.471Zm10.11.39a4.992,4.992,0,0,0-.822-.066,1.85,1.85,0,0,0-1.868,1.063V40H65.452V31.019h1.926l.05,1a2.273,2.273,0,0,1,2.025-1.17,1.888,1.888,0,0,1,.714.116Zm4.806,5.694a1.824,1.824,0,0,0,1.253-.44,1.5,1.5,0,0,0,.531-1.087h1.9a2.963,2.963,0,0,1-.523,1.565,3.43,3.43,0,0,1-1.328,1.15,3.958,3.958,0,0,1-1.81.423A3.829,3.829,0,0,1,72,38.946a4.84,4.84,0,0,1-1.1-3.37v-.208a4.759,4.759,0,0,1,1.1-3.283,3.8,3.8,0,0,1,2.988-1.233,3.69,3.69,0,0,1,2.611.934,3.345,3.345,0,0,1,1.058,2.453h-1.9a1.847,1.847,0,0,0-.527-1.27,1.7,1.7,0,0,0-1.258-.5,1.775,1.775,0,0,0-1.511.71,3.621,3.621,0,0,0-.54,2.154v.324a3.681,3.681,0,0,0,.527,2.179A1.773,1.773,0,0,0,74.964,38.556ZM85.54,40a3.113,3.113,0,0,1-.232-.838,3.393,3.393,0,0,1-4.565.232,2.47,2.47,0,0,1-.855-1.909,2.55,2.55,0,0,1,1.067-2.2A5.169,5.169,0,0,1,84,34.513h1.237v-.589a1.573,1.573,0,0,0-.39-1.116,1.547,1.547,0,0,0-1.187-.419,1.777,1.777,0,0,0-1.129.344,1.066,1.066,0,0,0-.44.876H80.078a2.239,2.239,0,0,1,.49-1.382A3.263,3.263,0,0,1,81.9,31.218a4.68,4.68,0,0,1,1.88-.365,3.769,3.769,0,0,1,2.515.793,2.827,2.827,0,0,1,.963,2.229v4.051a4.591,4.591,0,0,0,.34,1.934V40Zm-2.216-1.453a2.294,2.294,0,0,0,1.125-.291,1.941,1.941,0,0,0,.793-.78V35.783H84.153a2.973,2.973,0,0,0-1.685.39,1.264,1.264,0,0,0-.564,1.1,1.179,1.179,0,0,0,.386.926A1.5,1.5,0,0,0,83.323,38.547Zm5.669-3.1a5.34,5.34,0,0,1,.963-3.333,3.085,3.085,0,0,1,2.582-1.258,2.931,2.931,0,0,1,2.308,1v-4.6h2.017V40H95.036l-.1-.93a2.973,2.973,0,0,1-2.416,1.1,3.068,3.068,0,0,1-2.552-1.27A5.535,5.535,0,0,1,88.993,35.443Zm2.017.174a3.739,3.739,0,0,0,.527,2.137,1.71,1.71,0,0,0,1.5.768,1.9,1.9,0,0,0,1.81-1.1V33.583A1.876,1.876,0,0,0,93.052,32.5a1.723,1.723,0,0,0-1.511.776A4.163,4.163,0,0,0,91.01,35.617Zm7.579-.191a5.3,5.3,0,0,1,.523-2.378,3.819,3.819,0,0,1,1.469-1.627,4.14,4.14,0,0,1,2.175-.569,3.923,3.923,0,0,1,2.951,1.17,4.6,4.6,0,0,1,1.224,3.1l.008.473a5.343,5.343,0,0,1-.51,2.374,3.773,3.773,0,0,1-1.461,1.619,4.17,4.17,0,0,1-2.2.573A3.9,3.9,0,0,1,99.73,38.9a4.848,4.848,0,0,1-1.141-3.374Zm2.017.174a3.619,3.619,0,0,0,.573,2.171,1.862,1.862,0,0,0,1.594.784,1.842,1.842,0,0,0,1.59-.8,4,4,0,0,0,.569-2.333,3.572,3.572,0,0,0-.585-2.158,1.973,1.973,0,0,0-3.158-.012A3.922,3.922,0,0,0,100.605,35.6Z" transform="translate(-812 -8177)" fill="#12263f"/>
    <path id="Trazado_601137" data-name="Trazado 601137" d="M108.851,0,138.634,37.05,108.851,74.1h80.93l28.963-37.245L189.781,0Z" transform="translate(-862.664 -8322.352)" fill="#fff198"/>
    <path id="Trazado_601136" data-name="Trazado 601136" d="M0,0,29.784,37.05,0,74.1H80.93l28.963-37.245L80.93,0Z" transform="translate(-844 -8322.352)" fill="#a3bfe4"/>
    <path id="Trazado_601142" data-name="Trazado 601142" d="M326.362,0,356.146,37.05,326.362,74.1h80.93l28.963-37.245L407.293,0Z" transform="translate(-893.673 -8322.352)" fill="#ffd9a1"/>
    <path id="Trazado_601138" data-name="Trazado 601138" d="M217.512,0,247.3,37.05,217.512,74.1h80.93l28.963-37.245L298.442,0Z" transform="translate(-877.691 -8322.352)" fill="#61ece3"/>
    <path id="Trazado_605897" data-name="Trazado 605897" d="M-.8-5A6.123,6.123,0,0,1-1.834-1.162,3.622,3.622,0,0,1-4.873.166a3.647,3.647,0,0,1-3.021-1.3A5.943,5.943,0,0,1-8.965-4.873V-7.1a6.042,6.042,0,0,1,1.05-3.843,3.649,3.649,0,0,1,3.026-1.312,3.652,3.652,0,0,1,3.021,1.3A5.925,5.925,0,0,1-.8-7.222ZM-3.2-7.443a4.426,4.426,0,0,0-.411-2.189,1.389,1.389,0,0,0-1.282-.685,1.364,1.364,0,0,0-1.249.652,4.142,4.142,0,0,0-.427,2.04v2.941a4.646,4.646,0,0,0,.4,2.2,1.37,1.37,0,0,0,1.291.719,1.347,1.347,0,0,0,1.27-.69A4.535,4.535,0,0,0-3.2-4.568ZM6.649,0H4.25V-9.247l-2.864.888V-10.31L6.392-12.1h.257Z" transform="translate(-783.839 -8279.81)" fill="#12263f"/>
    <path id="Trazado_605896" data-name="Trazado 605896" d="M-.8-5A6.123,6.123,0,0,1-1.834-1.162,3.622,3.622,0,0,1-4.873.166a3.647,3.647,0,0,1-3.021-1.3A5.943,5.943,0,0,1-8.965-4.873V-7.1a6.042,6.042,0,0,1,1.05-3.843,3.649,3.649,0,0,1,3.026-1.312,3.652,3.652,0,0,1,3.021,1.3A5.925,5.925,0,0,1-.8-7.222ZM-3.2-7.443a4.426,4.426,0,0,0-.411-2.189,1.389,1.389,0,0,0-1.282-.685,1.364,1.364,0,0,0-1.249.652,4.142,4.142,0,0,0-.427,2.04v2.941a4.646,4.646,0,0,0,.4,2.2,1.37,1.37,0,0,0,1.291.719,1.347,1.347,0,0,0,1.27-.69A4.535,4.535,0,0,0-3.2-4.568ZM9.106,0H.822V-1.644l3.91-4.167A9.645,9.645,0,0,0,5.923-7.346a2.467,2.467,0,0,0,.386-1.245A1.846,1.846,0,0,0,5.9-9.857a1.468,1.468,0,0,0-1.162-.461,1.584,1.584,0,0,0-1.282.56,2.219,2.219,0,0,0-.469,1.473H.581A3.962,3.962,0,0,1,1.108-10.3,3.715,3.715,0,0,1,2.6-11.733a4.529,4.529,0,0,1,2.183-.519,4.288,4.288,0,0,1,2.9.9A3.172,3.172,0,0,1,8.716-8.824,4.064,4.064,0,0,1,8.251-7,10.148,10.148,0,0,1,6.657-4.831L3.91-1.934h5.2Z" transform="translate(-693.651 -8279.81)" fill="#12263f"/>
    <path id="Trazado_605895" data-name="Trazado 605895" d="M-.8-5A6.123,6.123,0,0,1-1.834-1.162,3.622,3.622,0,0,1-4.873.166a3.647,3.647,0,0,1-3.021-1.3A5.943,5.943,0,0,1-8.965-4.873V-7.1a6.042,6.042,0,0,1,1.05-3.843,3.649,3.649,0,0,1,3.026-1.312,3.652,3.652,0,0,1,3.021,1.3A5.925,5.925,0,0,1-.8-7.222ZM-3.2-7.443a4.426,4.426,0,0,0-.411-2.189,1.389,1.389,0,0,0-1.282-.685,1.364,1.364,0,0,0-1.249.652,4.142,4.142,0,0,0-.427,2.04v2.941a4.646,4.646,0,0,0,.4,2.2,1.37,1.37,0,0,0,1.291.719,1.347,1.347,0,0,0,1.27-.69A4.535,4.535,0,0,0-3.2-4.568Zm6.458.337H4.541a1.8,1.8,0,0,0,1.353-.457,1.673,1.673,0,0,0,.44-1.212A1.479,1.479,0,0,0,5.9-9.911a1.689,1.689,0,0,0-1.2-.407,1.77,1.77,0,0,0-1.154.378,1.208,1.208,0,0,0-.465.984H.681a2.95,2.95,0,0,1,.51-1.7,3.4,3.4,0,0,1,1.428-1.175,4.765,4.765,0,0,1,2.021-.423,4.519,4.519,0,0,1,3,.917A3.13,3.13,0,0,1,8.732-8.807,2.543,2.543,0,0,1,8.226-7.28,3.29,3.29,0,0,1,6.9-6.209a3,3,0,0,1,1.523,1.1,2.972,2.972,0,0,1,.5,1.727A3.181,3.181,0,0,1,7.749-.805,4.723,4.723,0,0,1,4.64.166,4.478,4.478,0,0,1,1.681-.789,3.118,3.118,0,0,1,.531-3.312h2.4A1.39,1.39,0,0,0,3.441-2.2,1.881,1.881,0,0,0,4.7-1.768,1.89,1.89,0,0,0,6.039-2.22a1.562,1.562,0,0,0,.486-1.2q0-1.81-1.992-1.81H3.262Z" transform="translate(-599.963 -8279.81)" fill="#12263f"/>
    <path id="Trazado_601144" data-name="Trazado 601144" d="M434.646,0,464.43,37.05,434.646,74.1h80.93l28.963-37.245L515.576,0Z" transform="translate(-909.143 -8322.352)" fill="#98d9ff"/>
    <path id="Trazado_605894" data-name="Trazado 605894" d="M-.8-5A6.123,6.123,0,0,1-1.834-1.162,3.622,3.622,0,0,1-4.873.166a3.647,3.647,0,0,1-3.021-1.3A5.943,5.943,0,0,1-8.965-4.873V-7.1a6.042,6.042,0,0,1,1.05-3.843,3.649,3.649,0,0,1,3.026-1.312,3.652,3.652,0,0,1,3.021,1.3A5.925,5.925,0,0,1-.8-7.222ZM-3.2-7.443a4.426,4.426,0,0,0-.411-2.189,1.389,1.389,0,0,0-1.282-.685,1.364,1.364,0,0,0-1.249.652,4.142,4.142,0,0,0-.427,2.04v2.941a4.646,4.646,0,0,0,.4,2.2,1.37,1.37,0,0,0,1.291.719,1.347,1.347,0,0,0,1.27-.69A4.535,4.535,0,0,0-3.2-4.568ZM7.919-4.549h1.37v1.934H7.919V0H5.52V-2.615H.564L.457-4.125,5.5-12.086H7.919Zm-5.072,0H5.52V-8.815l-.158.274Z" transform="translate(-506.024 -8279.81)" fill="#12263f"/>
    <path id="Trazado_605893" data-name="Trazado 605893" d="M-.8-5A6.123,6.123,0,0,1-1.834-1.162,3.622,3.622,0,0,1-4.873.166a3.647,3.647,0,0,1-3.021-1.3A5.943,5.943,0,0,1-8.965-4.873V-7.1a6.042,6.042,0,0,1,1.05-3.843,3.649,3.649,0,0,1,3.026-1.312,3.652,3.652,0,0,1,3.021,1.3A5.925,5.925,0,0,1-.8-7.222ZM-3.2-7.443a4.426,4.426,0,0,0-.411-2.189,1.389,1.389,0,0,0-1.282-.685,1.364,1.364,0,0,0-1.249.652,4.142,4.142,0,0,0-.427,2.04v2.941a4.646,4.646,0,0,0,.4,2.2,1.37,1.37,0,0,0,1.291.719,1.347,1.347,0,0,0,1.27-.69A4.535,4.535,0,0,0-3.2-4.568Zm4.375,1.5.7-6.143H8.649v2H3.843l-.3,2.6a3.8,3.8,0,0,1,1.818-.457A3.484,3.484,0,0,1,8.068-6.873a4.277,4.277,0,0,1,.979,3,4.382,4.382,0,0,1-.494,2.1A3.486,3.486,0,0,1,7.139-.344a4.418,4.418,0,0,1-2.175.51A4.692,4.692,0,0,1,2.93-.278,3.607,3.607,0,0,1,1.448-1.527,3.4,3.4,0,0,1,.872-3.362H3.246a1.773,1.773,0,0,0,.527,1.175,1.671,1.671,0,0,0,1.183.419,1.475,1.475,0,0,0,1.253-.585,2.711,2.711,0,0,0,.44-1.656,2.242,2.242,0,0,0-.506-1.577,1.858,1.858,0,0,0-1.436-.548,2.077,2.077,0,0,0-1.386.448l-.232.216Z" transform="translate(-411.336 -8279.81)" fill="#12263f"/>
  </g>
</svg>
