<svg xmlns="http://www.w3.org/2000/svg" xmlns:xlink="http://www.w3.org/1999/xlink" width="400" height="256.392" viewBox="0 0 400 256.392">
  <defs>
    <clipPath id="clip-path">
      <rect id="Rectángulo_45730" data-name="Rectángulo 45730" width="369.775" height="224.784" fill="none"/>
    </clipPath>
    <clipPath id="clip-path-2">
      <rect id="Rectángulo_45732" data-name="Rectángulo 45732" width="59.922" height="55.154" fill="none"/>
    </clipPath>
  </defs>
  <g id="Grupo_1013411" data-name="Grupo 1013411" transform="translate(-180 -2757.608)">
    <rect id="Rectángulo_45731" data-name="Rectángulo 45731" width="400" height="102" rx="51" transform="translate(180 2912)" fill="#a3bfe4"/>
    <g id="Grupo_1013408" data-name="Grupo 1013408" transform="translate(-448.888 -89.392)">
      <g id="Grupo_1013407" data-name="Grupo 1013407" transform="translate(644 2847)">
        <g id="Grupo_1013406" data-name="Grupo 1013406" clip-path="url(#clip-path)">
          <path id="Trazado_600828" data-name="Trazado 600828" d="M134.509,90.041H111.275a5.323,5.323,0,0,1-5.325-5.325V67.29a5.324,5.324,0,0,1,5.325-5.324h23.234a5.326,5.326,0,0,1,5.325,5.324V84.716a5.325,5.325,0,0,1-5.325,5.325" transform="translate(62.217 36.388)" fill="#fff"/>
          <path id="Trazado_600829" data-name="Trazado 600829" d="M263.139,170.944H55a10.65,10.65,0,0,1-10.649-10.65V35.409A10.649,10.649,0,0,1,55,24.76H263.139a10.649,10.649,0,0,1,10.649,10.649V160.294a10.65,10.65,0,0,1-10.649,10.65" transform="translate(26.042 14.54)" fill="#fff"/>
          <path id="Trazado_600830" data-name="Trazado 600830" d="M174.528,32.8H138.739a5.487,5.487,0,0,1-5.471-5.471V5.471A5.487,5.487,0,0,1,138.739,0h35.789A5.487,5.487,0,0,1,180,5.471V27.334a5.487,5.487,0,0,1-5.471,5.471" transform="translate(78.259)" fill="#33ece0"/>
          <path id="Trazado_600831" data-name="Trazado 600831" d="M135.584,58.59l-.159,1.665s-1.338-.122-1.573,1.887-.649,4.806-.649,4.806-3.8,1.138-3.538,2.086a29.259,29.259,0,0,0,2.441,4.113c.511.335-2.255,9.493,8.239,10.288a12.862,12.862,0,0,1,9.66-8.892s5.112,2.216,6.654-2.121-2.181-6.911-3.546-6.928a16.706,16.706,0,0,0-3.987.878S145.1,66.22,144,61.109a30.461,30.461,0,0,1-.657-8.982,7.119,7.119,0,0,0-1.281,3.624,20.408,20.408,0,0,0,.125,3.8Z" transform="translate(76.135 30.611)" fill="#fff"/>
          <path id="Trazado_600832" data-name="Trazado 600832" d="M141.166,54.724s-4.944-6.251-7.162-7.63-4.619-1.882-5.76.459c0,0-2.079-1.368-3.47-.6a3.415,3.415,0,0,0-1.63,2.267s-2.406-.419-3.509.965.181,3.649,1.862,6.07,5.673,7.85,6.747,8.9,4.119,4.568,2.159,6.07-3.725-.071-5.9-.141a3.1,3.1,0,0,0-3.433,2.357c-.368,1.252,1.8,2.992,4.774,3.608a28.175,28.175,0,0,1,6.525,2.592l5.436-4.193L144.376,67l-2.467-5.019-2.584-.292s.232-5.26,1.841-6.966" transform="translate(70.012 26.971)" fill="#fff"/>
          <path id="Trazado_600833" data-name="Trazado 600833" d="M115.311,85.029a82.694,82.694,0,0,0,2.214-8.2c.379-2.467,1.913-6.195-1.427-6.589s-3.244,3.514-3.593,4.443-1,2.647-2.9,2.271-2.744-3.32-3.776-6.882A96.47,96.47,0,0,0,102.276,59.8c-.825-1.733-1.394-3.481-3.735-3.238a2.106,2.106,0,0,0-2.149,2.236s-1.935-.741-2.968-.135-1.2,3.282-1.2,3.282a2.259,2.259,0,0,0-2.209.046c-1.422.624-1.271,3.646-1.071,4.971a63.05,63.05,0,0,0,1.611,7.722c.914,3.2,4.155,12.468,5.947,14.566a18.352,18.352,0,0,1,8.066-4.009,49.206,49.206,0,0,1,10.749-.21" transform="translate(52.152 33.199)" fill="#fff"/>
          <path id="Trazado_600834" data-name="Trazado 600834" d="M86.4,140.731H9.325A9.353,9.353,0,0,1,0,131.4V87.043a9.353,9.353,0,0,1,9.325-9.327H86.4a9.354,9.354,0,0,1,9.327,9.327V131.4a9.354,9.354,0,0,1-9.327,9.327" transform="translate(0 45.637)" fill="#33ece0"/>
          <path id="Trazado_600835" data-name="Trazado 600835" d="M94.8,72.887H20.266A10.624,10.624,0,0,0,9.671,83.482V88.6h95.721V83.482A10.625,10.625,0,0,0,94.8,72.887" transform="translate(5.679 42.801)" fill="#1a1a1a"/>
          <path id="Trazado_600836" data-name="Trazado 600836" d="M164.256,78.3a21.244,21.244,0,0,0-15.5,12.487c-4.865,11.077-7.746,22.353-13.569,21.772s-5.851-2.694-8.987-12.279S118.671,77.3,118.671,77.3s-3.473-4.133-14.737-2.684-11.892,7.122-11.892,7.122,4.317,25.545,7.714,33.862c0,0,6.16,19.315,17.729,24.281s17.606,3.746,25.429,2.081l0,2.3s-1.6,34.454-1.406,36.435l58.462-.043s-3.9-21.907-4.039-31.264c-.168-11.263,1.935-25.777,1.935-25.777a6.166,6.166,0,0,1-5.663-4.532c-1.679-5.576,0-11.053.083-14.769s1.079-12.071-4.1-14.891-8.36-1.482-13.825-3.879-9.9-5.851-10.106-7.247" transform="translate(54.05 43.638)" fill="#fff198"/>
          <path id="Trazado_600837" data-name="Trazado 600837" d="M133.134,64.749s-5.828,3.236-6.722,8.692l8.693,16.831,8.52-6.246s-1.878-2.733-1.378-8c0,0-5.144-.173-7.23-3.808a6.784,6.784,0,0,1-.411-6.536Z" transform="translate(74.233 38.023)" fill="#fff198"/>
          <path id="Trazado_600840" data-name="Trazado 600840" d="M38.817,27.559a5.173,5.173,0,1,1-5.173-5.173,5.174,5.174,0,0,1,5.173,5.173" transform="translate(16.719 13.146)" fill="#ffce26"/>
          <path id="Trazado_600841" data-name="Trazado 600841" d="M88,27.559a5.173,5.173,0,1,1-5.173-5.173A5.174,5.174,0,0,1,88,27.559" transform="translate(45.602 13.146)" fill="#ffce26"/>
          <path id="Trazado_600842" data-name="Trazado 600842" d="M148.692,76.7s-6.571,1.389-8.954,7.065.043,8.435,2.806,11.7,6.985,5.027,9.728,5.792,11.963,1.122,14.288,4.774,2.7,8.914,2.33,13.476-1.47,9.314-.417,12.842,2.138,6.862,12.945,7.112,11.869-11.787,11.757-14.425a49.086,49.086,0,0,0-5.8-21.207c-5.1-9.117-10.206-10.122-13.8-11.961s-10.122-6.133-10.623-11.039a18.89,18.89,0,0,1,1.227-7.584,68.448,68.448,0,0,0,2.382-8.366s.349-8.358-2.938-10.592A25.134,25.134,0,0,0,156.2,51.1s-6.076-2.509-10.761-2.622-7.027.279-9.312,2.287a12.119,12.119,0,0,0-4.243,9.438l8.758,1.548s-.809-5.627,1.379-7.47c0,0-1.267,12.99,5.536,13.995l.668.222a3.475,3.475,0,0,1,3.2-.835c1.992.444,5.3,2.39,4.287,5.935s-5.392,4.386-7.02,3.1" transform="translate(77.449 28.457)" fill="#1a1a1a"/>
          <path id="Trazado_600843" data-name="Trazado 600843" d="M139.46,59.225l-.4,3.273,3.554.668s2.049-2.9,5.144-1.868,3.74,2.976,3.74,2.976l3.835.251.389-3.227Z" transform="translate(81.662 34.779)" fill="#fff"/>
          <path id="Trazado_600844" data-name="Trazado 600844" d="M149.757,60.511l1.282.129-.417,3.57-1.2-.279Z" transform="translate(87.745 35.534)" fill="#fff"/>
          <path id="Trazado_600845" data-name="Trazado 600845" d="M54.27,78.648A2.844,2.844,0,1,1,51.426,75.8a2.844,2.844,0,0,1,2.844,2.844" transform="translate(28.529 44.514)" fill="#fff"/>
          <path id="Trazado_600846" data-name="Trazado 600846" d="M60.333,78.6a2.7,2.7,0,1,1-2.706-2.7,2.705,2.705,0,0,1,2.706,2.7" transform="translate(32.253 44.566)" fill="#fff"/>
          <path id="Trazado_600847" data-name="Trazado 600847" d="M66.586,78.6a2.7,2.7,0,1,1-2.706-2.7,2.706,2.706,0,0,1,2.706,2.7" transform="translate(35.925 44.566)" fill="#fff"/>
          <path id="Trazado_600848" data-name="Trazado 600848" d="M219.346,108.031s-8.7-19.866-29.748-30.962c0,0-1.4,17.328,29.748,30.962" transform="translate(111.332 45.257)" fill="#1a1a1a"/>
          <path id="Trazado_600849" data-name="Trazado 600849" d="M211.616,95.952s12.617-6.046,21.007-14.042,8.317-16.275,8.317-16.275S234,67.65,223.536,78.6s-11.869,17-11.869,17Z" transform="translate(124.267 38.542)" fill="#33ecb3"/>
          <path id="Trazado_600850" data-name="Trazado 600850" d="M213.845,94.649s.619-9.65-2.519-16.869a23.369,23.369,0,0,0-9.285-10.52,45.173,45.173,0,0,0,4.5,16.239c4.1,8.141,7.308,11.15,7.308,11.15" transform="translate(118.645 39.497)" fill="#33ecb3"/>
          <path id="Trazado_600851" data-name="Trazado 600851" d="M212.45,102.232s12.258-2.3,21.491-7.9S245.02,81.719,245.02,81.719a57.7,57.7,0,0,0-19.231,9c-9.66,6.931-13.339,11.515-13.339,11.515" transform="translate(124.757 47.988)" fill="#33ecb3"/>
          <path id="Trazado_600852" data-name="Trazado 600852" d="M209.267,124.811s7.868-14.185,15.387-20.353a108.437,108.437,0,0,1,14.012-9.815s1.036,8.471-10.352,18.513c-10.482,9.246-19.047,11.655-19.047,11.655" transform="translate(122.888 55.577)" fill="#1a1a1a"/>
          <path id="Trazado_600853" data-name="Trazado 600853" d="M209.217,139.519s12.733-5.778,19.582-12.526,9.423-13.588,9.65-15.41a10.654,10.654,0,0,0,0-3.013,70.953,70.953,0,0,0-18.467,15.136c-8.7,10.034-10.765,15.814-10.765,15.814" transform="translate(122.859 63.756)" fill="#33ecb3"/>
          <path id="Trazado_600854" data-name="Trazado 600854" d="M211.562,134.361s-8.955-8.342-13.695-18.336c-5.335-11.25-1.86-19.191-1.86-19.191a43.78,43.78,0,0,1,10.852,16.855,94.65,94.65,0,0,1,4.7,20.672" transform="translate(114.448 56.864)" fill="#33ecb3"/>
          <path id="Trazado_600855" data-name="Trazado 600855" d="M211.814,132.147s-15.49-6.765-20.864-13.317-9.173-11.05-8.933-17.241c0,0,6.785,2.154,16.033,11.533a76.842,76.842,0,0,1,13.764,19.025" transform="translate(106.88 59.657)" fill="#1a1a1a"/>
          <path id="Trazado_600856" data-name="Trazado 600856" d="M209.589,147.627s-2.821-11.076-7.916-18.974-12.633-13.48-18.317-14.4c0,0,3.163,11.388,11.45,19.766S209,147.631,209.589,147.854Z" transform="translate(107.673 67.094)" fill="#1a1a1a"/>
          <path id="Trazado_600857" data-name="Trazado 600857" d="M151.575,9.76c-1.033-1.765-2.721-1.765-3.752,0l-7.928,13.577c-1.032,1.765-.2,3.211,1.844,3.211h15.928c2.046,0,2.874-1.446,1.843-3.211Z" transform="translate(81.89 4.954)" fill="#fff"/>
          <rect id="Rectángulo_45729" data-name="Rectángulo 45729" width="15.725" height="15.725" transform="translate(253.243 96.589)" fill="#752121"/>
          <path id="Trazado_600858" data-name="Trazado 600858" d="M154.175,94.145s-6.428,36.487-30.522,46.8l.7-10.625a46.049,46.049,0,0,0,20.893-16.029c8.373-11.892,8.931-20.144,8.931-20.144" transform="translate(72.613 55.285)" fill="#1a1a1a"/>
          <path id="Trazado_600859" data-name="Trazado 600859" d="M136.939,61.133c.935-13.979,13.985-11.734,14.464-11.641a25.933,25.933,0,0,0-5.96-1.014c-4.684-.111-7.025.279-9.312,2.287a12.122,12.122,0,0,0-4.243,9.438l4.506.8Z" transform="translate(77.449 28.458)" fill="#fff"/>
          <path id="Trazado_600860" data-name="Trazado 600860" d="M140.265,75.618c1.8-7.655,9.463-8.833,9.463-8.833a5.029,5.029,0,0,1-3.582-.535s-6.57,1.389-8.952,7.065.043,8.435,2.8,11.7,6.985,5.027,9.73,5.792a27.054,27.054,0,0,0,2.727.5c-4.981-1.871-14.458-6.041-12.19-15.688" transform="translate(79.995 38.904)" fill="#fff"/>
          <path id="Trazado_600861" data-name="Trazado 600861" d="M138.145,119.4s-8.368,4.006-16.814,3.228-13.26-3.487-13.26-3.487,2.343-9.427,15.037-9.506,15.036,9.765,15.036,9.765" transform="translate(63.463 64.381)" fill="#1a1a1a"/>
          <path id="Trazado_600862" data-name="Trazado 600862" d="M150.966,64.634c-.051,0-1.538-.179-1.538-.179a.442.442,0,0,1-.389-.489.407.407,0,0,1,.492-.386l1.048.122.286-2.444-1.048-.122a.441.441,0,0,1-.387-.49.411.411,0,0,1,.49-.387l1.487.175c.386.49,0,3.811,0,3.811-.243.357-.341.39-.438.39" transform="translate(87.519 35.381)" fill="#1a1a1a"/>
          <path id="Trazado_600863" data-name="Trazado 600863" d="M156.716,65.215c-.052,0-4.143-.483-4.143-.483a.444.444,0,0,1-.386-.492.405.405,0,0,1,.489-.384l3.652.427.286-2.449-15.715-2-2.952,1.057,2.319,1.513,4.082.481a.44.44,0,0,1,.386.489.425.425,0,0,1-.489.384l-4.186-.489c-.19-.068-3.343-2.122-3.343-2.122.094-.787,3.986-2.178,3.986-2.178.206-.022,16.46,2.051,16.46,2.051a.439.439,0,0,1,.381.487l-.389,3.324c-.243.357-.341.389-.438.389" transform="translate(80.284 34.625)" fill="#1a1a1a"/>
          <path id="Trazado_600864" data-name="Trazado 600864" d="M157.832,27.154H141.9a2.661,2.661,0,0,1-2.457-1.165,2.659,2.659,0,0,1,.235-2.711L147.606,9.7a2.422,2.422,0,0,1,4.514,0l7.935,13.577a2.666,2.666,0,0,1,.235,2.711,2.663,2.663,0,0,1-2.457,1.165M149.863,9.04a1.869,1.869,0,0,0-1.5,1.106l-7.927,13.577a1.832,1.832,0,0,0-.232,1.825,1.837,1.837,0,0,0,1.692.721h15.931a1.839,1.839,0,0,0,1.692-.719,1.843,1.843,0,0,0-.232-1.827l-7.935-13.577a1.872,1.872,0,0,0-1.5-1.106" transform="translate(81.725 4.791)" fill="#1a1a1a"/>
          <path id="Trazado_600865" data-name="Trazado 600865" d="M260.992,141.947H25.769a.442.442,0,0,1,0-.884H260.992a.442.442,0,0,1,0,.884" transform="translate(14.873 82.836)" fill="#1a1a1a"/>
          <path id="Trazado_600866" data-name="Trazado 600866" d="M235.382,141.947H192.708a.442.442,0,0,1,0-.884h42.674a.442.442,0,0,1,0,.884" transform="translate(112.906 82.836)" fill="#1a1a1a"/>
          <path id="Trazado_600867" data-name="Trazado 600867" d="M138.412,59.632a3.3,3.3,0,0,0-3.638-1.481.442.442,0,0,1-.284-.836,3.7,3.7,0,0,1,4.3,1.644.443.443,0,0,1-.376.673" transform="translate(78.801 33.558)" fill="#1a1a1a"/>
          <path id="Trazado_600868" data-name="Trazado 600868" d="M135.4,59.393c-.344-.094-.6.03-.836,1.281-.267,1.4.071,1.684.387,1.7s.681-.376.778-1.382.122-1.479-.329-1.6" transform="translate(78.964 34.863)" fill="#1a1a1a"/>
          <path id="Trazado_600869" data-name="Trazado 600869" d="M145.634,70.737a5.25,5.25,0,0,1-3.013-.952.441.441,0,0,1,.5-.724,4.367,4.367,0,1,0-1.19-5.9.437.437,0,0,1-.608.138.444.444,0,0,1-.138-.609,5.251,5.251,0,1,1,4.444,8.046" transform="translate(82.871 35.371)" fill="#1a1a1a"/>
          <path id="Trazado_600870" data-name="Trazado 600870" d="M146.034,67.242c-.241-.073-3.551-2.26-3.551-2.26-.021-.724,3.306-3.192,3.306-3.192a.441.441,0,1,1,.525.709l-2.821,2.094,2.782,1.838a.442.442,0,0,1-.243.811" transform="translate(83.67 36.234)" fill="#1a1a1a"/>
          <path id="Trazado_600871" data-name="Trazado 600871" d="M123.378,155.739a.438.438,0,0,1-.44-.437c-.106-8.379,1.338-37.075,1.4-38.29a.434.434,0,0,1,.465-.419.441.441,0,0,1,.417.462c-.062,1.217-1.5,29.886-1.4,38.236a.444.444,0,0,1-.436.448Z" transform="translate(72.19 68.465)" fill="#1a1a1a"/>
          <path id="Trazado_600872" data-name="Trazado 600872" d="M134.157,89.319c-3.008-5.1-5.079-9.428-7.7-14.906l-.3-.619c-.029-.421.335-5.276,7.195-9.263a.442.442,0,0,1,.444.763c-5.879,3.416-6.692,7.528-6.785,8.233,2.855,5.973,4.92,10.292,7.531,15.141a.441.441,0,0,1-.179.6.45.45,0,0,1-.21.052" transform="translate(74.084 37.858)" fill="#1a1a1a"/>
          <path id="Trazado_600873" data-name="Trazado 600873" d="M161.761,162.653c-.483-.565-5.6-22.77-4.49-39.374.124-1.84.316-3.876.516-6.035.383-4.054.775-8.246.784-11.825a.44.44,0,1,1,.881,0c-.008,3.62-.4,7.833-.787,11.906-.2,2.151-.39,4.184-.511,6.012-1.1,16.469,3.986,38.551,4.038,38.771a.442.442,0,0,1-.33.53.433.433,0,0,1-.1.013" transform="translate(92.262 61.646)" fill="#1a1a1a"/>
          <path id="Trazado_600874" data-name="Trazado 600874" d="M132.51,143.9c-1.2,0-2.425-.051-3.689-.156l-1.3-.141a29.014,29.014,0,0,1-17.064-8.389c-7.049-7.192-10.527-17.121-13-25.886-2.7-9.561-4-17.312-5.662-27.124.124-.771,3.235-7.035,14.136-8.017,9.817-.878,13.091,2.819,13.223,2.979.086.146,9.442,28.745,9.442,28.745.741,2.3,1.44,4.466,3.528,5.657a5.657,5.657,0,0,0,6.477-.694c1.841-1.535,2.868-3.776,3.847-6.135.479-1.159.949-2.325,1.419-3.5a105.784,105.784,0,0,1,5.06-11.3c2.822-5.174,6.3-8.7,10.339-10.488a17.011,17.011,0,0,1,5.074-1.443.428.428,0,0,1,.5.379.45.45,0,0,1-.379.5,16.2,16.2,0,0,0-4.838,1.373c-3.855,1.7-7.195,5.1-9.922,10.1a106.147,106.147,0,0,0-5.012,11.207c-.471,1.173-.943,2.344-1.424,3.506-.981,2.365-2.106,4.813-4.1,6.474a6.531,6.531,0,0,1-7.484.784c-2.384-1.362-3.171-3.8-3.932-6.154l-3.249-9.952-6.076-18.548c-.446-.441-3.759-3.4-12.422-2.616-9.563.86-12.88,6.051-13.358,6.9,1.668,9.881,2.974,17.61,5.657,27.126,2.441,8.657,5.868,18.458,12.776,25.507a28.127,28.127,0,0,0,16.544,8.13l1.281.14c1.23.1,2.428.151,3.6.151,32.291,0,40.135-37.868,40.212-38.265a.436.436,0,0,1,.519-.348.441.441,0,0,1,.346.517c-.079.4-8.069,38.979-41.07,38.979" transform="translate(53.904 43.487)" fill="#1a1a1a"/>
          <path id="Trazado_600875" data-name="Trazado 600875" d="M140.5,81.65c-3.452-.357-5.874-1.581-7.247-3.636a9.048,9.048,0,0,1-.981-6.836c-.717-.687-2.909-2.906-2.89-4.374.011-1.165,2.916-2.5,4.241-3.041.689-.67,1.3-4.041,1.521-6.271L135.3,56.3a.435.435,0,0,1,.5-.378.444.444,0,0,1,.379.5l-.157,1.171c-.1.96-.635,5.884-1.882,6.893-2.059.86-3.817,1.921-3.874,2.332-.011.949,1.713,2.89,2.8,3.893.113.487-.917,4.06.925,6.819,1.219,1.824,3.424,2.914,6.555,3.238a.443.443,0,0,1-.046.882" transform="translate(75.978 32.839)" fill="#1a1a1a"/>
          <path id="Trazado_600876" data-name="Trazado 600876" d="M191.392,32.4a1.923,1.923,0,1,0-1.922-1.924,1.922,1.922,0,0,0,1.922,1.924" transform="translate(111.262 16.768)" fill="#1a1a1a"/>
          <path id="Trazado_600877" data-name="Trazado 600877" d="M200.844,32.537a2.022,2.022,0,1,0-2.021-2.022,2.02,2.02,0,0,0,2.021,2.022" transform="translate(116.755 16.732)" fill="#1a1a1a"/>
          <path id="Trazado_600878" data-name="Trazado 600878" d="M210.206,32.333a1.874,1.874,0,1,0-1.873-1.873,1.872,1.872,0,0,0,1.873,1.873" transform="translate(122.339 16.787)" fill="#1a1a1a"/>
          <path id="Trazado_600879" data-name="Trazado 600879" d="M191.429,41.953a2.022,2.022,0,1,0-2.022-2.022,2.021,2.021,0,0,0,2.022,2.022" transform="translate(111.225 22.261)" fill="#1a1a1a"/>
          <path id="Trazado_600880" data-name="Trazado 600880" d="M200.881,42.089a2.122,2.122,0,1,0-2.121-2.122,2.122,2.122,0,0,0,2.121,2.122" transform="translate(116.718 22.224)" fill="#1a1a1a"/>
          <path id="Trazado_600881" data-name="Trazado 600881" d="M210.243,41.885a1.973,1.973,0,1,0-1.973-1.973,1.973,1.973,0,0,0,1.973,1.973" transform="translate(122.302 22.279)" fill="#1a1a1a"/>
          <path id="Trazado_600882" data-name="Trazado 600882" d="M191.374,51.164a1.873,1.873,0,1,0-1.873-1.873,1.873,1.873,0,0,0,1.873,1.873" transform="translate(111.281 27.845)" fill="#1a1a1a"/>
          <path id="Trazado_600883" data-name="Trazado 600883" d="M200.825,51.3a1.972,1.972,0,1,0-1.971-1.973,1.972,1.972,0,0,0,1.971,1.973" transform="translate(116.773 27.809)" fill="#1a1a1a"/>
          <path id="Trazado_600884" data-name="Trazado 600884" d="M210.194,51.12a1.84,1.84,0,1,0-1.841-1.841,1.839,1.839,0,0,0,1.841,1.841" transform="translate(122.351 27.858)" fill="#1a1a1a"/>
          <path id="Trazado_600885" data-name="Trazado 600885" d="M33.158,93.653a.441.441,0,0,1-.441-.441V41.7A11.048,11.048,0,0,1,43.753,30.669h18.6a.442.442,0,0,1,0,.884h-18.6A10.164,10.164,0,0,0,33.6,41.7V93.212a.441.441,0,0,1-.44.441" transform="translate(19.212 18.01)" fill="#1a1a1a"/>
          <path id="Trazado_600886" data-name="Trazado 600886" d="M176.858,127.118H43.753c-5.879,0-11.036-4.844-11.036-10.368a.44.44,0,1,1,.881,0c0,5.054,4.744,9.484,10.155,9.484H176.858a.442.442,0,0,1,0,.884" transform="translate(19.212 68.299)" fill="#1a1a1a"/>
          <path id="Trazado_600887" data-name="Trazado 600887" d="M174.992,145.066h-10.88a.442.442,0,0,1,0-.884h10.88a10.165,10.165,0,0,0,10.154-10.152V86.183a.44.44,0,1,1,.881,0V134.03a11.047,11.047,0,0,1-11.034,11.036" transform="translate(96.112 50.35)" fill="#1a1a1a"/>
          <path id="Trazado_600888" data-name="Trazado 600888" d="M245.93,65.171a.441.441,0,0,1-.441-.441V41.7a10.165,10.165,0,0,0-10.154-10.15H61.35a.442.442,0,0,1,0-.884H235.335A11.047,11.047,0,0,1,246.37,41.7V64.729a.441.441,0,0,1-.44.441" transform="translate(35.768 18.01)" fill="#1a1a1a"/>
          <path id="Trazado_600889" data-name="Trazado 600889" d="M96.229,136.508H19.16a9.779,9.779,0,0,1-9.768-9.769V82.376a9.777,9.777,0,0,1,9.768-9.768h77.07A9.779,9.779,0,0,1,106,82.376v44.363a9.78,9.78,0,0,1-9.768,9.769M19.16,73.492a8.9,8.9,0,0,0-8.885,8.884v44.363a8.9,8.9,0,0,0,8.885,8.885h77.07a8.9,8.9,0,0,0,8.885-8.885V82.376a8.9,8.9,0,0,0-8.885-8.884Z" transform="translate(5.515 42.638)" fill="#1a1a1a"/>
          <path id="Trazado_600890" data-name="Trazado 600890" d="M168.061,36.978h-30.7a6.3,6.3,0,0,1-6.3-6.3V9.938a6.3,6.3,0,0,1,6.3-6.3h34.8a6.3,6.3,0,0,1,6.3,6.3V27.012a.441.441,0,0,1-.883,0V9.938a5.419,5.419,0,0,0-5.414-5.414h-34.8a5.42,5.42,0,0,0-5.414,5.414V30.682a5.419,5.419,0,0,0,5.414,5.412h30.7a.442.442,0,0,1,0,.884" transform="translate(76.963 2.138)" fill="#1a1a1a"/>
          <path id="Trazado_600891" data-name="Trazado 600891" d="M211.977,132.775c-32.011-14.655-30.294-30.822-30.207-31.5,20.083,9.408,30.5,30.656,30.6,30.87-.1.554-.244.632-.4.632m-29.351-30.737c.046,3.146,1.843,17.091,28.559,29.719-2.033-3.838-11.852-21.051-28.559-29.719" transform="translate(106.717 59.471)" fill="#1a1a1a"/>
          <path id="Trazado_600892" data-name="Trazado 600892" d="M209.229,140.107c-.748-.929,11.114-22.694,29.253-31.786.721,1.017,2.355,17.107-29.067,31.745a.43.43,0,0,1-.186.041m29.027-30.68c-15.569,8.119-26.35,25.6-28.654,29.575,26.7-12.615,28.588-26.435,28.654-29.575" transform="translate(122.846 63.609)" fill="#1a1a1a"/>
          <path id="Trazado_600893" data-name="Trazado 600893" d="M209.745,148.041a8.663,8.663,0,0,1-1.121-.708c-4.76-3.532-20.653-16.333-25.534-32.981.675-.532,19.305,2.574,27.083,33.14-.256.524-.341.549-.429.549m-25.588-33.216c5.12,16.241,21.248,29,24.848,31.691-6.9-25.535-21.472-30.8-24.848-31.691" transform="translate(107.517 67.121)" fill="#1a1a1a"/>
          <path id="Trazado_600894" data-name="Trazado 600894" d="M211.781,134.96C188,111.742,195.609,97.176,195.944,96.568,209.9,110.25,212.2,130.39,212.53,134.289c-.587.651-.67.671-.749.671M196.467,97.566c-1.109,2.876-4.7,16.35,15.122,36.141-.5-5-3.089-23.248-15.122-36.141" transform="translate(114.231 56.708)" fill="#1a1a1a"/>
          <path id="Trazado_600895" data-name="Trazado 600895" d="M219.517,108.491c-.181-.038-1.129-.463-1.129-.463C187.846,93.491,189.255,77.7,189.33,77.038c19.905,9.312,30.156,29.945,30.584,30.818-.165.589-.281.635-.4.635M190.2,77.8c.108,3.136,2.149,16.782,28.342,29.318-2.4-4.47-12.025-20.848-28.342-29.318" transform="translate(111.163 45.239)" fill="#1a1a1a"/>
          <path id="Trazado_600896" data-name="Trazado 600896" d="M214.009,95.091c-.46-.3-12.033-14.528-12.245-27.824,1.114-.232,13.331,4.508,12.895,27.148-.4.619-.521.676-.649.676M202.669,67.967c.517,11.09,8.85,22.715,11.115,25.681.121-18.472-8.679-24.4-11.115-25.681" transform="translate(118.482 39.497)" fill="#1a1a1a"/>
          <path id="Trazado_600897" data-name="Trazado 600897" d="M211.734,96.712a2.1,2.1,0,0,1-.3-1.44c2.679-5.059,12.585-21.748,29.4-30.178.714,1.016,2.144,16.98-28.918,31.575a.426.426,0,0,1-.187.043m.562-1.235C238.469,82.98,240.5,69.338,240.607,66.2c-16.129,8.371-25.689,24.4-28.311,29.275" transform="translate(124.149 38.225)" fill="#1a1a1a"/>
          <path id="Trazado_600898" data-name="Trazado 600898" d="M209.376,125.839c.435-2.951,10.723-22.4,29.116-31.622.713,1.019,2.143,16.985-28.929,31.581a.429.429,0,0,1-.187.041m28.886-30.513c-16.323,8.473-26.04,25.053-28.342,29.326,26.266-12.568,28.25-26.2,28.342-29.326" transform="translate(122.952 55.327)" fill="#1a1a1a"/>
          <path id="Trazado_600899" data-name="Trazado 600899" d="M212.393,102.9c-.459-1.109,14.979-17.236,32.565-21.447.443,1.089-2.173,14.971-32.237,21.345a.75.75,0,0,1-.329.1m32.041-20.407c-14.847,3.849-28.018,16.114-31.256,19.3,25.067-5.484,30.3-16.46,31.256-19.3" transform="translate(124.718 47.829)" fill="#1a1a1a"/>
          <path id="Trazado_600900" data-name="Trazado 600900" d="M205.039,175.188a.455.455,0,0,1-.44-.5l10.7-89.845a.441.441,0,1,1,.876.1l-10.7,89.848a.441.441,0,0,1-.438.389" transform="translate(120.145 49.596)" fill="#1a1a1a"/>
          <path id="Trazado_600901" data-name="Trazado 600901" d="M202.454,153.984c-.441-.422-1.946-32.959-1.946-32.959a.444.444,0,0,1,.421-.46.474.474,0,0,1,.462.419l1.5,32.538a.444.444,0,0,1-.422.46l-.019,0" transform="translate(117.744 70.799)" fill="#1a1a1a"/>
          <path id="Trazado_600902" data-name="Trazado 600902" d="M200.358,145.463a.445.445,0,0,1-.441-.429l-.311-9.577a.439.439,0,0,1,.425-.454.444.444,0,0,1,.457.425l.311,9.577a.44.44,0,0,1-.425.456l-.016,0" transform="translate(117.215 79.278)" fill="#1a1a1a"/>
          <path id="Trazado_600903" data-name="Trazado 600903" d="M208.433,149.72a.445.445,0,0,1-.44-.465l1.025-21.08a.42.42,0,0,1,.46-.419.439.439,0,0,1,.421.462L208.874,149.3a.44.44,0,0,1-.441.421" transform="translate(122.139 75.021)" fill="#1a1a1a"/>
          <path id="Trazado_600904" data-name="Trazado 600904" d="M207.459,127.844c-.429-.337-2.216-7.57-2.216-7.57a.441.441,0,0,1,.857-.211l1.786,7.233a.438.438,0,0,1-.322.533.414.414,0,0,1-.1.014" transform="translate(120.518 70.309)" fill="#1a1a1a"/>
          <path id="Trazado_600905" data-name="Trazado 600905" d="M207.981,118.862c-.413-.152-.5-.416-.4-.635l2.184-4.473a.441.441,0,0,1,.794.386l-2.186,4.474a.44.44,0,0,1-.4.248" transform="translate(121.877 66.655)" fill="#1a1a1a"/>
          <path id="Trazado_600906" data-name="Trazado 600906" d="M209.666,110.676c-.441-.4-1.6-13.9-1.6-13.9a.442.442,0,0,1,.881-.076l1.165,13.5a.44.44,0,0,1-.4.476l-.04,0" transform="translate(122.179 56.549)" fill="#1a1a1a"/>
          <path id="Trazado_600907" data-name="Trazado 600907" d="M211.6,95.746c-.432-.362-2.394-10.985-2.394-10.985a.441.441,0,1,1,.867-.16l1.96,10.625a.44.44,0,0,1-.354.514.447.447,0,0,1-.079.006" transform="translate(122.849 49.467)" fill="#1a1a1a"/>
          <path id="Trazado_600908" data-name="Trazado 600908" d="M209.893,104.613c-.4-.132-.5-.392-.4-.616l4.047-9.406a.446.446,0,0,1,.581-.232.436.436,0,0,1,.229.579l-4.049,9.408a.439.439,0,0,1-.4.267" transform="translate(122.997 55.39)" fill="#1a1a1a"/>
          <path id="Trazado_600909" data-name="Trazado 600909" d="M94.45,83.394H13.93a.442.442,0,0,1,0-.884H94.45a.442.442,0,0,1,0,.884" transform="translate(7.921 48.452)" fill="#1a1a1a"/>
          <path id="Trazado_600910" data-name="Trazado 600910" d="M63.993,81.717a3.008,3.008,0,1,1,3-3.008,3.009,3.009,0,0,1-3,3.008m0-5.131a2.124,2.124,0,1,0,2.124,2.124,2.125,2.125,0,0,0-2.124-2.124" transform="translate(35.814 44.454)" fill="#1a1a1a"/>
          <path id="Trazado_600911" data-name="Trazado 600911" d="M57.742,81.717a3.008,3.008,0,1,1,3-3.008,3.01,3.01,0,0,1-3,3.008m0-5.131a2.124,2.124,0,1,0,2.122,2.124,2.127,2.127,0,0,0-2.122-2.124" transform="translate(32.141 44.454)" fill="#1a1a1a"/>
          <path id="Trazado_600912" data-name="Trazado 600912" d="M51.485,81.717a3.008,3.008,0,1,1,3-3.008,3.008,3.008,0,0,1-3,3.008m0-5.131a2.124,2.124,0,1,0,2.124,2.124,2.125,2.125,0,0,0-2.124-2.124" transform="translate(28.47 44.454)" fill="#1a1a1a"/>
          <path id="Trazado_600913" data-name="Trazado 600913" d="M54,65.1a.436.436,0,0,1-.1.614.444.444,0,0,1-.26.086" transform="translate(27.922 13.938)" fill="#1a1a1a"/>
          <path id="Trazado_600918" data-name="Trazado 600918" d="M56.348,44.6a.441.441,0,0,1-.44-.441V24.53a.44.44,0,1,1,.881,0V44.159a.442.442,0,0,1-.441.441" transform="translate(32.831 14.145)" fill="#1a1a1a"/>
          <path id="Trazado_600919" data-name="Trazado 600919" d="M61.931,31.9h-.7a.442.442,0,0,1,0-.884h.7A1.818,1.818,0,0,0,63.748,29.2v-6.1a1.819,1.819,0,0,0-1.817-1.819H54.988a1.819,1.819,0,0,0-1.816,1.819v6.1a1.817,1.817,0,0,0,1.816,1.816h.86a.442.442,0,1,1,0,.884h-.86a2.7,2.7,0,0,1-2.7-2.7v-6.1a2.7,2.7,0,0,1,2.7-2.7h6.943a2.7,2.7,0,0,1,2.7,2.7v6.1a2.7,2.7,0,0,1-2.7,2.7" transform="translate(30.706 11.973)" fill="#1a1a1a"/>
          <path id="Trazado_600920" data-name="Trazado 600920" d="M32.059,31.545a.452.452,0,0,1-.438-.5c1.594-12.7,9.873-21.912,19.691-21.912,7.955,0,15.142,6.185,18.313,15.756a.442.442,0,0,1-.283.557.437.437,0,0,1-.559-.279c-3.046-9.2-9.906-15.152-17.472-15.152-9.368,0-17.28,8.89-18.815,21.14a.443.443,0,0,1-.438.386" transform="translate(18.567 5.365)" fill="#1a1a1a"/>
          <path id="Trazado_600921" data-name="Trazado 600921" d="M70.3,50.5a15.545,15.545,0,0,1-4.232-.59.442.442,0,1,1,.243-.851,14.561,14.561,0,0,0,3.989.556c9.417,0,17.337-8.944,18.832-21.272a.431.431,0,0,1,.492-.386.442.442,0,0,1,.386.49C88.464,41.222,80.174,50.5,70.3,50.5" transform="translate(38.611 16.412)" fill="#1a1a1a"/>
          <path id="Trazado_600922" data-name="Trazado 600922" d="M33.242,31.245a4.088,4.088,0,1,1,4.087-4.089,4.092,4.092,0,0,1-4.087,4.089m0-7.292a3.2,3.2,0,1,0,3.206,3.2,3.208,3.208,0,0,0-3.206-3.2" transform="translate(17.121 13.547)" fill="#1a1a1a"/>
          <path id="Trazado_600923" data-name="Trazado 600923" d="M82.427,31.245a4.088,4.088,0,1,1,4.087-4.089,4.092,4.092,0,0,1-4.087,4.089m0-7.292a3.2,3.2,0,1,0,3.206,3.2,3.208,3.208,0,0,0-3.206-3.2" transform="translate(46.004 13.547)" fill="#1a1a1a"/>
          <path id="Trazado_600924" data-name="Trazado 600924" d="M112.8,85.493c-.41-.151-.5-.413-.4-.633a29.855,29.855,0,0,0,1.232-4.641c.306-1.384.592-2.692.841-3.393.51-1.436,1.121-3.16.727-4.52a1.937,1.937,0,0,0-.941-1.208,2.047,2.047,0,0,0-1.933.219,4.519,4.519,0,0,0-1.448,1.7,6.283,6.283,0,0,0-.386,1.182c-.338,1.3-.8,3.071-2.348,3.441q-3.355.781-4.936-5.347c-.319-1.225-.748-2.841-1.238-4.471a55.4,55.4,0,0,0-3.254-8.592,4.829,4.829,0,0,0-1.287-1.951,1.8,1.8,0,0,0-1.152-.311,1.909,1.909,0,0,0-1.5.784,3.583,3.583,0,0,0-.4,2.865c.543,2.168,5.109,15.156,5.155,15.287a.443.443,0,0,1-.835.294c-.187-.536-4.625-13.158-5.176-15.366a4.433,4.433,0,0,1,.54-3.6,2.791,2.791,0,0,1,2.151-1.143,2.641,2.641,0,0,1,1.736.479,4.862,4.862,0,0,1,1.417,2,56.868,56.868,0,0,1,3.443,9.008c.5,1.643.925,3.267,1.248,4.5q1.364,5.288,3.874,4.712c1.03-.246,1.4-1.665,1.7-2.8a6.618,6.618,0,0,1,.463-1.387,5.335,5.335,0,0,1,1.748-2.019,2.891,2.891,0,0,1,2.794-.27,2.8,2.8,0,0,1,1.4,1.757c.473,1.632-.19,3.5-.725,5.009-.249.7-.53,1.981-.827,3.338a29.628,29.628,0,0,1-1.3,4.833.446.446,0,0,1-.4.252" transform="translate(54.833 32.934)" fill="#1a1a1a"/>
          <path id="Trazado_600925" data-name="Trazado 600925" d="M96.247,77.98c-6.089-13.78-5.9-17.393-5.259-18.934a2.4,2.4,0,0,1,1.375-1.378,2.9,2.9,0,0,1,3.392.476.441.441,0,0,1-.667.576,2.082,2.082,0,0,0-2.39-.236,1.56,1.56,0,0,0-.9.9c-.906,2.189.681,8.071,4.852,17.983a.442.442,0,0,1-.236.579.466.466,0,0,1-.171.035" transform="translate(53.252 33.683)" fill="#1a1a1a"/>
          <path id="Trazado_600926" data-name="Trazado 600926" d="M96.57,87.919c-4.776-6.3-9.041-24.04-7.866-26.631a2.774,2.774,0,0,1,1.673-1.632,3.069,3.069,0,0,1,2.276.324.441.441,0,0,1-.456.756,2.187,2.187,0,0,0-1.565-.233,1.928,1.928,0,0,0-1.122,1.152c-.973,2.138,2.978,19.42,7.419,25.562a.444.444,0,0,1-.359.7" transform="translate(51.974 34.971)" fill="#1a1a1a"/>
          <path id="Trazado_600927" data-name="Trazado 600927" d="M133.151,79.032a21.5,21.5,0,0,1-4.187-1.468,27.16,27.16,0,0,0-2.854-1.092c-1.506-.4-3.514-.921-4.6-2.236a2.8,2.8,0,0,1-.663-2.146,2.906,2.906,0,0,1,1.8-2.16,5.337,5.337,0,0,1,2.654-.3,6.463,6.463,0,0,1,1.406.4c1.109.4,2.486.892,3.278.175,1.259-1.146.684-3.117-1.713-5.857-1.227-1.4-2.157-2.5-3.017-3.563a56.705,56.705,0,0,1-5.351-7.647,5.5,5.5,0,0,1-1-2.567,2.636,2.636,0,0,1,.578-1.7,2.793,2.793,0,0,1,2.157-1.133,4.5,4.5,0,0,1,3.281,1.581c1.522,1.709,9.136,13.584,9.457,14.087a.441.441,0,1,1-.741.478c-.079-.125-7.9-12.318-9.376-13.977a3.742,3.742,0,0,0-2.592-1.287,1.912,1.912,0,0,0-1.489.794,1.779,1.779,0,0,0-.392,1.127,4.1,4.1,0,0,0,.724,1.886,56.525,56.525,0,0,0,5.43,7.806c.852,1.051,1.779,2.144,3,3.54,2.774,3.173,3.327,5.558,1.64,7.092-1.175,1.068-2.909.452-4.166,0a6.128,6.128,0,0,0-1.192-.349,4.6,4.6,0,0,0-2.225.238,2.033,2.033,0,0,0-1.267,1.473,1.94,1.94,0,0,0,.467,1.459c.9,1.1,2.681,1.56,4.106,1.935a26.483,26.483,0,0,1,3.013,1.141,22.413,22.413,0,0,0,3.913,1.4.443.443,0,0,1-.068.879" transform="translate(69.82 28.026)" fill="#1a1a1a"/>
          <path id="Trazado_600928" data-name="Trazado 600928" d="M137.166,61.362c-6.184-9.188-10.133-13.791-12.434-14.272a1.557,1.557,0,0,0-1.259.241c-1.417.938-1.163,2.059-1.149,2.106a.451.451,0,0,1-.317.538.437.437,0,0,1-.536-.31,2.891,2.891,0,0,1,1.513-3.071,2.414,2.414,0,0,1,1.93-.368c1.624.34,4.7,2.206,12.625,14.453a.443.443,0,0,1-.371.683" transform="translate(71.299 27.109)" fill="#1a1a1a"/>
          <path id="Trazado_600929" data-name="Trazado 600929" d="M137.992,55.377c-4.863-6.051-8.79-8.631-10.206-8.877a1.961,1.961,0,0,0-1.587.278,2.189,2.189,0,0,0-.689,1.424c-.708.4-.894.2-.881-.048a3.081,3.081,0,0,1,1.013-2.062,2.774,2.774,0,0,1,2.294-.462c1.608.279,5.708,2.916,10.406,9.036a.442.442,0,0,1-.083.619.428.428,0,0,1-.267.092" transform="translate(73.186 26.759)" fill="#1a1a1a"/>
          <path id="Trazado_600930" data-name="Trazado 600930" d="M138.646,52.727a.44.44,0,0,1-.44-.441V50.76a10.167,10.167,0,0,0-10.155-10.152H114.8a.442.442,0,0,1,0-.884h13.25A11.048,11.048,0,0,1,139.087,50.76v1.525a.441.441,0,0,1-.441.441" transform="translate(67.156 23.327)" fill="#1a1a1a"/>
          <path id="Trazado_600931" data-name="Trazado 600931" d="M94.125,77.013H90.687A11.049,11.049,0,0,1,79.653,65.975V50.76A11.048,11.048,0,0,1,90.687,39.724h24.25a.442.442,0,0,1,0,.884H90.687A10.164,10.164,0,0,0,80.534,50.76V65.975A10.166,10.166,0,0,0,90.687,76.129h3.438a.442.442,0,0,1,0,.884" transform="translate(46.775 23.327)" fill="#1a1a1a"/>
          <path id="Trazado_600932" data-name="Trazado 600932" d="M132.961,63.544H99.08a.442.442,0,0,1,0-.884h33.881a.442.442,0,0,1,0,.884" transform="translate(57.924 36.796)" fill="#1a1a1a"/>
          <path id="Trazado_600933" data-name="Trazado 600933" d="M177.452,129.614a24.177,24.177,0,0,1-3.574-.279c-9.515-1.421-8.89-8.127-8.166-15.893a47.739,47.739,0,0,0,.043-12.328c-1.149-6.839-5.1-7.565-10.577-8.566-4.336-.794-9.731-1.781-14.771-6.462-5.487-5.1-4.9-9.8-3.438-12.839,2.146-4.471,7.336-7.59,9.649-7.249a.44.44,0,0,1,.37.5.453.453,0,0,1-.5.373c-1.746-.283-6.639,2.416-8.723,6.758-1.333,2.771-1.851,7.073,3.244,11.807,4.847,4.5,9.884,5.428,14.328,6.241,5.384.986,10.036,1.836,11.288,9.288a48.357,48.357,0,0,1-.036,12.555c-.738,7.922-1.27,13.642,7.417,14.939,5.154.77,9.195-.1,12.031-2.59,4-3.5,4.341-9.011,4.3-11.217-.129-7.6-3.973-25.066-15.034-30.553-12.4-6.149-16.342-10.42-15.074-16.32a.441.441,0,1,1,.862.186c-1.16,5.406,2.662,9.42,14.6,15.344,12.342,6.124,15.42,25.146,15.523,31.329.04,2.328-.33,8.149-4.6,11.895a13.442,13.442,0,0,1-9.169,3.079" transform="translate(79.843 38.741)" fill="#1a1a1a"/>
          <path id="Trazado_600934" data-name="Trazado 600934" d="M163.032,79.629a.451.451,0,0,1-.438-.489,85.165,85.165,0,0,1,3.293-13.511c.686-4.322.008-7.511-1.886-9.879-3-3.744-8.09-4.186-8.143-4.19-1.473-.622-11.234-3.581-15.55-2.2a11.247,11.247,0,0,0-7.895,10.711l8,1.444c-.19-1.632-.5-6,1.5-7.454.69.475-.04,7.238,2.038,11.279a.441.441,0,0,1-.783.406c-1.587-3.089-1.648-7.49-1.548-9.812a13.95,13.95,0,0,0-.251,6.052c-.514.5-9.477-1.113-9.477-1.113-.368-.5-.76-9.487,8.139-12.355C144.609,47.053,154.346,50,156,50.686c.7.068,5.611.673,8.682,4.506,2.059,2.568,2.8,5.985,2.2,10.16-2.5,8.293-3.227,12.074-3.417,13.882a.44.44,0,0,1-.438.4" transform="translate(77.367 28.256)" fill="#1a1a1a"/>
          <path id="Trazado_600935" data-name="Trazado 600935" d="M133.231,67.923A4.664,4.664,0,0,1,131.3,67.5a.441.441,0,0,1,.381-.8c.09.043,2.247,1.03,3.665-.584a.442.442,0,0,1,.665.581,3.58,3.58,0,0,1-2.778,1.219" transform="translate(76.955 38.741)" fill="#1a1a1a"/>
          <path id="Trazado_600936" data-name="Trazado 600936" d="M139.135,63.3a.454.454,0,0,1-.435-.511l.554-3.467a.457.457,0,0,1,.5-.368.442.442,0,0,1,.365.506l-.554,3.467a.437.437,0,0,1-.435.373" transform="translate(81.445 34.616)" fill="#1a1a1a"/>
          <path id="Trazado_600937" data-name="Trazado 600937" d="M24.446,124.334a.44.44,0,0,1-.441-.441V82.951a.441.441,0,1,1,.883,0v40.941a.44.44,0,0,1-.441.441" transform="translate(14.096 48.452)" fill="#1a1a1a"/>
          <path id="Trazado_600938" data-name="Trazado 600938" d="M120.327,48.7h-8.914a.442.442,0,0,1,0-.884h8.914a.442.442,0,0,1,0,.884" transform="translate(65.167 28.081)" fill="#1a1a1a"/>
          <path id="Trazado_600939" data-name="Trazado 600939" d="M115,48.7H92.764a.442.442,0,0,1,0-.884H115a.442.442,0,0,1,0,.884" transform="translate(54.215 28.081)" fill="#1a1a1a"/>
          <path id="Trazado_600940" data-name="Trazado 600940" d="M117.682,55.45H92.765a.443.443,0,0,1,0-.886h24.916a.443.443,0,0,1,0,.886" transform="translate(54.215 32.042)" fill="#1a1a1a"/>
          <path id="Trazado_600941" data-name="Trazado 600941" d="M106.807,113.422H84.859a.44.44,0,0,1-.44-.441V90.407a.441.441,0,0,1,.44-.443H99.944a.442.442,0,1,1,0,.884H85.3v21.689h21.507a.442.442,0,0,1,0,.884" transform="translate(49.573 52.83)" fill="#1a1a1a"/>
          <path id="Trazado_600942" data-name="Trazado 600942" d="M172.407,55.93H156.681a.441.441,0,0,1-.44-.441V39.762a.441.441,0,0,1,.44-.441h15.726a.44.44,0,0,1,.44.441V55.489a.44.44,0,0,1-.44.441m-15.285-.884h14.844V40.205H157.122Z" transform="translate(91.749 23.09)" fill="#1a1a1a"/>
          <path id="Trazado_600943" data-name="Trazado 600943" d="M172.407,74.919H156.681a.442.442,0,0,1-.44-.443V58.751a.44.44,0,0,1,.44-.441h15.726a.439.439,0,0,1,.44.441V74.476a.441.441,0,0,1-.44.443m-15.285-.884h14.844V59.194H157.122Z" transform="translate(91.749 34.241)" fill="#1a1a1a"/>
          <path id="Trazado_600944" data-name="Trazado 600944" d="M138.384,120.007c-2.117-5.881-8.193-9.768-15.2-9.768-6.8,0-12.831,3.749-14.664,9.119a.441.441,0,0,1-.835-.286c1.954-5.72,8.327-9.717,15.5-9.717,7.385,0,13.81,4.146,15.618,10.082a.443.443,0,0,1-.294.551.459.459,0,0,1-.129.019" transform="translate(63.224 64.217)" fill="#1a1a1a"/>
          <g id="Grupo_1013410" data-name="Grupo 1013410" transform="translate(38.048 54.007)">
            <g id="Grupo_1013409" data-name="Grupo 1013409" clip-path="url(#clip-path-2)">
              <path id="Trazado_600945" data-name="Trazado 600945" d="M15.29,38.372,7.423,2.4H6.636c-1.748,0-3.5.007-5.245,0C.523,2.392-.017,1.9,0,1.175A1.213,1.213,0,0,1,1.37.007q3.409-.014,6.818,0A1.228,1.228,0,0,1,9.595,1.15c.6,2.677,1.182,5.357,1.773,8.036.026.117.057.233.1.409H57.927c.2,0,.4,0,.6,0,1.165.026,1.681.776,1.24,1.856-.887,2.169-1.8,4.329-2.7,6.492l-8.976,21.54c-.494,1.185-.645,1.284-1.963,1.284q-17.419,0-34.839,0a4.448,4.448,0,0,0-1.183.115,2.354,2.354,0,0,0-1.7,2.577,2.434,2.434,0,0,0,2.217,2.09c.273.021.549.009.824.009h43.08c1.241,0,1.8.362,1.816,1.175.017.834-.569,1.222-1.846,1.222H46.187c.922,2.936.486,4.861-1.376,6.247a4.779,4.779,0,0,1-5.542.117C37.3,52.978,36.845,51.163,37.7,48H24.621c.895,3,.456,4.873-1.446,6.251a4.765,4.765,0,0,1-5.54.039c-1.946-1.37-2.39-3.21-1.5-6.326-1.833,0-3.65.033-5.465-.007a4.789,4.789,0,0,1,.064-9.576c1.5-.02,2.991,0,4.552,0M56.921,12.033H11.983l5.763,26.337h.823q13.294,0,26.589.017a1.031,1.031,0,0,0,1.127-.766q4.173-10.087,8.386-20.158c.745-1.789,1.485-3.581,2.251-5.43M20.383,52.753a2.394,2.394,0,1,0-2.4-2.368,2.405,2.405,0,0,0,2.4,2.368m21.581,0a2.394,2.394,0,1,0-2.4-2.368,2.405,2.405,0,0,0,2.4,2.368" transform="translate(0 0)"/>
            </g>
          </g>
        </g>
      </g>
    </g>
  </g>
</svg>
